<?xml version="1.0" encoding="utf-8"?>
<!-- Generator: Adobe Illustrator 18.0.0, SVG Export Plug-In . SVG Version: 6.00 Build 0)  -->
<!DOCTYPE svg PUBLIC "-//W3C//DTD SVG 1.1//EN" "http://www.w3.org/Graphics/SVG/1.1/DTD/svg11.dtd">
<svg version="1.1" id="图层_1" xmlns="http://www.w3.org/2000/svg" xmlns:xlink="http://www.w3.org/1999/xlink" x="0px" y="0px"
	 viewBox="0 0 595.3 841.9" enable-background="new 0 0 595.3 841.9" xml:space="preserve">
<path fill="#5B5C5C" d="M63.8,313c1.1-2.3,2.3-4.5,2.8-6.2c36.1-72.3,72.8-144.5,108.4-217.3c9-18.1,23.1-26,42.3-26
	c55.9,0,111.2,0,167.1,0c22,0,44.6-0.6,66.6,0c23.1,0.6,45.7-4,67.7-11.9c1.7-0.6,4-1.7,5.6-1.1c5.6,0.6,8.5,6.2,6.2,11.9
	c-10.7,21.5-21.5,42.9-33.3,64.4c-8.5,15.2-22,23.1-38.9,23.1c-61.5,0-123.1,0-185.2,0c-20.3,0-35,9-43.5,27.7
	c-8.5,17.5-17.5,35-26.5,52.5c-1.1,1.7-1.7,3.4-2.8,5.6c12.4,2.8,24.8,5.1,36.7,7.3c36.7,7.9,73.9,15.8,108.4,31.6
	c51.4,22.6,93.7,55.9,122.5,104.4c17.5,29.4,28.2,60.4,30.5,94.3c6.2,78.5-22.6,142.3-81.3,193.1c-40.1,34.4-86.9,54.8-138.3,64.4
	c-30.5,5.6-61,7.3-91.4,5.1c-34.4-2.8-67.7-11.9-98.8-27.7c-0.6-0.6-1.1-0.6-2.8-1.7c6.2,0.6,10.7,1.1,15.2,1.1
	c47.4,4,93.7-1.1,138.3-16.4c38.9-13.5,73.9-33.3,102.2-64.9c23.1-26,36.1-55.9,40.6-90.3c6.2-47.4-11.3-86.4-42.3-120.8
	c-31.6-34.4-70.6-56.4-114.6-71.1c-33.9-11.3-68.3-19.2-103.9-24.3c-18.1-2.8-36.7-4.5-54.8-6.2C66.1,313.6,65.5,313.6,63.8,313
	L63.8,313z"/>
</svg>
