<svg xmlns="http://www.w3.org/2000/svg" xmlns:xlink="http://www.w3.org/1999/xlink" preserveAspectRatio="xMidYMid" width="21.593" height="30.875" viewBox="0 0 21.593 30.875">
  <defs>
    <style>
      .cls-1 {
        fill: #000;
        fill-rule: evenodd;
      }
    </style>
  </defs>
  <path d="M0.002,11.811 C0.054,11.704 0.095,11.616 0.139,11.530 C1.810,8.275 3.487,5.023 5.147,1.763 C5.557,0.957 6.218,0.593 7.104,0.590 C9.674,0.582 12.244,0.587 14.813,0.587 C15.840,0.587 16.866,0.575 17.892,0.591 C18.971,0.608 20.007,0.417 21.015,0.055 C21.102,0.024 21.197,-0.012 21.285,-0.006 C21.553,0.014 21.688,0.275 21.560,0.520 C21.054,1.485 20.558,2.455 20.035,3.411 C19.655,4.104 19.027,4.450 18.229,4.453 C15.386,4.462 12.542,4.457 9.698,4.456 C8.758,4.456 8.093,4.869 7.680,5.695 C7.286,6.483 6.870,7.262 6.464,8.045 C6.423,8.125 6.385,8.207 6.335,8.311 C6.918,8.427 7.476,8.534 8.032,8.650 C9.736,9.004 11.438,9.368 13.041,10.066 C15.403,11.094 17.360,12.586 18.706,14.773 C19.511,16.081 19.998,17.497 20.125,19.021 C20.416,22.544 19.087,25.413 16.383,27.700 C14.541,29.257 12.374,30.164 9.990,30.596 C8.591,30.850 7.179,30.938 5.759,30.822 C4.162,30.691 2.638,30.289 1.200,29.589 C1.174,29.576 1.150,29.558 1.066,29.506 C1.342,29.531 1.554,29.551 1.766,29.568 C3.944,29.739 6.078,29.527 8.149,28.826 C9.950,28.216 11.571,27.319 12.851,25.909 C13.908,24.745 14.527,23.385 14.736,21.842 C15.024,19.710 14.227,17.949 12.779,16.420 C11.320,14.880 9.515,13.876 7.489,13.219 C5.928,12.713 4.328,12.363 2.702,12.131 C1.860,12.011 1.010,11.936 0.163,11.841 C0.119,11.836 0.076,11.825 0.002,11.811 Z" class="cls-1"/>
</svg>
