<?xml version="1.0" encoding="iso-8859-1"?>
<!-- Generator: Adobe Illustrator 18.0.0, SVG Export Plug-In . SVG Version: 6.00 Build 0)  -->
<!DOCTYPE svg PUBLIC "-//W3C//DTD SVG 1.1//EN" "http://www.w3.org/Graphics/SVG/1.1/DTD/svg11.dtd">
<svg version="1.1" id="&#x56FE;&#x5C42;_1" xmlns="http://www.w3.org/2000/svg" xmlns:xlink="http://www.w3.org/1999/xlink" x="0px"
	 y="0px" viewBox="0 0 595.28 841.89" style="enable-background:new 0 0 595.28 841.89;" xml:space="preserve">
<path style="fill:#5B5C5C;" d="M120.41,195.032c-29.442-41.325,57.119-109.138,95.731-71.78l60.378,65.557
	c3.455,3.75,8.373,5.646,13.422,5.099c38.041-4.131,201.239-21.745,231.609-23.36c22.768-1.208,28.053,25.015,29.021,42.919
	c0.481,8.925-5.57,14.074-14.34,12.851c-164.442-22.874-357.379,66.45-498.787,211.132c-4.417,4.518-11.367,5.34-17.088,2.718
	c-11.291-5.169-27.015-15.633-17.338-31.197c12.976-20.858,76.217-87.558,137.858-141.112c11.001-9.557,13.217-25.777,5.134-37.945
	L120.41,195.032z"/>
<path style="fill:#5B5C5C;" d="M193.648,666.192C141.127,617.341,95.977,558.974,58.317,490.94
	c-10.529-19.028-2.758-35.81,10.254-53.203c80.599-107.735,391.925-245.282,480.315-179.574
	c42.348,67.112,51.057,154.404,44.378,250.928c-2.367,34.215-12.475,67.643-29.612,97.255
	c-26.784,46.294-61.015,84.936-103.919,114.664c-2.622,1.815-5.796,2.848-8.975,2.978c-44.479,7.014-89.509,7.245-135.055,1.128
	C269.966,718.964,227.583,697.75,193.648,666.192z"/>
</svg>
