<svg xmlns="http://www.w3.org/2000/svg" xmlns:xlink="http://www.w3.org/1999/xlink" preserveAspectRatio="xMidYMid" width="31" height="30" viewBox="0 0 31 30">
  <defs>
    <style>
      .cls-1 {
        fill: #000;
        fill-rule: evenodd;
      }
    </style>
  </defs>
  <path d="M29.905,26.127 C28.835,29.726 23.971,29.537 23.971,29.537 C14.534,30.673 5.195,29.347 5.195,29.347 C2.179,28.968 1.109,26.032 1.109,26.032 C-1.324,15.613 1.011,4.153 1.011,4.153 C1.790,1.311 4.611,0.837 4.611,0.837 C12.491,-0.962 25.528,0.648 25.528,0.648 C30.002,1.216 30.392,5.005 30.392,5.005 C32.046,16.466 29.905,26.127 29.905,26.127 ZM3.152,13.624 C3.152,13.624 1.595,16.750 4.708,17.886 C4.708,17.886 7.238,18.550 8.600,16.655 C8.600,16.655 10.838,14.761 12.978,15.992 C12.978,15.992 14.631,16.466 11.908,18.549 C11.908,18.549 10.059,19.875 9.475,20.065 C9.475,20.065 5.681,22.149 8.211,25.369 C8.211,25.369 9.670,27.168 12.491,25.464 L16.772,22.812 C16.772,22.812 17.550,21.865 17.842,23.190 C17.842,23.190 17.842,25.938 20.080,26.221 C20.080,26.221 22.220,26.884 23.485,24.895 C23.485,24.895 25.138,22.527 22.512,20.538 C22.512,20.538 20.664,19.307 19.593,19.307 C19.593,19.307 18.134,18.360 18.134,20.254 C18.134,20.254 18.620,22.054 15.312,21.959 C15.312,21.959 12.199,22.338 13.269,20.538 C13.269,20.538 15.896,17.981 16.480,17.602 C16.480,17.602 18.912,16.087 17.647,13.813 C17.647,13.813 15.896,11.635 13.561,13.340 C13.561,13.340 10.740,15.234 8.502,13.245 C8.502,13.245 5.779,10.309 3.152,13.624 ZM22.512,4.626 C22.512,4.626 19.787,2.921 17.842,5.100 C17.842,5.100 15.994,7.373 13.659,5.289 C13.659,5.289 11.518,2.827 8.794,4.437 C8.794,4.437 6.265,6.331 8.502,9.078 C8.502,9.078 11.130,10.877 12.978,8.888 C12.978,8.888 15.702,6.142 18.134,8.888 C18.134,8.888 20.760,10.972 22.803,8.888 C22.803,8.888 24.944,6.899 22.512,4.626 ZM27.765,13.151 C25.917,11.256 23.485,12.677 23.485,12.677 L20.566,14.761 C20.371,15.518 23.290,17.413 23.290,17.413 C25.820,18.644 27.181,17.318 27.181,17.318 C29.516,15.613 27.765,13.151 27.765,13.151 Z" class="cls-1"/>
</svg>
