<svg xmlns="http://www.w3.org/2000/svg" xmlns:xlink="http://www.w3.org/1999/xlink" preserveAspectRatio="xMidYMid" width="44.969" height="22.438" viewBox="0 0 44.969 22.438">
  <defs>
    <style>
      .cls-1 {
        fill: #000;
        fill-rule: evenodd;
      }
    </style>
  </defs>
  <path d="M29.147,18.796 C31.996,18.564 36.981,17.134 44.104,14.584 L44.974,14.237 L44.104,14.855 C41.255,16.671 38.089,18.255 34.568,19.569 C30.690,20.960 27.524,21.655 25.190,21.655 C22.816,21.617 21.985,20.612 22.776,18.680 C23.489,16.710 24.478,15.164 25.704,14.044 L30.057,9.291 C31.046,8.132 31.679,7.050 31.996,6.162 L32.154,5.311 L32.154,4.809 C31.758,3.766 29.701,2.800 26.021,1.950 L26.654,3.418 C21.668,4.423 17.989,5.311 15.694,6.084 C13.359,6.857 12.132,7.205 11.895,7.205 L12.093,7.437 L12.172,7.552 C12.449,8.093 12.647,8.712 12.766,9.330 L10.431,10.875 C10.708,11.107 11.064,11.262 11.499,11.300 L11.618,11.339 L12.132,11.416 C13.280,11.494 14.427,11.378 15.535,10.991 L15.892,10.875 C16.802,10.489 17.672,9.987 18.463,9.330 L18.859,9.021 L18.266,8.325 C19.215,8.789 19.730,9.523 19.730,10.566 L19.571,11.687 C19.492,10.489 19.294,9.755 18.978,9.523 C18.384,10.141 17.712,10.643 16.999,11.030 C16.287,11.455 15.496,11.764 14.625,11.996 L11.816,12.112 L9.165,11.416 L8.967,15.164 L8.571,15.164 C7.622,15.357 6.712,15.744 5.920,16.400 C5.485,16.710 5.208,17.057 4.971,17.405 C4.535,18.139 4.654,18.873 5.327,19.646 L5.802,19.839 L5.960,19.916 L8.334,20.380 C11.064,20.573 14.427,20.032 18.424,18.796 L19.176,18.564 L18.424,19.066 C15.258,20.960 12.330,22.042 9.561,22.351 C7.345,22.621 5.248,22.351 3.269,21.617 L2.992,21.501 L1.410,20.380 C-0.450,18.641 -0.490,16.246 1.370,13.193 C3.111,10.257 6.079,7.552 10.273,5.080 L10.708,4.848 C15.061,2.298 19.492,0.752 23.924,0.211 C26.773,-0.175 29.147,-0.059 30.927,0.598 C31.758,0.868 32.470,1.293 33.104,1.834 L33.262,2.027 C35.082,3.766 35.082,6.162 33.262,9.214 C32.787,10.064 32.194,10.837 31.481,11.648 L28.435,15.164 C25.902,17.830 26.140,19.066 29.147,18.796 Z" class="cls-1"/>
</svg>
