<svg xmlns="http://www.w3.org/2000/svg" xmlns:xlink="http://www.w3.org/1999/xlink" preserveAspectRatio="xMidYMid" width="30.906" height="31.219" viewBox="0 0 30.906 31.219">
  <defs>
    <style>
      .cls-1 {
        fill: #000;
        fill-rule: evenodd;
      }
    </style>
  </defs>
  <path d="M27.860,5.757 C19.317,4.599 9.294,9.122 1.947,16.449 C1.718,16.678 1.357,16.719 1.060,16.587 C0.473,16.325 -0.344,15.795 0.159,15.007 C0.833,13.950 4.119,10.573 7.321,7.861 C7.893,7.377 8.008,6.556 7.588,5.939 L6.258,4.173 C4.728,2.080 9.225,-1.354 11.231,0.538 L14.368,3.858 C14.548,4.048 14.803,4.144 15.065,4.116 C17.042,3.907 25.520,3.015 27.098,2.933 C28.281,2.872 28.555,4.200 28.606,5.107 C28.631,5.558 28.316,5.819 27.860,5.757 ZM28.518,7.370 C30.718,10.768 31.170,15.189 30.823,20.077 C30.700,21.809 30.175,23.502 29.285,25.002 C27.893,27.346 26.115,29.303 23.886,30.809 C23.750,30.900 23.585,30.953 23.420,30.959 C21.109,31.314 18.770,31.326 16.404,31.016 C14.028,30.705 11.826,29.631 10.063,28.032 C7.334,25.559 4.988,22.603 3.032,19.158 C2.485,18.194 2.889,17.344 3.565,16.463 C7.752,11.008 23.926,4.042 28.518,7.370 Z" class="cls-1"/>
</svg>
