<svg xmlns="http://www.w3.org/2000/svg" xmlns:xlink="http://www.w3.org/1999/xlink" preserveAspectRatio="xMidYMid" width="20" height="35.969" viewBox="0 0 20 35.969">
  <defs>
    <style>
      .cls-1 {
        fill: #000;
        fill-rule: evenodd;
      }
    </style>
  </defs>
  <path d="M16.138,14.473 C17.048,16.778 17.984,19.075 18.861,21.393 C19.501,23.085 20.085,24.801 19.993,26.641 C19.805,28.411 19.320,30.096 18.394,31.655 L18.391,31.661 C18.249,31.749 18.171,31.878 18.132,32.030 L18.126,32.039 C17.518,32.754 16.852,33.417 16.138,34.036 L16.132,34.040 C15.836,34.157 15.586,34.338 15.356,34.546 L15.343,34.552 C13.905,35.323 12.353,35.751 10.719,35.935 C9.865,35.927 8.977,36.058 8.166,35.878 C6.988,35.617 5.800,35.292 4.766,34.636 C2.223,33.067 0.736,30.850 0.171,28.033 C-0.216,26.101 0.090,24.257 0.723,22.422 C2.143,18.309 3.919,14.326 5.596,10.308 C6.974,7.006 8.380,3.715 9.774,0.420 C9.822,0.305 9.878,0.193 9.963,0.009 C10.141,0.340 10.290,0.617 10.439,0.894 L10.442,0.899 C10.462,1.132 10.537,1.344 10.703,1.523 L10.705,1.528 C10.721,1.762 10.806,1.970 10.967,2.149 L10.970,2.157 C10.982,2.393 11.072,2.600 11.232,2.780 L11.233,2.785 C11.726,4.194 12.311,5.568 12.960,6.919 C12.960,6.919 12.964,6.928 12.964,6.928 C12.981,7.160 13.068,7.366 13.226,7.544 L13.231,7.556 C13.243,7.790 13.332,7.995 13.490,8.174 C13.490,8.174 13.493,8.184 13.493,8.184 C13.772,9.048 14.128,9.882 14.549,10.692 L14.550,10.695 C14.751,11.347 15.003,11.978 15.345,12.576 L15.345,12.579 C15.361,12.815 15.447,13.024 15.608,13.205 L15.609,13.208 C15.629,13.443 15.710,13.654 15.873,13.835 L15.873,13.836 C15.887,14.076 15.985,14.284 16.138,14.473 Z" class="cls-1"/>
</svg>
