<svg xmlns="http://www.w3.org/2000/svg" xmlns:xlink="http://www.w3.org/1999/xlink" preserveAspectRatio="xMidYMid" width="32.53" height="33.687" viewBox="0 0 32.53 33.687">
  <defs>
    <style>
      .cls-1 {
        fill: #000;
        fill-rule: evenodd;
      }
    </style>
  </defs>
  <path d="M29.927,25.474 C29.005,26.850 28.325,28.327 27.846,29.895 C27.702,30.368 27.610,30.855 27.474,31.330 C27.268,32.046 27.035,32.749 26.363,33.211 C25.671,33.685 24.922,33.818 24.103,33.608 C22.748,33.258 21.406,32.857 20.002,32.719 C19.054,32.625 18.107,32.586 17.154,32.637 C15.021,32.752 12.932,32.488 10.933,31.757 C5.191,29.659 1.628,25.663 0.361,19.859 C-0.554,15.670 0.320,11.731 2.721,8.130 C3.611,6.795 4.257,5.357 4.723,3.839 C4.871,3.360 4.964,2.866 5.101,2.383 C5.319,1.614 5.590,0.873 6.344,0.416 C7.010,0.013 7.714,-0.085 8.473,0.107 C9.713,0.421 10.937,0.802 12.217,0.953 C13.296,1.080 14.376,1.137 15.465,1.075 C17.021,0.985 18.567,1.111 20.072,1.503 C26.031,3.056 29.942,6.717 31.855,12.395 C32.349,13.861 32.542,15.383 32.539,16.926 C32.514,20.019 31.667,22.879 29.927,25.474 ZM31.023,15.426 C30.826,13.412 30.176,11.532 29.151,9.768 C26.452,5.124 21.316,2.312 15.827,2.495 C14.099,2.553 12.383,2.473 10.693,2.102 C9.820,1.910 8.960,1.658 8.092,1.441 C7.419,1.272 6.821,1.607 6.627,2.254 C6.574,2.428 6.526,2.603 6.486,2.780 C5.955,5.123 4.988,7.280 3.690,9.322 C1.618,12.584 0.950,16.134 1.826,19.870 C2.958,24.692 5.897,28.138 10.585,30.122 C12.662,31.002 14.855,31.332 16.963,31.222 C19.052,31.186 20.093,31.254 21.869,31.618 C22.752,31.799 23.617,32.063 24.492,32.282 C25.149,32.447 25.751,32.109 25.944,31.476 C25.999,31.295 26.048,31.112 26.090,30.928 C26.618,28.617 27.548,26.472 28.846,24.464 C30.634,21.701 31.340,18.671 31.023,15.426 ZM17.672,24.905 C17.396,24.968 17.116,25.022 16.835,25.053 C16.389,25.103 15.941,25.129 15.493,25.165 C14.043,25.137 12.658,24.841 11.335,24.271 C10.851,24.063 10.604,23.545 10.751,23.060 C10.897,22.577 11.380,22.270 11.897,22.369 C12.166,22.420 12.418,22.550 12.684,22.618 C15.424,23.319 17.906,22.750 20.137,21.119 C21.768,19.926 22.814,18.344 23.235,16.389 C23.279,16.187 23.318,15.972 23.417,15.793 C23.642,15.388 24.131,15.226 24.579,15.370 C25.040,15.518 25.345,15.957 25.300,16.408 C24.885,20.588 21.881,23.936 17.672,24.905 ZM20.789,12.292 C19.803,12.290 19.001,11.520 18.993,10.566 C18.986,9.606 19.797,8.819 20.791,8.822 C21.796,8.825 22.582,9.593 22.579,10.568 C22.575,11.528 21.780,12.294 20.789,12.292 ZM14.549,15.783 C13.554,15.774 12.774,15.011 12.776,14.046 C12.777,13.071 13.571,12.306 14.575,12.313 C15.566,12.320 16.360,13.094 16.356,14.049 C16.352,15.017 15.545,15.792 14.549,15.783 ZM8.332,19.274 C7.335,19.271 6.531,18.486 6.539,17.525 C6.547,16.570 7.350,15.801 8.336,15.804 C9.336,15.806 10.131,16.582 10.126,17.551 C10.121,18.507 9.319,19.276 8.332,19.274 Z" class="cls-1"/>
</svg>
