<svg xmlns="http://www.w3.org/2000/svg" xmlns:xlink="http://www.w3.org/1999/xlink" preserveAspectRatio="xMidYMid" width="28" height="30" viewBox="0 0 28 30">
  <defs>
    <style>
      .cls-1 {
        fill: #000;
        fill-rule: evenodd;
      }
    </style>
  </defs>
  <path d="M24.779,17.826 C21.142,17.903 20.991,15.410 20.991,13.622 C20.991,11.750 21.377,9.099 24.306,9.099 C27.228,9.099 28.013,11.908 28.013,12.839 C28.013,13.777 28.411,17.746 24.779,17.826 ZM18.303,9.567 C15.854,9.258 15.301,7.080 15.539,4.896 C15.735,3.110 17.906,0.373 19.645,0.766 C21.377,1.154 22.961,3.417 22.640,5.363 C22.326,7.311 20.755,9.882 18.303,9.567 ZM18.303,15.021 C20.515,18.137 24.305,21.019 24.305,21.019 C24.305,21.019 27.145,23.203 25.330,27.408 C23.517,31.616 16.882,29.429 16.882,29.429 C16.882,29.429 14.435,28.653 11.590,29.276 C8.752,29.900 6.304,29.665 6.304,29.665 C6.304,29.665 2.984,29.743 2.037,25.616 C1.091,21.485 5.350,19.223 5.669,18.839 C5.985,18.447 8.193,16.970 9.614,14.631 C11.038,12.298 15.300,10.427 18.303,15.021 ZM10.408,9.261 C8.575,9.261 7.091,7.187 7.091,4.624 C7.091,2.060 8.575,-0.011 10.408,-0.011 C12.239,-0.011 13.719,2.060 13.719,4.624 C13.719,7.187 12.239,9.261 10.408,9.261 ZM4.246,15.803 C0.933,16.505 -0.299,12.735 0.066,10.968 C0.066,10.968 0.457,7.154 3.144,6.919 C5.278,6.736 6.850,9.032 7.013,10.347 C7.111,11.199 7.563,15.102 4.246,15.803 Z" class="cls-1"/>
</svg>
