<svg xmlns="http://www.w3.org/2000/svg" xmlns:xlink="http://www.w3.org/1999/xlink" preserveAspectRatio="xMidYMid" width="32" height="31.969" viewBox="0 0 32 31.969">
  <defs>
    <style>
      .cls-1 {
        fill: #000;
        fill-rule: evenodd;
      }
    </style>
  </defs>
  <path d="M31.000,29.969 C29.970,31.142 29.360,31.919 28.000,31.969 C27.425,31.990 25.575,31.969 25.000,31.969 C19.509,31.969 14.491,31.969 9.000,31.969 C7.545,31.969 5.459,31.961 4.000,31.969 C1.563,31.982 -0.007,30.534 -0.000,27.969 C0.002,27.320 -0.010,26.674 -0.010,26.032 C-0.010,20.827 -0.010,15.621 -0.010,10.416 C-0.010,8.616 -0.010,6.816 -0.010,5.016 C-0.010,2.099 2.269,-0.015 5.173,-0.015 C10.104,-0.015 15.035,-0.015 19.965,-0.015 C22.138,-0.015 24.311,-0.015 26.483,-0.015 C27.307,-0.015 28.105,0.012 28.890,0.317 C30.710,1.023 32.071,2.889 32.010,4.855 C32.010,5.893 32.010,6.930 32.010,7.967 C32.010,13.448 32.010,18.929 32.010,24.410 C32.010,26.268 31.817,29.039 31.000,29.969 ZM31.000,21.969 C31.000,17.212 31.000,12.725 31.000,7.969 C30.383,7.969 29.617,7.969 29.000,7.969 C27.868,7.969 27.132,7.969 26.000,7.969 C25.487,7.969 24.513,7.969 24.000,7.969 C23.736,7.418 23.242,6.573 22.873,6.085 C21.473,4.233 19.368,3.169 17.075,2.868 C14.812,2.571 12.375,2.843 10.409,4.057 C9.632,4.537 8.946,5.153 8.374,5.860 C8.094,6.206 7.841,6.573 7.613,6.954 C7.491,7.159 7.251,7.969 7.000,7.969 C4.800,7.969 3.199,7.969 1.000,7.969 C0.746,7.969 0.945,8.772 1.000,8.969 C1.296,10.038 1.056,10.968 1.000,11.969 C0.837,14.886 1.000,17.047 1.000,19.969 C1.000,22.024 1.000,23.914 1.000,25.969 C1.000,27.238 0.756,29.018 1.668,29.946 C2.389,30.680 2.972,30.852 4.000,30.969 C4.514,31.027 5.484,30.969 6.000,30.969 C6.704,30.969 7.296,30.969 8.000,30.969 C7.971,29.783 7.998,29.001 9.000,28.969 C9.420,28.956 9.579,28.969 10.000,28.969 C12.246,28.969 14.754,28.969 17.000,28.969 C19.117,28.969 20.884,28.913 23.000,28.969 C24.198,29.001 24.000,30.763 24.000,30.969 C25.153,30.969 25.847,30.969 27.000,30.969 C28.677,30.969 28.735,31.049 30.000,29.969 C30.685,29.384 31.000,27.784 31.000,26.969 C31.000,25.455 31.000,23.483 31.000,21.969 ZM25.000,13.803 C23.895,13.803 23.000,12.863 23.000,11.704 C23.000,10.932 23.402,10.265 23.993,9.901 L23.993,11.814 L24.021,11.814 C24.075,12.339 24.485,12.753 25.000,12.753 C25.515,12.753 25.925,12.339 25.979,11.814 L26.007,11.814 L26.007,9.901 C26.598,10.265 27.000,10.932 27.000,11.704 C27.000,12.863 26.105,13.803 25.000,13.803 ZM21.000,21.969 C19.848,21.969 18.152,21.969 17.000,21.969 C14.522,21.969 12.478,21.969 10.000,21.969 C9.813,21.969 9.000,21.210 9.000,20.969 C9.000,20.943 9.000,20.914 9.000,20.888 C9.000,19.649 9.000,18.198 9.000,16.969 C9.000,14.640 9.000,12.298 9.000,9.969 C9.000,9.518 9.332,8.969 11.000,8.969 C12.337,8.969 13.663,8.969 15.000,8.969 C17.116,8.969 18.884,8.969 21.000,8.969 C21.696,9.037 21.908,10.022 21.969,10.499 C21.959,10.830 21.991,12.777 22.000,13.969 C22.016,16.167 22.000,18.771 22.000,20.969 C22.000,21.114 21.161,21.875 21.000,21.969 ZM12.043,13.125 C11.560,13.289 11.352,13.870 11.295,14.330 C11.163,14.976 11.608,15.847 12.340,15.841 C13.164,15.833 13.467,15.084 13.435,14.380 C13.405,13.716 12.817,12.862 12.043,13.125 ZM14.449,10.955 C13.087,10.955 13.087,13.805 14.449,13.805 C15.811,13.805 15.811,10.955 14.449,10.955 ZM14.604,15.024 C14.222,15.312 14.024,15.772 13.695,16.114 C13.475,16.344 13.227,16.549 12.991,16.762 C12.478,17.223 11.917,17.595 11.859,18.353 C11.801,19.102 12.273,19.945 13.067,20.063 C13.881,20.184 14.663,19.891 15.467,19.881 C16.571,19.868 18.385,20.816 19.001,19.382 C18.863,19.705 18.725,20.026 19.002,19.381 C19.278,18.736 19.141,19.057 19.003,19.379 C19.288,18.710 19.250,17.929 18.689,17.418 C18.041,16.829 17.368,16.299 16.858,15.575 C16.347,14.787 15.413,14.415 14.604,15.024 ZM17.178,11.184 C16.597,11.165 16.072,11.955 16.015,12.462 C16.030,12.328 16.042,12.220 16.015,12.464 C15.975,12.831 15.997,12.634 16.015,12.468 C15.949,13.095 16.126,13.806 16.858,13.899 C17.554,13.989 18.029,13.303 18.162,12.708 C18.292,12.125 17.868,11.206 17.178,11.184 ZM19.032,13.804 C18.074,13.513 17.677,14.355 17.677,15.145 C17.677,15.910 17.976,16.455 18.833,16.436 C20.142,16.408 20.164,14.148 19.032,13.804 ZM16.015,12.464 C16.015,12.463 16.015,12.463 16.015,12.462 C16.015,12.464 16.015,12.466 16.015,12.468 C16.015,12.467 16.015,12.465 16.015,12.464 ZM19.002,19.381 C19.002,19.382 19.001,19.382 19.001,19.382 C19.002,19.381 19.002,19.380 19.003,19.379 C19.002,19.380 19.002,19.380 19.002,19.381 ZM21.000,21.969 C21.157,21.969 20.852,22.055 21.000,21.969 ZM21.993,10.717 C21.990,10.675 21.982,10.596 21.969,10.499 C21.972,10.399 21.980,10.451 21.993,10.717 ZM9.000,7.969 C10.455,5.472 12.542,3.912 15.414,3.912 C18.332,3.912 20.542,5.361 22.000,7.969 C21.411,7.969 21.589,7.969 21.000,7.969 C16.919,7.969 13.081,7.969 9.000,7.969 ZM6.000,13.803 C4.895,13.803 4.000,12.863 4.000,11.704 C4.000,10.932 4.402,10.265 4.993,9.901 L4.993,11.814 L5.021,11.814 C5.075,12.339 5.485,12.753 6.000,12.753 C6.515,12.753 6.925,12.339 6.979,11.814 L7.007,11.814 L7.007,9.901 C7.598,10.265 8.000,10.932 8.000,11.704 C8.000,12.863 7.105,13.803 6.000,13.803 ZM24.000,7.969 C24.122,8.041 23.862,7.969 24.000,7.969 Z" class="cls-1"/>
</svg>
