<svg xmlns="http://www.w3.org/2000/svg" xmlns:xlink="http://www.w3.org/1999/xlink" preserveAspectRatio="xMidYMid" width="31" height="29.031" viewBox="0 0 31 29.031">
  <defs>
    <style>
      .cls-1 {
        fill: #000;
        fill-rule: evenodd;
      }
    </style>
  </defs>
  <path d="M31.001,5.159 C31.000,5.804 29.661,6.031 29.000,6.031 C26.515,6.032 26.485,6.039 24.000,6.031 C23.783,6.030 22.999,6.828 23.000,7.031 C23.008,9.059 23.007,9.003 23.000,11.031 C22.999,11.222 23.747,12.884 25.000,13.031 C27.258,13.109 26.742,13.047 29.000,13.031 C29.720,13.031 30.000,13.333 30.000,14.031 C30.000,18.745 29.989,21.317 30.000,26.031 C30.001,26.662 29.840,29.033 28.000,29.031 C24.164,29.016 22.836,29.031 19.000,29.031 C17.102,29.031 17.000,26.733 17.000,26.031 C16.999,21.309 17.000,18.753 17.000,14.031 C17.000,13.371 17.324,13.034 18.000,13.031 C18.088,13.031 18.054,13.028 18.011,13.027 C18.183,13.009 19.001,12.178 19.000,12.031 C18.993,10.979 19.000,10.083 19.000,9.031 C19.000,8.131 19.000,7.931 19.000,7.031 C19.000,5.169 19.000,2.893 19.000,1.031 C19.000,0.277 19.210,0.031 20.000,0.031 C20.767,0.031 20.736,0.019 21.000,0.031 C21.613,0.058 23.073,-0.299 23.000,1.031 C23.001,1.432 23.015,1.630 23.000,2.031 C22.993,2.207 23.830,3.031 24.000,3.031 C26.485,3.026 26.515,3.031 29.000,3.031 C29.726,3.031 30.999,3.328 31.000,4.031 C31.000,4.546 31.001,4.645 31.001,5.159 ZM21.000,18.031 C20.999,20.596 20.999,20.466 21.000,23.031 C21.063,24.202 21.440,25.047 23.000,25.031 C23.333,25.027 23.572,25.025 23.751,25.023 C23.519,25.027 23.387,25.031 24.000,25.031 C24.029,25.031 24.071,25.022 24.106,25.019 C24.190,25.018 24.176,25.018 24.110,25.018 C24.693,24.955 26.029,24.384 26.000,23.031 C26.000,21.760 26.000,22.302 26.000,21.031 C26.000,19.760 26.001,19.302 26.000,18.031 C26.000,16.320 25.293,16.062 24.000,16.031 C23.577,16.031 23.420,16.031 23.387,16.031 C23.293,16.031 23.172,16.031 23.000,16.031 C20.947,16.031 21.094,16.583 21.000,18.031 ZM24.106,25.019 C24.046,25.019 23.935,25.021 23.751,25.023 C23.878,25.021 24.029,25.019 24.110,25.018 C24.109,25.018 24.108,25.019 24.106,25.019 ZM18.011,13.027 C18.008,13.027 18.002,13.031 18.000,13.031 C17.893,13.024 17.959,13.025 18.011,13.027 ZM14.121,28.624 C11.506,28.406 9.364,27.313 7.696,25.349 C7.652,25.297 7.608,25.244 7.555,25.180 C7.366,25.389 7.187,25.598 6.997,25.796 C5.749,27.093 4.229,27.939 2.455,28.368 C1.924,28.496 1.386,28.568 0.842,28.605 C0.459,28.631 0.015,28.272 0.006,27.891 C-0.011,27.158 -0.037,26.422 0.005,25.690 C0.034,25.173 0.289,24.886 0.942,24.724 C3.010,24.209 4.190,23.967 5.000,22.031 C5.251,21.300 6.001,19.737 6.000,19.031 C5.996,14.740 6.000,11.322 6.000,7.031 C6.000,6.559 6.508,6.031 7.000,6.031 C7.844,6.031 7.156,6.031 8.000,6.031 C8.543,6.031 9.000,6.515 9.000,7.031 C9.000,11.337 9.016,14.725 9.000,19.031 C8.995,20.220 9.317,22.069 10.000,23.031 C10.870,24.257 12.562,24.361 14.052,24.733 C14.173,24.763 14.293,24.795 14.412,24.833 C14.840,24.971 15.131,25.353 15.134,25.795 C15.138,26.438 15.138,27.081 15.134,27.724 C15.132,28.301 14.717,28.674 14.121,28.624 ZM14.020,21.279 C13.513,21.279 13.005,21.279 12.497,21.279 C11.760,21.279 12.000,20.740 12.000,20.031 C12.000,15.907 12.000,12.155 12.000,8.031 C12.000,7.025 12.000,6.037 12.000,5.031 C12.000,4.581 11.460,4.031 11.000,4.031 C8.883,4.030 6.117,4.030 4.000,4.031 C3.542,4.031 3.000,4.582 3.000,5.031 C3.000,10.161 3.000,14.901 3.000,20.031 C3.000,20.751 2.744,21.031 2.000,21.031 C1.492,21.031 1.505,20.995 1.000,21.031 C0.260,21.083 0.081,20.822 0.083,20.266 C0.083,20.266 0.084,4.827 0.083,1.748 C0.083,1.535 -0.012,1.221 0.100,1.029 C0.293,0.699 0.605,0.031 1.000,0.031 C1.906,0.030 3.094,0.031 4.000,0.031 C7.430,0.031 10.570,0.031 14.000,0.031 C14.765,0.031 15.130,0.885 15.130,1.618 C15.132,7.815 15.133,14.012 15.134,20.210 C15.134,20.921 14.760,21.279 14.020,21.279 Z" class="cls-1"/>
</svg>
