<svg xmlns="http://www.w3.org/2000/svg" xmlns:xlink="http://www.w3.org/1999/xlink" preserveAspectRatio="xMidYMid" width="32.282" height="29.469" viewBox="0 0 32.282 29.469">
  <defs>
    <style>
      .cls-1 {
        fill: #000;
        fill-rule: evenodd;
      }
    </style>
  </defs>
  <path d="M31.648,4.113 C29.344,6.361 27.060,8.628 24.758,10.877 C23.915,11.701 23.200,11.708 22.368,10.905 C21.141,9.722 19.929,8.525 18.722,7.322 C18.055,6.656 18.028,5.918 18.615,5.289 C19.226,4.634 20.087,4.596 20.807,5.258 C21.597,5.984 22.359,6.740 23.097,7.518 C23.443,7.883 23.661,7.874 24.002,7.513 C24.868,6.597 25.772,5.718 26.660,4.824 C27.592,3.928 28.568,3.072 29.440,2.123 C30.065,1.443 30.724,1.300 31.548,1.607 C31.612,1.658 31.677,1.709 31.742,1.761 C31.811,1.827 31.880,1.894 31.950,1.960 C32.046,2.113 32.143,2.266 32.240,2.418 L32.235,2.430 C32.390,3.109 32.139,3.635 31.648,4.113 ZM8.931,14.698 C8.946,13.684 9.803,12.878 10.856,12.888 C11.896,12.898 12.766,13.739 12.763,14.732 C12.761,15.727 11.887,16.593 10.869,16.610 C9.802,16.628 8.915,15.753 8.931,14.698 ZM19.722,14.652 C19.769,13.697 20.644,12.875 21.611,12.877 C22.706,12.881 23.572,13.730 23.547,14.775 C23.522,15.791 22.659,16.614 21.628,16.606 C20.574,16.598 19.672,15.673 19.722,14.652 ZM20.858,3.895 C19.293,3.190 17.678,2.895 15.983,2.921 C9.348,3.020 4.042,8.531 4.233,15.119 C4.421,21.615 10.071,26.833 16.643,26.574 C16.894,26.564 17.141,26.500 17.390,26.461 C18.982,26.396 20.475,25.910 21.841,25.179 C25.573,23.184 27.706,20.086 28.137,15.897 C28.307,14.911 28.362,13.943 27.989,12.972 C27.737,12.315 27.915,11.699 28.442,11.199 C28.995,10.674 29.622,10.670 30.290,10.933 C30.290,10.933 30.311,10.941 30.311,10.941 C30.382,10.991 30.453,11.040 30.524,11.089 C30.584,11.154 30.645,11.219 30.705,11.284 L30.681,11.261 C30.764,11.378 30.848,11.496 30.931,11.613 L30.920,11.599 C30.909,11.661 30.930,11.712 30.982,11.750 C31.607,15.435 31.183,18.972 29.172,22.183 C26.050,27.167 21.457,29.589 15.495,29.466 C15.177,29.459 14.859,29.451 14.541,29.444 C11.976,29.047 9.597,28.179 7.448,26.730 C7.390,26.692 7.332,26.653 7.274,26.615 C7.014,26.412 6.754,26.210 6.494,26.008 C6.366,25.897 6.238,25.786 6.110,25.675 C6.039,25.625 5.969,25.575 5.898,25.525 C3.418,22.965 1.736,20.014 1.286,16.455 C1.280,15.391 1.275,14.327 1.270,13.263 C1.613,11.108 2.039,8.978 3.244,7.089 C3.469,6.937 3.572,6.785 3.240,6.637 C2.353,5.534 1.179,4.701 0.307,3.575 C-0.353,2.722 0.110,2.191 0.672,1.574 C1.305,0.881 1.927,1.193 2.421,1.610 C3.338,2.383 4.174,3.251 5.015,4.107 C5.326,4.423 5.515,4.451 5.853,4.127 C9.505,0.628 13.922,-0.450 18.871,0.194 C20.014,0.451 21.141,0.754 22.224,1.210 C22.734,1.424 23.164,1.712 23.484,2.157 C23.677,3.933 22.611,4.685 20.858,3.895 ZM30.527,11.091 C30.526,11.090 30.525,11.090 30.524,11.089 C30.516,11.081 30.509,11.073 30.501,11.065 C30.501,11.065 30.527,11.091 30.527,11.091 Z" class="cls-1"/>
</svg>
