<?xml version="1.0" encoding="iso-8859-1"?>
<!-- Generator: Adobe Illustrator 18.0.0, SVG Export Plug-In . SVG Version: 6.00 Build 0)  -->
<!DOCTYPE svg PUBLIC "-//W3C//DTD SVG 1.1//EN" "http://www.w3.org/Graphics/SVG/1.1/DTD/svg11.dtd">
<svg version="1.1" id="&#x56FE;&#x5C42;_1" xmlns="http://www.w3.org/2000/svg" xmlns:xlink="http://www.w3.org/1999/xlink" x="0px"
	 y="0px" viewBox="0 0 123 123" style="enable-background:new 0 0 123 123;" xml:space="preserve">
<path style="fill:#5B5C5C;" d="M61.5,0C27.535,0,0,27.534,0,61.5C0,95.465,27.535,123,61.5,123S123,95.465,123,61.5
	C123,27.534,95.465,0,61.5,0z M27.48,100.426c-7.587,0-13.738-6.151-13.738-13.738c0-7.587,6.151-13.738,13.738-13.738
	s13.738,6.151,13.738,13.738C41.218,94.276,35.067,100.426,27.48,100.426z M77.996,89.662c-0.064,0.685-0.146,1.363-0.239,2.039
	c-0.872,3.628-4.078,6.354-7.973,6.354c-4.577,0-8.287-4.103-8.287-8.673c0-0.706,0.098-1.377,0.265-2.015
	C61.551,71.62,49.272,58.795,33.75,57.712l-0.762-0.089c-0.041-0.002-0.081-0.003-0.122-0.005c-0.655-0.026-1.313-0.088-1.939-0.28
	c-3.33-1.018-5.756-4.128-5.756-7.817c0-4.517,3.633-8.179,8.114-8.179c0.036,0,0.071,0.005,0.107,0.006
	c0.005-0.002,0.01-0.004,0.015-0.006C58.116,41.599,78.071,61.7,78.071,86.47c0,0.927-0.041,1.843-0.099,2.756
	C77.98,89.371,77.995,89.514,77.996,89.662z M108.516,82.055c-1.304,5.426-3.1,12.506-8.926,12.506
	c-6.846,0-5.794-7.938-5.794-14.774c0-1.056,0.147-2.06,0.396-3.015c-0.317-23.556-20.4-46.583-43.619-48.202l-4.301-0.7
	c-5.059-0.9-13.419-0.391-13.419-5.909c0-6.757,6.034-9.833,12.737-9.833c0.054,0,0.106,0.007,0.16,0.008
	c0.007-0.002,0.015-0.006,0.022-0.008c36.963,0.382,63.212,25.05,63.212,62.104c0,1.386-0.061,2.757-0.148,4.122
	c0.013,0.217,0.035,0.432,0.037,0.652C108.779,80.029,108.657,81.045,108.516,82.055z"/>
</svg>
