<svg xmlns="http://www.w3.org/2000/svg" xmlns:xlink="http://www.w3.org/1999/xlink" preserveAspectRatio="xMidYMid" width="32.41" height="28.313" viewBox="0 0 32.41 28.313">
  <defs>
    <style>
      .cls-1 {
        fill: #000;
        fill-rule: evenodd;
      }
    </style>
  </defs>
  <path d="M32.392,1.067 C32.118,3.080 31.876,4.863 31.571,7.111 C27.992,6.559 24.431,6.049 20.851,6.345 C17.574,6.616 14.398,7.235 12.079,9.747 C7.821,14.358 10.138,20.714 16.570,21.848 C20.574,22.555 24.627,22.174 28.643,21.624 C28.488,24.734 28.480,24.260 28.340,27.301 C28.310,27.966 28.462,27.705 23.753,28.183 C18.758,28.433 13.767,28.493 8.980,26.720 C4.444,25.041 0.872,22.370 0.148,17.436 C-0.597,12.358 1.533,8.258 5.612,5.096 C11.733,0.349 22.443,-1.321 32.392,1.067 Z" class="cls-1"/>
</svg>
