<svg xmlns="http://www.w3.org/2000/svg" xmlns:xlink="http://www.w3.org/1999/xlink" preserveAspectRatio="xMidYMid" width="35" height="34" viewBox="0 0 35 34">
  <defs>
    <style>
      .cls-1 {
        fill: #000;
        fill-rule: evenodd;
      }
    </style>
  </defs>
  <path d="M17.496,0.008 C7.829,0.008 -0.008,7.615 -0.008,16.998 C-0.008,26.381 7.829,33.987 17.496,33.987 C27.164,33.987 35.001,26.381 35.001,16.998 C35.001,7.615 27.164,0.008 17.496,0.008 ZM7.813,27.751 C5.654,27.751 3.903,26.052 3.903,23.956 C3.903,21.860 5.654,20.161 7.813,20.161 C9.973,20.161 11.724,21.860 11.724,23.956 C11.724,26.052 9.973,27.751 7.813,27.751 ZM22.192,24.777 C22.174,24.966 22.150,25.154 22.124,25.341 C21.876,26.343 20.963,27.096 19.854,27.096 C18.552,27.096 17.496,25.963 17.496,24.700 C17.496,24.505 17.524,24.320 17.571,24.143 C17.511,19.793 14.016,16.251 9.598,15.951 L9.381,15.927 C9.369,15.926 9.358,15.926 9.346,15.925 C9.160,15.918 8.973,15.901 8.794,15.848 C7.847,15.567 7.156,14.708 7.156,13.689 C7.156,12.441 8.190,11.430 9.465,11.430 C9.476,11.430 9.486,11.431 9.496,11.431 C9.497,11.431 9.499,11.430 9.500,11.430 C16.533,11.500 22.213,17.053 22.213,23.896 C22.213,24.152 22.201,24.405 22.185,24.657 C22.187,24.697 22.191,24.737 22.192,24.777 ZM30.878,22.676 C30.507,24.175 29.996,26.131 28.338,26.131 C26.389,26.131 26.689,23.938 26.689,22.050 C26.689,21.758 26.730,21.481 26.801,21.217 C26.711,14.710 20.995,8.348 14.386,7.901 L13.162,7.708 C11.722,7.459 9.343,7.600 9.343,6.075 C9.343,4.209 11.060,3.359 12.968,3.359 C12.983,3.359 12.998,3.361 13.014,3.361 C13.016,3.360 13.018,3.359 13.020,3.359 C23.541,3.464 31.012,10.279 31.012,20.515 C31.012,20.898 30.994,21.277 30.970,21.654 C30.973,21.713 30.980,21.773 30.980,21.834 C30.953,22.117 30.918,22.397 30.878,22.676 Z" class="cls-1"/>
</svg>
