<svg xmlns="http://www.w3.org/2000/svg" xmlns:xlink="http://www.w3.org/1999/xlink" preserveAspectRatio="xMidYMid" width="40" height="29.031" viewBox="0 0 40 29.031">
  <defs>
    <style>
      .cls-1 {
        fill: #000;
        fill-rule: evenodd;
      }
    </style>
  </defs>
  <path d="M37.039,19.069 C36.540,19.069 36.069,18.924 35.655,18.668 C35.514,24.938 28.564,29.009 20.002,29.020 C11.441,29.009 4.491,24.938 4.349,18.668 C3.936,18.924 3.465,19.069 2.965,19.069 C1.323,19.069 -0.009,17.503 -0.009,15.572 C-0.009,13.641 1.323,12.075 2.965,12.075 C4.035,12.075 4.973,12.739 5.497,13.736 C7.280,9.950 10.991,6.443 15.576,4.999 C18.050,4.032 19.787,2.177 20.002,0.010 C20.217,2.177 21.954,4.032 24.428,4.999 C29.014,6.443 32.724,9.950 34.507,13.736 C35.031,12.739 35.969,12.075 37.039,12.075 C38.682,12.075 40.014,13.641 40.014,15.572 C40.014,17.504 38.682,19.069 37.039,19.069 ZM3.438,15.321 C2.813,15.083 2.139,15.497 2.000,16.000 C1.861,16.503 2.309,16.905 2.934,17.144 C3.559,17.383 4.179,17.168 4.318,16.665 C4.457,16.162 4.063,15.560 3.438,15.321 ZM32.421,19.278 C32.420,19.247 32.418,19.216 32.416,19.185 C32.412,19.121 32.406,19.057 32.399,18.994 C32.391,18.908 32.380,18.823 32.368,18.739 C32.366,18.730 32.365,18.722 32.364,18.714 C32.226,17.822 31.872,16.462 31.337,15.678 C30.053,13.860 27.763,12.649 25.150,12.649 C23.138,12.649 21.319,13.368 20.002,14.528 C18.685,13.368 16.866,12.649 14.854,12.649 C12.241,12.649 9.951,13.860 8.667,15.678 C8.132,16.462 7.778,17.822 7.640,18.714 C7.639,18.722 7.638,18.730 7.636,18.739 C7.624,18.823 7.613,18.908 7.605,18.994 C7.598,19.057 7.592,19.121 7.588,19.185 C7.586,19.216 7.584,19.247 7.583,19.278 C7.578,19.372 7.574,19.466 7.574,19.561 C7.574,24.096 13.135,27.264 20.002,27.274 C26.869,27.263 32.429,24.096 32.429,19.561 C32.429,19.466 32.426,19.372 32.421,19.278 ZM37.950,15.800 C37.811,15.297 37.191,15.083 36.566,15.321 C35.941,15.560 35.547,16.162 35.686,16.665 C35.825,17.168 36.445,17.383 37.070,17.144 C37.695,16.905 38.089,16.304 37.950,15.800 ZM28.000,18.000 C27.640,18.000 26.997,17.423 26.997,16.999 C26.997,16.576 27.640,16.000 28.000,16.000 C28.360,16.000 29.000,16.577 29.000,17.000 C29.000,17.423 28.360,18.000 28.000,18.000 ZM12.000,18.000 C11.640,18.000 11.000,17.423 11.000,17.000 C11.000,16.577 11.640,16.000 12.000,16.000 C12.360,16.000 13.000,16.577 13.000,17.000 C13.000,17.423 12.360,18.000 12.000,18.000 Z" class="cls-1"/>
</svg>
