<svg xmlns="http://www.w3.org/2000/svg" xmlns:xlink="http://www.w3.org/1999/xlink" preserveAspectRatio="xMidYMid" width="32" height="28" viewBox="0 0 32 28">
  <defs>
    <style>
      .cls-1 {
        fill: #000;
        fill-rule: evenodd;
      }
    </style>
  </defs>
  <path d="M9.731,18.328 C11.034,20.105 12.209,22.341 13.238,24.849 L19.561,24.849 C20.791,22.914 21.741,20.676 22.669,18.328 L26.237,19.527 C25.304,21.507 24.169,23.344 23.102,24.849 L31.955,24.849 L32.000,28.000 L-0.000,28.000 L-0.000,25.000 L9.697,24.849 C8.860,23.229 7.803,21.397 6.449,19.527 L9.731,18.328 ZM1.000,-0.000 L31.000,-0.000 L31.000,3.000 L1.000,3.000 L1.000,-0.000 ZM4.132,5.882 L28.000,6.000 L28.000,18.000 L4.000,18.000 L4.132,5.882 ZM25.000,15.000 L25.126,8.838 L7.000,9.000 L7.000,15.000 L25.000,15.000 Z" class="cls-1"/>
</svg>
