<svg xmlns="http://www.w3.org/2000/svg" xmlns:xlink="http://www.w3.org/1999/xlink" preserveAspectRatio="xMidYMid" width="33.031" height="30" viewBox="0 0 33.031 30">
  <defs>
    <style>
      .cls-1 {
        fill: #000;
        fill-rule: evenodd;
      }
    </style>
  </defs>
  <path d="M33.031,14.000 C33.031,16.312 33.031,17.687 33.031,20.000 C33.031,22.297 33.032,24.703 33.031,27.000 C33.031,28.353 31.415,29.960 30.031,30.000 C28.638,30.040 27.227,28.665 27.026,27.361 C27.012,27.270 27.002,27.177 27.002,27.084 C27.000,22.451 26.998,17.818 26.998,13.185 C26.998,12.056 28.114,9.985 30.031,10.000 C31.643,10.015 32.794,11.417 33.031,13.000 C33.041,13.069 33.031,13.930 33.031,14.000 ZM24.031,27.000 C24.030,28.420 22.482,29.999 21.031,30.000 C19.600,30.000 18.378,28.710 18.136,27.336 C18.118,27.230 18.114,23.009 18.112,21.007 C18.111,19.790 19.560,18.046 21.031,18.000 C22.644,18.051 23.761,19.428 24.031,21.000 C24.032,22.024 24.031,26.007 24.031,27.000 ZM24.031,21.000 C24.031,20.923 24.044,21.076 24.031,21.000 ZM15.031,27.000 C15.031,28.436 13.569,29.605 12.101,29.606 C10.669,29.607 9.260,28.381 9.031,27.000 C9.028,19.108 9.033,10.892 9.031,3.000 C9.031,1.867 10.769,0.298 11.983,0.015 C11.957,0.006 11.949,-0.002 12.031,-0.000 C13.674,0.046 15.031,1.967 15.031,3.000 C15.028,10.853 15.033,19.147 15.031,27.000 ZM9.031,27.000 C9.031,27.101 9.015,26.901 9.031,27.000 ZM6.031,22.000 C6.032,22.000 6.285,22.306 6.031,22.000 ZM6.031,27.000 C6.031,28.342 4.377,29.889 3.031,30.000 C1.587,30.119 0.288,28.342 0.031,27.000 C0.028,23.725 0.033,20.275 0.031,17.000 C0.030,15.753 1.692,13.975 3.031,14.000 C4.647,14.025 6.021,15.582 6.031,17.000 C6.036,18.684 6.031,20.316 6.031,22.000 C6.031,23.630 6.031,25.370 6.031,27.000 ZM0.031,27.000 C0.031,27.161 0.001,26.841 0.031,27.000 ZM6.031,17.000 C6.030,16.824 6.032,17.176 6.031,17.000 Z" class="cls-1"/>
</svg>
