<svg xmlns="http://www.w3.org/2000/svg" xmlns:xlink="http://www.w3.org/1999/xlink" preserveAspectRatio="xMidYMid" width="31" height="36.031" viewBox="0 0 31 36.031">
  <defs>
    <style>
      .cls-1 {
        fill: #000;
        fill-rule: evenodd;
      }
    </style>
  </defs>
  <path d="M20.042,31.397 C14.312,35.616 13.197,35.844 11.914,36.018 L11.914,30.748 L11.914,30.455 C6.082,29.046 -0.008,24.064 -0.008,15.128 C-0.008,4.282 6.291,0.202 16.518,0.004 C25.758,0.582 30.988,4.587 30.988,15.128 C30.748,23.783 25.343,29.615 20.042,31.397 ZM16.243,3.235 C8.751,3.380 3.188,7.285 3.188,15.231 C3.188,22.670 9.878,27.496 14.596,27.820 L14.596,30.162 L14.596,30.748 C16.193,30.703 16.139,30.436 17.385,29.965 C25.058,26.423 27.463,21.630 27.463,14.238 C27.463,6.517 23.013,3.658 16.243,3.235 ZM19.345,16.589 C18.068,16.589 17.032,15.589 17.032,14.355 C17.032,13.121 18.068,12.121 19.345,12.121 C20.622,12.121 21.658,13.121 21.658,14.355 C21.658,15.589 20.622,16.589 19.345,16.589 ZM10.805,16.589 C9.528,16.589 8.492,15.589 8.492,14.355 C8.492,13.121 9.528,12.121 10.805,12.121 C12.083,12.121 13.118,13.121 13.118,14.355 C13.118,15.589 12.083,16.589 10.805,16.589 Z" class="cls-1"/>
</svg>
