<svg xmlns="http://www.w3.org/2000/svg" xmlns:xlink="http://www.w3.org/1999/xlink" preserveAspectRatio="xMidYMid" width="35" height="35" viewBox="0 0 35 35">
  <defs>
    <style>
      .cls-1 {
        fill: #000;
        fill-rule: evenodd;
      }
    </style>
  </defs>
  <path d="M34.854,15.111 C33.803,15.354 32.738,15.493 31.663,15.562 C30.533,15.634 29.407,15.575 28.282,15.468 C28.479,14.238 28.788,13.040 29.278,11.895 C29.412,11.582 29.507,11.246 29.732,10.978 C31.023,11.028 32.306,10.957 33.574,10.685 C33.685,10.661 33.735,10.683 33.780,10.788 C34.355,12.119 34.754,13.502 34.990,14.936 C35.012,15.068 34.957,15.087 34.854,15.111 ZM29.213,10.682 C29.164,10.775 29.089,10.860 29.099,10.978 C28.874,11.246 28.780,11.582 28.645,11.895 C28.155,13.040 27.846,14.238 27.650,15.468 C27.447,16.946 27.445,18.423 27.650,19.901 C28.502,19.832 29.354,19.760 30.210,19.778 C31.529,19.806 32.833,19.956 34.125,20.232 C34.334,20.276 34.374,20.350 34.337,20.563 C34.099,21.939 33.712,23.267 33.161,24.547 C33.115,24.656 33.081,24.718 32.934,24.686 C31.669,24.414 30.388,24.341 29.098,24.395 C28.832,24.455 28.559,24.439 28.290,24.469 C26.984,24.613 25.724,24.937 24.500,25.415 C23.131,25.961 21.871,26.701 20.715,27.624 C20.731,27.720 20.801,27.785 20.854,27.858 C22.081,29.570 23.012,31.434 23.653,33.450 C23.722,33.667 23.671,33.741 23.474,33.813 C22.173,34.291 20.837,34.608 19.464,34.776 C19.313,34.795 19.271,34.731 19.230,34.606 C18.854,33.454 18.340,32.369 17.696,31.347 C17.649,31.272 17.624,31.174 17.523,31.145 C17.498,31.082 17.482,31.012 17.445,30.957 C16.812,30.008 16.080,29.145 15.249,28.372 C14.979,28.121 14.725,27.842 14.391,27.668 C14.348,27.561 14.245,27.515 14.163,27.451 C13.129,26.651 12.011,26.001 10.810,25.499 C10.748,25.473 10.690,25.437 10.631,25.406 C10.553,25.455 10.538,25.543 10.504,25.619 C9.637,27.579 8.486,29.348 7.055,30.931 C6.927,31.073 6.854,31.067 6.716,30.950 C5.652,30.050 4.701,29.041 3.868,27.917 C3.778,27.796 3.779,27.724 3.880,27.609 C4.679,26.707 5.355,25.717 5.913,24.644 C5.954,24.563 6.016,24.490 6.010,24.390 C6.093,24.336 6.118,24.243 6.156,24.161 C6.799,22.807 7.225,21.385 7.450,19.901 C7.659,18.424 7.656,16.947 7.451,15.469 C6.598,15.540 5.745,15.613 4.888,15.594 C3.568,15.565 2.261,15.416 0.968,15.138 C0.768,15.095 0.728,15.027 0.763,14.819 C0.998,13.448 1.386,12.126 1.928,10.848 C1.988,10.707 2.045,10.659 2.211,10.694 C3.403,10.947 4.610,11.026 5.826,10.981 C5.893,10.979 5.964,10.991 6.023,10.943 C6.051,10.953 6.080,10.974 6.108,10.972 C6.949,10.899 7.786,10.795 8.608,10.588 C9.283,10.419 9.952,10.234 10.588,9.942 C11.290,9.709 11.936,9.356 12.576,8.992 C13.218,8.626 13.816,8.193 14.402,7.743 C14.706,8.110 15.006,8.482 15.316,8.845 C15.762,9.365 16.225,9.866 16.730,10.330 C16.796,10.391 16.865,10.450 16.934,10.508 C17.141,10.684 17.351,10.858 17.515,11.080 C17.662,11.131 17.762,11.252 17.879,11.346 C17.762,11.252 17.662,11.131 17.515,11.080 C17.467,11.128 17.423,11.180 17.371,11.223 C16.023,12.328 14.557,13.233 12.971,13.939 C12.882,13.979 12.792,14.019 12.702,14.058 C12.432,14.175 12.160,14.288 11.890,14.404 C11.902,14.488 11.913,14.571 11.926,14.655 C12.186,16.310 12.224,17.972 12.061,19.639 C12.050,19.753 12.038,19.868 12.025,19.982 C11.988,20.325 11.947,20.667 11.909,21.010 C11.952,21.024 11.995,21.038 12.039,21.052 C12.082,21.066 12.124,21.080 12.167,21.097 C14.068,21.840 15.808,22.867 17.395,24.165 C17.409,24.177 17.423,24.190 17.436,24.203 C17.478,24.242 17.519,24.282 17.583,24.285 C17.627,24.243 17.669,24.199 17.716,24.160 C18.846,23.234 20.063,22.445 21.365,21.792 C21.516,21.716 21.668,21.644 21.822,21.574 C21.975,21.504 22.130,21.436 22.285,21.370 C22.362,21.336 22.439,21.303 22.517,21.270 C22.749,21.171 22.982,21.072 23.213,20.969 C23.196,20.863 23.179,20.757 23.163,20.651 C22.920,19.025 22.888,17.395 23.034,15.758 C23.076,15.292 23.183,14.834 23.188,14.364 C23.335,13.914 23.386,13.441 23.502,12.983 C23.744,12.032 24.042,11.100 24.417,10.195 C24.451,10.115 24.470,10.036 24.464,9.950 C24.560,9.907 24.573,9.808 24.609,9.726 C25.475,7.782 26.617,6.025 28.037,4.452 C28.173,4.301 28.252,4.307 28.397,4.430 C29.448,5.323 30.389,6.320 31.216,7.429 C31.325,7.575 31.314,7.658 31.195,7.792 C30.419,8.673 29.760,9.638 29.213,10.682 ZM23.502,12.937 C23.386,13.395 23.335,13.868 23.188,14.318 C23.152,14.307 23.115,14.299 23.080,14.285 C21.194,13.565 19.462,12.566 17.879,11.300 C17.762,11.206 17.662,11.085 17.515,11.034 C17.351,10.812 17.141,10.638 16.934,10.462 C16.865,10.403 16.796,10.344 16.730,10.283 C16.225,9.820 15.762,9.319 15.316,8.799 C15.006,8.436 14.706,8.064 14.402,7.696 C13.704,6.708 13.060,5.687 12.533,4.592 C12.103,3.700 11.741,2.782 11.438,1.837 C11.377,1.647 11.429,1.588 11.595,1.526 C12.908,1.037 14.259,0.718 15.646,0.548 C15.805,0.528 15.834,0.606 15.873,0.725 C16.249,1.868 16.758,2.946 17.395,3.962 C17.443,4.040 17.499,4.112 17.551,4.187 C17.616,4.291 17.676,4.397 17.744,4.498 C18.109,5.038 18.514,5.546 18.946,6.028 C19.481,6.625 20.048,7.192 20.699,7.662 C21.289,8.192 21.956,8.609 22.634,9.008 C23.222,9.353 23.841,9.634 24.464,9.904 C24.470,9.990 24.451,10.069 24.417,10.149 C24.042,11.054 23.744,11.986 23.502,12.937 ZM21.152,7.069 C21.143,7.081 21.130,7.089 21.119,7.099 C20.468,6.629 19.901,6.062 19.366,5.466 C18.934,4.983 18.529,4.475 18.164,3.936 C18.096,3.834 18.036,3.728 17.972,3.624 C18.673,2.593 19.205,1.474 19.600,0.290 C19.683,0.044 19.763,-0.031 20.037,0.005 C21.385,0.184 22.696,0.502 23.971,0.982 C24.102,1.032 24.146,1.079 24.099,1.227 C23.436,3.342 22.460,5.291 21.152,7.069 ZM6.108,10.186 C6.080,10.188 6.051,10.168 6.023,10.157 C5.448,9.006 4.738,7.949 3.890,6.988 C3.784,6.868 3.772,6.795 3.871,6.662 C4.707,5.541 5.656,4.532 6.719,3.632 C6.863,3.510 6.934,3.522 7.058,3.659 C8.537,5.291 9.709,7.126 10.588,9.156 C9.952,9.448 9.283,9.633 8.608,9.802 C7.786,10.009 6.949,10.114 6.108,10.186 ZM6.563,19.900 C6.608,19.905 6.654,19.901 6.699,19.901 C6.475,21.385 6.049,22.807 5.406,24.161 C5.367,24.243 5.343,24.336 5.260,24.390 C4.084,24.358 2.913,24.399 1.752,24.616 C1.254,24.709 1.251,24.698 1.058,24.226 C0.564,23.021 0.216,21.773 0.005,20.485 C-0.019,20.340 0.000,20.287 0.150,20.254 C1.195,20.021 2.251,19.876 3.319,19.810 C4.403,19.744 5.484,19.779 6.563,19.900 ZM13.295,28.952 C13.527,28.592 13.781,28.247 14.025,27.895 C14.358,28.069 14.613,28.347 14.882,28.598 C15.713,29.371 16.446,30.235 17.078,31.183 C17.115,31.239 17.131,31.309 17.157,31.372 C16.464,32.478 15.883,33.639 15.487,34.891 C15.456,34.991 15.405,35.017 15.306,35.005 C13.880,34.837 12.494,34.505 11.148,33.995 C10.976,33.930 11.039,33.835 11.072,33.729 C11.597,32.032 12.337,30.439 13.295,28.952 ZM29.439,24.813 C29.432,24.930 29.506,25.015 29.555,25.108 C30.105,26.159 30.770,27.130 31.553,28.016 C31.659,28.137 31.669,28.211 31.570,28.344 C30.739,29.459 29.794,30.463 28.737,31.361 C28.588,31.487 28.510,31.484 28.376,31.336 C26.951,29.758 25.806,27.993 24.940,26.040 C24.910,25.970 24.874,25.902 24.841,25.833 C26.065,25.355 27.325,25.031 28.631,24.887 C28.900,24.857 29.173,24.873 29.439,24.813 Z" class="cls-1"/>
</svg>
