<svg xmlns="http://www.w3.org/2000/svg" xmlns:xlink="http://www.w3.org/1999/xlink" preserveAspectRatio="xMidYMid" width="33.063" height="32" viewBox="0 0 33.063 32">
  <defs>
    <style>
      .cls-1 {
        fill: #000;
        fill-rule: evenodd;
      }
    </style>
  </defs>
  <path d="M26.000,8.000 L26.000,14.000 L31.550,13.752 C32.490,14.305 33.273,15.471 33.000,16.000 L26.000,16.000 L26.000,21.000 L32.000,21.000 C32.856,21.569 32.913,22.736 32.913,23.264 L26.000,23.000 L26.000,29.000 L32.000,29.000 C32.658,29.269 33.096,30.423 33.000,31.000 L17.000,31.000 C16.966,30.524 17.089,29.440 18.000,29.000 L22.827,29.077 L22.827,23.264 L17.102,23.264 C17.101,22.790 17.536,21.559 18.000,21.000 L23.000,21.000 L23.000,16.000 L17.000,16.000 C16.796,15.529 18.170,14.573 19.000,14.000 L22.827,13.752 L22.827,7.939 L17.058,7.981 C17.136,7.360 17.571,6.427 18.000,6.000 L23.000,6.000 L22.827,0.012 C25.690,0.504 25.426,1.289 26.000,3.000 L26.000,6.000 L32.000,6.000 C32.715,6.553 33.179,7.455 32.913,7.939 L26.000,8.000 ZM16.011,10.053 L16.011,29.077 L13.558,31.720 L13.000,32.000 L13.000,13.000 L10.559,16.394 L8.651,16.394 L15.551,2.689 C16.275,2.359 17.127,1.621 18.000,2.000 L14.000,10.000 L16.011,10.053 ZM6.000,23.000 L9.074,20.886 C9.182,20.851 9.204,20.839 9.236,20.850 C9.612,20.967 9.806,21.696 9.468,22.450 L0.015,28.316 L0.015,26.801 L3.000,24.000 L3.000,13.000 L0.460,12.959 C0.510,12.620 0.753,11.097 2.000,11.000 L3.000,11.000 L3.000,7.000 C3.468,5.533 4.720,3.731 6.000,4.000 L6.000,11.000 L8.000,11.000 C8.729,10.944 9.209,11.902 9.209,12.959 L6.000,13.000 L6.000,23.000 Z" class="cls-1"/>
</svg>
