<svg xmlns="http://www.w3.org/2000/svg" xmlns:xlink="http://www.w3.org/1999/xlink" preserveAspectRatio="xMidYMid" width="41.375" height="22.969" viewBox="0 0 41.375 22.969">
  <defs>
    <style>
      .cls-1 {
        fill: #000;
        fill-rule: evenodd;
      }
    </style>
  </defs>
  <path d="M6.026,11.544 C5.609,11.012 5.186,10.484 4.776,9.947 C4.074,9.025 3.381,8.096 2.682,7.172 C1.853,6.075 0.976,5.010 0.169,3.897 C0.114,3.821 0.099,3.723 -0.010,3.671 C0.129,3.618 0.159,3.719 0.211,3.767 C2.889,6.288 5.967,8.181 9.556,9.258 C10.920,9.667 12.319,9.846 13.749,9.682 C15.041,9.534 16.209,9.071 17.277,8.363 C18.552,7.519 19.584,6.427 20.608,5.326 C21.584,4.275 22.522,3.191 23.638,2.268 C25.151,1.016 26.915,0.344 28.873,0.096 C30.871,-0.157 32.745,0.226 34.502,1.151 C35.957,1.916 37.204,2.936 38.282,4.147 C38.627,4.534 38.954,4.936 39.289,5.331 C39.822,6.072 40.352,6.815 40.797,7.609 C41.015,7.999 41.219,8.396 41.391,8.835 C41.119,8.722 40.847,8.611 40.576,8.497 C39.890,8.209 39.183,8.107 38.445,8.272 C37.612,8.458 37.071,8.988 36.667,9.677 C36.294,10.312 36.157,11.029 35.917,11.711 C35.128,13.956 34.002,16.031 32.481,17.898 C31.398,19.228 30.139,20.382 28.637,21.271 C27.239,22.098 25.730,22.637 24.100,22.870 C23.145,23.006 22.184,23.013 21.235,22.943 C19.838,22.839 18.498,22.473 17.215,21.911 C16.023,21.389 14.940,20.705 13.910,19.939 C12.985,19.250 12.165,18.447 11.335,17.655 C10.795,17.141 10.271,16.611 9.783,16.054 C8.545,14.641 7.339,13.203 6.186,11.724 C6.137,11.661 6.080,11.604 6.026,11.544 Z" class="cls-1"/>
</svg>
