<svg xmlns="http://www.w3.org/2000/svg" xmlns:xlink="http://www.w3.org/1999/xlink" preserveAspectRatio="xMidYMid" width="34" height="33" viewBox="0 0 34 33">
  <defs>
    <style>
      .cls-1 {
        fill: #000;
        fill-rule: evenodd;
      }
    </style>
  </defs>
  <path d="M33.962,24.683 C33.933,25.130 33.928,25.579 33.862,26.023 C33.822,26.294 33.808,26.569 33.733,26.835 C33.732,26.899 33.740,26.965 33.729,27.027 C33.595,27.745 33.369,28.436 33.026,29.085 C32.565,29.959 31.924,30.694 31.136,31.308 C30.742,31.615 30.321,31.882 29.862,32.093 C29.611,32.209 29.364,32.332 29.097,32.410 C28.377,32.647 27.633,32.776 26.879,32.854 C26.380,32.906 25.880,32.932 25.379,32.951 C25.348,32.953 25.310,32.942 25.300,32.987 C25.068,32.987 24.835,32.987 24.603,32.987 C24.282,32.987 23.961,32.987 23.640,32.987 C19.212,32.987 14.784,32.987 10.356,32.987 C10.024,32.987 9.692,32.987 9.360,32.987 C9.128,32.987 8.895,32.987 8.663,32.987 C8.653,32.942 8.614,32.952 8.584,32.951 C7.821,32.925 7.059,32.873 6.307,32.752 C5.865,32.680 5.425,32.590 5.001,32.442 C5.062,32.405 5.130,32.405 5.198,32.407 C5.130,32.405 5.062,32.405 5.001,32.442 C4.953,32.430 4.904,32.423 4.858,32.407 C3.958,32.086 3.157,31.610 2.459,30.973 C1.261,29.880 0.525,28.550 0.262,26.970 C0.101,25.998 0.038,25.021 0.024,24.039 C0.023,23.949 0.037,23.857 -0.005,23.770 C-0.005,18.893 -0.005,14.015 -0.005,9.138 C0.026,9.095 0.023,9.046 0.023,8.998 C0.030,8.424 0.052,7.850 0.099,7.277 C0.165,6.478 0.274,5.685 0.531,4.923 C1.108,3.210 2.230,1.922 3.835,1.027 C4.697,0.546 5.642,0.320 6.616,0.185 C7.621,0.045 8.632,0.024 9.644,0.010 C9.882,0.008 10.120,0.019 10.356,-0.015 C14.784,-0.015 19.212,-0.015 23.640,-0.015 C23.706,-0.009 23.771,0.000 23.837,0.002 C25.020,0.024 26.203,0.025 27.379,0.183 C28.390,0.318 29.361,0.577 30.244,1.080 C31.878,2.009 32.986,3.350 33.520,5.121 C33.611,5.422 33.696,5.728 33.733,6.042 C33.847,6.583 33.890,7.131 33.928,7.680 C33.944,7.915 33.951,8.150 33.963,8.385 C33.964,8.415 33.954,8.452 34.001,8.461 C34.001,8.558 34.001,8.654 34.001,8.751 C34.001,9.202 34.001,9.654 34.001,10.105 C34.001,14.359 34.001,18.613 34.001,22.868 C34.001,23.319 34.001,23.770 34.001,24.221 C34.001,24.329 34.001,24.436 34.001,24.543 C33.930,24.574 33.965,24.636 33.962,24.683 ZM32.370,8.673 C32.339,8.365 32.306,8.056 32.275,7.747 C32.141,6.425 31.765,5.190 30.900,4.129 C29.790,2.766 28.345,1.980 26.576,1.732 C25.399,1.568 24.216,1.542 23.033,1.542 C18.799,1.538 14.566,1.539 10.333,1.548 C9.238,1.550 8.142,1.587 7.062,1.795 C4.705,2.250 3.086,3.581 2.175,5.723 C1.902,6.366 1.796,7.056 1.721,7.747 C1.687,8.066 1.658,8.386 1.627,8.706 C1.565,8.633 1.539,8.548 1.532,8.460 C1.539,8.548 1.565,8.633 1.626,8.706 C1.667,8.746 1.653,8.797 1.652,8.844 C1.637,9.477 1.610,10.111 1.609,10.744 C1.608,14.708 1.608,18.671 1.617,22.634 C1.619,23.750 1.650,24.864 1.840,25.969 C2.050,27.192 2.554,28.276 3.413,29.197 C4.397,30.252 5.610,30.910 7.053,31.173 C8.140,31.372 9.240,31.411 10.341,31.420 C11.973,31.434 13.606,31.434 15.238,31.428 C18.364,31.417 21.491,31.467 24.617,31.395 C25.458,31.376 26.294,31.302 27.121,31.137 C28.618,30.837 29.836,30.087 30.799,28.955 C31.467,28.169 31.897,27.264 32.097,26.255 C32.291,25.275 32.352,24.287 32.371,23.293 C32.409,21.177 32.393,19.061 32.388,16.945 C32.382,14.228 32.432,11.510 32.342,8.794 C32.341,8.752 32.331,8.707 32.370,8.673 ZM30.245,15.184 C29.870,15.185 29.490,14.836 29.510,14.440 C29.530,14.041 29.848,13.722 30.256,13.724 C30.662,13.726 30.990,14.049 30.991,14.449 C30.992,14.858 30.657,15.183 30.245,15.184 ZM30.247,12.274 C29.822,12.266 29.513,11.951 29.514,11.536 C29.514,11.136 29.844,10.816 30.252,10.816 C30.659,10.817 30.988,11.138 30.991,11.538 C30.994,11.948 30.660,12.282 30.247,12.274 ZM30.250,9.368 C29.844,9.366 29.516,9.041 29.514,8.639 C29.512,8.236 29.838,7.910 30.245,7.909 C30.655,7.907 30.986,8.224 30.991,8.625 C30.996,9.036 30.664,9.369 30.250,9.368 ZM30.260,6.462 C29.912,6.472 29.478,6.136 29.514,5.757 C29.506,5.339 29.824,5.006 30.236,5.001 C30.647,4.996 30.980,5.308 30.991,5.708 C31.001,6.119 30.673,6.450 30.260,6.462 ZM27.247,26.896 C26.617,27.223 25.970,27.228 25.337,26.879 C24.976,26.761 24.733,26.492 24.559,26.197 C24.177,25.549 24.147,24.866 24.537,24.205 C24.916,23.562 25.510,23.233 26.269,23.197 C27.147,23.157 28.127,23.860 28.269,24.706 C28.298,24.881 28.352,25.049 28.320,25.228 C28.285,25.980 27.924,26.545 27.247,26.896 ZM28.045,20.245 C28.056,20.655 27.729,20.987 27.316,21.000 C26.963,21.012 26.532,20.670 26.568,20.298 C26.560,19.879 26.878,19.545 27.288,19.540 C27.700,19.534 28.033,19.845 28.045,20.245 ZM27.300,18.091 C26.893,18.087 26.568,17.761 26.568,17.358 C26.568,16.956 26.895,16.632 27.303,16.632 C27.712,16.631 28.042,16.952 28.045,17.353 C28.048,17.763 27.713,18.095 27.300,18.091 ZM27.303,15.184 C26.964,15.185 26.553,14.895 26.565,14.447 C26.576,14.048 26.897,13.724 27.303,13.724 C27.712,13.724 28.041,14.043 28.045,14.444 C28.049,14.853 27.716,15.182 27.303,15.184 ZM27.322,9.369 C26.925,9.382 26.538,9.015 26.568,8.648 C26.564,8.235 26.890,7.909 27.304,7.909 C27.713,7.909 28.041,8.228 28.045,8.628 C28.049,9.031 27.726,9.356 27.322,9.369 ZM27.302,10.816 C27.711,10.815 28.040,11.134 28.045,11.536 C28.049,11.946 27.715,12.272 27.302,12.277 C26.972,12.281 26.539,11.963 26.563,11.542 C26.586,11.141 26.894,10.818 27.302,10.816 ZM27.325,6.462 C26.972,6.477 26.529,6.139 26.568,5.750 C26.562,5.334 26.884,5.004 27.298,5.001 C27.707,4.998 28.038,5.315 28.045,5.716 C28.051,6.119 27.730,6.444 27.325,6.462 ZM24.361,20.998 C23.954,20.998 23.624,20.674 23.622,20.273 C23.619,19.870 23.944,19.542 24.349,19.539 C24.767,19.537 25.100,19.862 25.099,20.271 C25.097,20.673 24.767,20.999 24.361,20.998 ZM23.622,14.465 C23.619,14.051 23.943,13.725 24.358,13.724 C24.765,13.723 25.095,14.043 25.099,14.443 C25.103,14.853 24.771,15.180 24.358,15.184 C23.972,15.188 23.592,14.825 23.622,14.465 ZM24.370,18.092 C23.970,18.101 23.599,17.734 23.622,17.384 C23.615,16.968 23.934,16.636 24.346,16.632 C24.756,16.627 25.089,16.940 25.099,17.339 C25.109,17.749 24.782,18.082 24.370,18.092 ZM24.359,12.275 C23.952,12.273 23.623,11.949 23.622,11.547 C23.620,11.144 23.946,10.818 24.352,10.816 C24.769,10.815 25.102,11.141 25.099,11.550 C25.096,11.952 24.764,12.277 24.359,12.275 ZM24.354,9.368 C23.947,9.363 23.622,9.038 23.622,8.635 C23.622,8.233 23.949,7.909 24.356,7.909 C24.766,7.908 25.095,8.228 25.099,8.629 C25.102,9.040 24.767,9.372 24.354,9.368 ZM24.369,6.462 C24.018,6.472 23.586,6.133 23.622,5.758 C23.614,5.339 23.931,5.006 24.343,5.001 C24.755,4.996 25.088,5.308 25.099,5.708 C25.109,6.118 24.781,6.450 24.369,6.462 ZM29.514,17.384 C29.508,16.967 29.828,16.635 30.240,16.632 C30.650,16.628 30.983,16.943 30.991,17.343 C30.999,17.754 30.669,18.083 30.256,18.093 C29.912,18.101 29.476,17.766 29.514,17.384 ZM30.255,19.539 C30.661,19.540 30.990,19.865 30.991,20.266 C30.992,20.676 30.654,21.006 30.240,20.999 C29.834,20.991 29.512,20.664 29.514,20.260 C29.516,19.859 29.845,19.539 30.255,19.539 ZM21.410,20.998 C21.004,20.995 20.677,20.670 20.676,20.268 C20.674,19.866 21.001,19.541 21.408,19.539 C21.818,19.538 22.148,19.857 22.153,20.258 C22.157,20.669 21.823,21.002 21.410,20.998 ZM22.149,17.343 C22.177,17.751 21.831,18.084 21.419,18.092 C21.028,18.100 20.649,17.735 20.676,17.378 C20.671,16.971 20.987,16.640 21.389,16.632 C21.832,16.623 22.120,16.929 22.149,17.343 ZM21.418,15.183 C21.004,15.184 20.674,14.855 20.676,14.444 C20.678,14.043 21.008,13.722 21.418,13.724 C21.825,13.726 22.153,14.051 22.153,14.453 C22.153,14.856 21.824,15.182 21.418,15.183 ZM21.428,12.278 C20.985,12.297 20.646,11.881 20.676,11.563 C20.671,11.147 20.994,10.818 21.408,10.816 C21.818,10.815 22.148,11.134 22.153,11.535 C22.157,11.939 21.833,12.260 21.428,12.278 ZM21.428,9.369 C21.018,9.381 20.651,9.002 20.676,8.665 C20.668,8.248 20.986,7.914 21.396,7.909 C21.814,7.903 22.150,8.223 22.153,8.630 C22.156,9.033 21.833,9.357 21.428,9.369 ZM21.403,6.460 C20.993,6.453 20.671,6.123 20.676,5.713 C20.681,5.315 21.013,4.998 21.422,5.001 C21.827,5.004 22.153,5.329 22.153,5.729 C22.152,6.138 21.815,6.467 21.403,6.460 ZM16.438,26.919 C15.853,26.661 15.505,26.213 15.364,25.616 C15.018,24.153 16.428,22.859 17.913,23.281 C18.858,23.550 19.456,24.433 19.362,25.272 C19.292,26.684 17.719,27.570 16.438,26.919 ZM19.207,20.261 C19.210,20.671 18.875,21.003 18.461,20.998 C18.054,20.994 17.730,20.668 17.730,20.265 C17.730,19.863 18.058,19.540 18.466,19.540 C18.874,19.539 19.204,19.860 19.207,20.261 ZM18.469,18.092 C18.100,18.098 17.707,17.750 17.725,17.357 C17.744,16.957 18.056,16.633 18.462,16.632 C18.878,16.631 19.210,16.958 19.207,17.366 C19.204,17.768 18.874,18.086 18.469,18.092 ZM18.464,7.909 C18.872,7.908 19.203,8.227 19.207,8.627 C19.211,9.030 18.888,9.356 18.484,9.369 C18.121,9.381 17.701,9.056 17.730,8.653 C17.725,8.238 18.049,7.910 18.464,7.909 ZM17.730,11.572 C17.723,11.154 18.039,10.823 18.450,10.817 C18.869,10.811 19.204,11.131 19.207,11.539 C19.209,11.941 18.886,12.265 18.481,12.277 C18.071,12.289 17.696,11.899 17.730,11.572 ZM18.478,15.183 C18.065,15.188 17.730,14.860 17.730,14.450 C17.729,14.049 18.057,13.725 18.465,13.724 C18.875,13.724 19.204,14.045 19.207,14.447 C19.209,14.850 18.885,15.178 18.478,15.183 ZM18.459,6.461 C18.095,6.462 17.707,6.122 17.726,5.716 C17.745,5.318 18.064,4.999 18.472,5.001 C18.879,5.003 19.206,5.326 19.207,5.727 C19.208,6.136 18.872,6.461 18.459,6.461 ZM15.535,18.092 C15.131,18.105 14.751,17.720 14.784,17.388 C14.776,16.970 15.094,16.637 15.504,16.632 C15.923,16.627 16.258,16.946 16.261,17.354 C16.264,17.756 15.940,18.080 15.535,18.092 ZM15.529,6.460 C15.115,6.463 14.782,6.133 14.784,5.722 C14.785,5.321 15.115,5.000 15.524,5.001 C15.931,5.002 16.259,5.325 16.261,5.727 C16.262,6.129 15.935,6.457 15.529,6.460 ZM14.784,8.662 C14.777,8.245 15.095,7.913 15.507,7.909 C15.918,7.904 16.250,8.216 16.261,8.616 C16.271,9.026 15.945,9.358 15.532,9.369 C15.128,9.380 14.750,8.996 14.784,8.662 ZM15.531,12.277 C15.130,12.287 14.751,11.906 14.784,11.568 C14.778,11.152 15.098,10.820 15.509,10.817 C15.919,10.813 16.251,11.125 16.261,11.525 C16.270,11.935 15.943,12.266 15.531,12.277 ZM15.508,13.724 C15.918,13.720 16.251,14.032 16.261,14.432 C16.271,14.842 15.943,15.174 15.531,15.184 C15.131,15.194 14.751,14.816 14.783,14.477 C14.777,14.060 15.097,13.728 15.508,13.724 ZM12.573,18.092 C12.221,18.094 11.819,17.784 11.835,17.357 C11.849,16.955 12.165,16.633 12.572,16.632 C12.980,16.631 13.310,16.950 13.315,17.351 C13.319,17.760 12.986,18.090 12.573,18.092 ZM12.574,7.909 C12.989,7.908 13.320,8.238 13.315,8.647 C13.310,9.048 12.977,9.368 12.572,9.368 C12.107,9.369 11.833,8.983 11.838,8.631 C11.838,8.231 12.166,7.909 12.574,7.909 ZM12.577,13.724 C12.984,13.725 13.314,14.049 13.315,14.450 C13.315,14.854 12.989,15.180 12.582,15.183 C12.169,15.186 11.837,14.857 11.838,14.447 C11.839,14.045 12.167,13.724 12.577,13.724 ZM12.577,10.817 C12.991,10.817 13.321,11.148 13.315,11.557 C13.309,11.958 12.976,12.279 12.571,12.275 C12.160,12.272 11.835,11.944 11.838,11.536 C11.840,11.136 12.169,10.816 12.577,10.817 ZM12.567,6.461 C12.186,6.458 11.821,6.132 11.835,5.723 C11.849,5.321 12.168,5.001 12.576,5.001 C12.984,5.002 13.313,5.324 13.315,5.725 C13.317,6.135 12.981,6.464 12.567,6.461 ZM9.634,18.092 C9.241,18.099 8.864,17.732 8.892,17.378 C8.887,16.963 9.209,16.634 9.622,16.632 C10.030,16.629 10.361,16.945 10.369,17.345 C10.377,17.754 10.046,18.085 9.634,18.092 ZM9.624,9.368 C9.218,9.364 8.892,9.038 8.891,8.635 C8.891,8.234 9.219,7.909 9.626,7.909 C10.035,7.908 10.365,8.228 10.369,8.629 C10.373,9.039 10.038,9.372 9.624,9.368 ZM9.631,6.461 C9.238,6.467 8.863,6.098 8.892,5.744 C8.887,5.331 9.212,5.002 9.624,5.001 C10.033,5.000 10.363,5.317 10.369,5.717 C10.375,6.126 10.043,6.456 9.631,6.461 ZM6.684,20.997 C6.257,20.992 5.948,20.677 5.945,20.264 C5.946,19.863 6.273,19.540 6.680,19.540 C7.096,19.539 7.426,19.866 7.423,20.275 C7.419,20.676 7.089,21.003 6.684,20.997 ZM6.684,18.091 C6.278,18.090 5.949,17.766 5.945,17.364 C5.943,16.961 6.268,16.634 6.674,16.632 C7.084,16.629 7.416,16.946 7.423,17.347 C7.429,17.757 7.097,18.092 6.684,18.091 ZM6.692,15.185 C6.344,15.195 5.909,14.858 5.946,14.480 C5.939,14.061 6.255,13.730 6.667,13.724 C7.079,13.718 7.413,14.031 7.423,14.431 C7.433,14.842 7.105,15.173 6.692,15.185 ZM6.691,12.276 C6.334,12.283 5.913,11.965 5.946,11.564 C5.940,11.149 6.261,10.820 6.674,10.816 C7.082,10.813 7.415,11.129 7.423,11.528 C7.431,11.937 7.102,12.268 6.691,12.276 ZM6.686,9.369 C6.300,9.375 5.920,9.017 5.945,8.652 C5.941,8.247 6.258,7.916 6.660,7.909 C7.079,7.901 7.417,8.218 7.423,8.624 C7.429,9.034 7.098,9.363 6.686,9.369 ZM6.689,6.460 C6.276,6.462 5.943,6.131 5.945,5.720 C5.948,5.319 6.279,4.999 6.688,5.001 C7.095,5.003 7.423,5.327 7.423,5.729 C7.423,6.132 7.095,6.458 6.689,6.460 ZM3.730,18.091 C3.324,18.086 3.000,17.760 2.999,17.357 C2.999,16.955 3.328,16.632 3.736,16.632 C4.144,16.631 4.474,16.953 4.477,17.354 C4.480,17.764 4.144,18.096 3.730,18.091 ZM3.729,6.461 C3.359,6.462 2.976,6.115 2.996,5.716 C3.017,5.317 3.334,4.999 3.742,5.001 C4.149,5.003 4.476,5.326 4.477,5.727 C4.478,6.135 4.142,6.461 3.729,6.461 ZM3.736,15.183 C3.330,15.181 3.001,14.856 2.999,14.455 C2.998,14.052 3.324,13.726 3.730,13.724 C4.148,13.722 4.480,14.049 4.477,14.459 C4.474,14.860 4.142,15.185 3.736,15.183 ZM3.000,8.648 C2.997,8.235 3.323,7.908 3.737,7.909 C4.144,7.909 4.473,8.229 4.477,8.629 C4.481,9.038 4.147,9.365 3.735,9.369 C3.351,9.372 2.970,9.012 3.000,8.648 ZM3.753,12.276 C3.341,12.289 2.977,11.910 3.000,11.573 C2.992,11.155 3.308,10.823 3.719,10.817 C4.137,10.810 4.473,11.130 4.477,11.537 C4.480,11.939 4.157,12.265 3.753,12.276 ZM3.730,19.540 C4.139,19.537 4.471,19.855 4.477,20.255 C4.483,20.665 4.151,20.997 3.738,20.999 C3.355,21.001 2.995,20.679 2.998,20.288 C3.001,19.871 3.315,19.542 3.730,19.540 ZM9.625,13.724 C10.034,13.723 10.364,14.042 10.369,14.443 C10.373,14.846 10.050,15.170 9.645,15.185 C9.295,15.198 8.851,14.862 8.892,14.469 C8.887,14.054 9.211,13.725 9.625,13.724 ZM9.632,10.816 C10.040,10.817 10.368,11.141 10.369,11.543 C10.369,11.953 10.031,12.283 9.618,12.275 C9.212,12.268 8.889,11.940 8.892,11.537 C8.894,11.135 9.223,10.816 9.632,10.816 ZM9.606,19.540 C10.025,19.532 10.363,19.849 10.369,20.255 C10.374,20.665 10.044,20.994 9.631,21.000 C9.246,21.006 8.865,20.645 8.892,20.283 C8.887,19.878 9.204,19.547 9.606,19.540 ZM12.563,19.540 C12.973,19.536 13.306,19.850 13.315,20.250 C13.324,20.660 12.994,20.990 12.581,21.000 C12.237,21.010 11.800,20.674 11.838,20.293 C11.831,19.875 12.150,19.543 12.563,19.540 ZM15.522,19.539 C15.929,19.540 16.259,19.862 16.261,20.263 C16.263,20.666 15.937,20.995 15.531,20.998 C15.117,21.003 14.784,20.674 14.783,20.263 C14.783,19.863 15.113,19.539 15.522,19.539 Z" class="cls-1"/>
</svg>
