<?xml version="1.0" encoding="utf-8"?>
<!-- Generator: Adobe Illustrator 18.0.0, SVG Export Plug-In . SVG Version: 6.00 Build 0)  -->
<!DOCTYPE svg PUBLIC "-//W3C//DTD SVG 1.1//EN" "http://www.w3.org/Graphics/SVG/1.1/DTD/svg11.dtd">
<svg version="1.1" id="图层_1" xmlns="http://www.w3.org/2000/svg" xmlns:xlink="http://www.w3.org/1999/xlink" x="0px" y="0px"
	 viewBox="0 0 595.3 841.9" enable-background="new 0 0 595.3 841.9" xml:space="preserve">
<path fill="#5B5C5C" d="M330.7,718.6c-22,0-44.1,0-66.1,0c-2.2-0.7-4.3-1.8-6.5-2.1C129.6,698.2,29.5,602.7,5.8,475.7
	c-2.1-11.1-3.9-22.3-5.8-33.5c0-13.4,0-26.8,0-40.2c8,12,15.2,24.6,24.1,35.8C62,485.7,105,528,158.2,559.1
	c18,10.5,35.6,21.7,53.8,32c12,6.8,17.7,16.9,17.1,30c-0.9,18.4-2.3,36.9-4.6,55.2c-1.1,8.7,0.8,13.6,9.6,15.2
	c4.4,0.8,8.8,1.8,15.2,3c0-18.7-0.3-35.5,0.1-52.4c0.7-30-10.1-53-36.7-69c-25.3-15.2-50-31.5-73.8-48.9
	c-32.4-23.7-58.9-53.4-79.3-87.9c-4.2-7.1-2.7-17.6-3.8-26.5c8.2-0.8,17-3.9,24.5-1.9c63.8,16.9,125.8,36.9,164,97.5
	c6.2,9.8,15.9,17.4,24.2,25.7c2.9,3,6.6,5.2,10.9,8.5c9.2-15.6,6.4-31.4,5.8-46.8c-0.8-20.4-2.8-40.8-3.2-61.3
	c-0.4-21.9,5.8-41.5,21.3-58.3c14.7-15.8,27.1-33.9,41.7-49.7c31.5-34,63.4-67.7,96.2-100.5c9.2-9.3,21.4-16.1,33.1-22.4
	c14.5-7.8,21.3-4.8,27,10.8c3.2,8.8,5.6,18.1,6.7,27.4c9.6,81.4-8.6,157.8-46.8,228.8c-20.4,37.9-46.6,72.9-72.5,107.5
	c-27.3,36.6-41.6,77.8-51.9,121.4c20.7,2.1,26.2-2,28.8-20.7c0.8-5.8,1.6-11.7,2.3-17.6c2.8-23.2,11.5-43.7,26.3-62.1
	c17.8-22,34.4-45,51-68c36.9-51.2,71.1-104,92.9-163.7c9-24.6,17-49.4,26.4-76.8c5.2,12.4,10.6,22.4,13.7,33.1
	c6.3,22.2,11.4,44.8,17.1,67.2c0,22,0,44.1,0,66.1c-0.7,2.2-1.6,4.4-1.9,6.7c-19.9,121.7-88.2,203.2-204.3,244.2
	C370.3,711.5,350.2,714.1,330.7,718.6z"/>
<path fill="#5B5C5C" d="M318.9,123.3c12.7,2.2,25.5,4.3,38.1,6.8c32.3,6.3,62.7,17.8,91.9,35c-2,2.4-3.5,4.6-5.4,6.3
	c-58,54.1-107.6,115.7-158.1,176.6c-13.9,16.8-22.7,35.5-25.8,57.2c-1.7,12-5.3,23.8-8.2,35.6c-2.6,10.2-9.3,11.9-18.1,7.9
	c-4.3-2-8.7-4.2-12-7.4c-35.4-33.1-80.4-46.9-124.9-61.3c-15.6-5.1-31.9-9-48.2-11.2c-13.4-1.8-27.2-0.4-42.4-0.4
	c1.4-6.7,2.7-14.6,4.8-22.3c31.4-118.8,130.6-204.9,253.2-219.9c5-0.6,9.9-1.9,14.9-2.9C292.1,123.3,305.5,123.3,318.9,123.3z
	 M265.3,162.8c-35.9,2.8-69.4,10.9-100.2,28c-39.3,21.8-71.5,51.5-93.7,90.9c-5.4,9.6-8.3,21.4-8.9,32.4
	c-0.3,5.4,6.4,13.2,11.9,16.3c7.5,4.2,14.2-1.2,18.3-8.4c3.3-5.8,6.4-11.8,9.6-17.6c31.7-58.6,105.9-108.7,191.1-82.7
	c11.6,3.5,23.7,5.9,35.8,7.2c9.5,1,19.4-1,23.7-11.5c4.1-10,0.5-19.1-7.1-25.5c-7.4-6.3-15.5-13.1-24.5-15.9
	C302.9,170.2,283.9,167,265.3,162.8z M274,287.6c13.2,0.8,21.4-3.7,23.6-12.8c2.2-9.2-2.9-16.8-15.4-21.8c-5.4-2.2-11.2-4-16.9-4.8
	c-41.7-6.3-78.1,6.6-108.6,34.1c-14.2,12.9-24.9,29.9-36.1,45.8c-4.3,6.1-5.1,14.8,2.8,20c8,5.3,14.3,0.4,19.5-5.4
	c6.3-7,12-14.5,17.9-21.9c22.9-28.5,52.8-39.4,88.7-35.7C257.6,285.9,265.8,286.8,274,287.6z M220,316.6
	c-16.7,0.6-26.1,5.7-33.1,15.1c-8,10.8-5.6,21,6.2,27.4c11.1,6,27,3,36.8-7.1c6.2-6.3,10.6-14.5,5.6-22.2
	C231.3,323.4,223.4,319.3,220,316.6z"/>
</svg>
