<svg xmlns="http://www.w3.org/2000/svg" xmlns:xlink="http://www.w3.org/1999/xlink" preserveAspectRatio="xMidYMid" width="35" height="35" viewBox="0 0 35 35">
  <defs>
    <style>
      .cls-1 {
        fill: #000;
        fill-rule: evenodd;
      }
    </style>
  </defs>
  <path d="M34.876,19.843 C33.708,27.002 29.694,31.794 22.875,34.204 C21.774,34.593 20.590,34.746 19.445,35.009 C18.150,35.009 16.854,35.009 15.559,35.009 C15.431,34.967 15.306,34.905 15.175,34.887 C7.630,33.810 1.748,28.193 0.353,20.724 C0.231,20.070 0.127,19.412 0.014,18.756 C0.014,17.969 0.014,17.182 0.014,16.395 C0.485,17.099 0.909,17.840 1.433,18.502 C3.659,21.316 6.186,23.804 9.311,25.629 C10.369,26.247 11.403,26.906 12.469,27.511 C13.172,27.910 13.508,28.503 13.471,29.276 C13.420,30.360 13.336,31.445 13.202,32.521 C13.138,33.032 13.247,33.322 13.768,33.413 C14.027,33.458 14.285,33.516 14.660,33.592 C14.660,32.495 14.641,31.503 14.664,30.511 C14.705,28.749 14.071,27.393 12.511,26.452 C11.027,25.557 9.574,24.600 8.175,23.579 C6.269,22.187 4.714,20.438 3.513,18.409 C3.266,17.992 3.355,17.375 3.290,16.850 C3.771,16.805 4.289,16.622 4.728,16.738 C8.477,17.729 12.120,18.909 14.362,22.470 C14.724,23.046 15.294,23.492 15.783,23.984 C15.955,24.157 16.170,24.288 16.422,24.481 C16.961,23.563 16.798,22.632 16.762,21.727 C16.716,20.526 16.596,19.326 16.574,18.124 C16.550,16.835 16.915,15.683 17.828,14.698 C18.692,13.767 19.417,12.707 20.281,11.775 C22.133,9.775 24.009,7.796 25.932,5.865 C26.475,5.320 27.188,4.919 27.875,4.549 C28.726,4.091 29.126,4.265 29.464,5.186 C29.654,5.703 29.794,6.252 29.858,6.797 C30.424,11.583 29.352,16.078 27.106,20.253 C25.908,22.480 24.367,24.537 22.849,26.573 C21.245,28.723 20.407,31.148 19.800,33.709 C21.019,33.834 21.341,33.594 21.490,32.489 C21.537,32.145 21.586,31.802 21.628,31.457 C21.794,30.092 22.300,28.890 23.175,27.807 C24.220,26.512 25.197,25.159 26.171,23.808 C28.340,20.799 30.348,17.692 31.632,14.181 C32.160,12.737 32.633,11.273 33.185,9.662 C33.491,10.391 33.808,10.982 33.987,11.611 C34.360,12.917 34.660,14.244 34.990,15.562 C34.990,16.858 34.990,18.155 34.990,19.451 C34.951,19.582 34.898,19.710 34.876,19.843 ZM16.785,13.215 C15.969,14.200 15.450,15.303 15.267,16.581 C15.166,17.287 14.958,17.979 14.785,18.675 C14.635,19.275 14.237,19.376 13.724,19.139 C13.474,19.023 13.215,18.891 13.017,18.706 C10.934,16.760 8.294,15.947 5.679,15.099 C4.759,14.802 3.805,14.572 2.849,14.442 C2.063,14.334 1.251,14.420 0.358,14.420 C0.442,14.023 0.519,13.559 0.639,13.106 C2.485,6.119 8.313,1.057 15.517,0.173 C15.811,0.137 16.100,0.061 16.392,0.004 C17.178,0.004 17.965,0.004 18.751,0.004 C19.498,0.136 20.247,0.255 20.991,0.401 C22.888,0.774 24.672,1.448 26.390,2.457 C26.270,2.599 26.183,2.727 26.074,2.830 C22.667,6.014 19.749,9.635 16.785,13.215 ZM11.362,13.867 C12.012,14.219 12.947,14.044 13.525,13.452 C13.888,13.081 14.151,12.602 13.852,12.148 C13.604,11.769 13.140,11.532 12.940,11.370 C11.958,11.407 11.406,11.703 10.998,12.256 C10.528,12.891 10.668,13.489 11.362,13.867 ZM7.263,13.216 C7.730,13.526 8.104,13.241 8.408,12.899 C8.776,12.486 9.113,12.045 9.460,11.613 C10.803,9.936 12.565,9.298 14.669,9.513 C15.151,9.563 15.633,9.616 16.115,9.666 C16.888,9.711 17.370,9.448 17.498,8.910 C17.627,8.372 17.327,7.923 16.593,7.626 C16.275,7.498 15.937,7.394 15.599,7.343 C13.150,6.975 11.008,7.728 9.219,9.348 C8.382,10.105 7.754,11.106 7.097,12.042 C6.844,12.402 6.800,12.910 7.263,13.216 ZM20.318,4.029 C19.883,3.661 19.408,3.261 18.882,3.096 C17.812,2.762 16.696,2.576 15.599,2.329 C13.488,2.494 11.522,2.971 9.710,3.978 C7.403,5.262 5.507,7.008 4.202,9.321 C3.885,9.883 3.713,10.580 3.681,11.226 C3.665,11.543 4.054,12.004 4.379,12.184 C4.823,12.429 5.214,12.113 5.454,11.689 C5.647,11.346 5.828,10.997 6.015,10.651 C7.876,7.206 12.237,4.258 17.242,5.787 C17.923,5.995 18.635,6.136 19.343,6.208 C19.902,6.264 20.483,6.148 20.737,5.529 C20.979,4.939 20.768,4.409 20.318,4.029 Z" class="cls-1"/>
</svg>
