<svg xmlns="http://www.w3.org/2000/svg" xmlns:xlink="http://www.w3.org/1999/xlink" preserveAspectRatio="xMidYMid" width="29" height="32" viewBox="0 0 29 32">
  <defs>
    <style>
      .cls-1 {
        fill: #000;
        fill-rule: evenodd;
      }
    </style>
  </defs>
  <path d="M26.000,32.000 C24.167,32.000 23.000,30.825 23.000,29.000 C23.000,27.175 24.167,26.000 26.000,26.000 C27.833,26.000 29.000,27.175 29.000,29.000 C29.000,30.825 27.833,32.000 26.000,32.000 ZM8.000,32.000 L8.000,24.000 L1.000,24.000 L1.000,10.000 L11.000,10.000 L11.000,-0.000 L15.000,-0.000 L15.000,3.000 L25.000,3.000 L25.000,7.000 L15.000,7.000 L15.000,10.000 L28.000,10.000 L28.000,24.000 L15.000,24.000 L8.000,32.000 ZM24.068,13.932 L5.000,14.000 L5.000,20.000 L24.068,19.865 L24.068,13.932 ZM6.000,29.000 C6.000,30.825 4.833,32.000 3.000,32.000 C1.167,32.000 -0.000,30.825 -0.000,29.000 C-0.000,27.175 1.167,26.000 3.000,26.000 C4.833,26.000 6.000,27.175 6.000,29.000 ZM18.001,26.020 C19.781,26.020 21.000,27.229 21.000,29.000 C21.000,30.771 19.780,32.000 18.000,32.000 C16.220,32.000 15.000,30.771 15.000,29.000 C15.000,27.229 16.221,26.020 18.001,26.020 Z" class="cls-1"/>
</svg>
