<svg xmlns="http://www.w3.org/2000/svg" xmlns:xlink="http://www.w3.org/1999/xlink" preserveAspectRatio="xMidYMid" width="33" height="31" viewBox="0 0 33 31">
  <defs>
    <style>
      .cls-1 {
        fill: #000;
        fill-rule: evenodd;
      }
    </style>
  </defs>
  <path d="M33.000,-0.000 C32.993,1.435 32.929,2.870 32.786,4.298 C32.540,6.755 32.081,9.171 31.330,11.533 C30.418,14.404 29.105,17.086 27.274,19.522 C25.010,22.537 22.156,24.903 18.792,26.705 C16.272,28.054 13.598,29.020 10.811,29.706 C9.049,30.140 7.264,30.452 5.459,30.669 C3.970,30.847 2.475,30.950 0.977,31.006 C0.830,31.011 0.683,31.009 0.536,30.995 C3.816,30.833 6.957,30.109 9.937,28.769 C14.567,26.688 18.209,23.522 20.908,19.341 C22.689,16.582 23.879,13.591 24.606,10.423 C25.311,7.346 25.116,4.144 25.000,1.000 C24.987,0.639 25.019,0.361 25.000,-0.000 C27.549,-0.000 30.451,-0.000 33.000,-0.000 ZM3.015,29.859 C2.024,30.037 1.022,30.101 0.013,30.057 C0.013,29.324 0.013,28.591 0.013,27.858 C0.403,27.911 0.790,27.901 1.176,27.833 C2.895,27.529 4.128,26.126 4.185,24.408 C4.238,22.792 3.068,21.312 1.418,20.904 C0.954,20.789 0.486,20.784 0.013,20.815 C0.013,20.284 0.013,19.753 0.013,19.221 C0.244,19.345 0.484,19.422 0.752,19.365 C1.135,19.285 1.421,19.003 1.489,18.637 C1.555,18.289 1.395,17.918 1.079,17.728 C0.722,17.514 0.363,17.528 0.013,17.756 C0.013,16.810 0.013,15.865 0.013,14.919 C0.086,14.955 0.157,14.997 0.233,15.026 C0.646,15.183 1.120,15.031 1.357,14.669 C1.592,14.311 1.536,13.843 1.222,13.545 C0.900,13.238 0.470,13.206 0.013,13.453 C0.013,9.841 -0.000,5.612 -0.000,2.000 C0.483,1.945 1.525,1.919 2.000,2.000 C4.000,2.342 5.200,3.203 6.899,4.063 C10.941,6.108 13.524,9.282 14.427,13.607 C15.323,17.897 14.281,21.791 11.385,25.166 C9.201,27.711 6.379,29.254 3.015,29.859 ZM2.787,17.238 C3.297,17.240 3.719,16.835 3.723,16.339 C3.728,15.840 3.301,15.427 2.783,15.430 C2.271,15.433 1.856,15.839 1.858,16.336 C1.859,16.832 2.275,17.236 2.787,17.238 ZM5.377,6.348 C3.339,6.351 1.696,7.935 1.696,9.897 C1.695,11.858 3.345,13.452 5.375,13.449 C7.386,13.447 9.042,11.851 9.042,9.916 C9.042,7.946 7.397,6.345 5.377,6.348 ZM8.375,15.273 C6.350,15.270 4.694,16.870 4.695,18.828 C4.697,20.782 6.344,22.375 8.363,22.377 C10.393,22.378 12.044,20.784 12.044,18.824 C12.044,16.874 10.393,15.276 8.375,15.273 Z" class="cls-1"/>
</svg>
