<?xml version="1.0" encoding="utf-8"?>
<!-- Generator: Adobe Illustrator 18.0.0, SVG Export Plug-In . SVG Version: 6.00 Build 0)  -->
<!DOCTYPE svg PUBLIC "-//W3C//DTD SVG 1.1//EN" "http://www.w3.org/Graphics/SVG/1.1/DTD/svg11.dtd">
<svg version="1.1" id="图层_1" xmlns="http://www.w3.org/2000/svg" xmlns:xlink="http://www.w3.org/1999/xlink" x="0px" y="0px"
	 viewBox="0 0 595.3 841.9" enable-background="new 0 0 595.3 841.9" xml:space="preserve">
<path fill="#5B5C5C" d="M297.8,291v-37.6h187.7v-82.1H299v-58h-80.7v183.5H29.8v277.8h138.9v153.8l133.9-158.7h267.9V292L297.8,291z
	 M481.2,495.4H109.1V381.3h372.1V495.4z"/>
<path fill="#5B5C5C" d="M129,664c0,35.1-29.3,64.5-64.5,64.5S0,700.1,0,665s29.3-65.4,64.5-65.4S129,628.9,129,664z"/>
<path fill="#5B5C5C" d="M408.1,657.1c0,34.1-30.8,62.6-65,62.6s-60.3-28.5-60.3-62.6c0-34.1,28.4-62.6,62.6-62.6
	C379.7,594.5,408.1,623,408.1,657.1z"/>
<path fill="#5B5C5C" d="M595.3,664c0,35.1-29.3,64.5-64.5,64.5s-64.5-29.4-64.5-64.5s29.3-64.5,64.5-64.5S595.3,628.9,595.3,664z"/>
</svg>
