<?xml version="1.0" encoding="utf-8"?>
<!-- Generator: Adobe Illustrator 18.0.0, SVG Export Plug-In . SVG Version: 6.00 Build 0)  -->
<!DOCTYPE svg PUBLIC "-//W3C//DTD SVG 1.1//EN" "http://www.w3.org/Graphics/SVG/1.1/DTD/svg11.dtd">
<svg version="1.1" id="图层_1" xmlns="http://www.w3.org/2000/svg" xmlns:xlink="http://www.w3.org/1999/xlink" x="0px" y="0px"
	 viewBox="0 0 595.3 841.9" enable-background="new 0 0 595.3 841.9" xml:space="preserve">
<path fill="#5B5C5C" d="M317.4,68.9C121,72.8,0,152.5,0,364.6c0,174.7,116.9,272.1,229,299.6v5.7v103c24.6-3.4,46.1-7.9,156.1-90.3
	c101.8-34.8,205.6-148.8,210.2-318.1C595.3,158.5,494.8,80.2,317.4,68.9z M334,654.6c-23.9,9.2-22.9,14.4-53.6,15.3v-11.4v-45.8
	C189.9,606.4,61.4,512,61.4,366.6c0-155.3,106.8-231.7,250.7-234.5c130,8.3,215.5,64.1,215.5,215.1
	C527.6,491.7,481.4,585.4,334,654.6z"/>
<path fill="#5B5C5C" d="M252.1,349.5c0,24.1-19.9,43.7-44.4,43.7c-24.5,0-44.4-19.6-44.4-43.7s19.9-43.7,44.4-43.7
	C232.2,305.8,252.1,325.3,252.1,349.5z"/>
<path fill="#5B5C5C" d="M416.1,349.5c0,24.1-19.9,43.7-44.4,43.7s-44.4-19.6-44.4-43.7s19.9-43.7,44.4-43.7
	C396.2,305.8,416.1,325.3,416.1,349.5z"/>
</svg>
