<svg xmlns="http://www.w3.org/2000/svg" xmlns:xlink="http://www.w3.org/1999/xlink" preserveAspectRatio="xMidYMid" width="37.969" height="25.25" viewBox="0 0 37.969 25.25">
  <defs>
    <style>
      .cls-1 {
        fill: #000;
        fill-rule: evenodd;
      }
    </style>
  </defs>
  <path d="M36.310,16.800 L25.333,22.938 L4.208,17.467 L6.434,15.296 L24.454,19.935 L33.907,14.508 L32.259,12.815 L24.040,17.609 L8.218,13.556 L10.438,11.391 L23.097,14.543 L29.995,10.631 L28.348,8.938 L22.684,12.217 L12.215,9.657 L14.458,7.470 L21.740,9.339 L25.905,6.798 L24.147,5.105 L21.046,7.019 L16.230,5.741 L20.513,1.564 L18.970,-0.015 L11.987,6.823 L11.971,6.831 L11.977,6.833 L-0.015,18.575 L25.746,25.264 L37.957,18.493 L36.310,16.800 Z" class="cls-1"/>
</svg>
