<?xml version="1.0" encoding="iso-8859-1"?>
<!-- Generator: Adobe Illustrator 18.0.0, SVG Export Plug-In . SVG Version: 6.00 Build 0)  -->
<!DOCTYPE svg PUBLIC "-//W3C//DTD SVG 1.1//EN" "http://www.w3.org/Graphics/SVG/1.1/DTD/svg11.dtd">
<svg version="1.1" id="&#x56FE;&#x5C42;_1" xmlns="http://www.w3.org/2000/svg" xmlns:xlink="http://www.w3.org/1999/xlink" x="0px"
	 y="0px" viewBox="0 0 87.391 120.299" style="enable-background:new 0 0 87.391 120.299;" xml:space="preserve">
<path style="fill:#5B5C5C;" d="M66.918,83.198c-0.347-0.087-0.673-0.219-0.984-0.395L48.205,72.586l2.644-0.313l23.843,0.156
	l5.183-12.671l-32.137,0.156l-0.156-5.006l26.124,0.157L78.994,0L1.866,3.598l6.22,51.311h28.146v6.101H0.777v12.515h33.122
	c0,0-9.641,7.978-17.727,13.61C8.086,92.766,0,91.202,0,91.202l3.732,17.99c7.308,0.313,32.5-21.432,32.5-21.432v31.6l11.196,0.939
	V84.006c4.976,6.727,18.504,12.828,20.526,13.61c2.021,0.782,14.124,4.778,14.462,4.693l4.976-16.426
	C84.321,87.427,69.851,83.931,66.918,83.198z M35.972,46.357H20.008l-1.037-7.718h17.001V46.357z M35.35,15.487V26.75l-18.453,1.043
	V12.358l47.479-2.086v14.601l-16.379,1.043V14.653L35.35,15.487z M47.376,46.357l1.037-7.718h14.721v7.718H47.376z"/>
</svg>
