<svg xmlns="http://www.w3.org/2000/svg" xmlns:xlink="http://www.w3.org/1999/xlink" preserveAspectRatio="xMidYMid" width="24" height="33" viewBox="0 0 24 33">
  <defs>
    <style>
      .cls-1 {
        fill: #000;
        fill-rule: evenodd;
      }
    </style>
  </defs>
  <path d="M18.376,22.821 C18.281,22.797 18.191,22.761 18.106,22.712 L13.234,19.908 L13.960,19.822 L20.512,19.865 L21.937,16.388 L13.106,16.431 L13.063,15.057 L20.242,15.100 L21.695,-0.012 L0.500,0.975 L2.209,15.057 L9.944,15.057 L9.944,16.731 L0.201,16.731 L0.201,20.166 L9.303,20.166 C9.303,20.166 6.653,22.355 4.431,23.901 C2.209,25.446 -0.013,25.017 -0.013,25.017 L1.013,29.954 C3.021,30.040 9.944,24.073 9.944,24.073 L9.944,32.745 L13.020,33.002 L13.020,23.042 C14.388,24.888 18.105,26.563 18.661,26.777 C19.216,26.992 22.542,28.088 22.635,28.065 L24.002,23.557 C23.158,23.981 19.182,23.022 18.376,22.821 ZM9.872,12.710 L5.485,12.710 L5.200,10.592 L9.872,10.592 L9.872,12.710 ZM9.701,4.238 L9.701,7.329 L4.631,7.615 L4.631,3.380 L17.678,2.807 L17.678,6.814 L13.177,7.100 L13.177,4.009 L9.701,4.238 ZM13.006,12.710 L13.291,10.592 L17.336,10.592 L17.336,12.710 L13.006,12.710 Z" class="cls-1"/>
</svg>
