<svg xmlns="http://www.w3.org/2000/svg" xmlns:xlink="http://www.w3.org/1999/xlink" preserveAspectRatio="xMidYMid" width="30.94" height="31.219" viewBox="0 0 30.94 31.219">
  <defs>
    <style>
      .cls-1 {
        fill: #000;
        fill-rule: evenodd;
      }
    </style>
  </defs>
  <path d="M29.369,22.952 C27.883,25.662 25.749,27.782 23.050,29.347 C21.961,29.979 20.739,30.333 19.515,30.651 C18.625,30.881 17.721,31.046 16.808,31.147 C16.092,31.225 15.368,31.223 14.646,31.203 C11.448,31.111 8.671,29.997 6.296,27.924 C4.488,26.348 3.171,24.420 2.105,22.317 C1.217,20.563 0.549,18.729 0.002,16.850 C-0.044,16.696 -0.017,16.626 0.125,16.545 C2.532,15.172 4.935,13.794 7.338,12.417 C12.917,9.221 18.496,6.025 24.072,2.823 C24.271,2.708 24.362,2.733 24.507,2.901 C26.252,4.923 27.814,7.063 29.008,9.444 C29.672,10.765 30.203,12.134 30.534,13.571 C30.709,14.331 30.831,15.100 30.885,15.878 C30.941,16.219 30.934,16.562 30.931,16.905 C30.914,19.044 30.404,21.065 29.369,22.952 ZM24.741,20.692 C24.560,19.678 24.153,18.741 23.656,17.838 C23.578,17.696 23.494,17.645 23.327,17.758 C22.178,18.539 21.022,19.310 19.870,20.085 C18.820,20.790 17.774,21.500 16.721,22.200 C16.576,22.296 16.584,22.347 16.688,22.473 C17.110,22.988 17.552,23.482 18.075,23.903 C19.036,24.676 20.089,25.229 21.379,25.242 C22.553,25.255 23.528,24.890 24.179,23.889 C24.623,23.205 24.846,22.459 24.793,21.619 C24.831,21.324 24.796,21.004 24.741,20.692 ZM15.885,5.277 C14.259,5.326 13.089,4.178 13.069,2.640 C13.052,1.249 14.108,0.009 15.761,-0.013 C17.369,-0.034 18.486,1.187 18.518,2.627 C18.510,4.002 17.461,5.230 15.885,5.277 ZM16.103,0.572 C15.642,0.563 15.213,0.988 15.219,1.436 C15.225,1.876 15.607,2.336 16.134,2.321 C16.637,2.306 17.009,1.958 17.011,1.468 C17.066,0.984 16.628,0.583 16.103,0.572 ZM3.057,12.552 C1.579,12.539 0.387,11.344 0.395,9.885 C0.404,8.426 1.626,7.253 3.128,7.264 C4.651,7.275 5.839,8.463 5.827,9.965 C5.815,11.407 4.575,12.565 3.057,12.552 ZM3.715,7.975 C3.223,7.982 2.814,8.381 2.816,8.855 C2.817,9.331 3.234,9.733 3.721,9.729 C4.222,9.724 4.612,9.339 4.610,8.850 C4.609,8.365 4.203,7.969 3.715,7.975 Z" class="cls-1"/>
</svg>
