<?xml version="1.0" encoding="iso-8859-1"?>
<!-- Generator: Adobe Illustrator 18.0.0, SVG Export Plug-In . SVG Version: 6.00 Build 0)  -->
<!DOCTYPE svg PUBLIC "-//W3C//DTD SVG 1.1//EN" "http://www.w3.org/Graphics/SVG/1.1/DTD/svg11.dtd">
<svg version="1.1" id="&#x56FE;&#x5C42;_1" xmlns="http://www.w3.org/2000/svg" xmlns:xlink="http://www.w3.org/1999/xlink" x="0px"
	 y="0px" viewBox="0 0 595.28 841.89" style="enable-background:new 0 0 595.28 841.89;" xml:space="preserve">
<path style="fill:#5B5C5C;" d="M595.28,526.644c-0.503,5.663-1.104,11.321-1.491,16.994c-1.002,14.825-2.619,29.641-8.848,43.252
	c-3.446,7.531-8.828,14.162-13.233,21.268c-3.504,5.648-6.844,11.403-10.3,17.091c-0.431,0.707-1.041,1.341-1.684,1.868
	c-20.919,17.173-43.184,32.26-68.614,41.916c-20.488,7.783-41.403,14.177-63.203,17.589c-12.914,2.023-25.837,2.977-38.75,2.081
	c-20.367-1.413-40.241-5.489-59.282-13.32c-11.311-4.651-23.102-8.349-33.165-15.435c-6.897-4.855-13.233-10.571-19.419-16.335
	c-3.417-3.19-6.737-5.169-11.558-4.608c-7.313,0.852-14.801,0.736-21.974,2.197c-7.154,1.457-12.096,5.818-14.656,13.451
	c-4.801,14.288-10.392,28.552-23.218,37.831c-14.52,10.503-30.933,16.176-48.997,15.556c-8.078-0.276-14.472-5.068-19.244-11.253
	c-5.765-7.473-10.823-15.493-16.152-23.3c-4.308-6.312-8.591-12.638-12.831-18.998c-1.108-1.66-2.202-2.56-4.056-0.992
	c-8.659,7.328-19.501,8.611-30.014,10.755c-10.498,2.139-20.987,1.849-31.316-0.973c-14.98-4.1-26.001-13.456-33.3-26.902
	c-3.727-6.868-6.67-14.264-9.124-21.698c-1.98-6.002-0.261-12.207,2.759-17.546c2.783-4.913,6.302-9.492,10.005-13.78
	c11.176-12.943,22.439-25.813,34.007-38.407c4.632-5.043,10.14-9.283,15.58-14.186c-3.194-1.747-6.234-3.18-9.041-4.985
	c-8.441-5.435-17.279-10.411-25.057-16.684c-10.726-8.649-13.867-20.861-13.301-34.288c0.789-18.746,8.325-33.828,22.594-46.238
	c12.265-10.668,26.364-18.034,40.406-25.687c2.948-1.607,5.978-3.059,8.872-5.252c-3.132,0.145-6.268,0.257-9.4,0.45
	c-3.504,0.218-7.004,0.668-10.508,0.745c-24.143,0.513-38.731-16.118-39.229-39.225c-0.678-31.103,6.921-60.052,22.434-86.905
	c6.239-10.798,12.444-21.708,19.791-31.737c7.938-10.837,16.979-20.9,25.934-30.953c17.933-20.145,38.678-37.138,60.729-52.516
	c7.73-5.392,15.551-11.374,24.259-14.472c11.752-4.177,24.298-6.549,36.693-8.33c9.017-1.292,18.383-0.91,27.536-0.334
	c17.313,1.094,29.597,9.956,37.366,25.508c6.67,13.344,10.135,27.531,11.244,42.23c0.983,13.044,1.476,26.166,1.321,39.244
	c-0.131,10.629-0.668,21.403-2.58,31.824c-3.596,19.578-9.593,38.44-23.726,53.377c-3.262,3.446-7.904,5.547-11.621,8.615
	c-6.176,5.097-12.468,10.237-14.574,18.528c-0.353,1.379-0.16,3.112,0.353,4.463c4.071,10.735,12.028,18.03,21.553,23.857
	c2.894,1.771,5.905,3.345,8.77,5.16c2.212,1.404,3.359,1.094,4.245-1.525c3.103-9.177,6.379-18.301,9.608-27.434
	c8.954-25.343,24.331-45.526,47.308-59.877c16.524-10.319,34.171-17.376,53.266-21.384c21.248-4.463,42.709-6.016,64.292-5.91
	c24.491,0.121,47.462,6.355,68.144,19.743c6.563,4.25,12.744,9.182,18.673,14.298c7.483,6.452,11.06,15.542,14.719,24.375
	c6.776,16.345,12.154,33.17,16.306,50.386c3.891,16.127,8.204,32.153,11.825,48.339c3.33,14.879,6.5,29.83,8.775,44.892
	c1.752,11.597,1.98,23.426,2.943,35.149c0.286,3.48,0.77,6.946,1.162,10.421C595.28,521.296,595.28,523.972,595.28,526.644z
	 M125.089,532.752c0.131,0.324,0.266,0.644,0.397,0.968c-0.615,0.687-1.157,1.462-1.854,2.047
	c-8.949,7.464-18.199,14.583-26.819,22.405c-15.803,14.336-30.469,29.588-37.69,50.468c-4.177,12.076-5.426,23.368,3.495,34.239
	c3.983,4.855,9.017,5.566,14.327,6.679c8.572,1.791,16.645,0.571,24.162-3.862c3.964-2.338,7.764-4.966,11.587-7.531
	c5.024-3.369,9.888-6.994,15.033-10.164c5.673-3.495,12.091-3.248,16.728,1.442c6.123,6.191,12.018,12.734,17.124,19.772
	c7.541,10.392,14.288,21.364,21.418,32.061c0.59,0.886,1.35,1.868,2.27,2.294c6.844,3.175,17.318,4.777,22.971-4.395
	c0.886-1.433,2.265-2.56,3.165-3.983c2.899-4.584,6.452-8.949,8.301-13.94c2.251-6.07,2.856-12.734,4.555-19.036
	c0.46-1.704,1.994-3.649,3.562-4.424c8.732-4.332,18.194-5.508,27.816-5.891c2.023-0.082,4.259-0.145,6.007-1.007
	c7.58-3.737,15.174-7.488,22.424-11.805c3.393-2.023,7.183-4.153,8.325-8.703c2.217-8.833,1.776-17.299-2.972-25.28
	c-9.55-16.045-19.056-32.114-28.697-48.101c-4.148-6.878-6.525-14.167-5.247-22.168c2.793-17.507,10.363-32.874,21.268-46.761
	c3.887-4.947,7.585-10.121,10.673-15.585c2.517-4.458,5.402-9.429,5.648-14.298c0.557-10.987-3.161-21.074-10.924-29.181
	c-8.315-8.688-16.761-17.26-25.416-25.604c-4.163-4.012-8.669-7.807-13.523-10.919c-5.145-3.296-7.13-5.978-6.205-12.096
	c0.973-6.466,2.033-12.933,3.403-19.327c0.353-1.646,1.742-3.316,3.093-4.453c7.212-6.084,14.98-11.568,21.761-18.092
	c8.185-7.88,13.214-17.947,15.977-28.949c1.5-5.973,2.231-12.139,3.301-18.218c2.865-16.253,5.223-32.497,4.109-49.142
	c-1.026-15.377-6.592-28.736-16.224-40.468c-1.888-2.299-4.98-5.058-7.546-5.087c-9.656-0.102-19.506-0.136-28.934,1.65
	c-11.123,2.11-20.793,8.34-30.512,14.148c-26.49,15.822-49.979,35.202-70.192,58.488c-19.438,22.395-36.204,46.514-46.659,74.562
	c-5.043,13.523-10.097,27.008-9.719,41.833c0.15,5.919,2.556,10.063,7.972,12.217c11.674,4.642,23.702,3.717,35.411,0.75
	c10.556-2.672,20.488-7.294,29.844-13.03c4.133-2.536,8.785-3.582,13.122-0.886c7.11,4.419,10.237,15.871,9.279,23.484
	c-0.537,4.284-3.011,7.246-5.76,10.227c-10.977,11.897-22.482,23.189-36.122,32.076c-14.327,9.332-28.736,18.538-42.985,27.981
	c-8.122,5.382-12.884,13.005-13.799,22.855c-0.731,7.841,0.14,15.513,2.527,23c0.915,2.87,1.36,6.326,3.253,8.373
	c10.247,11.084,22.579,18.242,38.184,18.378C121.546,532.767,123.317,532.752,125.089,532.752z M438.929,309.844
	c-0.039,0.402-0.073,0.799-0.111,1.2c-9.167-0.586-18.078,0.16-26.95,2.982c-8.519,2.71-17.449,4.095-26.079,6.481
	c-8.751,2.415-14.627,8.804-19.927,15.74c-10.75,14.075-17.337,30.236-22.816,46.838c-4.932,14.942-9.274,30.082-13.727,45.178
	c-3.829,12.981-7.802,25.938-11.065,39.07c-3.528,14.216-6.694,28.547-9.322,42.956c-3.775,20.711-5.411,41.553-2.846,62.651
	c2.41,19.811,7.618,38.687,16.539,56.538c6.234,12.473,14.327,23.107,28.155,27.894c3.19,1.104,6.442,2.096,9.738,2.831
	c7.894,1.767,15.759,3.843,23.755,4.884c9.114,1.191,18.344,1.559,27.54,1.98c7.967,0.363,16.045,1.099,23.915,0.232
	c12.018-1.321,23.896-3.92,35.851-5.886c9.608-1.578,18.291-5.431,26.592-10.353c8.862-5.256,17.725-10.527,26.718-15.551
	c10.953-6.123,21.122-12.909,29.69-22.468c13.388-14.932,23.194-31.563,26.679-51.257c4.182-23.62,8.683-47.404,4.617-71.533
	c-3.354-19.922-7.134-39.786-11.399-59.529c-3.475-16.084-7.918-31.955-11.989-47.908c-2.154-8.451-4.608-16.786-9.012-24.433
	c-6.307-10.958-15.45-18.959-26.263-25.082c-15.372-8.707-31.8-15.101-49.045-18.596
	C465.293,312.08,452.021,311.388,438.929,309.844z"/>
<path style="fill:#5B5C5C;" d="M371.234,508.285c-0.799-7.323-1.728-13.78-2.168-20.271c-0.818-12.144-0.499-24.283,1.641-36.291
	c1.297-7.265,3.156-14.428,4.467-21.689c0.174-0.968-1.118-2.72-2.173-3.301c-4.235-2.328-7.875-5.131-10.339-9.414
	c-3.509-6.099-4.235-12.425-1.37-18.833c2.71-6.07,5.784-11.989,8.94-17.846c0.629-1.171,2.357-1.752,3.577-2.609
	c0.426,1.239,1.026,2.444,1.254,3.717c1.525,8.509,4.618,16.403,9.162,25.024c2.822-5.005,5.416-8.92,7.318-13.151
	c2.778-6.166,5.019-12.575,7.604-18.828c0.445-1.079,1.462-2.638,2.265-2.672c0.958-0.039,2.236,1.152,2.909,2.13
	c2.536,3.698,4.676,7.686,7.352,11.273c3.654,4.898,3.635,10.092,2.047,15.551c-1.98,6.8-5.978,12.502-10.614,17.623
	c-3.698,4.08-5.435,8.659-6.161,13.94c-2.188,15.861-4.598,31.693-6.704,47.564c-0.803,6.07-1.016,12.217-0.663,18.828
	c0.987-1.036,1.946-2.11,2.977-3.103c6.176-5.944,12.066-12.236,18.668-17.667c4.114-3.378,9.4-3.199,13.925,0.014
	c4.521,3.209,8.785,6.781,13.151,10.198c0.765,0.6,1.471,1.273,2.251,1.849c1.989,1.481,3.282,1.191,3.853-1.423
	c1.133-5.208,2.318-10.406,3.553-15.595c1.355-5.677,4.7-8.553,10.561-9.521c4.98-0.823,9.758-0.155,14.095,2.26
	c1.888,1.05,3.33,3.015,4.748,4.748c1.249,1.53,2.173,3.315,4.013,4.651c-0.765-5.828-1.491-11.66-2.309-17.483
	c-1.651-11.752-3.257-23.509-5.058-35.241c-2.023-13.175-4.201-26.326-6.399-39.471c-0.407-2.435-1.568-3.572-4.632-3.785
	c-13.165-0.92-25.237-8.102-27.09-25.29c-0.232-2.168-0.571-4.332-0.905-6.491c-0.489-3.141,0.271-3.993,3.596-3.151
	c3.746,0.953,7.381,2.333,11.065,3.528c0.46,0.15,0.905,0.353,1.375,0.484c5.581,1.515,5.934,1.336,7.038-4.254
	c0.658-3.325,1.099-6.694,1.757-10.014c0.358-1.81,1.273-3.378,3.49-2.681c6.437,2.014,13.272,3.325,19.148,6.433
	c9.511,5.029,13.039,15.779,8.756,26.926c-2.41,6.273-1.52,12.042-0.605,18.025c2.197,14.38,4.598,28.731,6.999,43.077
	c2.178,13.02,4.477,26.025,6.694,39.041c0.649,3.824,1.331,7.652,1.738,11.505c0.286,2.677,1.617,3.519,3.848,2.469
	c4.022-1.888,8.19-3.659,11.8-6.186c7.536-5.271,14.738-11.021,22.12-16.519c0.847-0.634,1.951-1.263,2.948-1.292
	c2.633-0.077,5.857-0.726,7.778,0.513c2.996,1.926,3.398,5.547,2.28,9.158c-5.416,17.497-13.722,32.908-30.261,42.467
	c-0.6,0.344-1.089,0.881-2.323,1.897c5.329,0.552,9.932,0.881,14.491,1.539c5.774,0.832,10.842,3.311,15.159,7.289
	c1.747,1.612,2.067,3.209,0.973,5.489c-3.03,6.316-9.133,8.378-14.767,11.094c-4.429,2.135-8.949,4.095-13.373,6.108
	c1.917,5.135,4.221,6.742,8.712,7.086c7.042,0.537,13.03-2.227,18.838-5.663c2.294-1.36,4.492-2.89,6.82-4.187
	c0.736-0.411,1.834-0.595,2.604-0.353c0.363,0.116,0.581,1.515,0.45,2.26c-3.117,18.184-12.308,31.94-29.443,39.68
	c-2.289,1.036-3.18,2.289-3.693,4.729c-2.773,13.185-7.691,25.28-18.644,34.021c-0.431,0.344-0.939,0.591-2.652,1.655
	c2.091-6.66-0.145-11.568-2.565-16.442c-2.652-5.344-6.244-8.674-12.88-8.751c-13.01-0.15-16.781-4.206-17.715-17.483
	c-0.034-0.455-0.155-0.9-0.324-1.849c-2.357,1.98-4.39,3.775-6.534,5.431c-9.579,7.41-19.922,10.198-31.625,5.329
	c-2.193-0.915-4.651-1.186-7.217-1.805c0,3.122,0.063,6.074-0.014,9.022c-0.15,5.716-2.168,7.875-7.889,8.141
	c-3.388,0.16-6.825,0.213-10.179-0.194c-3.151-0.382-4.056,0.949-4.448,3.722c-1.123,7.933,1.902,14.753,5.426,21.481
	c0.547,1.041,1.031,2.12,1.607,3.301c-3.291,2.004-6.011,0.368-8.47-0.813c-12.183-5.876-21.689-14.627-27.41-27.032
	c-1.559-3.383-2.251-7.154-3.451-10.711c-0.489-1.457-1.273-2.812-2.052-4.487c-7.284,5.547-15.101,6.694-22.918,2.923
	c-4.932-2.376-8.514-6.679-9.704-12.294c5.237-1.404,10.334-2.59,15.314-4.148c5.319-1.66,9.012-5.406,11.926-10.14
	c-3.911-0.871-7.701-1.413-11.278-2.599c-3.533-1.171-6.999-2.735-10.218-4.603c-3.364-1.951-6.176-4.869-5.455-9.124
	c0.687-4.046,4.351-5.421,7.744-6.926c5.164-2.289,10.218-4.83,15.319-7.265c-0.029-0.353-0.053-0.707-0.082-1.055
	c-3.887-1.418-7.827-2.711-11.65-4.288c-4.463-1.839-8.935-3.712-13.165-6.007c-1.646-0.891-3.446-2.812-3.795-4.545
	c-1.07-5.31-1.984-10.764-1.859-16.142c0.044-1.951,2.856-4.845,4.98-5.532c4.245-1.375,8.698-1.283,12.831,1.655
	c5.126,3.649,10.605,6.8,15.958,10.126C368.771,507.298,369.773,507.622,371.234,508.285z"/>
</svg>
