<?xml version="1.0" encoding="iso-8859-1"?>
<!-- Generator: Adobe Illustrator 18.0.0, SVG Export Plug-In . SVG Version: 6.00 Build 0)  -->
<!DOCTYPE svg PUBLIC "-//W3C//DTD SVG 1.1//EN" "http://www.w3.org/Graphics/SVG/1.1/DTD/svg11.dtd">
<svg version="1.1" id="&#x56FE;&#x5C42;_1" xmlns="http://www.w3.org/2000/svg" xmlns:xlink="http://www.w3.org/1999/xlink" x="0px"
	 y="0px" viewBox="0 0 595.28 841.89" style="enable-background:new 0 0 595.28 841.89;" xml:space="preserve">
<path style="fill:#5B5C5C;" d="M307.702,154.092c-50.263-19.731-104.697-30.787-160.999-30.787c-120.247,0-52.908,0-146.703,0
	c0,0,0,17.114,0,156.429c0,102.979,46.542,217.071,128.268,301.14c0-72.504,0-20.287,0-115.475
	C128.268,332.104,202.904,211.632,307.702,154.092z"/>
<path style="fill:#5B5C5C;" d="M562.842,394.853c-55.908,125.21-186.966,201.041-300.578,201.041c-89.666,0-113.718,0-119.234,0
	c71.386,72.754,169.266,122.69,286.31,122.69H595.28V545.046C595.28,492.441,583.619,441.689,562.842,394.853z"/>
<path style="fill:#5B5C5C;" d="M557.148,386.179c17.422-39.02,27.628-82.778,27.628-130.602V123.305H450.857
	c-48.074,0-94.169,12.938-135.565,35.674C423.475,201.436,512.027,284.448,557.148,386.179z"/>
<path style="fill:#5B5C5C;" d="M140.659,582.419c0,0,0.379,0,1.479,0c-0.49-0.494-0.999-0.965-1.479-1.459
	C140.659,581.469,140.659,581.906,140.659,582.419z"/>
<path style="fill:#5B5C5C;" d="M549.347,387.504c-43.811-98.697-129.8-179.227-234.843-220.422
	C212.741,222.904,140.27,339.785,140.27,469.095c0,92.35,4.661,37.032,4.661,107.376c0.47,0.48,0.96,0.936,1.435,1.416
	c5.358,0,24.046,4.657,111.116,4.657C367.801,582.544,495.062,508.974,549.347,387.504z"/>
</svg>
