<svg xmlns="http://www.w3.org/2000/svg" xmlns:xlink="http://www.w3.org/1999/xlink" preserveAspectRatio="xMidYMid" width="37" height="29" viewBox="0 0 37 29">
  <defs>
    <style>
      .cls-1 {
        fill: #000;
        fill-rule: evenodd;
      }
    </style>
  </defs>
  <path d="M36.894,21.734 C36.792,22.574 36.109,23.062 35.351,23.389 C34.652,23.691 34.467,24.073 34.861,24.783 C35.508,25.951 36.062,27.168 36.774,28.604 C36.335,28.523 36.093,28.517 35.883,28.435 C33.747,27.601 31.622,26.739 29.478,25.924 C29.113,25.786 28.649,25.731 28.273,25.815 C23.763,26.820 19.269,27.900 14.751,28.867 C13.109,29.218 11.568,28.885 10.081,27.938 C7.980,26.601 7.018,24.524 6.086,22.472 C4.675,19.363 3.398,16.187 2.266,12.971 C1.365,10.413 0.696,7.770 0.062,5.133 C-0.313,3.573 0.846,1.722 2.550,1.122 C3.732,0.706 5.012,0.456 6.267,0.353 C8.862,0.141 11.476,-0.087 14.073,-0.009 C17.947,0.108 21.852,0.089 25.665,0.914 C28.162,1.455 30.658,2.275 32.075,4.488 C33.126,6.130 33.820,8.035 34.412,9.902 C35.362,12.896 36.146,15.943 36.887,18.993 C37.098,19.861 37.003,20.829 36.894,21.734 ZM35.089,18.309 C34.420,15.557 33.713,12.808 32.856,10.107 C32.322,8.422 31.696,6.704 30.747,5.222 C29.469,3.225 27.218,2.486 24.965,1.998 C21.525,1.253 18.001,1.270 14.506,1.165 C12.163,1.095 9.805,1.301 7.463,1.492 C6.331,1.584 5.177,1.810 4.110,2.186 C2.573,2.727 1.527,4.396 1.865,5.804 C2.437,8.183 3.041,10.568 3.854,12.876 C4.875,15.777 6.027,18.643 7.300,21.447 C8.141,23.299 9.009,25.173 10.904,26.379 C12.246,27.233 13.637,27.534 15.118,27.217 C19.194,26.345 23.248,25.370 27.317,24.463 C27.657,24.388 28.076,24.437 28.405,24.562 C30.339,25.297 32.256,26.075 34.183,26.828 C34.373,26.902 34.591,26.907 34.987,26.980 C34.345,25.684 33.845,24.587 33.261,23.533 C32.906,22.892 33.073,22.547 33.704,22.275 C34.387,21.980 35.004,21.540 35.095,20.782 C35.194,19.966 35.280,19.092 35.089,18.309 ZM28.767,12.744 C29.578,15.108 29.568,17.571 29.342,20.012 C29.145,22.143 28.168,23.189 26.397,23.599 C26.045,23.681 25.620,23.443 25.339,23.823 C24.173,23.823 23.006,23.823 21.840,23.823 C21.141,23.547 20.438,23.281 19.746,22.989 C19.419,22.851 19.119,22.678 19.110,22.243 C19.094,21.509 20.388,20.211 21.140,20.209 C21.594,20.208 21.796,20.458 21.594,20.792 C21.274,21.322 21.562,21.572 21.948,21.773 C23.351,22.505 24.810,22.726 26.337,22.146 C27.355,21.759 27.741,20.887 28.047,19.982 C28.762,17.868 28.595,15.702 28.373,13.538 C28.343,13.256 28.267,12.975 28.268,12.694 C28.271,12.001 27.899,11.835 27.265,11.915 C25.278,12.168 23.291,12.422 21.299,12.629 C20.768,12.685 20.575,12.920 20.495,13.385 C20.405,13.911 20.298,14.438 19.988,14.896 C19.783,15.198 19.545,15.464 19.124,15.349 C18.718,15.238 18.731,14.899 18.734,14.577 C18.736,14.261 18.707,13.942 18.743,13.630 C18.797,13.173 18.633,12.913 18.160,12.835 C17.676,12.754 17.428,12.438 17.404,11.981 C17.375,11.461 17.830,11.330 18.190,11.320 C19.103,11.295 19.049,10.676 19.141,10.074 C19.413,8.311 19.429,8.327 17.625,8.520 C15.282,8.771 12.939,9.032 10.589,9.217 C9.832,9.277 9.581,9.652 9.486,10.271 C9.286,11.579 9.087,12.887 8.894,14.195 C8.795,14.868 8.449,15.038 7.841,14.711 C7.841,14.078 7.841,13.445 7.841,12.813 C8.051,12.774 8.042,12.607 8.063,12.454 C8.368,10.243 8.622,8.024 9.001,5.826 C9.193,4.713 9.070,3.480 9.980,2.561 C10.174,2.561 10.369,2.561 10.563,2.561 C10.732,2.950 10.758,3.345 10.686,3.763 C10.468,5.036 10.283,6.314 10.062,7.586 C9.898,8.533 9.994,8.653 10.961,8.546 C13.497,8.264 16.031,7.962 18.570,7.707 C19.322,7.632 19.624,7.301 19.704,6.580 C19.853,5.236 20.086,3.900 20.284,2.561 C20.544,2.561 20.803,2.561 21.062,2.561 C21.294,4.131 21.301,5.701 21.123,7.279 C20.998,8.376 20.974,9.483 20.874,10.583 C20.822,11.152 21.068,11.292 21.607,11.259 C23.931,11.118 26.257,11.018 28.580,10.868 C29.256,10.825 29.924,10.655 30.589,10.914 C30.589,11.041 30.589,11.167 30.589,11.294 C30.227,11.411 29.870,11.613 29.504,11.629 C28.660,11.666 28.487,11.928 28.767,12.744 Z" class="cls-1"/>
</svg>
