<?xml version="1.0" encoding="iso-8859-1"?>
<!-- Generator: Adobe Illustrator 18.0.0, SVG Export Plug-In . SVG Version: 6.00 Build 0)  -->
<!DOCTYPE svg PUBLIC "-//W3C//DTD SVG 1.1//EN" "http://www.w3.org/Graphics/SVG/1.1/DTD/svg11.dtd">
<svg version="1.1" id="&#x56FE;&#x5C42;_1" xmlns="http://www.w3.org/2000/svg" xmlns:xlink="http://www.w3.org/1999/xlink" x="0px"
	 y="0px" viewBox="0 0 595.28 841.89" style="enable-background:new 0 0 595.28 841.89;" xml:space="preserve">
<path style="fill:#5B5C5C;" d="M594.348,426.401c1.072,6.728,0.952,13.501,0.902,20.269c-0.336,42.202-10.14,82.085-30.044,119.318
	c-28.581,53.464-69.631,95.291-121.547,126.181c-20.931,12.454-44.432,19.453-67.977,25.715c-17.113,4.549-34.507,7.81-52.066,9.784
	c-13.772,1.553-27.694,1.513-41.576,1.107c-61.515-1.804-114.909-23.791-160.598-64.681c-34.758-31.111-60.102-69.14-80.592-110.641
	c-17.083-34.602-29.933-70.793-40.464-107.86c-0.867-3.051-0.361-4.429,2.38-6.032c46.28-27.078,92.495-54.271,138.72-81.439
	c107.294-63.068,214.608-126.111,321.832-189.299c3.837-2.259,5.591-1.768,8.371,1.538c33.56,39.898,63.609,82.115,86.574,129.092
	c12.75,26.081,22.97,53.078,29.342,81.439C590.977,395.886,593.321,411.061,594.348,426.401z M477.18,539.691
	c0.746-5.831,0.07-12.139-0.997-18.291c-3.467-20.019-11.302-38.505-20.856-56.315c-1.503-2.8-3.116-3.822-6.342-1.578
	c-22.088,15.405-44.311,30.61-66.48,45.894c-20.184,13.922-40.314,27.919-60.568,41.736c-2.785,1.899-2.62,2.906-0.626,5.401
	c8.116,10.155,16.612,19.909,26.677,28.21c18.491,15.255,38.741,26.156,63.544,26.421c22.579,0.246,41.341-6.949,53.85-26.702
	C473.929,570.972,478.217,556.259,477.18,539.691z"/>
<path style="fill:#5B5C5C;" d="M60.508,256.444c29.302,0.215,52.137,23.671,51.906,53.304c-0.22,28.44-24.067,51.285-53.269,51.029
	c-28.415-0.25-51.35-23.821-51.19-52.608C8.116,279.369,31.627,256.229,60.508,256.444z M89.028,287.74
	c-0.03-9.559-7.83-17.379-17.219-17.254c-9.463,0.125-17.324,8.011-17.304,17.359c0.02,9.383,8.046,17.324,17.409,17.234
	C81.559,304.984,89.054,297.384,89.028,287.74z"/>
<path style="fill:#5B5C5C;" d="M356.51,164.946c-0.155,27.143-20.33,51.375-50.639,52.297
	c-31.276,0.957-53.785-21.692-54.156-52.041c-0.336-27.443,19.969-51.901,51.766-52.327
	C334.407,112.459,355.884,136.536,356.51,164.946z M327.518,142.087c1.057-9.544-7.369-17.459-17.464-17.669
	c-8.867-0.185-17.113,8.196-16.993,17.038c0.12,8.677,7.47,17.765,17.584,17.459C320.334,158.624,327.483,151.75,327.518,142.087z"
	/>
</svg>
