<svg xmlns="http://www.w3.org/2000/svg" xmlns:xlink="http://www.w3.org/1999/xlink" preserveAspectRatio="xMidYMid" width="33" height="32" viewBox="0 0 33 32">
  <defs>
    <style>
      .cls-1 {
        fill: #000;
        fill-rule: evenodd;
      }
    </style>
  </defs>
  <path d="M24.000,32.000 C17.649,32.000 11.873,28.848 8.000,25.000 C8.299,25.000 9.503,25.249 14.369,25.249 C20.533,25.249 27.967,21.622 31.000,15.000 C32.127,17.477 33.000,20.218 33.000,23.000 L33.000,32.000 L24.000,32.000 ZM18.000,2.000 C20.246,0.798 22.392,0.000 25.000,0.000 L32.000,0.000 L32.000,7.000 C32.000,9.529 31.945,11.936 31.000,14.000 C28.677,8.682 24.120,4.121 18.000,2.000 ZM30.000,14.000 C27.054,20.425 19.986,24.000 14.000,24.000 C9.276,24.000 8.291,24.000 8.000,24.000 C8.315,23.520 8.253,22.400 8.000,23.000 C8.000,19.280 7.749,23.427 7.749,18.543 C7.749,11.703 11.478,5.952 17.000,3.000 C22.700,5.179 27.623,8.780 30.000,14.000 ZM7.000,17.000 C6.714,22.026 7.000,20.165 7.000,24.000 C2.566,19.554 0.000,14.447 0.000,9.000 C0.000,1.632 0.000,0.000 0.000,0.000 C5.089,0.000 1.476,0.000 8.000,0.000 C11.055,0.000 14.273,0.957 17.000,2.000 C10.610,5.778 7.446,9.156 7.000,17.000 ZM7.770,24.536 C7.770,24.509 7.770,24.486 7.770,24.459 C7.797,24.485 7.824,24.510 7.851,24.536 C7.791,24.536 7.770,24.536 7.770,24.536 Z" class="cls-1"/>
</svg>
