<svg xmlns="http://www.w3.org/2000/svg" xmlns:xlink="http://www.w3.org/1999/xlink" preserveAspectRatio="xMidYMid" width="31" height="32.031" viewBox="0 0 31 32.031">
  <defs>
    <style>
      .cls-1 {
        fill: #000;
        fill-rule: evenodd;
      }
    </style>
  </defs>
  <path d="M9.000,2.000 L7.686,2.442 L6.000,4.000 L12.000,4.000 L13.971,2.578 L16.206,4.884 L8.663,4.884 C10.060,5.518 10.874,6.060 11.108,6.512 C11.339,6.966 11.457,7.281 11.457,7.461 C11.457,7.644 11.363,7.915 11.177,8.275 C10.990,8.638 10.710,8.865 10.339,8.954 C9.966,9.045 9.732,8.774 9.641,8.140 C9.453,7.597 9.244,7.078 9.012,6.580 C8.779,6.084 8.384,5.518 7.825,4.884 L5.730,4.884 C5.077,5.426 4.333,6.152 3.495,7.054 C2.563,8.051 1.492,9.000 0.283,9.903 L0.003,9.496 C1.212,8.231 2.399,6.739 3.565,5.019 C4.728,3.303 5.590,1.628 6.149,-0.000 L9.000,2.000 ZM6.000,14.000 C5.547,24.453 5.509,27.101 6.000,31.000 L3.000,32.000 C3.091,27.842 3.000,24.205 3.000,20.000 C3.000,15.794 3.091,12.448 3.000,11.000 L7.000,12.000 L6.000,14.000 ZM5.870,8.004 C8.011,9.089 9.244,9.882 9.571,10.378 C9.896,10.876 10.060,11.307 10.060,11.667 C10.060,11.938 9.966,12.256 9.781,12.616 C9.593,12.979 9.313,13.250 8.943,13.430 C8.569,13.613 8.336,13.386 8.244,12.752 C8.056,12.209 7.777,11.578 7.406,10.853 C7.033,10.130 6.429,9.361 5.590,8.547 L5.870,8.004 ZM10.000,28.000 C10.414,24.710 10.303,21.857 10.000,19.000 C9.700,16.173 10.099,14.276 10.000,13.000 L12.419,14.300 L18.781,14.300 L19.689,12.829 L22.909,14.784 L21.000,16.000 C21.000,21.788 20.856,25.300 21.697,26.406 L19.000,27.000 L19.000,26.000 L12.000,26.000 L12.419,27.393 L10.000,28.000 ZM21.000,28.000 C22.676,28.180 23.302,28.953 24.000,29.000 C24.698,29.044 24.627,29.089 25.000,29.000 C25.371,28.909 26.000,28.543 26.000,28.000 L26.000,11.000 L16.000,11.000 C15.253,11.000 14.023,11.729 13.000,12.000 L12.016,10.039 L26.262,10.039 L27.519,8.818 L29.475,10.717 L28.000,12.000 L28.000,29.000 C28.000,29.631 28.078,29.686 27.799,30.185 C27.519,30.680 25.659,31.562 24.450,32.016 C24.077,30.659 22.446,29.710 19.562,29.167 L21.000,28.000 ZM12.000,15.000 L12.000,19.000 L19.000,19.000 L19.000,15.000 L12.000,15.000 ZM12.000,20.000 L12.000,25.000 L19.000,25.000 L19.000,20.000 L12.000,20.000 ZM21.793,1.899 L20.536,2.442 L20.000,4.000 L27.000,4.000 L28.777,2.578 L31.011,4.884 L21.793,4.884 C23.469,5.698 24.377,6.264 24.516,6.580 C24.656,6.898 24.726,7.146 24.726,7.326 C24.726,7.508 24.678,7.712 24.586,7.936 C24.492,8.163 24.328,8.367 24.097,8.547 C23.864,8.729 23.700,8.818 23.608,8.818 C23.421,8.818 23.259,8.661 23.120,8.343 C22.980,8.027 22.816,7.553 22.631,6.919 C22.443,6.376 21.978,5.698 21.234,4.884 L18.860,4.884 C17.463,6.332 15.972,7.688 14.390,8.954 L13.971,8.547 C15.368,7.010 16.507,5.450 17.393,3.866 C18.277,2.285 18.905,1.041 19.279,0.136 L21.793,1.899 Z" class="cls-1"/>
</svg>
