<?xml version="1.0" encoding="iso-8859-1"?>
<!-- Generator: Adobe Illustrator 18.0.0, SVG Export Plug-In . SVG Version: 6.00 Build 0)  -->
<!DOCTYPE svg PUBLIC "-//W3C//DTD SVG 1.1//EN" "http://www.w3.org/Graphics/SVG/1.1/DTD/svg11.dtd">
<svg version="1.1" id="&#x56FE;&#x5C42;_1" xmlns="http://www.w3.org/2000/svg" xmlns:xlink="http://www.w3.org/1999/xlink" x="0px"
	 y="0px" viewBox="0 0 114 124" style="enable-background:new 0 0 114 124;" xml:space="preserve">
<path style="fill:#5B5C5C;" d="M32.351,7.881l-4.108,1.576l-5.135,6.305h22.594l5.649-5.78l8.216,8.932h-27.73
	c5.135,2.455,8.127,4.557,8.986,6.305c0.85,1.758,1.284,2.981,1.284,3.678c0,0.707-0.346,1.758-1.027,3.153
	c-0.691,1.404-1.718,2.283-3.081,2.627c-1.373,0.354-2.231-0.697-2.568-3.153c-0.691-2.101-1.461-4.112-2.311-6.042
	c-0.859-1.92-2.311-4.112-4.365-6.568h-7.703c-2.399,2.102-5.135,4.911-8.216,8.407C9.411,31.182,5.471,34.86,1.027,38.356L0,36.78
	c4.444-4.901,8.809-10.681,13.095-17.339c4.276-6.649,7.446-13.136,9.5-19.441L32.351,7.881z M20.39,52.544
	c0,37.831,0.168,60.425,0.514,67.779L11.811,124c0.336-16.105,0.514-32.313,0.514-48.601c0-16.289-0.177-27.232-0.514-32.839
	l11.297,5.254L20.39,52.544z M21.567,31c7.871,4.203,12.404,7.275,13.608,9.195c1.195,1.93,1.797,3.597,1.797,4.992
	c0,1.051-0.346,2.283-1.027,3.678c-0.691,1.404-1.718,2.455-3.081,3.153c-1.372,0.707-2.231-0.172-2.567-2.627
	c-0.691-2.102-1.718-4.547-3.081-7.356c-1.372-2.799-3.594-5.78-6.676-8.932L21.567,31z M37.85,109.516
	c0.365-12.535,0.557-24.304,0.557-35.326c0-11.012-0.192-18.989-0.557-23.931l7.796,5.128h23.388l3.341-5.698l11.836,7.571
	l-5.569,4.558c0,22.418,0.365,35.896,1.114,40.455l-11.279,3.824V100.4H45.646v5.698L37.85,109.516z M76,109.289
	c6.162,0.698,10.527,1.132,13.095,1.314c2.568,0.172,2.21,0.081,3.583-0.263c1.363-0.353,2.054-1.576,2.054-3.678V42.034H58.54
	c-2.745,0-5.994,0.526-9.757,1.576l-4.621-4.729H96.54l4.622-4.729l7.189,7.356l-4.622,3.153v65.679
	c0,2.446-0.514,4.638-1.541,6.568c-1.027,1.92-7.867,5.334-12.311,7.092c-1.372-5.253-7.366-8.931-17.973-11.033L76,109.289z
	 M45.646,58.805v17.093h22.831V58.805H45.646z M45.646,79.318v17.663h22.831V79.318H45.646z M80.108,7.356l-4.621,2.102
	l-4.622,6.305h29.213l5.706-5.78L114,18.915H80.108c6.162,3.153,9.5,5.345,10.013,6.568c0.514,1.232,0.77,2.193,0.77,2.89
	c0,0.707-0.177,1.495-0.513,2.365c-0.346,0.879-0.948,1.667-1.797,2.364c-0.859,0.707-1.461,1.051-1.798,1.051
	c-0.691,0-1.284-0.607-1.797-1.839c-0.513-1.223-1.116-3.062-1.797-5.517c-0.691-2.102-2.399-4.729-5.135-7.882h-8.73
	c-5.135,5.608-10.616,10.862-16.433,15.763l-1.541-1.576c5.135-5.952,9.323-11.994,12.581-18.127
	c3.249-6.124,5.56-10.943,6.932-14.449L80.108,7.356z"/>
</svg>
