<svg xmlns="http://www.w3.org/2000/svg" xmlns:xlink="http://www.w3.org/1999/xlink" preserveAspectRatio="xMidYMid" width="33" height="24" viewBox="0 0 33 24">
  <defs>
    <style>
      .cls-1 {
        fill: #000;
        fill-rule: evenodd;
      }
    </style>
  </defs>
  <path d="M31.253,20.987 C31.623,20.954 31.989,20.868 32.376,20.803 C32.590,21.433 32.797,22.044 33.004,22.655 C33.004,22.685 33.004,22.715 33.004,22.744 C31.957,23.381 30.795,23.600 29.585,23.628 C28.480,23.653 27.381,23.644 26.308,23.296 C25.516,23.040 24.931,22.595 24.721,21.799 C24.338,20.344 23.966,18.884 23.640,17.415 C22.502,12.284 21.389,7.147 20.254,2.014 C20.183,1.690 20.048,1.363 19.872,1.078 C19.572,0.589 19.006,0.452 18.544,0.796 C18.208,1.047 17.892,1.386 17.704,1.753 C16.568,3.969 15.474,6.205 14.361,8.432 C14.196,8.763 14.008,9.083 13.828,9.407 C13.315,10.326 11.903,10.412 11.328,9.629 C10.888,9.032 10.439,8.429 10.095,7.778 C9.038,5.771 8.036,3.735 6.994,1.720 C6.834,1.411 6.614,1.105 6.349,0.879 C5.716,0.339 4.853,0.546 4.599,1.323 C4.315,2.191 4.095,3.083 3.906,3.977 C2.798,9.204 1.104,15.772 -0.000,21.000 C-0.000,18.840 -0.000,16.160 -0.000,14.000 C0.016,13.780 -0.001,13.220 -0.000,13.000 C0.010,8.962 -0.008,4.038 -0.000,-0.000 C7.532,-0.000 16.468,-0.001 24.000,-0.000 C24.000,2.576 24.000,5.402 24.000,8.000 C25.679,7.757 27.306,7.245 29.000,7.000 C29.000,8.277 29.000,9.760 29.000,11.000 C30.750,11.000 32.230,11.000 33.000,11.000 C33.000,11.977 33.000,13.025 33.000,14.000 C31.874,14.000 30.456,14.027 29.312,14.027 C29.312,15.273 29.126,16.422 29.172,17.628 C29.199,18.346 29.293,19.073 29.462,19.771 C29.703,20.767 30.207,21.078 31.253,20.987 ZM-0.000,21.000 C0.086,20.832 -0.038,21.178 -0.000,21.000 ZM24.000,-0.000 C23.775,-0.012 24.176,0.000 24.000,-0.000 ZM2.845,14.295 C3.193,13.593 3.930,13.462 4.414,14.079 C4.942,14.751 5.336,15.525 5.769,16.266 C6.293,17.162 6.753,18.096 7.323,18.962 C7.729,19.577 8.332,20.037 9.157,19.821 C9.497,19.732 9.889,19.516 10.072,19.240 C10.562,18.502 10.973,17.710 11.378,16.921 C11.804,16.091 12.168,15.230 12.600,14.402 C12.761,14.094 13.003,13.806 13.266,13.571 C13.839,13.058 14.595,13.206 14.818,13.925 C15.167,15.052 15.450,16.201 15.694,17.354 C16.117,19.347 16.609,22.000 17.000,24.000 C11.616,24.000 5.400,24.000 -0.000,24.000 C0.544,21.316 1.812,18.269 2.367,15.626 C2.463,15.169 2.636,14.716 2.845,14.295 ZM17.000,24.000 C17.000,24.000 16.994,23.894 17.000,24.000 Z" class="cls-1"/>
</svg>
