<svg xmlns="http://www.w3.org/2000/svg" xmlns:xlink="http://www.w3.org/1999/xlink" preserveAspectRatio="xMidYMid" width="39.25" height="25.407" viewBox="0 0 39.25 25.407">
  <defs>
    <style>
      .cls-1 {
        fill: #000;
        fill-rule: evenodd;
      }
    </style>
  </defs>
  <path d="M35.404,6.550 C34.296,7.133 33.217,7.762 32.233,8.533 C31.582,9.043 30.980,9.598 30.569,10.321 C30.173,11.017 30.097,11.716 30.475,12.463 C31.096,13.693 31.574,14.978 31.855,16.325 C32.119,17.594 32.194,18.867 31.892,20.140 C31.461,21.959 30.361,23.291 28.718,24.216 C26.074,25.387 24.248,25.490 23.411,25.389 C21.077,25.144 20.084,24.850 19.615,24.714 C19.594,24.712 19.573,24.711 19.553,24.709 C18.905,24.651 18.407,24.598 17.937,24.537 C17.109,24.431 16.227,24.313 15.364,24.156 C15.235,24.132 15.103,24.111 14.975,24.091 C14.797,24.063 14.613,24.034 14.431,23.997 C14.209,23.952 13.985,23.902 13.768,23.854 C13.518,23.798 13.260,23.740 13.005,23.690 C11.568,23.407 10.140,23.061 8.761,22.662 C8.495,22.585 8.228,22.509 7.961,22.432 L7.585,22.324 C7.445,22.275 7.305,22.226 7.165,22.177 C6.861,22.072 6.548,21.963 6.242,21.847 C4.644,21.245 3.480,20.652 2.469,19.925 C1.404,19.158 0.683,18.318 0.266,17.354 C0.197,17.194 0.139,17.030 0.082,16.870 C0.057,16.798 0.031,16.725 0.004,16.653 L-0.006,16.625 L-0.006,15.978 L0.033,15.932 C0.071,15.887 0.093,15.825 0.118,15.754 C0.138,15.696 0.159,15.637 0.192,15.577 C0.419,15.154 0.720,14.783 1.012,14.425 L1.105,14.310 C1.148,14.256 1.192,14.202 1.236,14.149 C1.569,13.743 1.883,13.360 2.029,12.883 C2.071,12.747 2.110,12.606 2.147,12.469 C2.225,12.186 2.305,11.893 2.422,11.611 C2.905,10.447 3.585,9.327 4.440,8.283 C5.430,7.076 6.465,6.133 7.606,5.401 C7.955,5.177 8.331,5.001 8.694,4.831 C8.809,4.777 8.928,4.721 9.043,4.665 L9.107,4.634 L9.171,4.655 C9.181,4.653 9.206,4.643 9.222,4.636 C9.243,4.628 9.264,4.619 9.285,4.613 C9.318,4.602 9.351,4.592 9.384,4.582 C9.756,4.251 10.125,3.916 10.557,3.658 C11.316,3.205 12.124,2.841 12.934,2.484 C15.210,1.480 17.572,0.742 20.041,0.340 C20.911,0.198 21.785,0.095 22.664,0.036 C22.720,0.032 22.795,0.066 22.831,-0.013 C23.810,-0.013 24.789,-0.013 25.769,-0.013 C25.793,0.055 25.854,0.026 25.899,0.030 C26.111,0.048 26.324,0.063 26.539,0.078 C26.525,0.154 26.467,0.163 26.428,0.187 C26.068,0.420 25.704,0.646 25.345,0.880 C24.289,1.567 23.218,2.237 22.286,3.086 C21.975,3.370 21.689,3.677 21.506,4.058 C21.288,4.511 21.442,4.849 21.930,4.997 C22.270,5.100 22.623,5.117 22.968,5.053 C23.904,4.879 24.834,4.678 25.769,4.499 C27.980,4.074 30.204,3.732 32.459,3.622 C33.088,3.592 33.717,3.583 34.346,3.607 C35.713,3.660 37.055,3.837 38.337,4.328 C38.641,4.444 38.938,4.579 39.238,4.706 C39.238,4.719 39.238,4.731 39.238,4.743 C37.932,5.290 36.654,5.892 35.404,6.550 ZM28.872,15.296 C28.268,13.915 27.388,12.620 26.183,11.338 C24.732,9.794 22.972,8.489 20.952,7.458 C20.119,7.032 19.335,6.692 18.557,6.418 C17.565,6.070 16.530,5.787 15.528,5.515 L15.474,5.500 C15.357,5.468 15.240,5.436 15.123,5.404 C14.514,5.236 13.884,5.063 13.258,4.930 C12.449,4.757 11.769,4.677 11.119,4.677 C10.949,4.677 10.780,4.683 10.615,4.694 C10.193,4.724 9.782,4.803 9.394,4.930 C9.381,4.934 9.369,4.939 9.356,4.944 C9.310,4.963 9.246,4.989 9.169,4.989 C9.161,4.989 9.154,4.989 9.146,4.989 C9.045,5.038 8.942,5.086 8.843,5.132 C8.490,5.298 8.125,5.468 7.795,5.680 C6.685,6.393 5.675,7.313 4.709,8.491 C4.452,8.805 4.211,9.125 3.987,9.452 C4.048,9.443 4.107,9.439 4.163,9.436 L4.176,9.435 L4.193,9.436 C4.444,9.458 4.671,9.563 4.891,9.664 L4.948,9.690 C5.823,10.090 6.520,10.762 7.019,11.688 C7.666,12.884 7.908,14.190 8.047,15.194 C8.050,15.215 8.052,15.236 8.055,15.257 C8.060,15.306 8.066,15.353 8.077,15.392 C8.172,15.728 7.988,15.961 7.817,16.127 C7.678,16.263 7.515,16.335 7.348,16.335 C7.215,16.335 7.084,16.290 6.959,16.202 C6.747,16.051 6.531,15.850 6.530,15.496 C6.529,15.059 6.474,14.594 6.366,14.116 C6.135,13.080 5.799,12.360 5.277,11.783 C4.912,11.380 4.467,11.062 3.916,10.812 C3.756,10.739 3.616,10.547 3.542,10.297 C3.534,10.270 3.525,10.233 3.516,10.190 C3.218,10.694 2.959,11.211 2.740,11.736 C2.631,11.999 2.554,12.282 2.479,12.555 C2.441,12.694 2.402,12.838 2.358,12.979 C2.193,13.518 1.843,13.945 1.505,14.357 C1.461,14.410 1.418,14.463 1.375,14.516 L1.281,14.632 C0.987,14.995 0.708,15.337 0.496,15.732 C0.476,15.770 0.460,15.815 0.443,15.863 C0.417,15.935 0.389,16.016 0.337,16.093 L0.337,16.567 C0.361,16.631 0.384,16.696 0.407,16.761 C0.462,16.915 0.518,17.074 0.583,17.224 C0.981,18.143 1.645,18.916 2.673,19.656 C3.659,20.365 4.798,20.945 6.366,21.535 C6.668,21.649 6.979,21.758 7.280,21.862 C7.419,21.911 7.558,21.959 7.697,22.008 L8.059,22.112 C8.325,22.188 8.592,22.265 8.859,22.342 C9.678,22.579 10.515,22.796 11.360,22.994 L15.049,23.764 C15.173,23.784 15.300,23.804 15.427,23.827 C16.282,23.983 17.158,24.100 17.983,24.206 C18.447,24.266 18.941,24.318 19.584,24.376 C20.306,24.441 21.036,24.474 21.754,24.474 C22.126,24.474 22.503,24.465 22.873,24.448 C24.604,24.366 25.875,24.089 26.992,23.548 C28.454,22.839 29.335,21.674 29.609,20.085 C29.867,18.585 29.627,17.019 28.872,15.296 ZM24.203,16.685 C23.635,16.687 23.058,16.679 22.501,16.670 C22.362,16.668 22.223,16.666 22.084,16.664 C22.044,16.663 22.004,16.663 21.964,16.663 C20.723,16.663 19.461,16.934 18.107,17.491 C17.325,17.812 16.572,18.177 15.804,18.555 C15.331,18.788 14.949,18.920 14.566,18.983 C14.532,18.989 14.496,18.992 14.460,18.992 C14.151,18.992 13.855,18.789 13.771,18.519 C13.640,18.098 13.816,17.699 14.220,17.503 C15.114,17.069 16.064,16.740 16.982,16.422 L17.262,16.325 C17.841,16.124 18.440,15.915 19.069,15.831 C19.457,15.779 19.877,15.754 20.393,15.754 C20.698,15.754 21.010,15.763 21.285,15.770 C21.902,15.787 22.420,15.804 22.946,15.834 C23.592,15.871 24.223,15.918 24.843,16.094 C24.852,16.097 24.860,16.099 24.869,16.101 C24.943,16.120 25.067,16.152 25.148,16.294 L25.237,16.452 L25.069,16.527 C24.760,16.665 24.443,16.684 24.203,16.685 Z" class="cls-1"/>
</svg>
