<svg xmlns="http://www.w3.org/2000/svg" xmlns:xlink="http://www.w3.org/1999/xlink" preserveAspectRatio="xMidYMid" width="26.063" height="31.469" viewBox="0 0 26.063 31.469">
  <defs>
    <style>
      .cls-1 {
        fill: #000;
        fill-rule: evenodd;
      }
    </style>
  </defs>
  <path d="M23.062,15.022 C21.419,15.022 20.081,13.680 20.081,12.024 L20.081,7.518 L20.085,7.518 C20.092,5.882 21.421,4.533 23.059,4.533 C24.697,4.533 26.026,5.882 26.033,7.518 L26.042,7.518 L26.042,12.024 C26.042,13.680 24.704,15.022 23.062,15.022 ZM23.068,16.741 C24.722,16.741 26.063,18.083 26.063,19.739 C26.063,21.395 24.722,22.737 23.068,22.737 C21.413,22.737 20.072,21.395 20.072,19.739 C20.072,18.083 21.413,16.741 23.068,16.741 ZM13.126,31.476 C11.485,31.476 10.149,30.135 10.149,28.480 L10.149,19.438 L10.152,19.438 C10.160,17.803 11.487,16.455 13.124,16.455 C14.761,16.455 16.146,17.791 16.154,19.426 L16.154,19.679 L16.140,28.548 C16.140,30.203 14.768,31.476 13.126,31.476 ZM13.137,15.022 C11.495,15.022 10.157,13.680 10.157,12.024 L10.157,2.977 L10.161,2.977 C10.168,1.341 11.497,-0.008 13.135,-0.008 C14.773,-0.008 16.146,1.032 16.154,2.668 L16.154,3.684 L16.154,12.062 C16.154,13.718 14.780,15.022 13.137,15.022 ZM2.982,27.237 C1.339,27.237 0.002,25.894 0.002,24.238 L0.002,19.733 L0.006,19.733 C0.013,18.096 1.341,16.748 2.980,16.748 C4.618,16.748 5.946,18.096 5.954,19.733 L5.995,19.679 L5.995,24.250 C5.995,25.906 4.625,27.237 2.982,27.237 ZM2.988,15.037 C1.334,15.037 -0.007,13.694 -0.007,12.038 C-0.007,10.382 1.334,9.040 2.988,9.040 C4.642,9.040 5.983,10.382 5.983,12.038 C5.983,13.694 4.642,15.037 2.988,15.037 Z" class="cls-1"/>
</svg>
