<svg xmlns="http://www.w3.org/2000/svg" xmlns:xlink="http://www.w3.org/1999/xlink" preserveAspectRatio="xMidYMid" width="32" height="36" viewBox="0 0 32 36">
  <defs>
    <style>
      .cls-1 {
        fill: #000;
        fill-rule: evenodd;
      }
    </style>
  </defs>
  <path d="M20.930,32.095 C19.753,32.488 18.725,33.421 17.700,34.202 C17.107,34.655 16.657,35.305 16.033,35.986 C15.493,35.353 15.107,34.724 14.566,34.304 C13.552,33.517 12.537,32.572 11.367,32.180 C4.263,29.803 -0.473,22.871 0.043,15.378 C0.577,7.611 6.171,1.378 13.676,0.188 C21.689,-1.083 29.750,4.337 31.537,12.196 C33.542,21.013 29.024,29.396 20.930,32.095 ZM16.276,3.454 C9.222,3.245 3.331,9.068 3.126,16.454 C2.930,23.518 8.596,29.699 15.496,29.949 C22.583,30.206 28.719,24.492 28.944,17.426 C29.189,9.709 23.719,3.676 16.276,3.454 ZM15.965,26.621 C10.608,26.595 6.379,22.144 6.399,16.555 C6.418,11.145 10.846,6.639 16.056,6.728 C21.514,6.820 25.748,11.209 25.715,16.737 C25.681,22.286 21.378,26.648 15.965,26.621 ZM15.955,10.007 C12.393,10.086 9.532,13.143 9.577,16.824 C9.620,20.405 12.550,23.341 16.062,23.322 C19.701,23.303 22.505,20.381 22.481,16.634 C22.456,12.965 19.467,9.929 15.955,10.007 ZM16.075,19.995 C14.213,20.008 12.829,18.560 12.850,16.622 C12.869,14.876 14.362,13.305 16.019,13.286 C17.730,13.268 19.277,14.915 19.261,16.737 C19.245,18.585 17.878,19.982 16.075,19.995 Z" class="cls-1"/>
</svg>
