<svg xmlns="http://www.w3.org/2000/svg" xmlns:xlink="http://www.w3.org/1999/xlink" preserveAspectRatio="xMidYMid" width="32" height="31" viewBox="0 0 32 31">
  <defs>
    <style>
      .cls-1 {
        fill: #000;
        fill-rule: evenodd;
      }
    </style>
  </defs>
  <path d="M27.520,30.995 L4.467,30.995 C1.997,30.995 -0.005,29.055 -0.005,26.662 L-0.005,4.326 C-0.005,1.932 1.997,-0.007 4.467,-0.007 L27.520,-0.007 C29.990,-0.007 31.992,1.932 31.992,4.326 L31.992,26.662 C31.992,29.055 29.990,30.995 27.520,30.995 ZM28.000,9.000 C28.000,6.607 26.470,4.000 24.000,4.000 L8.000,4.000 C5.530,4.000 3.947,5.666 3.947,8.060 L3.947,22.905 C3.947,25.298 5.530,27.000 8.000,27.000 L23.000,27.000 C25.470,27.000 28.000,25.393 28.000,23.000 L28.000,9.000 ZM16.306,18.841 C15.818,19.347 15.507,19.424 14.971,18.879 C14.014,17.905 12.969,17.011 11.954,16.090 C11.600,15.770 11.508,15.514 11.887,15.094 C13.891,12.875 16.053,10.718 18.202,8.490 C18.585,8.152 18.845,8.122 19.212,8.128 C20.661,8.128 22.551,9.118 22.943,10.823 C23.162,11.778 23.107,12.402 22.303,13.155 C20.265,15.062 18.291,16.780 16.306,18.841 ZM10.472,20.965 C9.998,21.062 9.928,20.952 10.021,20.593 C10.397,19.122 10.619,17.722 10.992,16.260 C12.417,17.591 13.717,18.806 15.157,20.151 C13.466,20.444 11.960,20.660 10.472,20.965 Z" class="cls-1"/>
</svg>
