<svg xmlns="http://www.w3.org/2000/svg" xmlns:xlink="http://www.w3.org/1999/xlink" preserveAspectRatio="xMidYMid" width="30" height="28.031" viewBox="0 0 30 28.031">
  <defs>
    <style>
      .cls-1 {
        fill: #000;
        fill-rule: evenodd;
      }
    </style>
  </defs>
  <path d="M29.488,6.816 C29.307,2.402 25.763,0.148 21.272,0.087 C16.286,0.019 11.456,-0.052 6.474,0.087 C3.140,0.180 1.069,1.334 0.344,4.534 C0.144,5.414 0.073,6.463 -0.000,6.600 C-0.000,12.335 0.128,16.417 0.128,22.152 C1.105,24.736 2.708,26.724 5.576,27.396 C6.486,27.609 8.309,27.992 9.249,28.000 C15.513,28.054 19.631,27.954 25.896,28.000 C26.832,27.716 29.054,27.909 30.001,27.970 C29.113,20.885 29.776,13.840 29.488,6.816 ZM11.000,13.000 C10.988,13.000 11.012,14.000 11.000,14.000 C11.000,14.767 11.042,15.235 11.000,16.000 C10.935,17.178 10.145,17.870 9.000,18.000 C8.060,18.107 6.984,17.053 7.000,16.000 C7.028,14.206 6.974,13.136 7.000,11.000 C7.014,9.879 7.769,8.904 9.000,9.000 C10.058,9.082 10.936,9.878 11.000,11.000 C11.043,11.765 11.000,12.233 11.000,13.000 ZM23.000,13.000 C23.019,12.437 23.012,13.000 23.000,13.000 C23.000,13.767 23.042,15.235 23.000,16.000 C22.935,17.178 22.145,17.870 21.000,18.000 C20.060,18.107 19.016,17.053 19.000,16.000 C18.973,14.206 18.860,12.795 19.000,11.000 C19.087,9.882 19.769,8.904 21.000,9.000 C22.058,9.082 22.936,9.878 23.000,11.000 C23.043,11.765 23.000,12.233 23.000,13.000 Z" class="cls-1"/>
</svg>
