<?xml version="1.0" encoding="iso-8859-1"?>
<!-- Generator: Adobe Illustrator 18.0.0, SVG Export Plug-In . SVG Version: 6.00 Build 0)  -->
<!DOCTYPE svg PUBLIC "-//W3C//DTD SVG 1.1//EN" "http://www.w3.org/Graphics/SVG/1.1/DTD/svg11.dtd">
<svg version="1.1" id="&#x56FE;&#x5C42;_1" xmlns="http://www.w3.org/2000/svg" xmlns:xlink="http://www.w3.org/1999/xlink" x="0px"
	 y="0px" viewBox="0 0 595.28 841.89" style="enable-background:new 0 0 595.28 841.89;" xml:space="preserve">
<path style="fill:#5B5C5C;" d="M136.792,334.37c0,38.791-30.625,70.231-68.399,70.231C30.619,404.607,0,373.161,0,334.37
	s30.619-70.231,68.399-70.231C106.173,264.139,136.792,295.584,136.792,334.37z"/>
<path style="fill:#5B5C5C;" d="M595.28,514.765c0,38.791-30.619,70.231-68.399,70.231c-37.774,0-68.393-31.446-68.393-70.231
	c0-38.791,30.619-70.231,68.393-70.231C564.661,444.534,595.28,475.974,595.28,514.765z"/>
<path style="fill:#5B5C5C;" d="M369.01,507.419c-0.161-38.298-31.803-69.583-69.178-69.583s-67.685,31.577-67.846,69.874h-0.083
	v211.805c0,38.767,30.518,70.189,67.989,70.189s68.809-29.828,68.809-68.589l0.315-207.749v-5.948H369.01z"/>
<path style="fill:#5B5C5C;" d="M369.01,114.868c-0.161-38.321-31.517-62.683-68.922-62.683s-67.745,31.594-67.905,69.922h-0.083
	v211.936c0,38.791,30.542,70.231,68.048,70.231s68.869-30.554,68.869-69.339V138.659v-23.791H369.01z"/>
<path style="fill:#5B5C5C;" d="M594.596,228.494c-0.161-38.327-30.5-69.922-67.905-69.922c-37.405,0-67.745,31.594-67.905,69.922
	h-0.083v105.555c0,38.791,30.542,70.231,68.048,70.231c37.507,0,68.048-31.446,68.048-70.231V228.494H594.596z"/>
<path style="fill:#5B5C5C;" d="M136.108,514.61c-0.167-38.327-30.5-69.922-67.905-69.922S0.458,476.283,0.297,514.61H0.214v105.555
	c0,38.791,30.542,70.231,68.048,70.231s68.792-31.178,68.792-69.969V513.367L136.108,514.61z"/>
<path style="fill:#5B5C5C;" d="M367.993,122.106c-0.161-38.327-30.5-69.922-67.905-69.922s-67.745,31.594-67.905,69.922h-0.083
	v211.936c0,38.791,30.542,70.231,68.048,70.231s68.869-30.554,68.869-69.339l-0.821-212.834h-0.202V122.106z"/>
<path style="fill:#5B5C5C;" d="M367.993,122.106c-0.161-38.327-30.5-69.922-67.905-69.922s-67.745,31.594-67.905,69.922h-0.083
	v211.936c0,38.791,30.542,70.231,68.048,70.231s68.869-30.554,68.869-69.339l-0.821-212.834h-0.202V122.106z"/>
</svg>
