<svg xmlns="http://www.w3.org/2000/svg" xmlns:xlink="http://www.w3.org/1999/xlink" preserveAspectRatio="xMidYMid" width="32" height="31" viewBox="0 0 32 31">
  <defs>
    <style>
      .cls-1 {
        fill: #000;
        fill-rule: evenodd;
      }
    </style>
  </defs>
  <path d="M22.000,31.000 L1.000,31.000 C1.000,25.223 7.468,16.615 10.000,16.000 L8.468,23.855 L17.582,23.855 L26.000,15.000 C30.349,10.617 31.053,5.067 31.806,0.991 L32.000,1.000 L32.000,22.000 C32.000,27.155 27.308,31.000 22.000,31.000 ZM18.911,5.701 L10.000,14.000 C7.468,14.614 -0.000,24.223 -0.000,30.000 L-0.000,11.000 C-0.000,5.405 5.239,-0.000 11.000,-0.000 L31.000,-0.000 C30.016,4.076 30.580,7.749 26.000,13.000 L18.911,5.701 Z" class="cls-1"/>
</svg>
