<?xml version="1.0" encoding="iso-8859-1"?>
<!-- Generator: Adobe Illustrator 18.0.0, SVG Export Plug-In . SVG Version: 6.00 Build 0)  -->
<!DOCTYPE svg PUBLIC "-//W3C//DTD SVG 1.1//EN" "http://www.w3.org/Graphics/SVG/1.1/DTD/svg11.dtd">
<svg version="1.1" id="&#x56FE;&#x5C42;_1" xmlns="http://www.w3.org/2000/svg" xmlns:xlink="http://www.w3.org/1999/xlink" x="0px"
	 y="0px" viewBox="0 0 110.111 123.374" style="enable-background:new 0 0 110.111 123.374;" xml:space="preserve">
<path style="fill:#5B5C5C;" d="M75.501,0c1.247,0.203,2.507,0.347,3.74,0.618c4.332,0.954,8.211,2.872,11.634,5.683
	c2.246,1.844,3.163,4.248,2.513,7.097c-0.584,2.561-2.222,4.286-4.749,5.023c-2.389,0.697-4.55,0.168-6.512-1.405
	c-2.486-1.993-5.246-3.372-8.554-3.077c-2.803,0.25-5.484,3.199-5.243,5.832c0.108,1.178,0.529,2.329,0.828,3.487
	c0.529,2.047,1.073,4.089,1.611,6.133c0.093,0.353,0.179,0.634,0.672,0.661c7.535,0.412,14.323,2.862,20.373,7.408
	c5.948,4.47,10.818,9.833,14.082,16.573c2.395,4.946,3.738,10.169,4.093,15.652c0.472,7.285-0.384,14.413-3.22,21.144
	c-6.591,15.638-18.187,25.724-34.488,30.362c-6.203,1.765-12.56,2.454-18.995,2.089c-13.374-0.761-24.96-5.814-34.721-14.95
	c-9.63-9.012-15.634-20.092-17.723-33.1C-2,57.538,2.359,41.674,13.887,27.917c6.333-7.557,14.235-13.003,23.45-16.519
	c3.176-1.212,6.652-0.084,8.395,2.69c1.78,2.832,1.363,6.476-1.104,8.732c-0.697,0.637-1.577,1.14-2.457,1.499
	C28.122,30.055,18.84,40.156,15.154,54.887c-3.576,14.294-0.414,27.376,8.717,38.903c5.724,7.226,13.118,12.079,22.068,14.462
	c5.785,1.54,11.629,1.641,17.522,0.73c6.079-0.94,11.756-2.939,16.848-6.425c7.007-4.797,11.998-11.195,14.494-19.331
	c2.156-7.027,2.23-14.12-0.434-21.093c-2.144-5.612-5.932-9.93-10.684-13.491c-2.539-1.902-5.265-3.389-8.373-4.117
	c-0.141-0.033-0.285-0.049-0.542-0.091c0.424,1.627,0.819,3.171,1.227,4.711c0.985,3.716,1.993,7.427,2.962,11.148
	c2.105,8.087,0.069,15.172-5.5,21.21c-5.151,5.584-11.709,8.013-19.232,7.285c-8.375-0.811-14.353-5.356-18.254-12.715
	c-2.043-3.854-2.924-8.007-3.087-12.353c-0.259-6.92,1.356-13.309,5.32-19.019c4.257-6.134,10.155-10.069,17.122-12.515
	c0.548-0.192,1.103-0.368,1.746-0.581c-0.374-1.423-0.766-2.812-1.103-4.215c-0.464-1.929-1.061-3.847-1.294-5.807
	c-0.691-5.794,1.088-10.835,5.091-15.054c3.278-3.455,7.255-5.646,12.018-6.301C72.311,0.156,72.834,0.076,73.357,0
	C74.072,0,74.786,0,75.501,0z M60.627,44.985c-4.126,1.311-7.689,3.312-10.359,6.644c-3.575,4.461-4.288,9.585-3.147,15.032
	c0.592,2.827,1.975,5.248,4.402,6.937c3.035,2.112,7.168,2.021,10.342-0.176c3.244-2.246,4.688-5.869,3.74-9.585
	c-1.038-4.07-2.142-8.124-3.216-12.186C61.81,49.464,61.233,47.277,60.627,44.985z"/>
</svg>
