<?xml version="1.0" encoding="iso-8859-1"?>
<!-- Generator: Adobe Illustrator 18.0.0, SVG Export Plug-In . SVG Version: 6.00 Build 0)  -->
<!DOCTYPE svg PUBLIC "-//W3C//DTD SVG 1.1//EN" "http://www.w3.org/Graphics/SVG/1.1/DTD/svg11.dtd">
<svg version="1.1" id="&#x56FE;&#x5C42;_1" xmlns="http://www.w3.org/2000/svg" xmlns:xlink="http://www.w3.org/1999/xlink" x="0px"
	 y="0px" viewBox="0 0 90.681 118.691" style="enable-background:new 0 0 90.681 118.691;" xml:space="preserve">
<path style="fill-rule:evenodd;clip-rule:evenodd;fill:#5B5C5C;" d="M51.249,81.27c2.183,9.226,11.838,6.207,13.038,16.839
	c0.893,7.927-4.741,20.227-10.709,18.71c-8.277-2.104,3.223-10.344,3.259-14.5c0.019-2.131-1.728-6.588-6.519-6.08
	c-6.469,0.683-4.999,10.933-7.449,15.903c-1.558,3.161-4.805,6.622-8.381,6.549c-1.944-0.04-4.735-1.059-5.121-3.742
	c-0.803-5.572,4.539-4.614,7.915-10.291c2.24-3.768,3.903-12.507-0.465-13.564c-5.021-1.215-5.646,4.179-7.916,10.292
	c-1.864,5.018-4.721,9.516-8.381,9.822c-3.566,0.296-5.914-1.087-6.052-4.211c-0.181-4.059,8.804-8.876,8.846-13.564
	c0.016-1.782-0.682-4.553-3.259-5.146c-6.995-1.61-5.382,6.925-7.916,9.357c-10.494-0.837-1.486-14.854,3.725-16.841
	c4.568-1.741,9.577,0.551,11.64-3.742c-1.525-4.049-6.171-4.484-9.312-6.548c-8.001-5.256-17.543-16.033-18.159-29
	C-0.881,22.232,17.116,8.767,36.351,6.897c8.571-0.833,17.165,1.538,24.212,1.871c0.21-0.352,1.402-1.424,1.396-1.403
	c1.184-4.013-3.126-5.524-3.725-7.016c3.6-0.914,10.179-0.098,12.572,3.274c2.12,2.988,0.993,7.329,2.328,10.291
	c1.457,3.231,5.027,4.275,6.984,6.08c8.484,7.823,14.162,25.178,7.915,37.888c-3.314,6.743-9.059,11.452-15.364,14.968
	C66.442,76.321,59.031,77.269,51.249,81.27z M58.233,21.398c-4.13-3.074-10.121-4.587-16.761-3.742
	c-5.326,0.677-12.849,3.512-12.571,8.419c7.242-0.074,9.275-4.027,15.83-4.209c3.475-0.096,7.751,1.251,9.777,2.807
	c4.03,3.092,6.54,13.312,11.174,10.758C67.011,31.126,62.54,24.602,58.233,21.398z M20.055,53.204
	c8.014,9.455,39.68,20.392,49.353,5.613c1.108-1.69,1.894-4.394,1.864-6.081c-0.208-11.076-15.65-9.476-26.074-11.694
	c-8.75-1.862-17.943-7.038-25.608-4.209C12.87,39.313,17.179,49.811,20.055,53.204z"/>
</svg>
