<svg xmlns="http://www.w3.org/2000/svg" xmlns:xlink="http://www.w3.org/1999/xlink" preserveAspectRatio="xMidYMid" width="32.31" height="30.437" viewBox="0 0 32.31 30.437">
  <defs>
    <style>
      .cls-1 {
        fill: #000;
        fill-rule: evenodd;
      }
    </style>
  </defs>
  <path d="M32.235,9.129 C32.088,9.671 31.518,10.037 30.968,9.973 C30.326,9.898 29.875,9.422 29.866,8.764 C29.854,7.848 29.682,6.968 29.276,6.144 C28.214,3.989 26.457,2.747 24.033,2.406 C23.777,2.370 23.516,2.370 23.257,2.360 C22.557,2.335 22.054,1.821 22.067,1.139 C22.079,0.500 22.617,-0.004 23.300,-0.001 C24.982,0.007 26.550,0.425 27.976,1.296 C30.262,2.694 31.656,4.697 32.159,7.282 C32.232,7.656 32.254,8.040 32.308,8.486 C32.290,8.660 32.296,8.903 32.235,9.129 ZM27.336,8.319 C27.348,8.441 27.362,8.563 27.375,8.685 C27.380,9.332 26.951,9.862 26.352,9.940 C25.705,10.024 25.136,9.667 24.983,9.068 C24.942,8.909 24.941,8.740 24.924,8.575 C24.829,7.654 24.058,6.942 23.107,6.896 C22.465,6.866 22.034,6.590 21.858,6.098 C21.577,5.316 22.173,4.518 23.039,4.516 C25.209,4.509 27.135,6.213 27.336,8.319 ZM30.870,20.156 C30.941,20.530 30.868,20.776 30.870,21.156 C30.879,23.402 30.866,25.910 30.870,28.156 C30.871,28.820 30.426,29.761 29.870,30.156 C29.319,30.547 29.509,30.454 28.870,30.156 C28.230,29.858 27.562,29.005 27.498,28.334 C27.481,28.155 27.496,27.973 27.496,27.777 C27.055,27.974 26.649,28.182 26.224,28.341 C21.931,29.944 17.080,27.267 16.287,22.864 C15.578,18.928 18.053,15.299 22.051,14.413 C26.063,13.524 30.127,16.221 30.870,20.156 ZM21.653,20.138 C21.487,19.411 21.190,18.735 20.608,18.220 C19.954,17.642 19.160,17.656 18.518,18.246 C18.184,18.554 17.941,18.924 17.774,19.337 C17.169,20.830 17.165,22.332 17.743,23.832 C17.916,24.280 18.172,24.686 18.542,25.014 C19.181,25.581 19.968,25.603 20.593,25.022 C20.860,24.774 21.086,24.463 21.262,24.144 C21.693,23.366 21.820,22.511 21.845,21.398 C21.807,21.133 21.766,20.628 21.653,20.138 ZM10.171,19.153 C8.055,19.567 6.050,19.226 4.180,18.165 C4.130,18.136 4.079,18.108 3.984,18.054 C3.984,18.178 3.984,18.263 3.984,18.348 C3.983,21.584 3.984,24.819 3.982,28.055 C3.981,28.990 3.435,29.743 2.580,30.002 C1.309,30.386 0.055,29.500 -0.009,28.170 C-0.012,28.105 -0.011,28.040 -0.011,27.975 C-0.012,22.378 -0.025,16.781 -0.009,11.184 C-0.000,8.145 1.292,5.728 3.909,4.066 C8.910,0.889 15.691,3.717 16.831,9.422 C17.727,13.908 14.765,18.254 10.171,19.153 ZM15.282,8.778 C15.072,8.070 14.746,7.415 14.176,6.907 C13.483,6.290 12.656,6.292 11.959,6.901 C11.606,7.209 11.352,7.589 11.151,8.004 C10.675,8.981 10.513,10.023 10.494,11.094 C10.474,11.097 10.454,11.100 10.434,11.103 C10.540,11.778 10.608,12.462 10.762,13.127 C10.952,13.945 11.295,14.707 11.945,15.292 C12.655,15.931 13.510,15.917 14.211,15.270 C14.583,14.927 14.853,14.513 15.045,14.055 C15.770,12.325 15.810,10.561 15.282,8.778 Z" class="cls-1"/>
</svg>
