<svg xmlns="http://www.w3.org/2000/svg" xmlns:xlink="http://www.w3.org/1999/xlink" preserveAspectRatio="xMidYMid" width="34.031" height="34" viewBox="0 0 34.031 34">
  <defs>
    <style>
      .cls-1 {
        fill: #000;
        fill-rule: evenodd;
      }
    </style>
  </defs>
  <path d="M33.522,12.391 C32.748,12.772 31.539,11.944 30.823,10.542 C30.106,9.139 30.141,7.876 30.915,7.494 C31.690,7.113 32.616,7.813 33.332,9.216 C34.048,10.619 34.297,12.010 33.522,12.391 ZM29.155,7.334 C28.188,7.597 26.771,6.875 24.975,5.541 C19.953,1.810 18.872,1.372 19.472,0.226 C20.013,-0.807 27.794,2.009 29.365,3.497 C31.048,5.091 30.253,7.035 29.155,7.334 ZM22.515,4.459 C25.944,6.398 25.513,8.034 21.555,8.034 L6.873,8.034 C2.916,8.034 2.484,6.398 5.914,4.459 L7.979,3.292 C9.694,2.322 11.954,1.838 14.214,1.838 C16.475,1.838 18.735,2.322 20.450,3.292 L22.515,4.459 ZM21.869,9.448 C21.869,9.448 29.725,9.514 22.841,12.832 L6.215,22.304 C5.220,22.871 4.278,23.139 3.442,23.139 C1.401,23.139 -0.008,21.542 -0.008,18.786 L-0.008,16.350 C-0.008,12.465 3.230,9.448 7.187,9.448 L21.869,9.448 ZM7.075,24.182 L23.577,14.346 C24.705,13.704 25.465,13.278 26.074,13.278 C27.314,13.278 27.410,14.543 26.086,16.801 L18.732,29.338 C17.404,31.602 14.970,32.872 12.475,32.872 C11.259,32.872 10.029,32.570 8.906,31.935 L6.840,30.767 C3.411,28.829 3.652,26.132 7.075,24.182 ZM26.975,18.145 C27.870,16.620 28.280,15.873 28.910,15.873 C31.157,15.822 30.772,21.927 30.772,21.927 C30.772,32.891 17.406,35.948 19.012,32.876 C20.942,29.186 26.975,18.145 26.975,18.145 Z" class="cls-1"/>
</svg>
