<?xml version="1.0" encoding="utf-8"?>
<!-- Generator: Adobe Illustrator 18.0.0, SVG Export Plug-In . SVG Version: 6.00 Build 0)  -->
<!DOCTYPE svg PUBLIC "-//W3C//DTD SVG 1.1//EN" "http://www.w3.org/Graphics/SVG/1.1/DTD/svg11.dtd">
<svg version="1.1" id="图层_1" xmlns="http://www.w3.org/2000/svg" xmlns:xlink="http://www.w3.org/1999/xlink" x="0px" y="0px"
	 viewBox="0 0 595.3 841.9" enable-background="new 0 0 595.3 841.9" xml:space="preserve">
<path fill="#5B5C5C" d="M14.1,525.8c-2.3-6.7-4.9-13.3-7-20.1c-7-23.4-9.9-47.4-3.8-71.3c13.3-51.7,45-85.9,98-98
	c34.1-7.8,67.6-4.3,100.3,7.6c28.2,10.2,53.9,25,78.6,41.8c28,19.1,54.2,40.4,80.1,62.1c18,15.1,35.2,31.1,53.2,46.3
	c28.3,23.9,67.9,22,93.6-4.1c22.4-22.7,24.4-60.7,4.6-86.2c-13.4-17.3-31.5-27.1-52.6-31.8c-22.8-5.2-45.8-7.7-69.2-7.6
	c-0.6,0-1.1,0-2-0.1c-0.2-2.1-0.4-4.2-0.7-6.2c-3.6-22.1-16.7-37.4-35.5-48.3c-31.8-18.5-75.2-15.7-104.5,6.4
	c-7.5,5.7-13.5,12.7-18.4,20.7c-6.9-2.6-13.6-5.4-20.4-7.8c-6.9-2.3-13.9-4.2-21.8-6.5c3.1-6.3,5.7-12.6,9.1-18.4
	c10.3-17.5,24.9-30.9,42.7-40.3c39.7-20.9,81-23.7,122.9-7.7c29.1,11.1,51,30.6,63.1,60c0.1,0.2,0.2,0.4,0.6,1c11,0,22.4-1,33.5,0.2
	c23.4,2.4,44.9,11,64.9,23.2c23,13.9,42,31.9,55.3,55.5c13.2,23.3,18.1,48.3,16,75c-1.8,22.2-7.4,43.2-19.3,62.2
	c-13.9,22.3-33.6,38.1-57.4,48.8c-24.9,11.2-51.1,13.8-78,12.7c-35.3-1.4-66.1-14.5-94.1-35c-27.6-20.2-54.8-41.1-82.3-61.4
	c-26.1-19.3-52.7-37.8-81.4-53.2c-19.6-10.5-39.9-19-61.7-23.8C72.6,410.8,35,440,20.4,470.2c-7.8,16.1-9.4,33.2-5.9,50.8
	c0.3,1.5,0.6,3,0.8,4.6C14.9,525.6,14.5,525.7,14.1,525.8z"/>
<path fill="#5B5C5C" d="M79.1,447.1c-1.9,4.7-3.9,8.8-5.1,13.2c-6.1,21.3-1,40.2,13.4,56.5c14.2,16.1,32.6,24.6,53.8,27.4
	c22.1,2.9,42.9-0.8,62.5-11.7c3.5-1.9,8.2-1.7,12.4-2.3c17.4-2.3,34.8-4.4,52.2-6.6c0.7-0.1,1.3-0.1,2.6-0.1c-0.9,2.2-1.5,4.2-2.4,6
	c-11.3,24.2-30,40.9-53.7,52.3c-24.7,12-50.9,15.6-78,13.6c-18-1.3-35.5-4.5-51.9-12.3c-27.6-13-45.6-34.6-51.5-64.3
	c-4.4-22.4,0.8-43.7,16.6-61.3c5.4-6,13-8.1,20.7-9.5C73.3,447.5,76.1,447.4,79.1,447.1z"/>
</svg>
