<svg xmlns="http://www.w3.org/2000/svg" xmlns:xlink="http://www.w3.org/1999/xlink" preserveAspectRatio="xMidYMid" width="32" height="31" viewBox="0 0 32 31">
  <defs>
    <style>
      .cls-1 {
        fill: #000;
        fill-rule: evenodd;
      }
    </style>
  </defs>
  <path d="M15.989,0.008 C23.598,0.035 29.936,5.104 31.585,11.938 C31.902,13.250 32.058,14.578 32.015,15.923 C31.924,18.740 31.117,21.353 29.565,23.744 C29.489,23.860 29.458,23.974 29.469,24.110 C29.586,25.576 29.883,27.534 30.000,29.000 C30.022,29.277 30.284,29.017 30.000,29.000 C29.389,28.962 28.338,28.698 27.728,28.659 C26.940,28.609 26.150,28.571 25.366,28.487 C24.870,28.434 24.497,28.626 24.097,28.865 C22.856,29.607 21.510,30.124 20.102,30.484 C18.350,30.932 16.570,31.095 14.765,30.955 C7.691,30.407 1.849,25.467 0.417,18.878 C-0.822,13.182 0.790,8.250 5.097,4.195 C7.365,2.061 10.126,0.791 13.243,0.251 C14.167,0.091 15.097,0.028 15.989,0.008 ZM24.397,15.467 C24.373,14.895 24.309,14.296 24.172,13.702 C23.851,12.298 23.170,11.078 22.181,10.019 C21.598,9.394 20.912,8.886 20.154,8.464 C18.909,7.769 17.563,7.445 16.142,7.395 C15.547,7.375 14.953,7.448 14.368,7.562 C12.791,7.869 11.419,8.565 10.247,9.625 C9.420,10.373 8.786,11.252 8.341,12.268 C7.906,13.259 7.684,14.290 7.640,15.356 C7.611,16.049 7.719,16.737 7.888,17.412 C8.310,19.092 9.193,20.501 10.548,21.634 C11.378,22.328 12.308,22.850 13.347,23.185 C14.006,23.398 14.683,23.517 15.377,23.582 C16.032,23.643 16.674,23.598 17.314,23.508 C18.289,23.370 19.209,23.055 20.074,22.594 C20.161,22.547 20.253,22.507 20.352,22.530 C20.558,22.576 20.768,22.558 20.975,22.574 C21.820,22.641 22.664,22.716 23.509,22.785 C23.578,22.791 23.671,22.808 23.660,22.686 C23.602,22.047 23.575,21.405 23.525,20.766 C23.503,20.480 23.496,20.191 23.463,19.904 C23.431,19.627 23.385,19.332 23.533,19.052 C24.121,17.938 24.366,16.744 24.397,15.467 Z" class="cls-1"/>
</svg>
