<?xml version="1.0" encoding="iso-8859-1"?>
<!-- Generator: Adobe Illustrator 18.0.0, SVG Export Plug-In . SVG Version: 6.00 Build 0)  -->
<!DOCTYPE svg PUBLIC "-//W3C//DTD SVG 1.1//EN" "http://www.w3.org/Graphics/SVG/1.1/DTD/svg11.dtd">
<svg version="1.1" id="&#x56FE;&#x5C42;_1" xmlns="http://www.w3.org/2000/svg" xmlns:xlink="http://www.w3.org/1999/xlink" x="0px"
	 y="0px" viewBox="0 0 122.648 122.693" style="enable-background:new 0 0 122.648 122.693;" xml:space="preserve">
<path style="fill:#5B5C5C;" d="M61.219,0c29.152,0.11,53.436,20.173,59.755,47.224c1.213,5.193,1.813,10.45,1.647,15.773
	c-0.347,11.153-3.441,21.494-9.386,30.958c-0.291,0.463-0.41,0.914-0.368,1.451c0.448,5.801,0.881,11.604,1.329,17.406
	c0.085,1.097,0.11,1.067-0.979,0.998c-2.34-0.148-4.683-0.245-7.022-0.399c-3.019-0.198-6.045-0.348-9.05-0.679
	c-1.898-0.209-3.33,0.549-4.861,1.494c-4.756,2.937-9.91,4.984-15.309,6.41c-6.709,1.772-13.532,2.418-20.448,1.864
	c-27.105-2.17-49.486-21.724-54.975-47.803c-4.745-22.547,1.43-42.071,17.933-58.12c8.689-8.45,19.27-13.476,31.211-15.615
	C54.235,0.328,57.801,0.081,61.219,0z M93.433,61.195c-0.092-2.265-0.339-4.636-0.86-6.989c-1.231-5.555-3.842-10.385-7.629-14.577
	c-2.236-2.475-4.864-4.484-7.768-6.157c-4.768-2.748-9.927-4.034-15.371-4.229c-2.278-0.081-4.554,0.206-6.798,0.658
	c-6.042,1.216-11.297,3.971-15.788,8.167c-3.171,2.963-5.597,6.442-7.305,10.463c-1.666,3.924-2.516,8.003-2.685,12.223
	c-0.11,2.744,0.303,5.466,0.951,8.136c1.617,6.652,4.998,12.228,10.19,16.713c3.182,2.749,6.743,4.816,10.727,6.142
	c2.525,0.841,5.117,1.313,7.779,1.57c2.506,0.242,4.968,0.066,7.42-0.293c3.738-0.547,7.262-1.792,10.575-3.618
	c0.335-0.185,0.686-0.343,1.064-0.255c0.791,0.185,1.594,0.113,2.39,0.178c3.237,0.264,6.472,0.56,9.708,0.834
	c0.264,0.022,0.619,0.092,0.576-0.391c-0.221-2.531-0.325-5.07-0.515-7.6c-0.085-1.131-0.113-2.275-0.239-3.411
	c-0.122-1.1-0.297-2.267,0.268-3.372C92.377,70.976,93.315,66.249,93.433,61.195z"/>
</svg>
