<svg xmlns="http://www.w3.org/2000/svg" xmlns:xlink="http://www.w3.org/1999/xlink" preserveAspectRatio="xMidYMid" width="35.969" height="20.593" viewBox="0 0 35.969 20.593">
  <defs>
    <style>
      .cls-1 {
        fill: #000;
        fill-rule: evenodd;
      }
    </style>
  </defs>
  <path d="M35.938,13.260 C35.832,14.570 35.488,15.804 34.772,16.924 C33.928,18.240 32.741,19.170 31.298,19.802 C29.794,20.461 28.209,20.613 26.581,20.552 C24.447,20.471 22.584,19.695 20.891,18.486 C19.221,17.294 17.577,16.068 15.913,14.868 C14.335,13.730 12.724,12.639 10.991,11.733 C9.808,11.114 8.582,10.613 7.261,10.330 C4.366,9.709 2.095,11.427 1.210,13.210 C0.738,14.160 0.643,15.167 0.851,16.202 C0.869,16.291 0.884,16.381 0.901,16.470 C0.877,16.475 0.854,16.480 0.830,16.485 C0.688,16.090 0.531,15.700 0.408,15.299 C-0.013,13.919 -0.192,12.505 0.178,11.100 C0.981,8.054 2.898,6.038 6.101,5.327 C8.160,4.870 10.185,5.073 12.165,5.774 C13.869,6.376 15.425,7.246 16.916,8.237 C18.607,9.360 20.192,10.617 21.760,11.894 C22.851,12.782 23.891,13.728 24.977,14.622 C26.688,16.032 29.082,15.919 30.636,14.380 C31.989,13.040 32.113,10.805 30.916,9.301 C30.104,8.280 29.010,7.706 27.739,7.425 C26.362,7.121 24.967,6.973 23.555,6.975 C23.522,6.976 23.488,6.972 23.436,6.970 C23.422,6.847 23.413,6.724 23.393,6.603 C23.175,5.299 22.384,4.398 21.250,3.754 C19.327,2.662 16.705,2.827 14.929,4.134 C14.475,4.468 14.115,4.883 13.815,5.356 C13.398,5.199 12.994,5.034 12.581,4.897 C12.166,4.760 11.742,4.651 11.265,4.512 C11.452,4.139 11.607,3.768 11.813,3.428 C12.438,2.396 13.317,1.609 14.397,1.055 C16.798,-0.177 19.291,-0.339 21.825,0.602 C23.585,1.257 24.907,2.407 25.639,4.139 C25.644,4.151 25.653,4.161 25.676,4.195 C26.342,4.195 27.029,4.139 27.703,4.207 C29.116,4.351 30.414,4.856 31.624,5.572 C33.013,6.394 34.164,7.454 34.970,8.842 C35.768,10.215 36.066,11.691 35.938,13.260 ZM4.247,11.900 C4.410,11.871 4.578,11.863 4.760,11.844 C4.648,12.122 4.525,12.365 4.450,12.622 C4.084,13.875 4.388,14.989 5.259,15.948 C6.120,16.896 7.233,17.399 8.512,17.563 C9.848,17.735 11.104,17.518 12.289,16.875 C12.500,16.761 12.786,16.772 13.039,16.740 C14.091,16.607 15.144,16.479 16.197,16.350 C16.237,16.345 16.277,16.346 16.353,16.342 C16.300,16.473 16.260,16.588 16.208,16.697 C15.522,18.121 14.393,19.106 12.961,19.781 C11.469,20.486 9.887,20.699 8.243,20.584 C7.156,20.508 6.099,20.317 5.107,19.861 C3.437,19.093 2.349,17.822 1.992,16.071 C1.724,14.753 2.039,13.495 2.998,12.460 C3.327,12.106 3.783,11.983 4.247,11.900 Z" class="cls-1"/>
</svg>
