<svg xmlns="http://www.w3.org/2000/svg" xmlns:xlink="http://www.w3.org/1999/xlink" preserveAspectRatio="xMidYMid" width="36" height="23.969" viewBox="0 0 36 23.969">
  <defs>
    <style>
      .cls-1 {
        fill: #000;
        fill-rule: evenodd;
      }
    </style>
  </defs>
  <path d="M-0.000,15.332 C0.135,13.578 0.678,11.900 1.835,10.525 C2.936,9.216 4.425,8.248 6.112,7.799 C7.943,7.312 9.841,7.478 11.578,8.205 C12.481,8.582 13.294,9.107 14.042,9.721 C14.379,9.996 14.667,10.335 15.032,10.576 C15.176,10.672 15.474,11.195 15.642,11.163 C16.040,11.764 16.637,12.274 17.097,12.834 C17.647,13.504 18.169,14.196 18.696,14.883 C19.666,16.146 20.580,17.476 21.689,18.632 C22.729,19.716 24.042,20.686 25.569,20.995 C27.091,21.303 28.742,20.901 30.026,20.084 C32.640,18.420 33.736,15.109 32.419,12.323 C31.765,10.939 30.642,9.791 29.205,9.157 C28.498,8.846 27.744,8.649 26.968,8.602 C26.561,8.578 26.153,8.589 25.747,8.614 C25.520,8.629 24.851,8.813 24.673,8.634 C24.492,8.451 24.496,7.914 24.442,7.672 C24.374,7.370 24.304,7.071 24.201,6.778 C24.002,6.211 23.711,5.674 23.342,5.193 C22.658,4.302 21.707,3.614 20.634,3.222 C18.239,2.349 15.442,3.080 13.829,5.005 C13.425,5.486 13.125,6.029 12.418,6.099 C11.771,6.162 11.153,5.892 10.859,5.320 C10.187,4.015 11.906,2.613 12.837,1.893 C15.383,-0.076 18.841,-0.571 21.875,0.588 C23.941,1.378 25.651,2.915 26.626,4.846 C26.737,5.066 26.838,5.292 26.930,5.520 C27.033,5.779 27.299,5.725 27.543,5.749 C28.101,5.805 28.653,5.910 29.191,6.064 C29.728,6.218 30.250,6.421 30.750,6.665 C30.836,6.707 31.622,7.211 31.700,7.174 C31.821,7.348 32.156,7.505 32.328,7.637 C32.643,7.881 32.952,8.134 33.234,8.413 C33.797,8.971 34.296,9.606 34.703,10.278 C35.543,11.664 36.017,13.332 35.996,14.936 C35.959,17.834 34.483,20.524 32.074,22.238 C29.727,23.908 26.501,24.488 23.749,23.478 C20.570,22.311 18.555,19.644 16.642,17.077 C15.661,15.761 14.666,14.448 13.530,13.252 C12.500,12.167 11.304,11.097 9.825,10.637 C7.198,9.820 4.397,11.265 3.387,13.688 C2.211,16.508 3.997,19.738 7.007,20.511 C8.261,20.833 9.624,20.667 10.776,20.099 C11.347,19.818 11.865,19.439 12.298,18.982 C12.755,18.501 13.329,18.227 14.000,18.444 C14.892,18.733 15.330,19.729 14.840,20.534 C14.374,21.301 13.435,21.940 12.663,22.392 C11.129,23.292 9.310,23.695 7.525,23.520 C5.666,23.338 3.902,22.533 2.549,21.291 C0.823,19.707 0.053,17.596 -0.000,15.332 C0.068,14.442 0.015,15.962 -0.000,15.332 Z" class="cls-1"/>
</svg>
