<svg xmlns="http://www.w3.org/2000/svg" xmlns:xlink="http://www.w3.org/1999/xlink" preserveAspectRatio="xMidYMid" width="32.031" height="30.125" viewBox="0 0 32.031 30.125">
  <defs>
    <style>
      .cls-1 {
        fill: #000;
        fill-rule: evenodd;
      }
    </style>
  </defs>
  <path d="M29.173,13.810 C32.027,13.810 31.950,13.647 31.950,16.434 C31.950,20.230 32.008,22.235 32.000,26.031 C31.997,27.405 30.390,29.028 29.000,29.031 C25.192,29.040 22.807,29.041 19.000,29.031 C17.542,29.027 17.008,27.508 17.000,26.031 C16.989,23.974 17.000,23.088 17.000,21.031 C17.000,18.938 16.986,18.124 17.000,16.031 C17.009,14.726 17.392,13.672 18.723,13.648 C18.796,13.646 18.868,13.647 18.941,13.647 C20.581,13.633 20.582,13.633 20.583,11.976 C20.584,8.783 20.580,5.591 20.586,2.398 C20.588,0.896 20.814,0.767 22.344,0.755 C23.105,0.750 23.859,0.768 24.620,0.755 C25.556,0.739 26.020,1.052 26.056,1.997 C26.127,3.845 26.153,3.844 28.082,3.847 C28.916,3.849 29.750,3.861 30.584,3.847 C31.471,3.832 31.952,4.207 31.947,5.108 C31.941,6.137 31.943,7.165 31.946,8.194 C31.948,9.024 31.532,9.441 30.681,9.443 C29.485,9.445 28.288,9.468 27.091,9.445 C26.363,9.431 26.072,9.709 26.038,10.442 C25.886,13.647 25.945,13.810 29.173,13.810 ZM26.000,20.031 C25.994,19.639 25.452,19.046 25.000,19.031 C24.169,19.004 23.831,18.996 23.000,19.031 C22.538,19.050 22.003,19.653 22.000,20.031 C21.992,21.023 21.993,22.039 22.000,23.031 C22.004,23.532 22.831,23.767 23.356,23.851 C25.754,24.024 26.054,23.964 26.000,22.031 C26.000,21.535 26.007,20.527 26.000,20.031 ZM16.222,9.408 C15.538,9.474 15.021,9.445 15.000,10.031 C14.871,13.643 15.090,17.676 14.947,21.288 C14.922,21.921 14.976,22.461 15.571,22.934 C16.184,23.420 16.024,27.770 15.469,28.298 C15.131,28.620 14.696,28.713 14.241,28.765 C10.463,29.197 6.687,29.640 2.910,30.071 C1.244,30.261 0.950,30.045 0.700,28.443 C0.571,27.614 0.490,26.777 0.372,25.946 C0.243,25.040 0.544,24.421 1.535,24.302 C2.335,24.205 2.572,23.774 2.546,23.027 C2.396,18.830 2.269,14.632 2.152,10.434 C2.135,9.832 1.931,9.483 1.286,9.377 C0.497,9.247 0.169,8.693 0.156,7.958 C0.138,6.935 -0.025,7.054 -0.000,6.031 C0.023,5.053 0.952,3.955 2.000,4.031 C2.557,4.071 3.440,4.032 4.000,4.031 C6.554,4.030 5.828,4.466 6.000,2.031 C6.058,1.215 6.215,0.058 7.000,0.031 C7.969,-0.002 9.030,0.018 10.000,0.031 C10.954,0.044 11.927,0.112 12.000,1.031 C12.177,3.276 11.684,3.924 14.020,3.984 C17.233,4.066 17.427,3.332 17.414,6.539 C17.412,7.014 17.404,7.490 17.410,7.965 C17.421,8.770 17.091,9.325 16.222,9.408 ZM10.000,10.031 C10.026,9.353 9.494,9.432 8.761,9.431 C8.037,9.430 7.736,9.740 7.775,10.429 C7.793,10.757 7.778,11.087 7.778,11.707 C8.112,14.955 7.933,18.503 8.012,22.047 C8.018,22.339 8.030,22.632 8.060,22.923 C8.083,23.142 8.212,23.258 8.418,23.449 C8.855,23.854 10.021,23.340 10.000,23.031 C9.982,22.773 9.985,22.432 10.000,22.031 C10.042,20.936 9.961,20.126 10.000,19.031 C10.099,16.256 9.895,12.805 10.000,10.031 Z" class="cls-1"/>
</svg>
