<svg xmlns="http://www.w3.org/2000/svg" xmlns:xlink="http://www.w3.org/1999/xlink" preserveAspectRatio="xMidYMid" width="36" height="35" viewBox="0 0 36 35">
  <defs>
    <style>
      .cls-1 {
        fill: #000;
        fill-rule: evenodd;
      }
    </style>
  </defs>
  <path d="M31.548,28.980 C31.513,29.020 31.472,29.054 31.436,29.093 C28.472,27.241 22.028,22.537 20.779,13.247 L20.779,0.001 C25.049,0.652 28.826,2.755 31.548,5.800 C34.322,8.900 36.014,12.946 36.014,17.390 C36.014,21.831 34.322,25.881 31.548,28.980 ZM26.579,32.852 C24.029,34.215 21.117,35.011 18.005,35.011 C15.014,35.011 12.200,34.287 9.718,33.024 C11.895,31.473 16.258,27.798 17.834,22.291 C17.834,22.291 20.748,28.738 26.579,32.852 ZM4.630,29.161 C1.759,26.039 -0.003,21.921 -0.003,17.390 C-0.003,8.562 6.638,1.269 15.295,-0.013 L15.295,13.446 C15.295,13.446 15.596,21.668 4.630,29.161 Z" class="cls-1"/>
</svg>
