<svg xmlns="http://www.w3.org/2000/svg" xmlns:xlink="http://www.w3.org/1999/xlink" preserveAspectRatio="xMidYMid" width="37" height="30" viewBox="0 0 37 30">
  <defs>
    <style>
      .cls-1 {
        fill: #000;
        fill-rule: evenodd;
      }
    </style>
  </defs>
  <path d="M36.539,12.806 C36.539,12.808 36.539,12.810 36.539,12.812 C36.297,13.556 35.498,13.964 34.754,13.723 C34.008,13.482 33.600,12.683 33.841,11.937 L33.840,11.937 C34.580,9.646 34.111,7.033 32.384,5.117 C30.656,3.201 28.108,2.470 25.753,2.970 C24.987,3.133 24.234,2.644 24.071,1.878 C23.907,1.114 24.395,0.360 25.161,0.195 L25.162,0.195 C28.472,-0.509 32.058,0.519 34.489,3.217 C36.921,5.911 37.577,9.584 36.539,12.806 ZM26.721,7.506 L26.721,7.505 C26.064,7.648 25.415,7.226 25.274,6.568 C25.133,5.908 25.553,5.259 26.212,5.119 C27.825,4.775 29.572,5.274 30.756,6.588 C31.941,7.901 32.259,9.690 31.752,11.260 C31.545,11.902 30.857,12.252 30.216,12.047 C29.574,11.839 29.224,11.150 29.431,10.509 L29.429,10.509 C29.678,9.741 29.522,8.866 28.943,8.224 C28.365,7.583 27.510,7.340 26.721,7.506 ZM27.210,9.790 C27.851,10.706 27.789,11.990 27.198,13.478 C26.925,14.163 27.283,14.269 27.804,14.426 C29.927,15.084 32.291,16.678 32.291,19.485 C32.291,24.132 25.594,29.985 15.526,29.985 C7.847,29.985 -0.003,26.261 -0.003,20.135 C-0.003,16.933 2.025,13.230 5.516,9.736 C10.179,5.072 15.616,2.947 17.661,4.994 C18.563,5.896 18.650,7.458 18.070,9.323 C17.768,10.262 18.951,9.742 18.951,9.744 C22.720,8.165 26.008,8.072 27.210,9.790 ZM25.923,19.401 C25.526,15.377 20.236,12.605 14.107,13.211 C7.980,13.818 3.333,17.572 3.731,21.597 C4.129,25.623 9.419,28.394 15.547,27.789 C21.676,27.183 26.320,23.428 25.923,19.401 ZM11.584,26.060 C8.638,25.108 7.391,22.198 8.681,19.576 C9.948,17.005 13.243,15.551 16.159,16.310 C19.177,17.090 20.717,19.939 19.484,22.705 C18.233,25.536 14.636,27.045 11.584,26.060 ZM13.248,20.549 C12.299,20.151 11.073,20.560 10.487,21.479 C9.894,22.402 10.173,23.501 11.115,23.930 C12.071,24.367 13.340,23.952 13.933,23.006 C14.515,22.050 14.208,20.958 13.248,20.549 ZM15.587,19.579 C15.223,19.434 14.768,19.609 14.554,19.968 C14.347,20.328 14.461,20.738 14.826,20.888 C15.197,21.041 15.671,20.865 15.885,20.498 C16.090,20.129 15.957,19.714 15.587,19.579 Z" class="cls-1"/>
</svg>
