<?xml version="1.0" encoding="utf-8"?>
<!-- Generator: Adobe Illustrator 18.0.0, SVG Export Plug-In . SVG Version: 6.00 Build 0)  -->
<!DOCTYPE svg PUBLIC "-//W3C//DTD SVG 1.1//EN" "http://www.w3.org/Graphics/SVG/1.1/DTD/svg11.dtd">
<svg version="1.1" id="图层_1" xmlns="http://www.w3.org/2000/svg" xmlns:xlink="http://www.w3.org/1999/xlink" x="0px" y="0px"
	 viewBox="0 0 595.3 841.9" enable-background="new 0 0 595.3 841.9" xml:space="preserve">
<path fill="#5B5C5C" d="M447.2,412c-8.4-2.5-14.1-4.2-9.7-15.2c9.5-23.8,10.5-44.4,0.2-59.1c-19.3-27.5-72.2-26.1-132.8-0.7
	c0,0-19,8.3-14.2-6.8c9.3-29.9,7.9-54.9-6.6-69.4c-32.9-32.8-120.3,1.2-195.3,76C32.6,392.9,0,452.2,0,503.5
	c0,98.2,126.2,157.9,249.7,157.9c161.9,0,269.6-93.8,269.6-168.3C519.3,448.1,481.3,422.6,447.2,412z M250.1,626.2
	c-98.5,9.7-183.6-34.7-190-99.3c-6.4-64.5,68.3-124.7,166.9-134.4c98.6-9.7,183.6,34.7,190,99.2
	C423.3,556.3,348.6,616.5,250.1,626.2z"/>
<path fill="#5B5C5C" d="M554.7,232.3c-39.1-43.2-96.8-59.7-150-48.4h0c-12.3,2.6-20.2,14.7-17.5,27c2.6,12.3,14.7,20.1,27.1,17.5
	c37.9-8,78.8,3.7,106.6,34.4c27.8,30.7,35.3,72.6,23.4,109.3l0,0c-3.9,12,2.7,24.8,14.7,28.6c12,3.9,24.8-2.7,28.7-14.6
	c0,0,0-0.1,0-0.1C604.3,334.4,593.8,275.5,554.7,232.3"/>
<path fill="#5B5C5C" d="M494.6,286.4c-19-21.1-47.1-29.1-73.1-23.6c-10.6,2.3-17.4,12.7-15.1,23.2c2.3,10.5,12.7,17.3,23.3,15v0
	c12.7-2.7,26.4,1.2,35.7,11.5c9.3,10.3,11.8,24.3,7.8,36.6h0c-3.3,10.3,2.3,21.3,12.6,24.6c10.3,3.3,21.4-2.3,24.7-12.6
	C518.8,336.1,513.7,307.4,494.6,286.4"/>
<path fill="#5B5C5C" d="M259.9,442.2c-46.9-12.2-99.9,11.1-120.3,52.4c-20.7,42-0.7,88.7,46.7,103.9c49.1,15.8,106.9-8.4,127-53.8
	C333.2,500.4,308.4,454.7,259.9,442.2z M224.1,549.6c-9.5,15.2-29.9,21.8-45.3,14.8c-15.2-6.9-19.6-24.5-10.1-39.3
	c9.4-14.7,29.1-21.3,44.4-14.9C228.5,516.7,233.5,534.2,224.1,549.6z M255.5,509.4c-3.4,5.9-11.1,8.7-17,6.3
	c-5.9-2.4-7.7-9-4.4-14.8c3.4-5.7,10.8-8.6,16.6-6.2C256.7,496.8,258.8,503.4,255.5,509.4z"/>
</svg>
