<svg xmlns="http://www.w3.org/2000/svg" xmlns:xlink="http://www.w3.org/1999/xlink" preserveAspectRatio="xMidYMid" width="27" height="31" viewBox="0 0 27 31">
  <defs>
    <style>
      .cls-1 {
        fill: #000;
        fill-rule: evenodd;
      }
    </style>
  </defs>
  <path d="M24.533,0.012 C24.466,0.118 24.419,0.212 24.343,0.312 C21.341,4.296 18.338,8.279 15.330,12.258 C15.223,12.399 15.210,12.491 15.305,12.638 C16.660,14.748 18.009,16.861 19.360,18.973 C20.491,20.741 21.622,22.510 22.753,24.278 C23.776,25.877 24.796,27.476 25.823,29.072 C26.207,29.669 26.606,30.256 26.998,30.848 C27.032,31.015 26.901,30.954 26.830,30.955 C25.706,30.957 24.582,30.956 23.458,30.956 C23.039,30.956 22.621,30.956 22.203,30.956 C22.078,30.932 21.953,30.910 21.829,30.882 C19.722,30.410 18.033,29.343 16.893,27.524 C14.905,24.350 12.929,21.169 10.947,17.991 C10.892,17.903 10.827,17.820 10.762,17.726 C10.711,17.772 10.683,17.795 10.658,17.821 C9.458,19.059 8.257,20.295 7.066,21.541 C6.978,21.633 6.927,21.794 6.926,21.925 C6.897,24.290 6.881,26.656 6.857,29.022 C6.850,29.634 6.823,30.247 6.805,30.868 C6.730,30.875 6.685,30.882 6.640,30.882 C4.504,30.883 2.368,30.883 0.231,30.881 C0.159,30.881 0.087,30.859 0.014,30.848 C0.014,25.678 0.014,20.508 0.014,15.339 C0.026,15.241 0.049,15.143 0.049,15.045 C0.054,13.657 0.058,12.270 0.060,10.882 C0.064,7.373 0.067,3.863 0.072,0.353 C0.072,0.258 0.082,0.163 0.087,0.072 C0.149,0.065 0.177,0.058 0.204,0.058 C2.453,0.057 4.701,0.059 6.950,0.053 C7.151,0.052 7.205,0.129 7.200,0.311 C7.179,1.045 7.164,1.780 7.155,2.514 C7.118,5.543 7.084,8.571 7.049,11.600 C7.047,11.721 7.049,11.842 7.049,12.046 C7.163,11.916 7.221,11.853 7.276,11.787 C7.786,11.177 8.300,10.569 8.805,9.955 C9.360,9.279 9.906,8.596 10.460,7.918 C11.070,7.170 11.685,6.425 12.297,5.677 C12.782,5.083 13.261,4.485 13.749,3.893 C14.180,3.370 14.591,2.828 15.061,2.340 C15.761,1.613 16.626,1.103 17.557,0.700 C18.540,0.275 19.558,0.015 20.647,0.052 C21.371,0.076 22.106,0.043 22.830,0.038 L24.533,0.012 Z" class="cls-1"/>
</svg>
