<?xml version="1.0" encoding="iso-8859-1"?>
<!-- Generator: Adobe Illustrator 18.0.0, SVG Export Plug-In . SVG Version: 6.00 Build 0)  -->
<!DOCTYPE svg PUBLIC "-//W3C//DTD SVG 1.1//EN" "http://www.w3.org/Graphics/SVG/1.1/DTD/svg11.dtd">
<svg version="1.1" id="&#x56FE;&#x5C42;_1" xmlns="http://www.w3.org/2000/svg" xmlns:xlink="http://www.w3.org/1999/xlink" x="0px"
	 y="0px" viewBox="0 0 102.891 120.804" style="enable-background:new 0 0 102.891 120.804;" xml:space="preserve">
<path style="fill:#5B5C5C;" d="M93.474,0c-0.255,0.417-0.436,0.782-0.724,1.174c-11.445,15.547-22.891,31.092-34.362,46.62
	c-0.407,0.55-0.457,0.908-0.095,1.485c5.167,8.232,10.31,16.479,15.46,24.722c4.312,6.902,8.623,13.804,12.936,20.706
	c3.898,6.238,7.789,12.481,11.703,18.709c1.463,2.328,2.984,4.62,4.479,6.929c0.13,0.655-0.368,0.417-0.638,0.418
	c-4.286,0.01-8.572,0.007-12.859,0.007c-1.594,0-3.188,0-4.782,0c-0.475-0.096-0.953-0.181-1.426-0.29
	c-8.034-1.843-14.472-6.006-18.818-13.107c-7.58-12.386-15.114-24.801-22.67-37.202c-0.21-0.346-0.455-0.67-0.706-1.036
	c-0.192,0.18-0.3,0.27-0.396,0.372c-4.572,4.832-9.153,9.655-13.694,14.516c-0.336,0.359-0.528,0.99-0.535,1.498
	c-0.109,9.232-0.169,18.465-0.263,27.698c-0.024,2.391-0.127,4.781-0.195,7.206c-0.289,0.026-0.46,0.056-0.632,0.056
	c-8.144,0.002-16.287,0.004-24.431-0.003c-0.276,0-0.552-0.086-0.827-0.132c0-20.176,0-40.352,0-60.528
	c0.046-0.382,0.131-0.764,0.132-1.146c0.02-5.415,0.034-10.83,0.04-16.245C0.189,28.728,0.201,15.03,0.219,1.333
	c0-0.371,0.039-0.743,0.058-1.095c0.237-0.031,0.342-0.056,0.446-0.056c8.572-0.004,17.145,0.002,25.717-0.02
	c0.768-0.002,0.974,0.296,0.954,1.008c-0.078,2.865-0.136,5.731-0.17,8.598c-0.142,11.819-0.272,23.639-0.405,35.459
	c-0.005,0.473-0.001,0.945-0.001,1.743c0.438-0.51,0.658-0.756,0.868-1.013c1.945-2.381,3.902-4.752,5.827-7.149
	c2.118-2.637,4.2-5.304,6.309-7.949c2.328-2.921,4.673-5.829,7.004-8.748c1.85-2.317,3.677-4.651,5.536-6.96
	c1.644-2.041,3.21-4.158,5.002-6.063c2.668-2.836,5.966-4.827,9.515-6.398c3.75-1.661,7.629-2.674,11.782-2.532
	c2.76,0.094,5.56-0.032,8.322-0.051L93.474,0z"/>
</svg>
