<svg xmlns="http://www.w3.org/2000/svg" xmlns:xlink="http://www.w3.org/1999/xlink" preserveAspectRatio="xMidYMid" width="31" height="29.031" viewBox="0 0 31 29.031">
  <defs>
    <style>
      .cls-1 {
        fill: #000;
        fill-rule: evenodd;
      }
    </style>
  </defs>
  <path d="M0.013,29.038 L-0.000,24.031 C10.333,24.031 20.678,23.921 31.011,23.921 L31.011,29.038 L0.013,29.038 ZM26.183,25.383 C25.378,25.383 24.452,25.383 23.642,25.383 C23.642,26.165 23.642,27.057 23.642,27.820 C24.456,27.820 25.387,27.820 26.183,27.820 C26.183,27.042 26.183,26.154 26.183,25.383 ZM23.409,5.010 C22.969,6.176 22.524,7.341 22.087,8.508 C21.527,10.000 20.973,11.494 20.413,12.987 C19.953,14.216 19.488,15.444 19.025,16.673 C18.540,17.964 17.485,19.740 17.000,21.031 C16.956,21.057 16.927,21.074 16.888,21.097 C16.883,21.097 16.883,21.097 16.877,21.097 C15.071,21.098 12.806,21.027 11.000,21.031 C10.729,20.269 10.620,19.400 10.337,18.642 C9.997,17.733 9.660,16.824 9.320,15.915 C9.031,15.140 8.738,14.367 8.449,13.592 C8.113,12.690 7.780,11.786 7.443,10.883 C7.163,10.132 6.881,9.382 6.599,8.631 C6.287,7.796 5.973,6.962 5.662,6.127 C5.348,5.288 5.037,4.448 4.723,3.608 C4.308,2.494 3.891,1.381 3.475,0.268 C3.450,0.202 3.423,0.138 3.388,0.049 C5.553,0.049 7.846,0.031 10.000,0.031 C11.501,5.160 12.845,10.306 14.345,15.435 C14.362,15.434 14.379,15.433 14.395,15.433 C14.502,15.088 14.610,14.743 14.716,14.398 C15.056,13.288 15.395,12.178 15.733,11.068 C16.049,10.033 16.360,8.997 16.676,7.963 C16.913,7.186 17.159,6.412 17.397,5.635 C17.634,4.857 17.863,4.078 18.101,3.301 C18.331,2.546 18.568,1.794 18.801,1.040 C18.891,0.749 18.922,0.325 19.000,0.031 C20.968,0.033 23.167,0.043 25.135,0.044 C25.170,0.044 25.206,0.053 25.263,0.060 C25.130,0.417 25.001,0.762 24.872,1.107 C24.385,2.408 23.898,3.709 23.409,5.010 ZM16.911,21.097 C16.903,21.097 16.899,21.097 16.889,21.097 C16.926,21.075 16.959,21.055 17.000,21.031 C16.960,21.060 16.943,21.073 16.911,21.097 ZM17.000,21.031 C17.019,21.020 16.992,21.041 16.953,21.071 C16.957,21.062 16.969,21.049 17.000,21.031 ZM16.919,21.097 C16.934,21.086 16.941,21.080 16.953,21.071 C16.943,21.094 16.966,21.097 16.919,21.097 ZM16.911,21.097 C16.914,21.097 16.917,21.097 16.919,21.097 C16.738,21.233 16.396,21.478 16.911,21.097 ZM16.888,21.097 C16.888,21.097 16.888,21.097 16.889,21.097 C16.299,21.448 16.128,21.548 16.888,21.097 ZM11.000,21.031 C11.054,21.183 10.849,21.031 11.000,21.031 Z" class="cls-1"/>
</svg>
