<svg xmlns="http://www.w3.org/2000/svg" xmlns:xlink="http://www.w3.org/1999/xlink" preserveAspectRatio="xMidYMid" width="25.031" height="39.031" viewBox="0 0 25.031 39.031">
  <defs>
    <style>
      .cls-1 {
        fill: #000;
        fill-rule: evenodd;
      }
    </style>
  </defs>
  <path d="M12.516,24.966 C11.434,24.966 10.383,24.822 9.383,24.561 C9.258,24.528 8.785,24.196 8.785,24.196 C8.342,23.347 8.814,22.922 9.269,22.717 L9.270,22.716 C9.273,22.715 9.273,22.713 9.276,22.713 C9.328,22.689 9.373,22.672 9.422,22.656 C9.786,22.554 10.355,22.656 10.355,22.656 L10.355,22.653 C11.052,22.801 11.774,22.886 12.516,22.886 C18.263,22.886 22.937,18.222 22.937,12.489 C22.937,6.756 18.263,2.093 12.516,2.093 C6.769,2.093 2.094,6.756 2.094,12.489 C2.094,14.388 2.609,16.168 3.503,17.700 L3.503,17.703 C3.503,17.703 3.503,17.703 3.504,17.703 C3.528,17.743 3.550,17.781 3.574,17.819 C3.674,18.008 3.837,18.409 3.722,18.923 L3.723,18.923 C3.463,19.420 2.929,19.968 1.968,19.181 C0.730,17.244 0.011,14.951 0.011,12.489 C0.011,5.610 5.619,0.012 12.516,0.012 C19.412,0.012 25.020,5.610 25.020,12.489 C25.020,19.370 19.412,24.966 12.516,24.966 ZM1.636,34.775 L1.640,34.531 L1.646,34.292 L1.651,34.055 L1.662,33.821 L1.671,33.589 L1.681,33.359 L1.691,33.133 L1.706,32.912 L1.720,32.690 L1.736,32.473 L1.751,32.257 C1.754,32.184 1.762,32.114 1.765,32.043 L1.781,31.832 L1.801,31.623 L1.821,31.416 L1.841,31.212 L1.864,31.010 L1.886,30.808 L1.906,30.610 L1.930,30.413 C1.940,30.350 1.946,30.284 1.956,30.219 L1.981,30.026 L2.005,29.836 L2.034,29.646 L2.060,29.459 L2.088,29.273 L2.117,29.089 L2.147,28.908 L2.177,28.728 L2.205,28.548 L2.239,28.372 C2.248,28.314 2.262,28.255 2.269,28.195 L2.301,28.022 L2.334,27.849 L2.373,27.680 L2.403,27.508 L2.436,27.341 C2.451,27.285 2.463,27.229 2.474,27.172 L2.506,27.008 L2.546,26.844 L2.586,26.682 L2.623,26.519 L2.661,26.359 L2.698,26.201 L2.740,26.043 L2.776,25.887 L2.817,25.732 L2.859,25.577 L2.900,25.425 L2.941,25.272 L2.985,25.123 L3.024,24.975 L3.067,24.825 L3.114,24.679 C3.126,24.629 3.141,24.581 3.155,24.532 L3.199,24.388 L3.245,24.243 L3.289,24.102 L3.339,23.960 L3.380,23.820 L3.429,23.680 C3.449,23.635 3.462,23.587 3.478,23.541 L3.523,23.404 L3.574,23.267 L3.621,23.133 L3.668,22.997 L3.717,22.864 L3.767,22.731 L3.816,22.598 L3.867,22.470 L3.916,22.338 L3.970,22.211 L4.020,22.080 L4.070,21.953 L4.122,21.827 L4.174,21.702 L4.227,21.578 L4.281,21.455 L4.334,21.331 L4.386,21.209 L4.440,21.088 L4.495,20.967 L4.550,20.846 L4.603,20.728 L4.660,20.610 L4.714,20.491 C4.734,20.453 4.754,20.415 4.772,20.374 L4.827,20.259 L4.884,20.145 L4.942,20.032 L4.998,19.918 L5.056,19.804 L5.113,19.693 L5.170,19.582 L5.230,19.470 L5.290,19.361 L5.344,19.251 C5.365,19.216 5.385,19.179 5.405,19.142 L5.463,19.034 L5.525,18.928 L5.584,18.821 L5.644,18.715 L5.701,18.610 L5.768,18.506 L5.828,18.404 L5.889,18.298 L5.951,18.196 L6.013,18.095 L6.073,17.994 L6.136,17.893 L6.198,17.792 L6.262,17.693 L6.322,17.596 L6.390,17.497 L6.450,17.399 L6.515,17.303 L6.580,17.206 L6.642,17.110 L6.654,17.093 L6.706,17.015 L6.773,16.921 L6.838,16.825 L6.903,16.732 L6.969,16.638 L7.033,16.545 L7.102,16.451 L7.162,16.360 L7.231,16.268 L7.296,16.177 L7.361,16.085 L7.427,15.995 L7.496,15.905 L7.561,15.816 L7.630,15.725 L7.696,15.638 L7.764,15.547 L7.831,15.461 L7.896,15.374 L7.966,15.287 L8.035,15.200 L8.102,15.112 L8.172,15.028 L8.239,14.943 L8.307,14.859 L8.377,14.775 L8.447,14.690 L8.516,14.609 L8.585,14.525 L8.658,14.442 L8.728,14.361 L8.795,14.279 L8.866,14.199 L8.936,14.119 L9.006,14.039 L9.078,13.960 L9.148,13.882 L9.155,13.877 C9.059,13.626 8.985,13.367 8.936,13.099 C8.912,12.974 8.895,12.848 8.884,12.719 C8.872,12.621 8.870,12.524 8.870,12.426 L8.866,12.359 C8.866,12.299 8.870,12.239 8.871,12.179 C8.872,12.108 8.881,12.036 8.887,11.961 C8.894,11.895 8.901,11.829 8.911,11.765 C8.917,11.704 8.931,11.644 8.941,11.584 C8.952,11.528 8.964,11.472 8.976,11.417 C8.987,11.364 8.999,11.311 9.014,11.260 C9.026,11.208 9.046,11.161 9.059,11.112 C9.073,11.065 9.089,11.017 9.105,10.970 C9.120,10.926 9.136,10.883 9.150,10.838 C9.170,10.794 9.185,10.755 9.208,10.712 C9.225,10.672 9.240,10.631 9.259,10.592 C9.279,10.553 9.298,10.514 9.314,10.474 C9.335,10.438 9.354,10.402 9.373,10.364 C9.393,10.329 9.413,10.294 9.434,10.258 C9.454,10.225 9.475,10.190 9.496,10.156 C9.518,10.122 9.535,10.091 9.558,10.056 C9.578,10.026 9.602,9.994 9.623,9.962 C9.646,9.931 9.666,9.900 9.688,9.870 C9.711,9.842 9.731,9.811 9.757,9.782 C9.778,9.753 9.802,9.726 9.825,9.696 C9.847,9.671 9.870,9.641 9.896,9.615 C9.918,9.589 9.941,9.560 9.970,9.535 C9.986,9.510 10.011,9.484 10.040,9.458 C10.061,9.433 10.087,9.408 10.107,9.383 C10.135,9.360 10.162,9.336 10.186,9.313 C10.210,9.289 10.235,9.266 10.259,9.244 C10.286,9.221 10.310,9.199 10.335,9.178 C10.360,9.156 10.388,9.133 10.413,9.112 C10.440,9.092 10.460,9.070 10.490,9.051 C10.519,9.030 10.543,9.010 10.570,8.991 C10.594,8.971 10.622,8.951 10.652,8.933 C10.677,8.915 10.704,8.896 10.731,8.879 C10.757,8.860 10.784,8.842 10.813,8.824 C10.837,8.807 10.864,8.790 10.897,8.772 C10.925,8.758 10.951,8.741 10.976,8.725 C11.003,8.708 11.036,8.692 11.062,8.677 C11.088,8.663 11.118,8.646 11.150,8.632 C11.175,8.620 11.203,8.604 11.235,8.589 C11.262,8.576 11.290,8.563 11.317,8.549 C11.350,8.534 11.376,8.524 11.405,8.510 C11.435,8.497 11.465,8.486 11.494,8.474 C11.524,8.462 11.556,8.451 11.583,8.439 C11.610,8.429 11.644,8.416 11.674,8.406 C11.703,8.395 11.733,8.385 11.764,8.376 C11.794,8.365 11.824,8.355 11.854,8.346 C11.885,8.337 11.917,8.329 11.947,8.320 C11.981,8.311 12.009,8.303 12.041,8.295 C12.069,8.287 12.104,8.280 12.134,8.272 C12.168,8.266 12.198,8.260 12.230,8.253 C12.262,8.246 12.292,8.240 12.323,8.235 C12.356,8.228 12.391,8.224 12.422,8.218 C12.456,8.213 12.486,8.209 12.517,8.205 C12.550,8.199 12.584,8.197 12.618,8.193 C12.649,8.190 12.680,8.186 12.716,8.183 C12.750,8.180 12.784,8.177 12.818,8.175 C12.850,8.174 12.883,8.172 12.915,8.171 C12.950,8.170 12.987,8.170 13.022,8.169 L13.072,8.168 L13.123,8.169 C13.153,8.170 13.190,8.170 13.228,8.172 C13.262,8.173 13.297,8.174 13.332,8.177 C13.370,8.179 13.400,8.181 13.438,8.185 C13.475,8.188 13.511,8.192 13.546,8.194 C13.581,8.199 13.621,8.205 13.655,8.209 C13.692,8.213 13.729,8.219 13.762,8.225 C13.799,8.231 13.839,8.239 13.875,8.246 C13.911,8.253 13.950,8.260 13.986,8.270 C14.025,8.276 14.064,8.286 14.100,8.295 C14.139,8.306 14.180,8.317 14.219,8.327 C14.257,8.337 14.297,8.350 14.337,8.362 C14.374,8.374 14.414,8.388 14.456,8.401 C14.493,8.416 14.532,8.429 14.576,8.446 C14.617,8.462 14.656,8.477 14.698,8.494 C14.742,8.513 14.781,8.530 14.822,8.549 C14.864,8.569 14.907,8.589 14.950,8.611 C14.995,8.632 15.040,8.655 15.084,8.680 C15.128,8.703 15.170,8.730 15.215,8.756 C15.263,8.783 15.308,8.812 15.354,8.840 C15.403,8.872 15.449,8.903 15.493,8.938 C15.546,8.971 15.596,9.007 15.639,9.045 C15.694,9.085 15.743,9.128 15.797,9.169 C15.851,9.218 15.903,9.265 15.961,9.315 C16.016,9.370 16.077,9.428 16.130,9.488 C16.197,9.559 16.260,9.631 16.324,9.706 C16.400,9.801 16.474,9.901 16.550,10.006 C16.877,10.488 17.106,11.045 17.209,11.645 C17.230,11.767 17.246,11.890 17.256,12.016 C17.266,12.111 17.267,12.207 17.271,12.302 L17.274,12.359 C17.274,12.423 17.271,12.485 17.266,12.548 C17.265,12.620 17.257,12.694 17.250,12.765 C17.246,12.831 17.237,12.897 17.230,12.961 C17.217,13.022 17.207,13.082 17.196,13.143 C17.186,13.198 17.174,13.254 17.165,13.310 C17.151,13.361 17.136,13.414 17.123,13.465 C17.111,13.517 17.095,13.564 17.080,13.614 C17.064,13.660 17.050,13.706 17.033,13.753 C17.015,13.797 17.002,13.842 16.985,13.886 C16.967,13.928 16.950,13.970 16.932,14.012 C16.914,14.052 16.897,14.092 16.878,14.131 C16.857,14.172 16.842,14.211 16.821,14.249 C16.805,14.285 16.782,14.321 16.763,14.360 C16.744,14.395 16.721,14.430 16.703,14.465 C16.685,14.499 16.663,14.533 16.643,14.567 C16.623,14.601 16.598,14.633 16.578,14.666 C16.560,14.699 16.535,14.729 16.514,14.761 C16.492,14.792 16.471,14.822 16.449,14.852 C16.429,14.882 16.403,14.912 16.379,14.940 C16.359,14.969 16.333,14.998 16.312,15.026 C16.290,15.052 16.263,15.081 16.240,15.107 C16.219,15.133 16.196,15.162 16.171,15.187 C16.147,15.213 16.125,15.238 16.097,15.264 C16.077,15.289 16.050,15.314 16.025,15.338 C16.001,15.362 15.975,15.386 15.952,15.409 C15.926,15.433 15.902,15.456 15.877,15.478 C15.851,15.501 15.826,15.523 15.802,15.544 C15.777,15.567 15.748,15.588 15.722,15.608 C15.698,15.630 15.673,15.652 15.648,15.670 C15.617,15.691 15.596,15.713 15.567,15.731 C15.539,15.751 15.516,15.770 15.487,15.788 C15.458,15.807 15.434,15.826 15.406,15.843 C15.378,15.861 15.354,15.879 15.324,15.897 C15.296,15.913 15.269,15.932 15.243,15.948 C15.215,15.964 15.186,15.980 15.160,15.998 C15.131,16.014 15.105,16.029 15.072,16.044 C15.046,16.059 15.019,16.075 14.990,16.089 C14.962,16.102 14.932,16.117 14.904,16.132 C14.875,16.144 14.848,16.157 14.816,16.171 C14.787,16.186 14.762,16.198 14.732,16.209 C14.702,16.224 14.672,16.236 14.642,16.248 C14.615,16.258 14.583,16.270 14.552,16.282 C14.522,16.293 14.493,16.304 14.462,16.314 C14.432,16.327 14.404,16.335 14.374,16.346 C14.343,16.355 14.314,16.365 14.282,16.374 C14.252,16.384 14.222,16.391 14.187,16.400 C14.157,16.409 14.129,16.417 14.095,16.426 C14.064,16.434 14.033,16.440 14.003,16.447 C13.970,16.454 13.938,16.460 13.907,16.468 C13.876,16.474 13.841,16.480 13.811,16.486 C13.779,16.492 13.749,16.497 13.714,16.503 C13.682,16.507 13.651,16.511 13.617,16.516 C13.582,16.519 13.551,16.524 13.520,16.528 C13.488,16.531 13.453,16.533 13.419,16.537 C13.388,16.539 13.352,16.542 13.319,16.543 C13.284,16.546 13.252,16.547 13.218,16.548 C13.184,16.549 13.149,16.551 13.117,16.551 L13.072,16.551 L13.014,16.551 C12.978,16.551 12.944,16.549 12.910,16.548 C12.873,16.547 12.838,16.545 12.803,16.543 C12.768,16.540 12.735,16.537 12.697,16.533 C12.661,16.531 12.627,16.528 12.587,16.524 C12.555,16.518 12.516,16.515 12.482,16.510 C12.442,16.506 12.406,16.498 12.370,16.494 C12.333,16.487 12.300,16.480 12.262,16.472 C12.222,16.465 12.183,16.457 12.147,16.450 C12.109,16.440 12.069,16.431 12.034,16.420 C11.994,16.412 11.953,16.400 11.917,16.390 C11.877,16.379 11.838,16.368 11.803,16.355 C11.760,16.340 11.720,16.328 11.681,16.314 C11.641,16.300 11.600,16.287 11.559,16.269 C11.518,16.254 11.476,16.237 11.435,16.221 C11.395,16.203 11.354,16.182 11.312,16.165 C11.270,16.144 11.226,16.122 11.181,16.101 C11.135,16.079 11.092,16.057 11.051,16.032 C11.006,16.009 10.960,15.980 10.918,15.957 C10.869,15.928 10.823,15.898 10.777,15.871 C10.731,15.838 10.683,15.805 10.639,15.772 C10.584,15.736 10.539,15.699 10.489,15.661 C10.436,15.622 10.383,15.579 10.335,15.535 L10.305,15.510 L10.248,15.575 L10.176,15.656 L10.106,15.736 L10.040,15.818 L9.970,15.900 L9.896,15.983 L9.828,16.067 L9.759,16.152 L9.689,16.236 L9.622,16.322 L9.553,16.407 L9.487,16.494 L9.418,16.581 L9.349,16.668 L9.283,16.755 L9.216,16.845 L9.148,16.933 L9.084,17.021 L9.014,17.113 L8.947,17.203 L8.884,17.295 L8.819,17.386 L8.750,17.480 L8.687,17.572 L8.622,17.666 L8.556,17.760 L8.494,17.855 L8.426,17.951 L8.361,18.046 L8.297,18.142 L8.235,18.238 L8.218,18.268 L8.172,18.337 L8.109,18.436 L8.044,18.534 L7.983,18.635 L7.919,18.735 L7.859,18.834 L7.794,18.936 L7.736,19.040 L7.672,19.141 L7.612,19.246 L7.552,19.349 L7.488,19.454 L7.427,19.561 L7.368,19.664 L7.308,19.773 L7.248,19.879 L7.191,19.989 L7.132,20.097 L7.072,20.206 L7.018,20.316 L6.958,20.426 L6.900,20.538 L6.839,20.652 L6.785,20.765 L6.726,20.878 L6.670,20.994 L6.614,21.108 L6.560,21.224 L6.502,21.342 L6.445,21.459 L6.391,21.578 L6.337,21.698 C6.318,21.738 6.301,21.777 6.283,21.819 L6.229,21.940 L6.175,22.062 L6.122,22.184 L6.068,22.309 L6.016,22.433 L5.963,22.557 L5.913,22.684 L5.860,22.811 L5.809,22.941 L5.759,23.068 L5.708,23.198 L5.658,23.330 L5.609,23.461 L5.563,23.595 L5.509,23.727 L5.461,23.863 L5.414,23.999 L5.365,24.137 L5.320,24.273 L5.274,24.412 L5.225,24.554 L5.180,24.692 L5.133,24.836 L5.090,24.979 L5.046,25.123 L5.001,25.269 L4.957,25.417 L4.916,25.563 L4.873,25.713 L4.830,25.863 L4.786,26.015 L4.744,26.167 L4.707,26.320 L4.664,26.475 L4.627,26.632 L4.585,26.790 L4.548,26.949 L4.508,27.109 L4.469,27.272 L4.438,27.436 L4.398,27.601 L4.364,27.766 L4.328,27.934 C4.319,27.991 4.304,28.046 4.295,28.103 L4.261,28.275 C4.249,28.332 4.235,28.388 4.223,28.447 L4.196,28.620 L4.162,28.795 L4.129,28.972 L4.099,29.152 L4.070,29.331 L4.041,29.515 C4.031,29.576 4.020,29.638 4.011,29.698 C4.002,29.760 3.991,29.823 3.983,29.884 L3.957,30.073 L3.931,30.263 L3.905,30.454 C3.897,30.517 3.891,30.582 3.880,30.648 L3.856,30.844 L3.833,31.041 L3.813,31.240 L3.788,31.444 L3.768,31.647 L3.752,31.854 L3.732,32.062 L3.714,32.273 L3.698,32.488 L3.684,32.701 C3.676,32.775 3.672,32.849 3.667,32.923 L3.653,33.143 L3.644,33.366 C3.638,33.443 3.632,33.518 3.629,33.593 L3.622,33.823 L3.611,34.056 L3.604,34.292 C3.603,34.370 3.599,34.451 3.599,34.529 L3.593,34.772 L3.590,35.016 L3.586,35.265 C3.586,35.350 3.586,35.432 3.586,35.517 C3.586,35.603 3.586,35.686 3.586,35.775 L3.588,36.034 L3.593,36.297 L3.597,36.563 C3.599,36.654 3.603,36.746 3.604,36.836 C3.604,36.928 3.609,37.019 3.611,37.111 C3.616,37.204 3.621,37.298 3.622,37.392 C3.626,37.487 3.632,37.583 3.634,37.678 C3.643,37.774 3.646,37.872 3.651,37.967 L3.656,38.094 C3.662,38.142 3.657,38.191 3.656,38.237 C3.652,38.300 3.643,38.360 3.626,38.417 C3.611,38.463 3.597,38.507 3.579,38.550 C3.558,38.587 3.539,38.622 3.517,38.654 C3.494,38.687 3.473,38.715 3.449,38.742 C3.427,38.769 3.399,38.791 3.375,38.814 C3.350,38.835 3.324,38.855 3.294,38.873 C3.268,38.891 3.239,38.907 3.215,38.921 C3.186,38.937 3.153,38.950 3.126,38.962 C3.098,38.972 3.064,38.983 3.034,38.992 C3.005,39.001 2.974,39.008 2.941,39.014 C2.906,39.020 2.873,39.025 2.841,39.028 C2.810,39.031 2.776,39.034 2.745,39.034 C2.706,39.034 2.671,39.032 2.636,39.030 C2.600,39.027 2.563,39.020 2.532,39.015 C2.492,39.007 2.453,38.998 2.414,38.989 C2.374,38.974 2.334,38.962 2.297,38.945 C2.252,38.926 2.205,38.905 2.161,38.880 C2.115,38.849 2.064,38.812 2.016,38.773 C1.841,38.614 1.720,38.389 1.704,38.094 L1.699,37.981 C1.691,37.883 1.686,37.787 1.682,37.689 L1.671,37.404 C1.666,37.310 1.662,37.215 1.659,37.123 C1.657,37.030 1.651,36.940 1.650,36.846 C1.650,36.756 1.646,36.665 1.642,36.575 C1.641,36.485 1.640,36.396 1.638,36.305 L1.633,36.041 L1.632,35.781 C1.632,35.696 1.632,35.609 1.632,35.523 L1.632,35.272 C1.632,35.189 1.632,35.105 1.633,35.021 L1.636,34.775 Z" class="cls-1"/>
</svg>
