<?xml version="1.0" encoding="iso-8859-1"?>
<!-- Generator: Adobe Illustrator 18.0.0, SVG Export Plug-In . SVG Version: 6.00 Build 0)  -->
<!DOCTYPE svg PUBLIC "-//W3C//DTD SVG 1.1//EN" "http://www.w3.org/Graphics/SVG/1.1/DTD/svg11.dtd">
<svg version="1.1" id="&#x56FE;&#x5C42;_1" xmlns="http://www.w3.org/2000/svg" xmlns:xlink="http://www.w3.org/1999/xlink" x="0px"
	 y="0px" viewBox="0 0 595.28 841.89" style="enable-background:new 0 0 595.28 841.89;" xml:space="preserve">
<path style="fill:#5B5C5C;" d="M297.654,0C152.168,0,33.886,120.779,33.886,269.186c0,53.112,15.176,102.591,41.273,144.393
	c20.284,16.975,31.544,5.15,37.033-5.574h-0.028c2.413-11.084-1.016-19.741-3.125-23.811c-0.508-0.833-0.967-1.644-1.475-2.505
	c-0.028,0-0.028-0.014-0.028-0.014v-0.049c-18.859-33.054-29.71-71.463-29.71-112.447c0-123.686,98.611-224.287,219.821-224.287
	s219.799,100.601,219.799,224.287c0,123.7-98.59,224.329-219.799,224.329c-15.656,0-30.881-1.841-45.57-5.03v0.049
	c0,0-12.022-2.194-19.698,0c-1.016,0.353-1.983,0.727-3.076,1.235c-0.049,0.014-0.049,0.049-0.127,0.078l-0.028,0.028
	c-9.581,4.41-19.543,13.588-10.195,31.89c0,0,9.962,7.182,12.608,7.895c21.095,5.63,43.256,8.727,66.08,8.727
	c145.451,0,263.74-120.744,263.74-269.2C561.394,120.779,443.105,0,297.654,0L297.654,0z"/>
<path style="fill:#5B5C5C;" d="M382.748,215.616c26.96,40.717,16.553,108.517-31.177,130.254
	c-13.537,8.194-29.973,11.195-45.591,10.886c-9.46-0.338-19.85-2.025-28.496-6.032c-5.845-2.204-11.188-5.332-16.495-8.586
	c-3.968-2.867-8.166-9.844-11.916-5.503c-26.586,30.771-48.705,65.396-67.371,101.44c-53.915,104.112-73.577,222.721-72.373,339.111
	c0.171,16.525,10.414,57.42-11.698,63.808c-33.435,10.497-28.977-39.467-29.442-57.966c-0.513-31.847,0.627-63.567,2.941-95.322
	c4.296-58.958,17.167-115.902,33.387-172.538c13.152-45.923,34.898-90.973,59.892-131.545
	c10.435-16.939,21.631-33.555,33.696-49.383c5.91-7.753,11.895-15.422,18.139-22.912c2.417-2.899,7.528-6.943,8.868-10.399
	c2.126-5.484-1.841-12.135-2.998-18.576c-1.235-6.587-1.485-13.185-1.376-19.853c0.522-38.09,27.694-70.946,62.919-82.688
	C321.38,168.913,360.074,183.453,382.748,215.616z"/>
</svg>
