<svg xmlns="http://www.w3.org/2000/svg" xmlns:xlink="http://www.w3.org/1999/xlink" preserveAspectRatio="xMidYMid" width="37.969" height="34.969" viewBox="0 0 37.969 34.969">
  <defs>
    <style>
      .cls-1 {
        fill: #000;
        fill-rule: evenodd;
      }
    </style>
  </defs>
  <path d="M27.867,22.059 C27.867,22.059 28.301,23.291 28.847,24.990 C25.590,24.686 20.740,24.152 16.424,23.361 C16.270,22.690 28.272,14.429 28.029,13.948 C17.399,12.114 9.539,13.948 9.539,13.948 L22.411,15.742 C22.411,15.742 10.257,23.926 10.094,24.703 C15.513,25.676 24.142,25.594 28.994,25.449 C30.153,29.099 31.676,34.445 30.791,34.864 C28.435,35.982 18.515,28.401 18.515,28.401 C18.515,28.401 8.945,35.497 7.467,34.768 C5.063,33.582 8.365,22.059 8.365,22.059 C8.365,22.059 -0.503,14.967 -0.011,13.183 C0.485,11.398 13.503,10.779 13.503,10.779 C13.503,10.779 17.153,0.439 19.011,0.012 C20.869,-0.415 24.810,10.117 24.810,10.117 C24.810,10.117 37.116,11.499 37.951,12.601 C38.787,13.701 27.867,22.059 27.867,22.059 ZM32.613,25.304 C32.613,25.304 31.190,25.383 28.994,25.449 C28.944,25.292 28.895,25.140 28.847,24.990 C31.116,25.203 32.613,25.304 32.613,25.304 Z" class="cls-1"/>
</svg>
