<svg xmlns="http://www.w3.org/2000/svg" xmlns:xlink="http://www.w3.org/1999/xlink" preserveAspectRatio="xMidYMid" width="32" height="32.031" viewBox="0 0 32 32.031">
  <defs>
    <style>
      .cls-1 {
        fill: #000;
        fill-rule: evenodd;
      }
    </style>
  </defs>
  <path d="M31.807,1.876 C31.550,1.034 31.189,0.457 30.622,0.191 C30.106,-0.075 29.488,0.102 28.869,0.590 L27.890,1.566 C26.858,2.586 25.931,3.296 25.106,3.740 C23.920,4.361 22.495,5.031 21.000,5.031 L11.000,5.031 C9.557,5.031 8.197,4.272 6.960,3.473 C6.393,3.074 5.465,2.231 4.176,0.990 C3.197,0.058 2.269,-0.208 1.444,0.191 C0.877,0.457 0.516,1.034 0.259,1.876 C0.104,2.497 0.052,3.207 0.052,3.961 L0.052,5.957 L0.001,5.957 L0.001,9.772 C0.001,10.615 0.207,11.236 0.619,11.679 C0.980,12.034 1.495,12.300 2.269,12.345 L10.569,12.433 C12.270,12.566 13.146,13.232 13.146,14.385 L13.146,16.071 L8.300,18.200 C8.146,18.244 8.094,18.377 8.197,18.510 L8.197,18.554 C8.300,18.687 8.403,18.732 8.558,18.687 L13.146,17.980 L13.146,31.772 C13.146,31.950 13.249,32.038 13.404,32.038 L13.455,32.038 L13.662,31.950 L13.765,31.817 L15.363,27.248 C15.414,27.159 15.517,27.115 15.672,27.115 L16.394,27.115 C16.548,27.115 16.651,27.159 16.703,27.248 L18.353,31.950 L18.610,32.038 C18.817,32.038 18.920,31.950 18.920,31.772 L18.920,17.981 L23.456,18.687 C23.662,18.732 23.765,18.687 23.869,18.554 L23.869,18.510 C23.972,18.377 23.920,18.244 23.765,18.200 L18.920,16.071 L18.920,14.385 C18.920,13.232 19.796,12.566 21.497,12.433 L29.797,12.345 C30.570,12.300 31.086,12.034 31.447,11.679 C31.859,11.236 32.014,10.615 32.014,9.772 L32.014,3.961 C32.014,3.207 31.962,2.497 31.807,1.876 ZM2.733,7.998 C2.733,7.155 3.094,6.445 3.815,5.824 C4.437,5.290 5.193,4.987 6.080,4.945 C5.860,5.057 5.662,5.349 5.465,5.824 C5.259,6.401 5.156,7.155 5.156,7.998 C5.156,8.840 5.259,9.594 5.465,10.171 C5.640,10.594 5.816,10.869 6.008,11.004 C5.152,10.956 4.420,10.687 3.815,10.127 C3.094,9.550 2.733,8.840 2.733,7.998 ZM8.816,10.127 C8.164,10.687 7.428,10.956 6.571,11.004 C6.763,10.869 6.939,10.594 7.115,10.171 C7.321,9.594 7.424,8.840 7.424,7.998 C7.424,7.155 7.321,6.401 7.115,5.824 C6.917,5.349 6.720,5.057 6.499,4.945 C7.387,4.987 8.146,5.290 8.816,5.824 C9.486,6.445 9.847,7.155 9.847,7.998 C9.847,8.840 9.486,9.550 8.816,10.127 ZM15.012,7.148 L15.389,7.022 L16.567,7.022 L16.944,7.148 C17.038,7.275 16.991,7.401 16.897,7.527 L16.190,8.915 C16.143,8.978 16.096,9.041 16.002,9.041 L15.813,8.915 L15.059,7.527 C14.964,7.401 14.964,7.275 15.012,7.148 ZM19.796,11.280 C19.538,11.590 18.971,11.768 18.146,11.768 C17.270,11.768 16.600,11.458 16.291,10.881 L16.239,10.837 L16.033,10.748 L15.981,10.748 L15.775,10.837 L15.724,10.881 C15.414,11.458 14.744,11.768 13.868,11.768 C13.043,11.768 12.476,11.590 12.218,11.280 L12.218,10.925 C12.527,11.147 12.940,11.280 13.559,11.324 C14.383,11.413 14.950,11.191 15.311,10.659 C15.466,10.393 15.621,9.994 15.621,9.417 L16.394,9.417 L16.445,9.905 C16.497,10.260 16.548,10.526 16.703,10.659 C17.064,11.191 17.631,11.413 18.456,11.324 C19.075,11.280 19.487,11.147 19.796,10.925 L19.796,11.280 ZM22.219,7.998 C22.219,7.155 22.528,6.445 23.250,5.824 C23.859,5.300 24.638,4.999 25.510,4.948 C25.294,5.061 25.108,5.353 24.951,5.824 C24.693,6.401 24.590,7.155 24.590,7.998 C24.590,8.840 24.693,9.594 24.951,10.171 C25.091,10.592 25.255,10.867 25.442,11.002 C24.598,10.947 23.843,10.676 23.250,10.127 C22.528,9.550 22.219,8.840 22.219,7.998 ZM28.250,10.127 C27.641,10.691 26.903,10.960 26.038,11.005 C26.243,10.870 26.409,10.595 26.550,10.171 C26.807,9.594 26.910,8.840 26.910,7.998 C26.910,7.155 26.807,6.401 26.550,5.824 C26.391,5.347 26.201,5.055 25.958,4.944 C26.857,4.981 27.623,5.284 28.250,5.824 C28.972,6.445 29.281,7.155 29.281,7.998 C29.281,8.840 28.972,9.550 28.250,10.127 Z" class="cls-1"/>
</svg>
