<?xml version="1.0" encoding="iso-8859-1"?>
<!-- Generator: Adobe Illustrator 18.0.0, SVG Export Plug-In . SVG Version: 6.00 Build 0)  -->
<!DOCTYPE svg PUBLIC "-//W3C//DTD SVG 1.1//EN" "http://www.w3.org/Graphics/SVG/1.1/DTD/svg11.dtd">
<svg version="1.1" id="&#x56FE;&#x5C42;_1" xmlns="http://www.w3.org/2000/svg" xmlns:xlink="http://www.w3.org/1999/xlink" x="0px"
	 y="0px" viewBox="0 0 120.738 123.551" style="enable-background:new 0 0 120.738 123.551;" xml:space="preserve">
<path style="fill:#5B5C5C;" d="M119.96,7.195c-0.972-3.25-2.333-5.475-4.472-6.501c-1.945-1.027-4.277-0.343-6.61,1.54l-3.695,3.764
	c-3.889,3.936-7.387,6.674-10.499,8.385c-4.472,2.395-9.527,3.592-15.166,3.592H41.413c-5.443,0-10.5-1.54-15.165-4.619
	c-2.14-1.54-5.639-4.792-10.5-9.582c-3.694-3.594-7.193-4.62-10.304-3.08c-2.139,1.026-3.5,3.251-4.471,6.501
	c-0.584,2.395-0.778,5.134-0.778,8.043v7.7H0v14.715c0,3.251,0.778,5.647,2.333,7.358c1.361,1.369,3.304,2.396,6.222,2.567
	l31.303,0.342c6.416,0.514,9.721,3.081,9.721,7.529v6.505l-18.277,8.21c-0.582,0.171-0.778,0.685-0.389,1.198v0.171
	c0.389,0.513,0.778,0.685,1.362,0.513l17.304-2.729v53.207c0,0.685,0.388,1.027,0.973,1.027h0.193l0.778-0.342l0.388-0.513
	l6.027-17.624c0.194-0.343,0.583-0.514,1.166-0.514h2.723c0.582,0,0.972,0.171,1.165,0.514l6.222,18.137l0.973,0.342
	c0.779,0,1.166-0.342,1.166-1.027V69.321l17.11,2.725c0.777,0.172,1.166,0,1.555-0.513v-0.171c0.389-0.513,0.194-1.027-0.389-1.198
	l-18.276-8.21v-6.505c0-4.449,3.305-7.015,9.722-7.529l31.303-0.342c2.916-0.171,4.86-1.198,6.222-2.567
	c1.554-1.711,2.138-4.106,2.138-7.358V15.238C120.738,12.329,120.544,9.59,119.96,7.195z M10.304,30.808
	c0-3.251,1.362-5.989,4.082-8.384c2.345-2.063,5.197-3.229,8.543-3.39c-0.832,0.43-1.576,1.556-2.32,3.39
	c-0.778,2.225-1.166,5.133-1.166,8.384c0,3.251,0.388,6.16,1.166,8.385c0.662,1.631,1.325,2.693,2.048,3.213
	c-3.229-0.184-5.989-1.223-8.271-3.384C11.666,36.797,10.304,34.06,10.304,30.808z M33.246,39.022
	c-2.456,2.161-5.232,3.2-8.464,3.384c0.723-0.52,1.387-1.582,2.049-3.213c0.778-2.225,1.165-5.133,1.165-8.385
	c0-3.251-0.388-6.159-1.165-8.384c-0.745-1.834-1.49-2.96-2.321-3.39c3.348,0.161,6.212,1.327,8.736,3.39
	c2.528,2.395,3.889,5.133,3.889,8.384C37.135,34.06,35.774,36.797,33.246,39.022z M56.384,28.241l1.555-0.342h4.861l1.555,0.342
	c0.389,0.343,0.194,0.685-0.194,1.027l-2.915,3.765c-0.196,0.171-0.39,0.342-0.778,0.342l-0.778-0.342l-3.111-3.765
	C56.188,28.926,56.188,28.584,56.384,28.241z M74.659,43.471c-0.973,1.197-3.11,1.882-6.221,1.882c-3.305,0-5.832-1.197-6.999-3.422
	l-0.193-0.17l-0.778-0.342h-0.194l-0.778,0.342l-0.194,0.17c-1.167,2.225-3.695,3.422-7,3.422c-3.11,0-5.249-0.684-6.222-1.882
	v-1.369c1.167,0.855,2.722,1.369,5.056,1.54c3.11,0.342,5.25-0.513,6.61-2.567c0.584-1.026,1.168-2.567,1.168-4.791h2.916
	l0.193,1.882c0.196,1.368,0.389,2.395,0.972,2.908c1.362,2.054,3.501,2.909,6.612,2.567c2.334-0.17,3.889-0.685,5.055-1.54V43.471z
	 M83.797,30.808c0-3.251,1.168-5.989,3.889-8.384c2.296-2.02,5.237-3.183,8.524-3.381c-0.815,0.438-1.518,1.563-2.109,3.381
	c-0.972,2.225-1.36,5.133-1.36,8.384c0,3.251,0.388,6.16,1.36,8.385c0.528,1.624,1.146,2.683,1.852,3.206
	c-3.185-0.214-6.031-1.258-8.268-3.377C84.964,36.797,83.797,34.06,83.797,30.808z M106.545,39.022
	c-2.297,2.178-5.083,3.215-8.344,3.387c0.773-0.519,1.398-1.582,1.929-3.215c0.972-2.225,1.36-5.133,1.36-8.385
	c0-3.251-0.388-6.159-1.36-8.384c-0.598-1.841-1.314-2.968-2.23-3.394c3.39,0.141,6.278,1.31,8.645,3.394
	c2.722,2.395,3.889,5.133,3.889,8.384C110.434,34.06,109.267,36.797,106.545,39.022z"/>
</svg>
