<svg xmlns="http://www.w3.org/2000/svg" xmlns:xlink="http://www.w3.org/1999/xlink" preserveAspectRatio="xMidYMid" width="33.031" height="32.156" viewBox="0 0 33.031 32.156">
  <defs>
    <style>
      .cls-1 {
        fill: #000;
        fill-rule: evenodd;
      }
    </style>
  </defs>
  <path d="M31.703,22.451 C30.861,16.748 23.657,12.410 21.923,11.046 C20.971,10.298 20.283,9.321 20.091,8.116 C19.712,5.740 21.392,3.517 23.844,3.150 C25.025,2.974 26.170,3.261 27.082,3.871 C27.896,4.416 28.960,5.514 29.535,6.225 C31.365,8.488 32.734,11.650 32.979,15.051 C33.270,18.766 32.011,21.933 31.703,22.451 ZM11.361,10.805 C10.593,11.734 9.591,12.405 8.356,12.591 C5.921,12.959 3.644,11.317 3.271,8.924 C3.090,7.770 3.385,6.652 4.012,5.763 C4.571,4.969 5.697,3.931 6.426,3.371 C8.747,1.586 11.989,0.252 15.474,0.016 C19.281,-0.264 22.527,0.967 23.057,1.269 C17.212,2.086 12.759,9.114 11.361,10.805 ZM11.088,21.322 C12.040,22.071 12.727,23.049 12.918,24.255 C13.295,26.630 11.612,28.852 9.160,29.217 C7.978,29.393 6.833,29.105 5.922,28.493 C5.108,27.947 4.045,26.849 3.471,26.137 C1.643,23.873 0.276,20.709 0.034,17.308 C-0.253,13.593 1.008,10.426 1.317,9.908 C2.154,15.612 9.355,19.957 11.088,21.322 ZM21.764,21.343 C22.532,20.414 23.533,19.742 24.769,19.555 C27.204,19.186 29.483,20.825 29.859,23.217 C30.041,24.370 29.746,25.487 29.120,26.376 C28.561,27.170 27.436,28.208 26.707,28.769 C24.388,30.555 21.145,31.891 17.659,32.129 C13.851,32.413 10.603,31.185 10.072,30.884 C15.919,30.063 20.367,23.034 21.764,21.343 Z" class="cls-1"/>
</svg>
