<?xml version="1.0" encoding="iso-8859-1"?>
<!-- Generator: Adobe Illustrator 18.0.0, SVG Export Plug-In . SVG Version: 6.00 Build 0)  -->
<!DOCTYPE svg PUBLIC "-//W3C//DTD SVG 1.1//EN" "http://www.w3.org/Graphics/SVG/1.1/DTD/svg11.dtd">
<svg version="1.1" id="&#x56FE;&#x5C42;_1" xmlns="http://www.w3.org/2000/svg" xmlns:xlink="http://www.w3.org/1999/xlink" x="0px"
	 y="0px" viewBox="0 0 123.8 77.527" style="enable-background:new 0 0 123.8 77.527;" xml:space="preserve">
<path style="fill:#5B5C5C;" d="M64.348,0c0.143,0,0.286,0,0.428,0c0.185,0.03,0.37,0.086,0.556,0.086
	c3.418-0.012,6.737,0.605,9.963,1.676c10.321,3.425,17.611,10.214,22.071,20.074c1.88,4.156,2.975,8.521,3.134,13.094
	c0.052,1.491,0.004,2.984,0.007,4.477c0,0.178,0.029,0.357,0.049,0.577c0.239-0.058,0.422-0.1,0.603-0.148
	c2.484-0.66,4.984-0.817,7.53-0.358c5.749,1.037,9.989,4.151,12.824,9.217c2.223,3.971,2.685,8.218,1.987,12.659
	c-0.886,5.637-3.727,9.99-8.61,12.918c-4.833,2.898-10.087,3.778-15.661,2.967c-3.881-0.564-7.506-1.792-10.727-4.028
	c-1.608-1.116-3.059-2.459-4.61-3.723c-6.113,4.316-12.962,6.991-20.564,7.767c-3.478,0.355-6.929,0.277-10.363-0.222
	c-4.565-0.664-8.947-1.99-13.089-4.051c-0.337-0.168-0.56-0.15-0.887,0.082c-5.293,3.76-11.171,5.153-17.575,4.144
	c-6.371-1.004-11.581-4.135-15.607-9.112c-5.107-6.313-6.641-13.654-5.394-21.533c1.191-7.521,5.156-13.429,11.43-17.731
	c4.628-3.174,9.765-4.879,15.412-4.893c1.797-0.004,3.594,0.066,5.454,0.103c-0.047,0.049-0.021,0.035-0.016,0.015
	c2.673-9.701,8.66-16.612,17.708-20.907c3.448-1.637,7.09-2.629,10.908-2.926C62.32,0.146,63.334,0.075,64.348,0z M44.305,67.107
	c0.177,0.099,0.256,0.154,0.343,0.19c3.38,1.402,6.873,2.334,10.518,2.779c3.478,0.425,6.93,0.316,10.338-0.357
	c8.472-1.675,15.62-5.701,20.922-12.587c5.77-7.493,8.117-15.973,6.445-25.372c-1.363-7.664-5.087-14.001-11.334-18.704
	c-6.341-4.774-13.527-6.674-21.38-5.401c-6.222,1.008-11.522,3.91-15.578,8.807c-4.654,5.618-6.532,12.093-5.275,19.299
	c0.91,5.221,3.457,9.629,7.659,12.935c4.16,3.273,8.931,4.766,14.224,4.187c3.462-0.379,6.618-1.678,9.262-3.988
	c4.47-3.905,6.484-8.81,5.245-14.685c-0.979-4.641-3.778-7.899-8.468-9.274c-3.571-1.047-7.462,0.134-9.573,2.849
	c-1.665,2.142-1.866,4.793-0.513,6.741c0.736,1.06,1.639,1.314,2.809,0.789c1.72-0.772,3.774-0.08,4.665,1.571
	c0.874,1.62,0.337,3.676-1.21,4.711c-3.599,2.407-8.515,1.298-11.388-1.958c-2.459-2.787-3.381-6.082-2.84-9.767
	c0.483-3.292,1.942-6.106,4.411-8.313c3.721-3.326,8.11-4.663,13.082-4.063c3.818,0.461,7.195,1.963,9.99,4.559
	c5.33,4.952,7.352,11.171,6.38,18.303c-0.655,4.803-2.783,9.007-6.209,12.453c-4.802,4.831-10.691,7.245-17.489,7.37
	c-3.941,0.072-7.704-0.811-11.292-2.441c-0.268-0.122-0.538-0.239-0.912-0.404C47.104,60.928,46.043,64.101,44.305,67.107z
	 M31.551,30.911c-2.495-0.502-6.824-0.315-9.776,0.653C12.66,34.552,7.428,41.24,6.834,50.609c-0.194,3.063,0.428,5.98,1.678,8.772
	c3.53,7.887,10.514,11.808,19.004,10.781c3.662-0.443,6.853-1.963,9.385-4.728c2.758-3.012,3.99-6.498,3.298-10.576
	c-1.035-6.091-6.661-10.187-12.702-9.161c-2.202,0.374-3.99,1.489-5.162,3.44c-1.059,1.764-0.743,3.998,0.628,5.452
	c0.997,1.058,3.25,1.555,5.028,0.27c0.733-0.53,1.675-0.522,2.541-0.259c2.255,0.686,3.071,3.93,1.43,5.692
	c-2.196,2.358-4.974,2.945-8.009,2.367c-7.793-1.484-11.079-9.671-8.106-16.027c2.508-5.362,8.738-8.277,14.505-7.893
	c0.717,0.048,1.433,0.113,2.034,0.162C32.104,36.202,31.829,33.574,31.551,30.911z M89.347,64.946
	c0.068,0.076,0.185,0.225,0.32,0.353c4.655,4.405,10.183,5.987,16.435,4.842c3.081-0.564,5.77-2.064,7.801-4.508
	c3.655-4.401,3.874-11.407-0.544-15.978c-1.834-1.898-4.018-2.984-6.664-3.289c-2.025-0.233-3.922,0.004-5.716,0.933
	c-1.663,0.861-2.678,2.759-2.474,4.469c0.208,1.736,1.409,3.171,3.083,3.622c0.97,0.261,1.914,0.033,2.864-0.214
	c1.13-0.294,2.222-0.189,3.137,0.629c1.882,1.685,1.435,4.59-0.971,5.783c-3.515,1.743-6.938,1.326-10.175-0.768
	c-0.845-0.547-1.571-1.279-2.284-1.871C92.573,60.925,90.973,62.919,89.347,64.946z"/>
</svg>
