<?xml version="1.0" encoding="iso-8859-1"?>
<!-- Generator: Adobe Illustrator 18.0.0, SVG Export Plug-In . SVG Version: 6.00 Build 0)  -->
<!DOCTYPE svg PUBLIC "-//W3C//DTD SVG 1.1//EN" "http://www.w3.org/Graphics/SVG/1.1/DTD/svg11.dtd">
<svg version="1.1" id="&#x56FE;&#x5C42;_1" xmlns="http://www.w3.org/2000/svg" xmlns:xlink="http://www.w3.org/1999/xlink" x="0px"
	 y="0px" viewBox="0 0 119.578 120.93" style="enable-background:new 0 0 119.578 120.93;" xml:space="preserve">
<path style="fill:#5B5C5C;" d="M101.634,29.713C91.177,21.41,77.733,18.007,64.967,14.741C54.782,12.154,50.98,11.61,44.325,7.527
	c-4.889-3.131-15.753-8.575-16.704-7.35c-1.086,1.089,2.309,4.764,3.667,9.256c2.037,6.397,0.407,11.57-4.753,15.517
	C14.585,34.069-1.033,49.994,0.054,72.045c1.494,30.081,28.926,50.907,62.469,48.729c33.679-2.178,56.358-23.956,57.037-54.037
	C119.967,52.172,113.585,39.513,101.634,29.713z M64.832,43.869c4.753-0.544,9.642,5.717,11.407,17.15
	c1.494,9.664-1.765,17.967-6.247,18.375c-3.124,0.408-5.975-2.722-8.012-8.031l5.16-5.445l5.568-5.717
	c0.543-0.408,0.407-0.681-0.272-0.817c-0.407,0-3.667-0.681-6.926-1.361l-6.383-1.361C58.992,49.178,61.165,44.414,64.832,43.869z
	 M104.078,73.134c-2.852,0.681-5.16-2.994-6.79-8.439c1.765-1.633,3.259-3.131,4.753-4.356c2.58-2.178,4.753-4.356,5.16-4.764
	c0.407-0.408,0.272-0.681-0.272-0.817c-0.407,0-3.123-0.408-5.975-0.953c-1.63-0.408-3.531-0.681-5.568-1.089
	c0-6.534,1.765-12.659,5.568-13.339c4.21-0.817,7.877,7.214,8.963,16.198C111.004,66.464,107.745,72.181,104.078,73.134z"/>
</svg>
