<?xml version="1.0" encoding="utf-8"?>
<!-- Generator: Adobe Illustrator 18.0.0, SVG Export Plug-In . SVG Version: 6.00 Build 0)  -->
<!DOCTYPE svg PUBLIC "-//W3C//DTD SVG 1.1//EN" "http://www.w3.org/Graphics/SVG/1.1/DTD/svg11.dtd">
<svg version="1.1" id="图层_1" xmlns="http://www.w3.org/2000/svg" xmlns:xlink="http://www.w3.org/1999/xlink" x="0px" y="0px"
	 viewBox="0 0 595.3 841.9" enable-background="new 0 0 595.3 841.9" xml:space="preserve">
<path fill="#5B5C5C" d="M322.9,611.4c-89.5,37.2-204.5,37-296-73.5c-0.6,0.6-2.3,1.4-1.4,3.4c20.6,50.2,78,133.7,191.4,164.8
	c44.8,12.3,104,19.6,178.1-5.6c23.2-7.9,48.8-21,69-35.3c25.9-18.3,42-36.9,47.2-42.5c10.1-11,17.5-34.8,6.3-57.9
	c-14-28.9-49.3-44.7-85.3-19.9C399.6,567.4,369.9,592.6,322.9,611.4z"/>
<path fill="#5B5C5C" d="M450.7,303.1c76.9,58.8,134,158.1,83.1,292.1c0.9,0.2,2.3,1.3,3.7-0.5c31.3-38.3,77.8-133.8,48.5-247.2
	c-11.6-44.7-34.6-99.6-93.4-150.9c-18.4-16.1-42.6-31.7-65.1-42c-28.8-13.2-52.9-17.9-60.5-18.9c-14.7-1.8-39.1,1.5-53.6,22.7
	c-18.2,26.4-14.5,64.8,25,83.5C374.2,258.9,410.8,271.9,450.7,303.1z"/>
<path fill="#5B5C5C" d="M120.3,342.9C135.1,247.6,195.2,150,337.7,130c-0.2-0.8,0-2.7-2.2-3c-48.7-7.2-155.4-3.5-241.2,76.6
	c-33.9,31.6-71.1,78.1-88.1,154.1c-5.3,23.7-7.4,52.3-5.7,77c2.2,31.5,9.7,54.9,11.9,62.2c4.1,14.3,20.7,33,46.3,35.6
	c32.1,3.2,64.1-18.5,61.6-62C118.1,430.9,112,392.7,120.3,342.9z"/>
<path fill="#5B5C5C" d="M395.6,405.1c0.6-16.9,1.6-107.1-93.2-106.6l0,0l0,0l0,0l0,0c-94.8-0.5-93.4,90.4-92.8,107.4
	c-17.5,20.3-29.4,69.4-24.7,70.1c11.4,1.8,19.2-4.1,24.7-10c3-3.3,3.4-2.4,4.4,0.5c1,2.7,10.1,20,12.8,24.1c2.3,3.4,1.6,5.2-2.5,6
	c-4.2,0.8-10,4.2-13.8,9.4c-6.3,8.5,0,17,12.8,21.1c37,11.9,65.2,0.4,67.6-1c0.6-0.4,5.3-1.8,6.3-2.2l5.1-0.3c3.9,0,6,0.8,6,0.8
	c2.7,0.7,4.2,1.5,7.2,2.5c2.6,0.9,32,12.1,68.2-0.5c11.8-4.1,17-11.7,11.7-19.2c-4.1-5.7-8.5-9.1-15.5-10.9
	c-3.5-0.9-4.1-1.8-2.1-4.5c2.7-3.8,11.4-20.8,12.5-23.5c1.1-2.6,2.1-5.8,4.5-2.4c4.5,6.4,17.2,13.5,25.2,10.1
	C427.4,472.7,410,424,395.6,405.1z"/>
</svg>
