<svg xmlns="http://www.w3.org/2000/svg" xmlns:xlink="http://www.w3.org/1999/xlink" preserveAspectRatio="xMidYMid" width="33" height="26" viewBox="0 0 33 26">
  <defs>
    <style>
      .cls-1 {
        fill: #000;
        fill-rule: evenodd;
      }
    </style>
  </defs>
  <path d="M27.081,9.323 C26.760,8.719 26.817,8.653 25.912,8.635 C23.097,8.579 22.254,7.339 21.819,4.850 C22.021,4.080 22.223,3.311 22.424,2.541 C23.030,2.593 23.588,2.127 23.262,3.763 C22.654,6.814 23.546,6.994 27.038,7.045 C27.420,7.051 27.706,6.964 27.775,7.403 C28.000,8.831 28.673,8.542 29.909,8.608 C30.796,8.656 30.160,9.329 30.084,9.739 C29.052,9.807 28.004,9.976 27.081,9.323 ZM5.215,3.584 C4.047,3.316 3.707,3.633 4.043,4.664 C5.974,10.603 5.882,16.604 4.439,22.896 C12.098,21.125 19.605,20.764 27.150,20.914 C28.435,20.940 28.874,20.742 28.422,19.383 C27.411,16.338 27.029,13.193 27.347,9.993 C28.268,10.646 29.316,10.477 30.348,10.408 C29.899,15.168 30.936,19.690 32.990,24.281 C22.078,22.102 11.604,23.702 0.893,26.004 C1.221,23.881 2.128,22.106 2.399,20.177 C3.262,14.013 2.185,7.653 0.445,1.764 C-0.110,-0.113 -0.476,-0.272 1.274,0.260 C7.615,2.190 15.174,2.750 21.800,2.459 C21.599,3.229 21.397,3.998 21.195,4.768 C15.834,4.788 10.470,4.786 5.215,3.584 Z" class="cls-1"/>
</svg>
