<svg xmlns="http://www.w3.org/2000/svg" xmlns:xlink="http://www.w3.org/1999/xlink" preserveAspectRatio="xMidYMid" width="36.969" height="35" viewBox="0 0 36.969 35">
  <defs>
    <style>
      .cls-1 {
        fill: #000;
        fill-rule: evenodd;
      }
    </style>
  </defs>
  <path d="M36.981,15.308 C36.979,15.323 36.977,15.338 36.974,15.352 C36.971,15.368 36.969,15.381 36.962,15.395 C36.960,15.409 36.952,15.425 36.949,15.439 C36.943,15.453 36.936,15.466 36.930,15.480 C36.922,15.495 36.913,15.509 36.907,15.523 C36.896,15.536 36.886,15.550 36.875,15.564 C36.864,15.577 36.853,15.592 36.839,15.603 C36.829,15.619 36.813,15.632 36.797,15.644 C36.779,15.658 36.762,15.672 36.743,15.682 C36.722,15.698 36.697,15.709 36.671,15.720 C36.567,15.757 36.452,15.758 36.328,15.701 L36.284,15.679 C36.238,15.661 36.202,15.642 36.161,15.621 L36.045,15.566 C36.004,15.547 35.967,15.527 35.927,15.509 C35.890,15.491 35.853,15.472 35.813,15.454 C35.778,15.435 35.740,15.416 35.705,15.398 C35.667,15.379 35.630,15.360 35.594,15.342 L35.485,15.286 L35.380,15.231 C35.348,15.213 35.311,15.196 35.275,15.175 L35.174,15.121 C35.144,15.102 35.109,15.084 35.073,15.066 L34.975,15.012 L34.879,14.957 L34.782,14.903 L34.690,14.849 L34.595,14.795 L34.505,14.741 L34.414,14.687 L34.327,14.634 L34.238,14.581 L34.153,14.528 L34.067,14.474 L33.986,14.422 C33.957,14.403 33.929,14.387 33.901,14.368 L33.820,14.315 L33.741,14.263 L33.659,14.210 L33.582,14.158 L33.506,14.106 L33.429,14.053 L33.354,14.000 L33.280,13.950 C33.255,13.932 33.231,13.916 33.204,13.898 L33.135,13.846 L33.063,13.793 L32.992,13.743 L32.923,13.691 L32.855,13.639 L32.784,13.588 L32.718,13.537 L32.655,13.486 L32.585,13.435 L32.521,13.383 C32.499,13.366 32.478,13.350 32.456,13.333 L32.393,13.282 L32.332,13.232 L32.269,13.180 L32.210,13.129 L32.146,13.078 C32.126,13.062 32.108,13.047 32.088,13.029 L32.027,12.978 L31.971,12.928 L31.911,12.877 L31.855,12.827 L31.797,12.776 L31.744,12.726 L31.689,12.677 L31.633,12.627 L31.579,12.577 L31.524,12.527 L31.474,12.478 L31.421,12.428 L31.370,12.378 L31.316,12.328 L31.268,12.279 L31.214,12.229 C31.198,12.213 31.184,12.197 31.170,12.179 L31.117,12.131 L31.072,12.081 L31.023,12.032 L30.975,11.983 L30.927,11.933 L30.881,11.884 C30.867,11.868 30.851,11.852 30.833,11.835 L30.789,11.786 L30.745,11.737 L30.702,11.689 L30.657,11.640 L30.614,11.590 L30.570,11.542 L30.529,11.493 L30.484,11.444 L30.442,11.396 L30.402,11.347 L30.362,11.299 L30.321,11.250 L30.283,11.202 L30.242,11.153 L30.202,11.107 L30.163,11.058 L30.127,11.009 L30.087,10.960 L30.049,10.911 L30.014,10.864 L29.976,10.816 L29.941,10.767 L29.904,10.721 L29.868,10.671 C29.856,10.655 29.845,10.640 29.835,10.624 L29.798,10.576 L29.763,10.529 L29.730,10.480 L29.699,10.432 L29.661,10.385 L29.630,10.337 L29.597,10.289 L29.566,10.242 L29.533,10.194 L29.503,10.146 C29.492,10.131 29.480,10.114 29.472,10.098 L29.440,10.051 L29.413,10.005 L29.380,9.956 L29.349,9.909 L29.319,9.862 L29.293,9.815 L29.263,9.768 L29.232,9.720 L29.206,9.673 L29.179,9.626 L29.147,9.578 L29.124,9.531 L29.098,9.484 L29.069,9.436 L29.041,9.389 L29.014,9.342 L28.992,9.295 L28.964,9.250 L28.938,9.202 L28.915,9.155 L28.910,9.147 L28.891,9.107 L28.866,9.061 L28.840,9.014 L28.817,8.967 L28.794,8.921 L28.771,8.874 L28.744,8.827 L28.721,8.781 L28.699,8.734 L28.677,8.687 L28.656,8.641 L28.630,8.595 L28.606,8.548 L28.588,8.500 L28.564,8.454 L28.546,8.409 L28.523,8.361 L28.500,8.314 L28.482,8.269 L28.460,8.222 L28.439,8.175 L28.419,8.130 L28.397,8.083 L28.379,8.037 L28.361,7.990 L28.342,7.943 L28.321,7.898 L28.303,7.850 L28.286,7.805 L28.265,7.758 L28.249,7.713 L28.231,7.667 L28.214,7.621 L28.197,7.574 L28.179,7.528 L28.162,7.482 L28.146,7.436 L28.143,7.432 C28.023,7.418 27.904,7.393 27.784,7.354 C27.730,7.337 27.675,7.316 27.618,7.293 C27.577,7.275 27.538,7.256 27.499,7.236 L27.470,7.222 C27.444,7.208 27.422,7.196 27.401,7.182 C27.371,7.164 27.343,7.147 27.313,7.128 C27.292,7.111 27.266,7.094 27.239,7.076 C27.218,7.059 27.196,7.041 27.173,7.026 C27.154,7.009 27.132,6.992 27.113,6.974 C27.095,6.958 27.076,6.940 27.058,6.924 C27.040,6.908 27.024,6.891 27.006,6.874 C26.994,6.859 26.976,6.843 26.962,6.826 C26.946,6.811 26.930,6.794 26.920,6.777 C26.905,6.762 26.891,6.744 26.878,6.728 C26.865,6.714 26.854,6.696 26.841,6.680 C26.828,6.665 26.815,6.648 26.806,6.632 C26.796,6.617 26.784,6.601 26.773,6.585 C26.765,6.569 26.754,6.553 26.743,6.538 C26.734,6.522 26.723,6.507 26.713,6.490 C26.705,6.474 26.696,6.458 26.690,6.443 C26.683,6.429 26.673,6.412 26.665,6.396 C26.656,6.380 26.649,6.365 26.640,6.350 C26.633,6.334 26.628,6.318 26.618,6.302 C26.613,6.287 26.606,6.272 26.598,6.257 C26.593,6.242 26.589,6.227 26.583,6.210 C26.577,6.195 26.571,6.180 26.564,6.164 C26.560,6.148 26.554,6.134 26.551,6.117 C26.545,6.103 26.538,6.088 26.535,6.073 C26.530,6.058 26.526,6.042 26.522,6.027 C26.517,6.011 26.513,5.996 26.511,5.981 C26.504,5.967 26.501,5.952 26.499,5.935 C26.495,5.921 26.492,5.906 26.491,5.891 C26.487,5.875 26.486,5.860 26.482,5.846 C26.481,5.830 26.477,5.816 26.475,5.801 C26.469,5.785 26.467,5.769 26.466,5.755 C26.465,5.740 26.464,5.725 26.461,5.711 C26.461,5.697 26.460,5.680 26.458,5.666 C26.458,5.652 26.457,5.636 26.457,5.621 C26.456,5.608 26.456,5.592 26.453,5.578 C26.453,5.561 26.453,5.548 26.453,5.531 C26.453,5.518 26.453,5.503 26.453,5.487 C26.453,5.473 26.453,5.458 26.453,5.445 C26.456,5.428 26.456,5.415 26.457,5.399 C26.457,5.386 26.458,5.371 26.458,5.355 C26.460,5.341 26.461,5.327 26.461,5.313 C26.464,5.297 26.465,5.283 26.466,5.268 C26.467,5.253 26.469,5.238 26.473,5.225 C26.477,5.210 26.477,5.196 26.481,5.181 C26.483,5.166 26.486,5.151 26.487,5.137 C26.491,5.123 26.494,5.109 26.495,5.093 C26.499,5.080 26.501,5.065 26.504,5.050 C26.509,5.037 26.513,5.023 26.517,5.007 C26.519,4.993 26.522,4.978 26.529,4.965 C26.534,4.951 26.535,4.936 26.539,4.921 C26.547,4.908 26.551,4.893 26.556,4.878 C26.560,4.865 26.564,4.851 26.571,4.837 C26.577,4.821 26.581,4.808 26.589,4.793 C26.592,4.780 26.597,4.765 26.603,4.751 C26.610,4.736 26.615,4.722 26.621,4.708 C26.631,4.694 26.635,4.681 26.643,4.666 C26.649,4.653 26.656,4.639 26.665,4.624 L26.673,4.602 L26.686,4.582 C26.693,4.567 26.699,4.553 26.708,4.540 C26.717,4.526 26.723,4.512 26.731,4.498 C26.741,4.485 26.751,4.472 26.756,4.455 C26.769,4.443 26.775,4.429 26.787,4.415 C26.794,4.401 26.805,4.388 26.814,4.375 C26.824,4.359 26.832,4.345 26.844,4.332 C26.854,4.319 26.865,4.305 26.877,4.291 C26.887,4.278 26.899,4.266 26.908,4.250 C26.921,4.237 26.930,4.223 26.945,4.211 C26.956,4.196 26.968,4.182 26.981,4.170 C26.996,4.156 27.006,4.142 27.022,4.130 C27.034,4.116 27.048,4.102 27.061,4.089 C27.076,4.076 27.092,4.063 27.104,4.049 C27.120,4.036 27.134,4.024 27.154,4.010 C27.168,3.998 27.186,3.983 27.200,3.972 C27.218,3.957 27.234,3.945 27.252,3.931 C27.269,3.919 27.287,3.906 27.308,3.893 C27.328,3.879 27.346,3.868 27.368,3.856 C27.388,3.842 27.409,3.830 27.430,3.818 C27.451,3.804 27.475,3.792 27.501,3.780 C27.527,3.767 27.547,3.755 27.573,3.743 C27.603,3.731 27.630,3.720 27.656,3.708 C27.690,3.696 27.720,3.684 27.749,3.674 C27.786,3.662 27.823,3.650 27.856,3.640 C27.898,3.629 27.942,3.617 27.986,3.610 C28.042,3.598 28.096,3.588 28.154,3.583 C28.419,3.552 28.692,3.579 28.959,3.666 C29.008,3.684 29.062,3.703 29.115,3.725 C29.155,3.744 29.197,3.762 29.234,3.783 L29.257,3.794 C29.283,3.809 29.308,3.822 29.333,3.838 C29.362,3.856 29.389,3.872 29.415,3.891 C29.442,3.908 29.468,3.925 29.491,3.944 C29.515,3.959 29.536,3.976 29.556,3.994 C29.578,4.011 29.597,4.027 29.620,4.045 C29.634,4.062 29.653,4.077 29.672,4.095 C29.690,4.112 29.708,4.127 29.721,4.144 C29.737,4.160 29.754,4.178 29.770,4.194 C29.784,4.209 29.798,4.224 29.813,4.241 C29.825,4.257 29.840,4.274 29.851,4.291 C29.864,4.306 29.877,4.322 29.890,4.337 C29.902,4.354 29.912,4.371 29.924,4.386 C29.937,4.401 29.945,4.418 29.955,4.434 C29.963,4.448 29.976,4.465 29.987,4.482 C29.996,4.496 30.006,4.513 30.014,4.529 C30.025,4.544 30.031,4.560 30.041,4.575 C30.049,4.592 30.057,4.606 30.064,4.621 C30.073,4.639 30.081,4.653 30.087,4.668 C30.094,4.684 30.102,4.701 30.111,4.716 C30.116,4.731 30.124,4.748 30.129,4.762 C30.134,4.778 30.145,4.792 30.147,4.808 C30.153,4.822 30.158,4.839 30.163,4.855 C30.168,4.869 30.175,4.884 30.181,4.900 C30.185,4.916 30.189,4.930 30.193,4.945 C30.198,4.961 30.202,4.976 30.208,4.992 C30.213,5.007 30.215,5.023 30.221,5.037 C30.223,5.052 30.226,5.068 30.230,5.082 C30.232,5.098 30.234,5.113 30.239,5.128 C30.243,5.143 30.248,5.159 30.249,5.173 C30.249,5.188 30.251,5.203 30.255,5.218 C30.259,5.233 30.259,5.248 30.261,5.262 C30.264,5.279 30.265,5.293 30.265,5.307 C30.266,5.323 30.266,5.339 30.269,5.353 C30.269,5.367 30.273,5.383 30.273,5.398 C30.276,5.412 30.276,5.427 30.276,5.443 C30.276,5.455 30.277,5.472 30.277,5.486 C30.277,5.502 30.277,5.515 30.277,5.531 C30.277,5.546 30.276,5.560 30.276,5.574 C30.276,5.589 30.276,5.605 30.273,5.619 C30.273,5.632 30.273,5.648 30.269,5.663 C30.266,5.677 30.266,5.692 30.266,5.707 C30.265,5.720 30.264,5.736 30.261,5.750 C30.259,5.766 30.259,5.779 30.255,5.795 C30.255,5.808 30.251,5.822 30.249,5.837 C30.248,5.852 30.248,5.868 30.242,5.882 C30.239,5.896 30.234,5.910 30.231,5.925 C30.230,5.940 30.226,5.954 30.223,5.969 C30.221,5.983 30.215,5.996 30.213,6.011 C30.208,6.026 30.202,6.040 30.198,6.054 C30.195,6.069 30.189,6.083 30.187,6.097 C30.183,6.111 30.177,6.126 30.172,6.140 C30.165,6.155 30.162,6.168 30.155,6.182 C30.151,6.197 30.147,6.211 30.143,6.225 C30.134,6.240 30.129,6.253 30.125,6.268 C30.119,6.282 30.112,6.296 30.107,6.309 C30.098,6.325 30.091,6.339 30.086,6.352 C30.077,6.366 30.073,6.380 30.064,6.395 L30.055,6.414 L30.041,6.437 C30.034,6.451 30.026,6.464 30.021,6.478 C30.013,6.493 30.003,6.507 29.995,6.520 C29.987,6.534 29.979,6.548 29.971,6.561 C29.959,6.576 29.951,6.590 29.942,6.604 C29.933,6.617 29.924,6.630 29.913,6.645 C29.904,6.658 29.893,6.671 29.883,6.686 C29.873,6.699 29.860,6.714 29.851,6.727 C29.840,6.740 29.830,6.755 29.817,6.768 C29.806,6.781 29.796,6.794 29.781,6.808 C29.770,6.822 29.757,6.835 29.745,6.848 C29.730,6.863 29.719,6.876 29.707,6.888 C29.692,6.903 29.681,6.916 29.665,6.930 C29.650,6.943 29.634,6.955 29.622,6.969 C29.606,6.983 29.590,6.995 29.574,7.009 C29.556,7.022 29.538,7.036 29.525,7.048 C29.508,7.061 29.490,7.075 29.473,7.088 C29.455,7.099 29.434,7.112 29.415,7.125 C29.397,7.138 29.379,7.150 29.359,7.163 C29.336,7.177 29.313,7.189 29.295,7.199 C29.273,7.213 29.247,7.225 29.223,7.238 C29.200,7.251 29.172,7.262 29.147,7.274 C29.121,7.287 29.093,7.300 29.066,7.309 L29.047,7.316 L29.060,7.354 L29.081,7.400 L29.100,7.447 L29.115,7.492 L29.132,7.538 L29.150,7.585 L29.171,7.631 L29.191,7.676 L29.207,7.723 L29.229,7.771 L29.249,7.816 L29.273,7.863 L29.293,7.909 L29.312,7.956 L29.333,8.001 L29.354,8.048 L29.377,8.096 L29.397,8.142 L29.419,8.189 L29.442,8.235 L29.466,8.282 L29.490,8.328 L29.511,8.374 L29.536,8.422 L29.559,8.468 L29.582,8.516 L29.608,8.563 L29.631,8.609 L29.658,8.656 L29.682,8.704 L29.708,8.750 L29.716,8.763 L29.733,8.796 L29.760,8.842 L29.787,8.891 L29.814,8.938 L29.842,8.986 L29.868,9.033 L29.895,9.079 L29.924,9.128 L29.951,9.174 L29.981,9.221 L30.011,9.269 L30.041,9.317 L30.069,9.363 L30.098,9.410 L30.129,9.458 L30.161,9.507 L30.191,9.552 L30.223,9.601 L30.255,9.648 L30.286,9.696 L30.320,9.743 L30.354,9.792 L30.384,9.840 L30.420,9.887 L30.455,9.935 L30.489,9.983 L30.520,10.031 L30.555,10.079 L30.591,10.127 L30.630,10.173 L30.665,10.222 L30.698,10.270 C30.711,10.286 30.727,10.302 30.736,10.319 L30.772,10.368 L30.811,10.416 L30.851,10.463 L30.889,10.512 L30.928,10.560 L30.968,10.609 L31.005,10.657 L31.048,10.704 L31.090,10.753 L31.131,10.802 L31.172,10.852 L31.213,10.900 L31.258,10.948 L31.300,10.997 L31.342,11.045 L31.387,11.095 L31.430,11.144 L31.477,11.193 L31.523,11.242 L31.570,11.290 L31.615,11.339 L31.660,11.388 L31.712,11.438 L31.758,11.489 L31.808,11.538 L31.856,11.588 L31.907,11.637 L31.957,11.686 L32.008,11.736 L32.059,11.785 L32.112,11.835 L32.163,11.885 L32.220,11.934 L32.272,11.985 L32.327,12.034 L32.384,12.084 L32.439,12.133 L32.493,12.184 L32.553,12.234 L32.609,12.285 L32.667,12.336 L32.728,12.387 L32.788,12.436 C32.808,12.454 32.831,12.471 32.848,12.488 L32.911,12.538 C32.933,12.554 32.952,12.572 32.972,12.589 L33.036,12.639 L33.101,12.691 L33.167,12.743 L33.231,12.793 L33.298,12.844 L33.367,12.894 C33.388,12.913 33.411,12.930 33.433,12.947 C33.456,12.964 33.480,12.980 33.502,12.998 L33.573,13.049 L33.644,13.101 L33.716,13.153 C33.741,13.172 33.762,13.188 33.787,13.206 L33.862,13.256 L33.935,13.309 L34.014,13.361 L34.090,13.413 L34.169,13.467 L34.247,13.519 L34.327,13.571 L34.407,13.624 L34.492,13.676 L34.575,13.728 C34.604,13.747 34.632,13.765 34.658,13.783 L34.746,13.835 L34.835,13.890 C34.864,13.907 34.894,13.926 34.924,13.943 L35.013,13.996 L35.107,14.051 L35.200,14.105 C35.233,14.123 35.264,14.140 35.292,14.158 L35.388,14.212 L35.488,14.268 L35.588,14.323 C35.622,14.341 35.656,14.359 35.689,14.377 C35.724,14.396 35.760,14.413 35.792,14.431 L35.899,14.487 L36.004,14.543 L36.115,14.598 C36.152,14.616 36.191,14.635 36.226,14.654 C36.264,14.673 36.300,14.691 36.336,14.710 C36.375,14.729 36.417,14.748 36.454,14.767 C36.493,14.786 36.532,14.805 36.570,14.823 C36.613,14.842 36.650,14.861 36.692,14.880 L36.743,14.905 C36.767,14.914 36.783,14.924 36.801,14.935 C36.828,14.951 36.847,14.968 36.868,14.986 C36.884,15.002 36.899,15.017 36.913,15.035 C36.923,15.050 36.932,15.066 36.941,15.083 C36.949,15.097 36.957,15.114 36.962,15.129 C36.966,15.144 36.971,15.159 36.974,15.174 C36.977,15.190 36.981,15.205 36.981,15.220 C36.983,15.235 36.984,15.249 36.984,15.264 C36.984,15.280 36.983,15.293 36.981,15.308 ZM32.502,9.647 C32.463,9.691 32.229,9.810 32.229,9.810 C31.793,9.809 31.719,9.525 31.733,9.295 C31.733,9.295 31.735,9.295 31.735,9.292 C31.735,9.292 31.735,9.292 31.733,9.292 C31.735,9.267 31.737,9.243 31.741,9.220 C31.779,9.049 31.941,8.839 31.941,8.839 C31.941,8.839 31.938,8.839 31.938,8.839 C32.146,8.585 32.335,8.310 32.493,8.007 C33.716,5.664 32.830,2.750 30.516,1.513 C28.202,0.274 25.328,1.173 24.104,3.517 C22.884,5.860 23.770,8.775 26.084,10.012 C26.849,10.423 27.675,10.596 28.486,10.564 L28.486,10.563 C28.504,10.563 28.528,10.561 28.547,10.560 C28.643,10.560 28.840,10.580 29.025,10.738 L29.025,10.737 C29.171,10.952 29.278,11.287 28.756,11.510 C27.712,11.595 26.632,11.393 25.641,10.863 C22.866,9.377 21.799,5.881 23.266,3.067 C24.730,0.255 28.181,-0.822 30.959,0.662 C33.731,2.147 34.800,5.644 33.333,8.457 C33.101,8.898 32.821,9.295 32.502,9.647 ZM10.682,22.798 C9.757,22.798 8.860,22.674 8.005,22.447 C7.898,22.419 7.494,22.130 7.494,22.130 C7.116,21.394 7.519,21.024 7.907,20.847 L7.908,20.846 C7.911,20.845 7.911,20.843 7.913,20.843 C7.958,20.822 7.997,20.807 8.038,20.793 C8.349,20.705 8.836,20.793 8.836,20.793 L8.836,20.791 C9.431,20.920 10.048,20.994 10.682,20.994 C15.592,20.994 19.586,16.946 19.586,11.970 C19.586,6.995 15.592,2.948 10.682,2.948 C5.772,2.948 1.777,6.995 1.777,11.970 C1.777,13.618 2.217,15.163 2.981,16.493 L2.981,16.495 C2.981,16.495 2.981,16.496 2.982,16.496 C3.002,16.530 3.021,16.563 3.042,16.596 C3.127,16.760 3.266,17.108 3.168,17.554 L3.169,17.554 C2.947,17.985 2.491,18.461 1.669,17.778 C0.612,16.097 -0.003,14.107 -0.003,11.970 C-0.003,6.001 4.789,1.142 10.682,1.142 C16.574,1.142 21.366,6.001 21.366,11.970 C21.366,17.942 16.574,22.798 10.682,22.798 ZM1.386,31.311 L1.389,31.100 L1.394,30.892 L1.398,30.686 L1.408,30.483 L1.416,30.282 L1.424,30.082 L1.432,29.886 L1.446,29.694 L1.457,29.502 L1.472,29.313 L1.484,29.126 C1.487,29.063 1.493,29.002 1.496,28.940 L1.510,28.757 L1.527,28.575 L1.544,28.396 L1.561,28.219 L1.581,28.043 L1.599,27.869 L1.617,27.696 L1.637,27.526 C1.645,27.471 1.651,27.413 1.659,27.357 L1.681,27.190 L1.701,27.025 L1.726,26.860 L1.748,26.698 L1.772,26.536 L1.797,26.377 L1.823,26.220 L1.848,26.063 L1.872,25.907 L1.901,25.754 C1.909,25.704 1.920,25.653 1.927,25.601 L1.954,25.450 L1.982,25.301 L2.015,25.154 L2.041,25.005 L2.070,24.859 C2.082,24.811 2.092,24.762 2.102,24.713 L2.129,24.570 L2.163,24.428 L2.197,24.288 L2.229,24.146 L2.261,24.007 L2.293,23.870 L2.329,23.733 L2.360,23.597 L2.395,23.463 L2.431,23.328 L2.466,23.196 L2.501,23.064 L2.538,22.935 L2.572,22.806 L2.608,22.676 L2.648,22.549 C2.659,22.506 2.672,22.464 2.683,22.422 L2.721,22.297 L2.761,22.171 L2.799,22.049 L2.841,21.925 L2.876,21.804 L2.918,21.683 C2.934,21.644 2.946,21.602 2.959,21.562 L2.998,21.443 L3.042,21.324 L3.082,21.207 L3.122,21.090 L3.164,20.974 L3.206,20.859 L3.249,20.744 L3.292,20.632 L3.334,20.518 L3.380,20.407 L3.422,20.294 L3.466,20.184 L3.510,20.074 L3.554,19.966 L3.600,19.858 L3.646,19.751 L3.691,19.644 L3.736,19.538 L3.782,19.433 L3.828,19.328 L3.875,19.223 L3.921,19.120 L3.969,19.018 L4.016,18.915 C4.033,18.882 4.050,18.849 4.065,18.813 L4.112,18.714 L4.161,18.614 L4.210,18.517 L4.258,18.418 L4.308,18.319 L4.356,18.222 L4.406,18.126 L4.456,18.029 L4.508,17.934 L4.554,17.839 C4.572,17.808 4.589,17.776 4.607,17.744 L4.656,17.650 L4.708,17.559 L4.759,17.466 L4.810,17.373 L4.859,17.282 L4.916,17.192 L4.968,17.103 L5.019,17.012 L5.073,16.923 L5.125,16.836 L5.177,16.748 L5.230,16.660 L5.284,16.573 L5.339,16.487 L5.390,16.403 L5.448,16.317 L5.499,16.231 L5.555,16.148 L5.610,16.064 L5.663,15.981 L5.673,15.966 L5.717,15.898 L5.775,15.817 L5.831,15.733 L5.886,15.652 L5.943,15.571 L5.997,15.490 L6.056,15.409 L6.108,15.329 L6.166,15.249 L6.222,15.171 L6.277,15.091 L6.334,15.013 L6.393,14.934 L6.448,14.857 L6.507,14.778 L6.564,14.703 L6.621,14.625 L6.679,14.549 L6.735,14.474 L6.794,14.399 L6.853,14.323 L6.911,14.247 L6.970,14.174 L7.028,14.100 L7.086,14.027 L7.145,13.954 L7.205,13.881 L7.264,13.810 L7.323,13.737 L7.385,13.665 L7.445,13.595 L7.503,13.524 L7.563,13.454 L7.623,13.385 L7.683,13.316 L7.745,13.247 L7.804,13.179 L7.810,13.175 C7.728,12.957 7.665,12.732 7.623,12.500 C7.603,12.391 7.588,12.281 7.579,12.170 C7.568,12.085 7.566,12.001 7.566,11.915 L7.563,11.858 C7.563,11.806 7.566,11.754 7.568,11.701 C7.568,11.639 7.576,11.577 7.581,11.512 C7.587,11.455 7.593,11.398 7.601,11.342 C7.607,11.289 7.619,11.237 7.627,11.185 C7.637,11.136 7.647,11.088 7.657,11.040 C7.666,10.994 7.677,10.948 7.690,10.904 C7.700,10.859 7.717,10.818 7.728,10.775 C7.740,10.735 7.754,10.693 7.767,10.652 C7.781,10.614 7.794,10.576 7.806,10.538 C7.823,10.500 7.836,10.465 7.856,10.428 C7.870,10.393 7.883,10.358 7.899,10.324 C7.916,10.290 7.932,10.256 7.946,10.222 C7.964,10.190 7.980,10.159 7.997,10.127 C8.013,10.096 8.031,10.065 8.048,10.034 C8.066,10.005 8.083,9.975 8.102,9.946 C8.120,9.916 8.135,9.889 8.154,9.859 C8.172,9.833 8.192,9.805 8.210,9.777 C8.229,9.751 8.247,9.723 8.266,9.698 C8.285,9.673 8.303,9.646 8.324,9.621 C8.343,9.596 8.363,9.572 8.383,9.547 C8.401,9.525 8.421,9.499 8.444,9.476 C8.462,9.454 8.482,9.429 8.506,9.407 C8.520,9.385 8.541,9.362 8.566,9.340 C8.585,9.318 8.606,9.297 8.624,9.275 C8.648,9.255 8.670,9.234 8.691,9.214 C8.711,9.193 8.733,9.173 8.754,9.154 C8.776,9.134 8.797,9.115 8.818,9.097 C8.840,9.078 8.864,9.058 8.885,9.040 C8.908,9.022 8.926,9.004 8.951,8.986 C8.976,8.969 8.997,8.951 9.019,8.935 C9.040,8.917 9.063,8.900 9.089,8.884 C9.111,8.869 9.133,8.852 9.157,8.837 C9.179,8.821 9.202,8.805 9.227,8.790 C9.248,8.775 9.270,8.760 9.298,8.745 C9.323,8.732 9.344,8.717 9.366,8.704 C9.389,8.689 9.418,8.675 9.439,8.662 C9.462,8.650 9.488,8.635 9.514,8.623 C9.536,8.612 9.560,8.598 9.587,8.586 C9.610,8.574 9.635,8.563 9.657,8.551 C9.685,8.538 9.708,8.529 9.733,8.517 C9.758,8.506 9.784,8.496 9.809,8.486 C9.835,8.475 9.861,8.466 9.885,8.455 C9.908,8.446 9.936,8.436 9.962,8.427 C9.987,8.417 10.013,8.409 10.039,8.401 C10.065,8.392 10.091,8.383 10.117,8.374 C10.142,8.367 10.170,8.360 10.196,8.352 C10.225,8.344 10.248,8.338 10.276,8.331 C10.300,8.324 10.330,8.318 10.356,8.311 C10.384,8.305 10.410,8.300 10.438,8.294 C10.465,8.288 10.490,8.283 10.517,8.279 C10.545,8.273 10.575,8.269 10.602,8.264 C10.630,8.260 10.656,8.256 10.683,8.253 C10.711,8.247 10.740,8.245 10.769,8.242 C10.795,8.239 10.822,8.236 10.853,8.234 C10.882,8.231 10.910,8.228 10.940,8.227 C10.967,8.226 10.996,8.224 11.023,8.223 C11.052,8.222 11.084,8.222 11.114,8.221 L11.157,8.221 L11.201,8.221 C11.227,8.222 11.257,8.222 11.290,8.224 C11.319,8.225 11.349,8.226 11.379,8.228 C11.412,8.229 11.438,8.232 11.469,8.235 C11.501,8.238 11.532,8.241 11.562,8.243 C11.592,8.247 11.626,8.252 11.655,8.256 C11.687,8.260 11.719,8.264 11.746,8.270 C11.778,8.275 11.812,8.282 11.843,8.288 C11.874,8.294 11.907,8.300 11.938,8.309 C11.971,8.314 12.005,8.323 12.036,8.331 C12.069,8.340 12.104,8.350 12.137,8.358 C12.170,8.367 12.204,8.378 12.238,8.389 C12.269,8.399 12.303,8.411 12.339,8.423 C12.371,8.435 12.404,8.447 12.442,8.462 C12.477,8.475 12.510,8.488 12.546,8.503 C12.584,8.520 12.617,8.534 12.652,8.551 C12.688,8.569 12.725,8.586 12.762,8.605 C12.800,8.623 12.839,8.643 12.876,8.664 C12.914,8.684 12.950,8.708 12.988,8.730 C13.029,8.754 13.067,8.779 13.106,8.803 C13.149,8.831 13.188,8.859 13.226,8.889 C13.271,8.917 13.313,8.949 13.350,8.982 C13.397,9.017 13.439,9.053 13.485,9.089 C13.532,9.132 13.576,9.172 13.625,9.216 C13.673,9.264 13.724,9.314 13.770,9.366 C13.827,9.427 13.881,9.490 13.935,9.555 C14.000,9.637 14.064,9.724 14.129,9.815 C14.408,10.234 14.603,10.717 14.692,11.238 C14.710,11.344 14.723,11.451 14.732,11.559 C14.740,11.642 14.741,11.725 14.745,11.808 L14.748,11.858 C14.748,11.913 14.745,11.967 14.740,12.021 C14.739,12.084 14.733,12.148 14.727,12.210 C14.723,12.267 14.716,12.325 14.710,12.380 C14.698,12.433 14.690,12.485 14.681,12.538 C14.672,12.586 14.662,12.635 14.654,12.683 C14.643,12.727 14.629,12.773 14.618,12.818 C14.608,12.862 14.594,12.903 14.582,12.947 C14.567,12.987 14.556,13.027 14.542,13.067 C14.526,13.106 14.515,13.144 14.500,13.183 C14.485,13.219 14.471,13.255 14.455,13.292 C14.440,13.327 14.425,13.362 14.409,13.396 C14.391,13.431 14.378,13.464 14.360,13.497 C14.346,13.529 14.327,13.560 14.311,13.594 C14.295,13.624 14.275,13.655 14.260,13.685 C14.244,13.714 14.226,13.745 14.208,13.774 C14.191,13.803 14.170,13.831 14.153,13.859 C14.137,13.888 14.115,13.914 14.098,13.942 C14.079,13.969 14.061,13.995 14.042,14.021 C14.025,14.047 14.003,14.073 13.983,14.097 C13.965,14.123 13.944,14.148 13.925,14.172 C13.907,14.194 13.884,14.220 13.864,14.243 C13.846,14.265 13.826,14.290 13.805,14.312 C13.784,14.334 13.765,14.356 13.742,14.378 C13.724,14.400 13.702,14.422 13.680,14.443 C13.659,14.463 13.638,14.484 13.618,14.505 C13.595,14.525 13.575,14.545 13.553,14.564 C13.532,14.584 13.510,14.603 13.490,14.622 C13.468,14.641 13.443,14.660 13.422,14.677 C13.401,14.696 13.379,14.715 13.358,14.731 C13.332,14.749 13.313,14.769 13.289,14.784 C13.265,14.801 13.245,14.818 13.221,14.833 C13.196,14.849 13.175,14.866 13.151,14.881 C13.127,14.897 13.106,14.912 13.081,14.928 C13.057,14.942 13.034,14.958 13.012,14.973 C12.988,14.986 12.963,15.000 12.941,15.015 C12.916,15.029 12.894,15.042 12.866,15.055 C12.844,15.068 12.820,15.082 12.795,15.095 C12.772,15.105 12.746,15.119 12.722,15.132 C12.698,15.142 12.674,15.154 12.647,15.166 C12.623,15.179 12.601,15.190 12.575,15.199 C12.550,15.211 12.524,15.222 12.498,15.233 C12.475,15.242 12.448,15.252 12.422,15.262 C12.396,15.271 12.371,15.281 12.345,15.290 C12.319,15.301 12.295,15.308 12.269,15.317 C12.243,15.326 12.218,15.334 12.191,15.342 C12.165,15.351 12.140,15.357 12.110,15.365 C12.084,15.372 12.061,15.379 12.031,15.387 C12.005,15.394 11.978,15.399 11.952,15.405 C11.925,15.412 11.897,15.416 11.870,15.424 C11.844,15.429 11.814,15.434 11.789,15.439 C11.761,15.444 11.735,15.448 11.705,15.454 C11.679,15.458 11.652,15.461 11.623,15.465 C11.593,15.468 11.566,15.472 11.539,15.475 C11.513,15.478 11.483,15.480 11.453,15.483 C11.427,15.485 11.396,15.487 11.368,15.489 C11.338,15.491 11.311,15.492 11.282,15.493 C11.252,15.494 11.222,15.495 11.196,15.495 L11.157,15.496 L11.107,15.495 C11.076,15.495 11.047,15.494 11.019,15.493 C10.987,15.492 10.957,15.490 10.927,15.488 C10.897,15.486 10.869,15.483 10.836,15.480 C10.806,15.478 10.777,15.475 10.743,15.472 C10.715,15.467 10.682,15.464 10.653,15.460 C10.619,15.456 10.588,15.450 10.557,15.446 C10.525,15.440 10.498,15.434 10.465,15.427 C10.431,15.421 10.398,15.414 10.367,15.408 C10.334,15.399 10.300,15.391 10.270,15.382 C10.236,15.375 10.201,15.365 10.170,15.356 C10.136,15.347 10.102,15.337 10.072,15.325 C10.036,15.313 10.001,15.302 9.968,15.290 C9.934,15.278 9.899,15.267 9.864,15.250 C9.829,15.237 9.793,15.223 9.758,15.209 C9.724,15.193 9.689,15.175 9.653,15.161 C9.617,15.142 9.579,15.123 9.541,15.105 C9.502,15.086 9.465,15.066 9.430,15.046 C9.392,15.025 9.353,15.000 9.317,14.980 C9.274,14.955 9.235,14.929 9.196,14.905 C9.157,14.877 9.116,14.848 9.078,14.819 C9.032,14.788 8.992,14.756 8.950,14.723 C8.905,14.689 8.860,14.652 8.818,14.614 L8.793,14.592 L8.744,14.648 L8.682,14.719 L8.623,14.788 L8.566,14.859 L8.506,14.930 L8.444,15.003 L8.385,15.075 L8.326,15.149 L8.267,15.222 L8.209,15.297 L8.150,15.370 L8.094,15.446 L8.035,15.522 L7.976,15.597 L7.920,15.672 L7.862,15.750 L7.804,15.827 L7.750,15.904 L7.690,15.983 L7.632,16.062 L7.579,16.141 L7.523,16.220 L7.465,16.302 L7.410,16.382 L7.354,16.463 L7.299,16.545 L7.245,16.627 L7.188,16.711 L7.132,16.793 L7.077,16.876 L7.024,16.960 L7.009,16.985 L6.970,17.045 L6.917,17.131 L6.861,17.216 L6.809,17.304 L6.754,17.391 L6.703,17.477 L6.647,17.565 L6.598,17.655 L6.543,17.743 L6.492,17.834 L6.440,17.923 L6.386,18.015 L6.334,18.107 L6.284,18.197 L6.232,18.292 L6.181,18.384 L6.132,18.479 L6.082,18.573 L6.030,18.668 L5.984,18.763 L5.933,18.859 L5.883,18.956 L5.832,19.055 L5.785,19.153 L5.735,19.250 L5.686,19.351 L5.639,19.451 L5.593,19.551 L5.543,19.654 L5.495,19.755 L5.449,19.858 L5.402,19.962 C5.386,19.997 5.372,20.031 5.356,20.067 L5.310,20.172 L5.264,20.278 L5.219,20.384 L5.173,20.492 L5.128,20.600 L5.083,20.708 L5.040,20.818 L4.995,20.928 L4.951,21.041 L4.908,21.152 L4.865,21.264 L4.823,21.379 L4.780,21.492 L4.741,21.609 L4.695,21.723 L4.654,21.841 L4.614,21.959 L4.572,22.079 L4.533,22.197 L4.494,22.318 L4.452,22.441 L4.414,22.561 L4.374,22.686 L4.337,22.810 L4.300,22.935 L4.260,23.061 L4.223,23.190 L4.189,23.316 L4.151,23.447 L4.114,23.577 L4.077,23.709 L4.041,23.841 L4.009,23.974 L3.973,24.108 L3.941,24.244 L3.905,24.381 L3.873,24.519 L3.839,24.659 L3.807,24.799 L3.780,24.942 L3.746,25.085 L3.717,25.228 L3.686,25.374 C3.678,25.423 3.666,25.472 3.657,25.521 L3.628,25.670 C3.618,25.719 3.607,25.769 3.597,25.820 L3.573,25.969 L3.544,26.122 L3.516,26.275 L3.490,26.431 L3.466,26.587 L3.441,26.747 C3.432,26.799 3.422,26.853 3.415,26.905 C3.407,26.959 3.398,27.013 3.391,27.066 L3.369,27.230 L3.346,27.395 L3.325,27.561 C3.317,27.616 3.312,27.673 3.303,27.730 L3.282,27.900 L3.263,28.070 L3.246,28.244 L3.225,28.420 L3.207,28.596 L3.194,28.776 L3.176,28.957 L3.161,29.140 L3.148,29.326 L3.135,29.511 C3.129,29.576 3.125,29.639 3.121,29.704 L3.109,29.894 L3.101,30.089 C3.096,30.155 3.091,30.221 3.089,30.286 L3.083,30.485 L3.074,30.687 L3.067,30.892 C3.066,30.960 3.063,31.030 3.063,31.097 L3.058,31.308 L3.055,31.520 L3.052,31.736 C3.052,31.810 3.052,31.881 3.052,31.955 C3.052,32.030 3.052,32.102 3.052,32.179 L3.054,32.404 L3.058,32.632 L3.061,32.863 C3.063,32.942 3.066,33.021 3.067,33.099 C3.067,33.179 3.071,33.259 3.074,33.338 C3.078,33.419 3.082,33.501 3.083,33.582 C3.086,33.664 3.091,33.748 3.093,33.831 C3.100,33.914 3.103,33.999 3.107,34.082 L3.112,34.192 C3.117,34.233 3.113,34.276 3.112,34.315 C3.109,34.371 3.100,34.422 3.086,34.472 C3.074,34.512 3.061,34.550 3.046,34.587 C3.028,34.619 3.012,34.650 2.993,34.678 C2.974,34.706 2.955,34.731 2.934,34.753 C2.916,34.777 2.892,34.796 2.872,34.816 C2.850,34.834 2.828,34.852 2.803,34.867 C2.780,34.883 2.755,34.897 2.735,34.909 C2.710,34.923 2.682,34.934 2.659,34.944 C2.635,34.954 2.606,34.963 2.580,34.971 C2.556,34.978 2.529,34.985 2.501,34.990 C2.471,34.995 2.442,34.999 2.416,35.002 C2.389,35.004 2.360,35.007 2.333,35.007 C2.300,35.007 2.271,35.005 2.241,35.003 C2.210,35.001 2.178,34.995 2.151,34.990 C2.117,34.984 2.084,34.976 2.050,34.968 C2.016,34.955 1.982,34.944 1.950,34.930 C1.912,34.914 1.872,34.895 1.834,34.873 C1.795,34.847 1.752,34.814 1.710,34.781 C1.561,34.643 1.457,34.447 1.444,34.192 L1.440,34.094 C1.432,34.009 1.428,33.925 1.425,33.840 L1.416,33.592 C1.412,33.512 1.408,33.429 1.406,33.349 C1.404,33.268 1.398,33.190 1.397,33.109 C1.397,33.031 1.394,32.951 1.391,32.873 C1.390,32.795 1.389,32.718 1.387,32.639 L1.383,32.410 L1.382,32.184 C1.382,32.110 1.382,32.035 1.382,31.961 L1.382,31.742 C1.382,31.670 1.382,31.597 1.383,31.525 L1.386,31.311 Z" class="cls-1"/>
</svg>
