<?xml version="1.0" encoding="utf-8"?>
<!-- Generator: Adobe Illustrator 18.0.0, SVG Export Plug-In . SVG Version: 6.00 Build 0)  -->
<!DOCTYPE svg PUBLIC "-//W3C//DTD SVG 1.1//EN" "http://www.w3.org/Graphics/SVG/1.1/DTD/svg11.dtd">
<svg version="1.1" id="图层_1" xmlns="http://www.w3.org/2000/svg" xmlns:xlink="http://www.w3.org/1999/xlink" x="0px" y="0px"
	 viewBox="0 0 595.3 841.9" enable-background="new 0 0 595.3 841.9" xml:space="preserve">
<path fill="#5B5C5C" d="M260.3,203.3c-43.3-90.6-215.4-32.5-176.7,60c-0.3,0,216.3,131.3,216.3,131.3
	C294.7,364,285.9,256.9,260.3,203.3"/>
<path fill="#5B5C5C" d="M279.9,392.9l20,1.6L83.6,263.3c-127-3.6-90,138.3-16,144.6C148.6,414.7,185,384.7,279.9,392.9"/>
<path fill="#5B5C5C" d="M258.1,406.3c-6.4,0.4-174.7,16-199.3,111.1c-17.9,69.2,24.1,122.8,94,108.5L300,403.7L258.1,406.3z"/>
<path fill="#5B5C5C" d="M300,403.7c0,0-147.5,222.2-147.2,222.1c20.3,123.8,162,85.3,176.3,9.4c14.3-75.8-15.4-129.8-24.1-182.8
	C299.4,419,300,403.7,300,403.7"/>
<path fill="#5B5C5C" d="M534.1,397.5c-67.5-17.7-97.7-10.2-184.3,1.8l-38.7,4.3l195.7,133.7C618.7,562.3,620.6,420.2,534.1,397.5"/>
<path fill="#5B5C5C" d="M378.3,598.1c35.5,70.3,174,26.3,128.5-60.8c0.3,0.1-195.7-133.7-195.7-133.7
	C313.9,414.2,344.4,530.7,378.3,598.1"/>
<path fill="#5B5C5C" d="M513.7,345.9c82.7-55.6,16.7-196.8-71.7-142L310.7,394.5c0,0,19.8-6.9,45.9-12.8
	C423.6,366.6,479,369.3,513.7,345.9"/>
<path fill="#5B5C5C" d="M442,203.9c10.9-98.5-130.5-82.3-136.7,1.3c-5.8,79,5.4,189.3,5.4,189.3S442.5,203.6,442,203.9"/>
<path fill="#5B5C5C" d="M67.6,407.8c39.8,3.4,68.8-2.1,99.3-7.6c31.6-5.7,64.7-11.4,113-7.3l20,1.6L83.6,263.3
	c-1.6,0-3.2-0.1-4.7-0.1C-42.5,263.2-5.5,401.6,67.6,407.8"/>
<path fill="#5B5C5C" d="M152.8,625.8c20.3,123.8,162,85.3,176.3,9.4c14.3-75.8-15.4-129.8-24.1-182.7c-5.5-33.5-5-48.8-5-48.8
	S152.5,625.9,152.8,625.8"/>
<path fill="#5B5C5C" d="M349.8,399.3l-38.7,4.3l195.7,133.7c111.9,25,113.8-117.1,27.3-139.8C505.4,390,483.4,387,461,387
	C430.7,387,399.6,392.4,349.8,399.3"/>
<path fill="#5B5C5C" d="M305.4,205.1c-5.8,79,5.4,189.3,5.4,189.3S442.5,203.6,442,203.9c5.2-46.9-24.2-67.8-57-67.8
	C348.9,136.1,308.6,161.4,305.4,205.1"/>
</svg>
