<svg xmlns="http://www.w3.org/2000/svg" xmlns:xlink="http://www.w3.org/1999/xlink" preserveAspectRatio="xMidYMid" width="36" height="36.25" viewBox="0 0 36 36.25">
  <defs>
    <style>
      .cls-1 {
        fill: #000;
        fill-rule: evenodd;
      }
    </style>
  </defs>
  <path d="M24.000,1.125 C24.000,1.125 17.655,-1.449 11.000,1.125 L24.000,14.125 L24.000,1.125 ZM9.889,2.049 C9.889,2.049 4.484,4.559 1.602,11.072 L19.000,11.125 L9.889,2.049 ZM25.000,2.125 L25.167,19.001 L34.125,10.386 C34.125,10.386 31.531,4.997 25.000,2.125 ZM1.000,12.125 C1.000,12.125 -1.381,18.124 1.203,24.760 L14.000,12.125 L1.000,12.125 ZM10.858,34.676 L10.858,17.275 L2.000,26.125 C2.000,26.125 4.328,31.804 10.858,34.676 ZM26.000,34.125 C26.000,34.125 32.118,31.638 35.000,25.125 L17.000,25.125 L26.000,34.125 ZM34.814,11.601 L22.482,23.994 L35.010,23.994 C35.010,23.994 37.397,18.237 34.814,11.601 ZM12.000,35.125 C12.000,35.125 18.345,37.699 25.000,35.125 L12.000,22.125 L12.000,35.125 Z" class="cls-1"/>
</svg>
