<?xml version="1.0" encoding="iso-8859-1"?>
<!-- Generator: Adobe Illustrator 18.0.0, SVG Export Plug-In . SVG Version: 6.00 Build 0)  -->
<!DOCTYPE svg PUBLIC "-//W3C//DTD SVG 1.1//EN" "http://www.w3.org/Graphics/SVG/1.1/DTD/svg11.dtd">
<svg version="1.1" id="&#x56FE;&#x5C42;_1" xmlns="http://www.w3.org/2000/svg" xmlns:xlink="http://www.w3.org/1999/xlink" x="0px"
	 y="0px" viewBox="0 0 119.435 96.045" style="enable-background:new 0 0 119.435 96.045;" xml:space="preserve">
<path style="fill-rule:evenodd;clip-rule:evenodd;fill:none;" d="M80.855,29.059c1.369,0,2.725,0.099,4.07,0.244
	C81.268,12.492,63.058,0,42.271,0C19.032,0,0,15.636,0,35.493c0,11.457,6.329,20.87,16.912,28.172l-4.226,12.552l14.776-7.313
	c5.29,1.03,9.532,2.09,14.808,2.09c1.327,0,2.644-0.063,3.949-0.165c-0.827-2.79-1.305-5.712-1.305-8.744
	C44.915,43.855,60.768,29.059,80.855,29.059z M58.123,17.745c3.184,0,5.288,2.065,5.288,5.207c0,3.128-2.104,5.226-5.288,5.226
	c-3.168,0-6.345-2.098-6.345-5.226C51.778,19.81,54.954,17.745,58.123,17.745z M28.538,28.178c-3.17,0-6.366-2.098-6.366-5.226
	c0-3.142,3.197-5.207,6.366-5.207c3.17,0,5.276,2.065,5.276,5.207C33.813,26.08,31.708,28.178,28.538,28.178z"/>
<path style="fill-rule:evenodd;clip-rule:evenodd;fill:#5B5C5C;" d="M119.435,61.587c0-16.685-16.911-30.287-35.907-30.287
	c-20.117,0-35.957,13.602-35.957,30.287c0,16.71,15.84,30.278,35.957,30.278c4.207,0,8.454-1.044,12.684-2.09l11.598,6.269
	l-3.181-10.433C113.112,79.329,119.435,70.995,119.435,61.587z M71.872,56.363c-2.106,0-4.227-2.065-4.227-4.177
	c0-2.076,2.121-4.171,4.227-4.171c3.196,0,5.288,2.095,5.288,4.171C77.16,54.299,75.068,56.363,71.872,56.363z M95.126,56.363
	c-2.092,0-4.202-2.065-4.202-4.177c0-2.076,2.11-4.171,4.202-4.171c3.166,0,5.288,2.095,5.288,4.171
	C100.414,54.299,98.291,56.363,95.126,56.363z"/>
</svg>
