<?xml version="1.0" encoding="utf-8"?>
<!-- Generator: Adobe Illustrator 18.0.0, SVG Export Plug-In . SVG Version: 6.00 Build 0)  -->
<!DOCTYPE svg PUBLIC "-//W3C//DTD SVG 1.1//EN" "http://www.w3.org/Graphics/SVG/1.1/DTD/svg11.dtd">
<svg version="1.1" id="图层_1" xmlns="http://www.w3.org/2000/svg" xmlns:xlink="http://www.w3.org/1999/xlink" x="0px" y="0px"
	 viewBox="0 0 595.3 841.9" enable-background="new 0 0 595.3 841.9" xml:space="preserve">
<path fill="#5B5C5C" d="M104,216.9c29.9,0,54.2,22.3,54.2,49.7c0,27.4-24.3,49.7-54.2,49.7s-54.2-22.3-54.2-49.7
	C49.8,239.2,74.2,216.9,104,216.9L104,216.9z"/>
<path fill="#5B5C5C" d="M231.5,420.9l44-41.4v6.5H296v40.3H190.5v29.5H296v80.6c-1,0-1.9,0-2.9-0.1c-25.7-1.4-35.2-9-35.2-56.4
	h-70.3c-32.3,116.3,48.8,139.6,243.3,69.8c6.8,11.6,13.7,23.3,20.5,34.9c12.7-10.7,25.4-21.5,38.1-32.2c6.8-34-5.9-60.9-38.1-80.6
	c-13.7,5.4-27.4,10.7-41,16.1c5.9,8.9,11.7,17.9,17.6,26.8c-16.8,2.7-33.3,6.6-49.8,10.5v-69.6h105.5v-29.5H378.1V386h105.5v-34.9
	h-178l28.5-26.9l-35.1-26.5c8.4-2.2,17.2-4.1,26.3-5.8c44.9-1.8,90.8-13.8,134.8-5.4c61,11.7,57.3,74.1,55.7,131.6L512.9,523
	c-1.5,53.2-21.5,70.7-67.4,72.5c-22.4,0.9-44.9,0-67.4,0c1,10.7,1.9,21.5,2.9,32.2c36.1,0,72.3,0.9,108.5,0
	c49.6-1.3,86.7-11.9,96.7-85.9c8.7-64.7,12.1-129.6,5.9-206.7c-9.8-120.9-196.1-114.7-316.6-61.8c5.9-13.4,11.7-26.9,17.6-40.3
	c-25.4-8-50.8-16.1-76.2-24.2c-30.3,45.6-60.6,91.3-90.9,136.9c18.6,13.4,37.2,26.8,55.7,40.3c2.9-6.3,5.9-12.5,8.8-18.8
	c19-25.4,44.4-45,76.4-58.5l-73.5,93.4L231.5,420.9L231.5,420.9z"/>
<path fill="#5B5C5C" d="M61.6,329.6c104.5,60.8,116.1,113.3,79.1,182.6C115,560.3,103.6,596.7,85,633.1
	c-28.3-20.6-56.7-41.2-85-61.8c31.3-24.2,66.8-44.3,93.8-72.5c49.9-52.1-5.7-92.2-70.4-126.2C36.1,358.3,48.9,344,61.6,329.6
	L61.6,329.6z"/>
</svg>
