<svg xmlns="http://www.w3.org/2000/svg" xmlns:xlink="http://www.w3.org/1999/xlink" preserveAspectRatio="xMidYMid" width="36" height="35.031" viewBox="0 0 36 35.031">
  <defs>
    <style>
      .cls-1 {
        fill: #000;
        fill-rule: evenodd;
      }
    </style>
  </defs>
  <path d="M32.505,27.777 C32.420,27.879 32.332,27.812 32.280,27.803 C35.358,19.894 31.906,14.026 27.255,10.553 C24.845,8.710 22.628,7.941 20.456,6.935 C18.069,5.830 17.844,3.566 18.945,2.004 C19.825,0.753 21.297,0.559 22.187,0.666 C22.647,0.722 24.107,1.000 25.848,1.780 C27.211,2.391 28.672,3.312 29.786,4.261 C33.342,7.294 34.734,10.533 35.435,13.175 C37.210,19.873 34.397,25.515 32.505,27.777 ZM7.274,12.907 C6.770,15.845 7.143,18.103 7.279,20.436 C7.430,23.005 5.495,24.285 3.555,24.097 C2.005,23.948 1.003,22.839 0.752,21.996 C0.624,21.565 0.169,20.182 0.034,18.323 C-0.070,16.868 0.059,15.179 0.378,13.778 C1.404,9.286 3.656,6.544 5.705,4.676 C10.895,-0.057 17.347,-0.276 20.290,0.152 C20.424,0.170 20.408,0.281 20.422,0.329 C11.805,1.510 8.169,7.274 7.274,12.907 ZM25.392,20.762 C24.907,20.961 24.136,20.544 23.867,20.167 C23.722,19.964 23.657,20.157 23.593,20.309 C23.525,20.468 23.004,21.473 22.839,21.696 C22.719,21.856 22.755,21.910 22.964,21.962 C23.392,22.069 23.657,22.271 23.903,22.607 C24.224,23.050 23.907,23.497 23.194,23.738 C21.009,24.482 19.232,23.819 19.072,23.766 C18.891,23.704 18.800,23.660 18.636,23.616 C18.636,23.616 18.509,23.571 18.271,23.571 L17.962,23.591 C17.899,23.616 17.617,23.699 17.581,23.723 C17.435,23.806 15.730,24.482 13.495,23.782 C12.720,23.542 12.340,23.040 12.722,22.538 C12.956,22.229 13.308,22.025 13.560,21.980 C13.810,21.932 13.850,21.829 13.714,21.628 C13.555,21.388 13.002,20.364 12.941,20.204 C12.878,20.035 12.858,19.982 12.675,20.174 C12.337,20.521 11.869,20.867 11.179,20.762 C10.896,20.719 11.615,17.819 12.675,16.623 C12.639,15.621 12.553,10.251 18.285,10.282 C24.017,10.251 23.955,15.580 23.921,16.578 C24.797,17.693 25.849,20.574 25.392,20.762 ZM1.630,24.423 C7.159,30.951 14.117,30.961 19.528,28.766 C22.372,27.653 24.163,26.166 26.141,24.838 C28.316,23.374 30.449,24.310 31.297,26.015 C31.975,27.379 31.522,28.786 30.913,29.435 C30.602,29.766 29.622,30.864 28.059,31.946 C26.837,32.791 25.290,33.566 23.889,34.031 C19.411,35.519 15.826,35.085 13.119,34.360 C6.258,32.524 2.789,27.587 1.543,24.625 C1.491,24.503 1.594,24.459 1.630,24.423 Z" class="cls-1"/>
</svg>
