<svg xmlns="http://www.w3.org/2000/svg" xmlns:xlink="http://www.w3.org/1999/xlink" preserveAspectRatio="xMidYMid" width="36.969" height="22.593" viewBox="0 0 36.969 22.593">
  <defs>
    <style>
      .cls-1 {
        fill: #000;
        fill-rule: evenodd;
      }
    </style>
  </defs>
  <path d="M19.202,-0.003 C19.244,-0.003 19.287,-0.003 19.330,-0.003 C19.385,0.005 19.440,0.022 19.496,0.021 C20.517,0.018 21.509,0.198 22.473,0.510 C25.558,1.507 27.736,3.485 29.069,6.357 C29.631,7.568 29.958,8.840 30.006,10.172 C30.021,10.606 30.007,11.041 30.008,11.476 C30.008,11.528 30.016,11.580 30.022,11.644 C30.094,11.627 30.148,11.615 30.202,11.601 C30.945,11.409 31.692,11.363 32.453,11.497 C34.171,11.799 35.438,12.706 36.285,14.181 C36.949,15.338 37.088,16.575 36.879,17.869 C36.614,19.511 35.765,20.779 34.306,21.632 C32.861,22.477 31.291,22.733 29.625,22.497 C28.466,22.332 27.382,21.975 26.420,21.323 C25.939,20.998 25.506,20.607 25.042,20.239 C23.215,21.496 21.168,22.275 18.896,22.501 C17.857,22.605 16.826,22.582 15.799,22.437 C14.435,22.243 13.125,21.857 11.888,21.257 C11.787,21.208 11.720,21.213 11.623,21.281 C10.041,22.376 8.284,22.782 6.370,22.488 C4.466,22.195 2.909,21.283 1.706,19.833 C0.180,17.995 -0.279,15.856 0.094,13.561 C0.450,11.370 1.635,9.649 3.510,8.396 C4.893,7.471 6.428,6.974 8.116,6.970 C8.653,6.969 9.190,6.989 9.746,7.000 C9.731,7.015 9.739,7.010 9.741,7.005 C10.540,4.179 12.329,2.166 15.033,0.914 C16.063,0.438 17.152,0.149 18.293,0.062 C18.596,0.039 18.899,0.018 19.202,-0.003 ZM13.211,19.545 C13.265,19.574 13.288,19.590 13.314,19.600 C14.324,20.009 15.368,20.280 16.457,20.410 C17.497,20.534 18.528,20.502 19.547,20.306 C22.079,19.818 24.215,18.645 25.799,16.639 C27.524,14.457 28.225,11.987 27.725,9.248 C27.318,7.016 26.205,5.170 24.338,3.800 C22.443,2.409 20.296,1.856 17.949,2.226 C16.090,2.520 14.506,3.366 13.294,4.792 C11.903,6.428 11.342,8.314 11.717,10.414 C11.989,11.935 12.750,13.219 14.006,14.182 C15.249,15.135 16.675,15.570 18.257,15.401 C19.291,15.291 20.235,14.913 21.025,14.240 C22.361,13.102 22.962,11.673 22.592,9.962 C22.299,8.610 21.463,7.661 20.061,7.260 C18.994,6.955 17.831,7.299 17.201,8.090 C16.703,8.714 16.643,9.486 17.047,10.054 C17.268,10.363 17.537,10.437 17.887,10.284 C18.401,10.059 19.015,10.261 19.281,10.742 C19.542,11.214 19.382,11.812 18.919,12.114 C17.844,12.815 16.375,12.492 15.516,11.544 C14.781,10.731 14.506,9.772 14.667,8.698 C14.811,7.739 15.248,6.920 15.985,6.277 C17.097,5.308 18.409,4.918 19.895,5.093 C21.036,5.227 22.045,5.665 22.880,6.421 C24.473,7.864 25.078,9.676 24.787,11.753 C24.591,13.152 23.955,14.377 22.931,15.381 C21.496,16.788 19.736,17.491 17.705,17.527 C16.527,17.548 15.402,17.291 14.330,16.817 C14.250,16.781 14.170,16.747 14.058,16.699 C14.048,17.745 13.731,18.670 13.211,19.545 ZM9.400,9.001 C8.655,8.855 7.361,8.909 6.479,9.191 C3.755,10.062 2.191,12.010 2.014,14.739 C1.956,15.631 2.141,16.481 2.515,17.295 C3.570,19.592 5.657,20.734 8.194,20.435 C9.289,20.306 10.242,19.863 10.999,19.058 C11.823,18.180 12.192,17.165 11.985,15.977 C11.675,14.202 9.994,13.009 8.189,13.308 C7.531,13.417 6.996,13.742 6.646,14.310 C6.329,14.824 6.424,15.475 6.833,15.898 C7.132,16.207 7.805,16.351 8.336,15.977 C8.555,15.823 8.837,15.825 9.096,15.902 C9.770,16.101 10.013,17.046 9.523,17.560 C8.867,18.247 8.037,18.418 7.129,18.249 C4.800,17.817 3.818,15.432 4.707,13.581 C5.457,12.019 7.318,11.170 9.042,11.281 C9.256,11.295 9.470,11.315 9.650,11.329 C9.566,10.542 9.483,9.777 9.400,9.001 ZM26.672,18.916 C26.693,18.937 26.728,18.981 26.768,19.018 C28.159,20.301 29.811,20.762 31.680,20.429 C32.601,20.265 33.405,19.828 34.011,19.116 C35.103,17.834 35.169,15.793 33.849,14.461 C33.300,13.908 32.648,13.592 31.857,13.503 C31.252,13.435 30.685,13.504 30.149,13.775 C29.652,14.026 29.349,14.579 29.410,15.077 C29.472,15.582 29.831,16.000 30.331,16.132 C30.621,16.208 30.903,16.142 31.187,16.070 C31.524,15.984 31.851,16.014 32.124,16.253 C32.687,16.744 32.553,17.590 31.834,17.937 C30.783,18.445 29.761,18.324 28.793,17.713 C28.541,17.554 28.324,17.341 28.110,17.168 C27.637,17.744 27.158,18.325 26.672,18.916 Z" class="cls-1"/>
</svg>
