<svg xmlns="http://www.w3.org/2000/svg" xmlns:xlink="http://www.w3.org/1999/xlink" preserveAspectRatio="xMidYMid" width="37.344" height="32.625" viewBox="0 0 37.344 32.625">
  <defs>
    <style>
      .cls-1 {
        fill: #000;
        fill-rule: evenodd;
      }
    </style>
  </defs>
  <path d="M37.300,18.093 C37.222,18.668 37.207,19.249 37.090,19.820 C36.883,20.836 36.676,21.856 36.264,22.813 C35.411,24.793 34.280,26.603 32.695,28.118 C30.179,30.281 27.226,31.753 23.737,32.381 C22.827,32.482 21.913,32.531 20.999,32.590 C20.998,32.603 20.998,32.616 21.000,32.628 C20.716,32.628 20.431,32.628 20.146,32.628 C19.350,32.628 18.553,32.628 17.757,32.628 C17.716,32.548 17.632,32.568 17.569,32.562 C16.691,32.485 15.813,32.421 14.937,32.335 C14.398,32.281 13.862,32.194 13.325,32.123 C13.768,32.105 14.206,32.122 14.645,32.143 C16.602,32.234 18.553,32.156 20.491,31.875 C21.360,31.749 22.236,31.644 23.087,31.420 C24.628,31.013 26.162,30.583 27.609,29.903 C27.841,29.794 27.903,29.658 27.917,29.429 C27.968,28.600 28.031,27.771 28.106,26.944 C28.123,26.761 28.094,26.735 27.917,26.788 C27.035,27.049 26.153,27.307 25.254,27.509 C24.236,27.738 23.201,27.866 22.169,28.012 C21.509,28.105 20.848,28.229 20.184,28.249 C19.062,28.282 17.940,28.369 16.816,28.346 C16.774,28.345 16.715,28.318 16.687,28.383 C16.699,28.400 16.710,28.418 16.723,28.434 C17.490,29.415 18.261,30.392 19.145,31.278 C19.145,31.294 19.144,31.311 19.143,31.328 C19.134,31.320 19.125,31.312 19.115,31.304 C19.009,31.279 18.929,31.207 18.839,31.152 C17.574,30.378 16.454,29.429 15.384,28.421 C15.246,28.292 15.099,28.241 14.914,28.218 C13.872,28.088 12.829,27.965 11.811,27.704 C11.745,27.687 11.662,27.686 11.614,27.606 C12.520,27.503 13.411,27.402 14.333,27.297 C14.281,27.235 14.255,27.203 14.229,27.172 C13.521,26.357 12.854,25.512 12.270,24.607 C12.190,24.483 12.099,24.427 11.949,24.421 C11.708,24.411 11.468,24.366 11.227,24.359 C10.082,24.323 8.947,24.197 7.818,24.016 C6.375,23.784 4.955,23.455 3.559,23.028 C3.444,22.993 3.322,22.974 3.181,22.876 C3.289,22.869 3.351,22.861 3.412,22.862 C5.517,22.890 7.620,22.797 9.723,22.720 C10.149,22.704 10.575,22.679 11.001,22.661 C11.129,22.655 11.161,22.613 11.100,22.494 C10.582,21.494 10.291,20.415 9.947,19.355 C9.789,18.869 9.794,18.877 9.266,18.816 C8.251,18.699 7.237,18.571 6.234,18.383 C4.700,18.096 3.198,17.686 1.738,17.141 C1.538,17.066 1.344,16.977 1.147,16.895 C1.230,16.862 1.301,16.862 1.372,16.862 C2.588,16.868 3.803,16.913 5.018,16.935 C6.397,16.961 7.775,16.869 9.153,16.821 C9.459,16.810 9.465,16.807 9.423,16.513 C9.337,15.915 9.293,15.314 9.305,14.710 C9.317,14.129 9.333,13.547 9.365,12.965 C9.376,12.768 9.332,12.700 9.117,12.704 C8.598,12.715 8.079,12.722 7.561,12.679 C6.677,12.605 5.796,12.499 4.919,12.372 C3.839,12.215 2.758,12.073 1.707,11.765 C1.145,11.600 0.572,11.474 0.003,11.330 C0.003,11.316 0.003,11.302 0.003,11.288 C0.082,11.288 0.160,11.288 0.238,11.288 C2.320,11.289 4.403,11.393 6.484,11.247 C6.823,11.223 7.165,11.217 7.504,11.187 C8.140,11.130 8.773,11.054 9.409,11.002 C9.568,10.989 9.626,10.941 9.653,10.789 C9.737,10.313 9.820,9.836 9.940,9.368 C10.295,7.982 10.739,6.621 11.276,5.290 C11.365,5.072 11.463,4.857 11.557,4.640 C11.435,5.552 11.283,6.449 11.214,7.360 C11.131,8.451 11.076,9.543 11.020,10.635 C11.012,10.773 11.067,10.804 11.193,10.785 C11.879,10.683 12.573,10.619 13.250,10.477 C15.863,9.928 18.439,9.259 20.886,8.176 C21.889,7.733 22.875,7.263 23.819,6.712 C23.894,6.668 24.003,6.649 23.914,6.504 C23.328,5.549 22.633,4.676 21.830,3.885 C21.810,3.871 21.791,3.856 21.771,3.842 C21.756,3.827 21.741,3.813 21.726,3.798 L21.728,3.800 C21.713,3.786 21.698,3.771 21.683,3.757 L21.686,3.759 C21.670,3.744 21.656,3.730 21.641,3.715 L21.643,3.717 C21.628,3.703 21.613,3.688 21.598,3.673 L21.600,3.676 C21.585,3.661 21.570,3.647 21.555,3.632 L21.557,3.634 C21.542,3.620 21.527,3.605 21.512,3.590 L21.515,3.593 C21.500,3.578 21.485,3.563 21.469,3.549 L21.472,3.551 C21.457,3.537 21.442,3.522 21.427,3.507 L21.429,3.510 C21.414,3.495 21.399,3.480 21.384,3.466 L21.386,3.468 C21.371,3.454 21.356,3.439 21.341,3.425 L21.343,3.427 C21.328,3.412 21.313,3.398 21.298,3.384 L21.300,3.386 C21.285,3.372 21.270,3.358 21.254,3.344 L21.255,3.345 C21.241,3.331 21.226,3.318 21.211,3.304 L21.211,3.304 C21.169,3.269 21.127,3.234 21.085,3.199 C20.580,2.739 20.052,2.309 19.465,1.951 C19.396,1.910 19.328,1.885 19.247,1.882 C18.821,1.866 18.395,1.837 17.969,1.832 C16.546,1.815 15.130,1.890 13.720,2.092 C12.309,2.295 10.908,2.544 9.531,2.910 C9.251,2.984 8.968,3.053 8.667,3.130 C8.685,3.087 8.687,3.071 8.696,3.065 C8.725,3.046 8.757,3.029 8.789,3.014 C10.849,2.045 12.977,1.256 15.210,0.748 C16.711,0.407 18.224,0.152 19.763,0.052 C19.764,0.040 19.763,0.028 19.762,0.015 C20.260,0.015 20.758,0.015 21.256,0.015 C21.255,0.028 21.255,0.040 21.256,0.052 C21.532,0.067 21.809,0.084 22.086,0.097 C22.873,0.135 23.662,0.195 24.429,0.364 C26.345,0.785 28.162,1.443 29.791,2.547 C30.559,3.068 31.265,3.655 31.933,4.287 C32.676,4.988 33.275,5.806 33.881,6.618 C34.427,7.348 34.832,8.159 35.278,8.946 C35.684,9.661 36.005,10.421 36.265,11.193 C36.776,12.712 37.175,14.261 37.269,15.869 C37.273,15.939 37.264,16.024 37.345,16.072 C37.345,16.710 37.345,17.348 37.345,17.986 C37.295,18.007 37.305,18.053 37.300,18.093 ZM31.188,27.437 C31.930,26.662 32.613,25.861 33.146,24.877 C33.008,24.929 32.924,24.958 32.842,24.992 C32.437,25.158 32.041,25.354 31.624,25.484 C31.288,25.589 31.154,25.750 31.180,26.099 C31.212,26.537 31.188,26.978 31.188,27.437 ZM14.301,24.515 C14.735,25.389 15.242,26.223 15.758,27.052 C15.808,27.133 15.871,27.143 15.954,27.132 C17.206,26.965 18.463,26.827 19.708,26.625 C22.346,26.197 24.968,25.691 27.552,25.013 C28.155,24.855 28.156,24.859 28.156,24.255 C28.156,23.466 28.156,22.677 28.156,21.828 C23.634,23.417 19.052,24.386 14.281,24.426 C14.292,24.477 14.293,24.498 14.301,24.515 ZM12.220,19.242 C12.464,20.320 12.905,21.332 13.304,22.359 C13.347,22.471 13.413,22.483 13.516,22.471 C13.967,22.418 14.418,22.365 14.870,22.318 C16.697,22.129 18.516,21.879 20.316,21.518 C22.761,21.027 25.179,20.442 27.518,19.579 C27.893,19.441 27.897,19.446 27.870,19.064 C27.796,18.000 27.620,16.949 27.444,15.898 C27.423,15.773 27.367,15.792 27.286,15.827 C27.091,15.912 26.896,15.995 26.702,16.079 C24.339,17.100 21.877,17.818 19.358,18.361 C18.436,18.559 17.499,18.663 16.559,18.749 C15.392,18.856 14.226,18.963 13.053,18.972 C12.847,18.972 12.641,18.971 12.435,18.972 C12.155,18.972 12.158,18.971 12.220,19.242 ZM20.396,10.874 C18.756,11.503 17.069,11.971 15.324,12.243 C14.581,12.359 13.843,12.485 13.092,12.544 C12.477,12.591 11.862,12.651 11.247,12.703 C11.157,12.710 11.098,12.722 11.112,12.833 C11.137,13.039 11.148,13.247 11.170,13.453 C11.231,14.024 11.296,14.594 11.356,15.164 C11.406,15.632 11.496,16.092 11.596,16.552 C11.613,16.630 11.625,16.686 11.742,16.676 C12.617,16.595 13.496,16.539 14.370,16.444 C15.764,16.294 17.149,16.074 18.525,15.807 C20.248,15.474 21.955,15.078 23.624,14.533 C24.653,14.197 25.670,13.833 26.652,13.380 C26.724,13.347 26.828,13.337 26.797,13.161 C26.798,13.163 26.782,13.110 26.768,13.057 C26.382,11.615 25.887,10.212 25.225,8.868 C25.100,8.614 25.101,8.604 24.847,8.758 C23.440,9.616 21.935,10.284 20.396,10.874 ZM21.088,2.101 C21.163,2.150 21.196,2.175 21.232,2.195 C22.275,2.777 23.186,3.519 24.033,4.344 C24.451,4.751 24.850,5.172 25.231,5.611 C25.312,5.702 25.369,5.728 25.468,5.631 C25.567,5.533 25.688,5.457 25.797,5.368 C26.237,5.009 26.681,4.653 27.108,4.222 C25.243,3.136 23.261,2.433 21.088,2.101 ZM32.273,9.293 C31.389,8.042 30.483,6.810 29.282,5.818 C29.157,5.715 29.086,5.710 28.964,5.811 C28.320,6.345 27.659,6.858 26.984,7.355 C26.729,7.542 26.726,7.549 26.894,7.826 C27.324,8.534 27.749,9.245 28.120,9.985 C28.444,10.632 28.730,11.294 29.010,11.959 C29.032,12.011 29.034,12.081 29.109,12.092 C29.141,12.073 29.165,12.059 29.190,12.045 C30.365,11.382 31.347,10.495 32.256,9.524 C32.330,9.445 32.338,9.386 32.273,9.293 ZM34.405,15.675 C34.278,15.051 34.201,14.419 34.049,13.800 C33.923,13.291 33.795,12.782 33.663,12.256 C33.587,12.305 33.522,12.345 33.458,12.387 C32.368,13.114 31.276,13.838 30.095,14.420 C29.932,14.500 29.893,14.579 29.942,14.755 C30.149,15.508 30.357,16.262 30.501,17.030 C30.573,17.413 30.656,17.795 30.736,18.188 C32.038,17.533 33.228,16.761 34.339,15.871 C34.411,15.813 34.422,15.759 34.405,15.675 ZM34.534,18.974 C33.416,19.517 32.298,20.061 31.178,20.603 C31.096,20.642 31.063,20.691 31.070,20.780 C31.089,21.022 31.095,21.264 31.116,21.505 C31.177,22.210 31.160,22.918 31.192,23.624 C31.198,23.756 31.232,23.771 31.353,23.726 C32.297,23.373 33.208,22.960 34.041,22.394 C34.128,22.334 34.174,22.269 34.203,22.168 C34.369,21.586 34.443,20.989 34.522,20.392 C34.584,19.920 34.636,19.446 34.603,18.963 C34.574,18.967 34.552,18.966 34.534,18.974 ZM21.768,3.840 C21.769,3.840 21.770,3.841 21.771,3.842 C21.771,3.842 21.771,3.842 21.771,3.842 L21.768,3.840 Z" class="cls-1"/>
</svg>
