<svg xmlns="http://www.w3.org/2000/svg" xmlns:xlink="http://www.w3.org/1999/xlink" preserveAspectRatio="xMidYMid" width="33.719" height="33.219" viewBox="0 0 33.719 33.219">
  <defs>
    <style>
      .cls-1 {
        fill: #000;
        fill-rule: evenodd;
      }
    </style>
  </defs>
  <path d="M28.659,8.153 C25.708,5.869 21.915,4.933 18.312,4.035 C15.438,3.324 14.365,3.174 12.487,2.051 C11.108,1.189 8.042,-0.308 7.774,0.029 C7.467,0.328 8.426,1.339 8.809,2.575 C9.384,4.334 8.924,5.757 7.467,6.843 C4.095,9.351 -0.312,13.732 -0.005,19.797 C0.416,28.071 8.157,33.799 17.623,33.200 C27.126,32.601 33.526,26.611 33.718,18.337 C33.833,14.331 32.031,10.849 28.659,8.153 ZM18.274,12.047 C19.615,11.897 20.995,13.619 21.493,16.764 C21.915,19.422 20.995,21.706 19.730,21.818 C18.849,21.931 18.044,21.070 17.469,19.610 L18.926,18.112 L20.497,16.540 C20.650,16.427 20.612,16.352 20.420,16.315 C20.305,16.315 19.385,16.128 18.466,15.941 L16.665,15.566 C16.626,13.507 17.239,12.197 18.274,12.047 ZM29.349,20.096 C28.544,20.284 27.893,19.273 27.433,17.775 C27.931,17.326 28.353,16.914 28.774,16.577 C29.502,15.978 30.115,15.379 30.230,15.267 C30.345,15.154 30.307,15.079 30.154,15.042 C30.039,15.042 29.272,14.930 28.468,14.780 C28.008,14.668 27.471,14.593 26.896,14.480 C26.896,12.683 27.395,10.999 28.468,10.811 C29.655,10.587 30.690,12.796 30.997,15.267 C31.303,18.262 30.384,19.834 29.349,20.096 Z" class="cls-1"/>
</svg>
