<svg xmlns="http://www.w3.org/2000/svg" xmlns:xlink="http://www.w3.org/1999/xlink" preserveAspectRatio="xMidYMid" width="34" height="31.969" viewBox="0 0 34 31.969">
  <defs>
    <style>
      .cls-1 {
        fill: #000;
        fill-rule: evenodd;
      }
    </style>
  </defs>
  <path d="M30.085,22.682 C29.735,22.663 29.360,22.612 28.960,22.525 C31.559,27.415 23.644,29.885 21.618,25.937 C19.677,22.157 17.938,15.618 17.777,15.019 L17.777,15.019 L17.777,15.019 C17.777,15.019 17.777,15.019 17.777,15.019 L17.777,15.019 L19.988,14.781 C20.613,14.696 21.186,14.615 21.719,14.541 C22.182,14.476 22.615,14.416 23.024,14.363 C23.104,14.352 23.188,14.342 23.267,14.332 C23.668,14.280 24.052,14.235 24.416,14.199 C24.467,14.194 24.517,14.190 24.567,14.185 C24.934,14.151 25.289,14.123 25.635,14.108 C25.647,14.107 25.659,14.106 25.671,14.106 C25.897,14.096 26.119,14.091 26.341,14.091 C26.425,14.091 26.510,14.098 26.594,14.100 C26.731,14.102 26.871,14.107 27.008,14.114 C27.229,14.124 27.457,14.142 27.683,14.163 C27.821,14.177 27.961,14.189 28.102,14.207 C28.350,14.238 28.611,14.281 28.872,14.327 C28.999,14.349 29.123,14.367 29.255,14.393 C29.654,14.472 30.071,14.565 30.520,14.681 C35.153,15.876 35.347,22.956 30.085,22.682 ZM29.352,11.784 C27.368,13.094 24.204,12.943 20.377,13.790 C18.886,14.119 17.757,14.508 17.756,14.509 L17.756,14.509 L17.756,14.509 C17.756,14.509 17.756,14.509 17.756,14.509 C17.756,14.509 17.597,12.962 17.479,10.862 C17.361,8.760 17.284,6.102 17.450,3.885 C17.451,3.880 17.453,3.875 17.453,3.870 C17.476,3.576 17.530,3.296 17.610,3.033 C17.638,2.941 17.685,2.860 17.719,2.772 C17.785,2.603 17.847,2.432 17.934,2.277 C17.988,2.182 18.057,2.099 18.118,2.009 C18.207,1.877 18.293,1.743 18.396,1.623 C18.471,1.537 18.558,1.463 18.639,1.383 C18.747,1.277 18.852,1.169 18.970,1.075 C19.062,1.002 19.161,0.941 19.258,0.875 C19.380,0.793 19.500,0.708 19.629,0.637 C19.734,0.580 19.842,0.534 19.950,0.484 C20.082,0.423 20.213,0.362 20.349,0.313 C20.461,0.273 20.575,0.243 20.690,0.210 C20.827,0.172 20.963,0.134 21.102,0.107 C21.219,0.085 21.334,0.072 21.451,0.058 C21.590,0.042 21.726,0.027 21.864,0.023 C21.909,0.022 21.956,0.012 22.001,0.012 C22.082,0.012 22.159,0.026 22.238,0.031 C22.348,0.037 22.457,0.043 22.564,0.057 C22.691,0.074 22.812,0.101 22.934,0.130 C23.037,0.154 23.140,0.176 23.239,0.209 C23.358,0.248 23.469,0.299 23.580,0.350 C23.673,0.393 23.768,0.432 23.855,0.483 C23.962,0.546 24.058,0.622 24.156,0.698 C24.235,0.759 24.317,0.814 24.389,0.883 C24.481,0.971 24.558,1.076 24.638,1.178 C24.699,1.256 24.766,1.327 24.819,1.413 C24.892,1.531 24.946,1.668 25.003,1.802 C25.043,1.894 25.091,1.976 25.122,2.075 C25.173,2.236 25.198,2.419 25.226,2.600 C25.241,2.694 25.268,2.776 25.276,2.875 C25.299,3.165 25.296,3.477 25.258,3.815 C30.307,0.738 34.078,8.661 29.352,11.784 ZM17.427,17.765 C17.927,20.736 19.625,23.765 18.805,28.021 C18.139,31.478 12.671,33.554 10.021,30.485 C9.409,29.776 8.948,28.794 8.730,27.492 C4.737,28.299 2.338,25.286 3.361,21.405 C4.766,16.072 14.381,15.197 14.747,15.173 L17.141,15.029 C17.141,15.029 17.110,15.886 17.427,17.765 ZM14.089,14.344 C13.878,14.345 13.696,14.363 13.495,14.370 C13.134,14.382 12.765,14.389 12.432,14.418 C12.200,14.438 11.990,14.470 11.770,14.496 C11.494,14.529 11.210,14.556 10.947,14.596 C10.687,14.635 10.440,14.679 10.188,14.722 C9.973,14.758 9.751,14.793 9.539,14.831 C9.400,14.855 9.261,14.878 9.123,14.902 C8.844,14.951 8.565,15.001 8.285,15.047 C8.041,15.086 7.788,15.114 7.540,15.147 C7.336,15.175 7.138,15.207 6.929,15.229 C6.633,15.259 6.316,15.270 6.003,15.285 C5.827,15.293 5.662,15.313 5.479,15.315 C4.972,15.323 4.438,15.308 3.863,15.260 C3.600,15.238 3.346,15.186 3.101,15.109 C3.018,15.083 2.944,15.039 2.863,15.007 C2.706,14.945 2.546,14.887 2.399,14.805 C2.310,14.756 2.231,14.689 2.146,14.633 C2.018,14.548 1.886,14.469 1.766,14.370 C1.684,14.302 1.613,14.219 1.535,14.145 C1.426,14.041 1.313,13.942 1.214,13.828 C1.143,13.745 1.084,13.651 1.018,13.563 C0.928,13.443 0.833,13.327 0.753,13.199 C0.695,13.106 0.652,13.006 0.600,12.909 C0.528,12.777 0.452,12.647 0.393,12.508 C0.351,12.409 0.323,12.305 0.287,12.203 C0.237,12.062 0.182,11.922 0.145,11.778 C0.119,11.674 0.109,11.570 0.090,11.466 C0.063,11.320 0.031,11.176 0.019,11.030 C0.011,10.925 0.019,10.823 0.019,10.719 C0.018,10.575 0.011,10.430 0.026,10.288 C0.037,10.185 0.066,10.086 0.085,9.985 C0.111,9.847 0.133,9.708 0.176,9.575 C0.208,9.475 0.259,9.384 0.301,9.288 C0.356,9.161 0.406,9.032 0.478,8.912 C0.534,8.820 0.610,8.738 0.677,8.651 C0.762,8.539 0.841,8.425 0.944,8.323 C1.026,8.242 1.130,8.173 1.224,8.098 C1.340,8.006 1.450,7.911 1.584,7.830 C1.695,7.763 1.828,7.712 1.953,7.654 C2.100,7.585 2.241,7.512 2.407,7.456 C2.550,7.408 2.716,7.378 2.873,7.340 C3.053,7.298 3.227,7.251 3.425,7.223 C3.602,7.198 3.803,7.193 3.995,7.181 C4.169,7.170 4.323,7.144 4.509,7.144 C4.597,7.144 4.687,7.145 4.778,7.148 L4.782,7.150 C4.782,7.150 4.778,7.148 4.778,7.148 C2.569,1.958 12.398,-1.306 14.874,3.781 C16.338,6.787 16.838,12.797 17.138,14.515 L15.994,14.423 C15.309,14.365 14.679,14.342 14.089,14.344 Z" class="cls-1"/>
</svg>
