<svg xmlns="http://www.w3.org/2000/svg" xmlns:xlink="http://www.w3.org/1999/xlink" preserveAspectRatio="xMidYMid" width="36.969" height="26" viewBox="0 0 36.969 26">
  <defs>
    <style>
      .cls-1 {
        fill: #000;
        fill-rule: evenodd;
      }
    </style>
  </defs>
  <path d="M36.421,20.410 C35.801,24.953 33.493,25.603 30.412,25.682 C28.167,25.738 25.919,25.682 23.674,25.682 C23.613,25.023 23.552,24.364 23.492,23.706 C24.887,23.706 26.285,23.758 27.680,23.706 C30.535,23.595 31.776,22.522 31.869,19.258 L32.051,12.834 C32.150,9.308 32.381,5.478 28.591,4.763 C25.855,4.247 23.006,4.983 20.214,5.092 C19.648,5.192 19.104,5.308 18.583,5.446 L20.760,7.069 L18.989,8.716 L30.047,8.716 L30.047,10.857 L23.492,10.857 L23.492,13.328 L30.047,13.328 L30.047,15.140 L23.492,15.140 L23.492,19.408 C24.519,19.172 25.546,18.927 26.588,18.764 C26.223,18.214 25.859,17.665 25.495,17.117 C26.344,16.787 27.193,16.458 28.044,16.128 C30.047,17.335 30.836,18.984 30.412,21.069 C29.622,21.729 28.833,22.388 28.044,23.046 C27.619,22.332 27.193,21.618 26.769,20.905 C14.689,25.186 9.650,23.760 11.655,16.622 L16.025,16.622 C16.025,19.532 16.611,19.997 18.211,20.082 C18.272,20.085 18.332,20.085 18.393,20.087 L18.393,15.140 L11.837,15.140 L11.837,13.328 L18.393,13.328 L18.393,10.857 L17.118,10.857 L17.118,10.458 L14.386,12.999 L12.019,11.846 L16.583,6.119 C14.594,6.946 13.015,8.144 11.837,9.705 C11.655,10.088 11.473,10.473 11.291,10.857 C10.139,10.034 8.984,9.210 7.830,8.387 C9.713,5.586 11.595,2.786 13.476,-0.013 C15.054,0.481 16.631,0.975 18.211,1.469 C17.846,2.292 17.483,3.116 17.118,3.939 C24.602,0.690 36.179,0.309 36.785,7.728 C37.172,12.461 36.964,16.441 36.421,20.410 ZM6.465,6.575 C4.609,6.575 3.095,5.207 3.095,3.528 C3.095,1.849 4.609,0.481 6.465,0.481 C8.320,0.481 9.833,1.849 9.833,3.528 C9.833,5.207 8.320,6.575 6.465,6.575 ZM1.457,10.034 C2.246,9.155 3.036,8.276 3.825,7.398 C10.318,11.130 11.040,14.346 8.741,18.599 C7.146,21.550 6.436,23.781 5.281,26.011 C3.521,24.747 1.760,23.485 0.001,22.223 C1.943,20.741 4.150,19.502 5.828,17.775 C8.929,14.580 5.474,12.117 1.457,10.034 Z" class="cls-1"/>
</svg>
