<svg xmlns="http://www.w3.org/2000/svg" xmlns:xlink="http://www.w3.org/1999/xlink" preserveAspectRatio="xMidYMid" width="36.031" height="35" viewBox="0 0 36.031 35">
  <defs>
    <style>
      .cls-1 {
        fill: #000;
        fill-rule: evenodd;
      }
    </style>
  </defs>
  <path d="M18.008,35.007 C8.061,35.007 -0.003,27.167 -0.003,17.496 C-0.003,7.826 8.061,-0.013 18.008,-0.013 C27.954,-0.013 36.017,7.826 36.017,17.496 C36.017,27.167 27.954,35.007 18.008,35.007 ZM18.002,3.244 C9.899,3.244 3.331,9.622 3.331,17.487 C3.331,25.353 9.899,31.730 18.002,31.730 C26.104,31.730 32.673,25.353 32.673,17.487 C32.673,9.622 26.104,3.244 18.002,3.244 ZM25.152,14.945 C23.312,14.945 21.590,15.438 20.123,16.298 L20.143,16.277 C20.143,13.811 22.202,11.811 24.743,11.811 C27.139,11.811 29.107,13.582 29.324,15.852 C28.059,15.270 26.644,14.945 25.152,14.945 ZM9.859,18.839 C10.086,18.515 10.481,18.278 10.916,18.278 C11.617,18.278 12.186,18.830 12.186,19.511 C12.186,20.192 11.617,20.744 10.916,20.744 L10.908,20.744 L10.916,20.764 C11.617,20.764 12.186,21.316 12.186,21.996 C12.186,22.677 11.617,23.229 10.916,23.229 C10.216,23.229 9.644,22.677 9.644,21.995 C9.644,22.677 9.076,23.229 8.375,23.229 C7.674,23.229 7.105,22.677 7.105,21.996 C7.105,21.317 7.666,20.767 8.367,20.764 C7.659,20.764 7.105,20.192 7.105,19.511 C7.105,18.830 7.674,18.278 8.375,18.278 C8.875,18.278 9.307,18.558 9.515,18.966 C9.611,17.490 10.155,16.128 10.920,14.945 L10.911,14.945 C9.418,14.945 8.000,15.263 6.735,15.845 C6.953,13.575 8.924,11.811 11.319,11.811 C13.860,11.811 15.920,13.811 15.920,16.277 L15.940,16.298 C14.697,15.570 13.268,15.104 11.743,14.978 C10.810,16.072 10.129,17.383 9.859,18.839 ZM9.126,20.763 C9.126,21.041 9.358,21.266 9.643,21.266 C9.929,21.266 10.162,21.041 10.162,20.763 C10.162,20.484 9.929,20.259 9.643,20.259 C9.358,20.259 9.126,20.484 9.126,20.763 Z" class="cls-1"/>
</svg>
