<svg xmlns="http://www.w3.org/2000/svg" xmlns:xlink="http://www.w3.org/1999/xlink" preserveAspectRatio="xMidYMid" width="36" height="32" viewBox="0 0 36 32">
  <defs>
    <style>
      .cls-1 {
        fill: #000;
        fill-rule: evenodd;
      }
    </style>
  </defs>
  <path d="M35.864,16.211 C35.600,16.947 35.160,17.581 34.632,18.142 C33.871,18.950 33.052,19.701 32.212,20.431 C31.791,20.797 31.369,21.162 30.947,21.528 C30.069,22.288 29.153,23.001 28.229,23.701 C26.891,24.715 25.518,25.682 24.102,26.587 C22.709,27.477 21.285,28.312 19.813,29.068 C19.099,29.435 18.374,29.777 17.640,30.101 C16.165,30.752 14.657,31.310 13.090,31.699 C12.325,31.889 11.546,32.000 10.758,31.999 C10.234,31.998 9.715,31.929 9.207,31.794 C7.549,31.237 6.727,30.006 6.413,28.365 C7.458,28.096 8.506,27.838 9.547,27.556 C12.015,26.888 14.383,25.953 16.691,24.866 C20.266,23.184 23.683,21.233 26.849,18.865 C27.470,18.400 28.070,17.911 28.496,17.249 C28.760,16.839 28.959,16.405 28.928,15.899 C28.957,15.523 28.850,15.177 28.697,14.841 C28.369,14.121 27.824,13.575 27.238,13.065 C26.586,12.498 25.872,12.018 25.132,11.573 C24.168,10.957 23.171,10.397 22.169,9.847 C21.355,9.400 20.537,8.962 19.709,8.542 C17.357,7.350 14.959,6.264 12.480,5.352 C11.014,4.812 9.518,4.374 8.019,3.939 C7.725,3.857 7.431,3.775 7.138,3.691 C7.061,3.669 6.979,3.665 7.016,3.532 C7.180,2.933 7.318,2.322 7.651,1.789 C8.361,0.656 9.402,0.069 10.739,-0.001 C11.782,-0.056 12.769,0.208 13.747,0.526 C15.696,1.158 17.584,1.940 19.434,2.814 C21.512,3.796 23.547,4.858 25.512,6.048 C26.483,6.636 27.472,7.196 28.411,7.836 C28.961,8.210 29.503,8.597 30.064,8.954 C30.417,9.178 30.760,9.416 31.105,9.651 C31.146,9.678 31.193,9.698 31.210,9.750 C31.776,10.103 32.299,10.515 32.822,10.925 C33.564,11.508 34.293,12.112 34.888,12.848 C35.389,13.467 35.861,14.114 35.966,14.940 C36.021,15.370 36.037,15.799 35.864,16.211 ZM7.160,4.786 C7.185,4.727 8.164,5.018 8.287,5.052 C9.647,5.446 11.028,5.850 12.359,6.340 C14.608,7.168 16.784,8.153 18.918,9.235 C19.669,9.616 20.411,10.013 21.149,10.418 C22.059,10.918 22.964,11.426 23.839,11.985 C24.510,12.389 25.158,12.825 25.749,13.339 C26.280,13.801 26.775,14.296 27.073,14.950 C27.212,15.255 27.309,15.569 27.282,15.911 C27.310,16.369 27.130,16.763 26.891,17.135 C26.504,17.736 25.960,18.180 25.396,18.601 C22.523,20.750 19.423,22.520 16.179,24.047 C14.085,25.033 11.937,25.881 9.697,26.487 C8.753,26.743 7.802,26.977 6.854,27.221 C6.816,27.226 6.776,27.224 6.741,27.236 C6.586,27.292 6.487,27.260 6.474,27.079 C6.428,26.724 6.377,26.369 6.338,26.013 C6.263,25.327 6.186,24.641 6.129,23.953 C6.085,23.419 6.074,22.881 6.040,22.346 C5.993,21.603 5.959,20.861 5.968,20.117 C5.964,20.080 5.960,20.044 5.956,20.007 C5.924,19.721 5.935,19.435 5.938,19.148 C5.936,19.077 5.932,19.007 5.932,18.936 C5.928,17.646 5.925,16.356 5.973,15.066 C5.980,14.880 5.951,14.691 5.976,14.508 C6.055,13.929 6.069,13.348 6.089,12.766 C6.102,12.397 6.138,12.029 6.171,11.662 C6.216,11.148 6.268,10.635 6.319,10.122 C6.361,9.692 6.386,9.259 6.453,8.833 C6.521,8.403 6.564,7.971 6.632,7.541 C6.731,6.923 6.803,6.299 6.956,5.690 L7.061,5.141 L7.160,4.786 ZM10.399,12.405 C10.402,13.226 10.431,14.047 10.408,14.869 C10.415,16.475 10.419,18.082 10.432,19.688 C10.436,20.227 10.394,20.768 10.463,21.305 C10.539,21.904 10.948,22.146 11.518,21.947 C11.815,21.843 12.059,21.652 12.316,21.481 C14.534,20.003 16.757,18.532 18.973,17.051 C19.350,16.799 19.757,16.587 20.070,16.246 C20.433,15.850 20.447,15.437 20.108,15.029 C19.886,14.762 19.599,14.585 19.302,14.409 C18.505,13.936 17.724,13.437 16.936,12.948 C16.912,12.940 16.885,12.936 16.865,12.924 C15.777,12.251 14.690,11.576 13.602,10.904 C12.939,10.495 12.283,10.074 11.609,9.684 C10.995,9.330 10.475,9.601 10.397,10.287 C10.392,10.338 10.392,10.390 10.392,10.441 C10.394,11.096 10.396,11.751 10.399,12.405 ZM5.699,6.676 C5.624,7.149 5.576,7.626 5.502,8.099 C5.428,8.569 5.400,9.046 5.353,9.520 C5.298,10.085 5.241,10.651 5.190,11.217 C5.154,11.622 5.114,12.027 5.100,12.433 C5.079,13.075 5.063,13.716 4.976,14.354 C4.949,14.555 4.980,14.764 4.973,14.968 C4.920,16.390 4.922,17.812 4.927,19.234 C4.927,19.312 4.932,19.390 4.934,19.467 C4.931,19.783 4.918,20.099 4.953,20.414 C4.930,20.458 4.934,20.498 4.967,20.536 C4.957,21.355 4.994,22.174 5.046,22.992 C5.084,23.582 5.096,24.174 5.144,24.764 C5.207,25.521 5.293,26.277 5.375,27.033 C5.417,27.426 5.474,27.817 5.525,28.208 C4.836,28.321 4.148,28.414 3.447,28.324 C2.627,28.219 2.018,27.803 1.597,27.106 C1.159,26.382 0.924,25.587 0.782,24.759 C0.450,22.826 0.247,20.880 0.130,18.924 C0.040,17.426 -0.028,15.928 0.028,14.428 C0.068,13.333 0.175,12.243 0.306,11.154 C0.478,9.715 0.715,8.287 1.073,6.882 C1.236,6.245 1.425,5.615 1.733,5.028 C2.184,4.169 2.921,3.724 3.858,3.576 C4.606,3.458 5.344,3.556 6.078,3.708 C6.180,3.729 6.220,3.772 6.196,3.902 L6.056,4.635 C5.887,5.307 5.808,5.994 5.699,6.676 Z" class="cls-1"/>
</svg>
