<svg xmlns="http://www.w3.org/2000/svg" xmlns:xlink="http://www.w3.org/1999/xlink" preserveAspectRatio="xMidYMid" width="17" height="36.031" viewBox="0 0 17 36.031">
  <defs>
    <style>
      .cls-1 {
        fill: #000;
        fill-rule: evenodd;
      }
    </style>
  </defs>
  <path d="M0.011,29.013 C0.059,28.726 0.103,28.437 0.157,28.151 C0.404,26.843 1.007,25.700 1.888,24.697 C3.346,23.037 5.215,22.052 7.397,21.633 C8.866,21.351 10.335,21.400 11.780,21.821 C11.855,21.842 11.932,21.855 12.054,21.882 C11.706,21.402 11.387,20.960 11.066,20.518 C8.039,16.343 5.011,12.168 1.982,7.994 C1.766,7.697 1.688,7.396 1.786,7.027 C2.032,6.101 2.626,5.427 3.382,4.872 C4.585,3.991 5.962,3.467 7.405,3.108 C8.215,2.907 9.052,2.810 9.864,2.615 C10.555,2.449 11.243,2.250 11.904,1.995 C12.989,1.575 13.979,1.004 14.688,0.005 C14.803,0.570 14.947,1.132 15.022,1.702 C15.083,2.162 15.097,2.633 15.071,3.096 C14.964,4.967 14.194,6.516 12.670,7.693 C11.650,8.480 10.467,8.854 9.201,9.003 C8.445,9.092 7.682,9.120 6.903,9.177 C6.914,9.205 6.930,9.264 6.960,9.315 C8.419,11.828 9.880,14.342 11.341,16.855 C12.777,19.324 14.213,21.792 15.647,24.262 C15.951,24.784 16.300,25.291 16.529,25.843 C17.218,27.498 17.144,29.163 16.419,30.789 C15.423,33.023 13.662,34.481 11.374,35.372 C10.044,35.890 8.653,36.112 7.227,36.012 C5.041,35.860 3.122,35.104 1.638,33.476 C0.506,32.234 0.011,30.637 0.011,29.013 C0.059,28.726 0.011,29.228 0.011,29.013 Z" class="cls-1"/>
</svg>
