<svg xmlns="http://www.w3.org/2000/svg" xmlns:xlink="http://www.w3.org/1999/xlink" preserveAspectRatio="xMidYMid" width="32" height="27" viewBox="0 0 32 27">
  <defs>
    <style>
      .cls-1 {
        fill: #000;
        fill-rule: evenodd;
      }
    </style>
  </defs>
  <path d="M18.549,0.008 L1.171,0.008 C0.532,0.008 0.013,0.516 0.013,1.143 L0.013,9.000 L16.310,9.000 C16.649,9.000 16.973,9.136 17.205,9.378 L20.987,13.297 C21.072,13.385 21.072,13.521 20.988,13.609 L17.206,17.566 C16.973,17.810 16.717,18.010 16.376,18.010 L0.013,18.010 L0.013,25.876 C0.013,26.503 0.532,27.012 1.171,27.012 L18.545,27.012 C18.928,27.012 19.295,26.863 19.566,26.597 L31.304,15.079 C32.219,14.182 32.216,12.727 31.297,11.833 L19.565,0.418 C19.295,0.155 18.930,0.008 18.549,0.008 Z" class="cls-1"/>
</svg>
