<svg xmlns="http://www.w3.org/2000/svg" xmlns:xlink="http://www.w3.org/1999/xlink" preserveAspectRatio="xMidYMid" width="31.125" height="33.344" viewBox="0 0 31.125 33.344">
  <defs>
    <style>
      .cls-1 {
        fill: #000;
        fill-rule: evenodd;
      }
    </style>
  </defs>
  <path d="M5.351,3.792 C7.035,3.308 8.518,4.827 8.578,7.048 C10.097,6.788 11.465,7.100 12.541,8.210 C13.620,9.324 13.887,10.656 13.467,12.192 C14.997,11.910 16.347,12.177 17.435,13.230 C18.526,14.286 18.851,15.575 18.514,17.099 C20.040,16.730 21.437,16.926 22.605,17.970 C23.786,19.026 24.103,20.361 23.802,21.936 C25.126,21.809 26.239,22.124 26.953,23.256 C27.280,23.773 27.435,24.336 27.356,25.095 C19.099,18.811 11.814,11.741 5.351,3.792 ZM31.137,29.677 C27.979,30.347 24.831,30.361 21.661,29.838 C22.425,26.378 21.438,23.663 18.271,21.884 C16.030,20.625 12.522,20.680 9.959,23.203 C9.846,23.123 9.728,23.040 9.611,22.955 C8.843,22.401 7.994,22.037 7.045,21.880 C6.844,21.847 6.621,21.722 6.486,21.573 C3.267,18.012 1.236,13.900 0.385,9.234 C0.014,7.195 -0.086,5.145 0.056,3.087 C0.127,2.068 0.303,1.056 0.432,0.041 C0.488,0.029 0.545,0.016 0.601,0.004 C9.109,11.501 19.292,21.373 31.137,29.677 ZM3.034,24.018 C4.962,22.386 8.162,22.446 10.025,24.941 C12.310,21.461 16.765,21.531 19.096,23.811 C21.450,26.113 21.324,29.833 18.820,31.984 C16.381,34.079 11.843,33.933 9.816,30.231 C7.543,32.797 4.157,32.189 2.577,30.415 C0.896,28.528 1.085,25.668 3.034,24.018 ZM13.982,25.038 C13.506,25.047 13.110,25.451 13.121,25.917 C13.132,26.377 13.502,26.725 13.986,26.728 C14.496,26.732 14.863,26.381 14.862,25.891 C14.861,25.417 14.459,25.028 13.982,25.038 ZM18.219,25.316 C17.790,25.304 17.386,25.680 17.372,26.105 C17.358,26.543 17.716,26.898 18.179,26.905 C18.667,26.913 18.997,26.608 19.005,26.142 C19.012,25.690 18.669,25.329 18.219,25.316 ZM14.311,30.872 C15.409,31.511 16.534,31.491 17.605,30.810 C18.465,30.263 18.911,29.471 18.944,28.449 C16.893,28.449 14.897,28.449 12.846,28.449 C12.938,29.515 13.394,30.338 14.311,30.872 ZM3.927,25.035 C3.579,25.035 3.315,25.303 3.325,25.647 C3.335,25.978 3.581,26.205 3.929,26.204 C4.277,26.204 4.523,25.976 4.531,25.645 C4.540,25.302 4.275,25.034 3.927,25.035 ZM7.388,25.549 C6.993,25.555 6.672,25.863 6.675,26.234 C6.678,26.612 6.993,26.906 7.395,26.908 C7.805,26.910 8.111,26.632 8.120,26.247 C8.130,25.845 7.813,25.543 7.388,25.549 ZM4.904,30.091 C6.275,30.394 7.647,29.546 7.923,28.165 C6.289,27.885 4.656,27.605 3.026,27.326 C2.718,28.535 3.600,29.803 4.904,30.091 Z" class="cls-1"/>
</svg>
