<svg xmlns="http://www.w3.org/2000/svg" xmlns:xlink="http://www.w3.org/1999/xlink" preserveAspectRatio="xMidYMid" width="38.468" height="33.563" viewBox="0 0 38.468 33.563">
  <defs>
    <style>
      .cls-1 {
        fill: #000;
        fill-rule: evenodd;
      }
    </style>
  </defs>
  <path d="M38.343,19.417 C34.666,17.905 30.728,16.874 26.613,16.401 C27.186,15.588 27.666,14.722 28.095,13.801 C28.101,13.789 28.106,13.777 28.110,13.765 C27.300,14.142 26.591,14.663 26.525,14.668 C26.562,14.579 27.487,13.802 28.229,13.101 C28.231,13.095 28.233,13.089 28.236,13.082 C28.727,11.957 29.252,10.775 29.795,9.495 C29.074,9.690 28.420,9.960 28.355,9.965 C28.397,9.864 29.539,8.903 30.298,8.152 C30.717,7.227 31.191,6.245 31.757,5.266 C31.806,5.182 31.864,5.087 31.728,5.122 C31.177,5.286 31.067,5.371 30.955,5.410 C30.988,5.331 31.716,4.758 32.374,4.195 C33.093,2.995 33.933,1.748 34.957,0.465 C35.520,-0.184 34.984,0.012 34.712,0.125 C27.815,2.987 21.637,7.139 16.514,12.308 C16.498,12.325 16.481,12.343 16.465,12.360 C15.693,11.618 14.744,10.989 13.926,10.533 C12.938,9.981 11.792,9.666 10.569,9.666 C10.164,9.666 9.770,9.706 9.384,9.772 C9.242,9.774 9.055,9.818 8.808,9.920 C6.569,10.849 0.985,10.719 0.177,10.765 C-0.072,10.779 -0.129,11.213 0.561,11.213 C4.112,11.213 7.825,12.011 8.281,12.365 C8.516,12.799 8.646,13.289 8.630,13.800 C8.576,15.523 8.449,15.719 8.449,17.315 C8.449,20.688 10.937,22.891 11.652,23.358 C14.467,25.254 17.492,26.839 20.721,28.057 C22.427,28.664 24.267,31.784 26.364,33.490 C26.503,33.603 26.676,33.563 26.639,33.345 C26.057,30.835 25.205,28.398 24.409,26.041 C24.093,25.105 23.740,24.186 23.356,23.283 C25.234,23.380 26.818,23.026 28.175,22.577 C28.245,22.554 28.276,22.530 28.276,22.505 C28.276,22.481 28.259,22.457 28.199,22.433 C27.605,22.203 27.083,22.076 27.053,22.035 C27.171,22.015 28.284,22.177 29.141,22.182 C29.243,22.187 29.294,22.176 29.363,22.148 C30.009,21.899 30.598,21.655 31.141,21.468 C31.177,21.455 31.202,21.442 31.200,21.418 C31.198,21.393 31.180,21.387 31.146,21.367 C30.793,21.160 30.462,21.103 30.426,21.056 C30.543,21.036 31.386,21.212 32.154,21.230 C32.609,21.068 33.077,20.909 33.561,20.756 C33.603,20.743 33.621,20.728 33.625,20.706 C33.629,20.683 33.611,20.675 33.575,20.655 C33.250,20.476 33.011,20.361 32.989,20.332 C33.083,20.316 33.552,20.442 34.138,20.521 C34.220,20.536 34.295,20.530 34.358,20.513 C35.583,20.155 36.905,19.836 38.351,19.586 C38.445,19.569 38.457,19.542 38.455,19.517 C38.453,19.493 38.440,19.457 38.343,19.417 Z" class="cls-1"/>
</svg>
