<svg xmlns="http://www.w3.org/2000/svg" xmlns:xlink="http://www.w3.org/1999/xlink" preserveAspectRatio="xMidYMid" width="32" height="20" viewBox="0 0 32 20">
  <defs>
    <style>
      .cls-1 {
        fill: #000;
        fill-rule: evenodd;
      }
    </style>
  </defs>
  <path d="M32.010,19.606 C32.010,19.929 31.946,19.991 31.613,19.992 C30.203,19.992 28.792,19.992 27.381,19.992 C27.052,19.991 26.986,19.926 26.986,19.606 C26.986,16.401 26.986,13.197 26.986,9.992 C26.986,6.788 26.986,3.584 26.986,0.379 C26.986,0.056 27.051,-0.007 27.381,-0.007 C28.785,-0.007 30.189,-0.007 31.593,-0.007 C31.950,-0.007 32.011,0.052 32.011,0.398 C32.011,6.800 32.011,13.203 32.010,19.606 ZM22.000,20.000 C20.635,20.000 20.365,20.001 19.000,20.000 C18.627,20.000 18.000,19.356 18.000,19.000 C18.000,15.010 17.989,11.990 18.000,8.000 C18.002,7.185 17.541,5.638 17.000,5.000 C16.354,4.239 16.017,4.004 15.000,4.000 C11.815,3.988 9.185,3.999 6.000,4.000 C5.184,4.000 5.000,4.295 5.000,5.000 C5.000,10.012 5.019,14.599 5.019,19.611 C5.019,19.929 4.954,19.991 4.619,19.991 C3.202,19.991 1.785,19.992 0.368,19.991 C0.075,19.991 -0.008,19.912 -0.008,19.639 C-0.008,16.422 -0.008,13.206 -0.008,9.989 C-0.007,9.989 -0.007,9.989 -0.006,9.989 C-0.006,6.797 -0.006,3.605 -0.006,0.413 C-0.006,0.044 0.043,-0.006 0.435,-0.006 C6.037,-0.007 11.641,-0.017 17.243,-0.000 C18.722,0.004 20.019,0.530 21.121,1.479 C22.296,2.491 22.928,3.766 23.102,5.261 C23.115,5.378 23.110,5.498 23.110,5.616 C23.110,10.267 23.000,14.349 23.000,19.000 C23.000,19.843 22.383,20.000 22.000,20.000 ZM10.000,8.000 C11.416,7.997 11.584,7.998 13.000,8.000 C13.794,8.032 14.000,8.718 14.000,9.000 C14.000,10.919 14.027,11.952 14.027,13.871 C14.027,15.790 14.027,17.709 14.027,19.629 C14.027,19.927 13.959,19.991 13.651,19.991 C12.241,19.991 10.831,19.992 9.421,19.991 C9.074,19.991 9.009,19.928 9.009,19.602 C9.009,15.776 9.000,12.826 9.000,9.000 C9.000,8.516 9.032,8.000 10.000,8.000 Z" class="cls-1"/>
</svg>
