<svg xmlns="http://www.w3.org/2000/svg" xmlns:xlink="http://www.w3.org/1999/xlink" preserveAspectRatio="xMidYMid" width="35.531" height="31.562" viewBox="0 0 35.531 31.562">
  <defs>
    <style>
      .cls-1 {
        fill: #000;
        fill-rule: evenodd;
      }
    </style>
  </defs>
  <path d="M26.905,22.578 C22.137,22.559 18.321,18.778 18.319,14.143 C18.318,9.492 22.190,5.707 26.952,5.724 C31.716,5.740 35.544,9.496 35.524,14.206 C35.504,18.880 31.588,22.589 26.905,22.578 ZM12.589,10.112 C9.744,10.108 7.434,7.841 7.436,5.055 C7.439,2.262 9.766,-0.007 12.619,-0.000 C15.453,0.007 17.762,2.286 17.760,5.073 C17.758,7.852 15.435,10.116 12.589,10.112 ZM3.406,17.509 C1.353,17.494 -0.008,15.841 0.001,14.134 C0.011,12.260 1.621,10.751 3.441,10.804 C5.334,10.805 6.877,12.305 6.862,14.156 C6.848,15.990 5.378,17.524 3.406,17.509 ZM12.619,18.074 C16.428,18.098 19.485,21.102 19.474,24.839 C19.464,28.565 16.400,31.552 12.595,31.549 C8.866,31.573 5.707,28.578 5.708,24.823 C5.708,21.095 8.789,18.050 12.619,18.074 Z" class="cls-1"/>
</svg>
