<svg xmlns="http://www.w3.org/2000/svg" xmlns:xlink="http://www.w3.org/1999/xlink" preserveAspectRatio="xMidYMid" width="28" height="34.657" viewBox="0 0 28 34.657">
  <defs>
    <style>
      .cls-1 {
        fill: #000;
        fill-rule: evenodd;
      }
    </style>
  </defs>
  <path d="M27.520,19.798 C26.627,20.550 25.726,21.292 24.830,22.040 C24.507,22.309 24.191,22.588 23.862,22.851 C23.726,22.960 23.574,23.063 23.413,23.130 C23.070,23.272 23.072,23.455 23.000,23.094 C22.982,23.002 23.000,22.189 23.000,22.094 C22.999,20.929 23.000,20.259 23.000,19.094 C23.000,17.937 23.000,16.251 23.000,15.094 C23.045,14.738 23.047,14.725 23.397,14.824 C23.536,14.863 23.675,14.934 23.788,15.023 C25.024,15.997 26.255,16.977 27.488,17.955 C28.172,18.497 28.190,19.234 27.520,19.798 ZM23.000,15.094 C22.990,15.173 23.000,15.014 23.000,15.094 ZM27.000,7.094 C27.002,6.691 27.002,7.497 27.000,7.094 ZM25.793,8.185 C23.555,8.186 22.317,8.185 20.080,8.186 C19.991,8.186 19.902,8.186 19.776,8.186 C19.776,8.293 19.000,7.964 19.000,9.094 C19.000,16.796 19.000,23.392 19.000,31.094 C19.000,31.196 19.006,32.992 19.000,33.094 C18.983,33.374 18.284,34.088 18.000,34.094 C17.728,34.088 17.021,33.361 17.000,33.094 C16.993,33.007 17.000,31.182 17.000,31.094 C17.000,23.416 17.000,15.863 17.000,8.186 C15.605,8.185 14.211,8.186 12.816,8.185 C12.368,8.185 12.168,7.985 12.168,7.540 C12.167,7.152 11.997,7.482 12.000,7.094 C12.002,6.725 12.625,6.094 13.000,6.094 C17.677,6.093 21.323,6.093 26.000,6.094 C26.393,6.094 26.998,6.712 27.000,7.094 C26.998,7.476 26.186,8.185 25.793,8.185 ZM17.000,8.122 C17.000,8.112 17.000,8.103 17.000,8.094 C16.962,8.094 16.976,8.107 17.000,8.122 ZM18.000,34.094 C18.468,34.104 17.532,34.103 18.000,34.094 ZM8.000,9.094 C8.736,9.094 9.048,9.039 9.784,9.043 C11.119,9.050 12.188,10.102 12.190,11.422 C12.193,15.107 12.193,18.793 12.190,22.478 C12.188,23.794 10.337,25.088 9.000,25.094 C8.271,25.097 7.729,25.094 7.000,25.094 C7.000,27.082 7.000,29.093 7.000,31.094 C7.685,30.603 8.921,29.680 9.609,29.192 C9.910,28.978 9.960,28.991 10.174,29.289 C10.445,29.665 10.717,30.040 10.987,30.418 C11.186,30.697 11.168,30.818 10.907,31.030 C9.416,32.241 7.928,33.456 6.430,34.659 C5.883,34.104 6.018,34.398 5.741,34.051 C5.129,33.499 5.029,33.571 5.000,33.094 C5.000,30.060 5.000,28.127 5.000,25.094 C4.900,25.094 4.079,25.094 4.000,25.094 C3.271,25.094 2.728,25.097 2.000,25.094 C0.651,25.088 -0.011,23.793 -0.012,22.461 C-0.015,18.790 -0.015,15.119 -0.012,11.448 C-0.011,10.089 1.053,9.046 2.434,9.042 C3.229,9.040 4.173,9.094 5.000,9.094 C5.000,6.478 5.000,3.710 5.000,1.094 C5.000,0.371 5.370,-0.283 6.000,0.094 C6.429,0.351 6.803,0.856 7.194,1.170 C8.431,2.167 9.662,3.171 10.895,4.172 C11.170,4.395 11.188,4.513 10.983,4.800 C10.705,5.189 10.424,5.576 10.144,5.964 C9.971,6.205 9.902,6.225 9.658,6.053 C8.976,5.571 8.299,5.082 7.619,4.596 C7.536,4.537 7.118,4.178 7.000,4.094 C7.000,5.665 7.000,7.539 7.000,9.094 C7.085,9.094 7.922,9.094 8.000,9.094 ZM7.000,23.094 C7.575,23.094 8.437,23.094 9.000,23.094 C9.494,23.094 10.000,22.579 10.000,22.094 C10.000,18.885 10.000,15.302 10.000,12.094 C9.970,11.847 9.250,11.099 9.000,11.094 C8.370,11.080 7.645,11.094 7.000,11.094 C7.000,14.749 7.000,19.449 7.000,23.094 ZM5.000,11.094 C4.365,11.094 3.609,11.085 3.000,11.094 C2.678,11.098 2.000,11.758 2.000,12.094 C1.999,15.361 1.998,18.827 2.000,22.094 C2.000,22.445 2.639,23.090 3.000,23.094 C3.327,23.098 3.673,23.094 4.000,23.094 C4.272,23.094 4.723,23.094 5.000,23.094 C5.000,19.440 5.000,14.743 5.000,11.094 Z" class="cls-1"/>
</svg>
