<?xml version="1.0" encoding="utf-8"?>
<!-- Generator: Adobe Illustrator 18.0.0, SVG Export Plug-In . SVG Version: 6.00 Build 0)  -->
<!DOCTYPE svg PUBLIC "-//W3C//DTD SVG 1.1//EN" "http://www.w3.org/Graphics/SVG/1.1/DTD/svg11.dtd">
<svg version="1.1" id="图层_1" xmlns="http://www.w3.org/2000/svg" xmlns:xlink="http://www.w3.org/1999/xlink" x="0px" y="0px"
	 viewBox="0 0 595.3 841.9" enable-background="new 0 0 595.3 841.9" xml:space="preserve">
<path fill="#5B5C5C" d="M450.8,537.9C371,537.6,307,472.6,307,392.9c0-80,64.9-145,144.7-144.7c79.8,0.3,144,64.9,143.6,145.8
	C594.9,474.3,529.3,538.1,450.8,537.9z"/>
<path fill="#5B5C5C" d="M211,692.1c-62.5,0.4-115.4-51.1-115.4-115.6c0-64.1,51.6-116.4,115.8-116c63.8,0.4,115,52.1,114.9,116.3
	C326.1,640.8,274.8,692.2,211,692.1z"/>
<path fill="#5B5C5C" d="M210.9,323.6c-47.7-0.1-86.4-39-86.3-86.9c0-48,39-87,86.9-86.9c47.5,0.1,86.2,39.3,86.1,87.2
	C297.6,284.7,258.6,323.7,210.9,323.6z"/>
<path fill="#5B5C5C" d="M57.7,335.5c31.7,0,57.6,25.8,57.3,57.6c-0.2,31.5-24.9,57.9-57.9,57.7c-34.4-0.3-57.2-28.7-57.1-58
	C0.2,360.5,27.1,334.6,57.7,335.5z"/>
</svg>
