<svg xmlns="http://www.w3.org/2000/svg" xmlns:xlink="http://www.w3.org/1999/xlink" preserveAspectRatio="xMidYMid" width="29" height="28.031" viewBox="0 0 29 28.031">
  <defs>
    <style>
      .cls-1 {
        fill: #000;
        fill-rule: evenodd;
      }
    </style>
  </defs>
  <path d="M21.000,3.000 C20.981,11.275 20.999,19.728 21.000,28.000 C20.109,28.000 18.891,28.000 18.000,28.000 C18.000,21.855 18.000,16.145 18.000,10.000 C18.000,7.785 17.999,5.215 18.000,3.000 C16.113,3.000 14.887,3.000 13.000,3.000 C13.000,2.110 12.858,0.897 12.858,0.019 C18.232,0.019 23.604,0.019 28.995,0.019 C28.995,0.879 29.000,2.107 29.000,3.000 C26.446,3.000 23.691,3.000 21.108,3.000 C21.152,2.970 21.162,2.938 21.000,3.000 ZM21.000,3.000 C21.035,3.000 21.073,3.000 21.108,3.000 C21.068,3.027 21.000,3.051 21.000,3.000 ZM21.000,28.000 C21.009,27.906 21.000,28.094 21.000,28.000 ZM13.000,14.000 C13.000,15.575 13.004,17.425 13.000,19.000 C12.998,19.871 11.850,20.805 11.000,21.000 C10.237,21.003 8.763,21.001 8.000,21.000 C8.000,22.514 8.000,23.486 8.000,25.000 C8.578,25.000 9.391,25.000 10.000,25.000 C10.000,24.436 10.000,24.578 10.000,24.000 C10.905,24.000 12.100,24.000 13.000,24.000 C12.999,24.758 12.990,24.755 13.000,26.000 C12.917,27.040 11.977,28.009 11.002,28.000 C7.649,28.000 3.342,28.000 0.009,28.000 C0.009,27.132 -0.000,25.897 -0.000,25.000 C1.496,25.000 3.504,25.000 5.000,25.000 C5.000,23.474 5.000,22.526 5.000,21.000 C5.024,21.000 5.046,21.000 5.000,21.000 C5.000,21.000 5.000,21.000 5.000,21.000 C4.990,21.000 4.985,21.000 4.979,21.000 C4.125,20.997 2.845,21.037 2.000,21.000 C1.097,20.961 0.012,19.982 0.011,19.089 C0.007,15.733 0.007,12.377 0.006,9.022 C0.006,8.286 0.005,7.550 0.004,6.814 C0.003,5.853 0.799,5.075 1.786,5.073 C2.662,5.071 4.124,5.001 5.000,5.000 C5.000,3.329 5.000,1.694 5.000,-0.000 C5.911,-0.000 7.084,-0.000 8.000,-0.000 C8.000,1.682 8.000,3.296 8.000,5.000 C8.028,5.000 8.071,5.000 8.000,5.000 C8.778,5.001 10.223,5.029 11.000,5.000 C11.936,4.965 13.006,5.856 13.000,7.000 C12.987,9.465 13.001,11.534 13.000,14.000 ZM5.000,8.000 C4.661,8.000 4.833,7.700 4.526,7.724 C4.010,7.765 3.000,8.440 3.000,9.000 C2.997,11.839 3.001,14.160 3.000,17.000 C3.034,17.397 2.938,16.873 3.000,18.000 C3.070,18.525 4.631,18.983 5.000,19.000 C5.000,15.484 5.000,11.498 5.000,8.000 ZM9.000,8.000 C8.648,7.953 8.371,8.000 8.000,8.000 C8.000,11.476 8.000,15.490 8.000,19.000 C8.274,19.000 8.745,19.002 9.000,19.000 C9.612,18.996 9.980,17.823 9.981,17.227 C9.982,16.248 9.982,15.270 9.981,14.291 C9.981,12.415 10.001,10.876 10.000,9.000 C10.000,8.533 9.419,8.056 9.000,8.000 ZM11.000,21.000 C10.852,21.218 10.840,21.037 11.000,21.000 ZM13.000,24.000 C13.000,23.936 13.255,24.478 13.000,24.000 ZM11.116,28.000 C11.080,28.000 11.041,28.000 11.005,28.000 C10.999,28.003 11.133,27.988 11.116,28.000 ZM11.000,28.000 C11.001,28.000 11.001,28.000 11.002,28.000 C11.003,28.000 11.004,28.000 11.005,28.000 C11.005,28.000 10.999,28.000 11.000,28.000 ZM29.010,17.682 C28.227,18.122 27.465,18.552 26.675,18.996 C25.029,16.221 23.386,13.452 21.731,10.661 C22.515,10.220 23.282,9.788 24.074,9.342 C25.722,12.126 27.362,14.897 29.010,17.682 Z" class="cls-1"/>
</svg>
