<svg xmlns="http://www.w3.org/2000/svg" xmlns:xlink="http://www.w3.org/1999/xlink" preserveAspectRatio="xMidYMid" width="32.031" height="33.406" viewBox="0 0 32.031 33.406">
  <defs>
    <style>
      .cls-1 {
        fill: #000;
        fill-rule: evenodd;
      }
    </style>
  </defs>
  <path d="M30.185,1.421 C27.325,2.960 24.447,4.465 21.573,5.979 C19.956,6.830 18.331,7.666 16.718,8.523 C15.738,9.045 14.758,9.571 13.809,10.145 C13.430,10.374 13.065,10.691 12.825,11.052 C12.634,11.338 12.572,11.752 12.578,12.107 C12.591,12.883 12.740,13.658 12.733,14.433 C12.707,16.980 11.209,18.480 8.688,18.839 C7.529,19.003 6.380,18.998 5.221,18.848 C5.025,18.822 4.746,18.917 4.603,19.053 C3.759,19.859 2.940,20.689 2.120,21.519 C1.704,21.940 1.314,22.386 0.897,22.805 C0.628,23.076 0.418,23.000 0.217,22.684 C-0.111,22.169 0.033,21.638 0.123,21.117 C0.354,19.773 0.532,18.413 0.880,17.097 C1.389,15.169 2.286,13.413 3.592,11.850 C4.803,10.401 6.353,9.406 8.012,8.571 C10.411,7.366 12.835,6.201 15.286,5.100 C18.778,3.532 22.360,2.174 26.037,1.071 C27.799,0.543 29.570,0.041 31.433,-0.008 C31.614,-0.013 31.796,0.036 32.043,0.069 C31.568,0.869 30.819,1.080 30.185,1.421 ZM5.074,22.020 C6.539,20.946 8.129,20.093 9.889,19.567 C11.667,19.036 13.423,19.195 15.165,19.751 C17.824,20.601 20.447,21.543 22.965,22.737 C24.547,23.487 26.129,24.244 27.652,25.097 C28.531,25.589 29.293,26.279 30.105,26.884 C30.134,26.905 30.132,26.967 30.188,27.167 C29.554,27.002 28.993,26.876 28.446,26.709 C24.756,25.585 21.072,24.445 17.379,23.333 C16.976,23.212 16.526,23.181 16.103,23.204 C15.841,23.218 15.547,23.362 15.338,23.532 C14.712,24.040 14.168,24.652 13.508,25.108 C12.170,26.034 10.807,25.885 9.657,24.749 C9.238,24.334 8.878,23.863 8.488,23.421 C8.413,23.337 8.323,23.208 8.233,23.203 C7.732,23.172 7.229,23.165 6.726,23.166 C5.946,23.167 5.165,23.185 4.384,23.187 C4.302,23.187 4.220,23.130 4.122,23.094 C4.178,22.496 4.693,22.299 5.074,22.020 ZM8.827,26.464 C10.761,28.336 12.537,30.333 14.040,32.553 C14.191,32.776 14.323,33.011 14.460,33.242 C14.480,33.276 14.478,33.322 14.487,33.362 C14.459,33.379 14.432,33.396 14.404,33.412 C12.879,31.913 11.354,30.414 9.828,28.916 C9.273,28.370 9.098,28.322 8.418,28.649 C7.402,29.138 6.806,28.706 6.418,27.968 C6.314,27.769 6.192,27.569 6.145,27.355 C6.017,26.773 5.638,26.436 5.103,26.210 C4.796,26.081 4.504,25.916 4.150,25.740 C4.263,25.654 4.330,25.569 4.416,25.544 C6.058,25.059 7.548,25.227 8.827,26.464 Z" class="cls-1"/>
</svg>
