<?xml version="1.0" encoding="utf-8"?>
<!-- Generator: Adobe Illustrator 18.0.0, SVG Export Plug-In . SVG Version: 6.00 Build 0)  -->
<!DOCTYPE svg PUBLIC "-//W3C//DTD SVG 1.1//EN" "http://www.w3.org/Graphics/SVG/1.1/DTD/svg11.dtd">
<svg version="1.1" id="图层_1" xmlns="http://www.w3.org/2000/svg" xmlns:xlink="http://www.w3.org/1999/xlink" x="0px" y="0px"
	 viewBox="0 0 595.3 841.9" enable-background="new 0 0 595.3 841.9" xml:space="preserve">
<path fill="#5B5C5C" d="M0.1,729c0-19.1,0-38.2,0-58c31.8,0,63.3,0,95.1,0c0-33.6,0-66.6,0-100.1c-2.2,0-4.3,0-6.3,0
	c-18.1-0.1-36.3,0.4-54.4-0.4c-19.2-0.9-34.3-18-34.4-37.6C0.1,459,0.1,385.2,0,311.3c0-16.2,0-32.4,0-48.6
	c0-21.1,16.9-38.3,37.9-38.3c18.6,0,37.2,0,55.9,0c0.3,0,0.6-0.2,1.6-0.4c0-36.8,0-73.8,0-111c19.4,0,38.1,0,57.6,0
	c0,37,0,74,0,111.5c2.5,0,4.2,0,5.9,0c16.5,0,33.1,0.5,49.6-0.1c19.9-0.8,40.1,15.2,40,40.4c-0.3,54.3-0.1,108.5-0.1,162.8
	c0,34.7,0,69.3,0,104c0,19.2-11.7,34.2-29.7,38.5c-3.4,0.8-7,1-10.5,1c-16.2,0.1-32.4,0-48.6,0c-1.9,0-3.8,0-6.2,0
	c0,33.3,0,66.3,0,99.6c12.3,0,24.7,0,37.6,0c0-12.4,0-24.8,0-37.5c19.2,0,37.9,0,57.1,0c0.1,1.4,0.3,2.8,0.3,4.2
	c0,16.7-0.1,33.4-0.1,50.1c-0.1,22.2-10.7,35.8-32,41c-0.4,0.1-0.8,0.5-1.2,0.8C143.3,729,71.7,729,0.1,729z M95.2,282.6
	c-7.2,0-13.8-0.4-20.3,0.1c-11,0.9-17.2,8.8-17.3,21.1c-0.1,62.5-0.1,125-0.1,187.5c0,1.3,0,2.6,0.1,3.9c0.7,8.7,5.9,15.6,14.5,17
	c7.5,1.2,15.2,0.9,23,1.3C95.2,436.1,95.2,359.6,95.2,282.6z M153.2,513.2c5.8,0,11.3,0,16.7,0c13-0.1,21-8.1,21-21.2
	c0-21.5,0-43.1,0-64.6c0-41.3,0-82.6,0-123.9c0-10.3-5.6-18.9-14.5-20.2c-7.5-1-15.2-0.2-23.1-0.2
	C153.2,359.5,153.2,435.9,153.2,513.2z"/>
<path fill="#5B5C5C" d="M371.9,729c0-135.3,0-270.6,0-405.8c0-48.8,0-97.5,0.1-146.3c0-1.8,0-3.5,0-6c-40.1,0-79.9,0-120,0
	c0-19.6,0-38.5,0-57.8c114.2,0,228.4,0,343,0c0,18.9,0,37.9,0,57.6c-55,0-110,0-165.5,0c0,2.4,0,4.1,0,5.8
	c0,182.1,0,364.2-0.1,546.3c0,2.1-0.4,4.1-0.6,6.2C409.8,729,390.9,729,371.9,729z"/>
<path fill="#5B5C5C" d="M595.3,501.9c-16.6,9.7-32.9,19.2-49.6,28.9c-35-61.1-69.9-122.1-105.1-183.5c16.6-9.7,33-19.2,49.8-29
	C525.4,379.6,560.2,440.6,595.3,501.9z"/>
</svg>
