<svg xmlns="http://www.w3.org/2000/svg" xmlns:xlink="http://www.w3.org/1999/xlink" preserveAspectRatio="xMidYMid" width="22" height="33" viewBox="0 0 22 33">
  <defs>
    <style>
      .cls-1 {
        fill: #000;
        fill-rule: evenodd;
      }
    </style>
  </defs>
  <path d="M21.420,4.709 L10.249,30.495 C9.559,32.052 8.494,33.765 6.012,32.633 C3.700,31.580 4.522,29.612 4.900,28.757 L7.943,22.120 L0.462,4.717 C0.316,4.206 -0.959,1.263 1.431,0.339 C3.764,-0.562 5.111,0.922 5.866,2.947 C5.866,2.947 10.574,14.897 10.645,15.097 C10.718,15.298 11.004,15.303 11.077,15.108 C11.151,14.914 16.108,2.660 16.108,2.660 C16.712,1.201 17.477,-0.741 20.335,0.296 C23.287,1.368 21.420,4.709 21.420,4.709 Z" class="cls-1"/>
</svg>
