<?xml version="1.0" encoding="iso-8859-1"?>
<!-- Generator: Adobe Illustrator 18.0.0, SVG Export Plug-In . SVG Version: 6.00 Build 0)  -->
<!DOCTYPE svg PUBLIC "-//W3C//DTD SVG 1.1//EN" "http://www.w3.org/Graphics/SVG/1.1/DTD/svg11.dtd">
<svg version="1.1" id="&#x56FE;&#x5C42;_1" xmlns="http://www.w3.org/2000/svg" xmlns:xlink="http://www.w3.org/1999/xlink" x="0px"
	 y="0px" viewBox="0 0 81.976 120.6" style="enable-background:new 0 0 81.976 120.6;" xml:space="preserve">
<path style="fill:#5B5C5C;" d="M79.807,17.199l-41.607,94.247c-2.569,5.691-6.535,11.953-15.779,7.816
	c-8.613-3.848-5.551-11.043-4.14-14.169l11.331-24.257L1.748,17.229c-0.542-1.87-5.29-12.627,3.611-16.001
	c8.687-3.294,13.707,2.128,16.517,9.531c0,0,17.534,43.678,17.799,44.41c0.274,0.734,1.337,0.752,1.608,0.04
	c0.276-0.712,18.739-45.5,18.739-45.5c2.251-5.332,5.099-12.429,15.744-8.639C86.762,4.988,79.807,17.199,79.807,17.199z"/>
</svg>
