<svg xmlns="http://www.w3.org/2000/svg" xmlns:xlink="http://www.w3.org/1999/xlink" preserveAspectRatio="xMidYMid" width="32" height="28" viewBox="0 0 32 28">
  <defs>
    <style>
      .cls-1 {
        fill: #000;
        fill-rule: evenodd;
      }
    </style>
  </defs>
  <path d="M29.163,28.004 C29.162,25.609 29.149,23.173 29.149,20.779 C29.148,15.466 29.149,10.154 29.149,4.842 C29.149,4.761 29.149,4.680 29.149,4.528 C28.881,4.854 28.654,5.126 28.432,5.402 C27.453,6.618 26.476,7.836 25.498,9.052 C24.265,10.585 23.031,12.116 21.797,13.648 C20.615,15.115 19.432,16.581 18.249,18.047 C18.126,18.199 18.022,18.366 17.888,18.508 C17.813,18.588 17.702,18.589 17.555,18.588 C16.523,18.585 15.491,18.585 14.459,18.588 C14.311,18.589 14.199,18.627 14.102,18.506 C12.429,16.423 10.748,14.345 9.072,12.264 C7.589,10.422 6.112,8.576 4.631,6.733 C4.095,6.066 3.558,5.400 3.019,4.735 C2.978,4.685 2.942,4.625 2.866,4.603 C2.821,4.696 2.845,4.793 2.845,4.887 C2.843,12.504 2.851,20.132 2.851,27.749 C2.851,27.824 2.852,27.929 2.851,28.004 C1.971,28.004 1.151,27.994 0.271,28.004 C0.115,28.005 0.013,28.004 0.013,28.004 C0.018,22.526 0.018,16.827 0.018,11.349 C0.018,7.637 0.019,3.926 0.013,0.214 C0.013,0.060 0.013,0.012 0.013,0.012 C0.893,0.021 1.971,0.012 2.851,0.012 C3.426,0.733 3.987,1.480 4.565,2.200 C5.476,3.334 6.392,4.466 7.305,5.599 C8.270,6.797 9.233,7.995 10.198,9.193 C11.177,10.408 12.158,11.622 13.137,12.837 C14.036,13.953 14.936,15.068 15.829,16.188 C15.957,16.348 16.035,16.348 16.163,16.188 C16.957,15.190 17.760,14.199 18.559,13.205 C19.443,12.106 20.325,11.006 21.210,9.907 C22.184,8.698 23.160,7.490 24.135,6.281 C24.992,5.219 25.850,4.156 26.705,3.092 C27.522,2.074 28.347,1.031 29.163,0.012 C30.043,0.012 32.001,0.010 32.001,0.012 C32.001,0.026 32.001,0.112 32.001,0.266 C31.996,5.789 31.974,11.259 31.974,16.782 C31.974,20.448 31.995,24.082 32.001,27.749 C32.001,27.903 32.001,28.013 32.001,28.004 C31.121,27.994 30.043,28.004 29.163,28.004 Z" class="cls-1"/>
</svg>
