<svg xmlns="http://www.w3.org/2000/svg" xmlns:xlink="http://www.w3.org/1999/xlink" preserveAspectRatio="xMidYMid" width="35.97" height="36" viewBox="0 0 35.97 36">
  <defs>
    <style>
      .cls-1 {
        fill: #000;
        fill-rule: evenodd;
      }
    </style>
  </defs>
  <path d="M17.991,36.002 C8.053,36.002 -0.003,27.940 -0.003,17.995 C-0.003,8.049 8.053,-0.013 17.991,-0.013 C27.928,-0.013 35.984,8.049 35.984,17.995 C35.984,27.940 27.928,36.002 17.991,36.002 ZM17.991,5.505 C11.099,5.505 5.511,11.097 5.511,17.995 C5.511,24.892 11.099,30.484 17.991,30.484 C24.883,30.484 30.470,24.892 30.470,17.995 C30.470,11.097 24.883,5.505 17.991,5.505 ZM13.623,25.599 C13.256,25.763 12.830,25.511 12.796,25.110 C12.390,20.278 12.377,15.518 12.796,10.839 C12.831,10.451 13.235,10.203 13.597,10.344 C18.650,12.317 22.823,14.748 26.366,17.512 C26.674,17.753 26.661,18.229 26.342,18.454 C22.434,21.209 18.170,23.562 13.623,25.599 Z" class="cls-1"/>
</svg>
