<?xml version="1.0" encoding="utf-8"?>
<!-- Generator: Adobe Illustrator 18.0.0, SVG Export Plug-In . SVG Version: 6.00 Build 0)  -->
<!DOCTYPE svg PUBLIC "-//W3C//DTD SVG 1.1//EN" "http://www.w3.org/Graphics/SVG/1.1/DTD/svg11.dtd">
<svg version="1.1" id="图层_1" xmlns="http://www.w3.org/2000/svg" xmlns:xlink="http://www.w3.org/1999/xlink" x="0px" y="0px"
	 viewBox="0 0 595.3 841.9" enable-background="new 0 0 595.3 841.9" xml:space="preserve">
<path fill="#5B5C5C" d="M225.4,546.5c75.2-33.6,145.7-72.5,210.4-118c5.3-3.7,5.5-11.6,0.4-15.6c-58.6-45.6-127.6-85.8-211.2-118.4
	c-6-2.3-12.7,1.8-13.2,8.2c-6.9,77.3-6.7,155.9,0,235.7C212.3,545.1,219.3,549.2,225.4,546.5z"/>
<path fill="#5B5C5C" d="M297.6,123.6C133.3,123.6,0,256.7,0,420.9s133.3,297.4,297.6,297.4s297.6-133.1,297.6-297.4
	S462,123.6,297.6,123.6z M297.6,627.2c-114,0-206.4-92.3-206.4-206.2s92.4-206.2,206.4-206.2S504.1,307,504.1,420.9
	C504.1,534.8,411.6,627.2,297.6,627.2z"/>
</svg>
