<?xml version="1.0" encoding="utf-8"?>
<!-- Generator: Adobe Illustrator 18.0.0, SVG Export Plug-In . SVG Version: 6.00 Build 0)  -->
<!DOCTYPE svg PUBLIC "-//W3C//DTD SVG 1.1//EN" "http://www.w3.org/Graphics/SVG/1.1/DTD/svg11.dtd">
<svg version="1.1" id="图层_1" xmlns="http://www.w3.org/2000/svg" xmlns:xlink="http://www.w3.org/1999/xlink" x="0px" y="0px"
	 viewBox="0 0 595.3 841.9" enable-background="new 0 0 595.3 841.9" xml:space="preserve">
<path fill="#5B5C5C" d="M172.7,562.7c3.3,1,7.7,6.1,14.9,15c26,31.8,50.6,64.7,77.5,95.8c11.1,12.9,12,15.4,13.7,10.1
	c8.5-26.8,16.8-51.3,9.3-62.6c-17.7-21.2-63-75.4-80.7-96.6L172.7,562.7z"/>
<path fill="#5B5C5C" d="M182.4,528.6c2.6-13.8,6.8-27.6,7.4-41.5c0.9-21.9,10.6-25.5,30.6-25.7c26.1-0.3,72.2-0.3,98.6,0
	c5.8,0.1,0.7,0.7-0.2-4.8c-3.3-20-13.6-44.1-34.3-44.5c-25.3-0.4-43.7,0-69.1,0c-9.7,0-19-3-17.8-16.8c3.4-38.8,0.4-77.8,4.6-116.6
	c1.7-15.6,7.9-20.7,22.5-20.2c19.3,0.7,54.2,0.4,73.5,0c22.7-0.4,27.9,6.4,4.7-33.5c-7.2-12.3-16.9-10.3-28.3-10.3
	c-48.4,0-99.5-0.4-148,0c-16.3,0.1-19.2-8.2-13.4-24.4c5.5-15.5,12.1-44,17.1-59.7c4.6-14.6-0.1-11.1-0.1-11.1
	c-20.2,11.7-55.2,26.9-63.4,47.7C46.8,218.1,23.8,282.4,2.6,332.9c-1.9,4.4-3.3,4.9,11.1,1.3c26.8-6.7,53.3-21,66.1-46.1
	c15.7-30.8,19-32.3,52.2-29.6c10.2,0.8,14.4,4,14.1,14.9c-1.1,38.1-1.8,76.3-1.5,114.5c0.2,16.9-6.7,24.7-22.8,24.2
	c-25.3-0.8-53.6,0.5-78.9,0c-16.3-0.3-34.3,16.3-37.1,38.2c-1.2,8.5-3.3,11-2.4,11.1c29.1-0.3,84.4,0.8,113.4,0
	c15.6-0.4,21.9,3.1,19.3,19.7C130,520,118.7,557,100.2,591.5C77.3,634.1,47,670.7,9.5,701.4c-4.4,3.6-11.1,7.2-9.2,14.1
	c2,7.4,9.6,6.5,15.2,6.3c35.5-1.3,69.9-5.4,95.1-35.5c25.4-30.3,41-65.7,54.8-102.2L182.4,528.6z"/>
<path fill="#5B5C5C" d="M393.1,624.2V264.1H546v360.1h-49.3l-69.8,44.9l-14.1-44.9H393.1 M595.3,219.7H343.7v448.8h49.3l14.4,54
	l74.3-54h113.4V220.8"/>
</svg>
