<?xml version="1.0" encoding="utf-8"?>
<!-- Generator: Adobe Illustrator 18.0.0, SVG Export Plug-In . SVG Version: 6.00 Build 0)  -->
<!DOCTYPE svg PUBLIC "-//W3C//DTD SVG 1.1//EN" "http://www.w3.org/Graphics/SVG/1.1/DTD/svg11.dtd">
<svg version="1.1" id="图层_1" xmlns="http://www.w3.org/2000/svg" xmlns:xlink="http://www.w3.org/1999/xlink" x="0px" y="0px"
	 viewBox="0 0 595.3 841.9" enable-background="new 0 0 595.3 841.9" xml:space="preserve">
<path fill="#5B5C5C" d="M293.7,573.3c-24.7-28.4-49.2-56.6-72.9-83.9c75.3-76.3,150.2-152.1,225.1-227.9c-148,0-296.6,0-445.8,0
	c0-38,0-75.3,0-113.3c2.3-0.1,4.5-0.3,6.6-0.3c177.1,0,354.1,0,531.2,0c29.9,0,49.8,14.7,55.9,40.9c0.5,2.2,1,4.4,1,6.6
	c-0.1,22.1,0.5,44.2-0.7,66.3c-0.7,11.9-7,22.4-15.7,30.9c-72.5,71.6-145,143.1-217.4,214.6c-20.8,20.6-41.7,41.1-62.5,61.7
	C297,570.3,295.5,571.6,293.7,573.3z"/>
<path fill="#5B5C5C" d="M4.9,580.8c196.7,0,388.6,0,585.4,0c4.9,0,4.9,2.8,4.9,4.9c0,44.3-0.2,70,0,103.3c0,5.1-4.2,4.9-9.8,4.9
	c-192.5-0.2-383.1,0-575.6,0C6.3,694,0,694.6,0,689c0.2-34.9,0-68.4,0-103.3C0,584.8,2.2,581.4,4.9,580.8z"/>
</svg>
