<svg xmlns="http://www.w3.org/2000/svg" xmlns:xlink="http://www.w3.org/1999/xlink" preserveAspectRatio="xMidYMid" width="30.062" height="27" viewBox="0 0 30.062 27">
  <defs>
    <style>
      .cls-1 {
        fill: #000;
        fill-rule: evenodd;
      }
    </style>
  </defs>
  <path d="M30.031,5.000 C29.998,5.591 29.910,6.552 29.470,6.976 C25.783,10.524 22.095,14.072 18.407,17.619 C17.347,18.639 16.287,19.659 15.227,20.678 C15.155,20.913 15.126,20.915 15.031,21.000 C13.773,19.589 12.238,18.353 11.031,17.000 C14.863,13.217 19.223,8.759 23.031,5.000 C15.502,5.000 7.620,5.000 0.031,5.000 C0.031,3.118 0.031,1.883 0.031,-0.000 C9.039,-0.001 19.023,-0.002 28.031,-0.000 C29.551,0.000 29.722,0.699 30.031,2.000 C30.028,3.096 30.093,3.907 30.031,5.000 ZM30.031,22.000 C30.031,24.196 30.020,24.349 30.031,26.000 C30.001,26.942 29.473,26.969 29.031,27.000 C19.239,26.993 10.823,26.999 1.031,27.000 C0.852,27.000 0.029,26.275 0.031,26.000 C0.041,24.269 0.030,23.731 0.031,22.000 C0.031,21.952 0.270,21.062 1.031,21.000 C6.036,21.000 10.533,21.000 15.031,21.000 C19.527,21.000 24.024,21.000 29.031,21.000 C29.281,21.000 30.062,20.989 30.031,22.000 ZM0.031,-0.000 C-0.080,-0.000 0.148,-0.005 0.031,-0.000 ZM30.031,2.000 C30.031,1.891 30.056,2.107 30.031,2.000 Z" class="cls-1"/>
</svg>
