<?xml version="1.0" encoding="utf-8"?>
<!-- Generator: Adobe Illustrator 18.0.0, SVG Export Plug-In . SVG Version: 6.00 Build 0)  -->
<!DOCTYPE svg PUBLIC "-//W3C//DTD SVG 1.1//EN" "http://www.w3.org/Graphics/SVG/1.1/DTD/svg11.dtd">
<svg version="1.1" id="图层_1" xmlns="http://www.w3.org/2000/svg" xmlns:xlink="http://www.w3.org/1999/xlink" x="0px" y="0px"
	 viewBox="0 0 595.3 841.9" enable-background="new 0 0 595.3 841.9" xml:space="preserve">
<path fill="#5B5C5C" d="M297.6,692.5c82.2,0,149-66.6,149-148.4c0-81.8-66.9-148.4-149-148.4c-82.2,0-149,66.6-149,148.4
	C148.6,625.9,215.5,692.5,297.6,692.5z M297.6,491.2c29.3,0,53.1,23.7,53.1,52.8c0,29.1-23.8,52.8-53.1,52.8
	c-29.3,0-53.1-23.7-53.1-52.8C244.6,514.9,268.4,491.2,297.6,491.2z"/>
<path fill="#5B5C5C" d="M595.3,544.7c0-0.2,0-0.4,0-0.6c0-59.7-17.9-115.3-48.5-161.8L339.2,24c-8.6-14.8-24.4-23.9-41.5-23.9
	c-17.1,0-33,9.1-41.6,23.9L48.8,381.7C18,428.4,0,484.2,0,544.1c0,0.2,0,0.4,0,0.6c0,0.2,0,0.4,0,0.6
	c0,163.4,133.5,296.4,297.6,296.5h0c164.1,0,297.6-133,297.6-296.5C595.3,545.1,595.3,544.9,595.3,544.7z M96.8,527.8
	c0.2-2.3,0.3-4.6,0.6-6.8c0.5-4.3,1.2-8.5,2-12.8c0.7-3.8,1.5-7.5,2.4-11.2c0-0.2,0.1-0.3,0.1-0.5c3.9-15.6,9.7-30.7,17.4-45.2
	c0.2-0.4,0.4-0.8,0.6-1.2l10.9-18.8c36.3-53.1,97.5-88.1,166.8-88.1c69.4,0,130.6,35.1,166.9,88.3l10.3,17.8c0.3,0.7,0.7,1.4,1,2.1
	c7.7,14.5,13.6,29.7,17.5,45.3c0,0.1,0,0.1,0.1,0.2c0.9,3.8,1.7,7.5,2.5,11.3c0.8,4.2,1.5,8.4,2,12.7c0.3,2.3,0.4,4.6,0.6,6.8
	c0.4,4.9,0.7,9.8,0.7,14.7c0,0.7,0.1,1.3,0.1,2c-0.2,110.5-90.6,200.4-201.6,200.4S96.2,655,96,544.5c0-0.7,0-1.3,0.1-2
	C96.1,537.6,96.4,532.7,96.8,527.8z M297.6,143.5l64.5,111.2c-20.8-4.6-42.3-7.1-64.5-7.1c-22.1,0-43.7,2.5-64.5,7.1L297.6,143.5z"
	/>
</svg>
