<svg xmlns="http://www.w3.org/2000/svg" xmlns:xlink="http://www.w3.org/1999/xlink" preserveAspectRatio="xMidYMid" width="32.06" height="32.09" viewBox="0 0 32.06 32.09">
  <defs>
    <style>
      .cls-1 {
        fill: #000;
        fill-rule: evenodd;
      }
    </style>
  </defs>
  <path d="M-0.004,32.096 C-0.004,30.382 -0.004,28.659 -0.004,26.903 C0.869,26.903 2.128,27.000 3.000,27.000 C3.000,27.860 3.000,28.129 3.000,29.000 C11.972,29.000 20.011,29.000 29.000,29.000 C29.000,28.161 29.000,27.875 29.000,27.000 C29.888,27.000 31.202,26.907 32.077,26.907 C32.077,28.617 32.077,30.340 32.077,32.096 C21.404,32.096 10.717,32.096 -0.004,32.096 ZM30.000,11.000 C30.000,15.467 30.000,19.502 30.000,24.000 C29.153,24.000 27.797,24.074 26.909,24.074 C26.909,21.485 26.909,18.722 26.909,16.052 C25.898,16.052 24.961,16.000 24.000,16.000 C24.000,15.143 24.000,13.908 24.000,13.000 C24.964,13.000 26.023,13.000 27.000,13.000 C27.022,12.031 27.117,12.229 27.000,11.000 C27.808,10.855 29.121,11.000 30.000,11.000 ZM16.040,24.074 C16.040,19.607 16.000,15.499 16.000,11.000 C16.835,11.000 18.100,11.000 19.000,11.000 C19.000,11.960 19.000,11.992 19.000,13.000 C19.888,13.000 20.078,13.000 21.000,13.000 C21.000,13.900 21.000,15.133 21.000,16.000 C20.860,16.000 20.851,16.000 20.874,16.000 C20.130,16.000 19.856,16.000 19.000,16.000 C19.000,18.640 19.000,21.370 19.000,24.000 C18.101,24.000 16.915,24.074 16.040,24.074 ZM24.000,19.000 C23.143,19.000 21.896,19.000 21.000,19.000 C21.000,18.141 20.999,16.877 21.000,16.000 C21.875,16.005 23.188,16.047 24.062,16.052 C24.062,16.906 24.000,18.110 24.000,19.000 ZM8.000,19.000 C8.000,18.117 7.760,16.929 7.760,16.052 C9.609,16.052 12.130,16.000 14.000,16.000 C14.000,18.606 14.000,21.380 14.000,24.000 C10.400,24.000 5.615,24.000 2.000,24.000 C2.000,19.515 2.000,15.486 2.000,11.000 C5.615,11.000 9.390,11.000 13.000,11.000 C13.000,11.984 13.000,12.975 13.000,14.000 C10.278,14.000 7.746,14.000 5.000,14.000 C5.000,16.638 5.000,18.379 5.000,21.000 C6.722,21.000 9.248,21.000 11.000,21.000 C11.000,20.153 11.000,19.883 11.000,19.000 C10.147,19.000 8.871,19.000 8.000,19.000 ZM29.000,3.000 C20.011,3.000 12.006,3.000 3.000,3.000 C3.000,3.868 3.000,4.138 3.000,5.000 C2.129,5.000 0.874,5.000 -0.000,5.000 C-0.000,3.284 -0.000,1.754 -0.000,-0.000 C10.679,-0.000 21.282,-0.000 32.000,-0.000 C32.000,1.720 32.000,3.251 32.000,5.000 C31.156,5.000 29.889,5.000 29.000,5.000 C29.000,4.163 29.000,3.880 29.000,3.000 Z" class="cls-1"/>
</svg>
