<svg xmlns="http://www.w3.org/2000/svg" xmlns:xlink="http://www.w3.org/1999/xlink" preserveAspectRatio="xMidYMid" width="25" height="35" viewBox="0 0 25 35">
  <defs>
    <style>
      .cls-1 {
        fill: #000;
        fill-rule: evenodd;
      }
    </style>
  </defs>
  <path d="M24.999,23.141 C24.999,23.218 24.999,23.296 24.999,23.292 C24.999,23.287 24.999,23.214 24.999,23.141 ZM25.000,23.000 C25.000,23.004 25.000,23.072 24.999,23.141 C25.000,23.068 25.000,22.996 25.000,23.000 ZM12.367,34.983 C5.543,34.919 0.012,30.256 0.012,23.317 C0.012,23.308 0.013,23.300 0.013,23.292 C0.013,23.283 0.012,23.275 0.012,23.266 C0.012,20.706 0.768,18.321 2.061,16.326 L10.761,1.037 C11.121,0.405 11.786,0.015 12.506,0.015 C13.225,0.015 13.890,0.405 14.250,1.037 L22.966,16.350 C24.246,18.311 24.980,20.292 25.000,23.000 C25.000,29.863 19.104,34.808 12.367,34.983 ZM12.000,6.000 L8.000,12.000 C9.278,11.991 11.137,10.033 12.000,10.000 C12.928,9.964 13.816,11.960 16.000,12.000 L12.000,6.000 ZM20.000,20.000 L19.000,18.000 C17.476,15.724 15.417,14.682 12.506,14.682 C9.598,14.682 7.030,16.177 5.505,18.447 L5.049,19.249 C5.040,19.266 5.031,19.284 5.022,19.301 C4.699,19.921 4.455,20.566 4.291,21.231 C4.289,21.238 4.287,21.245 4.285,21.253 C4.247,21.411 4.213,21.571 4.183,21.732 C4.151,21.912 4.122,22.094 4.101,22.277 C4.090,22.374 4.083,22.472 4.075,22.569 C4.059,22.778 4.045,22.987 4.044,23.200 C4.043,23.228 4.041,23.255 4.041,23.284 C4.050,28.008 7.338,31.000 12.000,31.000 C16.662,31.000 19.961,28.008 19.970,23.284 C19.970,23.255 19.985,22.256 20.000,22.000 C19.993,21.964 19.993,21.959 19.994,21.960 C19.993,21.963 19.993,21.966 19.993,21.969 C19.846,21.357 20.043,21.823 20.000,21.000 C20.014,20.348 19.990,20.963 20.000,20.000 ZM19.994,21.958 C19.995,21.961 19.997,21.970 19.998,21.976 C19.996,21.955 19.997,21.956 20.001,21.980 C20.079,20.661 20.039,21.342 19.994,21.958 ZM12.000,29.000 C8.551,29.000 6.000,26.497 6.000,23.000 C6.000,19.502 8.551,17.000 12.000,17.000 C15.449,17.000 18.000,19.502 18.000,23.000 C18.000,26.497 15.449,29.000 12.000,29.000 ZM12.000,21.000 C10.771,21.000 10.000,21.755 10.000,23.000 C10.000,24.244 10.771,25.000 12.000,25.000 C13.228,25.000 14.000,24.244 14.000,23.000 C14.000,21.755 13.228,21.000 12.000,21.000 ZM19.967,22.303 C19.955,22.442 19.944,22.546 19.937,22.570 C19.933,22.523 19.949,22.414 19.967,22.303 ZM19.993,21.969 C19.996,21.981 19.997,21.987 20.000,22.000 C20.006,22.051 19.986,22.179 19.967,22.303 C19.975,22.205 19.984,22.089 19.993,21.969 ZM12.000,35.000 C12.123,35.000 12.244,34.986 12.367,34.983 C12.414,34.984 12.459,34.989 12.505,34.989 L12.000,35.000 Z" class="cls-1"/>
</svg>
