<svg xmlns="http://www.w3.org/2000/svg" xmlns:xlink="http://www.w3.org/1999/xlink" preserveAspectRatio="xMidYMid" width="31.969" height="35.439" viewBox="0 0 31.969 35.439">
  <defs>
    <style>
      .cls-1 {
        fill: #000;
        fill-rule: evenodd;
      }
    </style>
  </defs>
  <path d="M29.785,7.193 L18.182,0.499 C16.973,-0.198 14.995,-0.198 13.786,0.499 L2.183,7.193 C0.975,7.890 -0.015,9.602 -0.015,10.997 L-0.015,24.385 C-0.015,25.780 0.975,27.492 2.183,28.190 L13.786,34.883 C14.995,35.581 16.973,35.581 18.182,34.883 L29.785,28.190 C30.994,27.492 31.983,25.780 31.983,24.385 L31.983,10.997 C31.983,9.602 30.994,7.890 29.785,7.193 ZM19.783,17.691 C19.783,21.959 16.240,25.969 11.969,25.969 C7.698,25.969 3.969,22.237 3.969,17.969 L3.969,17.969 L3.969,11.969 C3.969,10.958 4.958,9.969 5.969,9.969 C6.980,9.969 7.978,10.783 7.978,11.793 L7.978,17.691 C7.978,19.938 9.721,21.969 11.969,21.969 C14.217,21.969 16.120,19.938 16.120,17.691 L16.120,11.793 C16.120,10.783 16.940,9.963 17.952,9.963 C18.963,9.963 19.783,10.783 19.783,11.793 L19.783,17.691 ZM27.969,23.969 C27.969,24.980 26.980,25.969 25.969,25.969 C24.958,25.969 23.990,24.600 23.990,23.589 L23.969,11.969 C23.969,10.958 24.810,9.963 25.821,9.963 C26.833,9.963 27.969,10.958 27.969,11.969 L27.969,23.969 Z" class="cls-1"/>
</svg>
