<svg xmlns="http://www.w3.org/2000/svg" xmlns:xlink="http://www.w3.org/1999/xlink" preserveAspectRatio="xMidYMid" width="30" height="26.563" viewBox="0 0 30 26.563">
  <defs>
    <style>
      .cls-1 {
        fill: #000;
        fill-rule: evenodd;
      }
    </style>
  </defs>
  <path d="M26.267,3.193 C23.912,1.176 20.615,0.012 16.782,0.012 C6.793,0.012 -0.001,7.569 -0.001,7.569 L1.914,10.548 C1.914,10.548 2.973,10.635 2.412,8.881 C2.896,7.984 4.149,6.394 6.000,5.000 C6.000,5.000 6.000,23.979 6.000,25.000 C5.202,25.221 3.842,25.861 4.561,26.566 C5.789,26.566 9.149,26.566 10.061,26.566 C10.787,25.854 9.697,25.200 9.000,25.000 C9.000,24.234 9.000,21.000 9.000,21.000 C9.000,21.000 12.717,21.996 16.782,21.996 C20.354,21.996 23.603,20.954 26.020,19.072 C28.437,17.202 29.995,14.408 29.986,11.215 C29.993,8.080 28.624,5.203 26.267,3.193 ZM23.352,17.506 C21.681,19.124 19.250,20.147 16.446,20.145 C13.318,20.147 10.685,19.553 8.947,18.714 C8.947,18.714 9.000,17.750 9.000,14.000 C9.000,9.943 8.947,3.827 8.947,3.827 C10.854,2.498 13.948,1.679 16.446,1.685 C19.482,1.687 21.866,2.811 23.477,4.518 C25.086,6.234 25.992,8.349 26.000,11.000 C25.990,13.583 25.024,15.875 23.352,17.506 Z" class="cls-1"/>
</svg>
