<svg xmlns="http://www.w3.org/2000/svg" xmlns:xlink="http://www.w3.org/1999/xlink" preserveAspectRatio="xMidYMid" width="39.969" height="22.375" viewBox="0 0 39.969 22.375">
  <defs>
    <style>
      .cls-1 {
        fill: #000;
        fill-rule: evenodd;
      }
    </style>
  </defs>
  <path d="M23.064,7.738 C21.376,7.422 19.454,7.326 17.409,7.671 L21.649,16.407 L39.969,11.058 C39.969,11.058 33.324,0.481 13.508,3.900 C13.391,3.917 13.289,3.945 13.174,3.967 L11.251,0.006 L5.547,0.662 L7.873,5.484 C-4.152,10.517 1.176,22.386 1.176,22.386 L19.523,17.030 L14.481,6.657 C23.529,4.021 31.085,9.410 31.085,9.410 L24.857,11.115 L23.064,7.738 ZM6.140,16.237 C6.140,16.237 4.372,12.280 9.516,8.891 L12.252,14.565 L6.140,16.237 Z" class="cls-1"/>
</svg>
