<svg xmlns="http://www.w3.org/2000/svg" xmlns:xlink="http://www.w3.org/1999/xlink" preserveAspectRatio="xMidYMid" width="33" height="31.69" viewBox="0 0 33 31.69">
  <defs>
    <style>
      .cls-1 {
        fill: #000;
        fill-rule: evenodd;
      }
    </style>
  </defs>
  <path d="M32.997,13.800 C32.997,13.800 26.918,23.027 16.497,23.382 C16.378,23.382 16.299,23.382 16.181,23.382 L14.996,30.241 C14.839,31.148 13.931,31.819 13.022,31.661 C12.076,31.503 11.404,30.597 11.561,29.650 L12.706,23.145 C3.351,21.529 -0.004,13.407 -0.004,13.407 C-0.004,13.407 5.088,4.535 16.024,3.826 L16.417,1.460 C16.457,1.381 16.457,1.302 16.497,1.223 C16.733,0.396 17.562,-0.118 18.430,0.040 C19.377,0.198 20.010,1.066 19.852,2.012 L19.536,3.904 C29.326,5.048 32.997,13.800 32.997,13.800 ZM16.891,7.019 C16.733,7.019 16.615,7.019 16.497,7.019 C8.720,7.374 5.088,13.445 5.088,13.445 C5.088,13.445 7.733,19.991 15.510,20.267 C15.825,20.267 16.181,20.267 16.497,20.267 C23.641,19.951 27.865,13.721 27.865,13.721 C27.865,13.721 24.904,6.901 16.891,7.019 ZM16.497,17.586 C14.483,17.547 12.864,15.930 12.864,13.958 C12.864,11.947 14.483,10.331 16.497,10.331 C18.510,10.331 20.128,11.947 20.128,13.958 C20.128,15.930 18.510,17.586 16.497,17.586 Z" class="cls-1"/>
</svg>
