<svg xmlns="http://www.w3.org/2000/svg" xmlns:xlink="http://www.w3.org/1999/xlink" preserveAspectRatio="xMidYMid" width="35" height="24.66" viewBox="0 0 35 24.66">
  <defs>
    <style>
      .cls-1 {
        fill: #000;
        fill-rule: evenodd;
      }
    </style>
  </defs>
  <path d="M34.997,9.018 L34.000,14.660 L34.000,24.660 L32.000,24.660 L25.000,14.660 L17.498,23.051 L10.000,14.660 L3.000,24.660 L1.000,24.660 L1.000,14.660 L-0.000,8.660 L3.000,14.660 L3.000,18.660 L4.000,19.660 L5.000,18.660 L5.000,13.660 L9.965,8.307 L16.280,14.919 L16.280,17.958 L17.498,18.968 L18.716,17.958 L18.716,14.919 L25.031,8.307 L30.000,13.660 L30.000,18.660 L31.000,19.660 L32.000,18.660 L32.000,14.660 L34.997,9.018 ZM14.025,5.358 L17.363,-0.003 L20.971,5.448 L17.363,10.005 L14.025,5.358 ZM15.000,24.660 L6.000,24.660 L10.416,19.477 L15.000,24.660 ZM29.000,24.660 L19.000,24.660 L24.580,19.477 L29.000,24.660 Z" class="cls-1"/>
</svg>
