<svg xmlns="http://www.w3.org/2000/svg" xmlns:xlink="http://www.w3.org/1999/xlink" preserveAspectRatio="xMidYMid" width="38.031" height="38" viewBox="0 0 38.031 38">
  <defs>
    <style>
      .cls-1 {
        fill: #000;
        fill-rule: evenodd;
      }
    </style>
  </defs>
  <path d="M19.015,38.007 C8.515,38.007 0.004,29.496 0.004,18.996 C0.004,8.496 8.515,-0.016 19.015,-0.016 C29.515,-0.016 38.026,8.496 38.026,18.996 C38.026,29.496 29.515,38.007 19.015,38.007 ZM19.015,3.107 C10.254,3.107 3.126,10.235 3.126,18.996 C3.126,27.757 10.254,34.885 19.015,34.885 C27.776,34.885 34.904,27.757 34.904,18.996 C34.904,10.235 27.776,3.107 19.015,3.107 ZM30.761,22.710 C30.759,22.724 30.755,22.739 30.753,22.753 C30.748,22.781 30.742,22.810 30.735,22.838 C30.731,22.854 30.724,22.870 30.719,22.886 C30.711,22.911 30.703,22.936 30.693,22.961 C30.686,22.977 30.678,22.993 30.671,23.010 C30.660,23.032 30.649,23.055 30.636,23.077 C30.627,23.092 30.617,23.108 30.608,23.123 C30.594,23.144 30.580,23.165 30.565,23.185 C30.554,23.200 30.542,23.214 30.530,23.228 C30.514,23.247 30.498,23.266 30.480,23.283 C30.467,23.296 30.454,23.310 30.440,23.322 C30.421,23.339 30.402,23.355 30.383,23.371 C30.367,23.382 30.353,23.394 30.337,23.405 C30.331,23.409 30.326,23.414 30.320,23.418 L19.575,30.581 C19.406,30.694 19.210,30.751 19.015,30.751 C18.820,30.751 18.624,30.694 18.455,30.581 L7.710,23.418 C7.704,23.414 7.699,23.409 7.693,23.405 C7.677,23.394 7.663,23.382 7.648,23.371 C7.628,23.355 7.609,23.339 7.591,23.322 C7.576,23.310 7.563,23.296 7.550,23.283 C7.532,23.266 7.516,23.247 7.500,23.228 C7.488,23.214 7.476,23.200 7.465,23.185 C7.450,23.165 7.436,23.144 7.423,23.123 C7.412,23.108 7.403,23.092 7.394,23.077 C7.381,23.055 7.370,23.032 7.359,23.010 C7.352,22.993 7.343,22.977 7.337,22.961 C7.327,22.936 7.319,22.911 7.311,22.886 C7.305,22.870 7.300,22.854 7.295,22.838 C7.288,22.810 7.283,22.781 7.277,22.753 C7.275,22.739 7.271,22.724 7.269,22.710 C7.263,22.666 7.260,22.622 7.260,22.577 L7.260,15.414 C7.260,15.370 7.263,15.326 7.269,15.282 C7.271,15.268 7.275,15.253 7.277,15.239 C7.283,15.210 7.288,15.182 7.295,15.154 C7.300,15.137 7.305,15.121 7.311,15.105 C7.319,15.080 7.327,15.056 7.337,15.031 C7.343,15.015 7.352,14.998 7.359,14.982 C7.370,14.959 7.381,14.937 7.394,14.915 C7.403,14.899 7.412,14.884 7.423,14.868 C7.436,14.847 7.450,14.827 7.465,14.807 C7.476,14.792 7.488,14.777 7.500,14.763 C7.516,14.744 7.532,14.726 7.550,14.709 C7.563,14.695 7.576,14.681 7.591,14.669 C7.609,14.652 7.628,14.636 7.648,14.621 C7.663,14.609 7.677,14.597 7.693,14.586 C7.699,14.582 7.704,14.578 7.710,14.574 L18.455,7.411 C18.794,7.184 19.236,7.184 19.575,7.411 L30.320,14.574 C30.326,14.578 30.331,14.582 30.337,14.586 C30.353,14.597 30.367,14.609 30.383,14.621 C30.402,14.636 30.421,14.652 30.440,14.669 C30.454,14.681 30.467,14.695 30.480,14.709 C30.498,14.726 30.514,14.744 30.530,14.763 C30.542,14.777 30.554,14.792 30.565,14.807 C30.580,14.827 30.594,14.847 30.608,14.868 C30.617,14.884 30.627,14.899 30.636,14.915 C30.649,14.937 30.660,14.959 30.671,14.982 C30.678,14.998 30.686,15.015 30.693,15.031 C30.703,15.056 30.711,15.080 30.719,15.105 C30.724,15.121 30.731,15.137 30.735,15.154 C30.742,15.182 30.748,15.210 30.753,15.239 C30.755,15.253 30.759,15.268 30.761,15.282 C30.766,15.326 30.770,15.370 30.770,15.414 L30.770,22.577 C30.770,22.622 30.766,22.666 30.761,22.710 ZM20.025,27.853 L27.941,22.576 L24.405,20.212 L20.025,23.141 L20.025,27.853 ZM18.005,27.853 L18.005,23.141 L13.625,20.212 L10.089,22.576 L18.005,27.853 ZM9.281,20.686 L11.808,18.996 L9.281,17.305 L9.281,20.686 ZM18.005,10.139 L10.089,15.415 L13.625,17.781 L18.005,14.851 L18.005,10.139 ZM19.015,16.606 L15.442,18.996 L19.015,21.386 L22.588,18.996 L19.015,16.606 ZM20.025,10.139 L20.025,14.851 L24.405,17.781 L27.941,15.415 L20.025,10.139 ZM28.749,17.305 L26.222,18.996 L28.749,20.686 L28.749,17.305 Z" class="cls-1"/>
</svg>
