<svg xmlns="http://www.w3.org/2000/svg" xmlns:xlink="http://www.w3.org/1999/xlink" preserveAspectRatio="xMidYMid" width="36.063" height="23" viewBox="0 0 36.063 23">
  <defs>
    <style>
      .cls-1 {
        fill: #000;
        fill-rule: evenodd;
      }
    </style>
  </defs>
  <path d="M14.396,10.257 C14.396,10.257 17.820,9.765 17.820,5.686 C17.820,1.606 15.495,-0.000 12.000,-0.000 L-0.000,-0.000 L-0.000,23.000 L12.000,23.000 C12.000,23.000 18.666,22.875 18.666,15.917 C18.666,15.917 18.840,10.257 14.396,10.257 ZM5.084,4.005 L11.515,4.005 C11.515,4.005 13.131,4.108 13.131,6.480 C13.131,8.852 12.159,8.988 11.116,8.988 L5.084,8.988 L5.084,4.005 ZM11.190,18.932 L5.084,18.932 L5.084,12.295 L11.515,12.295 C11.515,12.295 14.003,12.471 14.003,15.633 C14.003,18.299 12.104,18.911 11.190,18.932 ZM28.290,5.649 C19.793,5.649 19.795,14.357 19.795,14.357 C19.795,14.357 19.655,23.073 28.000,23.000 C28.000,23.000 36.062,22.622 36.000,17.000 L32.000,17.000 C32.000,17.000 32.091,19.511 28.419,19.511 C28.419,19.511 24.000,19.235 24.000,15.000 L36.000,15.000 C36.000,15.000 37.233,5.649 28.290,5.649 ZM31.671,12.306 L24.461,12.306 C24.461,12.306 24.856,8.988 28.269,8.988 C31.682,8.988 31.671,12.306 31.671,12.306 ZM33.000,1.000 L23.000,1.000 L23.000,4.000 L33.000,4.000 L33.000,1.000 Z" class="cls-1"/>
</svg>
