<svg xmlns="http://www.w3.org/2000/svg" xmlns:xlink="http://www.w3.org/1999/xlink" preserveAspectRatio="xMidYMid" width="39.75" height="20.442" viewBox="0 0 39.75 20.442">
  <defs>
    <style>
      .cls-1 {
        fill: #000;
        fill-rule: evenodd;
      }
    </style>
  </defs>
  <path d="M20.950,0.004 C12.939,0.004 7.386,5.243 5.212,7.469 C3.547,9.174 0.002,14.019 0.002,18.163 C3.430,18.832 7.751,18.998 16.196,20.267 C16.931,20.377 17.660,20.428 18.379,20.428 C27.201,20.428 34.596,12.725 35.097,12.148 C35.485,11.701 35.316,10.269 35.190,9.494 C35.118,9.052 35.317,8.607 35.708,8.382 C36.787,7.761 38.942,7.166 39.292,6.801 C40.193,5.860 39.675,4.586 38.559,3.556 L35.322,3.994 C34.672,3.727 33.822,3.637 32.950,3.637 C31.841,3.637 30.696,3.783 29.881,3.899 C25.007,4.589 15.858,10.277 16.631,10.277 C16.636,10.277 16.641,10.277 16.647,10.276 C16.682,10.273 16.716,10.272 16.750,10.272 C16.850,10.272 16.949,10.283 17.055,10.293 C17.161,10.304 17.274,10.315 17.402,10.315 C17.713,10.315 18.112,10.252 18.711,9.976 C21.409,8.585 27.336,7.561 29.549,7.561 C29.864,7.561 30.103,7.582 30.247,7.625 C30.847,7.704 31.295,7.825 31.533,8.004 C32.319,10.687 29.458,12.969 26.210,15.186 C24.265,16.398 22.065,17.205 18.542,17.205 C15.510,17.205 11.497,16.607 5.821,15.156 C5.821,10.210 11.345,6.285 12.373,5.528 C17.004,2.116 25.828,1.845 28.508,1.845 C29.013,1.845 29.300,1.855 29.300,1.855 C26.288,0.533 23.495,0.004 20.950,0.004 " class="cls-1"/>
</svg>
