<?xml version="1.0" encoding="utf-8"?>
<!-- Generator: Adobe Illustrator 18.0.0, SVG Export Plug-In . SVG Version: 6.00 Build 0)  -->
<!DOCTYPE svg PUBLIC "-//W3C//DTD SVG 1.1//EN" "http://www.w3.org/Graphics/SVG/1.1/DTD/svg11.dtd">
<svg version="1.1" id="图层_1" xmlns="http://www.w3.org/2000/svg" xmlns:xlink="http://www.w3.org/1999/xlink" x="0px" y="0px"
	 viewBox="0 0 595.3 841.9" enable-background="new 0 0 595.3 841.9" xml:space="preserve">
<path fill="#5B5C5C" d="M297.6,321.4c-36.3,0-65.5,29.1-65.5,65.4c0,35.6,29.2,64.7,65.5,65.4c36.3,0,65.5-29.9,65.5-65.4
	C363.1,350.6,334,321.4,297.6,321.4z"/>
<path fill="#5B5C5C" d="M352.5,205.5l5.7-34.1c2.9-17.1-8.6-32.7-25.6-35.6c-15.7-2.8-30.6,6.4-34.9,21.3c-0.7,1.4-0.7,2.8-1.4,4.3
	l-7.1,42.7C91.8,216.9,0,376.9,0,376.9s60.5,146.5,229.3,175.7l-20.7,117.3c-2.8,17.1,9.3,33.4,26.4,36.3
	c16.4,2.8,32.8-9.2,35.6-25.6l21.4-123.7c2.1,0,3.6,0,5.7,0c188-6.4,297.6-172.8,297.6-172.8S529.1,226.1,352.5,205.5z M297.6,500.7
	c-5.7,0-12.1,0-17.8,0c-140.3-5-188-123-188-123s65.5-109.5,205.8-115.9c2.1,0,4.3,0,7.1,0c144.5-2.1,197.9,120.9,197.9,120.9
	S426.5,495,297.6,500.7z"/>
</svg>
