<svg xmlns="http://www.w3.org/2000/svg" xmlns:xlink="http://www.w3.org/1999/xlink" preserveAspectRatio="xMidYMid" width="32.031" height="32" viewBox="0 0 32.031 32">
  <defs>
    <style>
      .cls-1 {
        fill: #000;
        fill-rule: evenodd;
      }
    </style>
  </defs>
  <path d="M31.290,20.914 C28.747,23.521 26.271,26.205 23.537,28.610 C20.602,31.191 17.091,32.271 13.197,31.944 C8.522,31.550 4.865,29.338 2.300,25.423 C-1.322,19.892 -0.570,12.527 4.043,7.788 C6.291,5.479 8.580,3.212 10.858,0.933 C11.811,-0.020 13.057,-0.250 14.221,0.282 C15.335,0.792 16.007,1.937 15.911,3.234 C15.855,3.975 15.486,4.573 14.963,5.096 C12.745,7.307 10.535,9.525 8.328,11.747 C7.073,13.011 6.247,14.513 5.976,16.286 C5.449,19.726 6.604,22.505 9.352,24.601 C10.800,25.706 12.479,26.175 14.225,26.187 C16.576,26.171 18.559,25.374 20.187,23.779 C22.479,21.533 24.725,19.240 26.997,16.975 C28.034,15.940 29.560,15.785 30.733,16.572 C32.195,17.553 32.522,19.652 31.290,20.914 ZM22.559,13.604 C20.545,15.623 18.525,17.637 16.513,19.659 C15.636,20.541 14.600,20.850 13.421,20.463 C12.258,20.082 11.589,19.228 11.425,18.016 C11.293,17.044 11.646,16.225 12.332,15.539 C14.361,13.512 16.387,11.483 18.414,9.454 C20.036,7.832 21.657,6.208 23.281,4.588 C23.896,3.974 24.584,3.698 25.716,3.704 C26.628,3.809 27.599,4.257 28.098,5.413 C28.595,6.566 28.435,7.660 27.573,8.557 C25.930,10.267 24.235,11.926 22.559,13.604 Z" class="cls-1"/>
</svg>
