<svg xmlns="http://www.w3.org/2000/svg" xmlns:xlink="http://www.w3.org/1999/xlink" preserveAspectRatio="xMidYMid" width="36" height="36" viewBox="0 0 36 36">
  <defs>
    <style>
      .cls-1 {
        fill: #000;
        fill-rule: evenodd;
      }
    </style>
  </defs>
  <path d="M18.072,36.011 C8.105,36.011 -0.004,27.670 -0.004,17.785 C-0.004,7.901 8.105,0.010 18.072,0.010 C28.039,0.010 35.997,7.901 35.997,17.785 C35.997,27.670 28.039,36.011 18.072,36.011 ZM33.316,20.240 C32.788,20.074 28.537,18.817 23.699,19.585 C25.719,25.088 26.540,29.570 26.699,30.502 C30.162,28.179 32.628,24.500 33.316,20.240 ZM24.103,31.903 C23.873,30.560 22.977,25.878 20.809,20.292 C20.775,20.304 20.741,20.315 20.707,20.327 C11.999,23.336 8.873,29.325 8.595,29.888 C11.213,31.913 14.503,33.569 18.072,33.569 C20.211,33.569 22.249,32.686 24.103,31.903 ZM6.602,28.046 C6.951,27.453 11.189,20.495 19.152,17.943 C19.353,17.878 19.556,17.817 19.760,17.761 C19.372,16.891 18.950,16.019 18.508,15.162 C10.798,17.450 3.316,17.355 2.640,17.341 C2.635,17.496 2.632,17.652 2.632,17.809 C2.632,21.742 4.136,25.332 6.602,28.046 ZM2.959,14.673 C3.649,14.682 10.010,14.710 17.232,12.808 C14.674,8.297 11.764,4.356 11.357,3.803 C7.037,5.823 3.959,9.922 2.959,14.673 ZM14.454,2.923 C14.881,3.490 17.685,7.277 20.215,11.887 C25.705,9.846 28.180,6.598 28.458,6.206 C25.731,3.807 21.995,2.348 18.072,2.348 C16.826,2.348 15.615,2.646 14.454,2.923 ZM30.174,7.977 C29.849,8.413 27.110,11.852 21.402,14.164 C21.761,14.893 22.106,15.635 22.426,16.381 C22.540,16.646 22.650,16.909 22.759,17.171 C27.896,16.531 33.152,17.557 33.661,17.664 C33.627,14.050 32.325,10.582 30.174,7.977 Z" class="cls-1"/>
</svg>
