<svg xmlns="http://www.w3.org/2000/svg" xmlns:xlink="http://www.w3.org/1999/xlink" preserveAspectRatio="xMidYMid" width="31" height="29" viewBox="0 0 31 29">
  <defs>
    <style>
      .cls-1 {
        fill: #000;
        fill-rule: evenodd;
      }
    </style>
  </defs>
  <path d="M24.544,2.650 C24.428,3.089 24.344,3.317 24.314,3.471 L25.237,3.431 C25.629,3.201 26.029,2.946 26.144,2.932 C26.371,2.905 26.010,3.803 25.889,3.870 C25.873,3.879 25.786,3.914 25.670,3.967 L25.000,7.000 L31.000,7.000 L30.000,11.000 L24.000,11.000 L23.818,14.133 L29.756,13.732 L27.497,28.989 L14.059,28.989 L14.839,24.216 L-0.003,28.989 L-0.003,23.764 L2.799,23.137 L4.717,12.269 L2.160,12.269 L2.947,8.141 L8.000,8.000 L8.650,3.909 L10.244,3.909 C10.335,3.836 10.421,3.761 10.494,3.682 C10.756,3.399 11.139,2.879 11.693,2.258 C12.147,1.748 14.006,1.146 14.235,1.142 C14.401,1.140 13.310,2.178 13.246,2.229 C13.200,2.265 12.194,2.614 11.673,3.720 C11.636,3.798 11.613,3.842 11.580,3.909 L13.272,3.909 L13.255,3.966 C13.437,3.952 13.169,4.565 12.966,4.892 L12.000,8.000 L18.000,7.000 L16.779,11.480 L14.776,11.921 L13.462,18.950 L9.391,20.246 L11.207,11.851 L8.355,12.060 L6.782,22.301 L14.944,19.793 L14.944,23.572 L16.517,13.941 L20.057,13.941 L21.434,3.596 L22.086,3.567 L21.897,3.453 C21.897,3.453 22.852,3.063 23.218,2.560 C23.427,2.272 23.706,1.720 24.172,1.035 C24.573,0.447 26.581,-0.047 26.825,-0.014 C26.998,0.010 25.971,1.123 25.911,1.176 C25.869,1.212 24.847,1.511 24.544,2.650 ZM20.205,17.285 L18.976,23.973 L18.785,25.427 L23.482,25.427 L25.140,17.285 L20.205,17.285 Z" class="cls-1"/>
</svg>
