<?xml version="1.0" encoding="iso-8859-1"?>
<!-- Generator: Adobe Illustrator 18.0.0, SVG Export Plug-In . SVG Version: 6.00 Build 0)  -->
<!DOCTYPE svg PUBLIC "-//W3C//DTD SVG 1.1//EN" "http://www.w3.org/Graphics/SVG/1.1/DTD/svg11.dtd">
<svg version="1.1" id="&#x56FE;&#x5C42;_1" xmlns="http://www.w3.org/2000/svg" xmlns:xlink="http://www.w3.org/1999/xlink" x="0px"
	 y="0px" viewBox="0 0 118.049 120.949" style="enable-background:new 0 0 118.049 120.949;" xml:space="preserve">
<path style="fill:#5B5C5C;" d="M49.48,117.514c-1.437-0.216-3.167-0.357-4.836-0.755c-3.029-0.721-5.291-2.585-7.03-5.115
	c-0.505-0.735-1.009-1.471-1.516-2.204c-1.683-2.434-4.07-3.67-6.963-3.987c-1.429-0.156-2.87-0.297-4.304-0.285
	c-5.619,0.049-9.756-2.534-12.531-7.218c-3.223-5.44-2.297-10.806,0.899-15.934c0.863-1.384,1.99-2.605,3-3.898
	c1.148-1.47,1.823-3.115,1.849-4.995c0.032-2.249-1.036-3.853-3.02-4.818c-0.897-0.436-1.875-0.746-2.847-0.986
	c-5.458-1.343-8.91-4.863-10.833-9.968c-1.517-4.027-1.823-8.176-0.563-12.325c1.523-5.014,5.114-8.183,9.799-10.152
	c2.403-1.01,4.966-1.641,7.446-2.475c1.034-0.348,2.062-0.73,3.053-1.182c1.841-0.84,3.1-2.216,3.799-4.141
	c0.4-1.102,0.914-2.173,1.48-3.202c2.156-3.921,5.62-5.757,9.988-6.141c2.667-0.235,5.322-0.554,7.857-1.497
	c2.345-0.872,3.915-2.418,4.882-4.781c0.918-2.244,2.031-4.451,3.362-6.476c1.93-2.939,4.784-4.551,8.35-4.884
	c3.485-0.325,6.848,0.165,10.064,1.476c4.656,1.898,7.176,5.598,8.371,10.301c0.486,1.913,0.765,3.878,1.257,5.79
	c0.477,1.852,1.364,3.534,2.586,5.024c2.013,2.454,4.566,3.702,7.793,3.482c1.68-0.115,3.349-0.025,4.935,0.615
	c3.629,1.464,5.56,4.251,6.13,8.018c0.303,2.006,0.287,4.074,0.73,6.043c0.779,3.463,2.889,6.032,6.053,7.676
	c2.501,1.3,4.879,2.751,6.653,4.99c2.66,3.358,3.153,7.184,2.283,11.246c-0.708,3.304-1.895,6.393-4.506,8.734
	c-1.979,1.775-4.382,2.772-6.892,3.455c-2.937,0.798-5.929,1.393-8.888,2.111c-2.305,0.559-3.869,1.848-4.138,4.354
	c-0.155,1.437,0.363,2.595,1.457,3.493c1.671,1.372,3.704,1.846,5.774,2.07c7.231,0.783,13.461,6.234,15.054,13.286
	c0.841,3.722-0.122,7.186-1.748,10.484c-2.458,4.983-6.577,7.542-12.098,8.102c-9.118,0.926-16.721-4.508-19.703-12.329
	c-0.705-1.848-1.407-3.715-2.324-5.462c-1.615-3.076-3.969-3.997-7.111-3.288c-1.453,0.328-2.541,1.257-3.282,2.504
	c-0.88,1.479-1.644,3.026-2.45,4.549c-2.864,5.41-7.16,9-13.25,10.253C52.317,117.326,51.037,117.352,49.48,117.514z M40.835,42.931
	c1.841,0,3.382-1.537,3.354-3.344c-0.027-1.785-1.547-3.27-3.348-3.273c-1.807-0.004-3.318,1.476-3.336,3.27
	C37.486,41.43,38.979,42.931,40.835,42.931z M71.103,39.572c-0.013,1.907,1.4,3.353,3.283,3.359c1.817,0.006,3.314-1.44,3.361-3.245
	c0.046-1.796-1.507-3.368-3.332-3.372C72.587,36.309,71.116,37.756,71.103,39.572z"/>
</svg>
