<svg xmlns="http://www.w3.org/2000/svg" xmlns:xlink="http://www.w3.org/1999/xlink" preserveAspectRatio="xMidYMid" width="31.469" height="25.91" viewBox="0 0 31.469 25.91">
  <defs>
    <style>
      .cls-1 {
        fill: #000;
        fill-rule: evenodd;
      }
    </style>
  </defs>
  <path d="M30.485,17.202 C28.736,17.202 27.238,17.202 25.489,17.202 C25.100,17.207 24.987,17.085 24.989,16.704 C24.998,15.419 24.989,14.213 24.989,12.967 C25.002,12.735 24.989,12.452 24.989,12.220 C24.992,8.343 24.989,4.746 24.989,0.760 C24.987,0.275 24.996,0.013 25.489,0.013 C27.238,0.013 28.736,0.013 30.485,0.013 C30.945,0.005 30.986,0.091 30.985,0.511 C30.970,4.407 30.983,8.324 30.985,12.220 C30.985,12.453 30.976,12.734 30.985,12.967 C30.975,14.253 30.975,15.419 30.985,16.704 C30.987,17.070 30.883,17.208 30.485,17.202 ZM27.999,18.969 C29.912,18.980 31.484,20.558 31.477,22.461 C31.469,24.365 29.881,25.922 27.963,25.906 C26.016,25.891 24.494,24.362 24.498,22.427 C24.502,20.515 26.077,18.959 27.999,18.969 ZM18.694,23.190 C17.505,24.443 15.997,25.046 14.350,25.376 C12.839,25.679 11.302,25.737 9.766,25.750 C6.732,25.776 4.042,25.887 1.009,25.922 L1.009,0.013 C4.891,0.068 8.444,0.043 12.322,0.330 C14.097,0.462 15.787,0.886 17.201,2.035 C20.471,4.691 19.656,10.024 15.750,11.571 C15.483,11.677 15.214,11.776 14.940,11.931 C16.032,12.135 17.054,12.483 17.974,13.088 C21.165,15.438 20.912,20.852 18.694,23.190 ZM11.001,5.992 C9.795,5.753 8.725,5.749 7.503,5.743 C7.183,5.741 7.001,6.000 7.004,6.241 C7.011,6.943 7.004,7.781 7.004,8.483 C7.004,9.224 7.009,9.735 7.004,10.476 C7.002,10.704 7.167,10.978 7.503,10.974 C8.725,10.959 9.883,11.004 11.089,10.752 C12.430,10.472 13.049,9.747 13.048,8.449 C13.046,7.076 12.348,6.259 11.001,5.992 ZM12.064,15.780 C10.525,15.458 9.057,15.490 7.503,15.458 C7.203,15.452 7.003,15.749 7.004,15.957 C7.007,16.756 7.004,17.898 7.004,18.697 C7.004,19.496 7.000,19.891 7.004,20.690 C7.005,20.875 7.062,21.155 7.379,21.151 C8.741,21.134 10.428,21.400 12.250,20.939 C13.608,20.595 14.172,19.723 14.149,18.391 C14.123,16.856 13.508,16.081 12.064,15.780 ZM0.045,12.273 L0.049,13.669 C0.049,13.437 0.023,13.204 0.009,12.972 C0.022,12.739 0.045,12.506 0.045,12.273 Z" class="cls-1"/>
</svg>
