<svg xmlns="http://www.w3.org/2000/svg" xmlns:xlink="http://www.w3.org/1999/xlink" preserveAspectRatio="xMidYMid" width="37" height="37" viewBox="0 0 37 37">
  <defs>
    <style>
      .cls-1 {
        fill: #000;
        fill-rule: evenodd;
      }
    </style>
  </defs>
  <path d="M18.491,36.996 C8.287,36.996 -0.015,28.701 -0.015,18.505 C-0.015,8.309 8.287,0.014 18.491,0.014 C28.697,0.014 36.997,8.309 36.997,18.505 C36.997,28.701 28.697,36.996 18.491,36.996 ZM18.491,2.365 C9.584,2.365 2.338,9.605 2.338,18.505 C2.338,27.405 9.584,34.644 18.491,34.644 C27.399,34.644 34.645,27.405 34.645,18.505 C34.645,9.605 27.399,2.365 18.491,2.365 ZM18.525,31.403 C18.524,31.403 18.524,31.403 18.523,31.403 C18.522,31.403 18.522,31.403 18.521,31.403 C15.420,31.401 14.346,30.204 14.346,30.204 L13.217,14.763 C13.217,14.763 14.983,12.237 16.399,9.374 C17.308,7.537 17.860,5.749 18.138,4.715 L18.138,17.805 C17.645,17.957 17.285,18.410 17.285,18.952 C17.285,19.617 17.825,20.156 18.491,20.156 C19.157,20.156 19.697,19.617 19.697,18.952 C19.697,18.435 19.369,17.997 18.911,17.826 L18.911,4.729 C19.190,5.766 19.742,7.545 20.646,9.374 C22.063,12.237 23.829,14.763 23.829,14.763 L22.699,30.204 C22.699,30.204 21.626,31.401 18.525,31.403 Z" class="cls-1"/>
</svg>
