<svg xmlns="http://www.w3.org/2000/svg" xmlns:xlink="http://www.w3.org/1999/xlink" preserveAspectRatio="xMidYMid" width="34" height="32" viewBox="0 0 34 32">
  <defs>
    <style>
      .cls-1 {
        fill: #000;
        fill-rule: evenodd;
      }
    </style>
  </defs>
  <path d="M30.352,22.028 L30.353,22.028 C26.787,26.086 18.810,31.028 16.995,31.783 C15.181,32.539 15.450,31.302 15.523,30.878 C15.566,30.624 15.764,29.439 15.764,29.439 C15.822,29.010 15.881,28.344 15.710,27.921 C15.520,27.454 14.766,27.209 14.213,27.092 C6.043,26.025 -0.006,20.379 -0.006,13.640 C-0.006,6.123 7.621,0.007 16.995,0.007 C26.369,0.007 33.998,6.123 33.998,13.640 C33.998,16.649 32.817,19.359 30.352,22.028 ZM10.340,16.350 L7.853,16.350 L7.853,10.555 C7.853,10.070 7.453,9.674 6.962,9.674 C6.470,9.674 6.070,10.070 6.070,10.555 L6.070,17.231 C6.070,17.718 6.470,18.113 6.962,18.113 L10.340,18.113 C10.833,18.113 11.231,17.718 11.231,17.231 C11.231,16.746 10.833,16.350 10.340,16.350 ZM13.834,10.555 C13.834,10.070 13.434,9.674 12.943,9.674 C12.452,9.674 12.052,10.070 12.052,10.555 L12.052,17.231 C12.052,17.718 12.452,18.113 12.943,18.113 C13.434,18.113 13.834,17.718 13.834,17.231 L13.834,10.555 ZM21.966,10.555 C21.966,10.070 21.567,9.674 21.074,9.674 C20.584,9.674 20.183,10.070 20.183,10.555 L20.183,14.687 L16.721,10.027 C16.553,9.806 16.286,9.674 16.008,9.674 C15.913,9.674 15.817,9.689 15.725,9.719 C15.361,9.840 15.116,10.176 15.116,10.555 L15.116,17.231 C15.116,17.718 15.517,18.113 16.007,18.113 C16.500,18.113 16.899,17.718 16.899,17.231 L16.899,13.102 L20.361,17.760 C20.529,17.981 20.795,18.113 21.073,18.113 C21.169,18.113 21.265,18.098 21.357,18.067 C21.722,17.948 21.966,17.612 21.966,17.231 L21.966,10.555 ZM27.432,14.774 C27.924,14.774 28.324,14.379 28.324,13.894 C28.324,13.408 27.924,13.013 27.432,13.013 L24.946,13.013 L24.946,11.437 L27.432,11.437 C27.924,11.437 28.324,11.041 28.324,10.555 C28.324,10.070 27.924,9.674 27.432,9.674 L24.054,9.674 C23.562,9.674 23.163,10.070 23.163,10.555 C23.163,10.556 23.163,10.557 23.163,10.559 L23.163,13.892 C23.163,13.892 23.163,13.894 23.163,13.894 C23.163,13.895 23.163,13.895 23.163,13.896 L23.163,17.231 C23.163,17.718 23.563,18.113 24.054,18.113 L27.432,18.113 C27.924,18.113 28.324,17.718 28.324,17.231 C28.324,16.746 27.924,16.350 27.432,16.350 L24.946,16.350 L24.946,14.774 L27.432,14.774 Z" class="cls-1"/>
</svg>
