<svg xmlns="http://www.w3.org/2000/svg" xmlns:xlink="http://www.w3.org/1999/xlink" preserveAspectRatio="xMidYMid" width="33.313" height="31.25" viewBox="0 0 33.313 31.25">
  <defs>
    <style>
      .cls-1 {
        fill: #000;
        fill-rule: evenodd;
      }
    </style>
  </defs>
  <path d="M32.917,10.622 C33.196,11.749 33.350,12.892 33.328,14.052 C33.290,16.007 32.855,17.874 32.057,19.661 C31.560,20.774 30.940,21.813 30.221,22.794 C29.836,23.319 29.428,23.830 28.980,24.303 C28.496,24.814 27.999,25.318 27.471,25.783 C26.708,26.458 25.907,27.089 25.064,27.665 C23.754,28.559 22.370,29.322 20.936,29.995 C19.976,30.446 18.993,30.844 17.992,31.196 C17.757,31.278 17.752,31.273 17.752,31.026 C17.752,30.077 17.749,29.128 17.755,28.180 C17.756,28.011 17.731,27.976 17.540,27.996 C16.261,28.132 14.979,28.173 13.693,28.065 C12.535,27.968 11.393,27.791 10.273,27.488 C8.249,26.941 6.378,26.076 4.712,24.791 C4.127,24.340 3.580,23.846 3.077,23.305 C2.484,22.666 1.965,21.975 1.525,21.222 C1.097,20.488 0.762,19.716 0.508,18.905 C0.361,18.437 0.223,17.964 0.155,17.483 C0.011,16.466 -0.047,15.443 0.043,14.413 C0.160,13.057 0.484,11.755 0.999,10.498 C1.664,8.875 2.585,7.410 3.743,6.092 C5.301,4.319 7.145,2.923 9.264,1.888 C10.895,1.090 12.616,0.575 14.403,0.270 C15.776,0.035 17.159,-0.047 18.547,0.017 C21.316,0.145 23.932,0.833 26.347,2.224 C27.550,2.918 28.640,3.758 29.600,4.761 C31.163,6.395 32.279,8.288 32.872,10.478 C32.885,10.527 32.902,10.574 32.917,10.622 ZM9.739,10.523 C9.739,9.921 9.735,9.318 9.742,8.716 C9.743,8.566 9.716,8.499 9.543,8.502 C8.946,8.513 8.349,8.512 7.752,8.503 C7.597,8.501 7.561,8.551 7.561,8.699 C7.565,12.552 7.566,16.406 7.562,20.259 C7.561,20.420 7.603,20.466 7.765,20.464 C8.341,20.454 8.917,20.451 9.492,20.465 C9.691,20.469 9.743,20.412 9.742,20.215 C9.735,18.338 9.734,16.462 9.741,14.585 C9.743,14.061 9.780,13.539 9.899,13.024 C10.314,11.241 11.616,10.190 13.381,10.241 C14.224,10.265 14.900,10.596 15.275,11.399 C15.515,11.912 15.563,12.460 15.562,13.018 C15.559,15.419 15.563,17.820 15.558,20.221 C15.557,20.404 15.594,20.470 15.792,20.465 C16.367,20.450 16.943,20.452 17.519,20.464 C17.709,20.469 17.759,20.419 17.758,20.227 C17.751,18.156 17.756,16.086 17.752,14.015 C17.751,13.506 17.843,13.016 18.016,12.540 C18.549,11.074 19.676,10.239 21.138,10.225 C21.815,10.219 22.443,10.354 22.918,10.885 C23.370,11.391 23.505,12.002 23.504,12.662 C23.500,15.192 23.504,17.723 23.498,20.254 C23.497,20.434 23.562,20.465 23.721,20.463 C24.297,20.455 24.872,20.452 25.448,20.464 C25.640,20.468 25.701,20.422 25.701,20.218 C25.693,17.831 25.695,15.444 25.698,13.058 C25.699,12.576 25.685,12.095 25.613,11.618 C25.486,10.788 25.215,10.015 24.644,9.379 C23.998,8.661 23.149,8.364 22.217,8.299 C21.062,8.217 19.969,8.447 18.977,9.068 C18.504,9.364 18.067,9.702 17.727,10.154 C17.616,10.303 17.485,10.438 17.363,10.579 C16.932,9.665 16.303,8.981 15.376,8.592 C14.576,8.257 13.747,8.214 12.907,8.358 C12.350,8.454 11.811,8.632 11.337,8.950 C10.711,9.371 10.177,9.890 9.739,10.523 Z" class="cls-1"/>
</svg>
