<?xml version="1.0" encoding="iso-8859-1"?>
<!-- Generator: Adobe Illustrator 18.0.0, SVG Export Plug-In . SVG Version: 6.00 Build 0)  -->
<!DOCTYPE svg PUBLIC "-//W3C//DTD SVG 1.1//EN" "http://www.w3.org/Graphics/SVG/1.1/DTD/svg11.dtd">
<svg version="1.1" id="&#x56FE;&#x5C42;_1" xmlns="http://www.w3.org/2000/svg" xmlns:xlink="http://www.w3.org/1999/xlink" x="0px"
	 y="0px" viewBox="0 0 121.992 114.371" style="enable-background:new 0 0 121.992 114.371;" xml:space="preserve">
<path style="fill:#5B5C5C;" d="M120.483,38.894c1.021,4.123,1.582,8.309,1.501,12.555c-0.137,7.154-1.729,13.99-4.649,20.528
	c-1.819,4.073-4.09,7.876-6.721,11.467c-1.41,1.924-2.903,3.794-4.543,5.524c-1.773,1.871-3.59,3.714-5.521,5.419
	c-2.795,2.468-5.725,4.779-8.811,6.886c-4.795,3.274-9.861,6.065-15.11,8.53c-3.514,1.65-7.112,3.106-10.776,4.394
	c-0.859,0.302-0.877,0.281-0.877-0.622c-0.001-3.472-0.011-6.945,0.01-10.417c0.004-0.616-0.087-0.746-0.786-0.672
	c-4.683,0.498-9.373,0.647-14.083,0.253c-4.238-0.355-8.416-1.003-12.516-2.111c-7.406-2.003-14.256-5.171-20.353-9.873
	c-2.141-1.651-4.144-3.458-5.985-5.44c-2.168-2.337-4.069-4.868-5.679-7.624c-1.569-2.686-2.794-5.509-3.723-8.478
	c-0.537-1.715-1.044-3.447-1.293-5.208c-0.525-3.721-0.739-7.466-0.411-11.235c0.432-4.963,1.618-9.73,3.502-14.329
	c2.434-5.941,5.805-11.302,10.044-16.127c5.701-6.489,12.45-11.6,20.206-15.389c5.971-2.918,12.268-4.803,18.811-5.921
	c5.025-0.859,10.087-1.161,15.167-0.926c10.136,0.469,19.71,2.986,28.547,8.08c4.405,2.539,8.394,5.613,11.907,9.285
	c5.721,5.981,9.806,12.909,11.976,20.925C120.364,38.546,120.427,38.719,120.483,38.894z M35.645,38.532
	c0-2.205-0.015-4.409,0.011-6.614c0.007-0.551-0.093-0.794-0.726-0.783c-2.185,0.039-4.372,0.034-6.557,0.003
	c-0.566-0.008-0.699,0.175-0.699,0.716c0.015,14.104,0.017,28.208,0.002,42.312c-0.001,0.588,0.151,0.759,0.746,0.749
	c2.106-0.036,4.214-0.046,6.32,0.004c0.729,0.017,0.917-0.194,0.915-0.915c-0.026-6.868-0.029-13.736-0.004-20.603
	c0.007-1.918,0.144-3.832,0.581-5.713c1.516-6.528,6.281-10.376,12.744-10.189c3.083,0.09,5.559,1.3,6.932,4.238
	c0.878,1.88,1.052,3.883,1.049,5.926c-0.01,8.789,0.005,17.577-0.015,26.366c-0.001,0.67,0.131,0.91,0.859,0.892
	c2.105-0.053,4.214-0.049,6.319-0.002c0.695,0.016,0.878-0.168,0.876-0.87c-0.026-7.578-0.006-15.156-0.021-22.735
	c-0.004-1.865,0.331-3.658,0.965-5.401c1.951-5.364,6.078-8.421,11.427-8.471c2.478-0.023,4.776,0.471,6.514,2.415
	c1.654,1.85,2.15,4.087,2.146,6.503c-0.014,9.262,0,18.524-0.023,27.787c-0.002,0.662,0.233,0.774,0.818,0.766
	c2.106-0.029,4.214-0.04,6.32,0.004c0.705,0.015,0.928-0.155,0.926-0.901c-0.027-8.736-0.021-17.472-0.009-26.208
	c0.002-1.764-0.047-3.523-0.313-5.268c-0.464-3.04-1.453-5.87-3.546-8.197c-2.363-2.628-5.471-3.713-8.883-3.953
	c-4.228-0.298-8.227,0.542-11.859,2.817c-1.73,1.083-3.331,2.321-4.573,3.974c-0.409,0.544-0.886,1.038-1.335,1.557
	c-1.578-3.346-3.878-5.85-7.273-7.273c-2.926-1.227-5.962-1.386-9.035-0.857c-2.038,0.351-4.013,1.001-5.747,2.167
	C39.205,34.316,37.25,36.214,35.645,38.532z"/>
</svg>
