<svg xmlns="http://www.w3.org/2000/svg" xmlns:xlink="http://www.w3.org/1999/xlink" preserveAspectRatio="xMidYMid" width="32" height="33" viewBox="0 0 32 33">
  <defs>
    <style>
      .cls-1 {
        fill: #000;
        fill-rule: evenodd;
      }
    </style>
  </defs>
  <path d="M13.377,7.534 C11.349,5.540 9.322,3.547 7.318,1.576 C7.809,1.054 8.288,0.544 8.789,0.010 C11.200,2.378 13.585,4.719 15.985,7.075 C18.389,4.714 20.775,2.370 23.186,0.001 C23.669,0.528 24.141,1.044 24.632,1.580 C22.661,3.518 20.045,5.989 18.000,8.000 C18.006,8.024 17.994,7.976 18.000,8.000 C18.102,8.000 18.898,8.000 19.000,8.000 C22.413,8.000 25.587,8.000 29.000,8.000 C30.683,8.000 32.007,8.798 32.008,10.489 C32.010,15.182 32.008,19.874 32.006,24.567 C32.006,25.427 32.022,26.287 31.991,27.146 C31.944,28.491 30.343,29.934 29.000,30.000 C27.774,30.060 27.228,30.004 26.000,30.000 C25.757,29.999 26.124,29.798 26.000,30.000 C25.482,30.849 24.270,31.722 23.738,32.563 C23.390,33.112 22.819,33.111 22.469,32.557 C21.927,31.701 21.531,30.863 21.000,30.000 C20.897,29.834 20.197,30.000 20.000,30.000 C16.923,30.006 15.077,30.007 12.000,30.000 C11.800,30.000 11.102,29.835 11.000,30.000 C10.474,30.855 9.738,31.692 9.202,32.541 C8.835,33.122 8.270,33.117 7.903,32.532 C7.373,31.690 6.839,30.851 6.320,30.001 C6.205,29.811 6.215,29.999 6.000,30.000 C4.464,30.003 4.069,30.076 3.000,30.000 C1.379,29.885 0.006,28.445 0.005,26.802 C0.001,23.993 0.004,21.185 0.004,18.377 C0.004,15.761 -0.003,13.616 0.000,11.000 C0.002,9.488 0.539,8.281 2.000,8.000 C2.150,7.971 2.846,8.000 3.000,8.000 C6.404,7.998 9.596,8.000 13.000,8.000 C13.105,8.000 13.895,8.000 14.000,8.000 C14.009,7.974 13.368,7.560 13.377,7.534 Z" class="cls-1"/>
</svg>
