<?xml version="1.0" encoding="utf-8"?>
<!-- Generator: Adobe Illustrator 18.0.0, SVG Export Plug-In . SVG Version: 6.00 Build 0)  -->
<!DOCTYPE svg PUBLIC "-//W3C//DTD SVG 1.1//EN" "http://www.w3.org/Graphics/SVG/1.1/DTD/svg11.dtd">
<svg version="1.1" id="Popular_1_" xmlns="http://www.w3.org/2000/svg" xmlns:xlink="http://www.w3.org/1999/xlink" x="0px" y="0px"
	 viewBox="0 0 128 128" enable-background="new 0 0 128 128" xml:space="preserve">
<g id="Technorati">
	<g>
		<path fill="#5C5C5C" d="M51.4,94.2L31.8,109L35,85.8C-2,62.4,11.1,6.2,39.5,2h-17C12.2,2,4,9.7,4,20v87c0,10.3,8.7,18,19,18h85
			c10.3,0,18-5.7,18-16V74.9C107.9,97,81.3,103,51.4,94.2z M27.8,44.5c0,21.7,21.4,39.4,47.7,39.4c26.4,0,47.7-17.6,47.7-39.4
			c0-21.7-21.4-39.4-47.7-39.4C49.2,5.2,27.8,22.8,27.8,44.5z"/>
	</g>
</g>
</svg>
