<?xml version="1.0" encoding="utf-8"?>
<!-- Generator: Adobe Illustrator 18.0.0, SVG Export Plug-In . SVG Version: 6.00 Build 0)  -->
<!DOCTYPE svg PUBLIC "-//W3C//DTD SVG 1.1//EN" "http://www.w3.org/Graphics/SVG/1.1/DTD/svg11.dtd">
<svg version="1.1" id="Popular_1_" xmlns="http://www.w3.org/2000/svg" xmlns:xlink="http://www.w3.org/1999/xlink" x="0px" y="0px"
	 viewBox="0 0 128 128" enable-background="new 0 0 128 128" xml:space="preserve">
<g id="RSS">
	<g>
		<path fill-rule="evenodd" clip-rule="evenodd" fill="#5C5C5C" d="M19.8,92.9c-9.4,0-17,7.4-17,16.6c0,9.2,7.6,16.6,17,16.6
			c9.4,0,17-7.4,17-16.6C36.8,100.3,29.2,92.9,19.8,92.9z M61.3,66.7C42.5,49.5,8.9,45.5,8.9,45.5c-3.8,0-6.9,2.6-6.9,6.2v11.7
			c0,3.7,3.1,6.3,6.9,6.3c0,0,21.6,0.6,34.6,12.3c17.1,15.5,16.7,36.9,16.7,36.9c0,3.7,1.8,6.7,5.6,6.7H79c3.8,0,4.7-3,4.7-6.7
			C83.7,118.9,80.5,84.3,61.3,66.7z M94.9,43.5C65.4,8.8,8.9,5,8.9,5C5.1,5,2,7.6,2,11.3V23c0,3.7,3.1,6.3,6.9,6.3
			c0,0,40.4,1.3,63.1,27.5c31.2,31.3,28.8,62.5,28.8,62.5c0,3.7,3.1,6.7,6.9,6.7H121c3.8,0,6-3,6-6.7C127,119.2,124.2,70,94.9,43.5z
			"/>
	</g>
</g>
</svg>
