<?xml version="1.0" encoding="utf-8"?>
<!-- Generator: Adobe Illustrator 18.0.0, SVG Export Plug-In . SVG Version: 6.00 Build 0)  -->
<!DOCTYPE svg PUBLIC "-//W3C//DTD SVG 1.1//EN" "http://www.w3.org/Graphics/SVG/1.1/DTD/svg11.dtd">
<svg version="1.1" id="cn_1_" xmlns="http://www.w3.org/2000/svg" xmlns:xlink="http://www.w3.org/1999/xlink" x="0px" y="0px"
	 viewBox="0 0 128 128" enable-background="new 0 0 128 128" xml:space="preserve">
<g id="dewen.io">
	<g>
		<path fill="#5C5C5C" d="M67.4,2C33.1,2.7,12,16.6,12,53.7c0,30.5,20.4,47.5,40,52.3v19c4.3-0.6,8-1.4,27.3-15.8
			c17.8-6.1,35.9-26,36.7-55.6C116,17.7,98.5,4,67.4,2z M70.4,104.3c-4.2,1.6-4,2.5-9.4,2.7V97c-15.8-1.1-38.3-17.6-38.3-43
			c0-27.1,18.7-40.5,43.8-41c22.7,1.4,37.6,11.2,37.6,37.6C104.2,75.9,96.1,92.2,70.4,104.3z M48.3,43.4c-4.3,0-7.8,3.4-7.8,7.6
			s3.5,7.6,7.8,7.6c4.3,0,7.8-3.4,7.8-7.6S52.6,43.4,48.3,43.4z M76.9,43.4c-4.3,0-7.8,3.4-7.8,7.6s3.5,7.6,7.8,7.6
			c4.3,0,7.8-3.4,7.8-7.6S81.2,43.4,76.9,43.4z"/>
	</g>
</g>
</svg>
