<?xml version="1.0" encoding="utf-8"?>
<!-- Generator: Adobe Illustrator 18.0.0, SVG Export Plug-In . SVG Version: 6.00 Build 0)  -->
<!DOCTYPE svg PUBLIC "-//W3C//DTD SVG 1.1//EN" "http://www.w3.org/Graphics/SVG/1.1/DTD/svg11.dtd">
<svg version="1.1" id="OS_1_" xmlns="http://www.w3.org/2000/svg" xmlns:xlink="http://www.w3.org/1999/xlink" x="0px" y="0px"
	 viewBox="0 0 128 128" enable-background="new 0 0 128 128" xml:space="preserve">
<g id="Apple">
	<g>
		<path fill="#5C5C5C" d="M114.8,90.4v-0.8c-10-5.4-15.4-13.4-15.4-24.9c0-9.3,4.1-17.5,11.5-22.7l0.3-0.2
			c-4.9-6.1-11.5-12.2-21.7-12.2c-7.1,0-13.1,6.9-22.9,6.9c-7.8,0-11-6.6-19.5-6.6C29.5,29.9,12,45.7,12,66.2
			c0,10.8,3.6,27.6,11.5,42.2c5.8,10.7,12.9,17.6,20.9,17.6c5.8,0,12.6-5.3,20.7-5.3c7.1,0,13.7,4.7,20.2,4.7
			c15.4,0,29.7-20,29.7-33.4C115,91.4,114.8,90.9,114.8,90.4z M66.3,34.4c11.5-3.6,22.2-12.2,22.2-27.3c0-1.2-0.2-2.7-0.3-4.4L88,2
			C76.3,5.2,65.8,14.4,65.8,28.8c0,1.4,0.2,3,0.5,4.9V34.4z"/>
	</g>
</g>
</svg>
