<?xml version="1.0" encoding="utf-8"?>
<!-- Generator: Adobe Illustrator 18.0.0, SVG Export Plug-In . SVG Version: 6.00 Build 0)  -->
<!DOCTYPE svg PUBLIC "-//W3C//DTD SVG 1.1//EN" "http://www.w3.org/Graphics/SVG/1.1/DTD/svg11.dtd">
<svg version="1.1" id="cn_1_" xmlns="http://www.w3.org/2000/svg" xmlns:xlink="http://www.w3.org/1999/xlink" x="0px" y="0px"
	 viewBox="0 0 128 128" enable-background="new 0 0 128 128" xml:space="preserve">
<g id="momo">
	<g>
		<path fill-rule="evenodd" clip-rule="evenodd" fill="#5C5C5C" d="M123.9,33.4c-0.8-18.7-12.4-30.7-31.1-30.9
			C72.1,2.2,51.4,2,30.7,2.6C16.9,3,7.6,10.7,2.9,23.8c-0.2,0.6-0.6,1.2-0.9,1.8v72.8c4.1,10.9,10.7,19.4,22.6,22.2
			c3.8,0.9,7.8,1.2,11.7,1.2c26,0.2,52,0.3,78,0.5c3.9,0,7.8,0.5,11.7,0.7C122.3,93,125.1,63.2,123.9,33.4z M48,61.2
			c0,0-0.1,0-0.1,0c0,3.2,0.1,6.5,0,9.7c-0.3,5-3.1,8-7.9,8.5c-3.9,0.5-8.5-2.3-8.9-6.8c-0.7-7.6-0.8-15.3-0.2-22.9
			c0.4-4.7,4.3-6.8,9.5-6.4c4.4,0.3,7.3,3.4,7.6,8.1C48.2,54.7,48,57.9,48,61.2z M95.5,61.2c0,0-0.1,0-0.1,0c0,3.2,0.1,6.5,0,9.7
			c-0.3,5-3.1,8-7.9,8.5c-3.9,0.5-8.5-2.3-8.9-6.8c-0.7-7.6-0.8-15.3-0.2-22.9c0.4-4.7,4.3-6.8,9.5-6.4c4.4,0.3,7.3,3.4,7.6,8.1
			C95.6,54.7,95.5,57.9,95.5,61.2z"/>
	</g>
</g>
</svg>
