<?xml version="1.0" encoding="utf-8"?>
<!-- Generator: Adobe Illustrator 18.0.0, SVG Export Plug-In . SVG Version: 6.00 Build 0)  -->
<!DOCTYPE svg PUBLIC "-//W3C//DTD SVG 1.1//EN" "http://www.w3.org/Graphics/SVG/1.1/DTD/svg11.dtd">
<svg version="1.1" id="Popular_1_" xmlns="http://www.w3.org/2000/svg" xmlns:xlink="http://www.w3.org/1999/xlink" x="0px" y="0px"
	 viewBox="0 0 128 128" enable-background="new 0 0 128 128" xml:space="preserve">
<g id="digg">
	<g>
		<path fill-rule="evenodd" clip-rule="evenodd" fill="#5C5C5C" d="M21,43L2,43v39.9h31c0,0,0-8.1,0-18.3C33,48.3,33,27,33,27H21V43
			z M21,70h-7V54h7V70z M39,83h11V44H39V83z M39,36h11l0.2-9H39V36z M95,41v40h19v7H95v12h31V41H95z M114,69h-7V54h7V69z M58,81h19
			v7H58v12h31V41H58V81z M69,54h8v15h-8V54z"/>
	</g>
</g>
</svg>
