<?xml version="1.0" encoding="utf-8"?>
<!-- Generator: Adobe Illustrator 18.0.0, SVG Export Plug-In . SVG Version: 6.00 Build 0)  -->
<!DOCTYPE svg PUBLIC "-//W3C//DTD SVG 1.1//EN" "http://www.w3.org/Graphics/SVG/1.1/DTD/svg11.dtd">
<svg version="1.1" id="Popular_1_" xmlns="http://www.w3.org/2000/svg" xmlns:xlink="http://www.w3.org/1999/xlink" x="0px" y="0px"
	 viewBox="0 0 128 128" enable-background="new 0 0 128 128" xml:space="preserve">
<g id="Path">
	<g>
		<path fill-rule="evenodd" clip-rule="evenodd" fill="#5C5C5C" d="M117.7,29.4c-3.5-6.3-8.1-11.4-13.8-15.5
			c-5.7-4.1-12.2-7.1-19.5-9.1c-7.3-2-14.8-3-22.4-3c-7.5,0-14.7,1.1-21.6,3.4c-6.9,2.3-13,5.6-18.2,9.9c-5.2,4.3-9.4,9.6-12.5,16
			C6.6,37.3,5,44.5,5,52.6c0,3.1,0.1,5.9,0.4,8.5c0.3,2.6,0.8,5.1,1.6,7.3c0.8,2.3,1.9,4.5,3.2,6.7c1.4,2.2,3.1,4.4,5.2,6.8
			l15.4-13.3c-2.3-2.3-3.8-4.7-4.6-7.3c-0.8-2.6-1.2-5.5-1.2-8.7c0-5.1,1.1-9.6,3.2-13.5c2.2-3.9,5-7.1,8.6-9.8
			c3.6-2.7,7.6-4.7,12-6c4.4-1.3,9-2,13.7-2c4.9,0,9.7,0.6,14.4,1.7c4.7,1.1,8.9,3,12.5,5.5c3.6,2.5,6.6,5.7,8.8,9.6
			c2.2,3.9,3.3,8.7,3.3,14.2c0,3.6-0.7,6.9-2,9.8c-1.3,2.9-3.1,5.4-5.4,7.4c-2.3,2-5,3.6-8,4.7c-3,1.1-6.2,1.6-9.6,1.6
			c-3.9,0-7.5-0.6-10.9-1.7V36.7H44.5v63.8c0,4.3-2.2,6.5-6.5,6.5c-1.9,0-3.7-0.4-5.4-1.3c-1.7-0.9-3.2-2-4.4-3.3v18.4
			c0.7,1,1.6,1.9,2.9,2.6c1.2,0.7,2.6,1.3,4.2,1.7c1.5,0.5,3,0.8,4.5,0.9c1.5,0.2,2.8,0.3,3.9,0.3c7.8,0,13.5-2.1,16.9-6.4
			c3.5-4.3,5.2-10.2,5.2-17.7V90.6c2.6,1.3,5.4,2,8.3,2.3c2.9,0.3,5.8,0.4,8.6,0.4c2.6,0,5.2-0.4,7.8-1.1c2.6-0.7,5-1.7,7.3-2.8
			c7.6-3.6,13.7-8.7,18.3-15.3c4.6-6.5,6.9-14.1,6.9-22.6C123,43,121.2,35.6,117.7,29.4z"/>
	</g>
</g>
</svg>
