<?xml version="1.0" encoding="utf-8"?>
<!-- Generator: Adobe Illustrator 18.0.0, SVG Export Plug-In . SVG Version: 6.00 Build 0)  -->
<!DOCTYPE svg PUBLIC "-//W3C//DTD SVG 1.1//EN" "http://www.w3.org/Graphics/SVG/1.1/DTD/svg11.dtd">
<svg version="1.1" id="Popular_1_" xmlns="http://www.w3.org/2000/svg" xmlns:xlink="http://www.w3.org/1999/xlink" x="0px" y="0px"
	 viewBox="0 0 128 128" enable-background="new 0 0 128 128" xml:space="preserve">
<g id="Google_Picasa">
	<g>
		<path fill="#5C5C5C" d="M32.1,117.2V63.8C30,65.7,6.7,86.3,6,87C11,99.5,20.5,110.2,32.1,117.2z M38,120c6.3,2.8,13.5,5.4,20.3,6
			h11.4c21.4-2,40.8-15.4,50.3-35H38V120z M96,11v74h26c2.3-6.6,4-13.9,4-20.9C126,42.5,114.4,22.3,96,11z M90,8
			c-8.1-3.7-17.1-6-26-6c-7.4,0-15,1.4-22,4c1.6,1.5,45.9,41.1,48,43V8z M35.7,8.9C14.9,19.6,2,40.7,2,64.1C2,69.5,2.5,75.6,4,81
			c1.7-1.5,53.9-50,55-51C58,29,36.5,9.5,35.7,8.9z"/>
	</g>
</g>
</svg>
