<?xml version="1.0" encoding="utf-8"?>
<!-- Generator: Adobe Illustrator 18.0.0, SVG Export Plug-In . SVG Version: 6.00 Build 0)  -->
<!DOCTYPE svg PUBLIC "-//W3C//DTD SVG 1.1//EN" "http://www.w3.org/Graphics/SVG/1.1/DTD/svg11.dtd">
<svg version="1.1" id="cn_1_" xmlns="http://www.w3.org/2000/svg" xmlns:xlink="http://www.w3.org/1999/xlink" x="0px" y="0px"
	 viewBox="0 0 128 128" enable-background="new 0 0 128 128" xml:space="preserve">
<g id="sina_weibo">
	<g>
		<path fill="#5C5C5C" d="M94.3,62.1c-1.7-0.5-2.9-0.9-2-3.1c1.9-4.8,2.1-9,0-12c-3.9-5.6-14.6-5.3-26.9-0.2c0,0-3.9,1.7-2.9-1.4
			c1.9-6.1,1.6-11.1-1.3-14c-6.7-6.6-24.4,0.3-39.5,15.4c-11.4,11.3-18,23.4-18,33.7c0,19.9,25.6,32,50.6,32
			c32.8,0,54.6-19,54.6-34.1C108.9,69.4,101.2,64.2,94.3,62.1z M54.4,105.4c-20,2-37.2-7-38.5-20.1c-1.3-13.1,13.8-25.2,33.8-27.2
			c20-2,37.2,7,38.5,20.1C89.4,91.3,74.3,103.5,54.4,105.4z M116,25.7c-7.9-8.8-19.6-12.1-30.4-9.8h0c-2.5,0.5-4.1,3-3.5,5.5
			c0.5,2.5,3,4.1,5.5,3.5c7.7-1.6,16,0.8,21.6,7c5.6,6.2,7.1,14.7,4.7,22.1l0,0c-0.8,2.4,0.5,5,3,5.8c2.4,0.8,5-0.5,5.8-3
			c0,0,0,0,0,0C126.1,46.4,124,34.4,116,25.7z M102.1,54.4c2.1,0.7,4.3-0.5,5-2.6c1.7-5.1,0.6-10.9-3.2-15.2
			c-3.9-4.3-9.5-5.9-14.8-4.8c-2.1,0.5-3.5,2.6-3.1,4.7c0.5,2.1,2.6,3.5,4.7,3v0c2.6-0.5,5.4,0.2,7.2,2.3c1.9,2.1,2.4,4.9,1.6,7.4h0
			C98.9,51.4,100,53.7,102.1,54.4z M56.4,68.2c-9.5-2.5-20.2,2.3-24.3,10.6c-4.2,8.5-0.1,18,9.5,21c9.9,3.2,21.6-1.7,25.7-10.9
			C71.2,80,66.2,70.7,56.4,68.2z M49.1,89.9c-1.9,3.1-6.1,4.4-9.2,3c-3.1-1.4-4-5-2-8c1.9-3,5.9-4.3,9-3C50,83.3,51,86.8,49.1,89.9z
			 M55.5,81.8C54.8,83,53.2,83.5,52,83c-1.2-0.5-1.6-1.8-0.9-3c0.7-1.2,2.2-1.7,3.4-1.3C55.7,79.2,56.1,80.6,55.5,81.8z"/>
	</g>
</g>
</svg>
