<?xml version="1.0" encoding="utf-8"?>
<!-- Generator: Adobe Illustrator 18.0.0, SVG Export Plug-In . SVG Version: 6.00 Build 0)  -->
<!DOCTYPE svg PUBLIC "-//W3C//DTD SVG 1.1//EN" "http://www.w3.org/Graphics/SVG/1.1/DTD/svg11.dtd">
<svg version="1.1" id="cn_1_" xmlns="http://www.w3.org/2000/svg" xmlns:xlink="http://www.w3.org/1999/xlink" x="0px" y="0px"
	 viewBox="0 0 128 128" enable-background="new 0 0 128 128" xml:space="preserve">
<g id="bilibili">
	<g>
		<path fill="#5C5C5C" d="M71.4,90.1c-3.7-2.8-7.9-4.8-12.2-6.5c-8.8-3.5-18-4.7-27.4-4.5c-2.2,0-4.4,0.2-6.7,0.3
			c0-0.2-0.2-0.4-0.2-0.7c-0.6-6.7-1.3-13.4-1.8-20c-0.4-5.5-0.6-11-0.7-16.5c-0.2-10.6-0.2-21.1-0.2-31.7c0-2.5-0.2-2.2-2.1-1.4
			c-5.9,2.4-11.8,4.7-17.7,7c-0.2,0.1-0.5,0.7-0.4,1c1.8,6.7,3.1,13.6,4,20.4C6.9,43.4,7.7,49.2,8.5,55c0.7,5.1,1.2,10.2,1.8,15.3
			c0.6,5.2,1.3,10.4,1.9,15.7c0.6,5,1.2,9.9,1.8,14.9c0.4,3.6,0.8,7.1,1.1,10.7c0.2,2.8,0.4,5.6,0.5,8.3c0,0.6,0.2,0.9,0.8,0.9
			c1.3,0,2.5,0.2,3.8,0c6.1-0.6,12.2-1,18.2-1.9c4.6-0.7,9.1-1.8,13.5-3.3c6.3-2.1,11.7-5.7,16.9-9.8c2.2-1.7,4-3.7,4.8-6.3
			C75.2,95.3,74.5,92.4,71.4,90.1z M36.9,110c-0.9-6.7-1.8-13.2-2.7-19.7c3.5,0.8,18.1,6.6,18.8,7.5C47.7,101.8,42.4,105.9,36.9,110
			z M106.6,93.3c-0.3-3.5-0.6-7.1-1-10.6c-0.4-4.8-0.9-9.6-1.3-14.4c-0.4-4.4-0.6-8.8-0.9-13.2c-0.4-6.1-0.9-12.2-1.3-18.3
			c-0.3-4.5-0.6-9-0.9-13.5c-0.1-1.7-0.8-2.1-2.5-2c-2.1,0.2-4.1,0.3-6.2,0.4c-1.8,0.2-3.6,0.4-5.3,0.6c5.4,28.6,7.8,57.3,10.6,85.7
			c3.3,0.3,6.3,0.5,9.4,0.8c0.6,0.1,0.9,0,0.9-0.6c-0.1-1.1-0.2-2.2-0.3-3.3C107.4,100.9,107,97.1,106.6,93.3z M90.2,96.9
			c-0.4-3.6-0.8-7.1-1.2-10.7c-0.4-4.1-0.8-8.2-1.3-12.3c-0.3-2.5-0.7-4.9-1.1-7.3c-0.1-0.9-0.7-1.3-1.7-1.2
			c-1.7,0.2-3.5,0.2-5.2,0.4c-2.4,0.3-4.8,0.7-7.3,1c3,15.6,6,30.9,9.1,46.4c3.6-0.5,7-0.9,10.5-1.3c-0.1-1.2-0.3-2.4-0.4-3.5
			C91.1,104.5,90.6,100.7,90.2,96.9z M126,112.9c-0.1-5.9-0.3-11.7-0.4-17.6c-0.1-7.3,0-14.7,0-22c0-1.6-0.1-3.1-0.2-4.7
			c0-0.7-0.4-1.3-1.2-1.3c-3.1-0.1-6.3-0.2-9.4-0.2c-1.2,0-2.3,0.2-3.5,0.4c0.1,0.4,0.1,0.7,0.1,1c0.4,5,0.9,10,1.3,14.9
			c0.4,4.8,0.9,9.7,1.3,14.5c0.5,5.2,0.9,10.4,1.4,15.6c0,0.3,0.5,0.8,0.8,0.8c3.2,0.1,6.5,0,9.9,0C126,113.6,126,113.2,126,112.9z
			 M85.6,59.7c-0.6-5.7-1.1-11.1-1.6-16.6c-0.1-0.7-0.4-1.1-1-1.1c-1.9,0-3.9,0-5.9,0.1c0.8,6.1,1.5,12,2.3,18
			C81.5,60,83.5,59.9,85.6,59.7z M125.1,60.6c0-5.1,0-10.2,0-15.2c0-1.1-0.4-1.4-1.3-1.4c-1.8,0-3.5,0-5.2,0v17.5
			c2.3,0.1,4.4,0.2,6.5,0.3V60.6z M76.8,60.4c0-0.4,0-0.8,0-1.2c-0.3-3.1-0.7-6.1-1-9.2c-0.2-2-0.4-3.9-0.6-5.9
			c-0.1-0.5,0.1-1.2-0.7-1.1c-1.9,0.2-3.8,0.6-5.7,0.8c1.1,5.9,2.1,11.7,3.2,17.5C73.6,61,75.2,60.7,76.8,60.4z M116.4,61.4
			c0-3,0-6,0-9.1c0-2.4-0.1-4.9,0-7.3c0-0.9-0.3-1.1-1.1-1.1c-1.8,0-3.5,0-5.3,0c0.5,6.2,0.9,12.1,1.4,17.9
			C113,61.7,114.6,61.6,116.4,61.4z"/>
	</g>
</g>
</svg>
