<?xml version="1.0" encoding="utf-8"?>
<!-- Generator: Adobe Illustrator 18.0.0, SVG Export Plug-In . SVG Version: 6.00 Build 0)  -->
<!DOCTYPE svg PUBLIC "-//W3C//DTD SVG 1.1//EN" "http://www.w3.org/Graphics/SVG/1.1/DTD/svg11.dtd">
<svg version="1.1" id="Popular_1_" xmlns="http://www.w3.org/2000/svg" xmlns:xlink="http://www.w3.org/1999/xlink" x="0px" y="0px"
	 viewBox="0 0 128 128" enable-background="new 0 0 128 128" xml:space="preserve">
<g id="aim">
	<g>
		<path fill-rule="evenodd" clip-rule="evenodd" fill="#5C5C5C" d="M79.8,38.4c9.4,0,17.5-7.7,17.5-17.2c0-9.5-8-17.2-17.5-17.2
			c-9.4,0-17.3,7.7-17.3,17.2C62.4,30.7,70.3,38.4,79.8,38.4z M77.6,81.7c0.1-3.1,0.2-3.8,0.3-6.2C96.4,80.3,112,64.8,112,64.8
			s-4-7.4-9-15.1c-8.2,7.4-17.9,7.5-21.5,6.7c-4.7-1-4.4-5.4-4-7.1c-2.8-0.9-12.8-5.7-18.6-7.6c-11.3,6.9-15.8,24.2-15.3,41.7
			c-7.6,14.5-13.2,19.3-28.7,22.9c2.9,6.9,4.1,9.4,8.4,18.5c19.3-5.3,31.7-16.7,39.3-26.4C75.6,101.7,85,110,92.8,125
			c8.1-6.8,9-7.5,15.9-13.1C103.4,99,90.2,87.8,77.6,81.7z"/>
	</g>
</g>
</svg>
