<?xml version="1.0" encoding="utf-8"?>
<!-- Generator: Adobe Illustrator 18.0.0, SVG Export Plug-In . SVG Version: 6.00 Build 0)  -->
<!DOCTYPE svg PUBLIC "-//W3C//DTD SVG 1.1//EN" "http://www.w3.org/Graphics/SVG/1.1/DTD/svg11.dtd">
<svg version="1.1" id="Design_1_" xmlns="http://www.w3.org/2000/svg" xmlns:xlink="http://www.w3.org/1999/xlink" x="0px" y="0px"
	 viewBox="0 0 128 128" enable-background="new 0 0 128 128" xml:space="preserve">
<g id="ui.cn">
	<g>
		<path fill-rule="evenodd" clip-rule="evenodd" fill="#5C5C5C" d="M111.4,28.4l-39.9-23c-4.2-2.4-11-2.4-15.1,0l-39.9,23
			C12.4,30.8,9,36.7,9,41.5v46c0,4.8,3.4,10.7,7.6,13.1l39.9,23c4.2,2.4,11,2.4,15.1,0l39.9-23c4.2-2.4,7.6-8.3,7.6-13.1v-46
			C119,36.7,115.6,30.8,111.4,28.4z M77.1,64.5c0,14.7-11.9,26.6-26.6,26.6c-14.7,0-26.6-11.9-26.6-26.6h0V44.2
			c0-3.5,2.8-6.3,6.3-6.3s6.3,2.8,6.3,6.3v20.3c0,7.7,6.3,14,14,14s14-6.3,14-14V44.2c0-3.5,2.8-6.3,6.3-6.3s6.3,2.8,6.3,6.3V64.5z
			 M104.1,84.8c0,3.5-2.8,6.3-6.3,6.3s-6.3-2.8-6.3-6.3V44.2c0-3.5,2.8-6.3,6.3-6.3s6.3,2.8,6.3,6.3V84.8z"/>
	</g>
</g>
</svg>
