<?xml version="1.0" encoding="utf-8"?>
<!-- Generator: Adobe Illustrator 18.0.0, SVG Export Plug-In . SVG Version: 6.00 Build 0)  -->
<!DOCTYPE svg PUBLIC "-//W3C//DTD SVG 1.1//EN" "http://www.w3.org/Graphics/SVG/1.1/DTD/svg11.dtd">
<svg version="1.1" id="Design_1_" xmlns="http://www.w3.org/2000/svg" xmlns:xlink="http://www.w3.org/1999/xlink" x="0px" y="0px"
	 viewBox="0 0 128 128" enable-background="new 0 0 128 128" xml:space="preserve">
<g id="Behance">
	<g>
		<path fill-rule="evenodd" clip-rule="evenodd" fill="#5C5C5C" d="M51.5,58.8c0,0,11.8-1.7,11.8-15.7c0-14-9.7-20.1-21.7-20.1L2,23
			v79.9l40,0c0,0,24.2-0.8,24.2-24.7C66.2,78.2,66.8,58.8,51.5,58.8z M19.5,37.3h22.1c0,0,5.6,0.4,5.6,8.5c0,8.2-3.3,8.6-6.9,8.6
			H19.5V37.3z M40.5,88.6h-21V65.8h22.1c0,0,8.6,0.6,8.6,11.5C50.2,86.4,43.6,88.5,40.5,88.6z M113.8,28.7H81.7v8.6h32.1V28.7z
			 M99.3,42.9c-29.2,0-29.2,29.9-29.2,29.9s-2,30.1,29.2,30.1c0,0,26.2-0.1,26.2-20h-13.5c0,0,0.4,7.6-12.2,7.6
			c0,0-13.9,1.2-13.9-13.4l39.7,0C125.5,77.2,130,42.9,99.3,42.9z M86.1,65.8c0,0,1.4-11.4,13.1-11.4c11.7,0,11.7,11.4,11.7,11.4
			H86.1z"/>
	</g>
</g>
</svg>
