<?xml version="1.0" encoding="utf-8"?>
<!-- Generator: Adobe Illustrator 18.0.0, SVG Export Plug-In . SVG Version: 6.00 Build 0)  -->
<!DOCTYPE svg PUBLIC "-//W3C//DTD SVG 1.1//EN" "http://www.w3.org/Graphics/SVG/1.1/DTD/svg11.dtd">
<svg version="1.1" id="Popular_1_" xmlns="http://www.w3.org/2000/svg" xmlns:xlink="http://www.w3.org/1999/xlink" x="0px" y="0px"
	 viewBox="0 0 128 128" enable-background="new 0 0 128 128" xml:space="preserve">
<g id="reddit">
	<g>
		<path fill="#5C5C5C" d="M124.7,62.4c0-7.1-5.8-13-13-13c-3.6,0-6.9,1.5-9.2,3.9c-0.2-0.1-0.4-0.2-0.5-0.4
			c-9.6-6.3-22.2-9.9-35.6-10.2l7.9-24.9l21.3,5c0,0.2,0,0.5,0,0.7c0,5.8,4.7,10.5,10.5,10.5c5.8,0,10.5-4.7,10.5-10.5
			s-4.7-10.5-10.5-10.5c-4.6,0-8.5,3-9.9,7.1l-22.4-5.3c-0.7-0.2-1.4,0.2-1.6,0.9l-8.5,26.9C49.5,42.8,36.2,46.5,26.2,53
			c-0.1,0.1-0.2,0.1-0.2,0.2c-2.3-2.3-5.5-3.7-9-3.7c-7.1,0-13,5.8-13,13c0,4.9,2.7,9.1,6.7,11.3c-0.3,1.5-0.4,3.1-0.4,4.6
			c0,9.6,5.7,18.7,16,25.4c10.1,6.6,23.6,10.3,37.9,10.3c14.3,0,27.7-3.6,37.9-10.3c10.3-6.7,16-15.8,16-25.4c0-1.5-0.1-2.9-0.4-4.4
			C121.8,71.9,124.7,67.5,124.7,62.4z M106,15.8c4.3,0,7.8,3.5,7.8,7.8c0,4.3-3.5,7.8-7.8,7.8c-4.3,0-7.8-3.5-7.8-7.8
			C98.2,19.3,101.7,15.8,106,15.8z M64.1,111.3C35.9,111.3,13,96.5,13,78.4c0-1.2,0.1-2.4,0.3-3.5c0.1-0.9,0.4-1.8,0.6-2.7
			c1.7-5.8,5.8-11.1,11.6-15.4c0.7-0.5,1.5-1.1,2.2-1.6c9.3-6,22.2-9.8,36.4-9.8c14.4,0,27.4,3.9,36.7,10c0.8,0.5,1.5,1,2.2,1.6
			c5.7,4.3,9.7,9.5,11.3,15.3c0.3,0.9,0.5,1.8,0.6,2.7c0.2,1.1,0.3,2.2,0.3,3.4C115.3,96.5,92.3,111.3,64.1,111.3z M54.4,71.7
			c0-4.7-3.8-8.6-8.4-8.6s-8.6,3.9-8.6,8.6c0,4.7,3.9,8.5,8.6,8.5S54.4,76.4,54.4,71.7z M82.9,63.1c-4.7,0-8.6,3.9-8.6,8.6
			s3.9,8.5,8.6,8.5s8.4-3.8,8.4-8.5S87.6,63.1,82.9,63.1z M81.5,93.2c-3.4,3.4-9,5.1-17.1,5.1c0,0,0,0-0.1,0c0,0,0,0-0.1,0
			c-8.1,0-13.7-1.7-17.1-5.1c-0.5-0.5-1.4-0.5-1.9,0c-0.5,0.5-0.5,1.4,0,1.9c3.9,3.9,10.2,5.9,19,5.9c0,0,0,0,0.1,0c0,0,0,0,0.1,0
			c8.9,0,15.1-1.9,19-5.9c0.5-0.5,0.5-1.4,0-1.9C82.9,92.7,82.1,92.7,81.5,93.2z"/>
	</g>
</g>
</svg>
