<?xml version="1.0" encoding="utf-8"?>
<!-- Generator: Adobe Illustrator 18.0.0, SVG Export Plug-In . SVG Version: 6.00 Build 0)  -->
<!DOCTYPE svg PUBLIC "-//W3C//DTD SVG 1.1//EN" "http://www.w3.org/Graphics/SVG/1.1/DTD/svg11.dtd">
<svg version="1.1" id="cn_1_" xmlns="http://www.w3.org/2000/svg" xmlns:xlink="http://www.w3.org/1999/xlink" x="0px" y="0px"
	 viewBox="0 0 128 128" enable-background="new 0 0 128 128" xml:space="preserve">
<g id="meile">
	<g>
		<path fill="#5C5C5C" d="M24.5,60.7c6.4,0,11.5-5.3,11.5-11.8c0-6.5-5.1-11.8-11.5-11.8S13,42.4,13,48.9
			C13,55.4,18.1,60.7,24.5,60.7z M101.5,67.4c-6.4,0-11.5,5.3-11.5,11.8c0,6.5,5.1,11.8,11.5,11.8S113,85.8,113,79.2
			C113,72.7,107.9,67.4,101.5,67.4z M63.4,66.3C57.1,66.3,52,71.6,52,78h0v35.6c0,6.5,5.1,11.8,11.4,11.8c6.3,0,11.6-5,11.6-11.5
			L75,79v-1C75,71.6,69.7,66.3,63.4,66.3z M63.4,1.5C57.1,1.5,52,6.8,52,13.2h0v35.6c0,6.5,5.1,11.8,11.4,11.8S75,55.5,75,49V12
			C75,5.6,69.7,1.5,63.4,1.5z M101.5,60.7c6.3,0,11.4-5.3,11.4-11.8V31.1h0c0-6.4-5.1-11.8-11.4-11.8s-11.4,5.3-11.4,11.8h0v17.7
			C90.1,55.4,95.2,60.7,101.5,60.7z M24.4,67.5c-6.3,0-11.4,5.3-11.4,11.8h0V97c0,6.5,5.1,11.8,11.4,11.8S36,103.5,36,97V79
			l-0.2,0.2C35.8,72.8,30.7,67.5,24.4,67.5z"/>
	</g>
</g>
</svg>
