<?xml version="1.0" encoding="utf-8"?>
<!-- Generator: Adobe Illustrator 18.0.0, SVG Export Plug-In . SVG Version: 6.00 Build 0)  -->
<!DOCTYPE svg PUBLIC "-//W3C//DTD SVG 1.1//EN" "http://www.w3.org/Graphics/SVG/1.1/DTD/svg11.dtd">
<svg version="1.1" id="cn_1_" xmlns="http://www.w3.org/2000/svg" xmlns:xlink="http://www.w3.org/1999/xlink" x="0px" y="0px"
	 viewBox="0 0 128 128" enable-background="new 0 0 128 128" xml:space="preserve">
<g id="zhihu">
	<g>
		<path fill="#5C5C5C" d="M46.4,84.7l-7,7.8c0.7,0.2,1.6,1.2,3,3c5.3,6.4,10.3,13.1,15.7,19.4c2.3,2.6,2.4,3.1,2.8,2
			c1.7-5.4,3.4-10.4,1.9-12.7C59.1,100,50,89,46.4,84.7z M69,71c-0.7-4.1-2.8-9-7-9c-5.1-0.1-8.9,0-14,0c-2,0-3.9-0.6-3.6-3.4
			c0.7-7.9,0.1-15.8,0.9-23.6c0.3-3.2,1.6-4.2,4.6-4.1c3.9,0.1,11,0.1,14.9,0c4.6-0.1,5.7,1.3,0.9-6.8C64.3,21.6,62.3,22,60,22
			c-9.8,0-20.2-0.1-30,0c-3.3,0-3.9-1.7-2.7-4.9c1.1-3.1,2.5-8.9,3.5-12.1c0.9-3,0-2.2,0-2.2c-4.1,2.4-11.2,5.5-12.9,9.7
			c-4.1,10.3-8.7,23.3-13,33.6c-0.4,0.9-0.7,1,2.3,0.3c5.4-1.4,10.8-4.2,13.4-9.3c3.2-6.2,3.8-6.6,10.6-6c2.1,0.2,2.9,0.8,2.9,3
			c-0.2,7.7-0.4,15.5-0.3,23.2c0,3.4-1.4,5-4.6,4.9c-5.1-0.2-10.9,0.1-16,0c-3.3-0.1-7,3.3-7.5,7.8C5.2,71.5,4.8,72,5,72
			c5.9-0.1,17.1,0.2,23,0c3.2-0.1,4.4,0.6,3.9,4c-1.2,7.9-3.5,15.4-7.3,22.4C20,107,13.8,114.4,6.2,120.7c-0.9,0.7-2.2,1.5-1.9,2.9
			c0.4,1.5,2,1.3,3.1,1.3c7.2-0.3,14.2-1.1,19.3-7.2c5.2-6.1,8.3-13.3,11.1-20.7l3.4-11.2c0.5-2.8,1.4-5.6,1.5-8.4
			C43,72.8,44.9,72,49,72c5.3-0.1,14.6-0.1,20,0C70.2,72,69.1,72.1,69,71z M74,23v91h10l2.9,11l15.1-11h23V23H74z M115,105h-10
			l-14.1,9.1L88,105h-4V32h31V105z"/>
	</g>
</g>
</svg>
