<?xml version="1.0" encoding="utf-8"?>
<!-- Generator: Adobe Illustrator 18.0.0, SVG Export Plug-In . SVG Version: 6.00 Build 0)  -->
<!DOCTYPE svg PUBLIC "-//W3C//DTD SVG 1.1//EN" "http://www.w3.org/Graphics/SVG/1.1/DTD/svg11.dtd">
<svg version="1.1" id="cn_1_" xmlns="http://www.w3.org/2000/svg" xmlns:xlink="http://www.w3.org/1999/xlink" x="0px" y="0px"
	 viewBox="0 0 128 128" enable-background="new 0 0 128 128" xml:space="preserve">
<g id="NetEase_weibo">
	<g>
		<path fill-rule="evenodd" clip-rule="evenodd" fill="#5C5C5C" d="M96.4,24.5c-2-1.8-5.5-2.8-7-6.1c-1.3-3-0.2-7.3-2.3-10.3
			c-2.4-3.4-9-4.2-12.6-3.3c0.6,1.5,4.9,3,3.7,7c0,0-1.2,1.1-1.4,1.4c-7-0.3-15.6-2.7-24.2-1.9C33.4,13.2,15.4,26.7,16.3,46
			c0.6,13,10.2,23.7,18.2,29c3.1,2.1,7.8,2.5,9.3,6.5c-2.1,4.3-7.1,2-11.6,3.7c-5.2,2-14.2,16-3.7,16.8c2.5-2.4,0.9-11,7.9-9.4
			c2.6,0.6,3.3,3.4,3.3,5.1c0,4.7-9,9.5-8.8,13.6c0.1,3.1,2.5,4.5,6.1,4.2c3.7-0.3,6.5-4.8,8.4-9.8c2.3-6.1,2.9-11.5,7.9-10.3
			c4.4,1.1,2.7,9.8,0.5,13.6c-3.4,5.7-8.7,4.7-7.9,10.3c0.4,2.7,3.2,3.7,5.1,3.7c3.6,0.1,6.8-3.4,8.4-6.5c2.5-5,1-15.2,7.4-15.9
			c4.8-0.5,6.5,3.9,6.5,6.1c0,4.2-11.5,12.4-3.3,14.5c6,1.5,11.6-10.8,10.7-18.7C79.4,92,69.7,95,67.5,85.7c7.8-4,15.2-4.9,21.4-8.4
			c6.3-3.5,12.1-8.2,15.4-15C110.6,49.6,104.9,32.3,96.4,24.5z M57.7,22.1c6.6-0.8,12.6,0.7,16.8,3.7c4.3,3.2,8.8,9.7,7.4,14
			c-4.6,2.6-7.1-7.7-11.2-10.8c-2-1.6-6.3-2.9-9.8-2.8c-6.6,0.2-8.6,4.1-15.8,4.2C44.9,25.6,52.4,22.8,57.7,22.1z M85.7,63.3
			c-9.7,14.8-41.3,3.8-49.4-5.6c-2.9-3.4-7.2-13.9-0.5-16.4c7.7-2.8,16.9,2.3,25.6,4.2c10.4,2.2,25.9,0.6,26.1,11.7
			C87.6,58.9,86.8,61.6,85.7,63.3z"/>
	</g>
</g>
</svg>
