<?xml version="1.0" encoding="utf-8"?>
<!-- Generator: Adobe Illustrator 18.0.0, SVG Export Plug-In . SVG Version: 6.00 Build 0)  -->
<!DOCTYPE svg PUBLIC "-//W3C//DTD SVG 1.1//EN" "http://www.w3.org/Graphics/SVG/1.1/DTD/svg11.dtd">
<svg version="1.1" id="cn_1_" xmlns="http://www.w3.org/2000/svg" xmlns:xlink="http://www.w3.org/1999/xlink" x="0px" y="0px"
	 viewBox="0 0 128 128" enable-background="new 0 0 128 128" xml:space="preserve">
<g id="tencent">
	<g>
		<path fill="#5C5C5C" d="M91,88.6C84.6,93,78.7,98,69.5,101.7C51.9,109,29.2,109,11.2,87.2c-0.1,0.1-0.5,0.3-0.3,0.7
			c4.1,9.9,15.4,26.3,37.7,32.5c8.8,2.4,20.5,3.9,35.1-1.1c4.6-1.6,9.6-4.1,13.6-7c5.1-3.6,8.3-7.3,9.3-8.4c2-2.2,3.5-6.9,1.2-11.4
			C105,86.8,98.1,83.7,91,88.6z M121.3,49.7c-2.3-8.8-6.8-19.6-18.4-29.7c-3.6-3.2-8.4-6.2-12.8-8.3C84.4,9.1,79.6,8.2,78.1,8
			c-2.9-0.4-7.7,0.3-10.6,4.5c-3.6,5.2-2.9,12.8,4.9,16.4c7.1,3.4,14.3,5.9,22.1,12.1C109.8,52.6,121,72.1,111,98.5
			c0.2,0,0.5,0.3,0.7-0.1C117.9,90.9,127.1,72.1,121.3,49.7z M29.6,73.9c-0.4-7.8-1.7-15.3,0-25.1c2.9-18.8,14.8-38,42.8-41.9
			c0-0.2,0-0.5-0.4-0.6c-9.6-1.4-30.6-0.7-47.5,15.1c-6.7,6.2-14,15.4-17.3,30.3C6.1,56.4,5.7,62,6,66.9c0.4,6.2,1.9,10.8,2.3,12.2
			c0.8,2.8,4.1,6.5,9.1,7C23.8,86.8,30.1,82.5,29.6,73.9z M65.4,40.1C46.8,40,47.1,57.9,47.2,61.2c-3.5,4-5.8,13.7-4.9,13.8
			c2.2,0.3,3.8-0.8,4.9-2c0.6-0.6,0.7-0.5,0.9,0.1c0.2,0.5,2,3.9,2.5,4.7c0.4,0.7,0.3,1-0.5,1.2c-0.8,0.1-2,0.8-2.7,1.9
			c-1.2,1.7,0,3.3,2.5,4.1c7.3,2.3,12.8,0.1,13.3-0.2c0.1-0.1,1-0.4,1.2-0.4l1-0.1c0.8,0,1.2,0.1,1.2,0.1c0.5,0.1,0.8,0.3,1.4,0.5
			c0.5,0.2,6.3,2.4,13.4-0.1c2.3-0.8,3.4-2.3,2.3-3.8c-0.8-1.1-1.7-1.8-3.1-2.1c-0.7-0.2-0.8-0.4-0.4-0.9c0.5-0.7,2.2-4.1,2.5-4.6
			c0.2-0.5,0.4-1.1,0.9-0.5c0.9,1.3,3.4,2.6,5,2c1.5-0.6-1.9-10.2-4.8-13.9C83.9,57.7,84.1,40,65.4,40.1z"/>
	</g>
</g>
</svg>
