<?xml version="1.0" encoding="utf-8"?>
<!-- Generator: Adobe Illustrator 18.0.0, SVG Export Plug-In . SVG Version: 6.00 Build 0)  -->
<!DOCTYPE svg PUBLIC "-//W3C//DTD SVG 1.1//EN" "http://www.w3.org/Graphics/SVG/1.1/DTD/svg11.dtd">
<svg version="1.1" id="Popular_1_" xmlns="http://www.w3.org/2000/svg" xmlns:xlink="http://www.w3.org/1999/xlink" x="0px" y="0px"
	 viewBox="0 0 128 128" enable-background="new 0 0 128 128" xml:space="preserve">
<g id="Skype">
	<g>
		<path fill-rule="evenodd" clip-rule="evenodd" fill="#5C5C5C" d="M120.1,72.1c0.3-2.6,0.5-5.2,0.5-7.8c0-31.7-25.5-57.5-56.9-57.5
			c-3.1,0-6.2,0.3-9.2,0.8C49.2,4.1,42.8,2,36,2C17.2,2,2,17.4,2,36.5c0,6.9,2,13.4,5.5,18.8c-0.5,3-0.7,6-0.7,9.1
			c0,31.7,25.5,57.5,56.9,57.5c3.5,0,7-0.3,10.4-1c5.2,3.3,11.4,5.2,18,5.2c18.8,0,34-15.4,34-34.5C126,84.3,123.8,77.6,120.1,72.1z
			 M67.8,96.1c-13.6,0.7-20-2.3-25.8-7.9c-6.5-6.2-3.9-13.3,1.4-13.6c5.3-0.4,8.5,6.1,11.3,7.9c2.8,1.8,13.6,5.9,19.3-0.7
			c6.2-7.2-4.1-10.9-11.7-12c-10.8-1.6-24.4-7.5-23.4-19.2C40,38.8,48.7,32.9,57.9,32c11.7-1.1,19.3,1.8,25.3,7
			c7,6,3.2,12.7-1.2,13.3c-4.4,0.5-9.4-9.9-19.1-10c-10-0.2-16.8,10.6-4.4,13.6c12.4,3.1,25.6,4.3,30.4,15.8
			C93.6,83.2,81.4,95.4,67.8,96.1z"/>
	</g>
</g>
</svg>
