<?xml version="1.0" encoding="utf-8"?>
<!-- Generator: Adobe Illustrator 18.0.0, SVG Export Plug-In . SVG Version: 6.00 Build 0)  -->
<!DOCTYPE svg PUBLIC "-//W3C//DTD SVG 1.1//EN" "http://www.w3.org/Graphics/SVG/1.1/DTD/svg11.dtd">
<svg version="1.1" id="Popular_1_" xmlns="http://www.w3.org/2000/svg" xmlns:xlink="http://www.w3.org/1999/xlink" x="0px" y="0px"
	 viewBox="0 0 128 128" enable-background="new 0 0 128 128" xml:space="preserve">
<g id="tumblr">
	<g>
		<path fill-rule="evenodd" clip-rule="evenodd" fill="#5C5C5C" d="M82.7,103.8c-3.3,0-6.2-0.8-8.7-2.3c-1.9-1.2-3.7-3.2-4.4-5.1
			c-0.7-1.9-0.6-5.9-0.6-12.7L69,53h27V32H69l0-27H52.7c-0.7,6.1-2.1,11.1-4,15c-1.9,3.9-4.5,7.3-7.7,10.1c-3.2,2.8-8.4,5-12.9,6.5
			V53h16v42c0,5.4,0.1,9.3,1.2,12.1c1.1,2.8,3.1,5.5,5.9,8c2.8,2.5,6.3,4.5,10.3,5.8c4,1.4,7.1,2,12.4,2c4.6,0,8.9-0.5,12.9-1.4
			c4-1,8.4-2.6,13.3-5V98C94.3,101.8,88.5,103.8,82.7,103.8z"/>
	</g>
</g>
</svg>
