<?xml version="1.0" encoding="utf-8"?>
<!-- Generator: Adobe Illustrator 18.0.0, SVG Export Plug-In . SVG Version: 6.00 Build 0)  -->
<!DOCTYPE svg PUBLIC "-//W3C//DTD SVG 1.1//EN" "http://www.w3.org/Graphics/SVG/1.1/DTD/svg11.dtd">
<svg version="1.1" id="Popular_1_" xmlns="http://www.w3.org/2000/svg" xmlns:xlink="http://www.w3.org/1999/xlink" x="0px" y="0px"
	 viewBox="0 0 128 128" enable-background="new 0 0 128 128" xml:space="preserve">
<g id="evernote">
	<g>
		<path fill-rule="evenodd" clip-rule="evenodd" fill="#5C5C5C" d="M20.6,25.9C20.6,25.9,20.6,25.9,20.6,25.9h11.9
			c0.7,0,1.2-0.5,1.2-1.2c0,0-0.1-10-0.1-12.8v0c0-2.3,0.5-4.3,1.3-5.9l0.4-0.7c0,0-0.1,0-0.1,0.1L12.1,27.7c0,0-0.1,0.1-0.1,0.1
			c0.5-0.2,1.1-0.5,1.2-0.6C15.2,26.3,17.7,25.9,20.6,25.9z M113.3,23.4c-0.9-5-4-7.4-6.7-8.4c-2.9-1-8.9-2.1-16.4-3
			c-6-0.7-13.1-0.6-17.4-0.5c-0.5-3.4-3-6.6-5.7-7.7C59.8,1,48.4,1.7,45.5,2.5c-2.3,0.6-4.9,1.9-6.3,3.9c-1,1.3-1.6,3-1.6,5.4
			c0,1.4,0,4.5,0.1,7.4c0,2.8,0.1,5.4,0.1,5.4c0,2.5-2.1,4.6-4.7,4.6H21.2c-2.5,0-4.5,0.4-6,1.1c-1.5,0.7-2.5,1.5-3.3,2.6
			C10.3,35,10,37.6,10,40.2c0,0,0,2.1,0.6,6.3c0.4,3.2,4,25.7,7.4,32.6c1.3,2.7,2.2,3.8,4.8,4.9c5.8,2.4,18.9,5.1,25.1,5.9
			c6.2,0.8,10,2.4,12.3-2.3c0,0,0.5-1.2,1.1-2.9c2-5.9,2.3-11.2,2.3-15c0-0.4,0.6-0.4,0.6,0c0,2.7-0.5,12.2,6.8,14.7
			c2.9,1,8.9,1.9,15,2.6c5.5,0.6,9.5,2.7,9.5,16.6c0,8.4-1.8,9.6-11.3,9.6c-7.7,0-10.6,0.2-10.6-5.8c0-4.8,4.9-4.3,8.5-4.3
			c1.6,0,0.4-1.2,0.4-4.1c0-3,1.9-4.7,0.1-4.7c-12.5-0.3-19.8,0-19.8,15.3c0,13.9,5.4,16.4,23.1,16.4c13.9,0,18.8-0.4,24.5-17.8
			c1.1-3.4,3.9-13.9,5.5-31.5C117,65.5,115,31.9,113.3,23.4z M89.1,60.5c-1.7-0.1-3.4,0-4.9,0.3c0.4-3.4,1.9-7.6,7-7.4
			c5.7,0.2,6.5,5.4,6.5,9C95.3,61.3,92.3,60.7,89.1,60.5z"/>
	</g>
</g>
</svg>
