<?xml version="1.0" encoding="utf-8"?>
<!-- Generator: Adobe Illustrator 18.0.0, SVG Export Plug-In . SVG Version: 6.00 Build 0)  -->
<!DOCTYPE svg PUBLIC "-//W3C//DTD SVG 1.1//EN" "http://www.w3.org/Graphics/SVG/1.1/DTD/svg11.dtd">
<svg version="1.1" id="Design_1_" xmlns="http://www.w3.org/2000/svg" xmlns:xlink="http://www.w3.org/1999/xlink" x="0px" y="0px"
	 viewBox="0 0 128 128" enable-background="new 0 0 128 128" xml:space="preserve">
<g id="zcool">
	<g>
		<path fill="#5C5C5C" d="M121.5,49.2l4.5-18.1l-24.1,0.3l2.7-10.7c0.5-0.2,0.9-0.4,0.9-0.4c0.5-0.3,1.9-3.8,1-3.7
			c-0.5,0.1-2.1,1-3.6,1.9l-3.7,0.2c0.1-0.6,0.5-1.5,0.9-3.2c1.2-4.4,5.3-5.6,5.5-5.7c0.2-0.2,4.4-4.5,3.7-4.6
			c-1-0.1-9,1.8-10.6,4.1c-1.9,2.7-3,4.8-3.8,5.9c-1.5,2-5.3,3.5-5.3,3.5l0.8,0.4l-2.6,0.1l-5.5,40.3H68.1l-6.3,37.5V82.2L29.1,92
			l6.3-39.9l11.4-0.8L39.6,84l16.3-5l5.3-27.4l8-1.7l5.2-16l-22.8,1.9l2.9-12.5c0.6-1.2,1.1-2.6,0.6-2.6l0-0.2h-6.8
			c0.1-0.2,0.2-0.5,0.4-0.7c2.1-4.3,6.1-5.7,6.3-5.8c0.3-0.2,4.6-4.2,4-4.2C58,9.6,50.6,12,48.8,14c-2.2,2.4-3.7,4.4-4.8,5.5
			c-0.3,0.3-0.6,0.6-1,0.9h-6.4L33,36.6l-19.2,0.2l-3.1,16.1h10.2l-7.7,42.3L2,97.7V118l59.4-18.6L58.2,118H112l9-59.4l-23.8,1.6
			L98,48.6L121.5,49.2z M102.6,72.5l-6.6,31.7H77.2l0.8-5.7l4.9-26H102.6z"/>
	</g>
</g>
</svg>
