<?xml version="1.0" encoding="utf-8"?>
<!-- Generator: Adobe Illustrator 18.0.0, SVG Export Plug-In . SVG Version: 6.00 Build 0)  -->
<!DOCTYPE svg PUBLIC "-//W3C//DTD SVG 1.1//EN" "http://www.w3.org/Graphics/SVG/1.1/DTD/svg11.dtd">
<svg version="1.1" id="cn_1_" xmlns="http://www.w3.org/2000/svg" xmlns:xlink="http://www.w3.org/1999/xlink" x="0px" y="0px"
	 viewBox="0 0 128 128" enable-background="new 0 0 128 128" xml:space="preserve">
<g id="bilibili_B">
	<g>
		<path fill="#5C5C5C" d="M121.3,37.1c0-3.6-0.6-4.2-4.2-4.2c-11.8,0-23.6,0-35.3,0h-3.2c3.4-5,6.5-9.5,9.5-14
			c2.2-3.2,4.4-6.5,6.6-9.7c1.2-1.7,1.5-3.5-0.3-5c-1.6-1.3-3.4-0.7-4.9,1.5c-0.2,0.3-0.4,0.6-0.6,0.8C83.5,14.5,78,22.5,72.6,30.4
			c-1.8,2.6-6.7,3.5-9.4,1.9c-10.7-5.9-21.4-11.7-32.1-17.5c-1.8-1-3.6-0.9-4.6,1.1c-1,1.9-0.3,3.5,1.6,4.5c4.6,2.5,9.1,5,13.7,7.5
			c2.8,1.5,5.5,3,8.3,4.5c-0.1,0.2-0.2,0.4-0.2,0.6h-2.5c-11.9,0-23.7,0-35.6,0c-2.9,0-3.9,0.9-3.9,3.5c-0.1,25-0.1,50.1-0.1,75.1
			c0,2.5,1.1,3.5,3.6,3.6c2.3,0,4.6,0.1,6.9,0c1.8-0.1,2.6,0.3,3.2,2.3c1.2,4.6,4.9,7.3,9,7.3c4-0.1,7.7-2.9,8.8-7.3
			c0.5-2.1,1.5-2.2,3.2-2.2c14.8,0,29.5,0.1,44.3,0c2.1,0,3.3,0.3,3.9,2.7c1.1,3.9,3.8,6.4,8,6.8c3.6,0.4,7.7-1.5,8.7-5.3
			c1.2-4.2,3.7-4.5,7.1-4.1c0.9,0.1,1.9,0,2.8,0c3.6,0,4.2-0.6,4.2-4.1C121.3,86.4,121.3,61.7,121.3,37.1z M30,118.8
			c-1.9-0.1-2.8-1.5-3.3-3.5h7C33.1,117.4,32.1,119,30,118.8z M99.5,118.8c-2.1,0.1-3.1-1.4-3.8-3.6h7.1
			C102.2,117.2,101.3,118.7,99.5,118.8z M115.6,109.3H13.7V38.6h101.9V109.3z M23.8,104.4c13.7,0,27.3,0,41,0c13.7,0,27.3,0,41,0
			c3.8,0,4.6-0.7,4.6-4.4c0-17.2-0.1-34.4-0.1-51.6c0-3.6-0.8-4.3-4.4-4.3c-27.4,0-54.8,0-82.2,0c-3.6,0-4.3,0.7-4.3,4.4
			c0,17.1-0.1,34.2-0.1,51.4C19.2,103.8,19.8,104.4,23.8,104.4z M25.3,50.2h78.8v48.2H25.3V50.2z M81.1,78c-1.9-0.1-3,1-3.3,2.8
			c-0.2,1.2-0.2,2.6-0.8,3.4c-1,1.2-2.6,2.8-3.9,2.7c-1.4,0-3-1.5-4.1-2.8c-0.7-0.8-0.7-2.2-0.9-3.4c-0.2-1.8-1.3-2.9-3-2.9
			c-1.8,0-2.9,1.1-3.2,3c-0.1,1,0,2.3-0.6,2.9c-1.2,1.3-2.6,2.9-4.2,3.2c-2.1,0.5-3.5-1.4-4.3-3.3c-0.4-1-0.2-2.4-0.7-3.2
			c-0.7-1.1-2-2.4-3-2.4c-1,0-2.8,1.5-2.9,2.5c-0.3,4.4,1.3,8.2,5,10.8c3.4,2.4,7,2.5,10.6,0.6c1.1-0.6,2.1-1.4,3.1-2.2
			c0.2,0.2,0.5,0.3,0.6,0.4c3.4,3.1,7.4,4,11.6,2c4.5-2.2,6.4-6.1,6.6-11C84,79.3,83,78.1,81.1,78z M97.4,69.8
			c-5.8-3.6-11.6-7.1-17.5-10.5c-1.5-0.9-3.1-0.4-4,1.2c-0.9,1.5-0.6,3.1,1,4c5.7,3.5,11.4,7,17.3,10.3c2.2,1.2,4.5-0.3,4.5-3.2
			C98.5,71.3,98.1,70.2,97.4,69.8z M51,62.7c-0.1-0.9-1.5-1.7-2.1-2.2c-0.9,0.1-1.2,0.1-1.4,0.2c-5.3,2.4-10.7,4.7-15.9,7.4
			c-0.8,0.4-1.3,2.5-1,3.7c0.4,1.7,2.1,2.2,3.7,1.5c5.2-2.3,10.4-4.6,15.5-7.2C50.6,65.7,51.2,63.8,51,62.7z"/>
	</g>
</g>
</svg>
