<?xml version="1.0" encoding="utf-8"?>
<!-- Generator: Adobe Illustrator 18.0.0, SVG Export Plug-In . SVG Version: 6.00 Build 0)  -->
<!DOCTYPE svg PUBLIC "-//W3C//DTD SVG 1.1//EN" "http://www.w3.org/Graphics/SVG/1.1/DTD/svg11.dtd">
<svg version="1.1" id="cn_1_" xmlns="http://www.w3.org/2000/svg" xmlns:xlink="http://www.w3.org/1999/xlink" x="0px" y="0px"
	 viewBox="0 0 128 128" enable-background="new 0 0 128 128" xml:space="preserve">
<g id="tencent_pengyou">
	<g>
		<path fill="#5C5C5C" d="M65.3,71c-0.2-1.2-0.4-2.3-0.5-3.3c-0.1-1.1-0.2-2-0.3-2.8c0-0.3,0-0.5-0.1-0.7c0-0.4-0.1-0.8-0.1-1.2
			c0-0.7-0.1-1.2-0.1-1.5c0-0.2,0-0.3,0-0.3v0c0,0,0,0-0.1,0.1l0.1-0.1l-8.5,0.5c-1.3,0.1-35.3,3.2-40.2,22.4
			c-3.6,14,4.9,24.8,19,21.9c1.2,7.1,4.3,11.5,8.2,13.9c10,6.1,25.3-1,27.4-12c1.7-9.2,0.3-16.8-1.6-23.8C67.4,79.6,66,75.3,65.3,71
			z M119.5,64.7c-2-2.2-4.6-3.9-7.9-4.7c0,0,0,0,0,0c-0.6-0.2-1.3-0.3-1.9-0.5c-0.1,0-0.2-0.1-0.3-0.1c-0.6-0.1-1.2-0.3-1.7-0.4
			c-0.1,0-0.2,0-0.3-0.1c-0.6-0.1-1.1-0.2-1.7-0.3c0,0-0.1,0-0.1,0c-0.5-0.1-1.1-0.2-1.6-0.3c-0.1,0-0.1,0-0.2,0
			c-0.5-0.1-1.1-0.1-1.6-0.2c-0.1,0-0.2,0-0.3,0c-0.5-0.1-1-0.1-1.5-0.1c-0.1,0-0.1,0-0.2,0c-0.5,0-1-0.1-1.5-0.1c0,0-0.1,0-0.1,0
			c-0.5,0-1,0-1.5,0c-0.1,0-0.1,0-0.2,0c-0.1,0-0.1,0-0.2,0c-0.2,0-0.5,0-0.7,0c-0.1,0-0.3,0-0.4,0c-0.3,0-0.5,0-0.8,0
			c-0.1,0-0.2,0-0.3,0c-0.4,0-0.7,0-1.1,0.1c-0.1,0-0.2,0-0.3,0c-0.3,0-0.5,0-0.8,0.1c-0.1,0-0.3,0-0.5,0c-0.2,0-0.5,0-0.7,0.1
			c-0.2,0-0.3,0-0.5,0c-0.2,0-0.5,0-0.7,0.1c-0.2,0-0.3,0-0.5,0.1c-0.2,0-0.5,0.1-0.7,0.1c-0.2,0-0.3,0-0.5,0.1
			c-0.3,0-0.5,0.1-0.8,0.1c-0.2,0-0.3,0-0.5,0.1c-0.3,0-0.6,0.1-1,0.1c-0.1,0-0.2,0-0.3,0c-0.4,0.1-0.9,0.1-1.3,0.2
			c-0.1,0-0.3,0-0.5,0.1c-0.3,0-0.6,0.1-1,0.1c-0.2,0-0.4,0-0.5,0.1c-0.3,0-0.6,0.1-1,0.1c-0.2,0-0.4,0.1-0.6,0.1
			c-1,0.1-2.1,0.3-3.2,0.5c-0.2,0-0.4,0.1-0.6,0.1c-0.4,0-0.7,0.1-1.1,0.2c-0.3,0-0.5,0.1-0.8,0.1c-0.3,0-0.6,0.1-0.8,0.1l-7.8,0.9
			l0,0l0,0c0.6,2.2,6.7,25.7,13.6,39.3c7.2,14.2,35.1,5.3,25.9-12.3c8.5,1.9,13.8-1,16.3-5.5c0.5-0.9,0.9-2,1.1-3
			c0.1-0.3,0.2-0.7,0.2-1C124.5,73.9,123,68.6,119.5,64.7z M16,61.8c0.4,0.1,0.9,0.2,1.4,0.2c0,0,0,0,0,0c1,0.1,1.9,0.1,2.8,0.2
			c0,0,0.1,0,0.1,0c0.9,0,1.8,0,2.6,0c0,0,0.1,0,0.1,0c0.8,0,1.7,0,2.5-0.1c0.1,0,0.1,0,0.2,0c0.8,0,1.5-0.1,2.3-0.2
			c0.1,0,0.1,0,0.2,0c0.7-0.1,1.5-0.2,2.2-0.3c0.1,0,0.1,0,0.2,0c0.7-0.1,1.4-0.2,2.1-0.3c0.1,0,0.2,0,0.3,0c0.7-0.1,1.4-0.2,2-0.3
			c0.1,0,0.2,0,0.3-0.1c0.7-0.1,1.3-0.2,2-0.4c0,0,0.1,0,0.1,0c0.3-0.1,0.6-0.1,0.9-0.2c0.1,0,0.2,0,0.3-0.1c0.3,0,0.5-0.1,0.8-0.1
			c0.1,0,0.3-0.1,0.4-0.1c0.2,0,0.5-0.1,0.8-0.1c0.2,0,0.3-0.1,0.5-0.1c0.2,0,0.5-0.1,0.7-0.1c0.2,0,0.3-0.1,0.5-0.1
			c0.2,0,0.5-0.1,0.7-0.1c0.2,0,0.3-0.1,0.5-0.1c0.3,0,0.5-0.1,0.8-0.1c0.2,0,0.3,0,0.5-0.1c0.3,0,0.5-0.1,0.8-0.1
			c0.2,0,0.4,0,0.5-0.1c0.3,0,0.5-0.1,0.8-0.1c0.2,0,0.4,0,0.6-0.1c0.3,0,0.5,0,0.8-0.1c0.2,0,0.4,0,0.6,0c0.3,0,0.6,0,0.9-0.1
			c0.2,0,0.4,0,0.6,0c0.3,0,0.6,0,0.9,0c0.2,0,0.4,0,0.6,0c0.3,0,0.6,0,0.9,0c0.2,0,0.4,0,0.6,0c0.3,0,0.7,0,1.1,0
			c0.2,0,0.4,0,0.5,0c0.4,0,0.8,0,1.2,0c0.2,0,0.3,0,0.5,0c0.5,0,0.9,0,1.4,0.1c0.1,0,0.2,0,0.3,0c0.6,0,1.2,0.1,1.8,0.1l1.2,0.1
			l2.8,0.2l0,0c-1.1-6.2-2.8-27.8-8-38.6c-8.7-18.3-43.5-6.6-35.7,12.1l0,0c-0.3,0-0.6,0-1,0c-0.2,0-0.5,0-0.7,0c-0.4,0-0.7,0-1.1,0
			c-0.4,0-0.7,0.1-1.1,0.1c-0.3,0-0.7,0.1-1,0.1c-0.3,0-0.7,0.1-1,0.2c-0.3,0.1-0.6,0.1-0.9,0.2c-0.3,0.1-0.6,0.2-0.9,0.2
			c-0.3,0.1-0.5,0.2-0.8,0.2c-0.3,0.1-0.6,0.2-0.9,0.3c-0.2,0.1-0.5,0.2-0.7,0.3c-0.3,0.1-0.5,0.3-0.8,0.4c-0.2,0.1-0.4,0.2-0.6,0.3
			c-0.2,0.1-0.5,0.3-0.7,0.5c-0.2,0.1-0.3,0.2-0.5,0.4c-0.2,0.2-0.4,0.4-0.6,0.5c-0.1,0.1-0.3,0.3-0.4,0.4c-0.2,0.2-0.4,0.4-0.5,0.6
			c-0.1,0.1-0.2,0.3-0.4,0.4c-0.2,0.2-0.3,0.4-0.5,0.6c-0.1,0.1-0.2,0.3-0.3,0.4c-0.1,0.2-0.3,0.5-0.4,0.7C5,40,4.9,40.2,4.8,40.3
			c-0.1,0.2-0.2,0.5-0.3,0.7c-0.1,0.2-0.1,0.3-0.2,0.5c-0.1,0.3-0.1,0.5-0.2,0.8c0,0.2-0.1,0.3-0.1,0.5c-0.1,0.3-0.1,0.5-0.1,0.8
			c0,0.2-0.1,0.3-0.1,0.5c0,0.3,0,0.6-0.1,0.8c0,0.2,0,0.3,0,0.5c0,0.3,0,0.6,0,0.8c0,0.2,0,0.3,0,0.5c0,0.3,0.1,0.6,0.1,0.8
			c0,0.2,0,0.3,0.1,0.5c0,0.3,0.1,0.6,0.2,0.8c0,0.2,0.1,0.3,0.1,0.5c0.1,0.3,0.2,0.6,0.2,0.8c0.1,0.2,0.1,0.3,0.1,0.5
			c0.1,0.3,0.2,0.5,0.3,0.8C5,51.8,5.1,52,5.1,52.1c0.1,0.3,0.2,0.5,0.4,0.8c0.1,0.2,0.2,0.3,0.2,0.5c0.1,0.3,0.3,0.5,0.4,0.7
			c0.1,0.2,0.2,0.3,0.3,0.5c0.1,0.2,0.3,0.5,0.5,0.7c0.1,0.2,0.2,0.3,0.3,0.5c0.2,0.2,0.3,0.4,0.5,0.7c0.1,0.1,0.2,0.3,0.4,0.4
			c0.2,0.2,0.4,0.4,0.5,0.6c0.1,0.1,0.3,0.3,0.4,0.4c0.2,0.2,0.4,0.4,0.6,0.5c0.1,0.1,0.3,0.3,0.4,0.4c0.2,0.2,0.4,0.3,0.6,0.5
			c0.2,0.1,0.3,0.2,0.5,0.3c0.2,0.2,0.4,0.3,0.7,0.4c0.2,0.1,0.3,0.2,0.5,0.3c0.2,0.1,0.5,0.2,0.7,0.4c0.2,0.1,0.3,0.2,0.5,0.2
			c0.3,0.1,0.5,0.2,0.8,0.3c0.2,0.1,0.3,0.1,0.5,0.2c0.3,0.1,0.6,0.2,1,0.3C15.8,61.8,15.9,61.8,16,61.8z M66.5,59.3L66.5,59.3
			L66.5,59.3L66.5,59.3c0,0,4-1.4,9.3-2.6c13.5-3,24.7-2.5,31.7-7.2c16.7-11.2,3.4-39.7-14.5-28.7c0,0,0,0,0-0.1
			c0.1-0.6,0.1-1.2,0.1-1.7c0-0.2,0-0.4,0-0.6c0-0.4,0-0.7,0-1.1c0-0.2-0.1-0.4-0.1-0.6c0-0.3-0.1-0.6-0.1-0.9
			c0-0.2-0.1-0.4-0.1-0.6c-0.1-0.3-0.1-0.5-0.2-0.8c-0.1-0.2-0.1-0.4-0.2-0.6c-0.1-0.2-0.2-0.5-0.3-0.7c-0.1-0.2-0.2-0.3-0.3-0.5
			c-0.1-0.2-0.2-0.4-0.3-0.6c-0.1-0.2-0.2-0.3-0.3-0.5c-0.1-0.2-0.3-0.4-0.4-0.5c-0.1-0.1-0.2-0.3-0.4-0.4c-0.1-0.2-0.3-0.3-0.4-0.5
			c-0.1-0.1-0.3-0.3-0.4-0.4c-0.2-0.1-0.3-0.3-0.5-0.4c-0.1-0.1-0.3-0.2-0.4-0.3C88.4,9.1,88.2,9,88,8.9c-0.2-0.1-0.3-0.2-0.5-0.3
			c-0.2-0.1-0.4-0.2-0.6-0.3c-0.2-0.1-0.3-0.1-0.5-0.2C86.2,8,86,8,85.8,7.9c-0.2-0.1-0.4-0.1-0.5-0.2c-0.2-0.1-0.4-0.1-0.6-0.2
			c-0.2,0-0.4-0.1-0.5-0.1c-0.2,0-0.4-0.1-0.7-0.1c-0.2,0-0.4-0.1-0.6-0.1c-0.2,0-0.5,0-0.7,0c-0.2,0-0.4,0-0.6,0
			c-0.1,0-0.1,0-0.2,0c-0.2,0-0.3,0-0.5,0c-0.2,0-0.5,0-0.7,0c-0.2,0-0.4,0-0.6,0.1c-0.2,0-0.5,0.1-0.7,0.1c-0.2,0-0.4,0.1-0.6,0.1
			c-0.2,0-0.5,0.1-0.7,0.2c-0.2,0.1-0.4,0.1-0.6,0.2c-0.2,0.1-0.5,0.1-0.7,0.2c-0.2,0.1-0.4,0.1-0.6,0.2c-0.2,0.1-0.5,0.2-0.7,0.3
			c-0.2,0.1-0.4,0.2-0.6,0.3c-0.2,0.1-0.5,0.2-0.7,0.3c-0.2,0.1-0.4,0.2-0.6,0.3c-0.2,0.1-0.4,0.2-0.6,0.4c-0.2,0.1-0.4,0.2-0.6,0.4
			c-0.2,0.1-0.4,0.3-0.6,0.4c-0.2,0.1-0.4,0.3-0.5,0.4c-0.2,0.2-0.4,0.3-0.6,0.5c-0.2,0.1-0.3,0.3-0.5,0.4c-0.2,0.2-0.4,0.4-0.5,0.6
			c-0.1,0.2-0.3,0.3-0.4,0.5c-0.2,0.2-0.3,0.4-0.5,0.6c-0.1,0.2-0.3,0.3-0.4,0.5c-0.2,0.2-0.3,0.4-0.4,0.7c-0.1,0.2-0.2,0.4-0.3,0.6
			c-0.1,0.2-0.2,0.5-0.4,0.7c-0.1,0.2-0.2,0.4-0.3,0.6c-0.1,0.3-0.2,0.6-0.3,0.8c-0.1,0.2-0.1,0.4-0.2,0.6c-0.1,0.3-0.2,0.6-0.2,1
			c0,0.2-0.1,0.3-0.1,0.5c-0.1,0.5-0.2,1-0.2,1.5c0,0,0,0,0,0c-0.6,7.9-0.3,17.5,0.1,25C65.9,53.7,66.5,59.3,66.5,59.3z"/>
	</g>
</g>
</svg>
