<?xml version="1.0" encoding="utf-8"?>
<!-- Generator: Adobe Illustrator 18.0.0, SVG Export Plug-In . SVG Version: 6.00 Build 0)  -->
<!DOCTYPE svg PUBLIC "-//W3C//DTD SVG 1.1//EN" "http://www.w3.org/Graphics/SVG/1.1/DTD/svg11.dtd">
<svg version="1.1" id="Design_1_" xmlns="http://www.w3.org/2000/svg" xmlns:xlink="http://www.w3.org/1999/xlink" x="0px" y="0px"
	 viewBox="0 0 128 128" enable-background="new 0 0 128 128" xml:space="preserve">
<g id="shijue.me">
	<g>
		<path fill="#5C5C5C" d="M64,43.3c-7.6,0-13.6,6.1-13.6,13.6c0,7.4,6.1,13.5,13.6,13.6c7.6,0,13.6-6.2,13.6-13.6
			C77.6,49.3,71.6,43.3,64,43.3z M75.4,19.1l1.2-7.1c0.6-3.6-1.8-6.8-5.3-7.4C68,4,64.9,5.9,64,9c-0.1,0.3-0.1,0.6-0.3,0.9l-1.5,8.9
			C21.1,21.5,2,54.8,2,54.8s12.6,30.5,47.8,36.6l-4.3,24.4c-0.6,3.6,1.9,7,5.5,7.6c3.4,0.6,6.8-1.9,7.4-5.3l4.5-25.8H64
			c39.2-1.3,62-36,62-36S112.2,23.4,75.4,19.1z M64,80.6h-3.7C31.1,79.6,21.1,55,21.1,55S34.8,32.1,64,30.8h1.5
			C95.6,30.4,106.7,56,106.7,56S90.8,79.4,64,80.6z"/>
	</g>
</g>
</svg>
