<?xml version="1.0" encoding="utf-8"?>
<!-- Generator: Adobe Illustrator 18.0.0, SVG Export Plug-In . SVG Version: 6.00 Build 0)  -->
<!DOCTYPE svg PUBLIC "-//W3C//DTD SVG 1.1//EN" "http://www.w3.org/Graphics/SVG/1.1/DTD/svg11.dtd">
<svg version="1.1" id="Popular_1_" xmlns="http://www.w3.org/2000/svg" xmlns:xlink="http://www.w3.org/1999/xlink" x="0px" y="0px"
	 viewBox="0 0 128 128" enable-background="new 0 0 128 128" xml:space="preserve">
<g id="Instagram">
	<g>
		<path fill="#5C5C5C" d="M110.1,2H17.9C9.2,2,2,9.2,2,17.9v92.2c0,8.7,7.2,15.9,15.9,15.9h92.1c8.8,0,15.9-7.1,15.9-15.9V17.9
			C126,9.2,118.8,2,110.1,2z M90.6,21.5c0-2.6,2.1-4.7,4.7-4.7h11.2c2.6,0,4.7,2.1,4.7,4.7v11.2c0,2.6-2.1,4.7-4.7,4.7H95.3
			c-2.6,0-4.7-2.1-4.7-4.7V21.5z M64,37.4c14.7,0,26.6,11.9,26.6,26.5c0,14.7-11.9,26.5-26.6,26.5c-14.7,0-26.6-11.9-26.6-26.5
			C37.4,49.3,49.3,37.4,64,37.4z M114.3,109.2c0,2.7-2.2,4.9-4.9,4.9H18.8c-2.7,0-4.9-2.2-4.9-4.9V55.1h12.8
			c-0.7,2.8-1.1,5.8-1.1,8.8c0,21.2,17.2,38.4,38.5,38.4c21.2,0,38.5-17.2,38.5-38.4c0-3-0.4-6-1.1-8.8h12.9V109.2z"/>
	</g>
</g>
</svg>
