<?xml version="1.0" encoding="utf-8"?>
<!-- Generator: Adobe Illustrator 18.0.0, SVG Export Plug-In . SVG Version: 6.00 Build 0)  -->
<!DOCTYPE svg PUBLIC "-//W3C//DTD SVG 1.1//EN" "http://www.w3.org/Graphics/SVG/1.1/DTD/svg11.dtd">
<svg version="1.1" id="Popular_1_" xmlns="http://www.w3.org/2000/svg" xmlns:xlink="http://www.w3.org/1999/xlink" x="0px" y="0px"
	 viewBox="0 0 128 128" enable-background="new 0 0 128 128" xml:space="preserve">
<g id="Quora">
	<g>
		<path fill-rule="evenodd" clip-rule="evenodd" fill="#5C5C5C" d="M91.4,104.4c15.4-9.7,25.6-26.9,25.6-46.6C117,27.5,92.8,3,63,3
			S9,27.5,9,57.8c0,30.3,24.2,54.8,54,54.8c4.4,0,8.6-0.5,12.7-1.5c5.1,9.3,12.9,15.9,29.5,12.8v-9.3
			C105.2,114.6,94.6,111.9,91.4,104.4z M91,65c0,9.1-2.9,17.5-7.6,23.6c-5.9-6.3-15.2-11.5-27-10.9v10.8c0,0,8,0.3,13.5,9.7
			c-2.1,0.6-4.2,0.9-6.4,0.9c-15.2,0-27.6-15.3-27.6-34.2V50.9c0-18.9,12.3-34.2,27.6-34.2C78.6,16.7,91,32,91,50.9
			C91,53.4,91,62.6,91,65z"/>
	</g>
</g>
</svg>
