<?xml version="1.0" encoding="utf-8"?>
<!-- Generator: Adobe Illustrator 18.0.0, SVG Export Plug-In . SVG Version: 6.00 Build 0)  -->
<!DOCTYPE svg PUBLIC "-//W3C//DTD SVG 1.1//EN" "http://www.w3.org/Graphics/SVG/1.1/DTD/svg11.dtd">
<svg version="1.1" id="cn_1_" xmlns="http://www.w3.org/2000/svg" xmlns:xlink="http://www.w3.org/1999/xlink" x="0px" y="0px"
	 viewBox="0 0 128 128" enable-background="new 0 0 128 128" xml:space="preserve">
<g id="youku">
	<g>
		<path fill-rule="evenodd" clip-rule="evenodd" fill="#5C5C5C" d="M96.6,4.8C86,1,83.1,8.1,80.9,13.4c0,0-18.5,44.8-18.7,45.5
			c-0.3,0.7-1.3,0.7-1.6,0c-0.3-0.7-17.8-44.4-17.8-44.4c-2.8-7.4-7.8-12.8-16.5-9.5c-8.9,3.4-4.2,14.1-3.6,16l27.9,63.6l-11.3,24.3
			c-1.4,3.1-4.5,10.3,4.1,14.2c9.2,4.1,13.2-2.1,15.8-7.8l41.6-94.2C100.7,20.9,107.6,8.7,96.6,4.8z"/>
	</g>
</g>
</svg>
