<?xml version="1.0" encoding="utf-8"?>
<!-- Generator: Adobe Illustrator 18.0.0, SVG Export Plug-In . SVG Version: 6.00 Build 0)  -->
<!DOCTYPE svg PUBLIC "-//W3C//DTD SVG 1.1//EN" "http://www.w3.org/Graphics/SVG/1.1/DTD/svg11.dtd">
<svg version="1.1" id="cn_1_" xmlns="http://www.w3.org/2000/svg" xmlns:xlink="http://www.w3.org/1999/xlink" x="0px" y="0px"
	 viewBox="0 0 128 128" enable-background="new 0 0 128 128" xml:space="preserve">
<g id="tencent_weibo">
	<g>
		<path fill="#5C5C5C" d="M38.5,13.2C19.3,13.2,3.7,29,3.7,48.4c0,6.9,2,13.4,5.4,18.9c2.7,2.2,4.2,0.7,4.9-0.7h0
			c0.3-1.4-0.1-2.6-0.4-3.1c-0.1-0.1-0.1-0.2-0.2-0.3c0,0,0,0,0,0v0c-2.5-4.3-3.9-9.3-3.9-14.7c0-16.2,13-29.3,29-29.3
			c16,0,29,13.1,29,29.3c0,16.2-13,29.3-29,29.3c-2.1,0-4.1-0.2-6-0.7v0c0,0-1.6-0.3-2.6,0c-0.1,0-0.3,0.1-0.4,0.2c0,0,0,0,0,0l0,0
			c-1.3,0.6-2.6,1.8-1.3,4.2c0,0,1.3,0.9,1.7,1c2.8,0.7,5.7,1.1,8.7,1.1c19.2,0,34.8-15.8,34.8-35.2C73.3,29,57.7,13.2,38.5,13.2z
			 M27.9,62.7l0.2-0.3l0.2-0.3l0.2-0.3l0.2-0.3l0.2-0.3l0.2-0.3l0.2-0.2l0.2-0.2l0.2-0.3l0.2-0.2l0.2-0.2l0.2-0.2l0.2-0.2l0.2-0.2
			l0.2-0.2l0.2-0.2l0.2-0.2l0.2-0.2l0.2-0.2l0.2-0.2l0.2-0.2l0.2-0.2l0.2-0.2l0.2-0.2l0.1,0.1c0.1,0.1,0.3,0.2,0.4,0.4
			c0.1,0.1,0.3,0.2,0.4,0.3c0.1,0.1,0.3,0.2,0.4,0.3c0.1,0.1,0.3,0.2,0.4,0.2c0.1,0.1,0.2,0.1,0.4,0.2c0.1,0.1,0.2,0.1,0.4,0.2
			c0.1,0.1,0.2,0.1,0.4,0.2c0.1,0,0.2,0.1,0.3,0.2c0.1,0,0.2,0.1,0.3,0.1c0.1,0.1,0.2,0.1,0.3,0.1c0.1,0,0.2,0.1,0.3,0.1
			c0.1,0,0.2,0.1,0.3,0.1c0.1,0,0.2,0.1,0.3,0.1c0.1,0,0.2,0.1,0.3,0.1c0.1,0,0.2,0,0.3,0.1c0.1,0,0.2,0,0.3,0.1c0.1,0,0.2,0,0.3,0
			c0.1,0,0.2,0,0.3,0c0.1,0,0.2,0,0.3,0c0.1,0,0.2,0,0.3,0c0.1,0,0.2,0,0.3,0c0.1,0,0.2,0,0.3,0l0.2,0l0.1,0c0.1,0,0.2,0,0.3,0
			c0.1,0,0.2,0,0.3,0c0.1,0,0.2,0,0.3,0c0.1,0,0.2,0,0.3,0c0.1,0,0.2,0,0.3,0c0.1,0,0.2,0,0.3,0c0.1,0,0.2,0,0.3,0
			c0.1,0,0.2,0,0.3-0.1c0.1,0,0.2,0,0.3-0.1c0.1,0,0.2,0,0.3-0.1c0.1,0,0.2,0,0.3-0.1c0.1,0,0.2,0,0.3-0.1c0.1,0,0.2-0.1,0.3-0.1
			c0.1,0,0.2-0.1,0.2-0.1c0.1,0,0.2-0.1,0.3-0.1c0.1,0,0.2-0.1,0.2-0.1c0.1,0,0.2-0.1,0.3-0.1c0.1,0,0.2-0.1,0.2-0.1
			c0.1,0,0.2-0.1,0.2-0.1c0.1,0,0.2-0.1,0.2-0.1c0.1,0,0.2-0.1,0.2-0.1c0.1,0,0.2-0.1,0.2-0.1c0.1,0,0.2-0.1,0.2-0.1
			c0.1,0,0.1-0.1,0.2-0.1c0.1-0.1,0.2-0.1,0.2-0.2c0.1,0,0.1-0.1,0.2-0.2c0.1,0,0.1-0.1,0.2-0.2c0.1,0,0.1-0.1,0.2-0.2
			c0.1-0.1,0.1-0.1,0.2-0.2c0.1-0.1,0.2-0.1,0.2-0.2c0.1-0.1,0.1-0.1,0.2-0.2c0.1-0.1,0.1-0.1,0.2-0.2c0.1-0.1,0.1-0.1,0.2-0.2
			c0.1-0.1,0.1-0.1,0.2-0.2c0.1-0.1,0.1-0.1,0.2-0.2c0.1-0.1,0.1-0.2,0.2-0.2c0.1-0.1,0.1-0.2,0.2-0.2c0.1-0.1,0.1-0.2,0.2-0.2
			c0.1-0.1,0.1-0.2,0.2-0.2c0.1-0.1,0.1-0.2,0.2-0.3c0.1-0.1,0.1-0.2,0.2-0.3c0.1-0.1,0.1-0.2,0.2-0.3c0.1-0.1,0.1-0.2,0.2-0.3
			c0.1-0.1,0.1-0.2,0.2-0.3c0.1-0.1,0.1-0.2,0.2-0.3c0.1-0.1,0.1-0.2,0.2-0.3c0.1-0.1,0.1-0.2,0.2-0.3c0.1-0.1,0.1-0.2,0.1-0.4
			c0-0.1,0.1-0.3,0.1-0.4c0-0.1,0.1-0.3,0.1-0.4c0-0.1,0.1-0.3,0.1-0.4c0-0.1,0.1-0.3,0.1-0.4c0-0.2,0.1-0.3,0.1-0.5
			c0-0.2,0.1-0.3,0.1-0.5c0-0.2,0-0.4,0.1-0.6c0-0.2,0-0.4,0-0.6c0-0.2,0-0.4,0-0.5l0-0.2c0-0.3,0-0.5,0-0.8c0-0.4-0.1-0.7-0.1-1
			c-0.3-1.7-0.9-3.3-1.8-4.6c-0.2-0.3-0.4-0.6-0.6-0.8c-0.2-0.2-0.4-0.4-0.5-0.6c-0.1-0.2-0.3-0.3-0.5-0.5c-0.2-0.1-0.3-0.3-0.5-0.4
			c-0.2-0.1-0.3-0.2-0.4-0.3c-0.1-0.1-0.3-0.2-0.4-0.3c-0.1-0.1-0.3-0.2-0.4-0.3c-0.1-0.1-0.3-0.2-0.4-0.2c-0.1-0.1-0.2-0.1-0.4-0.2
			c-0.1-0.1-0.2-0.1-0.4-0.2c-0.1-0.1-0.2-0.1-0.4-0.2c-0.1-0.1-0.2-0.1-0.3-0.2c-0.1,0-0.2-0.1-0.3-0.1c-0.1,0-0.2-0.1-0.3-0.1
			c-0.1,0-0.2-0.1-0.3-0.1c-0.1,0-0.2-0.1-0.3-0.1c-0.1,0-0.2-0.1-0.3-0.1c-0.1,0-0.2-0.1-0.3-0.1c-0.1,0-0.2,0-0.3-0.1
			c-0.1,0-0.2,0-0.3-0.1c-0.1,0-0.2,0-0.3,0c-0.1,0-0.2,0-0.3,0c-0.1,0-0.2,0-0.3,0c-0.1,0-0.2,0-0.3,0c-0.1,0-0.2,0-0.3,0
			c-0.1,0-0.2,0-0.3,0l-0.1,0l-0.1,0c-0.1,0-0.2,0-0.3,0c-0.1,0-0.2,0-0.3,0c-0.1,0-0.2,0-0.3,0c-0.1,0-0.2,0-0.3,0
			c-0.1,0-0.2,0-0.3,0c-0.1,0-0.2,0-0.3,0c-0.1,0-0.2,0-0.3,0c-0.1,0-0.2,0-0.3,0.1c-0.1,0-0.2,0-0.3,0.1c-0.1,0-0.2,0-0.3,0.1
			c-0.1,0-0.2,0-0.3,0.1c-0.1,0-0.2,0-0.3,0.1c-0.1,0-0.2,0.1-0.3,0.1c-0.1,0-0.2,0.1-0.3,0.1c-0.1,0-0.2,0.1-0.3,0.1
			c-0.1,0-0.2,0.1-0.2,0.1c-0.1,0-0.2,0.1-0.2,0.1c-0.1,0-0.2,0.1-0.2,0.1c-0.1,0-0.2,0.1-0.2,0.1c-0.1,0-0.2,0.1-0.2,0.1
			c-0.1,0-0.2,0.1-0.2,0.1c-0.1,0-0.2,0.1-0.2,0.1c-0.1,0-0.1,0.1-0.2,0.1c-0.1,0-0.2,0.1-0.2,0.1c-0.1,0.1-0.2,0.1-0.2,0.2
			c-0.1,0-0.2,0.1-0.2,0.2c-0.1,0.1-0.2,0.1-0.2,0.2c-0.1,0.1-0.1,0.1-0.2,0.2c-0.1,0.1-0.1,0.1-0.2,0.2c-0.1,0.1-0.1,0.1-0.2,0.2
			c-0.1,0.1-0.1,0.1-0.2,0.2c-0.1,0.1-0.1,0.1-0.2,0.2c-0.1,0.1-0.1,0.1-0.2,0.2c-0.1,0.1-0.1,0.1-0.2,0.2c-0.1,0.1-0.2,0.1-0.2,0.2
			c-0.1,0.1-0.1,0.2-0.2,0.2c-0.1,0.1-0.1,0.2-0.2,0.2c-0.1,0.1-0.1,0.2-0.2,0.2c-0.1,0.1-0.1,0.2-0.2,0.2c-0.1,0.1-0.1,0.2-0.2,0.3
			c-0.1,0.1-0.1,0.2-0.2,0.3c-0.1,0.1-0.1,0.2-0.2,0.3c-0.1,0.1-0.1,0.2-0.2,0.3c-0.1,0.1-0.1,0.2-0.2,0.3c-0.1,0.1-0.1,0.2-0.2,0.3
			c0,0.1-0.1,0.2-0.2,0.3c-0.1,0.1-0.1,0.2-0.1,0.3c-0.1,0.1-0.1,0.2-0.2,0.4c0,0.1-0.1,0.2-0.1,0.4c0,0.1-0.1,0.3-0.1,0.4
			c0,0.1-0.1,0.3-0.1,0.4c0,0.1-0.1,0.3-0.1,0.4c0,0.2-0.1,0.3-0.1,0.5c0,0.2-0.1,0.3-0.1,0.5c0,0.2,0,0.4-0.1,0.6
			c0,0.2,0,0.4,0,0.6c0,0.2,0,0.3,0,0.5l0,0.2c0,0.3,0,0.6,0,0.8c0,0.4,0.1,0.7,0.1,1.1c0.1,0.8,0.3,1.5,0.6,2.2l0,0L29,52.5
			l-0.2,0.2L28.6,53l-0.2,0.2l-0.2,0.2L28,53.7l-0.2,0.2l-0.2,0.2l-0.2,0.2l-0.2,0.2L27,54.8l-0.2,0.2l-0.2,0.2l-0.2,0.2l-0.2,0.2
			L26.1,56l-0.2,0.2l-0.2,0.2l-0.2,0.2L25.3,57l-0.2,0.3l-0.2,0.2l-0.2,0.3L24.6,58l-0.2,0.3l-0.2,0.3L24,58.8L23.8,59l-0.2,0.3
			l-0.2,0.3l-0.2,0.3l-0.2,0.3l-0.2,0.3l-0.2,0.3l-0.2,0.3l-0.2,0.3l-0.1,0.2l0,0L22,61.7L21.8,62l-0.2,0.3l-0.2,0.3l-0.2,0.3
			l-0.2,0.3l-0.2,0.3l-0.2,0.3l-0.2,0.3l-0.2,0.3l-0.2,0.3l-0.2,0.3l-0.2,0.3l-0.2,0.3l-0.2,0.3l-0.2,0.3l-0.2,0.3l-0.2,0.3
			l-0.2,0.3l-0.2,0.3c-0.1,0.1-0.1,0.2-0.2,0.3l-0.2,0.3l-0.2,0.3l-0.2,0.3l-0.2,0.3L17.8,69l-0.2,0.3l-0.2,0.3L17.3,70l-0.2,0.3
			L17,70.6c-0.1,0.1-0.1,0.2-0.2,0.3l-0.2,0.3l-0.2,0.3L16.4,72l-0.2,0.3l-0.2,0.3L15.9,73l-0.1,0.3l-0.1,0.3L15.5,74l-0.1,0.4
			l-0.1,0.4L15,75.1l-0.1,0.4l-0.1,0.4l-0.2,0.4l-0.1,0.4l-0.1,0.4l-0.1,0.4L14,77.6L13.9,78l-0.1,0.4l-0.1,0.4l-0.1,0.4l-0.1,0.4
			c0,0.1-0.1,0.3-0.1,0.4l-0.1,0.4L13,80.7l-0.1,0.4l-0.1,0.4l-0.1,0.4l-0.1,0.4c0,0.1-0.1,0.3-0.1,0.4l-0.1,0.4l-0.1,0.4L12,84
			l-0.1,0.4l-0.1,0.4l-0.1,0.4l-0.1,0.4l-0.1,0.4l-0.1,0.4l-0.1,0.4l-0.1,0.4L11,87.9l-0.1,0.5l-0.1,0.5l-0.1,0.5l-0.1,0.5
			c0,0.2-0.1,0.3-0.1,0.5l-0.1,0.5l-0.1,0.5l-0.1,0.5l-0.1,0.5L10,92.7c0,0.2-0.1,0.3-0.1,0.5l-0.1,0.5l-0.1,0.5l-0.1,0.5l-0.1,0.5
			l-0.1,0.5l-0.1,0.5l-0.1,0.5l-0.1,0.5l-0.1,0.5l-0.1,0.5c0,0.2,0,0.4-0.1,0.5L9,99.5L9,100l-0.1,0.6l-0.1,0.6l-0.1,0.6l-0.1,0.6
			l-0.1,0.6l0,0.6c0,0.2,0,0.4,0,0.6l0,0.6l0,0.6l0,0.6l0,0.6l0,0.6l0,0.6l0,0.7l0,0.7l0,0.7l0,0.7l0,0.7l0,0.7c0,0.2,0,0.5,0,0.7
			v1.4l0,0.7l0,0.7c0,0.3,0,0.5,0,0.8c0,0.3,0,0.5,0,0.8c0,0.3,0,0.5,0,0.8c0,0.3,0,0.5,0,0.8l0,0.8c0,0.3,0,0.5,0,0.8l0,0.3
			c0,0.8,0.4,1.5,0.9,1.9c0.1,0.1,0.3,0.2,0.4,0.3c0.1,0.1,0.3,0.1,0.4,0.2c0.1,0,0.2,0.1,0.3,0.1c0.1,0,0.2,0.1,0.3,0.1
			c0.1,0,0.2,0,0.3,0c0.1,0,0.2,0,0.3,0c0.1,0,0.2,0,0.3,0c0.1,0,0.2,0,0.3,0c0.1,0,0.2,0,0.3-0.1c0.1,0,0.2-0.1,0.3-0.1
			c0.1,0,0.2-0.1,0.2-0.1c0.1,0,0.1-0.1,0.2-0.1c0.1-0.1,0.2-0.1,0.2-0.2c0.1-0.1,0.1-0.1,0.2-0.2c0.1-0.1,0.1-0.2,0.2-0.2
			c0.1-0.1,0.1-0.2,0.2-0.3c0.1-0.1,0.1-0.2,0.1-0.4c0-0.2,0.1-0.3,0.1-0.5c0-0.1,0-0.3,0-0.4l0-0.4c0-0.3,0-0.5,0-0.8
			c0-0.3,0-0.5,0-0.8c0-0.3,0-0.5,0-0.8c0-0.3,0-0.5,0-0.8c0-0.3,0-0.5,0-0.8l0-0.8l0-0.7l0-0.7v-1.4l0-0.7l0-0.7l0-0.7
			c0-0.2,0-0.4,0-0.7l0-0.7l0-0.7l0-0.6c0-0.2,0-0.4,0-0.6l0-0.6l0-0.6c0-0.2,0-0.4,0-0.6l0-0.6l0-0.6l0.1-0.6l0.1-0.6l0-0.6
			l0.1-0.6l0.1-0.6l0.1-0.6l0.1-0.6l0.1-0.6c0-0.2,0-0.4,0.1-0.5l0.1-0.5l0.1-0.5l0.1-0.5c0-0.2,0.1-0.3,0.1-0.5
			c0-0.2,0.1-0.3,0.1-0.5l0.1-0.5l0.1-0.5l0.1-0.5l0.1-0.5l0.1-0.5l0.1-0.5c0-0.2,0.1-0.3,0.1-0.5l0.1-0.5c0-0.2,0.1-0.3,0.1-0.5
			l0.1-0.5l0.1-0.5l0.1-0.5l0.1-0.5l0.1-0.5l0.1-0.5l0.1-0.4l0.1-0.4l0.1-0.4l0.1-0.4l0.1-0.4l0.1-0.4l0.1-0.4l0.1-0.4l0.1-0.4
			l0.1-0.4l0.1-0.4l0.1-0.4l0.1-0.4l0.1-0.4l0.1-0.4l0.1-0.4l0.1-0.4l0.1-0.4l0.1-0.4l0.1-0.4l0.1-0.4l0.1-0.4l0.2-0.4l0.1-0.4
			l0.1-0.4l0.1-0.4l0.1-0.4l0.1-0.4l0.1-0.4l0.1-0.4l0.1-0.4l0.1-0.3l0.1-0.4l0.2-0.4l0.1-0.3L21,75l0.2-0.3
			c0.1-0.1,0.1-0.2,0.2-0.3l0.2-0.3l0.2-0.3l0.2-0.3L22,73l0.2-0.3l0.2-0.3l0.2-0.3l0.2-0.3l0.2-0.3l0.2-0.3l0.2-0.3l0.2-0.3
			l0.2-0.3l0.2-0.3l0.2-0.3l0.2-0.3l0.2-0.3l0.2-0.3l0.2-0.3l0.2-0.3l0.2-0.3l0.2-0.3l0.2-0.3l0.2-0.3l0.2-0.3l0.2-0.3l0.2-0.3
			l0.2-0.3l0.2-0.3l0.2-0.3l0.2-0.3l0.1-0.2l0-0.1l0.2-0.3l0.2-0.3l0.2-0.3l0.2-0.3l0.2-0.3l0.2-0.3L27.9,62.7z M98.2,44.4
			c-0.6-0.5-1.2-0.6-1.6-0.6c-0.1,0-0.1,0-0.2,0v0c-2.6,0.1-5.3-0.5-7.8-1.8c-7.5-4-10.4-13.5-6.4-21.1c4-7.6,13.3-10.5,20.9-6.5
			c7.5,4,10.4,13.5,6.4,21.1c-0.5,1-1.1,1.9-1.8,2.7c0,0,0,0,0,0s-0.5,0.7-0.7,1.2c0,0.1,0,0.2,0,0.2c0,0,0,0,0,0c0,0,0,0,0,0
			c0,0.7,0.2,1.7,1.6,1.7c0,0,0.8-0.4,0.9-0.5c1-1.1,2-2.4,2.7-3.9c4.8-9.1,1.3-20.5-7.7-25.3c-9-4.8-20.3-1.3-25,7.8
			c-4.8,9.1-1.3,20.5,7.7,25.3c3.2,1.7,6.7,2.4,10.1,2.1C99.1,46.2,98.7,45.1,98.2,44.4L98.2,44.4z M124.1,58.9c0-0.1,0-0.1,0-0.1
			c0-0.1,0-0.1,0-0.1c0-0.1,0-0.1-0.1-0.2c0-0.1-0.1-0.1-0.1-0.2c0-0.1-0.1-0.1-0.1-0.2c-0.1-0.1-0.1-0.1-0.2-0.2
			c-0.1,0-0.1-0.1-0.2-0.1l-0.2-0.1c-0.1-0.1-0.3-0.1-0.4-0.2c-0.1-0.1-0.3-0.1-0.4-0.2c-0.1-0.1-0.3-0.1-0.4-0.2
			c-0.1-0.1-0.2-0.1-0.4-0.2c-0.1-0.1-0.2-0.1-0.4-0.2l-0.4-0.2l-0.3-0.2l-0.3-0.2c-0.1-0.1-0.2-0.1-0.3-0.2
			c-0.1-0.1-0.2-0.1-0.3-0.2l-0.3-0.2l-0.3-0.2l-0.3-0.2c-0.1-0.1-0.2-0.1-0.3-0.2l-0.3-0.2l-0.3-0.2l-0.3-0.2
			c-0.1-0.1-0.2-0.1-0.3-0.2l-0.3-0.2l-0.3-0.2c-0.1-0.1-0.2-0.1-0.3-0.2l-0.3-0.2l-0.3-0.2l-0.3-0.2l-0.3-0.2l-0.3-0.2l-0.3-0.2
			l-0.2-0.2l-0.3-0.2l-0.2-0.2l-0.2-0.2c-0.1-0.1-0.2-0.1-0.2-0.2l-0.2-0.2l-0.2-0.2l-0.2-0.2c-0.1-0.1-0.2-0.1-0.2-0.2
			c-0.1-0.1-0.1-0.1-0.2-0.2l-0.2-0.2l-0.2-0.2l-0.2-0.2l-0.2-0.2l-0.2-0.2l-0.2-0.2c-0.1-0.1-0.1-0.1-0.2-0.2l-0.2-0.2
			c-0.1-0.1-0.1-0.1-0.2-0.2l-0.2-0.2l-0.2-0.2l-0.2-0.2l-0.2-0.2l-0.2-0.2l-0.2-0.2l-0.2-0.2l-0.2-0.2l-0.2-0.2l-0.2-0.2l-0.2-0.2
			l-0.2-0.2l-0.2-0.2l-0.2-0.2l-0.2-0.2l-0.2-0.2l-0.2-0.2l-0.2-0.2l-0.2-0.2l-0.2-0.2l-0.2-0.2l-0.1-0.2l-0.1-0.2l-0.2-0.2
			l-0.2-0.2l-0.2-0.2l-0.1-0.2l-0.1-0.2l-0.1-0.2l-0.1-0.2l-0.1-0.2l-0.1-0.2l-0.1-0.2l-0.1-0.2l-0.1-0.2l-0.1-0.2l-0.1-0.2
			l-0.1-0.2l-0.1-0.2l-0.1-0.2l-0.1-0.2l-0.1-0.2l-0.1-0.2c0-0.1-0.1-0.1-0.1-0.2l-0.1-0.2l-0.1-0.2l-0.1-0.2l-0.1-0.2l-0.1-0.2
			l-0.1-0.2l-0.1-0.2l-0.1-0.2l-0.1-0.2l-0.1-0.2l-0.1-0.2l-0.1-0.2l-0.1-0.2l-0.1-0.2l-0.1-0.2l-0.1-0.1l-0.1-0.2l-0.1-0.2
			l-0.1-0.2l-0.1-0.2l-0.1-0.2l-0.1-0.2l-0.1-0.2l-0.1-0.1l-0.1-0.2l-0.1-0.2l-0.1-0.2l-0.1-0.2l-0.1-0.2l-0.1-0.2l-0.1-0.2
			l-0.1-0.1l0,0l-0.1-0.1l-0.1-0.2l-0.1-0.2l-0.1-0.1l-0.1-0.2L100,37l-0.1-0.2l-0.1-0.2l-0.1-0.2l-0.1-0.2l-0.1-0.2l-0.1-0.2
			l-0.1-0.2l-0.1-0.2l-0.1-0.2l-0.1-0.2l-0.1-0.1l-0.1-0.2L99,35L99,34.9l-0.1-0.1l-0.1-0.2l-0.1-0.2l-0.1-0.1l-0.1-0.1L98.6,34
			l-0.1-0.1l-0.1-0.1l-0.1-0.2l-0.1-0.1l0-0.1l0.1,0c0.1,0,0.2-0.1,0.3-0.1c0.1,0,0.2-0.1,0.2-0.1c0.1,0,0.2-0.1,0.2-0.1
			c0.1,0,0.1-0.1,0.2-0.1c0.1,0,0.1-0.1,0.2-0.1c0.1,0,0.1-0.1,0.2-0.1c0.1,0,0.1-0.1,0.2-0.1c0,0,0.1-0.1,0.2-0.1
			c0.1,0,0.1-0.1,0.2-0.1c0,0,0.1-0.1,0.1-0.1c0.1,0,0.1-0.1,0.1-0.1c0,0,0.1-0.1,0.1-0.1c0,0,0.1-0.1,0.1-0.1c0,0,0.1-0.1,0.1-0.1
			c0,0,0.1-0.1,0.1-0.1c0,0,0.1-0.1,0.1-0.1c0,0,0.1-0.1,0.1-0.1c0,0,0.1-0.1,0.1-0.1c0,0,0.1-0.1,0.1-0.1c0,0,0.1-0.1,0.1-0.1
			c0,0,0.1-0.1,0.1-0.1c0,0,0-0.1,0.1-0.1l0-0.1l0-0.1c0,0,0-0.1,0.1-0.1c0,0,0-0.1,0.1-0.1c0,0,0-0.1,0.1-0.1c0,0,0-0.1,0.1-0.1
			c0,0,0-0.1,0-0.1c0,0,0-0.1,0.1-0.1c0,0,0-0.1,0-0.1c0,0,0-0.1,0-0.1c0,0,0-0.1,0-0.1c0,0,0-0.1,0-0.1c0,0,0-0.1,0-0.1
			c0,0,0-0.1,0-0.1c0,0,0-0.1,0-0.1c0,0,0-0.1,0-0.1c0-0.1,0-0.1,0-0.1c0,0,0-0.1,0-0.1c0,0,0-0.1,0-0.1c0,0,0-0.1,0-0.1
			c0,0,0-0.1,0-0.1c0,0,0-0.1,0-0.1v-0.1c0,0,0-0.1,0-0.1c0,0,0-0.1,0-0.1c0,0,0-0.1,0-0.1c0,0,0-0.1,0-0.2c0,0,0-0.1,0-0.1
			c0,0,0-0.1,0-0.1c0,0,0-0.1,0-0.1c0,0,0-0.1,0-0.1c0-0.1,0-0.1,0-0.2c0,0,0-0.1,0-0.1c0,0,0-0.1,0-0.1c0-0.1,0-0.1-0.1-0.2
			c0,0,0-0.1,0-0.1c0-0.1,0-0.1-0.1-0.1c0-0.1,0-0.1-0.1-0.2c0-0.1,0-0.1-0.1-0.2c0,0,0-0.1-0.1-0.1c0,0-0.1-0.1-0.1-0.2
			c0,0,0-0.1-0.1-0.2c0,0-0.1-0.1-0.1-0.1c0,0-0.1-0.1-0.1-0.2c0-0.1-0.1-0.1-0.1-0.2c0-0.1-0.1-0.1-0.1-0.2c0-0.1-0.1-0.1-0.1-0.2
			c0-0.1-0.1-0.1-0.1-0.2c0,0-0.1-0.1-0.1-0.2c0-0.1-0.1-0.1-0.1-0.2c-0.1-0.1-0.1-0.1-0.1-0.2c-0.1-0.1-0.1-0.1-0.2-0.2
			c0-0.1-0.1-0.1-0.2-0.2c-0.1-0.1-0.1-0.1-0.2-0.2c-0.1-0.1-0.1-0.1-0.2-0.2c-0.1-0.1-0.1-0.1-0.2-0.2c-0.1-0.1-0.2-0.1-0.2-0.2
			c-0.1-0.1-0.2-0.1-0.3-0.2c-0.1-0.1-0.2-0.1-0.2-0.1l-0.1,0c-0.1-0.1-0.3-0.1-0.4-0.2c-0.2-0.1-0.3-0.1-0.5-0.2
			c-0.9-0.3-1.8-0.4-2.6-0.3c-0.2,0-0.4,0-0.5,0.1c-0.1,0-0.3,0.1-0.4,0.1c-0.1,0-0.2,0.1-0.3,0.1c-0.1,0-0.2,0.1-0.3,0.1
			c-0.1,0-0.2,0.1-0.3,0.1c-0.1,0-0.1,0.1-0.2,0.1c-0.1,0-0.2,0.1-0.2,0.1c-0.1,0-0.1,0.1-0.2,0.1c-0.1,0-0.1,0.1-0.2,0.1
			c-0.1,0-0.1,0.1-0.2,0.1c-0.1,0-0.1,0.1-0.2,0.1c0,0-0.1,0.1-0.2,0.1c-0.1,0-0.1,0.1-0.2,0.1c0,0-0.1,0.1-0.1,0.1
			c0,0-0.1,0.1-0.1,0.1c-0.1,0-0.1,0.1-0.1,0.1c0,0-0.1,0.1-0.1,0.1c0,0-0.1,0.1-0.1,0.1c0,0.1-0.1,0.1-0.1,0.1c0,0-0.1,0.1-0.1,0.1
			c0,0-0.1,0.1-0.1,0.1c0,0-0.1,0.1-0.1,0.1c0,0-0.1,0.1-0.1,0.1c0,0.1-0.1,0.1-0.1,0.1c0,0,0,0.1-0.1,0.1c0,0-0.1,0.1-0.1,0.1
			l0,0.1l0,0.1c0,0-0.1,0.1-0.1,0.1c0,0,0,0.1-0.1,0.1c0,0,0,0.1-0.1,0.1c0,0,0,0.1,0,0.1c0,0,0,0.1-0.1,0.1c0,0,0,0.1-0.1,0.1
			c0,0,0,0.1-0.1,0.1c0,0,0,0.1,0,0.1c0,0,0,0.1,0,0.1c0,0.1,0,0.1,0,0.1c0,0,0,0.1,0,0.1c0,0,0,0.1,0,0.1c0,0,0,0.1,0,0.1
			c0,0,0,0.1,0,0.1c0,0,0,0.1,0,0.1c0,0,0,0.1,0,0.1c0,0,0,0.1,0,0.1c0,0.1,0,0.1,0,0.1c0,0.1,0,0.1,0,0.1v0.4c0,0,0,0.1,0,0.1
			c0,0,0,0.1,0,0.1c0,0,0,0.1,0,0.1c0,0,0,0.1,0,0.1c0,0,0,0.1,0,0.1c0,0,0,0.1,0,0.1c0,0,0,0.1,0,0.1c0,0,0,0.1,0,0.1
			c0,0.1,0,0.1,0,0.1c0,0.1,0,0.1,0,0.2c0,0,0,0.1,0,0.1c0,0.1,0,0.1,0.1,0.1c0,0.1,0,0.1,0,0.2c0,0.1,0,0.1,0.1,0.1
			c0,0.1,0,0.1,0,0.2c0,0,0.1,0.1,0.1,0.1c0,0.1,0,0.1,0.1,0.2c0,0,0.1,0.1,0.1,0.2c0,0,0.1,0.1,0.1,0.2c0,0,0,0.1,0.1,0.2
			c0,0.1,0.1,0.1,0.1,0.2c0,0,0.1,0.1,0.1,0.2c0,0.1,0.1,0.1,0.1,0.2c0,0.1,0.1,0.1,0.1,0.2c0,0.1,0.1,0.1,0.1,0.2
			c0,0.1,0.1,0.1,0.1,0.2c0,0.1,0.1,0.1,0.1,0.2c0,0.1,0.1,0.1,0.1,0.2c0.1,0.1,0.1,0.1,0.2,0.2c0.1,0.1,0.1,0.1,0.2,0.2
			c0.1,0.1,0.1,0.1,0.2,0.2c0.1,0,0.1,0.1,0.2,0.2c0.1,0.1,0.2,0.1,0.2,0.2c0.1,0.1,0.2,0.1,0.3,0.2c0.1,0,0.1,0.1,0.2,0.1l0.1,0
			c0.1,0.1,0.3,0.1,0.4,0.2c0.2,0.1,0.4,0.1,0.5,0.2c0.4,0.1,0.8,0.2,1.2,0.3l0,0l0.1,0.1l0.1,0.2l0.1,0.1l0.1,0.2l0.1,0.1l0.1,0.1
			l0.1,0.1l0.1,0.2l0.1,0.1l0.1,0.2l0.1,0.1l0.1,0.2l0.1,0.2l0.1,0.2l0.1,0.2l0.1,0.1l0.1,0.2l0.1,0.2l0.1,0.1l0.1,0.2l0.1,0.2
			l0.1,0.1l0.1,0.1l0.1,0.2l0.1,0.2l0.1,0.1l0.1,0.2l0.1,0.2l0.1,0.2l0.1,0.2l0.1,0.2l0.1,0.2l0.1,0.1l0.1,0.2l0.1,0.2l0.1,0.1
			l0.1,0.1l0,0l0.1,0.2l0.1,0.2l0.1,0.1l0.1,0.2l0.1,0.2l0.1,0.2l0.1,0.2l0.1,0.2l0.1,0.2l0.1,0.2l0.1,0.2l0.1,0.2l0.1,0.2l0.1,0.2
			l0.1,0.2l0.1,0.2l0.1,0.2l0.1,0.2l0.1,0.2l0.1,0.2c0,0.1,0.1,0.1,0.1,0.2l0.1,0.2l0.1,0.2l0.1,0.2l0.1,0.2l0.1,0.2l0.1,0.2
			l0.1,0.2l0.1,0.2l0.1,0.2l0.1,0.2c0,0.1,0.1,0.1,0.1,0.2l0.1,0.2l0.1,0.2l0.1,0.2l0.1,0.2l0.1,0.2l0.1,0.2l0.1,0.2l0.1,0.2
			l0.1,0.2l0.1,0.1l0.1,0.2l0.1,0.2l0.1,0.2l0.1,0.2l0.1,0.2l0.1,0.2l0.1,0.2l0.1,0.2l0.1,0.2l0.1,0.2l0.1,0.2l0.1,0.2l0.1,0.2
			l0.1,0.2c0.1,0.1,0.1,0.1,0.2,0.2l0.2,0.2l0.2,0.2l0.2,0.2l0.2,0.2l0.1,0.2l0.2,0.2c0,0.1,0.1,0.1,0.1,0.2l0.2,0.2l0.2,0.2
			l0.2,0.2l0.2,0.2l0.2,0.2l0.2,0.2l0.2,0.2l0.2,0.2l0.2,0.2l0.2,0.2l0.2,0.2l0.2,0.2l0.2,0.2l0.2,0.2l0.2,0.2l0.2,0.2
			c0.1,0.1,0.1,0.1,0.2,0.2l0.2,0.2l0.2,0.2l0.2,0.2l0.2,0.2l0.2,0.2c0.1,0.1,0.1,0.1,0.2,0.2l0.2,0.2l0.2,0.2l0.2,0.2l0.2,0.2
			l0.2,0.2l0.2,0.2l0.2,0.2l0.2,0.2l0.2,0.2l0.2,0.2c0.1,0.1,0.2,0.1,0.2,0.2l0.2,0.2l0.2,0.2l0.3,0.2l0.2,0.2l0.3,0.2l0.3,0.2
			l0.3,0.2l0.3,0.2c0.1,0.1,0.2,0.1,0.3,0.2l0.3,0.2l0.3,0.2l0.3,0.2l0.3,0.2l0.3,0.2l0.3,0.2l0.3,0.2l0.3,0.2l0.3,0.2l0.3,0.2
			l0.3,0.2l0.3,0.2c0.1,0.1,0.2,0.1,0.3,0.2l0.3,0.2c0.1,0.1,0.2,0.1,0.3,0.2l0.3,0.2l0.4,0.2c0.1,0.1,0.2,0.1,0.4,0.2
			c0.1,0.1,0.2,0.1,0.4,0.2c0.1,0.1,0.3,0.1,0.4,0.2c0.1,0.1,0.3,0.1,0.4,0.2l0.4,0.2c0.1,0.1,0.3,0.1,0.4,0.2l0.1,0.1
			c0.4,0.2,0.8,0.2,1.1,0.1c0.1,0,0.2-0.1,0.2-0.1c0.1,0,0.1-0.1,0.2-0.1c0.1,0,0.1-0.1,0.1-0.1c0,0,0.1-0.1,0.1-0.1
			c0,0,0.1-0.1,0.1-0.1c0,0,0.1-0.1,0.1-0.1c0,0,0-0.1,0.1-0.1c0,0,0-0.1,0-0.1c0,0,0-0.1,0-0.1c0,0,0-0.1,0-0.1c0,0,0-0.1,0-0.1
			C124.1,59,124.1,59,124.1,58.9z"/>
	</g>
</g>
</svg>
