<?xml version="1.0" encoding="utf-8"?>
<!-- Generator: Adobe Illustrator 18.0.0, SVG Export Plug-In . SVG Version: 6.00 Build 0)  -->
<!DOCTYPE svg PUBLIC "-//W3C//DTD SVG 1.1//EN" "http://www.w3.org/Graphics/SVG/1.1/DTD/svg11.dtd">
<svg version="1.1" id="Popular_1_" xmlns="http://www.w3.org/2000/svg" xmlns:xlink="http://www.w3.org/1999/xlink" x="0px" y="0px"
	 viewBox="0 0 128 128" enable-background="new 0 0 128 128" xml:space="preserve">
<g id="_x35_00px">
	<g>
		<path fill-rule="evenodd" clip-rule="evenodd" fill="#5C5C5C" d="M123,52.7c-1.3-3.7-3.2-6.9-5.8-9.6c-2.5-2.7-5.5-4.8-9-6.4
			c-3.5-1.6-7.5-2.4-12-2.4c-3.6,0-6.9,0.5-9.8,1.6c-2.9,1-5.6,2.4-8.1,4.1c-2.5,1.7-4.8,3.7-7,5.9c-2.2,2.2-4.4,4.6-6.7,7
			c-2.1-2.4-4.3-4.7-6.6-7c-2.3-2.2-4.7-4.2-7.3-5.9c-2.6-1.7-5.3-3.1-8.3-4.1c-3-1-6.1-1.6-9.5-1.6c-4.4,0-8.4,0.8-11.9,2.4
			c-3.6,1.6-6.5,3.8-9,6.6c-2.4,2.8-4.3,6.1-5.6,9.8c-1.3,3.7-2,7.7-2,12c0,4.3,0.7,8.2,2,11.8c1.3,3.6,3.2,6.8,5.6,9.5
			c2.4,2.7,5.4,4.8,8.9,6.3c3.5,1.5,7.5,2.3,11.8,2.3c3.5,0,6.8-0.5,9.8-1.6c3-1.1,5.8-2.5,8.4-4.4c2.6-1.8,5-3.9,7.2-6.3
			c2.2-2.4,4.4-4.9,6.5-7.4c2.2,2.6,4.4,5.1,6.7,7.5c2.2,2.4,4.7,4.4,7.2,6.2c2.6,1.8,5.4,3.3,8.4,4.4c3,1.1,6.3,1.6,9.9,1.6
			c4.4,0,8.3-0.8,11.8-2.4c3.5-1.6,6.5-3.7,8.9-6.4c2.4-2.7,4.2-5.9,5.5-9.5c1.3-3.7,1.9-7.6,1.9-11.9C125,60.5,124.3,56.5,123,52.7
			z M50.3,68.9c-1.6,1.7-3.4,3.3-5.2,4.7c-1.8,1.4-3.7,2.6-5.8,3.5c-2,0.9-4.1,1.4-6.3,1.4c-4.1,0-7.3-1.4-9.6-4.1
			c-2.4-2.7-3.5-6-3.5-9.9c0-3.8,1.1-7.1,3.3-9.7c2.2-2.6,5.3-3.9,9.4-3.9c2.3,0,4.5,0.4,6.5,1.2c2,0.8,4,1.8,5.8,3
			c1.9,1.3,3.6,2.7,5.3,4.3c1.6,1.6,3.2,3.2,4.6,4.9C53.5,65.7,52,67.2,50.3,68.9z M106,74.2c-2.2,2.9-5.3,4.4-9.1,4.4
			c-2.1,0-4.2-0.5-6.2-1.4c-2.1-0.9-4.1-2.1-6-3.5c-1.9-1.4-3.8-3-5.5-4.7c-1.8-1.7-3.3-3.3-4.6-4.7c1.3-1.5,2.8-3.1,4.4-4.7
			c1.6-1.6,3.4-3,5.3-4.3c1.9-1.3,3.8-2.3,5.9-3.1c2.1-0.8,4.2-1.2,6.2-1.2c4.1,0,7.2,1.3,9.5,3.8c2.3,2.5,3.5,5.8,3.5,9.7
			C109.4,68,108.3,71.3,106,74.2z"/>
	</g>
</g>
</svg>
