<?xml version="1.0" encoding="utf-8"?>
<!-- Generator: Adobe Illustrator 18.0.0, SVG Export Plug-In . SVG Version: 6.00 Build 0)  -->
<!DOCTYPE svg PUBLIC "-//W3C//DTD SVG 1.1//EN" "http://www.w3.org/Graphics/SVG/1.1/DTD/svg11.dtd">
<svg version="1.1" id="Popular_1_" xmlns="http://www.w3.org/2000/svg" xmlns:xlink="http://www.w3.org/1999/xlink" x="0px" y="0px"
	 viewBox="0 0 128 128" enable-background="new 0 0 128 128" xml:space="preserve">
<g id="Blogger">
	<g>
		<path fill-rule="evenodd" clip-rule="evenodd" fill="#5C5C5C" d="M125.8,53.5l-1-2.2L123,50c-2.3-1.8-13.8,0.1-17-2.7
			c-2.2-2-2.6-5.7-3.2-10.6c-1.2-9.6-2-10.1-3.5-13.3C93.8,11.9,79.1,3.2,68.9,2H41.4C19.8,2,2.2,19.6,2.2,41.2v45.7
			c0,21.5,17.7,39.1,39.3,39.1h45.2c21.6,0,39.2-17.6,39.3-39.1l0.2-31.7L125.8,53.5z M41.9,34h21.8c4.2,0,7.5,3.4,7.5,7.5
			c0,4.1-3.4,7.5-7.5,7.5H41.9c-4.2,0-7.5-3.4-7.5-7.5C34.4,37.4,37.8,34,41.9,34z M86.2,93.8H41.9c-4.2,0-7.5-3.4-7.5-7.5
			c0-4.1,3.4-7.4,7.5-7.4h44.3c4.1,0,7.5,3.3,7.5,7.4C93.7,90.4,90.4,93.8,86.2,93.8z"/>
	</g>
</g>
</svg>
