<?xml version="1.0" encoding="utf-8"?>
<!-- Generator: Adobe Illustrator 18.0.0, SVG Export Plug-In . SVG Version: 6.00 Build 0)  -->
<!DOCTYPE svg PUBLIC "-//W3C//DTD SVG 1.1//EN" "http://www.w3.org/Graphics/SVG/1.1/DTD/svg11.dtd">
<svg version="1.1" id="Popular_1_" xmlns="http://www.w3.org/2000/svg" xmlns:xlink="http://www.w3.org/1999/xlink" x="0px" y="0px"
	 viewBox="0 0 128 128" enable-background="new 0 0 128 128" xml:space="preserve">
<g id="_x35_00px_Full">
	<g>
		<path fill="#5C5C5C" d="M124.7,59.6c-0.9-2.5-2.2-4.7-3.9-6.6c-1.7-1.9-3.8-3.4-6.2-4.4c-2.5-1.1-5.2-1.6-8.3-1.6
			c-2.5,0-4.7,0.4-6.8,1.1c-2.1,0.8-4.1,1.8-5.9,3c-1.8,1.3-3.5,2.7-5.1,4.4C87,57.2,85.5,59,84,60.7c-1.5-1.8-3.1-3.6-4.7-5.2
			c-1.6-1.6-3.3-3.1-5.1-4.4c-1.8-1.3-3.8-2.3-5.9-3c-2.1-0.8-4.4-1.1-7-1.1c-3.1,0-5.8,0.6-8.3,1.7c-2.5,1.1-4.5,2.6-6.2,4.5
			c-1.6,1.8-2.9,4-3.8,6.5c-0.7-1.7-1.7-3.2-2.8-4.5c-1.5-1.8-3.4-3.2-5.6-4.2c-2.2-1-4.7-1.6-7.6-1.6c-2.3,0-4.4,0.3-6.2,1
			c-1.8,0.7-3.5,1.8-5.1,3.4l-0.2-0.2L18,40h24v-9H10L4,63h10c1.2-1.6,2.8-3,4.1-3.8c1.3-0.7,3-1.1,5.1-1.1c1.6,0,3,0.3,4.2,0.8
			c1.2,0.6,2.3,1.3,3.1,2.3c0.9,1,1.5,2.2,2,3.5c0.4,1.3,0.7,2.7,0.7,4.2c0,1.4-0.2,2.8-0.7,4.2c-0.5,1.4-1.1,2.5-2,3.6
			c-0.9,1-1.9,1.8-3.1,2.5c-1.2,0.6-2.6,1-4.2,1c-2.6,0-4.8-0.8-6.5-2.4C15,76.2,14.3,74.6,14,72H2c0.1,3,0.7,5.2,1.9,7.4
			c1.2,2.3,2.8,4.2,4.8,5.8c2,1.5,4.3,2.7,6.8,3.4c2.6,0.7,5.3,1.1,8.1,1.1c2.9,0.1,5.7-0.4,8.3-1.4c2.6-1,4.9-2.5,6.8-4.3
			c2-1.9,3.5-4.1,4.7-6.7c0-0.1,0.1-0.1,0.1-0.2c0.9,2.4,2.2,4.4,3.8,6.1c1.8,1.9,3.9,3.4,6.3,4.5c2.5,1.1,5.3,1.7,8.4,1.7
			c2.5,0,4.8-0.4,6.8-1.1c2-0.7,3.9-1.7,5.6-2.9c1.7-1.2,3.4-2.6,4.9-4.1c1.5-1.6,3.1-3.2,4.7-4.9c1.5,1.7,3,3.3,4.6,4.9
			c1.6,1.6,3.3,3,5.1,4.1c1.8,1.2,3.7,2.1,5.8,2.9c2.1,0.7,4.3,1.1,6.7,1.1c3.1,0,5.8-0.6,8.3-1.7c2.5-1.1,4.6-2.6,6.3-4.6
			c1.7-2,3-4.2,3.9-6.8c0.9-2.6,1.4-5.4,1.4-8.4C126.1,64.9,125.6,62.1,124.7,59.6z M74,71.7c-1.2,1.1-2.4,2.1-3.7,3
			c-1.3,0.9-2.7,1.6-4.1,2.2c-1.5,0.6-2.9,0.9-4.4,0.9c-2.8,0-5.1-0.9-6.7-2.6c-1.6-1.8-2.4-4-2.4-6.8c0-2.5,0.8-4.8,2.4-6.8
			c1.6-2,3.7-3,6.4-3c1.5,0,2.9,0.3,4.4,1c1.5,0.7,2.9,1.5,4.2,2.5c1.3,1,2.6,2.1,3.9,3.3c1.2,1.2,2.3,2.3,3.2,3.3
			C76.2,69.5,75.1,70.6,74,71.7z M113,75c-1.5,1.8-3.7,2.8-6.6,2.8c-1.6,0-3.1-0.3-4.5-0.8c-1.4-0.5-2.8-1.2-4.1-2.1
			c-1.3-0.9-2.5-1.9-3.7-3c-1.2-1.1-2.2-2.2-3.2-3.4c0.9-1,2-2.1,3.1-3.3c1.2-1.2,2.4-2.3,3.6-3.3c1.3-1,2.6-1.8,4-2.5
			c1.4-0.7,2.9-1,4.4-1c2.8,0,5.1,1,6.7,2.9c1.6,1.9,2.5,4.2,2.5,6.9C115.3,70.9,114.5,73.1,113,75z"/>
	</g>
</g>
</svg>
