<?xml version="1.0" encoding="utf-8"?>
<!-- Generator: Adobe Illustrator 18.0.0, SVG Export Plug-In . SVG Version: 6.00 Build 0)  -->
<!DOCTYPE svg PUBLIC "-//W3C//DTD SVG 1.1//EN" "http://www.w3.org/Graphics/SVG/1.1/DTD/svg11.dtd">
<svg version="1.1" id="cn_1_" xmlns="http://www.w3.org/2000/svg" xmlns:xlink="http://www.w3.org/1999/xlink" x="0px" y="0px"
	 viewBox="0 0 128 128" enable-background="new 0 0 128 128" xml:space="preserve">
<g id="hujiang">
	<g>
		<path fill="#5C5C5C" d="M119.3,93.3c2.5-1.1,4.7-2.8,5.1-5.6c0.4-3.1,0.7-6.3,0-9.3c-2.4-10.3-5-20.6-8.1-30.7
			c-1.9-6.3-4.2-12.7-7.7-18.3c-4.7-7.5-12.9-10.2-21.1-12.1c-12.5-2.8-25.4-2.7-38.1-3.1c-8.5-0.3-17.1,0.5-25.7,1.2
			c-4.1,0.3-8.3,1.2-12.2,2.6c-5.6,2-9.4,8.3-8.2,13.5c2.1,8.9,4.3,17.8,7.2,26.5C14.2,69,18.4,79.7,23,90.2
			c3.1,6.9,6.2,14,13.1,18.5c4.9,3.2,10,4.3,15.4,3.1c14.9-3.3,29.6-6.9,44.5-10.3c1.2-0.3,2.8-0.1,4,0.4c7,2.8,14,5.7,21.1,8.5
			c0.7,0.3,1.5,0.3,2.9,0.6c-2.3-4.8-4.2-9-6.3-12.9C116.4,95.6,117,94.3,119.3,93.3z M112.4,93.8c1.9,3.6,3.6,7.3,5.7,11.6
			c-1.3-0.2-2-0.3-2.6-0.5c-6.3-2.5-12.6-5.2-19-7.7c-1.1-0.4-2.5-0.6-3.6-0.3c-13.4,3.1-26.7,6.4-40.1,9.3
			c-4.9,1.1-9.4,0.1-13.9-2.8C32.6,99.3,29.8,93,27,86.7c-4.2-9.5-8-19.2-11.3-29C13,50,11,41.9,9.2,33.9
			c-1.1-4.8,2.3-10.4,7.4-12.2c3.5-1.3,7.3-2,11-2.3c7.7-0.6,15.5-1.3,23.2-1.1c11.5,0.4,23.1,0.3,34.4,2.8
			c7.4,1.6,14.8,4.1,19,10.9c3.1,5,5.2,10.8,6.9,16.5c2.8,9.1,5.1,18.4,7.3,27.7c0.6,2.6,0.3,5.6,0,8.4c-0.3,2.6-2.3,4-4.6,5
			C111.8,90.5,111.2,91.6,112.4,93.8z M97,51c-7.6,0.5-15.3,0.8-22.9,1.3c-1.8,0.1-2.6-0.4-2.4-2.3c0.3-3.7,0.4-7.5,0.8-11.2
			c0.6-5.3,0.6-10.6-0.2-15.9h-2.6c-0.7,4.5-1.4,9-1.9,13.6c-0.3,2.4-1.3,3.6-3.7,3.8c-8.3,0.9-16.7,1.9-25,2.8
			c-3.2,0.4-3.5,0-3-3.2c0.7-4.3,1.3-8.6,2.1-12.9c0.2-1.4,0.2-2.7-0.4-4.1h-1.9c-3,3.1-2.6,7.3-3.2,11c-1.2,7.4-2.1,14.9-3.1,22.4
			c-0.1,0.5,0,1.1-0.7,1.2V64c2,1.1,3.1,0.5,3.5-1.7c0.6-4.4,1.3-8.8,1.9-13.3c0.3-2.1,1.1-3.4,3.6-3.6c7.7-0.6,15.4-1.5,23.1-2.4
			c5.9-0.7,5.9-0.7,5,5.3c-0.3,2-0.1,4.1-3.1,4.2c-1.2,0-2.7,0.5-2.6,2.2c0.1,1.5,0.9,2.6,2.5,2.9c1.6,0.3,2.1,1.1,1.9,2.7
			c-0.1,1.1,0,2.1,0,3.2c0,1.1-0.1,2.2,1.3,2.6c1.4,0.4,2.2-0.5,2.8-1.5c1-1.5,1.4-3.3,1.7-5.1c0.3-1.6,0.9-2.4,2.6-2.6
			c6.5-0.7,13.1-1.6,19.6-2.4c2.1-0.3,3.3,0.3,3.3,2.6c0,1,0.2,1.9,0.3,2.9c0.7,7.3,1.3,14.6-1.1,21.8c-1,3.1-2.3,6-5.6,7.3
			c-5,2-9.8,1.2-14.4-1.3c-1.3-0.7-2.2-1.5-1.2-3.3c0.7-1.1,0-2-1.5-2c-2.5,0-6.7,4.4-6.7,6.9c0,1.5,1,2.1,2.1,2.5
			c2.3,1,4.6,1.9,6.9,2.8h11.5c0.9-1.3,2.3-0.5,3.5-0.8c5.8-1.4,9-4.9,9.7-12.1c0.7-8.2,0.8-16.6-1.9-24.6c-0.9-2.8-0.4-3.6,2.4-3.8
			c1.2-0.1,2.4-0.7,3.6-1.1v-1.3C101.4,50.3,99.2,50.9,97,51z"/>
	</g>
</g>
</svg>
