<?xml version="1.0" encoding="utf-8"?>
<!-- Generator: Adobe Illustrator 18.0.0, SVG Export Plug-In . SVG Version: 6.00 Build 0)  -->
<!DOCTYPE svg PUBLIC "-//W3C//DTD SVG 1.1//EN" "http://www.w3.org/Graphics/SVG/1.1/DTD/svg11.dtd">
<svg version="1.1" id="Popular_1_" xmlns="http://www.w3.org/2000/svg" xmlns:xlink="http://www.w3.org/1999/xlink" x="0px" y="0px"
	 viewBox="0 0 128 128" enable-background="new 0 0 128 128" xml:space="preserve">
<g id="G_x2B_">
	<g>
		<path fill="#5C5C5C" d="M81.1,2c0,0-27.1,0-36.7,0C25.7,2,10.2,15.5,10.2,30.6c0,15.4,10.2,27.7,27.7,27.7c1.2,0,2.4-0.1,3.6-0.2
			c-1.1,2.2-1.9,4.6-1.9,7.1c0,4.3,2.4,6.7,5.3,9.5c-2.2,0-4.3,0.1-6.7,0.1C16.8,74.8,2,81.6,2,102.5C2,116.3,19.9,126,41.2,126
			c24.3,0,39.5-12.9,39.3-27.6c-0.2-11.1-2.4-16.7-14.3-25.5c-3.4-2.5-10.8-7.8-10.8-11.3c0-4.1,1.2-6.1,7.4-11
			c6.4-4.9,10.8-11.5,10.8-19.6c0-8.8-3.6-16.8-10.4-20.7h9.6L81.1,2z M66.7,96.3c0.4,1.1,0.4,2.3,0.4,3.4c0,9.8-6.8,17.2-26.3,17.2
			c-13.9,0-23.9-8-23.9-17.7c0-9.6,11.2-14.7,24.8-14.7C46.8,84.6,62,84.6,66.7,96.3z M45,52.1c-9.4-0.3-18.3-8.5-20-20.7
			c-1.6-12.2,6.6-20.8,16-20.5c9.4,0.3,15.5,9.5,17.1,21.7C59.8,44.8,54.4,52.4,45,52.1z M108.3,19.7V2h-5.9v17.7H84.8v5.8h17.7
			v17.8h5.9V25.6H126v-5.8H108.3z"/>
	</g>
</g>
</svg>
