<?xml version="1.0" encoding="utf-8"?>
<!-- Generator: Adobe Illustrator 18.0.0, SVG Export Plug-In . SVG Version: 6.00 Build 0)  -->
<!DOCTYPE svg PUBLIC "-//W3C//DTD SVG 1.1//EN" "http://www.w3.org/Graphics/SVG/1.1/DTD/svg11.dtd">
<svg version="1.1" id="Design_1_" xmlns="http://www.w3.org/2000/svg" xmlns:xlink="http://www.w3.org/1999/xlink" x="0px" y="0px"
	 viewBox="0 0 128 128" enable-background="new 0 0 128 128" xml:space="preserve">
<g id="Loveui.cn">
	<g>
		<path fill-rule="evenodd" clip-rule="evenodd" fill="#5C5C5C" d="M121,43.8l-9.8,1.3c-2-0.8-4.6-1.1-7.2-1.1
			c-3.4,0-6.8,0.4-9.3,0.8c-14.8,2.1-42.6,19.4-40.2,19.4c0,0,0,0,0,0c0.1,0,0.2,0,0.3,0c0.3,0,0.6,0,0.9,0.1c0.3,0,0.7,0.1,1.1,0.1
			c0.9,0,2.2-0.2,4-1C69,59,87,55.9,93.7,55.9c1,0,1.7,0.1,2.1,0.2c1.8,0.2,3.2,0.6,3.9,1.1c2.4,8.1-6.3,15.1-16.2,21.8
			c-5.9,3.7-12.6,6.1-23.3,6.1c-9.2,0-21.4-1.8-38.6-6.2c0-15,16.8-26.9,19.9-29.2c14.1-10.4,40.8-11.2,49-11.2c1.5,0,2.4,0,2.4,0
			c-9.1-4-17.6-5.6-25.3-5.6c-24.3,0-41.2,15.9-47.8,22.7C14.8,60.8,4,75.5,4,88.1c10.4,2,23.5,2.5,49.2,6.4
			c2.2,0.3,4.4,0.5,6.6,0.5c26.8,0,49.2-23.4,50.7-25.1c1.2-1.4,0.7-5.7,0.3-8.1c-0.2-1.3,0.4-2.7,1.6-3.4c3.3-1.9,9.8-3.7,10.9-4.8
			C126,50.8,124.4,46.9,121,43.8z"/>
	</g>
</g>
</svg>
