<?xml version="1.0" encoding="utf-8"?>
<!-- Generator: Adobe Illustrator 18.0.0, SVG Export Plug-In . SVG Version: 6.00 Build 0)  -->
<!DOCTYPE svg PUBLIC "-//W3C//DTD SVG 1.1//EN" "http://www.w3.org/Graphics/SVG/1.1/DTD/svg11.dtd">
<svg version="1.1" id="Popular_1_" xmlns="http://www.w3.org/2000/svg" xmlns:xlink="http://www.w3.org/1999/xlink" x="0px" y="0px"
	 viewBox="0 0 128 128" enable-background="new 0 0 128 128" xml:space="preserve">
<g id="FriendFeed">
	<g>
		<path fill-rule="evenodd" clip-rule="evenodd" fill="#5C5C5C" d="M123,30.6l-0.4-11.1c0.2-7-3.7-10.9-13.4-13.5
			C100.3,4.7,88,2,75.4,8.7C68.3,6.2,60.8,4,50.3,4.8C26.7,7,17.7,18.9,16.3,35.9c-5,0.6-9.7,1.9-10,15C6,65.9,11,68.4,16,70l0,43.6
			c0.7,5.2-0.3,10.9,11.4,12.2l17.5,0.4c6.4,0.8,10.9-3.2,13.2-12.5c0.8,7.5,4.1,11.7,10.4,11.8H89c4.6-1.2,10.3-1.1,11-9.4V70
			l5.1,0.3c4.4-0.6,8.7-1.4,11.8-8.6V48.1c-0.9-5.6-2.4-4.9-3.9-6.1C117.1,41.1,121.5,40.7,123,30.6z M111.1,32.7
			c-3.2-2.6-7.6-3.5-12.1-4.1c-12.7-1.8-9.4,9-10,17.3h17v13H89v56H70V59H46v56H27V59l-10,1l1.2-14.4l9.9,0.5l-0.3-3.8
			c0.4-9.1-0.4-24.7,19.1-27.2c5.5,0.4,6.5-1.8,20.9,2.8l0.3,13.2c-4.2-1.5-7.9-3.2-10.9-2.8C48,28,47.6,32.1,47,37v10h23
			c0.6-12.4-2.6-28.1,17.9-30.8c9-1.2,17.2-0.1,23.5,2.6L111.1,32.7z"/>
	</g>
</g>
</svg>
