<?xml version="1.0" encoding="utf-8"?>
<!-- Generator: Adobe Illustrator 18.0.0, SVG Export Plug-In . SVG Version: 6.00 Build 0)  -->
<!DOCTYPE svg PUBLIC "-//W3C//DTD SVG 1.1//EN" "http://www.w3.org/Graphics/SVG/1.1/DTD/svg11.dtd">
<svg version="1.1" id="Popular_1_" xmlns="http://www.w3.org/2000/svg" xmlns:xlink="http://www.w3.org/1999/xlink" x="0px" y="0px"
	 viewBox="0 0 128 128" enable-background="new 0 0 128 128" xml:space="preserve">
<g id="vimeo">
	<g>
		<path fill-rule="evenodd" clip-rule="evenodd" fill="#5C5C5C" d="M73,42.8c14.1-8.4,21.7,3.4,14.4,16.8
			C80.2,73,73.6,81.7,70.1,81.7c-3.4,0-6.1-9-10-24.6C56,40.9,56,11.7,39.1,15C23,18.1,2,43.1,2,43.1l5,6.5c0,0,10.4-8.1,13.8-4.1
			c3.5,4.1,16.6,53,21,62c3.8,7.9,14.4,18.4,26.1,10.9c11.6-7.5,50.2-40.2,57.2-78.9C132,1,78.6,9.1,73,42.8z"/>
	</g>
</g>
</svg>
