<?xml version="1.0" encoding="utf-8"?>
<!-- Generator: Adobe Illustrator 18.0.0, SVG Export Plug-In . SVG Version: 6.00 Build 0)  -->
<!DOCTYPE svg PUBLIC "-//W3C//DTD SVG 1.1//EN" "http://www.w3.org/Graphics/SVG/1.1/DTD/svg11.dtd">
<svg version="1.1" id="Popular_1_" xmlns="http://www.w3.org/2000/svg" xmlns:xlink="http://www.w3.org/1999/xlink" x="0px" y="0px"
	 viewBox="0 0 128 128" enable-background="new 0 0 128 128" xml:space="preserve">
<g id="Wikipedia">
	<g>
		<path fill-rule="evenodd" clip-rule="evenodd" fill="#5C5C5C" d="M124.8,21.2c-5.7-0.1-13.6-0.6-19.5,0c-1.5,5.8,4.5,4.2,6.5,6.5
			c-6.2,20.9-14.5,39.7-22.5,58.9c-3.9-10.7-8.8-20.5-13-30.9c5.1-9.4,8.3-20.6,15.5-27.9c2.3-2.5,9.4-0.2,8.5-6
			c-2.7-1.2-7.5-0.2-11-0.5c-3.7-0.1-12.5-2.1-14.5,1v1.5c1.2,2.8,6.7,1.3,7.5,4.5c-2.6,7.4-5.9,14.1-9.5,20.5
			c-2.4-7.6-6.3-13.7-8-21.9c1.1-2.2,6.3-0.3,7-3v-2.5c-7.8-0.9-17.8,0.5-27,0c-2.5-0.3-9.1-2.2-8,2.5c1,2.3,4.8,1.8,7,3
			c7.8,12.1,12.5,27.5,18.5,41.4c-3.6,7-6.3,15-11,21c-8-20.7-17.6-39.7-25-60.9c1.1-3.1,6.5-1.8,5.5-7c-9.1-0.5-20,0.3-30-0.5v3.5
			c0.4,2,3.5,1.2,4,3c12.8,26.3,24.2,54,35.4,81.8h7c5.7-11.2,11.1-22.9,17.5-33.4c5.3,10.7,10,21.9,14.5,33.4h7
			c9.7-27.9,21.8-53.4,32-80.8C121.4,26.3,127,25.7,124.8,21.2z"/>
	</g>
</g>
</svg>
