<?xml version="1.0" encoding="utf-8"?>
<!-- Generator: Adobe Illustrator 18.0.0, SVG Export Plug-In . SVG Version: 6.00 Build 0)  -->
<!DOCTYPE svg PUBLIC "-//W3C//DTD SVG 1.1//EN" "http://www.w3.org/Graphics/SVG/1.1/DTD/svg11.dtd">
<svg version="1.1" id="Popular_1_" xmlns="http://www.w3.org/2000/svg" xmlns:xlink="http://www.w3.org/1999/xlink" x="0px" y="0px"
	 viewBox="0 0 128 128" enable-background="new 0 0 128 128" xml:space="preserve">
<g id="Soundcloud">
	<g>
		<path fill-rule="evenodd" clip-rule="evenodd" fill="#5C5C5C" d="M17.5,55.1c-0.8,0-1.4,0.4-1.5,1l-1.5,21L16.1,91
			c0,0.5,0.7,1,1.5,1c0.8,0,1.4-0.4,1.5-1l1.7-13.9l-1.7-21C18.9,55.6,18.3,55.1,17.5,55.1z M5.9,68.3c-0.6,0-1.1,0.2-1.2,0.5
			L3,77.5l1.8,8.4c0,0.3,0.6,0.5,1.2,0.5c0.6,0,1.1-0.2,1.2-0.5l2-8.4l-2-8.7C7.1,68.5,6.6,68.3,5.9,68.3z M29.4,47.8
			c-0.9,0-1.7,0.5-1.7,1.2l-1.3,28.1l1.3,13.7c0,0.7,0.8,1.2,1.7,1.2c0.9,0,1.7-0.5,1.7-1.2l1.4-13.7l-1.4-28.1
			C31.1,48.3,30.3,47.8,29.4,47.8z M52.7,43.4c-1.2,0-2.2,0.7-2.2,1.6l-0.8,32.2c0,0,0.8,13.2,0.8,13.2c0,0.9,1,1.6,2.2,1.6
			c1.2,0,2.2-0.7,2.2-1.6l0.9-13.2L54.9,45C54.9,44.1,53.9,43.4,52.7,43.4z M108.2,61c-2.2,0-4.2,0.5-6.1,1.3
			C100.8,48.4,87.8,36,73.2,36c-3.6,0-7.1,0.7-10.1,1.8C61.9,38.3,61,39.1,61,40v50c0,0.9,1.1,1.9,2,2h44c9,0,19-6,19-15.6
			C126,65.4,116.9,61,108.2,61z M41.1,47.8c-1.1,0-1.9,0.6-2,1.4l-1,28.1l1,13.4c0,0.8,0.9,1.4,2,1.4c1.1,0,1.9-0.6,2-1.4l1.2-13.4
			l-1.2-28.1C43.1,48.4,42.2,47.8,41.1,47.8z"/>
	</g>
</g>
</svg>
