<?xml version="1.0" encoding="utf-8"?>
<!-- Generator: Adobe Illustrator 18.0.0, SVG Export Plug-In . SVG Version: 6.00 Build 0)  -->
<!DOCTYPE svg PUBLIC "-//W3C//DTD SVG 1.1//EN" "http://www.w3.org/Graphics/SVG/1.1/DTD/svg11.dtd">
<svg version="1.1" id="Design_1_" xmlns="http://www.w3.org/2000/svg" xmlns:xlink="http://www.w3.org/1999/xlink" x="0px" y="0px"
	 viewBox="0 0 128 128" enable-background="new 0 0 128 128" xml:space="preserve">
<g id="Dribbble">
	<g>
		<path fill-rule="evenodd" clip-rule="evenodd" fill="#5C5C5C" d="M64.3,2C29.9,2,2,29.2,2,63.2c0,34,27.9,62.8,62.3,62.8
			c34.3,0,61.7-28.7,61.7-62.8C126,29.2,98.6,2,64.3,2z M105.9,29.4c7.4,9,11.9,20.9,12,33.4c-1.8-0.4-19.9-3.9-37.5-1.7
			c-0.4-0.9-0.8-1.8-1.1-2.7c-1.1-2.6-2.3-5.1-3.5-7.6C95.4,42.8,104.8,30.9,105.9,29.4z M64.3,10.1c13.5,0,26.4,5,35.8,13.3
			c-1,1.4-9.5,12.5-28.4,19.6C62.9,27,53.3,14,51.8,12C55.8,11.1,60,10.1,64.3,10.1z M41.1,15.1c1.4,1.9,11.4,15.5,20.2,31
			c-24.9,6.6-46.8,6.5-49.2,6.4C15.7,36.1,26.3,22,41.1,15.1z M11.1,63.3c0-0.5,0-1.1,0-1.6c2.3,0,28.1,0.4,54.7-7.5
			c1.5,3,3,6,4.3,9c-0.7,0.2-1.4,0.4-2.1,0.6c-27.4,8.8-42,32.8-43.2,34.8C16.3,89.2,11.1,76.9,11.1,63.3z M64.3,117.6
			c-12.3,0-23.6-5.7-32.6-12.7c1-1.9,11.7-22.6,41.7-32.9c0.1,0,0.2-0.1,0.4-0.1c7.5,19.2,10.6,35.4,11.3,40
			C78.6,114.6,71.6,117.6,64.3,117.6z M94,107c-0.5-3.2-3.4-18.6-10.3-37.6c16.7-2.6,31.3,1.7,33.1,2.3C114.4,86.4,105.9,99,94,107z
			"/>
	</g>
</g>
</svg>
