<?xml version="1.0" encoding="utf-8"?>
<!-- Generator: Adobe Illustrator 18.0.0, SVG Export Plug-In . SVG Version: 6.00 Build 0)  -->
<!DOCTYPE svg PUBLIC "-//W3C//DTD SVG 1.1//EN" "http://www.w3.org/Graphics/SVG/1.1/DTD/svg11.dtd">
<svg version="1.1" id="OS_1_" xmlns="http://www.w3.org/2000/svg" xmlns:xlink="http://www.w3.org/1999/xlink" x="0px" y="0px"
	 viewBox="0 0 128 128" enable-background="new 0 0 128 128" xml:space="preserve">
<g id="Android">
	<g>
		<path fill="#5C5C5C" d="M80.5,0.7L80.5,0.7L80.5,0.7C80.5,0.8,80.5,0.7,80.5,0.7z M109.3,41.5c-4.2,0-7.3,3.2-7.3,7.5v30
			c0,4.2,3.1,7.7,7.3,7.7c4.2,0,7.7-3.5,7.7-7.7V49C117,44.8,113.5,41.5,109.3,41.5z M18.5,41.5c-4.2,0-7.5,3.4-7.5,7.6v29.9
			c0,4.2,3.4,7.6,7.5,7.6c4.2,0,7.5-3.4,7.5-7.6V49.2C26.1,45,22.7,41.5,18.5,41.5z M31,96c0,3.2,2.2,6.2,5.4,6.2L44,102v17
			c0,4.2,2.5,7.5,6.7,7.5c4.2,0,7.3-3.3,7.3-7.5v-17h12v17c0,4.2,3.3,7.5,7.4,7.5c4.2,0,7.5-3.4,7.5-7.6l0-16.8h7c3.2,0,5-1.8,5-5
			V42H31V96z M79.8,13.5l6.2-9C86.3,4,86.2,3.3,85.8,3c-0.5-0.3-1.2-0.2-1.5,0.4l-6.4,9.3c-4.2-1.7-8.9-2.6-13.9-2.6
			c-5,0-9.7,0.9-13.9,2.6l-6.4-9.3c-0.4-0.5-1.1-0.7-1.5-0.4c-0.5,0.3-0.6,1-0.2,1.6l6.2,9C38.2,18.1,31.9,26.9,31,37h66
			C96.1,26.9,89.6,18.1,79.8,13.5z M49.8,27.7c-2,0-3.7-1.7-3.7-3.7c0-2,1.7-3.7,3.7-3.7c2,0,3.7,1.7,3.7,3.7
			C53.5,26,51.8,27.7,49.8,27.7z M78.5,27.7c-2,0-3.7-1.7-3.7-3.7c0-2,1.7-3.7,3.7-3.7c2,0,3.7,1.7,3.7,3.7
			C82.2,26,80.5,27.7,78.5,27.7z"/>
	</g>
</g>
</svg>
