<?xml version="1.0" encoding="utf-8"?>
<!-- Generator: Adobe Illustrator 18.0.0, SVG Export Plug-In . SVG Version: 6.00 Build 0)  -->
<!DOCTYPE svg PUBLIC "-//W3C//DTD SVG 1.1//EN" "http://www.w3.org/Graphics/SVG/1.1/DTD/svg11.dtd">
<svg version="1.1" id="Popular_1_" xmlns="http://www.w3.org/2000/svg" xmlns:xlink="http://www.w3.org/1999/xlink" x="0px" y="0px"
	 viewBox="0 0 128 128" enable-background="new 0 0 128 128" xml:space="preserve">
<g id="Stumble">
	<g>
		<path fill-rule="evenodd" clip-rule="evenodd" fill="#5C5C5C" d="M71,52l8,4.1L92,52v-8c-0.4-14.8-13-27-28-27
			c-15,0-27.1,11.8-27.7,26.5v39.7c0,3.6-2.9,6.5-6.6,6.5c-3.6,0-6.6-2.9-6.6-6.5L23,66H2c0,0,0,17.3,0,17.5
			C2,98.7,14.4,111,29.7,111c15.2,0,27.5-12.1,27.7-27.1l0-39.3c0-3.6,2.9-6.5,6.6-6.5c3.6,0,6.6,2.9,6.6,6.5L71,52z M105,66
			l-0.2,18c0,3.6-2.9,6.5-6.6,6.5c-3.6,0-6.6-2.9-6.6-6.5V66.8L79,70.5l-8.5-3.9v17.2C70.7,98.8,83.1,111,98.3,111
			c15.3,0,27.7-12.3,27.7-27.5c0-0.2,0-17.5,0-17.5H105z"/>
	</g>
</g>
</svg>
