<?xml version="1.0" encoding="utf-8"?>
<!-- Generator: Adobe Illustrator 18.0.0, SVG Export Plug-In . SVG Version: 6.00 Build 0)  -->
<!DOCTYPE svg PUBLIC "-//W3C//DTD SVG 1.1//EN" "http://www.w3.org/Graphics/SVG/1.1/DTD/svg11.dtd">
<svg version="1.1" id="cn_1_" xmlns="http://www.w3.org/2000/svg" xmlns:xlink="http://www.w3.org/1999/xlink" x="0px" y="0px"
	 viewBox="0 0 128 128" enable-background="new 0 0 128 128" xml:space="preserve">
<g id="moko.cc">
	<g>
		<path fill="#5C5C5C" d="M116.9,43.9C110.6,16.7,82.2-2,53.9,2.4C27.4,6.5,7.7,28,5.8,54.8c-1.8,25.9,14.9,49.8,39.9,58
			c4.1,1.4,7.7,4.6,11.3,7.3c1.9,1.4,3.3,3.6,5.2,5.8c2.2-2.4,3.8-4.6,5.9-6.2c3.6-2.7,7.2-5.9,11.4-7.3
			C108.1,103.2,124,74.3,116.9,43.9z M107.8,61.9C107,86.3,85.3,106,60.3,105.2C36,104.3,16,82.9,16.7,58.6
			c0.7-25.5,21.5-45.6,46.4-44.9C89.3,14.4,108.6,35.3,107.8,61.9z M62.3,25c-18.4-0.3-34,15.3-34.1,33.9
			C28.2,78.2,43.1,93.6,62,93.7c19.1,0.1,34.3-15,34.4-34.1C96.5,40.4,81.6,25.3,62.3,25z M62.3,82.3c-12.4,0.1-22.7-10.1-22.9-22.4
			C39.3,47.1,49.4,36.6,62,36.3C74.3,36,84.9,46.5,85,59.2C85.1,72.1,75.2,82.2,62.3,82.3z M62.2,47.6c-5.8,0.1-11.1,5.5-11.2,11.5
			c-0.1,6.7,4.8,11.7,11.4,11.6c6.4,0,11.2-4.9,11.2-11.2C73.7,53.2,68.2,47.6,62.2,47.6z"/>
	</g>
</g>
</svg>
