<?xml version="1.0" encoding="utf-8"?>
<!-- Generator: Adobe Illustrator 18.0.0, SVG Export Plug-In . SVG Version: 6.00 Build 0)  -->
<!DOCTYPE svg PUBLIC "-//W3C//DTD SVG 1.1//EN" "http://www.w3.org/Graphics/SVG/1.1/DTD/svg11.dtd">
<svg version="1.1" id="Design_1_" xmlns="http://www.w3.org/2000/svg" xmlns:xlink="http://www.w3.org/1999/xlink" x="0px" y="0px"
	 viewBox="0 0 128 128" enable-background="new 0 0 128 128" xml:space="preserve">
<g id="dropr">
	<g>
		<path fill="#5C5C5C" d="M63.5,60.8c-12,0-21.8,9.7-21.8,21.7c0,12,9.8,21.7,21.8,21.7c12,0,21.8-9.7,21.8-21.7
			C85.3,70.5,75.5,60.8,63.5,60.8z M63.5,90.2c-4.3,0-7.8-3.5-7.8-7.7c0-4.3,3.5-7.7,7.8-7.7c4.3,0,7.8,3.5,7.8,7.7
			C71.3,86.8,67.8,90.2,63.5,90.2z M107,82.5c0-8.7-2.6-16.8-7.1-23.6L69.6,6.5C68.3,4.3,66,3,63.5,3c-2.5,0-4.8,1.3-6.1,3.5
			L27.1,58.8c-4.5,6.8-7.1,15-7.1,23.7c0,0,0,0.1,0,0.1c0,0,0,0.1,0,0.1c0,23.9,19.5,43.3,43.5,43.3h0c24,0,43.5-19.4,43.5-43.3
			C107,82.6,107,82.6,107,82.5C107,82.6,107,82.5,107,82.5z M63.5,24l9.4,16.3c-3-0.7-6.2-1-9.4-1c-3.2,0-6.4,0.4-9.4,1L63.5,24z
			 M63.5,111.8c-16.2,0-29.4-13.1-29.5-29.3c0-0.1,0-0.2,0-0.3c0-0.7,0.1-1.4,0.1-2.2c0-0.3,0.1-0.7,0.1-1c0.1-0.6,0.2-1.2,0.3-1.9
			c0.1-0.5,0.2-1.1,0.4-1.6c0,0,0,0,0-0.1c0.6-2.3,1.4-4.5,2.5-6.6c0-0.1,0.1-0.1,0.1-0.2l1.6-2.7c5.3-7.8,14.3-12.9,24.4-12.9
			c10.1,0,19.1,5.1,24.4,12.9l1.5,2.6c0,0.1,0.1,0.2,0.2,0.3c1.1,2.1,2,4.3,2.6,6.6c0,0,0,0,0,0c0.1,0.5,0.3,1.1,0.4,1.7
			c0.1,0.6,0.2,1.2,0.3,1.9c0,0.3,0.1,0.7,0.1,1c0.1,0.7,0.1,1.4,0.1,2.2c0,0.1,0,0.2,0,0.3C92.9,98.7,79.7,111.8,63.5,111.8z"/>
	</g>
</g>
</svg>
