<?xml version="1.0" encoding="utf-8"?>
<!-- Generator: Adobe Illustrator 18.0.0, SVG Export Plug-In . SVG Version: 6.00 Build 0)  -->
<!DOCTYPE svg PUBLIC "-//W3C//DTD SVG 1.1//EN" "http://www.w3.org/Graphics/SVG/1.1/DTD/svg11.dtd">
<svg version="1.1" id="cn_1_" xmlns="http://www.w3.org/2000/svg" xmlns:xlink="http://www.w3.org/1999/xlink" x="0px" y="0px"
	 viewBox="0 0 128 128" enable-background="new 0 0 128 128" xml:space="preserve">
<g id="tencent_wechat_moments">
	<g>
		<path fill="#5C5C5C" d="M63.9,87.8c-1.4,0-2.7-0.1-4.1-0.3l30.5,30.4c12.9-6.3,23.2-16.1,28.9-30.4H66.9
			C65.9,87.5,64.9,87.8,63.9,87.8z M63.9,40.6c1.2,0,2.4-0.1,3.6,0.1l-30.3-30C24.4,17,14.2,26.9,8.6,41.2H61
			C61.9,41.2,62.9,40.6,63.9,40.6z M30.9,63.9l13.6-13.7c1.5-2.1,3.3-3.9,5.4-5.4l0.1-0.1H7c-2.1,7.1-3.2,12.6-3.2,19.3
			c0,8,1.6,15.7,4.5,22.6l16.1-16.1L30.9,63.9z M40.5,60.8l-0.1-0.2L15.9,85.1l-5.6,5.8c6.4,12.7,16.2,22.9,30.4,28.5V67
			c0-1-0.5-1.9-0.5-2.9C40.4,63,40.3,61.9,40.5,60.8z M55.1,88.9L55.1,88.9l-7-7c-1.3-1.1-2.5-2.4-3.6-3.8L44.4,78v43
			c7.1,2.1,12.7,3.2,19.4,3.2c7.9,0,15.5-1.6,22.4-4.3L55.1,88.9L55.1,88.9z M119.5,41.2L84.9,75.8c-1.7,3.1-4.1,4.6-7,8.2h43.1
			c2.1-7.1,3.2-12.8,3.2-19.6C124.1,56.1,122.5,48.3,119.5,41.2z M87.6,66.6l29.8-29.9c-6.4-12.5-15.8-22.5-30.1-28v52.3
			c0,1,0.4,2,0.4,3C87.6,64.9,87.7,65.8,87.6,66.6z M83.7,50.2v-43c-7.1-2.1-12.8-3.2-19.5-3.2c-8,0-15.6,1.6-22.5,4.4L78,44.7
			C80.1,46.2,80.1,48.1,83.7,50.2z"/>
	</g>
</g>
</svg>
