<?xml version="1.0" encoding="utf-8"?>
<!-- Generator: Adobe Illustrator 18.0.0, SVG Export Plug-In . SVG Version: 6.00 Build 0)  -->
<!DOCTYPE svg PUBLIC "-//W3C//DTD SVG 1.1//EN" "http://www.w3.org/Graphics/SVG/1.1/DTD/svg11.dtd">
<svg version="1.1" id="cn_1_" xmlns="http://www.w3.org/2000/svg" xmlns:xlink="http://www.w3.org/1999/xlink" x="0px" y="0px"
	 viewBox="0 0 128 128" enable-background="new 0 0 128 128" xml:space="preserve">
<g id="cnblogs">
	<g>
		<path fill-rule="evenodd" clip-rule="evenodd" fill="#5C5C5C" d="M64.5,3C30.5,3,3,30.5,3,64.5c0,34,27.5,61.5,61.5,61.5
			c34,0,61.5-27.5,61.5-61.5C126,30.5,98.5,3,64.5,3z M30.5,103.4c-7.6,0-13.7-6.2-13.7-13.7c0-7.6,6.2-13.7,13.7-13.7
			c7.6,0,13.7,6.2,13.7,13.7C44.2,97.3,38.1,103.4,30.5,103.4z M81,92.7c-0.1,0.7-0.1,1.4-0.2,2c-0.9,3.6-4.1,6.4-8,6.4
			c-4.6,0-8.3-4.1-8.3-8.7c0-0.7,0.1-1.4,0.3-2c-0.2-15.7-12.5-28.6-28-29.7L36,60.6c0,0-0.1,0-0.1,0c-0.7,0-1.3-0.1-1.9-0.3
			c-3.3-1-5.8-4.1-5.8-7.8c0-4.5,3.6-8.2,8.1-8.2c0,0,0.1,0,0.1,0c0,0,0,0,0,0c24.7,0.3,44.7,20.4,44.7,45.1c0,0.9,0,1.8-0.1,2.8
			C81,92.4,81,92.5,81,92.7z M111.5,85.1c-1.3,5.4-3.1,12.5-8.9,12.5c-6.8,0-5.8-7.9-5.8-14.8c0-1.1,0.1-2.1,0.4-3
			c-0.3-23.6-20.4-46.6-43.6-48.2l-4.3-0.7C44.2,30,35.9,30.5,35.9,25c0-6.8,6-9.8,12.7-9.8c0.1,0,0.1,0,0.2,0c0,0,0,0,0,0
			c37,0.4,63.2,25,63.2,62.1c0,1.4-0.1,2.8-0.1,4.1c0,0.2,0,0.4,0,0.7C111.8,83,111.7,84,111.5,85.1z"/>
	</g>
</g>
</svg>
