<?xml version="1.0" encoding="utf-8"?>
<!-- Generator: Adobe Illustrator 18.0.0, SVG Export Plug-In . SVG Version: 6.00 Build 0)  -->
<!DOCTYPE svg PUBLIC "-//W3C//DTD SVG 1.1//EN" "http://www.w3.org/Graphics/SVG/1.1/DTD/svg11.dtd">
<svg version="1.1" id="cn_1_" xmlns="http://www.w3.org/2000/svg" xmlns:xlink="http://www.w3.org/1999/xlink" x="0px" y="0px"
	 viewBox="0 0 128 128" enable-background="new 0 0 128 128" xml:space="preserve">
<g id="youku_B">
	<g>
		<path fill="#5C5C5C" d="M92,62.4c-11.9-9.2-25.8-17.4-42.7-23.9c-1.2-0.5-2.6,0.4-2.7,1.7c-1.4,15.6-1.4,31.5,0,47.7
			c0.1,1.3,1.5,2.2,2.8,1.6c15.2-6.8,29.5-14.7,42.6-23.9C93,64.8,93,63.3,92,62.4z M63.9,3.9C30.7,3.9,3.7,30.8,3.7,64.1
			c0,33.2,27,60.1,60.2,60.1c33.2,0,60.2-26.9,60.2-60.1C124.1,30.8,97.2,3.9,63.9,3.9z M63.9,105.8c-23.1,0-41.8-18.7-41.8-41.7
			c0-23,18.7-41.7,41.8-41.7c23.1,0,41.8,18.7,41.8,41.7C105.7,87.1,87,105.8,63.9,105.8z"/>
	</g>
</g>
</svg>
