<?xml version="1.0" encoding="utf-8"?>
<!-- Generator: Adobe Illustrator 18.0.0, SVG Export Plug-In . SVG Version: 6.00 Build 0)  -->
<!DOCTYPE svg PUBLIC "-//W3C//DTD SVG 1.1//EN" "http://www.w3.org/Graphics/SVG/1.1/DTD/svg11.dtd">
<svg version="1.1" id="Popular_1_" xmlns="http://www.w3.org/2000/svg" xmlns:xlink="http://www.w3.org/1999/xlink" x="0px" y="0px"
	 viewBox="0 0 128 128" enable-background="new 0 0 128 128" xml:space="preserve">
<g id="WordPress">
	<g>
		<path fill="#5C5C5C" d="M64,2C29.8,2,2,29.8,2,64c0,34.2,27.8,62,62,62c34.2,0,62-27.8,62-62C126,29.8,98.2,2,64,2z M64,123.1
			C31.4,123.1,4.9,96.6,4.9,64C4.9,31.4,31.4,4.9,64,4.9c32.6,0,59.1,26.5,59.1,59.1C123.1,96.6,96.6,123.1,64,123.1z M10.4,63.2
			c0,21.2,12.4,39.5,30.3,48.2l-25.6-70C12.1,48,10.4,55.4,10.4,63.2z M65.1,67.9L49,114.6c4.8,1.4,9.9,2.2,15.2,2.2
			c6.3,0,12.3-1.1,17.9-3c-0.1-0.2-0.3-0.5-0.4-0.7L65.1,67.9z M111.4,37.5c0.2,1.7,0.4,3.5,0.4,5.5c0,5.4-1,11.5-4.1,19.2
			l-16.4,47.3c16-9.3,26.7-26.5,26.7-46.3C118,53.9,115.6,45.1,111.4,37.5z M100.5,60.5c0-6.6-2.4-11.2-4.4-14.8
			c-2.7-4.4-5.3-8.1-5.3-12.6c0-4.9,3.7-9.5,9-9.5c0.2,0,0.5,0,0.7,0C90.9,14.9,78.2,9.6,64.2,9.6c-18.8,0-35.3,9.6-44.9,24.1
			c1.3,0,2.4,0.1,3.5,0.1c5.6,0,14.3-0.7,14.3-0.7c2.9-0.2,3.2,4.1,0.3,4.4c0,0-2.9,0.3-6.2,0.5l19.6,58l11.8-35.1l-8.4-22.9
			c-2.9-0.2-5.6-0.5-5.6-0.5c-2.9-0.2-2.6-4.6,0.3-4.4c0,0,8.9,0.7,14.2,0.7c5.6,0,14.3-0.7,14.3-0.7c2.9-0.2,3.2,4.1,0.3,4.4
			c0,0-2.9,0.3-6.2,0.5L91,95.6l5.4-17.8C99.1,70.8,100.5,65.1,100.5,60.5z"/>
	</g>
</g>
</svg>
