<?xml version="1.0" encoding="utf-8"?>
<!-- Generator: Adobe Illustrator 18.0.0, SVG Export Plug-In . SVG Version: 6.00 Build 0)  -->
<!DOCTYPE svg PUBLIC "-//W3C//DTD SVG 1.1//EN" "http://www.w3.org/Graphics/SVG/1.1/DTD/svg11.dtd">
<svg version="1.1" id="Popular_1_" xmlns="http://www.w3.org/2000/svg" xmlns:xlink="http://www.w3.org/1999/xlink" x="0px" y="0px"
	 viewBox="0 0 128 128" enable-background="new 0 0 128 128" xml:space="preserve">
<g id="lost.fm">
	<g>
		<path fill-rule="evenodd" clip-rule="evenodd" fill="#5C5C5C" d="M106.4,58.6c-9.5-3.1-16.2-4.2-16.2-11.7c0-5.3,4.1-9.3,9.9-9.3
			c4.1,0,7.4,1.6,10.3,5.7l7.8-4c-4-7.1-9.8-10.6-17.8-10.6c-12.3,0-19.8,7.4-19.8,18.4c0,11.3,7.4,16.1,21.7,20.8
			c8,2.6,12.7,4.3,12.7,11c0,6.9-6.2,12.4-15.2,12.1c-9.2-0.3-12-5.3-15.3-12.9C79.1,66,73,51.6,72.5,50.5
			C66.3,36.1,53.9,28,38.6,28C18.4,28,2,44.3,2,64.5C2,84.7,18.4,101,38.6,101c11.4,0,21.6-5.2,28.3-13.3l-4.7-10.9
			C57.8,85.2,48.9,91,38.6,91C23.9,91,12,79.1,12,64.5C12,49.9,23.9,38,38.6,38c10.9,0,20.5,6.3,24.4,15.8l11.7,26.6l1.4,3
			c4.7,11,11.6,17.2,24.4,17.3c13.9,0,24.6-9,24.6-21.3C125,67.5,119.1,62.7,106.4,58.6z"/>
	</g>
</g>
</svg>
