<?xml version="1.0" encoding="utf-8"?>
<!-- Generator: Adobe Illustrator 18.0.0, SVG Export Plug-In . SVG Version: 6.00 Build 0)  -->
<!DOCTYPE svg PUBLIC "-//W3C//DTD SVG 1.1//EN" "http://www.w3.org/Graphics/SVG/1.1/DTD/svg11.dtd">
<svg version="1.1" id="cn_1_" xmlns="http://www.w3.org/2000/svg" xmlns:xlink="http://www.w3.org/1999/xlink" x="0px" y="0px"
	 viewBox="0 0 128 128" enable-background="new 0 0 128 128" xml:space="preserve">
<g id="tencent_wechat">
	<g>
		<path fill="#5C5C5C" d="M85.6,45.6c1.4,0,2.7,0.1,4.1,0.2C86,29,67.8,16.5,47,16.5C23.7,16.5,4.7,32.2,4.7,52
			c0,11.5,6.3,20.9,16.9,28.2l-4.2,12.6l14.8-7.3c5.3,1,9.5,2.1,14.8,2.1c1.3,0,2.6-0.1,3.9-0.2c-0.8-2.8-1.3-5.7-1.3-8.7
			C49.6,60.4,65.5,45.6,85.6,45.6z M62.8,34.3c3.2,0,5.3,2.1,5.3,5.2c0,3.1-2.1,5.2-5.3,5.2c-3.2,0-6.3-2.1-6.3-5.2
			C56.5,36.3,59.7,34.3,62.8,34.3z M33.2,44.7c-3.2,0-6.4-2.1-6.4-5.2c0-3.1,3.2-5.2,6.4-5.2c3.2,0,5.3,2.1,5.3,5.2
			C38.5,42.6,36.4,44.7,33.2,44.7z M124.1,78.1c0-16.7-16.9-30.3-35.9-30.3c-20.1,0-36,13.6-36,30.3c0,16.7,15.8,30.3,36,30.3
			c4.2,0,8.5-1,12.7-2.1l11.6,6.3l-3.2-10.4C117.8,95.9,124.1,87.5,124.1,78.1z M76.6,72.9c-2.1,0-4.2-2.1-4.2-4.2
			c0-2.1,2.1-4.2,4.2-4.2c3.2,0,5.3,2.1,5.3,4.2C81.9,70.8,79.8,72.9,76.6,72.9z M99.8,72.9c-2.1,0-4.2-2.1-4.2-4.2
			c0-2.1,2.1-4.2,4.2-4.2c3.2,0,5.3,2.1,5.3,4.2C105.1,70.8,103,72.9,99.8,72.9z"/>
	</g>
</g>
</svg>
