<?xml version="1.0" encoding="utf-8"?>
<!-- Generator: Adobe Illustrator 18.0.0, SVG Export Plug-In . SVG Version: 6.00 Build 0)  -->
<!DOCTYPE svg PUBLIC "-//W3C//DTD SVG 1.1//EN" "http://www.w3.org/Graphics/SVG/1.1/DTD/svg11.dtd">
<svg version="1.1" id="OS_1_" xmlns="http://www.w3.org/2000/svg" xmlns:xlink="http://www.w3.org/1999/xlink" x="0px" y="0px"
	 viewBox="0 0 128 128" enable-background="new 0 0 128 128" xml:space="preserve">
<g id="Symbian_S60">
	<g>
		<path fill="#5C5C5C" d="M90.2,18.3l8.3,15.1l-17.3,0.3v4.9l17.2,0.1l4.7-7.9L94.3,16L90.2,18.3z M125,33.7l-17.3-0.3l-4.4,8.2
			l8.6,14.6l4.1-2.4l-8.4-15.1l17.3-0.1V33.7z M111.9,16l-8.8,14.8l4.6,2.6l8.4-15.1L111.9,16z M95.1,49.7c-2-1.1-4.8-1.5-8.3-1.5
			c-3.5,0-6.3,0.5-8.3,1.5c-2.2,1.1-3.7,2.5-4.6,4.3c-0.9,1.9-1.4,3.9-1.4,6.2V82c-0.1,2.3,0.4,4.4,1.4,6.2c0.9,1.8,2.5,3.2,4.6,4.3
			c2,1.1,4.8,1.5,8.3,1.5c3.5,0,6.2-0.5,8.3-1.5c2.1-1.1,3.6-2.5,4.6-4.3c0.9-1.8,1.4-3.8,1.4-6.2V60.2c0.1-2.3-0.4-4.3-1.4-6.2
			C98.7,52.2,97.3,50.8,95.1,49.7z M95.2,81.5c0.1,2.5-0.5,4.3-1.8,5.6c-1.2,1.2-3.5,1.8-6.7,1.8c-3.3,0-5.5-0.6-6.7-1.8
			c-1.3-1.2-1.8-3.1-1.8-5.6V60.7c-0.1-2.5,0.6-4.4,1.8-5.6c1.3-1.2,3.5-1.8,6.7-1.8c3.2,0,5.4,0.6,6.7,1.8c1.3,1.2,1.8,3,1.8,5.6
			V81.5z M54.5,67.9c-1.5,0-3.1,0.2-4.8,0.5c-1.7,0.3-3.1,0.6-4.3,1.1v-5.9c-0.1-2.8,0.3-4.9,1-6.5c0.7-1.5,2.1-2.6,4-3.2
			c1.9-0.7,4.7-1,8.2-0.9c0.9,0,1.8,0.1,3,0.2c1.2,0.1,2.2,0.2,3,0.4l0.6-4.8c-1.2-0.3-2.4-0.5-3.8-0.7c-1.4-0.1-2.7-0.2-3.8-0.2
			c-4.3-0.1-7.8,0.5-10.5,1.5c-2.7,1-4.6,2.7-5.8,4.9c-1.2,2.3-1.8,5.4-1.8,9.1v19.8c-0.1,2.2,0.4,4.1,1.2,5.7
			c0.9,1.5,2.3,2.8,4.3,3.6c2,0.9,4.6,1.3,7.9,1.3c3.6,0,6.4-0.5,8.3-1.5c1.9-1.1,3.3-2.6,3.9-4.5c0.7-2,1-4.3,1-7v-2
			c0.1-3.6-0.9-6.4-2.7-8.2C61.9,68.8,58.8,67.9,54.5,67.9z M60.6,82.6c0,1.5-0.2,2.7-0.7,3.6c-0.4,0.9-1.2,1.6-2.3,2
			c-1.1,0.4-2.7,0.6-4.6,0.6c-2.7,0.1-4.6-0.4-5.9-1.4c-1.2-0.9-1.8-2.5-1.8-4.9v-7.7c1.2-0.5,2.5-0.9,4-1.3
			c1.5-0.4,3.1-0.6,4.6-0.6c2.5-0.1,4.2,0.4,5.2,1.4c1,0.9,1.5,2.5,1.4,4.6V82.6z M30.8,72.2c-0.8-0.9-2.1-1.8-3.8-2.5
			c-1.7-0.7-4.1-1.5-7.2-2.2c-2.3-0.6-4-1-5.3-1.4c-1.3-0.4-2.2-0.9-2.7-1.5c-0.6-0.6-0.9-1.3-1-2.2c-0.1-0.9-0.2-2.2-0.1-3.8
			c-0.1-1.8,0.2-3.2,0.6-4.1c0.4-1,1.4-1.7,2.7-2.2c1.3-0.4,3.1-0.6,5.6-0.6c1.9,0,3.9,0.1,6,0.3c2,0.2,4,0.6,5.9,1l0.5-5.1
			c-1.9-0.4-3.9-0.8-6.1-1.1c-2.2-0.2-4.3-0.4-6.3-0.4c-3.8,0-6.7,0.4-8.9,1.3c-2.2,0.9-3.7,2.2-4.6,4c-0.9,1.8-1.3,4-1.3,6.7
			c-0.1,3.2,0.2,5.6,0.7,7.4C6,67.6,7.3,69,9.1,70c1.8,1,4.5,1.9,8.1,2.7c2.3,0.6,4.2,1,5.5,1.4c1.3,0.4,2.3,1,2.8,1.5
			c0.6,0.6,0.9,1.4,1,2.3c0.1,0.9,0.2,2.2,0.2,3.7c0,1.7-0.2,3.2-0.7,4.2c-0.5,1.1-1.4,1.8-2.7,2.3c-1.3,0.5-3.1,0.7-5.6,0.7
			c-2.1,0-4.3-0.2-6.4-0.5c-2.2-0.3-4.3-0.8-6.4-1.5l-1,4.8c2,0.8,4.3,1.4,6.7,1.9c2.4,0.4,4.7,0.6,7,0.6c4.1,0,7.3-0.5,9.5-1.5
			c2.2-1,3.6-2.4,4.4-4.3c0.7-1.9,1.1-4.1,1-6.8c0.1-2.3-0.1-4.1-0.3-5.6C32.2,74.4,31.6,73.2,30.8,72.2z"/>
	</g>
</g>
</svg>
