<?xml version="1.0" encoding="utf-8"?>
<!-- Generator: Adobe Illustrator 18.0.0, SVG Export Plug-In . SVG Version: 6.00 Build 0)  -->
<!DOCTYPE svg PUBLIC "-//W3C//DTD SVG 1.1//EN" "http://www.w3.org/Graphics/SVG/1.1/DTD/svg11.dtd">
<svg version="1.1" id="Popular_1_" xmlns="http://www.w3.org/2000/svg" xmlns:xlink="http://www.w3.org/1999/xlink" x="0px" y="0px"
	 viewBox="0 0 128 128" enable-background="new 0 0 128 128" xml:space="preserve">
<g id="_x31_x">
	<g>
		<path fill="#5C5C5C" d="M90.5,82.7c-1.7-2.3-1.6-3.8,0.1-6c7.6-10.2,19.1-26.4,26.6-36.7l-7.2,0c-1.8,3.3-4.2,6.2-6.4,9.3
			C97.7,57.6,91.7,66,85.7,74.6c-0.5-0.6-0.9-1-1.2-1.4c-7.7-11.2-16-23-23.7-34.2h-7.2c8.9,12.6,18.1,25.5,27.2,38
			c1.4,2,1.5,3.3,0,5.3c-9.7,13.1-21.5,29.5-31,42.6h7.5c7.7-11.7,18.6-26.9,26.6-38.3c0.4-0.6,1-1.2,1.6-1.8
			c8.7,12.3,19.8,27.8,28,40.1h7.6C111.8,112.2,99.8,95.4,90.5,82.7z M6,15.7c0.8,1.7,1.5,3,2.2,4.5c6.4-4,12.5-7.8,19.3-12.1v116.7
			h5.6V2l-5.7,0.2C20.6,6.3,13.1,11.2,6,15.7z"/>
	</g>
</g>
</svg>
