<?xml version="1.0" encoding="utf-8"?>
<!-- Generator: Adobe Illustrator 18.0.0, SVG Export Plug-In . SVG Version: 6.00 Build 0)  -->
<!DOCTYPE svg PUBLIC "-//W3C//DTD SVG 1.1//EN" "http://www.w3.org/Graphics/SVG/1.1/DTD/svg11.dtd">
<svg version="1.1" id="OS_1_" xmlns="http://www.w3.org/2000/svg" xmlns:xlink="http://www.w3.org/1999/xlink" x="0px" y="0px"
	 viewBox="0 0 128 128" enable-background="new 0 0 128 128" xml:space="preserve">
<g id="Blackberry">
	<g>
		<path fill="#5C5C5C" d="M29.4,21c-4.3,0-16.1,0-16.1,0L8.8,42.1c0,0,8.7,0,16.7,0c13.1,0,16.8-6.2,16.8-11.9
			C42.3,26.1,39.8,21,29.4,21z M72.7,21c-4.3,0-16,0-16,0l-4.6,21.1c0,0,8.7,0,16.7,0c13.1,0,16.8-6.2,16.8-11.9
			C85.6,26.1,83.1,21,72.7,21z M23.6,52.8c-4.3,0-16,0-16,0L3,73.9c0,0,8.7,0,16.7,0c13.1,0,16.8-6.2,16.8-11.9
			C36.5,57.9,34,52.8,23.6,52.8z M66.9,52.8c-4.3,0-16.1,0-16.1,0l-4.6,21.1c0,0,8.7,0,16.7,0c13.1,0,16.8-6.2,16.8-11.9
			C79.8,57.9,77.3,52.8,66.9,52.8z M112.1,39.9c-4.3,0-16.1,0-16.1,0L91.5,61c0,0,8.7,0,16.7,0c13.1,0,16.8-6.2,16.8-11.9
			C125,45,122.5,39.9,112.1,39.9z M105.9,73c-4.3,0-16.1,0-16.1,0l-4.5,21.1c0,0,8.7,0,16.7,0c13.1,0,16.8-6.2,16.8-11.9
			C118.8,78.1,116.3,73,105.9,73z M60.7,85.9c-4.3,0-16.1,0-16.1,0L40,107c0,0,8.7,0,16.7,0c13.1,0,16.8-6.2,16.8-11.9
			C73.5,91,71.1,85.9,60.7,85.9z"/>
	</g>
</g>
</svg>
