<?xml version="1.0" encoding="utf-8"?>
<!-- Generator: Adobe Illustrator 18.0.0, SVG Export Plug-In . SVG Version: 6.00 Build 0)  -->
<!DOCTYPE svg PUBLIC "-//W3C//DTD SVG 1.1//EN" "http://www.w3.org/Graphics/SVG/1.1/DTD/svg11.dtd">
<svg version="1.1" id="cn_1_" xmlns="http://www.w3.org/2000/svg" xmlns:xlink="http://www.w3.org/1999/xlink" x="0px" y="0px"
	 viewBox="0 0 128 128" enable-background="new 0 0 128 128" xml:space="preserve">
<g id="baidu">
	<g>
		<path fill="#5C5C5C" d="M50.5,40.9c7,0,12.7-8.3,12.7-18.5c0-10.2-5.7-18.5-12.7-18.5c-7,0-12.7,8.3-12.7,18.5
			C37.8,32.6,43.5,40.9,50.5,40.9z M80.7,42.1c9.4,1.3,15.4-9,16.6-16.8C98.5,17.6,92.4,8.6,85.8,7c-6.6-1.6-14.9,9.3-15.7,16.5
			C69.2,32.2,71.3,40.9,80.7,42.1z M26.9,67c12.7-2.8,10.9-18.4,10.6-21.8c-0.6-5.2-6.6-14.4-14.8-13.7C12.5,32.5,11,47.7,11,47.7
			C9.6,54.7,14.3,69.8,26.9,67z M103.6,87.8c0,0-14.5-11.5-22.9-23.9C69.2,45.5,52.9,53,47.4,62.3C42,71.6,33.6,77.5,32.4,79.1
			c-1.2,1.5-17.5,10.6-13.9,27c3.6,16.5,16.3,16.1,16.3,16.1s9.4,0.9,20.2-1.5c10.9-2.5,20.2,0.6,20.2,0.6s25.4,8.7,32.3-8.1
			C114.5,96.5,103.6,87.8,103.6,87.8z M117.8,55.2c0-3.7-3-14.9-14.2-14.9c-11.2,0-12.7,10.6-12.7,18c0,7.1,0.6,17.1,14.5,16.8
			C119.3,74.7,117.8,58.9,117.8,55.2z"/>
	</g>
</g>
</svg>
