<?xml version="1.0" encoding="utf-8"?>
<!-- Generator: Adobe Illustrator 18.0.0, SVG Export Plug-In . SVG Version: 6.00 Build 0)  -->
<!DOCTYPE svg PUBLIC "-//W3C//DTD SVG 1.1//EN" "http://www.w3.org/Graphics/SVG/1.1/DTD/svg11.dtd">
<svg version="1.1" id="cn_1_" xmlns="http://www.w3.org/2000/svg" xmlns:xlink="http://www.w3.org/1999/xlink" x="0px" y="0px"
	 viewBox="0 0 128 128" enable-background="new 0 0 128 128" xml:space="preserve">
<g id="dgtle.com">
	<g>
		<path fill="#5C5C5C" d="M122.6,43.2c-0.6-2.2-1.8-4.3-2.8-6.9c-2,5.7-3.6,10.9-5.5,16c-4.6,12.5-11.7,23.5-19.4,34.2
			c-3.5,4.8-6.9,9.6-10.6,14.2c-3.1,3.8-4.9,8.1-5.5,13c-0.1,1.2-0.3,2.4-0.5,3.7c-0.5,3.9-1.7,4.8-6,4.3
			c2.2-9.1,5.1-17.7,10.8-25.3C88.5,89,94,81.7,98.2,73.8c8-14.8,11.8-30.8,9.8-47.7c-0.2-1.9-0.7-3.9-1.4-5.7
			c-1.2-3.3-2.6-3.9-5.6-2.3c-2.4,1.3-5,2.7-6.9,4.7c-6.8,6.9-13.5,13.9-20.1,21c-3.1,3.3-5.6,7.1-8.7,10.4
			c-3.2,3.5-4.5,7.6-4.5,12.2c0.1,4.3,0.5,8.5,0.7,12.8c0.1,3.2,0.7,6.5-1.2,9.8c-0.9-0.7-1.7-1.1-2.3-1.8c-1.7-1.7-3.8-3.3-5-5.4
			c-8-12.6-20.9-16.8-34.2-20.3c-1.6-0.4-3.4,0.2-5.1,0.4c0.2,1.9-0.1,4.1,0.8,5.5c4.3,7.2,9.8,13.4,16.6,18.3
			c5,3.6,10.1,7,15.4,10.2c5.5,3.3,7.8,8.2,7.6,14.4c-0.1,3.5,0,7,0,10.9c-1.3-0.3-2.2-0.5-3.2-0.6c-1.8-0.3-2.2-1.4-2-3.2
			c0.5-3.8,0.8-7.7,1-11.5c0.1-2.7-1.1-4.8-3.6-6.3c-3.8-2.1-7.5-4.5-11.2-6.7C23.9,86.4,14.9,77.6,7,67.6c-1.9-2.3-3.4-5-5-7.5v8.4
			c0.4,2.3,0.8,4.7,1.2,7c5,26.5,25.8,46.4,52.6,50.3c0.5,0.1,0.9,0.3,1.4,0.4H71c4.1-0.9,8.3-1.5,12.2-2.9
			c24.2-8.6,38.5-25.6,42.6-51c0.1-0.5,0.3-0.9,0.4-1.4V57.2C125,52.5,124,47.8,122.6,43.2z M12.1,53.2c3.4,0.5,6.8,1.3,10,2.3
			c9.3,3,18.7,5.9,26.1,12.8c0.7,0.7,1.6,1.1,2.5,1.5c1.8,0.8,3.2,0.5,3.8-1.6c0.6-2.5,1.4-4.9,1.7-7.4c0.6-4.5,2.5-8.4,5.4-11.9
			c10.5-12.7,20.9-25.6,33-36.8c0.4-0.4,0.7-0.8,1.1-1.3c-6.1-3.6-12.4-6-19.2-7.3c-2.6-0.5-5.3-0.9-8-1.4h-8.4
			c-1,0.2-2.1,0.5-3.1,0.6C31.5,5.7,10.8,23.7,4.2,48.5c-0.4,1.6-0.7,3.3-1,4.7C6.4,53.1,9.3,52.8,12.1,53.2z M50,49.7
			c-2.1,2.1-5.4,2.7-7.7,1.5c-2.5-1.3-3-3.5-1.3-5.7c1.5-2,3.4-3,6.9-3.1c0.7,0.6,2.4,1.4,3.2,2.8C52.2,46.7,51.3,48.4,50,49.7z
			 M64.1,33.6c-0.5,1.9-2.2,2.8-4.9,2.7c-1.7-0.2-3.4-0.4-5.1-0.5c-7.5-0.8-13.7,1.5-18.5,7.5c-1.2,1.5-2.4,3.1-3.7,4.6
			c-1.1,1.2-2.4,2.2-4.1,1.1c-1.6-1.1-1.5-2.9-0.6-4.2c2.3-3.3,4.6-6.9,7.5-9.6c6.4-5.7,14-8.4,22.7-7.1c1.2,0.2,2.4,0.5,3.5,1
			C63.5,30.1,64.5,31.7,64.1,33.6z M16.9,35.1c4.6-8.2,11.4-14.4,19.6-19c6.4-3.6,13.4-5.3,20.9-5.9c3.9,0.9,7.9,1.5,11.7,2.7
			c1.9,0.6,3.6,2,5.1,3.3c1.6,1.3,2.3,3.2,1.5,5.3c-0.9,2.2-3,2.6-4.9,2.4c-2.5-0.3-5-0.8-7.5-1.5c-17.8-5.4-33.3,5-39.9,17.3
			c-0.7,1.2-1.3,2.5-2,3.7c-0.9,1.5-2.2,2.6-3.8,1.8c-1.2-0.6-2.5-2.3-2.5-3.4C15.1,39.5,15.7,37.1,16.9,35.1z"/>
	</g>
</g>
</svg>
