<?xml version="1.0" encoding="utf-8"?>
<!-- Generator: Adobe Illustrator 18.0.0, SVG Export Plug-In . SVG Version: 6.00 Build 0)  -->
<!DOCTYPE svg PUBLIC "-//W3C//DTD SVG 1.1//EN" "http://www.w3.org/Graphics/SVG/1.1/DTD/svg11.dtd">
<svg version="1.1" id="cn_1_" xmlns="http://www.w3.org/2000/svg" xmlns:xlink="http://www.w3.org/1999/xlink" x="0px" y="0px"
	 viewBox="0 0 128 128" enable-background="new 0 0 128 128" xml:space="preserve">
<g id="taobao">
	<g>
		<path fill="#5C5C5C" d="M25.6,42c6,0,10.9-4.5,10.9-10c0-5.5-4.9-10-10.9-10c-6,0-10.9,4.5-10.9,10C14.7,37.5,19.6,42,25.6,42z
			 M123.9,45.8c-2-24.3-39.5-23.1-63.7-12.4c1.2-2.7,2.4-5.4,3.5-8.1c-5.1-1.6-10.2-3.2-15.3-4.9C42.3,29.6,36.2,38.8,30.1,48
			c3.7,2.7,7.5,5.4,11.2,8.1c0.6-1.3,1.2-2.5,1.8-3.8c3.8-5.1,8.9-9.1,15.4-11.8L43.6,59.3l7.7,3.8l8.8-8.3v1.3h4.1v8.1H43.1v5.9
			h21.2v16.2c-0.2,0-0.4,0-0.6,0c-5.2-0.3-7.1-1.8-7.1-11.4H42.5c-6.5,23.4,9.8,28.1,49,14.1c1.4,2.3,2.8,4.7,4.1,7
			c2.6-2.2,5.1-4.3,7.7-6.5c1.4-6.8-1.2-12.2-7.7-16.2c-2.8,1.1-5.5,2.2-8.3,3.2c1.2,1.8,2.4,3.6,3.5,5.4c-3.4,0.5-6.7,1.3-10,2.1
			v-14H102v-5.9H80.8v-8.1H102v-7H66.2l5.7-5.4l-7.1-5.3c1.7-0.5,3.5-0.8,5.3-1.2c9-0.4,18.3-2.8,27.1-1.1
			c12.3,2.3,11.5,14.9,11.2,26.5l-0.6,21.1c-0.3,10.7-4.3,14.2-13.6,14.6c-4.5,0.2-9,0-13.6,0c0.2,2.2,0.4,4.3,0.6,6.5
			c7.3,0,14.6,0.2,21.8,0c10-0.3,17.5-2.4,19.5-17.3C124.4,74.4,125.1,61.3,123.9,45.8z M17.1,44.7c-2.6,2.9-5.1,5.8-7.7,8.6
			c13,6.8,24.2,14.9,14.2,25.4C18.2,84.4,11,88.5,4.7,93.3c5.7,4.1,11.4,8.3,17.1,12.4c3.7-7.3,6-14.6,11.2-24.3
			C40.5,67.5,38.1,57,17.1,44.7z"/>
	</g>
</g>
</svg>
