<?xml version="1.0" encoding="utf-8"?>
<!-- Generator: Adobe Illustrator 18.0.0, SVG Export Plug-In . SVG Version: 6.00 Build 0)  -->
<!DOCTYPE svg PUBLIC "-//W3C//DTD SVG 1.1//EN" "http://www.w3.org/Graphics/SVG/1.1/DTD/svg11.dtd">
<svg version="1.1" id="cn_1_" xmlns="http://www.w3.org/2000/svg" xmlns:xlink="http://www.w3.org/1999/xlink" x="0px" y="0px"
	 viewBox="0 0 128 128" enable-background="new 0 0 128 128" xml:space="preserve">
<g id="renren">
	<g>
		<path fill="#5C5C5C" d="M62.4,79.3c-5.2,18.6-19.5,31-26.7,36.3c8.2,4.3,17.4,6.7,27.3,6.7c10.2,0,19.8-2.7,28.2-7.3
			C72,101.1,62.4,79.3,62.4,79.3z M107.5,23.6C98.6,13.3,86.1,6.2,72.1,4v44.8c4.1,31.4,25.3,47.3,35.1,53.5
			c0.1-0.1,0.3-0.2,0.4-0.4c9.1-10.5,14.7-24.2,14.7-39.2C122.2,47.7,116.6,34,107.5,23.6z M54.1,49.4V3.9
			C25.6,8.2,3.7,32.9,3.7,62.7C3.7,78,9.5,91.9,19,102.5C55,77.2,54.1,49.4,54.1,49.4z"/>
	</g>
</g>
</svg>
