<?xml version="1.0" encoding="utf-8"?>
<!-- Generator: Adobe Illustrator 18.0.0, SVG Export Plug-In . SVG Version: 6.00 Build 0)  -->
<!DOCTYPE svg PUBLIC "-//W3C//DTD SVG 1.1//EN" "http://www.w3.org/Graphics/SVG/1.1/DTD/svg11.dtd">
<svg version="1.1" id="Design_1_" xmlns="http://www.w3.org/2000/svg" xmlns:xlink="http://www.w3.org/1999/xlink" x="0px" y="0px"
	 viewBox="0 0 128 128" enable-background="new 0 0 128 128" xml:space="preserve">
<g id="gameui.cn">
	<g>
		<path fill="#5C5C5C" d="M54,54V43H12v52h42V64H32v10h10v10H22V54H54z M2,2v20.1h10c0-3.3,0-6.7,0-10.1h104v10
			c3.4,0,6.7,0.1,10,0.1V2H2z M115.9,115.9H12v-9.9H2V126h124v-20.1h-10.1V115.9z M106,95h10V43h-10v11H95v10h11V95z M64,43v52h10
			V64c3.3,0,6.8,0.1,10,0.1c0,3.4,0,6.6,0,9.9h11V64c-3.4,0-7.6,0-11,0c0-3.3,0-6.5,0-10H74V43H64z"/>
	</g>
</g>
</svg>
