<?xml version="1.0" encoding="utf-8"?>
<!-- Generator: Adobe Illustrator 18.0.0, SVG Export Plug-In . SVG Version: 6.00 Build 0)  -->
<!DOCTYPE svg PUBLIC "-//W3C//DTD SVG 1.1//EN" "http://www.w3.org/Graphics/SVG/1.1/DTD/svg11.dtd">
<svg version="1.1" id="cn_1_" xmlns="http://www.w3.org/2000/svg" xmlns:xlink="http://www.w3.org/1999/xlink" x="0px" y="0px"
	 viewBox="0 0 128 128" enable-background="new 0 0 128 128" xml:space="preserve">
<g id="V2EX">
	<g>
		<path fill-rule="evenodd" clip-rule="evenodd" fill="#5C5C5C" d="M122.5,57L77.3,12.6c-1-1-2.4-1.6-3.9-1.6H6.5C4,11,2,13,2,15.4
			V46h62.7c1.3,0,2.6,0.5,3.4,1.5l14.6,15.2c0.3,0.3,0.3,0.9,0,1.2L68.2,79.3C67.3,80.2,66.3,81,65,81H2v30.6c0,2.4,2,4.4,4.5,4.4
			h66.9c1.5,0,2.9-0.6,3.9-1.6l45.2-44.8C126,66.1,126,60.5,122.5,57z"/>
	</g>
</g>
</svg>
