<?xml version="1.0" encoding="utf-8"?>
<!-- Generator: Adobe Illustrator 18.0.0, SVG Export Plug-In . SVG Version: 6.00 Build 0)  -->
<!DOCTYPE svg PUBLIC "-//W3C//DTD SVG 1.1//EN" "http://www.w3.org/Graphics/SVG/1.1/DTD/svg11.dtd">
<svg version="1.1" id="cn_1_" xmlns="http://www.w3.org/2000/svg" xmlns:xlink="http://www.w3.org/1999/xlink" x="0px" y="0px"
	 viewBox="0 0 128 128" enable-background="new 0 0 128 128" xml:space="preserve">
<g id="guokr">
	<g>
		<path fill-rule="evenodd" clip-rule="evenodd" fill="#5C5C5C" d="M88.1,87.1c-0.3-0.1-0.7-0.2-1-0.4L69.4,76.5l2.6-0.3l23.8,0.2
			l5.2-12.7L69,63.8l-0.2-5L94.9,59l5.3-55.1L23.1,7.5l6.2,51.3h28.1v6.1H22v12.5h33.1c0,0-9.6,8-17.7,13.6
			c-8.1,5.6-16.2,4.1-16.2,4.1l3.7,18c7.3,0.3,32.5-21.4,32.5-21.4v31.6l11.2,0.9V87.9c5,6.7,18.5,12.8,20.5,13.6
			c2,0.8,14.1,4.8,14.5,4.7l5-16.4C105.5,91.3,91.1,87.8,88.1,87.1z M57.2,50.3h-16l-1-7.7h17V50.3z M56.6,19.4v11.3l-18.5,1V16.3
			l47.5-2.1v14.6l-16.4,1V18.6L56.6,19.4z M68.6,50.3l1-7.7h14.7v7.7H68.6z"/>
	</g>
</g>
</svg>
