<?xml version="1.0" encoding="utf-8"?>
<!-- Generator: Adobe Illustrator 18.0.0, SVG Export Plug-In . SVG Version: 6.00 Build 0)  -->
<!DOCTYPE svg PUBLIC "-//W3C//DTD SVG 1.1//EN" "http://www.w3.org/Graphics/SVG/1.1/DTD/svg11.dtd">
<svg version="1.1" id="Popular_1_" xmlns="http://www.w3.org/2000/svg" xmlns:xlink="http://www.w3.org/1999/xlink" x="0px" y="0px"
	 viewBox="0 0 128 128" enable-background="new 0 0 128 128" xml:space="preserve">
<g id="GitHub">
	<g>
		<path fill-rule="evenodd" clip-rule="evenodd" fill="#5C5C5C" d="M63.5,4C30.1,4,3,30.8,3,63.9C3,92,22.6,115.6,49,122
			c0-7.4,0-21.5,0-22c-0.1-0.1-11.5,6.5-17.3-5c-0.7-1.4-2.1-6.2-5.6-8.8c-0.1-0.1-2.7-1.4-3-2.7c0-0.2,0.2-0.6,0.4-0.7
			c0.3-0.1,4.5-1.8,9.3,4.2c1.4,2,4.7,9.7,16.1,4.9c0.3-1.2,0.5-3.1,3-5.3c-16.9-2-23.1-7.7-25.5-22.1c-1.5-9.8,1.4-17.9,5.7-21.9
			c-0.7-0.9-2.8-8,0.5-15.5c3.6-0.7,10.3,1.9,16.2,6c8.3-3,23.8-2.2,29.4,0c2.6-2.2,12.1-7.2,16.1-6c1.2,3,2.9,10.3,0.5,15.5
			c5.3,5.4,6.8,12.3,5.8,20.8c-1.2,12.9-7.8,21.6-25.7,23.1c3,2.1,5.7,5,5.7,9.8c0,5.2,0,17.7,0,24.9c25-7.3,43.3-30.2,43.3-57.4
			C124,30.8,96.9,4,63.5,4z"/>
	</g>
</g>
</svg>
