<?xml version="1.0" encoding="utf-8"?>
<!-- Generator: Adobe Illustrator 18.0.0, SVG Export Plug-In . SVG Version: 6.00 Build 0)  -->
<!DOCTYPE svg PUBLIC "-//W3C//DTD SVG 1.1//EN" "http://www.w3.org/Graphics/SVG/1.1/DTD/svg11.dtd">
<svg version="1.1" id="cn_1_" xmlns="http://www.w3.org/2000/svg" xmlns:xlink="http://www.w3.org/1999/xlink" x="0px" y="0px"
	 viewBox="0 0 128 128" enable-background="new 0 0 128 128" xml:space="preserve">
<g id="csdn.net">
	<g>
		<path fill-rule="evenodd" clip-rule="evenodd" fill="#5C5C5C" d="M81.5,34.5c13.7-1.2,27.4,0.8,41.2,3c1.2-8.9,2.1-15.9,3.1-23.8
			C87.6,4.3,46.5,10.9,23,29.6C7.4,42-0.8,58.2,2,78.2c2.8,19.4,16.5,29.9,33.9,36.6c18.4,7,37.5,6.7,56.7,5.8
			c18.1-1.9,17.5-0.9,17.6-3.5c0.5-12,0.6-10.1,1.2-22.4c-15.4,2.2-31,3.7-46.4,0.9C40.4,91.1,31.5,66,47.8,47.9
			C56.7,38,68.9,35.5,81.5,34.5z"/>
	</g>
</g>
</svg>
