<?xml version="1.0" encoding="utf-8"?>
<!-- Generator: Adobe Illustrator 18.0.0, SVG Export Plug-In . SVG Version: 6.00 Build 0)  -->
<!DOCTYPE svg PUBLIC "-//W3C//DTD SVG 1.1//EN" "http://www.w3.org/Graphics/SVG/1.1/DTD/svg11.dtd">
<svg version="1.1" id="Design_1_" xmlns="http://www.w3.org/2000/svg" xmlns:xlink="http://www.w3.org/1999/xlink" x="0px" y="0px"
	 viewBox="0 0 128 128" enable-background="new 0 0 128 128" xml:space="preserve">
<g id="uehtml.com">
	<g>
		<path fill="#5C5C5C" d="M120.2,66.6c-4.4-3-10.2-2.4-14.1,1.5C97.5,76.7,89,85.4,80.3,93.9c-6.2,6-13.7,9-22.5,9.1
			c-6.6,0-13-1.8-18.4-6C29,89.1,24.6,78.6,26.6,65.5c1-6.7,4.2-12.4,8.9-17.2c8.3-8.4,16.7-16.8,25.1-25.2c2-2,3.4-4.2,3.6-7
			C64.5,11.3,62,6.9,57.8,5c-4.4-2-9.1-1.1-12.7,2.5c-8.6,8.6-17.3,17.2-25.8,25.9C1.8,51.3-1,79.2,12.7,100.1
			c9.7,14.8,23.5,23.2,41.2,24.7c14.7,1.2,28-2.8,39.1-12.6c10.3-9.1,19.7-19.2,29.3-29.1C127,78.3,125.8,70.3,120.2,66.6z
			 M47.2,72.1c0.6,4.6,3.2,7.8,7.5,9.3c4.5,1.5,8.4,0.3,11.7-3c7.6-7.6,15.2-15.3,22.9-22.9c6.3-6.3,12.7-12.6,19-19.1
			c3.3-3.4,3.9-7.5,2-11.9c-1.9-4.4-5.6-6.1-9-6.5c-4.3,0-6.9,1-9.2,3.3c-6.1,6.1-12.3,12.3-18.4,18.4c-7.7,7.7-15.3,15.3-23,23
			C48,65.3,46.7,68.4,47.2,72.1z"/>
	</g>
</g>
</svg>
