<?xml version="1.0" encoding="utf-8"?>
<!-- Generator: Adobe Illustrator 18.0.0, SVG Export Plug-In . SVG Version: 6.00 Build 0)  -->
<!DOCTYPE svg PUBLIC "-//W3C//DTD SVG 1.1//EN" "http://www.w3.org/Graphics/SVG/1.1/DTD/svg11.dtd">
<svg version="1.1" id="Design_1_" xmlns="http://www.w3.org/2000/svg" xmlns:xlink="http://www.w3.org/1999/xlink" x="0px" y="0px"
	 viewBox="0 0 128 128" enable-background="new 0 0 128 128" xml:space="preserve">
<g id="poocg.com">
	<g>
		<path fill="#5C5C5C" d="M76.7,40.2L64,21L52.3,39.8L64,56.2L76.7,40.2z M116,71.9v13.8l-3.8,2l-2.9-2.9V70.2L91,50.2L68.8,73.4
			v10.7l-4.3,3.6l-4.3-3.6V73.4L38,50.2l-18.4,20v14.6l-2.9,2.9l-3.8-2V71.9L3,52.7l3.6,20.7V107H13l25-33.6L64.5,102L91,73.4
			l25,33.6h6.4V73.4l3.6-20.7L116,71.9z M25,107h28.9L39.6,89.5L25,107z M72.6,107h31.1L89.4,89.5L72.6,107z"/>
	</g>
</g>
</svg>
