<?xml version="1.0" encoding="utf-8"?>
<!-- Generator: Adobe Illustrator 18.0.0, SVG Export Plug-In . SVG Version: 6.00 Build 0)  -->
<!DOCTYPE svg PUBLIC "-//W3C//DTD SVG 1.1//EN" "http://www.w3.org/Graphics/SVG/1.1/DTD/svg11.dtd">
<svg version="1.1" id="Popular_1_" xmlns="http://www.w3.org/2000/svg" xmlns:xlink="http://www.w3.org/1999/xlink" x="0px" y="0px"
	 viewBox="0 0 128 128" enable-background="new 0 0 128 128" xml:space="preserve">
<g id="Twitter">
	<g>
		<path fill-rule="evenodd" clip-rule="evenodd" fill="#5C5C5C" d="M126,24.8c-4.6,2-9.5,3.4-14.6,4c5.3-3.1,9.3-8.1,11.2-14
			c-4.9,2.9-10.4,5-16.2,6.1c-4.6-4.9-11.3-8-18.6-8c-14.1,0-25.4,11.3-25.4,25.3c0,2,0.2,3.9,0.7,5.8
			c-21.1-1.1-39.9-11.1-52.4-26.4c-2.2,3.7-3.4,8.1-3.4,12.7c0,8.8,4.5,16.5,11.3,21c-4.2-0.1-8.1-1.3-11.5-3.2c0,0.1,0,0.2,0,0.3
			c0,12.2,8.8,22.4,20.4,24.8c-2.1,0.6-4.4,0.9-6.7,0.9c-1.6,0-3.2-0.2-4.8-0.4c3.2,10,12.6,17.3,23.8,17.5C31,98,20,102,8.1,102
			C6,102,4,101.9,2,101.7c11.3,7.2,24.6,11.3,39,11.3c46.8,0,72.4-38.5,72.4-71.8c0-1.1,0-2.2-0.1-3.3
			C118.3,34.3,122.6,29.9,126,24.8z"/>
	</g>
</g>
</svg>
