<?xml version="1.0" encoding="utf-8"?>
<!-- Generator: Adobe Illustrator 18.0.0, SVG Export Plug-In . SVG Version: 6.00 Build 0)  -->
<!DOCTYPE svg PUBLIC "-//W3C//DTD SVG 1.1//EN" "http://www.w3.org/Graphics/SVG/1.1/DTD/svg11.dtd">
<svg version="1.1" id="cn_1_" xmlns="http://www.w3.org/2000/svg" xmlns:xlink="http://www.w3.org/1999/xlink" x="0px" y="0px"
	 viewBox="0 0 128 128" enable-background="new 0 0 128 128" xml:space="preserve">
<g id="tuchong">
	<g>
		<path fill="#5C5C5C" d="M115.3,54.1c-3.8,0.3-7.6,0.9-11-1.6c-1.2,12.3,0.2,24.4,4,36.1c1.7,5.2,0,6-4.7,5.9
			c-27.7-0.6-55.3,0.8-83.5,7.6c5.3-24.2,5.6-47.3-1.5-70.1c-1.2-4,0-5.2,4.3-4.2c19.3,4.6,39,4.6,58.7,4.6c0.7-3,1.5-5.9,2.2-8.9
			c-24.4,1.1-52.1-1-75.4-8.5c-6.4-2-5.1-1.4-3,5.8c6.4,22.6,10.4,47.1,7.2,70.8C11.6,99,8.2,105.8,7,114c39.4-8.8,77.9-15,118-6.6
			C117.5,89.7,113.6,72.3,115.3,54.1z M99,47.2c3.3,0.1,3.1,0.3,4.3,2.6c3.4,2.5,7.2,1.9,11,1.6c0.3-1.6,2.6-4.2-0.6-4.3
			c-4.5-0.3-7,0.9-7.8-4.6c-0.3-1.7-1.3-1.4-2.7-1.4C90.3,40.9,87,40.2,89.2,28.5c1.2-6.3-0.9-4.5-3.1-4.7c-0.7,3-1.5,5.9-2.2,8.9
			C85.5,42.3,88.6,47,99,47.2z"/>
	</g>
</g>
</svg>
