<?xml version="1.0" encoding="utf-8"?>
<!-- Generator: Adobe Illustrator 18.0.0, SVG Export Plug-In . SVG Version: 6.00 Build 0)  -->
<!DOCTYPE svg PUBLIC "-//W3C//DTD SVG 1.1//EN" "http://www.w3.org/Graphics/SVG/1.1/DTD/svg11.dtd">
<svg version="1.1" id="cn_1_" xmlns="http://www.w3.org/2000/svg" xmlns:xlink="http://www.w3.org/1999/xlink" x="0px" y="0px"
	 viewBox="0 0 128 128" enable-background="new 0 0 128 128" xml:space="preserve">
<g id="tudou">
	<g>
		<path fill="#5C5C5C" d="M56.6,59.5L56.6,59.5c-0.1-8.5-6.9-15.3-15.3-15.3c-7.9,0-14.5,6-15.2,13.7c4.2-2,8.9-3.1,13.8-3.1h0
			c-2.5,4-4.3,8.7-4.7,13.7c-0.7-1.4-2.1-2.3-3.8-2.3c-2.3,0-4.2,1.9-4.2,4.2c0,2.3,1.8,4.3,4.2,4.3c-2.3,0-4.2,1.9-4.2,4.2
			c0,2.3,1.9,4.2,4.2,4.2c2.3,0,4.2-1.9,4.2-4.2c0,2.3,1.9,4.2,4.2,4.2c2.3,0,4.2-1.9,4.2-4.2c0-2.3-1.9-4.2-4.2-4.2l0-0.1h0
			c2.3,0,4.2-1.9,4.2-4.2c0-2.3-1.9-4.2-4.2-4.2c-1.4,0-2.8,0.8-3.5,1.9c0.9-5,3.2-9.4,6.2-13.2C47.7,55.4,52.5,57,56.6,59.5z
			 M37.4,74.7c0,0.9-0.8,1.7-1.7,1.7c-0.9,0-1.7-0.8-1.7-1.7s0.8-1.7,1.7-1.7C36.7,73,37.4,73.8,37.4,74.7z M85.8,44.2
			c-8.4,0-15.3,6.8-15.3,15.2l-0.1,0.1c4.9-2.9,10.6-4.6,16.7-4.6c4.9,0,9.6,1.1,13.8,3.1C100.3,50.2,93.7,44.2,85.8,44.2z
			 M63.5,3.9c-33,0-59.7,26.7-59.7,59.7c0,33,26.7,59.7,59.7,59.7c33,0,59.7-26.7,59.7-59.7C123.2,30.6,96.4,3.9,63.5,3.9z
			 M63.4,112.1c-26.9,0-48.6-21.7-48.6-48.5C14.8,36.7,36.6,15,63.4,15c26.9,0,48.6,21.7,48.6,48.5
			C112.1,90.3,90.3,112.1,63.4,112.1z"/>
	</g>
</g>
</svg>
