<?xml version="1.0" encoding="utf-8"?>
<!-- Generator: Adobe Illustrator 18.0.0, SVG Export Plug-In . SVG Version: 6.00 Build 0)  -->
<!DOCTYPE svg PUBLIC "-//W3C//DTD SVG 1.1//EN" "http://www.w3.org/Graphics/SVG/1.1/DTD/svg11.dtd">
<svg version="1.1" id="Popular_1_" xmlns="http://www.w3.org/2000/svg" xmlns:xlink="http://www.w3.org/1999/xlink" x="0px" y="0px"
	 viewBox="0 0 128 128" enable-background="new 0 0 128 128" xml:space="preserve">
<g id="Pinterest">
	<g>
		<path fill-rule="evenodd" clip-rule="evenodd" fill="#5C5C5C" d="M66.9,2C33.1,2,16,26.2,16,46.4c0,12.2,4.6,23.1,14.6,27.2
			c1.6,0.7,3.1,0,3.6-1.8c0.3-1.2,1.8-4.4,2.2-5.7c0.5-1.8,0.3-2.4-1-4c-2.9-3.4-4.6-6.9-4.6-13.1c0-20.6,12.7-35.3,34.3-35.3
			c19.1,0,29.6,12,29.6,27.6c0,20.5-9.1,37.2-22.6,37.2c-7.5,0-13-5.5-11.2-13c2.1-9,6.3-18.7,6.3-25.2c0-5.8-3.1-10-9.6-10
			c-7.6,0-13.7,7.2-13.7,17.8c0,6.7,2.2,10,2.2,10s-7.7,34.2-9.1,39.9c-2.7,11.5-0.4,25.6-0.2,27c0.1,0.8,1.2,1,1.7,0.4
			c0.7-0.9,9.8-12.1,12.9-23.3c0.9-3.2,5-19.5,5-19.5c2.5,4.7,9.7,7.8,17.4,7.8c22.9,0,38.4-19.7,38.4-47.6C112,21.6,94.1,2,66.9,2z
			"/>
	</g>
</g>
</svg>
