<?xml version="1.0" encoding="utf-8"?>
<!-- Generator: Adobe Illustrator 18.0.0, SVG Export Plug-In . SVG Version: 6.00 Build 0)  -->
<!DOCTYPE svg PUBLIC "-//W3C//DTD SVG 1.1//EN" "http://www.w3.org/Graphics/SVG/1.1/DTD/svg11.dtd">
<svg version="1.1" id="Design_1_" xmlns="http://www.w3.org/2000/svg" xmlns:xlink="http://www.w3.org/1999/xlink" x="0px" y="0px"
	 viewBox="0 0 128 128" enable-background="new 0 0 128 128" xml:space="preserve">
<g id="deviantart">
	<g>
		<path fill-rule="evenodd" clip-rule="evenodd" fill="#5C5C5C" d="M74.1,55.2c-5.3-1-11.3-1.3-17.7-0.2l13.3,27.3L127,65.6
			c0,0-20.8-33.1-82.8-22.4c-0.4,0.1-0.7,0.1-1,0.2l-6-12.4l-17.8,2.1l7.3,15.1C-11,63.9,5.7,101,5.7,101L63,84.2L47.3,51.8
			c28.3-8.2,51.9,8.6,51.9,8.6l-19.5,5.3L74.1,55.2z M21.2,81.8c0,0-5.5-12.4,10.6-23l8.6,17.7L21.2,81.8z"/>
	</g>
</g>
</svg>
