<?xml version="1.0" encoding="utf-8"?>
<!-- Generator: Adobe Illustrator 18.0.0, SVG Export Plug-In . SVG Version: 6.00 Build 0)  -->
<!DOCTYPE svg PUBLIC "-//W3C//DTD SVG 1.1//EN" "http://www.w3.org/Graphics/SVG/1.1/DTD/svg11.dtd">
<svg version="1.1" id="Design_1_" xmlns="http://www.w3.org/2000/svg" xmlns:xlink="http://www.w3.org/1999/xlink" x="0px" y="0px"
	 viewBox="0 0 128 128" enable-background="new 0 0 128 128" xml:space="preserve">
<g id="Pixiv">
	<g>
		<path fill-rule="evenodd" clip-rule="evenodd" fill="#5C5C5C" d="M109.8,28.9c-9.6-8.2-23-12.9-38.6-12.9C30.6,16,3,46.7,3,46.7
			l7.8,12.1c0,0,4.3,0.4,2-6.8c2-3.6,5.8-8.6,13.4-14.2c0,0,0,76.6,0,80.7c-3.2,0.9-7.5,2.6-4.6,5.5h22.4c3-2.9-1.7-4.6-4.5-5.5
			c0-3.1,0-19,0-19s15.3,5.9,31.9,5.9c14.5,0,27.7-4.2,37.6-11.9c9.8-7.6,16.2-19,16.1-32C125,48.8,119.4,37.1,109.8,28.9z M98,87.2
			c-6.8,6.6-16.7,10.7-28.1,10.7c-12.7,0-23.4-2.4-30.5-5.8c0,0,0-2.1,0-17.3c0-16.5,0-43.2,0-43.2c7.8-5.4,20.3-8.7,30.5-8.7
			c12.3,0,22,4.6,28.6,11.5c6.5,7,10.1,16.3,10.1,27C108.6,71.9,104.8,80.5,98,87.2z"/>
	</g>
</g>
</svg>
