<?xml version="1.0" encoding="utf-8"?>
<!-- Generator: Adobe Illustrator 18.0.0, SVG Export Plug-In . SVG Version: 6.00 Build 0)  -->
<!DOCTYPE svg PUBLIC "-//W3C//DTD SVG 1.1//EN" "http://www.w3.org/Graphics/SVG/1.1/DTD/svg11.dtd">
<svg version="1.1" id="cn_1_" xmlns="http://www.w3.org/2000/svg" xmlns:xlink="http://www.w3.org/1999/xlink" x="0px" y="0px"
	 viewBox="0 0 128 128" enable-background="new 0 0 128 128" xml:space="preserve">
<g id="aiku.me">
	<g>
		<path fill="#5C5C5C" d="M111.8,25.2c1.7,0.2,3-0.8,2.9-2.6c-0.2-3.6-1.2-8.8-5.8-8.6c-6.1,0.3-38.6,3.8-46.2,4.7
			c-1,0.1-2-0.3-2.7-1l-12-13.1c-7.7-7.5-25,6.1-19.1,14.3l5.1,7c1.6,2.4,1.2,5.7-1,7.6C20.6,44.1,8,57.4,5.4,61.6
			c-1.9,3.1,1.2,5.2,3.5,6.2c1.1,0.5,2.5,0.4,3.4-0.5C40.5,38.4,79,20.6,111.8,25.2z M114.3,31.5C96.7,18.4,34.6,45.8,18.5,67.3
			c-2.6,3.5-4.1,6.8-2,10.6c7.5,13.6,16.5,25.2,27,35c6.8,6.3,15.2,10.5,24.3,11.8c9.1,1.2,18.1,1.2,26.9-0.2c0.6,0,1.3-0.2,1.8-0.6
			c8.6-5.9,15.4-13.6,20.7-22.9c3.4-5.9,5.4-12.6,5.9-19.4C124.5,62.3,122.8,44.9,114.3,31.5z"/>
	</g>
</g>
</svg>
