<?xml version="1.0" encoding="utf-8"?>
<!-- Generator: Adobe Illustrator 18.0.0, SVG Export Plug-In . SVG Version: 6.00 Build 0)  -->
<!DOCTYPE svg PUBLIC "-//W3C//DTD SVG 1.1//EN" "http://www.w3.org/Graphics/SVG/1.1/DTD/svg11.dtd">
<svg version="1.1" id="cn_1_" xmlns="http://www.w3.org/2000/svg" xmlns:xlink="http://www.w3.org/1999/xlink" x="0px" y="0px"
	 viewBox="0 0 128 128" enable-background="new 0 0 128 128" xml:space="preserve">
<g id="mknote">
	<g>
		<path fill="#5C5C5C" d="M76.8,35.3c-1.4,0-2.4,0.1-3.9,1.4C64.7,45.6,56.3,54.1,48.6,63c-1.5,1.7-1.1,2.7,0.3,4
			c3.9,3.7,7.9,7.2,11.6,11.1c2.1,2.2,3.3,1.9,5.1-0.2c7.7-8.2,15.3-15,23.1-22.6c3.1-3,3.3-5.5,2.5-9.3
			C89.7,39.2,82.4,35.3,76.8,35.3z M41.4,84.8c-0.4,1.4-0.1,1.9,1.7,1.5c5.7-1.2,11.5-2.1,18.1-3.2c-5.6-5.3-10.6-10.2-16.1-15.5
			C43.7,73.4,42.9,79,41.4,84.8z M108.9,2.9H20c-9.5,0-17.2,7.7-17.2,17.2v88.8c0,9.5,7.7,17.2,17.2,17.2h88.8
			c9.5,0,17.2-7.7,17.2-17.2V20.2C126.1,10.6,118.4,2.9,108.9,2.9z M111,94c0,9.5-7.5,17-17,17H34c-9.5,0-16-7.5-16-17V35
			c0-9.5,7.5-18,17-18h60c9.5,0,16,8.5,16,18V94z"/>
	</g>
</g>
</svg>
