<?xml version="1.0" encoding="utf-8"?>
<!-- Generator: Adobe Illustrator 18.0.0, SVG Export Plug-In . SVG Version: 6.00 Build 0)  -->
<!DOCTYPE svg PUBLIC "-//W3C//DTD SVG 1.1//EN" "http://www.w3.org/Graphics/SVG/1.1/DTD/svg11.dtd">
<svg version="1.1" id="cn_1_" xmlns="http://www.w3.org/2000/svg" xmlns:xlink="http://www.w3.org/1999/xlink" x="0px" y="0px"
	 viewBox="0 0 128 128" enable-background="new 0 0 128 128" xml:space="preserve">
<g id="duitang">
	<g>
		<path fill="#5C5C5C" d="M37.1,82.9c-0.1,0-0.2,0-0.6,0.1l-9.2,6V53H37c0-4-1.8-4.8-3-5h-6.7V21c-4.7-1-8.6,4.5-10.3,10v17H8
			c-2.6,0.4-2.9,3.7-3,5h12v43l-13.7,9.4v5.7L38,88.9C39.2,86.1,38.5,83.3,37.1,82.9z M69.2,12.7c-3.2-1.4-6.2,0.2-8.8,1.4L35,66h7
			l8-14v73l3-1l9-10V42h-7L69.2,12.7z M119,56h-18V34h23c1-1.8-0.4-3.9-3-6h-20V18c-2.1-6.5-3.5-12.1-14-14v24H69
			c-1.6,1.6-2.9,3.8-3.2,6.2L87,34v22H70c-3,2.2-3.7,4.2-3,6h20v24l-18.3,0C67,88.1,66,90.2,66,92h21v22H70c-3.3,1.7-4.3,4.2-4.2,6
			h57.8c0.4-2.2-1.2-5-3.7-6h-19V92h23c0-2-0.7-3.9-3.8-6L101,86V62h23C125,60,122.4,58.1,119,56z"/>
	</g>
</g>
</svg>
