<?xml version="1.0" encoding="utf-8"?>
<!-- Generator: Adobe Illustrator 18.0.0, SVG Export Plug-In . SVG Version: 6.00 Build 0)  -->
<!DOCTYPE svg PUBLIC "-//W3C//DTD SVG 1.1//EN" "http://www.w3.org/Graphics/SVG/1.1/DTD/svg11.dtd">
<svg version="1.1" id="cn_1_" xmlns="http://www.w3.org/2000/svg" xmlns:xlink="http://www.w3.org/1999/xlink" x="0px" y="0px"
	 viewBox="0 0 128 128" enable-background="new 0 0 128 128" xml:space="preserve">
<g id="renren_xiaozhan">
	<g>
		<path fill="#5C5C5C" d="M68.3,30.6C68.4,17.9,68.5,19,56,19c-9,0-8.6-0.4-9.3-9.3c-0.3-3.6-2-5.6-5.6-5.7C37.4,4,33.6,4,29.9,4.1
			c-3,0.1-4.6,1.7-4.8,4.9c-0.7,9.6-0.3,10-10.1,10c-2.1,0-4.9,0.2-7,0c-4-0.3-5.8,1.2-5.9,5.1c-0.1,4-0.1,8.1,0,12.1
			c0,2.9,1.3,5.1,4.3,5.6c2.5,0.4,3.3,1.8,3.3,4.2c0.4,16.5,0.9,33.1,1.5,49.6c0.1,2.9-0.8,4.6-3.9,5c-3.8,0.5-5,2.9-4.5,6.5
			c0.5,3.3,0.8,6.6,1.3,9.8c1,6.3,2.1,7.2,8.5,6.4c14.5-1.7,29-3.4,43.5-5.1c1.7-0.2,3.4-0.6,4.7-1.8c2.1-2.1,2.7-19.2,0.4-21.1
			c-2.3-1.9-2.5-4-2.4-6.5C59.4,74.4,60,60.2,60.5,46c0.1-2.3,0.7-3.9,3.3-4.1c3.3-0.3,4.6-2.5,4.6-5.7
			C68.3,34.3,68.3,32.4,68.3,30.6z M37.7,78.7c-0.1,4.3-0.3,8.6-0.5,12.9c-0.1,1.6,0,3.2-1.2,4.5c-0.6,0.6-1.4,1.1-2.3,0.9
			c-1.1-0.2-1.3-1.1-1.3-2c-0.1-1.1-0.2-2.3-0.2-3.4c-0.3-14,0.4-27.9-0.9-40.7c0-2.4,0.1-3.7,0-5c-0.1-2.7,1-3.9,3.8-3.9
			c2.8,0,3.8,1.3,3.7,4C38.4,56.9,38.1,67.8,37.7,78.7z M124.1,69.5c0-11,0.3-10.3-10.7-10.3c-12.4,0-12.6-0.6-12-13.3
			c0.1-2.9,1.2-4,4-3.9c4.6,0.1,9.2,0,13.8,0c3.3,0,4.9-1.7,4.9-4.9c0-4.1,0-8.1,0-12.2c0-3.5-1.8-5-5.2-5c-3.2,0.1-6.4,0-9.6,0
			c-7.4,0-7.5,0-7.8-7.3c-0.1-3.7-1.9-5-5.5-4.9c-2.9,0.1-5.8,0-8.7,0c-5.9,0-6.7,0.6-6.7,6.5c0,12.6,0,25.1,0,37.7
			c0,6.5,0,6.5-6.3,6.6c-0.3,0-0.6,0-0.8,0c-5.1,0.1-5.5,1.3-5.5,6.5c-0.1,8.2,0,16,0,24.3c0,8.1,0,16.2,0,24.3
			c0,5.8,2.2,6.8,7.8,6.8c14.6,0,25.2,0,39.8,0c5.3,0,8.7-0.5,8.7-5.9C124.1,99.4,124.1,84.5,124.1,69.5z M102.2,89.5
			c0,9.2-1.8,10.8-11,9.3c-2-0.3-3-1.3-3-3.3c0-3.9,0-7.8,0-11.7c0-1.5,0.4-3,2.2-3c3.2-0.1,6.4-0.1,9.6,0c1.7,0.1,2.3,1.4,2.3,2.9
			C102.2,85.6,102.2,87.5,102.2,89.5z"/>
	</g>
</g>
</svg>
