<?xml version="1.0" encoding="utf-8"?>
<!-- Generator: Adobe Illustrator 18.0.0, SVG Export Plug-In . SVG Version: 6.00 Build 0)  -->
<!DOCTYPE svg PUBLIC "-//W3C//DTD SVG 1.1//EN" "http://www.w3.org/Graphics/SVG/1.1/DTD/svg11.dtd">
<svg version="1.1" id="OS_1_" xmlns="http://www.w3.org/2000/svg" xmlns:xlink="http://www.w3.org/1999/xlink" x="0px" y="0px"
	 viewBox="0 0 128 128" enable-background="new 0 0 128 128" xml:space="preserve">
<g id="Xbox">
	<g>
		<path fill-rule="evenodd" clip-rule="evenodd" fill="#5C5C5C" d="M48.4,37.6c-18-11.1-28.7-15.8-28.7-15.8
			C9.5,32.7,3.2,47.4,3.2,63.5c0,14.5,5,27.7,13.4,38.2C16.6,101.7,8.2,79.2,48.4,37.6z M125.8,63.5c0-16.1-6.3-30.8-16.5-41.7
			c0,0-10.7,4.7-28.7,15.8c40.2,41.6,31.8,64.1,31.8,64.1C120.8,91.3,125.8,78,125.8,63.5z M64.5,25.8L64.5,25.8
			C64.5,25.8,64.5,25.8,64.5,25.8C89,8.1,104.2,17,104.2,17C93.5,7.8,79.6,2.3,64.5,2.3C49.3,2.3,35.4,7.8,24.7,17
			C24.7,17,39.9,7.9,64.5,25.8z M64.3,50.9c-34.1,25.2-44,54.9-44,54.9c11.1,11.7,26.8,19,44.3,19c17.4,0,33.2-7.3,44.3-19
			C108.8,105.7,102.3,79,64.3,50.9z"/>
	</g>
</g>
</svg>
