<?xml version="1.0" encoding="utf-8"?>
<!-- Generator: Adobe Illustrator 18.0.0, SVG Export Plug-In . SVG Version: 6.00 Build 0)  -->
<!DOCTYPE svg PUBLIC "-//W3C//DTD SVG 1.1//EN" "http://www.w3.org/Graphics/SVG/1.1/DTD/svg11.dtd">
<svg version="1.1" id="Popular_1_" xmlns="http://www.w3.org/2000/svg" xmlns:xlink="http://www.w3.org/1999/xlink" x="0px" y="0px"
	 viewBox="0 0 128 128" enable-background="new 0 0 128 128" xml:space="preserve">
<g id="stackoverflow">
	<g>
		<path fill="#5C5C5C" d="M80,98H32v11h48V98z M103.8,3L93.8,4.8l8.2,47.4l10.1-1.8L103.8,3z M80.9,85.2l-47.6-4.4L32.4,91l47.6,4.4
			L80.9,85.2z M84,71.8L37.9,59.3l-2.7,9.9l46.1,12.5L84,71.8z M90,60L48.9,35.6l-5.2,8.9l41.2,24.5L90,60z M64.8,18.8l26.9,39.8
			l8.4-5.8L73.2,13L64.8,18.8z M88,117H25V75h-8v50h0.1c0,0,2.4,0,2.4,0h76.4v0c0.1,0,0.1-2.4,0.1-2.4L96,75h-8V117z"/>
	</g>
</g>
</svg>
