<?xml version="1.0" encoding="utf-8"?>
<!-- Generator: Adobe Illustrator 18.0.0, SVG Export Plug-In . SVG Version: 6.00 Build 0)  -->
<!DOCTYPE svg PUBLIC "-//W3C//DTD SVG 1.1//EN" "http://www.w3.org/Graphics/SVG/1.1/DTD/svg11.dtd">
<svg version="1.1" id="Design_1_" xmlns="http://www.w3.org/2000/svg" xmlns:xlink="http://www.w3.org/1999/xlink" x="0px" y="0px"
	 viewBox="0 0 128 128" enable-background="new 0 0 128 128" xml:space="preserve">
<g id="codepen">
	<g>
		<path fill="#5C5C5C" d="M64,2.9C30.3,2.9,2.9,30.3,2.9,64c0,33.7,27.4,61.1,61.1,61.1c33.7,0,61.1-27.4,61.1-61.1
			C125.1,30.3,97.7,2.9,64,2.9z M64,115.1c-28.2,0-51.1-22.9-51.1-51.1S35.8,12.9,64,12.9c28.2,0,51.1,22.9,51.1,51.1
			S92.2,115.1,64,115.1z M101.8,52.1c0,0,0-0.1,0-0.1c0-0.1,0-0.2-0.1-0.3c0-0.1,0-0.1-0.1-0.2c0-0.1-0.1-0.2-0.1-0.2
			c0-0.1,0-0.1-0.1-0.2c0-0.1-0.1-0.1-0.1-0.2c0-0.1-0.1-0.1-0.1-0.2c0-0.1-0.1-0.1-0.1-0.2c0,0-0.1-0.1-0.1-0.1
			c-0.1-0.1-0.1-0.1-0.2-0.2c0,0-0.1-0.1-0.1-0.1c-0.1-0.1-0.1-0.1-0.2-0.2c0,0-0.1-0.1-0.1-0.1c0,0,0,0-0.1,0l-34.5-23
			c-1.1-0.7-2.5-0.7-3.6,0l-34.5,23c0,0,0,0-0.1,0c-0.1,0-0.1,0.1-0.1,0.1c-0.1,0-0.1,0.1-0.2,0.2c0,0-0.1,0.1-0.1,0.1
			c-0.1,0.1-0.1,0.1-0.2,0.2c0,0-0.1,0.1-0.1,0.1c0,0.1-0.1,0.1-0.1,0.2c0,0-0.1,0.1-0.1,0.2c0,0.1-0.1,0.1-0.1,0.2
			c0,0.1-0.1,0.1-0.1,0.2c0,0.1-0.1,0.2-0.1,0.2c0,0.1,0,0.1-0.1,0.2c0,0.1,0,0.2-0.1,0.3c0,0,0,0.1,0,0.1c0,0.1,0,0.3,0,0.4v23
			c0,0.1,0,0.3,0,0.4c0,0,0,0.1,0,0.1c0,0.1,0,0.2,0.1,0.3c0,0.1,0,0.1,0.1,0.2c0,0.1,0.1,0.2,0.1,0.2c0,0.1,0,0.1,0.1,0.2
			c0,0.1,0.1,0.1,0.1,0.2c0,0,0.1,0.1,0.1,0.1c0,0.1,0.1,0.1,0.1,0.2c0,0,0.1,0.1,0.1,0.1c0.1,0.1,0.1,0.1,0.2,0.2
			c0,0,0.1,0.1,0.1,0.1c0.1,0.1,0.1,0.1,0.2,0.2c0,0,0.1,0.1,0.1,0.1c0,0,0,0,0.1,0l34.5,23c0.5,0.4,1.2,0.5,1.8,0.5
			c0.6,0,1.3-0.2,1.8-0.5l34.5-23c0,0,0,0,0.1,0c0.1,0,0.1-0.1,0.1-0.1c0.1,0,0.1-0.1,0.2-0.2c0,0,0.1-0.1,0.1-0.1
			c0.1-0.1,0.1-0.1,0.2-0.2c0,0,0.1-0.1,0.1-0.1c0-0.1,0.1-0.1,0.1-0.2c0,0,0.1-0.1,0.1-0.1c0-0.1,0.1-0.1,0.1-0.2
			c0-0.1,0.1-0.1,0.1-0.2c0-0.1,0.1-0.2,0.1-0.2c0-0.1,0-0.1,0.1-0.2c0-0.1,0-0.2,0.1-0.3c0,0,0-0.1,0-0.1c0-0.1,0-0.3,0-0.4v-23
			C101.8,52.3,101.8,52.2,101.8,52.1z M67.2,35.5l25.4,17l-11.4,7.6l-14.1-9.4V35.5z M60.8,35.5v15.1l-14.1,9.4l-11.4-7.6L60.8,35.5
			z M32.7,58.6l8.1,5.4l-8.1,5.4V58.6z M60.8,92.5l-25.4-17l11.4-7.6l14.1,9.4V92.5z M64,71.7L52.5,64L64,56.3L75.5,64L64,71.7z
			 M67.2,92.5V77.3l14.1-9.4l11.4,7.6L67.2,92.5z M95.3,69.4L87.2,64l8.1-5.4V69.4z"/>
	</g>
</g>
</svg>
