<?xml version="1.0" encoding="utf-8"?>
<!-- Generator: Adobe Illustrator 18.0.0, SVG Export Plug-In . SVG Version: 6.00 Build 0)  -->
<!DOCTYPE svg PUBLIC "-//W3C//DTD SVG 1.1//EN" "http://www.w3.org/Graphics/SVG/1.1/DTD/svg11.dtd">
<svg version="1.1" id="cn_1_" xmlns="http://www.w3.org/2000/svg" xmlns:xlink="http://www.w3.org/1999/xlink" x="0px" y="0px"
	 viewBox="0 0 128 128" enable-background="new 0 0 128 128" xml:space="preserve">
<g id="tencent_qzone">
	<g>
		<path fill="#5C5C5C" d="M106.6,88.4c0,0-4.7-0.3-11.9-1c0.2,0.5,0.3,1,0.5,1.5C102.1,88.7,106.6,88.4,106.6,88.4z M123.4,48.1
			c-2.6-3.5-41.6-7.9-41.6-7.9S69.4,6.8,63.5,8.2c-5.9,1.4-17.4,34.2-17.4,34.2S4.9,44.3,3.4,50c-1.6,5.7,26.5,28.2,26.5,28.2
			s-10.4,36.6-2.8,40.3C31.7,120.7,62,98.2,62,98.2s31.4,24,38.8,20.5c2.8-1.3-2-18.3-5.7-29.9c-15.3,0.5-42.6,0.7-59.8-2.4
			c0.5-2.5,39-28.4,39-28.4l-40.7-5.7c0,0,24.9-5.8,58.5,0c0.8,1.5-37.2,27.7-36.7,29.9c13.7,2.5,29,4.2,39.3,5.2
			c-1.7-5.4-3.1-9.3-3.1-9.3S126.1,51.6,123.4,48.1z"/>
	</g>
</g>
</svg>
