<?xml version="1.0" encoding="utf-8"?>
<!-- Generator: Adobe Illustrator 18.0.0, SVG Export Plug-In . SVG Version: 6.00 Build 0)  -->
<!DOCTYPE svg PUBLIC "-//W3C//DTD SVG 1.1//EN" "http://www.w3.org/Graphics/SVG/1.1/DTD/svg11.dtd">
<svg version="1.1" id="Popular_1_" xmlns="http://www.w3.org/2000/svg" xmlns:xlink="http://www.w3.org/1999/xlink" x="0px" y="0px"
	 viewBox="0 0 128 128" enable-background="new 0 0 128 128" xml:space="preserve">
<g id="linkedin">
	<g>
		<path fill-rule="evenodd" clip-rule="evenodd" fill="#5C5C5C" d="M11,126h24V40H11V126z M23.3,2C14.8,2,8,8.8,8,17.1
			c0,8.3,6.8,15.1,15.3,15.1c8.4,0,15.3-6.8,15.3-15.1C38.5,8.8,31.7,2,23.3,2z M104.3,46.1c-9.1-5.1-22.5-5.5-32.2-1.1L72,40H48v86
			h24.1V71.8L82.2,67c2.5-1.2,7.9-1.1,10.2,0.2c1.7,1,4.6,5.3,4.6,7.8v51h24V74C121,62.9,114,51.5,104.3,46.1z"/>
	</g>
</g>
</svg>
