<?xml version="1.0" encoding="utf-8"?>
<!-- Generator: Adobe Illustrator 18.0.0, SVG Export Plug-In . SVG Version: 6.00 Build 0)  -->
<!DOCTYPE svg PUBLIC "-//W3C//DTD SVG 1.1//EN" "http://www.w3.org/Graphics/SVG/1.1/DTD/svg11.dtd">
<svg version="1.1" id="Popular_1_" xmlns="http://www.w3.org/2000/svg" xmlns:xlink="http://www.w3.org/1999/xlink" x="0px" y="0px"
	 viewBox="0 0 128 128" enable-background="new 0 0 128 128" xml:space="preserve">
<g id="foursquare">
	<g>
		<path fill-rule="evenodd" clip-rule="evenodd" fill="#5C5C5C" d="M97.7,2c0,0-56.8,0-65.9,0C22.7,2,20,8.9,20,13.2
			c0,4.3,0,105.4,0,105.4c0,4.9,2.6,6.7,4.1,7.3c1.5,0.6,5.5,1.1,7.9-1.7c0,0,31.1-36.3,31.7-36.9c0.8-0.8,0.8-0.8,1.6-0.8h20.1
			c8.5,0,9.8-6.1,10.7-9.6c0.5-2,4.3-21.4,7.6-38.1l4.2-20.9C110,7.5,107.4,2,97.7,2z M93.8,20l-2.8,14.5c-0.3,1.6-2.3,3.2-4.1,3.2
			c-1.8,0-25.7,0-25.7,0c-2.9,0-5,2-5,4.9v3.2c0,2.9,2.1,5,5,5c0,0,19.8,0,21.8,0c2,0,4,2.3,3.6,4.4c-0.4,2.2-2.5,13.1-2.8,14.3
			c-0.2,1.2-1.6,3.3-4,3.3c-2,0-17.8,0-17.8,0c-3.2,0-4.2,0.4-6.4,3.1C53.5,78.5,34,102.1,34,102.1c-0.2,0.2-0.4,0.2-0.4-0.1V19.7
			c0-1.9,1.6-4,4-4c0,0,50.9,0,52.9,0C92.5,15.7,94.3,17.5,93.8,20z"/>
	</g>
</g>
</svg>
