<?xml version="1.0" encoding="utf-8"?>
<!-- Generator: Adobe Illustrator 18.0.0, SVG Export Plug-In . SVG Version: 6.00 Build 0)  -->
<!DOCTYPE svg PUBLIC "-//W3C//DTD SVG 1.1//EN" "http://www.w3.org/Graphics/SVG/1.1/DTD/svg11.dtd">
<svg version="1.1" id="cn_1_" xmlns="http://www.w3.org/2000/svg" xmlns:xlink="http://www.w3.org/1999/xlink" x="0px" y="0px"
	 viewBox="0 0 128 128" enable-background="new 0 0 128 128" xml:space="preserve">
<g id="diandian">
	<g>
		<path fill="#5C5C5C" d="M65,94h54V38l-55-0.2v-7.6h37.8V13.7H64.3V2H48v37H10v56h28v31L65,94z M26,79V56h75v23H26z M17,100
			c-7.1,0-13,6.1-13,13.2S9.9,126,17,126s13-5.9,13-13S24.1,100,17,100z M73.7,99c-6.9,0-12.6,5.7-12.6,12.6
			c0,6.9,5.3,12.6,12.2,12.6c6.9,0,13.1-5.7,13.1-12.6C86.3,104.7,80.5,99,73.7,99z M111,100c-7.1,0-13,5.9-13,13s5.9,13,13,13
			c7.1,0,13-5.9,13-13S118.1,100,111,100z"/>
	</g>
</g>
</svg>
