<?xml version="1.0" encoding="utf-8"?>
<!-- Generator: Adobe Illustrator 18.0.0, SVG Export Plug-In . SVG Version: 6.00 Build 0)  -->
<!DOCTYPE svg PUBLIC "-//W3C//DTD SVG 1.1//EN" "http://www.w3.org/Graphics/SVG/1.1/DTD/svg11.dtd">
<svg version="1.1" id="Popular_1_" xmlns="http://www.w3.org/2000/svg" xmlns:xlink="http://www.w3.org/1999/xlink" x="0px" y="0px"
	 viewBox="0 0 128 128" enable-background="new 0 0 128 128" xml:space="preserve">
<g id="grooveshark">
	<g>
		<path fill-rule="evenodd" clip-rule="evenodd" fill="#5C5C5C" d="M63.5,3C30.1,3,3,30.1,3,63.5S30.1,124,63.5,124
			S124,96.9,124,63.5S96.9,3,63.5,3z M101.1,77.9C89.4,77.9,92.6,64.6,78,50C58.7,30.7,43.3,31.8,43.3,31.8
			c6,25.7-5.8,46.1-17.3,46.1c-8.6,0-11.5-8.6-11.5-14.4l-0.1,0v0c0-27.1,22-49,49-49c26.9,0,48.7,21.7,49,48.5c0,0.2,0,0.3,0,0.5
			C112.5,72.1,106.8,77.9,101.1,77.9z"/>
	</g>
</g>
</svg>
