<svg xmlns="http://www.w3.org/2000/svg" xmlns:xlink="http://www.w3.org/1999/xlink" preserveAspectRatio="xMidYMid" width="32" height="37" viewBox="0 0 32 37">
  <defs>
    <style>
      .cls-1 {
        fill: #000;
        fill-rule: evenodd;
      }
    </style>
  </defs>
  <path d="M30.000,25.000 C28.745,25.000 28.000,24.263 28.000,23.000 L28.000,14.000 C28.000,12.736 28.745,12.000 30.000,12.000 C31.254,12.000 32.002,12.567 32.002,13.831 L32.002,22.807 C32.002,24.070 31.254,25.000 30.000,25.000 ZM24.000,30.000 L22.000,30.000 L22.000,35.000 C22.000,36.263 21.255,36.989 20.000,37.000 C18.754,37.010 18.003,36.281 17.959,34.963 C17.811,34.776 18.000,30.000 18.000,30.000 L14.000,30.000 L14.000,35.000 C14.000,36.263 13.234,37.013 11.979,37.013 C10.724,37.013 10.000,36.263 10.000,35.000 L10.000,30.000 L8.000,30.000 C7.022,30.000 6.000,28.971 6.000,28.000 L6.000,12.000 L26.000,12.000 L26.000,28.000 C26.000,28.971 24.978,30.000 24.000,30.000 ZM11.182,3.212 L9.313,0.524 C9.204,0.366 9.232,0.155 9.376,0.057 C9.521,-0.043 9.728,0.007 9.840,0.166 L12.000,3.000 C13.277,2.500 14.477,2.179 15.974,2.179 C17.470,2.179 18.723,2.500 20.000,3.000 L22.109,0.166 C22.220,0.007 22.427,-0.043 22.572,0.057 C22.716,0.155 22.744,0.366 22.634,0.524 L20.765,3.212 C23.735,4.580 25.735,6.965 26.000,10.000 L6.000,10.000 C6.265,6.965 8.212,4.580 11.182,3.212 ZM20.000,7.000 C20.623,7.000 21.000,6.551 21.000,6.000 C21.000,5.448 20.623,5.000 20.000,5.000 C19.378,5.000 19.000,5.448 19.000,6.000 C19.000,6.551 19.378,7.000 20.000,7.000 ZM12.000,7.000 C12.623,7.000 13.000,6.551 13.000,6.000 C13.000,5.448 12.623,5.000 12.000,5.000 C11.378,5.000 10.997,5.456 10.997,6.008 C10.997,6.559 11.378,7.000 12.000,7.000 ZM20.967,-0.611 L20.973,-0.608 C20.971,-0.607 20.970,-0.606 20.968,-0.606 L20.967,-0.611 ZM2.000,25.000 C0.746,25.000 -0.002,24.088 -0.002,22.826 L-0.002,13.889 C-0.002,12.626 0.746,12.000 2.000,12.000 C3.255,12.000 4.000,12.736 4.000,14.000 L4.000,23.000 C4.000,24.263 3.255,25.000 2.000,25.000 Z" class="cls-1"/>
</svg>
