<?xml version="1.0" encoding="utf-8"?>
<!-- Generator: Adobe Illustrator 18.0.0, SVG Export Plug-In . SVG Version: 6.00 Build 0)  -->
<!DOCTYPE svg PUBLIC "-//W3C//DTD SVG 1.1//EN" "http://www.w3.org/Graphics/SVG/1.1/DTD/svg11.dtd">
<svg version="1.1" id="图层_1" xmlns="http://www.w3.org/2000/svg" xmlns:xlink="http://www.w3.org/1999/xlink" x="0px" y="0px"
	 viewBox="0 0 595.3 841.9" enable-background="new 0 0 595.3 841.9" xml:space="preserve">
<path fill="#5B5C5C" d="M390,67.9L390,67.9c0.1,0.1,0.1,0.1,0.1,0.1L390,67.9z"/>
<path fill="#5B5C5C" d="M552,297.1c-23.3,0-41,18.1-41,41.8v168.5c0,23.7,17.6,43.3,41,43.3c23.3,0,43.2-19.6,43.2-43.3V338.9
	C595.3,315.2,575.4,297.1,552,297.1z M42.3,297.1C19,297.1,0,316.3,0,340v167.7c0,23.7,19,42.9,42.3,42.9
	c23.3,0,42.3-19.2,42.3-42.9V340C84.6,316.3,65.6,297.1,42.3,297.1z"/>
<path fill="#5B5C5C" d="M112.3,299.6v303.3c0,18.2,12.4,34.9,30.6,34.9l42.4-1.2V732c0,23.7,14.2,42,37.5,42s41.1-18.3,41.1-42
	v-95.5h67.4V732c0,23.7,18.5,42,41.8,42c23.3,0,42.3-19.2,42.3-42.9l0.2-94.5h39.3c18.2,0,28.1-9.9,28.1-28.1V299.6H112.3z"/>
<path fill="#5B5C5C" d="M386.3,139.6L421,89.2c2-3,1.5-6.9-1.2-8.8c-2.7-1.9-6.5-0.9-8.6,2.1l-36.1,52.4
	c-23.8-9.4-50.2-14.6-78-14.6s-54.2,5.2-78,14.6l-36.1-52.4c-2.1-3-5.9-3.9-8.6-2.1c-2.7,1.9-3.2,5.8-1.2,8.8l34.8,50.4
	c-55.2,25.7-90.8,75-95.7,131.9H483C478,214.6,441.5,165.3,386.3,139.6z M217.8,219.1c-11.5,0-20.8-9.3-20.8-20.8
	c0-11.5,9.3-20.8,20.8-20.8c11.5,0,20.8,9.3,20.8,20.8C238.6,209.8,229.3,219.1,217.8,219.1z M379.1,219.1
	c-11.5,0-20.8-9.3-20.8-20.8c0-11.5,9.3-20.8,20.8-20.8c11.5,0,20.8,9.3,20.8,20.8C399.9,209.8,390.6,219.1,379.1,219.1z"/>
</svg>
