<svg xmlns="http://www.w3.org/2000/svg" xmlns:xlink="http://www.w3.org/1999/xlink" preserveAspectRatio="xMidYMid" width="30.75" height="37.093" viewBox="0 0 30.75 37.093">
  <defs>
    <style>
      .cls-1 {
        fill: #000;
        fill-rule: evenodd;
      }
    </style>
  </defs>
  <path d="M21.887,36.936 C19.963,36.936 17.987,35.517 15.862,35.517 C13.431,35.517 11.406,37.089 9.685,37.089 C7.306,37.089 5.179,35.011 3.458,31.818 C1.078,27.458 0.014,22.439 0.014,19.196 C0.014,13.062 5.230,8.348 10.495,8.348 C13.026,8.348 13.989,10.324 16.318,10.324 C19.255,10.324 21.025,8.246 23.152,8.246 C26.190,8.246 28.165,10.071 29.633,11.896 L29.532,11.947 C27.303,13.518 26.089,15.951 26.089,18.740 C26.089,22.186 27.710,24.568 30.697,26.191 L30.697,26.444 C30.697,26.595 30.748,26.748 30.748,26.951 C30.748,30.955 26.494,36.936 21.887,36.936 ZM16.212,9.667 L16.212,9.464 C16.112,8.908 16.060,8.401 16.060,7.995 C16.060,3.687 19.199,0.948 22.693,-0.014 L22.744,0.189 C22.794,0.695 22.845,1.152 22.845,1.507 C22.845,6.019 19.655,8.603 16.212,9.667 Z" class="cls-1"/>
</svg>
