<svg xmlns="http://www.w3.org/2000/svg" xmlns:xlink="http://www.w3.org/1999/xlink" preserveAspectRatio="xMidYMid" width="36" height="26.031" viewBox="0 0 36 26.031">
  <defs>
    <style>
      .cls-1 {
        fill: #000;
        fill-rule: evenodd;
      }
    </style>
  </defs>
  <path d="M31.054,12.118 C28.675,12.118 26.115,12.118 26.115,12.118 L27.000,6.031 C27.000,6.031 30.725,6.035 31.994,6.055 C35.040,6.102 36.008,7.293 36.014,8.512 C36.014,10.248 34.916,12.118 31.054,12.118 ZM34.175,18.523 C34.175,20.259 33.076,22.126 29.217,22.126 C26.840,22.126 24.278,22.126 24.278,22.126 L25.000,16.031 C25.000,16.031 28.738,16.031 30.000,16.031 C33.081,16.031 34.175,17.298 34.175,18.523 ZM19.000,6.031 C16.621,6.031 15.000,6.031 15.000,6.031 L15.817,0.015 C15.817,0.015 19.293,0.015 20.555,0.015 C23.634,0.015 24.366,1.567 24.366,2.797 C24.366,4.533 22.862,6.031 19.000,6.031 ZM22.654,12.410 C22.654,14.142 21.554,16.013 17.693,16.013 C15.319,16.013 12.758,16.013 12.758,16.013 L14.000,10.031 C14.000,10.031 17.731,10.031 19.000,10.031 C22.074,10.031 22.654,11.179 22.654,12.410 ZM20.818,22.418 C20.818,24.160 19.724,26.029 15.869,26.029 C13.488,26.029 10.924,26.029 10.924,26.029 L12.000,20.031 C12.000,20.031 15.732,20.031 17.000,20.031 C20.076,20.031 20.818,21.193 20.818,22.418 ZM7.000,6.031 C4.624,6.031 2.000,6.031 2.000,6.031 L3.042,0.015 C3.042,0.015 6.520,0.015 7.787,0.015 C10.863,0.015 11.600,1.567 11.600,2.797 C11.600,4.533 10.862,6.031 7.000,6.031 ZM9.888,12.410 C9.888,14.142 8.785,16.013 4.931,16.013 C2.549,16.013 -0.014,16.013 -0.014,16.013 L1.000,10.031 C1.000,10.031 4.740,10.031 6.000,10.031 C9.081,10.031 9.888,11.179 9.888,12.410 Z" class="cls-1"/>
</svg>
