<svg xmlns="http://www.w3.org/2000/svg" xmlns:xlink="http://www.w3.org/1999/xlink" preserveAspectRatio="xMidYMid" width="36.41" height="32.125" viewBox="0 0 36.41 32.125">
  <defs>
    <style>
      .cls-1 {
        fill: #000;
        fill-rule: evenodd;
      }
    </style>
  </defs>
  <path d="M33.489,28.047 C32.788,27.885 32.043,27.784 31.290,27.784 C30.003,27.784 28.832,28.007 27.967,28.365 C27.873,28.413 27.805,28.512 27.805,28.625 C27.805,28.666 27.816,28.708 27.832,28.743 C27.934,29.039 27.765,29.360 26.929,29.543 C25.690,29.815 24.906,31.091 24.459,31.515 C23.933,32.014 22.448,32.320 22.671,32.023 C22.846,31.790 23.515,31.066 23.921,30.282 C24.285,29.583 24.609,29.384 25.055,28.716 C25.185,28.519 25.692,27.832 25.840,27.288 C26.007,26.756 25.950,26.089 26.015,25.814 C26.105,25.419 26.480,24.559 26.507,24.074 C26.524,23.801 25.360,24.466 24.808,24.466 C24.256,24.466 23.717,24.136 23.224,24.112 C22.614,24.083 22.221,24.583 21.668,24.495 C21.353,24.445 21.087,24.168 20.536,24.147 C19.751,24.117 18.791,24.583 16.989,24.524 C15.216,24.467 13.580,22.290 13.356,21.942 C13.094,21.536 12.774,21.536 12.426,21.854 C12.077,22.174 11.647,21.924 11.525,21.710 C11.292,21.304 10.670,20.116 9.707,19.869 C8.376,19.524 7.703,20.603 7.789,21.463 C7.879,22.335 8.443,22.579 8.705,23.044 C8.966,23.508 9.101,23.807 9.593,24.013 C9.942,24.157 10.072,24.373 9.968,24.660 C9.876,24.908 9.514,24.964 9.274,24.977 C8.767,25.001 8.412,24.863 8.153,24.697 C7.851,24.506 7.606,24.239 7.343,23.787 C7.038,23.287 6.558,23.070 6.001,23.070 C5.734,23.070 5.484,23.140 5.263,23.255 C4.386,23.708 3.344,23.978 2.222,23.978 L0.957,23.978 C0.341,22.156 0.007,20.203 0.007,18.171 C0.007,8.138 8.155,0.005 18.209,0.005 C28.261,0.005 36.410,8.138 36.410,18.171 C36.410,21.812 35.337,25.202 33.489,28.047 ZM28.480,13.338 C28.300,13.942 28.045,14.712 26.907,15.296 C26.741,15.381 26.678,15.242 26.753,15.111 C27.184,14.382 27.259,14.199 27.386,13.911 C27.560,13.490 27.652,12.892 27.304,11.642 C26.620,9.183 25.191,5.897 24.153,4.830 C23.151,3.802 21.337,3.512 19.696,3.932 C19.091,4.086 17.910,4.700 15.718,4.208 C11.923,3.355 11.362,5.251 11.144,6.076 C10.927,6.902 10.403,9.251 10.403,9.251 C10.230,10.206 10.001,11.868 15.892,12.989 C18.636,13.510 18.776,14.219 18.897,14.727 C19.114,15.640 19.462,16.162 19.855,16.423 C20.247,16.684 19.855,16.900 19.419,16.944 C18.251,17.065 13.932,15.829 11.377,14.380 C9.285,13.104 9.250,11.956 9.730,10.981 C6.571,10.642 4.201,11.278 3.771,12.770 C3.033,15.330 9.412,19.706 16.676,21.900 C24.298,24.205 32.138,22.597 33.009,17.813 C33.406,15.642 31.572,14.034 28.480,13.338 ZM21.340,6.566 C20.963,6.556 20.608,6.502 20.304,6.414 C20.267,6.405 20.240,6.375 20.240,6.339 C20.240,6.302 20.267,6.270 20.304,6.261 C21.032,6.094 21.523,5.819 21.488,5.558 C21.442,5.215 20.490,5.028 19.362,5.141 C19.238,5.154 19.117,5.170 19.001,5.188 C18.998,5.188 18.995,5.188 18.992,5.188 C18.959,5.188 18.933,5.164 18.933,5.133 C18.933,5.112 18.946,5.092 18.966,5.084 C19.373,4.869 19.982,4.697 20.677,4.626 C20.886,4.605 21.090,4.594 21.287,4.592 C21.322,4.592 21.356,4.592 21.391,4.593 C22.557,4.620 23.492,5.083 23.478,5.627 C23.464,6.171 22.508,6.592 21.340,6.566 ZM16.792,8.655 C14.690,8.807 14.471,9.033 14.078,9.453 C13.522,10.043 12.791,8.687 12.791,8.687 C12.351,8.594 11.820,7.888 12.106,7.229 C12.390,6.576 12.912,6.772 13.076,6.973 C13.275,7.220 13.700,7.626 14.252,7.611 C14.803,7.598 15.440,7.482 16.328,7.482 C17.228,7.482 17.833,7.817 17.868,8.104 C17.897,8.350 17.794,8.583 16.792,8.655 ZM20.448,26.664 C20.749,26.841 21.217,27.214 21.628,26.883 C21.799,26.747 21.900,26.657 22.136,26.385 C22.148,26.373 22.163,26.366 22.179,26.366 C22.194,26.366 22.207,26.372 22.217,26.381 C22.311,26.471 22.473,26.777 22.275,27.167 C22.165,27.372 22.046,27.518 21.832,27.688 C21.577,27.893 21.076,28.129 20.389,27.695 C20.020,27.461 19.998,27.383 19.489,27.448 C19.125,27.495 18.981,27.129 19.110,26.824 C19.242,26.521 19.779,26.274 20.448,26.664 Z" class="cls-1"/>
</svg>
