<?xml version="1.0" encoding="iso-8859-1"?>
<!-- Generator: Adobe Illustrator 18.0.0, SVG Export Plug-In . SVG Version: 6.00 Build 0)  -->
<!DOCTYPE svg PUBLIC "-//W3C//DTD SVG 1.1//EN" "http://www.w3.org/Graphics/SVG/1.1/DTD/svg11.dtd">
<svg version="1.1" id="&#x56FE;&#x5C42;_1" xmlns="http://www.w3.org/2000/svg" xmlns:xlink="http://www.w3.org/1999/xlink" x="0px"
	 y="0px" viewBox="0 0 106.298 124.474" style="enable-background:new 0 0 106.298 124.474;" xml:space="preserve">
<path style="fill-rule:evenodd;clip-rule:evenodd;fill:#5B5C5C;" d="M36.905,105.979c4.472-0.459,5.063-5.172,2.956-7.23
	c-1.735-1.695-11.309-8.772-13.808-11.555c-1.16-1.292-2.731-1.925-3.397-3.376c-1.531-3.339-2.604-8.104-0.662-11.526
	c0.352-0.619,0.577-0.341,0.309,0.947c-1.525,7.302,3.249,13.266,4.3,10.207c0.726-2.112,0.053-5.893,0.441-8.896
	c0.687-5.313,5.543-15.513,7.676-16.096c-3.29-6.068,3.858-10.818,3.771-16.144c-0.057-3.463,3.055,4.258,6.183,5.896
	c3.493,1.828,7.333-3.445,12.782-6.121c1.542-0.757,3.52-1.627,3.387-2.272c-0.64-3.114-7.159,3.841-12.98,4.076
	c-2.658,0.106-3.643-0.519-4.67-1.507c-3.103-2.986,0.316-0.494,4.929-1.325c2.05-0.37,2.739-0.71,4.915-1.585
	c2.176-0.876,4.662-2.172,7.124-2.838c1.714-0.464,1.571-1.746,0.905-2.131c-0.384-0.222-0.952-0.201-1.403,0.575
	c-1.056,1.819-6.023,2.87-7.573,3.342c-1.991,0.606-4.193,1.173-7.117,1.054c-4.444-0.179-3.408-2.208-6.587-4.023
	c-0.932-0.532-0.681-1.929,0.558-3.163c0.648-0.647,2.427-1.012,3.309-2.482c0.124-0.206,1.26-1.39,2.151-2.002
	c0.308-0.213,0.335-5.615-2.449-5.726c-2.365-0.095-3.038,1.731-2.938,3.55c0.099,1.818,1.067,3.318,1.711,3.311
	c1.241-0.013,0.079,1.352-0.601,1.572c-1.033,0.335-2.449-4.049-2.286-6.153c0.17-2.192,1.316-6.075,4.103-5.999
	c2.509,0.068,4.328,3.201,4.236,8.604c-0.016,0.916,4.069-0.437,5.432,0.997c0.974,1.026-3.34-9.573,6.267-10.303
	c2.532,0.483,4.962,1.321,5.973,7.115c-0.374,0.603,0.63,4.645-0.932,5.125c-1.906,0.586-3.083-0.085-1.981-1.893
	c0.754-1.816,0.017-6.435-3.841-6.157c-3.859,0.277-3.347,7.095-2.289,7.23c1.058,0.134,3.722,2.017,5.582,2.378
	c6.105,1.183,1.62,4.668,2.412,8.885c0.895,4.764,4.046,3.506,6.879,16.12c0.591,0.768,2.937,1.496,5.223,11.187
	c2.056,8.719-0.855,15.06,4.089,14.539c1.114-0.117,2.741-0.427,3.449-2.897c1.85-6.457-0.927-14.152-3.731-19.345
	c-1.633-3.027-3.171-5.089-3.983-5.797c3.213,1.891,7.321,7.931,8.269,12.416c1.245,5.89,2.134,8.384,0.25,14.613
	c1.087,0.541,3.792,1.685,3.792,2.971c-2.818-2.307-11.445-2.716-11.667,2.799c-1.471,0.029-2.584,0.149-3.531,1.269
	c-3.468,4.096-0.248,12.327-0.599,16.741c-0.31,3.884-1.391,7.731-2.001,11.633c-2.065-0.078-1.863-1.584-1.201-3.694
	c0.585-1.863,1.527-4.197,1.589-6.435c0.056-2.026-0.166-3.291-0.679-3.605c-0.514-0.315-1.317,0.323-2.427,2.102
	c-2.369,3.799-7.5,5.47-12.292,6.067c-4.791,0.598-9.245,0.124-11.604-2.507c-0.806-0.9-2.144,0.245-2.303,0.484
	c-0.213,0.32,0.781,0.942,1.529,2.31c1.094,1.998,2.134,5.03-0.457,6.414C41.426,110.69,39.19,110.278,36.905,105.979
	L36.905,105.979z M35.192,105.793c1.717,2.691,7.767,14.023-2.839,15.494c-3.547,0.492-9.259-2.055-14.792-3.403
	c-4.972-1.211-10.021-1.928-12.846-2.719c-1.701-0.476-2.412-1.084-2.56-1.793c-0.392-1.881,2.066-4.519,2.19-6.745
	c0.125-2.227-0.816-3.384-1.586-5.201c-0.772-1.821-0.972-3.185-0.355-3.966c0.48-0.607,1.456-0.861,3.043-0.707
	c2.012,0.197,4.441-0.213,5.747-1.006c2.199-1.336,3.233-4.073,2.244-7.37c0,3.227-1.063,4.449-3.727,5.924
	c-2.51,1.391-6.386,0.266-8.167,1.805c-2.143,1.852,0.765,6.633,0.527,10.142c-0.183,2.696-3.009,5.735-1.749,8.439
	c1.268,2.721,7.18,3.018,13.345,4.3c8.762,1.826,13.872,5.002,17.92,5.152c5.906,0.218,6.811-5.819,16.085-5.9
	c2.704-0.142,5.35-0.225,7.992-0.259c2.995-0.037,5.986-0.013,9.057,0.061c6.171,0.148,4.049,3.355,8.053,5.404
	c3.378,1.728,9.451,1.046,10.905-0.334c1.966-1.867,7.246-6.36,11.29-8.389c5.043-2.531,16.882-6.885,8.287-12.196
	c-2.003-1.238-6.739-2.546-7.138-11.599c-1.793,1.586-1.586,10.022,3.419,11.696c5.59,1.869,9.082,5-1.31,8.539
	c-6.88,2.343-8.05,3.065-13.496,7.579c-5.511,4.568-13.691,2.754-12.262-6.865c0.744-5.011,1.172-9.152-0.08-13.507
	c-0.611-2.128-0.916-4.857-0.498-6.771c0.812-3.722,2.836-4.842,4.819-1.269c1.245,2.243,1.681,4.865,6.138,5.078
	c7.002,0.334,8.388-6.737,10.626-7.059c1.493-0.214,2.984-4.421,1.848-11.225c-1.218-7.285-5.523-18.787-11.043-24.62
	c-4.588-4.848-7.479-9.098-9.298-15.165c-1.528-5.097-2.382-10.058-2.067-14.801C73.323,16.392,69.9,7.84,64.451,3.816
	c-3.411-2.519-8.759-3.868-13.601-3.815c-2.715,0.029-5.27,0.424-7.234,1.485c-8.081,4.368-9.21,10.608-9.089,17.73
	c0.113,6.69,0.342,14.324,1.105,21.586c-0.904,3.335-5.608,9.656-8.621,13.503c-4.051,3.984-6.096,11.684-8.718,18.412
	c-1.398,3.586-3.753,5.206-3.951,9.817c-0.055,1.29-0.011,4.626,1.227,3.672C20.308,82.558,26.238,91.756,35.192,105.793
	L35.192,105.793z M59.781,9.365c-0.255,0.76-1.306,1.393-0.639,1.926c0.668,0.532,1.05-0.744,2.393-1.222
	c0.347-0.124,1.961,0.052,2.258-0.712c0.13-0.333-0.832-0.713-1.405-1.259c-0.573-0.544-1.135-1.03-1.674-0.995
	C59.323,7.191,60.007,8.691,59.781,9.365L59.781,9.365z M45.794,28.544c-2.215-0.165-2.367,1.43-1.633,1.404
	C44.909,29.922,44.449,28.686,45.794,28.544L45.794,28.544z M41.994,24.47c0.262-0.057,0.634,0.387,0.519,1.01
	c-0.161,0.864-0.091,1.406,0.511,1.409c0.099,0,0.206-0.018,0.244-0.243c0.289-1.723-0.61-2.987-0.978-3.081
	C41.443,23.35,41.546,24.565,41.994,24.47L41.994,24.47z M58.122,23.741c0.562,0.167,1.103,1.136,1.221,2.182
	c0.011,0.097,0.734-0.15,0.741-0.379c0.045-1.685-1.399-2.477-1.777-2.443C57.437,23.18,57.682,23.611,58.122,23.741L58.122,23.741z
	 M49.854,28.75c2.015-0.929,2.72,0.511,2.024,0.743C51.169,29.729,51.163,28.412,49.854,28.75L49.854,28.75z"/>
</svg>
