<svg xmlns="http://www.w3.org/2000/svg" xmlns:xlink="http://www.w3.org/1999/xlink" preserveAspectRatio="xMidYMid" width="36.184" height="37.219" viewBox="0 0 36.184 37.219">
  <defs>
    <style>
      .cls-1 {
        fill: #000;
        fill-rule: evenodd;
      }
    </style>
  </defs>
  <path d="M21.181,9.230 C19.889,9.230 18.660,9.506 17.549,10.005 L14.480,4.689 C16.500,3.679 18.777,3.109 21.181,3.109 C22.140,3.109 23.077,3.200 23.986,3.373 C23.971,3.538 23.963,3.705 23.963,3.874 C23.963,6.857 26.395,9.289 29.378,9.289 C30.549,9.289 31.634,8.914 32.521,8.278 C34.583,10.639 35.922,13.644 36.189,16.945 L30.057,17.134 C29.545,12.696 25.755,9.230 21.181,9.230 ZM29.378,7.758 C27.238,7.758 25.493,6.014 25.493,3.874 C25.493,1.735 27.238,-0.010 29.378,-0.010 C31.518,-0.010 33.263,1.735 33.263,3.874 C33.263,6.014 31.518,7.758 29.378,7.758 ZM12.247,18.163 C12.247,20.987 13.569,23.511 15.626,25.150 L12.590,30.512 C9.972,28.685 7.958,26.049 6.915,22.971 C8.345,21.995 9.288,20.352 9.288,18.496 C9.288,16.566 8.269,14.867 6.741,13.908 C7.705,10.650 9.745,7.846 12.448,5.912 L15.681,11.132 C13.592,12.769 12.247,15.315 12.247,18.163 ZM3.872,22.381 C1.733,22.381 -0.012,20.636 -0.012,18.496 C-0.012,16.357 1.733,14.612 3.872,14.612 C6.013,14.612 7.757,16.357 7.757,18.496 C7.757,20.636 6.013,22.381 3.872,22.381 ZM21.181,27.096 C25.777,27.096 29.581,23.597 30.065,19.127 L36.200,19.224 C35.948,22.814 34.428,26.064 32.086,28.526 C31.337,28.134 30.486,27.912 29.586,27.912 C26.742,27.912 24.397,30.123 24.186,32.914 C23.214,33.112 22.210,33.217 21.181,33.217 C18.824,33.217 16.589,32.669 14.600,31.696 L17.655,26.368 C18.738,26.836 19.931,27.096 21.181,27.096 ZM29.586,29.442 C31.725,29.442 33.470,31.187 33.470,33.327 C33.470,35.465 31.725,37.211 29.586,37.211 C27.446,37.211 25.701,35.465 25.701,33.327 C25.701,31.187 27.446,29.442 29.586,29.442 Z" class="cls-1"/>
</svg>
