<svg xmlns="http://www.w3.org/2000/svg" xmlns:xlink="http://www.w3.org/1999/xlink" preserveAspectRatio="xMidYMid" width="28.625" height="36.75" viewBox="0 0 28.625 36.75">
  <defs>
    <style>
      .cls-1 {
        fill: #000;
        fill-rule: evenodd;
      }
    </style>
  </defs>
  <path d="M28.185,27.413 C27.378,30.420 25.064,33.640 24.034,34.698 C23.004,35.756 22.006,36.591 19.768,36.741 C17.529,36.891 14.217,35.494 12.186,33.998 C10.156,32.502 8.492,29.988 7.737,28.107 C6.982,26.226 6.635,24.631 6.392,22.518 C5.922,18.444 6.880,14.612 10.373,12.113 C12.727,10.429 17.581,9.451 19.994,11.640 C21.118,12.659 21.563,13.989 21.278,15.123 C20.995,16.257 19.549,18.751 15.217,21.778 C14.191,22.495 13.980,23.853 14.463,25.332 C14.946,26.811 17.024,27.741 18.922,27.799 C20.820,27.856 21.536,27.401 21.728,26.835 C22.205,25.430 19.255,25.210 19.445,23.610 C19.568,22.576 21.728,21.324 23.727,21.169 C25.725,21.015 27.190,21.608 27.839,22.480 C28.489,23.352 28.992,24.407 28.185,27.413 ZM16.500,9.237 C14.263,9.655 12.229,7.861 11.692,6.276 C11.154,4.691 11.687,2.770 12.091,1.849 C12.495,0.929 13.047,-0.114 14.442,-0.004 C15.837,0.107 17.833,2.382 18.229,3.764 C18.668,5.293 18.736,8.818 16.500,9.237 ZM9.920,9.165 C8.881,9.523 6.832,9.221 5.523,7.286 C4.214,5.352 5.154,3.806 6.216,3.260 C7.277,2.714 9.102,2.868 9.884,4.544 C10.510,5.886 10.960,8.807 9.920,9.165 ZM6.094,13.945 C5.172,14.982 2.778,14.345 1.977,13.195 C1.176,12.046 0.776,9.152 2.160,8.670 C3.544,8.187 4.759,9.530 5.314,10.194 C5.868,10.857 7.017,12.908 6.094,13.945 ZM3.661,15.877 C5.369,16.870 5.439,19.359 4.431,19.765 C3.617,20.094 2.173,19.881 1.272,19.160 C0.371,18.439 -0.288,16.808 0.105,15.904 C0.497,15.000 2.305,15.090 3.661,15.877 Z" class="cls-1"/>
</svg>
