<?xml version="1.0" encoding="utf-8"?>
<!-- Generator: Adobe Illustrator 18.0.0, SVG Export Plug-In . SVG Version: 6.00 Build 0)  -->
<!DOCTYPE svg PUBLIC "-//W3C//DTD SVG 1.1//EN" "http://www.w3.org/Graphics/SVG/1.1/DTD/svg11.dtd">
<svg version="1.1" id="图层_1" xmlns="http://www.w3.org/2000/svg" xmlns:xlink="http://www.w3.org/1999/xlink" x="0px" y="0px"
	 viewBox="0 0 595.3 841.9" enable-background="new 0 0 595.3 841.9" xml:space="preserve">
<path fill="#5B5C5C" d="M133.2,507c5.1,43.8,12.3,76.9,28,116s50.3,91.2,92.6,122.2c42.2,31,111.1,60,157.7,56.9
	c46.6-3.1,67.3-20.4,88.8-42.4c21.4-21.9,69.6-88.8,86.4-151.1c16.8-62.4,6.3-84.3-7.2-102.4c-13.5-18.1-44-30.4-85.6-27.2
	c-41.6,3.2-86.5,29.2-89.1,50.6c-3.9,33.2,57.4,37.8,47.5,66.9c-4,11.7-18.9,21.2-58.4,20c-39.5-1.2-82.7-20.5-92.8-51.2
	c-10-30.7-5.7-58.9,15.7-73.7c90.1-62.8,120.2-114.6,126.1-138.1c5.9-23.5-3.3-51.1-26.7-72.3c-50.2-45.4-151.2-25.1-200.2,9.8
	C143.4,343,123.4,422.5,133.2,507L133.2,507L133.2,507z"/>
<path fill="#5B5C5C" d="M251.8,78.2c-8.4,19.1-19.5,59-8.3,91.8c11.2,32.9,53.5,70.1,100,61.4c46.5-8.7,45.1-81.8,36-113.5
	c-8.2-28.7-49.8-75.9-78.8-78.2C271.7,37.4,260.2,59.1,251.8,78.2L251.8,78.2L251.8,78.2z"/>
<path fill="#5B5C5C" d="M115.1,191c27.2,40.1,69.9,46.4,91.5,39c21.6-7.4,12.3-68-0.8-95.9c-16.3-34.8-54.2-38-76.3-26.6
	C107.5,118.8,87.9,150.9,115.1,191L115.1,191L115.1,191z"/>
<path fill="#5B5C5C" d="M45.2,219.7c-28.8,10-20.5,70-3.8,93.9c16.7,23.8,66.5,37.1,85.7,15.6c19.2-21.5-4.7-64.1-16.2-77.8
	C99.2,237.5,74,209.7,45.2,219.7L45.2,219.7L45.2,219.7z"/>
<path fill="#5B5C5C" d="M2.4,369.8c8.2-18.8,45.8-16.9,74-0.6c35.6,20.6,37,72.2,16,80.7c-16.9,6.8-47,2.4-65.7-12.6
	C7.9,422.4-5.8,388.5,2.4,369.8L2.4,369.8L2.4,369.8z"/>
</svg>
