<?xml version="1.0" encoding="utf-8"?>
<!-- Generator: Adobe Illustrator 18.0.0, SVG Export Plug-In . SVG Version: 6.00 Build 0)  -->
<!DOCTYPE svg PUBLIC "-//W3C//DTD SVG 1.1//EN" "http://www.w3.org/Graphics/SVG/1.1/DTD/svg11.dtd">
<svg version="1.1" id="图层_1" xmlns="http://www.w3.org/2000/svg" xmlns:xlink="http://www.w3.org/1999/xlink" x="0px" y="0px"
	 viewBox="0 0 595.3 841.9" enable-background="new 0 0 595.3 841.9" xml:space="preserve">
<path fill="#5B5C5C" d="M297.6,158.9C133.3,158.9,0,291.6,0,455.2c0,33.1,5.5,65,15.5,94.7h20.7c18.3,0,35.4-4.4,49.7-11.8
	c3.6-1.9,7.7-3,12.1-3c9.1,0,17,3.5,21.9,11.7c4.3,7.4,8.3,11.7,13.2,14.8c4.2,2.7,10,5,18.3,4.6c3.9-0.2,9.8-1.1,11.3-5.2
	c1.7-4.7-0.4-8.2-6.1-10.5c-8-3.4-10.2-8.2-14.5-15.8c-4.3-7.6-13.5-11.6-15-25.8c-1.4-14,9.6-31.6,31.4-26
	c15.7,4,25.9,23.4,29.7,30c2,3.5,9,7.6,14.7,2.3c5.7-5.2,10.9-5.2,15.2,1.4c3.7,5.7,30.4,41.2,59.4,42.1c29.5,1,45.2-6.6,58-6.2
	c9,0.3,13.4,4.9,18.5,5.7c9.1,1.4,15.5-6.7,25.5-6.3c8.1,0.4,16.9,5.8,25.9,5.8c9,0,28.1-10.8,27.8-6.4c-0.4,7.9-6.6,21.9-8.1,28.4
	c-1.1,4.5-0.1,15.4-2.9,24c-2.4,8.9-10.7,20.1-12.8,23.3c-7.3,10.9-12.6,14.1-18.5,25.5c-6.6,12.8-17.6,24.6-20.4,28.4
	c-3.6,4.9,20.6-0.1,29.2-8.3c7.3-6.9,20.1-27.7,40.4-32.2c13.7-3,16.4-8.2,14.8-13c-0.3-0.6-0.4-1.3-0.4-1.9c0-1.9,1.1-3.5,2.6-4.2
	c14.1-5.8,33.3-9.5,54.3-9.5c12.3,0,24.5,1.7,36,4.3c30.2-46.4,47.8-101.7,47.8-161C595.3,291.6,462,158.9,297.6,158.9z
	 M539.7,449.3c-14.2,78-142.4,104.2-267.1,66.7c-118.8-35.8-223.1-107.1-211-148.9c7-24.3,45.8-34.7,97.4-29.2
	c-7.8,15.9-7.3,34.6,26.9,55.4c41.8,23.6,112.4,43.8,131.5,41.8c7.1-0.7,13.5-4.2,7.1-8.5c-6.4-4.3-12.1-12.8-15.7-27.7
	c-2-8.3-4.3-19.8-49.1-28.3c-96.3-18.3-92.6-45.4-89.8-61c0,0,8.6-38.3,12.1-51.8c3.6-13.5,12.7-44.4,74.8-30.5
	c35.8,8,55.2-2,65.1-4.5c26.8-6.9,56.5-2.1,72.9,14.6c17,17.4,40.3,71,51.5,111.1c5.7,20.4,4.2,30.1,1.3,37
	c-2.1,4.7-3.3,7.7-10.3,19.6c-1.2,2.1-0.2,4.4,2.5,3c18.6-9.5,22.8-22.1,25.7-31.9C516.2,387.7,546.2,413.9,539.7,449.3z"/>
<path fill="#5B5C5C" d="M362.6,588.8c-0.3,0-0.5,0.1-0.7,0.3c-3.9,4.4-5.5,5.9-8.3,8.1c-6.7,5.4-14.4-0.7-19.3-3.6
	c-10.9-6.4-19.7-2.3-21.9,2.6c-2.1,5,0.2,10.9,6.2,10.2c8.3-1.1,8.7,0.2,14.7,4c11.2,7.1,19.4,3.2,23.6-0.1c3.5-2.8,5.5-5.2,7.3-8.5
	c3.2-6.4,0.6-11.3-1-12.8C363,588.9,362.8,588.8,362.6,588.8z"/>
<path fill="#5B5C5C" d="M266.9,280.9c-14.5,0-24.9,1.9-34,2.1c-9,0.2-16-6.4-19.2-10.4c-2.7-3.3-11.2-6.5-15.9,4.2
	c-4.7,10.8,4,22.3,11.2,23.8c0,0,11.9,22.1,21,12.5c6.4-6.8,10-10.5,44.4-13c16.4-1.2,18.1-5,17.6-9
	C291.5,286.3,281.6,280.9,266.9,280.9z"/>
<path fill="#5B5C5C" d="M349.7,233.8c-0.6,0-1.1,0-1.7,0c-3.2,0-6.6,0.2-10,0.6c-11.4,1.2-21.3,4-28,7.5c-0.3,0.1-0.5,0.4-0.5,0.8
	c0,0.5,0.4,0.9,1,0.9c0,0,0.1,0,0.1,0c1.9-0.3,3.9-0.6,5.9-0.8c18.5-1.8,34,1.2,34.8,6.8c0.6,4.3-7.5,8.7-19.4,11.5
	c-0.6,0.1-1,0.7-1,1.3c0,0.6,0.4,1.1,1,1.2c5,1.4,10.8,2.3,16.9,2.5c19.1,0.4,34.7-6.4,35-15.3C384,241.7,368.8,234.2,349.7,233.8z"
	/>
</svg>
