<svg xmlns="http://www.w3.org/2000/svg" xmlns:xlink="http://www.w3.org/1999/xlink" preserveAspectRatio="xMidYMid" width="31.719" height="37.25" viewBox="0 0 31.719 37.25">
  <defs>
    <style>
      .cls-1 {
        fill: #000;
        fill-rule: evenodd;
      }
    </style>
  </defs>
  <path d="M11.008,31.721 C12.343,31.583 12.519,30.173 11.890,29.558 C11.372,29.050 8.516,26.933 7.770,26.100 C7.424,25.714 6.955,25.524 6.756,25.090 C6.300,24.091 5.979,22.665 6.559,21.641 C6.664,21.456 6.731,21.539 6.651,21.925 C6.196,24.110 7.621,25.894 7.934,24.979 C8.151,24.347 7.950,23.215 8.066,22.317 C8.271,20.727 9.720,17.675 10.356,17.501 C9.375,15.685 11.507,14.264 11.481,12.670 C11.464,11.634 12.393,13.945 13.326,14.435 C14.369,14.981 15.514,13.404 17.141,12.603 C17.601,12.376 18.191,12.116 18.151,11.923 C17.960,10.991 16.015,13.072 14.278,13.142 C13.485,13.174 13.191,12.987 12.885,12.692 C11.959,11.798 12.979,12.544 14.355,12.295 C14.967,12.185 15.173,12.083 15.822,11.821 C16.471,11.559 17.213,11.171 17.948,10.972 C18.459,10.833 18.416,10.449 18.217,10.334 C18.103,10.268 17.933,10.274 17.799,10.506 C17.484,11.051 16.002,11.365 15.539,11.506 C14.945,11.688 14.288,11.857 13.415,11.822 C12.089,11.768 12.398,11.161 11.450,10.618 C11.172,10.459 11.247,10.041 11.616,9.672 C11.810,9.478 12.341,9.369 12.604,8.929 C12.641,8.867 12.980,8.513 13.246,8.330 C13.338,8.266 13.346,6.650 12.515,6.617 C11.809,6.588 11.609,7.135 11.638,7.679 C11.668,8.223 11.956,8.672 12.149,8.669 C12.519,8.666 12.172,9.074 11.969,9.140 C11.661,9.240 11.239,7.928 11.287,7.299 C11.338,6.643 11.680,5.481 12.512,5.504 C13.260,5.524 13.803,6.461 13.776,8.078 C13.771,8.352 14.990,7.947 15.396,8.376 C15.687,8.683 14.400,5.512 17.266,5.293 C18.022,5.438 18.747,5.689 19.049,7.422 C18.937,7.603 19.237,8.812 18.770,8.956 C18.201,9.131 17.850,8.930 18.179,8.389 C18.404,7.846 18.184,6.464 17.033,6.547 C15.882,6.630 16.034,8.670 16.350,8.710 C16.666,8.751 17.461,9.314 18.016,9.422 C19.837,9.776 18.499,10.818 18.735,12.080 C19.002,13.506 19.943,13.129 20.788,16.904 C20.964,17.134 21.664,17.351 22.346,20.251 C22.960,22.860 22.091,24.757 23.566,24.601 C23.899,24.566 24.384,24.473 24.595,23.734 C25.147,21.802 24.319,19.500 23.482,17.946 C22.995,17.040 22.536,16.424 22.294,16.212 C23.252,16.777 24.478,18.585 24.761,19.927 C25.132,21.689 25.398,22.435 24.836,24.299 C25.160,24.461 25.967,24.803 25.967,25.188 C25.126,24.498 22.552,24.375 22.486,26.026 C22.047,26.034 21.715,26.070 21.432,26.405 C20.397,27.631 21.358,30.094 21.254,31.414 C21.161,32.576 20.838,33.728 20.656,34.895 C20.040,34.872 20.101,34.421 20.298,33.790 C20.473,33.232 20.754,32.534 20.772,31.864 C20.789,31.258 20.722,30.880 20.570,30.786 C20.416,30.691 20.177,30.882 19.846,31.415 C19.139,32.551 17.608,33.051 16.178,33.230 C14.748,33.409 13.419,33.267 12.715,32.480 C12.475,32.211 12.076,32.553 12.028,32.625 C11.965,32.721 12.261,32.907 12.485,33.316 C12.811,33.914 13.121,34.821 12.348,35.235 C12.357,33.130 11.690,33.007 11.008,31.721 L11.008,31.721 ZM10.497,31.665 C11.010,32.470 12.815,35.861 9.650,36.301 C8.592,36.448 6.888,35.686 5.236,35.283 C3.753,34.920 2.246,34.706 1.403,34.469 C0.896,34.327 0.684,34.145 0.639,33.933 C0.522,33.370 1.256,32.581 1.293,31.914 C1.330,31.248 1.049,30.902 0.820,30.358 C0.589,29.813 0.530,29.405 0.714,29.171 C0.857,28.990 1.148,28.914 1.622,28.960 C2.222,29.019 2.947,28.896 3.336,28.659 C3.993,28.259 4.301,27.440 4.006,26.454 C4.006,27.419 3.689,27.785 2.894,28.226 C2.145,28.643 0.989,28.306 0.457,28.766 C-0.183,29.321 0.685,30.751 0.614,31.801 C0.560,32.608 -0.284,33.517 0.093,34.326 C0.471,35.140 2.235,35.229 4.074,35.613 C6.689,36.159 8.214,37.110 9.422,37.155 C11.184,37.220 11.454,35.414 14.221,35.389 C15.028,35.347 15.817,35.322 16.606,35.312 C17.500,35.301 18.392,35.308 19.308,35.330 C21.150,35.374 20.517,36.334 21.711,36.947 C22.719,37.464 24.532,37.260 24.965,36.847 C25.552,36.288 27.127,34.944 28.334,34.337 C29.839,33.580 33.372,32.277 30.807,30.688 C30.209,30.317 28.796,29.926 28.677,27.217 C28.142,27.692 28.204,30.216 29.697,30.717 C31.365,31.276 32.407,32.213 29.306,33.272 C27.253,33.973 26.904,34.189 25.279,35.540 C23.635,36.906 21.194,36.363 21.620,33.486 C21.842,31.986 21.970,30.747 21.596,29.444 C21.414,28.808 21.323,27.991 21.448,27.418 C21.690,26.304 22.294,25.969 22.886,27.038 C23.257,27.709 23.387,28.494 24.717,28.558 C26.806,28.658 27.220,26.542 27.888,26.446 C28.333,26.381 28.778,25.123 28.439,23.087 C28.076,20.907 26.791,17.466 25.144,15.720 C23.775,14.270 22.912,12.998 22.370,11.183 C21.914,9.657 21.659,8.173 21.753,6.754 C21.875,4.915 20.854,2.356 19.228,1.152 C18.210,0.399 16.614,-0.005 15.169,0.011 C14.359,0.020 13.597,0.138 13.011,0.455 C10.599,1.762 10.263,3.630 10.299,5.761 C10.333,7.762 10.401,10.046 10.629,12.219 C10.359,13.217 8.955,15.109 8.056,16.260 C6.848,17.452 6.237,19.756 5.455,21.769 C5.038,22.842 4.335,23.326 4.276,24.706 C4.260,25.092 4.273,26.090 4.643,25.805 C6.056,24.713 7.825,27.465 10.497,31.665 L10.497,31.665 ZM17.834,2.813 C17.758,3.040 17.444,3.230 17.643,3.389 C17.843,3.548 17.957,3.166 18.358,3.023 C18.461,2.986 18.943,3.039 19.031,2.810 C19.070,2.710 18.783,2.597 18.612,2.433 C18.441,2.271 18.273,2.125 18.113,2.136 C17.698,2.162 17.902,2.611 17.834,2.813 L17.834,2.813 ZM13.661,8.551 C13.000,8.502 12.954,8.979 13.173,8.971 C13.396,8.964 13.259,8.594 13.661,8.551 L13.661,8.551 ZM12.527,7.332 C12.605,7.315 12.716,7.448 12.681,7.635 C12.633,7.893 12.654,8.055 12.834,8.056 C12.863,8.056 12.895,8.051 12.907,7.983 C12.993,7.468 12.725,7.089 12.615,7.061 C12.362,6.997 12.393,7.361 12.527,7.332 L12.527,7.332 ZM17.339,7.114 C17.507,7.164 17.668,7.454 17.704,7.767 C17.707,7.796 17.923,7.722 17.925,7.654 C17.938,7.150 17.507,6.913 17.394,6.923 C17.135,6.946 17.208,7.075 17.339,7.114 L17.339,7.114 ZM14.872,8.613 C15.474,8.335 15.684,8.766 15.476,8.835 C15.264,8.906 15.263,8.512 14.872,8.613 L14.872,8.613 Z" class="cls-1"/>
</svg>
