<?xml version="1.0" encoding="iso-8859-1"?>
<!-- Generator: Adobe Illustrator 18.0.0, SVG Export Plug-In . SVG Version: 6.00 Build 0)  -->
<!DOCTYPE svg PUBLIC "-//W3C//DTD SVG 1.1//EN" "http://www.w3.org/Graphics/SVG/1.1/DTD/svg11.dtd">
<svg version="1.1" id="&#x56FE;&#x5C42;_1" xmlns="http://www.w3.org/2000/svg" xmlns:xlink="http://www.w3.org/1999/xlink" x="0px"
	 y="0px" viewBox="0 0 123 123" style="enable-background:new 0 0 123 123;" xml:space="preserve">
<path style="fill:#5B5C5C;" d="M61.5,0C27.535,0,0,27.534,0,61.5S27.535,123,61.5,123S123,95.465,123,61.5S95.465,0,61.5,0z
	 M64.578,63.372c4.522,6.324,9.004,12.694,13.485,19.048c2.782,3.944,8.467,12.079,12.877,18.489h-5.124
	c-3.963-5.698-9.566-13.746-11.919-17.129c-3.872-5.569-7.72-11.185-11.577-16.764c-0.761-1.102-0.84-1.068-1.571-0.006
	c-3.571,5.189-7.164,10.372-10.76,15.544c-3.663,5.27-7.34,10.548-11.006,15.815c-0.411,0.59-1.274,1.827-1.675,2.54h-5.179
	c0.981-1.424,2.337-3.449,3.227-4.723c3.819-5.47,7.628-10.98,11.467-16.436c2.543-3.615,5.127-7.201,7.699-10.795
	c1.354-1.892,2.764-3.745,4.052-5.68c0.253-0.379,0.289-1.206,0.043-1.563c-1.245-1.806-2.657-3.496-3.931-5.283
	c-1.272-1.785-2.445-3.64-3.674-5.456c-0.395-0.584-0.834-1.138-1.241-1.715c-3.685-5.238-7.365-10.479-11.051-15.716
	c-1.566-2.226-5.698-7.888-8.185-11.449h5.147c4.632,6.647,11.589,16.348,15.549,22.003c3.39,4.842,6.781,9.683,10.323,14.741
	c0.816-1.154,1.52-2.141,2.216-3.134c7.072-10.093,16.466-23.402,23.569-33.61h5.165c-1.482,2.137-3.779,5.313-4.54,6.392
	c-2.911,4.128-5.825,8.255-8.732,12.386c-3.194,4.54-6.376,9.09-9.573,13.627c-1.677,2.38-3.359,4.76-5.076,7.112
	C64.123,62.241,64.092,62.692,64.578,63.372z"/>
</svg>
