<svg xmlns="http://www.w3.org/2000/svg" xmlns:xlink="http://www.w3.org/1999/xlink" preserveAspectRatio="xMidYMid" width="31" height="35" viewBox="0 0 31 35">
  <defs>
    <style>
      .cls-1 {
        fill: #000;
        fill-rule: evenodd;
      }
    </style>
  </defs>
  <path d="M30.000,4.000 L18.329,4.054 C18.925,3.115 19.582,2.167 20.325,1.217 C20.569,0.904 20.537,0.452 20.242,0.189 L20.236,0.183 C19.923,-0.095 19.438,-0.052 19.180,0.279 C18.187,1.549 17.336,2.813 16.592,4.054 C16.592,4.054 0.730,4.054 0.996,4.002 C0.944,3.933 0.066,4.576 -0.000,5.000 L-0.000,4.899 L-0.000,30.000 L-0.000,30.000 C-0.000,30.413 0.595,31.003 1.000,31.000 L17.000,31.000 C17.311,32.252 18.203,33.211 18.785,34.549 C18.953,34.936 19.414,35.099 19.785,34.908 C20.134,34.728 20.275,34.298 20.115,33.934 C19.624,32.819 19.263,32.112 19.000,31.000 C19.050,30.860 30.000,31.000 30.000,31.000 C30.401,30.997 31.000,30.231 31.000,29.821 L31.000,29.816 L31.000,4.801 L31.000,4.799 C31.000,4.388 30.403,4.000 30.000,4.000 ZM2.000,30.000 C1.597,30.000 1.000,29.411 1.000,29.000 L1.000,6.000 C1.000,5.589 1.597,5.000 2.000,5.000 L16.000,5.000 C11.579,12.705 11.759,18.972 11.760,19.305 L11.763,20.063 L16.327,20.063 C16.782,20.063 17.121,20.480 17.045,20.937 C16.899,21.818 16.767,22.974 16.744,24.337 C16.342,24.354 15.928,24.364 15.500,24.364 C10.383,24.364 7.140,23.004 5.905,22.369 C5.572,22.198 5.170,22.319 4.971,22.640 L4.957,22.662 C4.727,23.031 4.850,23.521 5.232,23.721 C6.611,24.442 10.049,25.884 15.500,25.884 C15.935,25.884 16.358,25.875 16.766,25.857 C16.824,27.107 16.683,28.539 17.000,30.000 L2.000,30.000 ZM30.000,29.000 C30.000,29.411 29.403,30.000 29.000,30.000 L19.000,30.000 C18.718,28.772 18.360,27.545 18.279,26.463 C18.250,26.066 18.549,25.727 18.935,25.681 C22.425,25.258 24.702,24.273 25.764,23.713 C26.147,23.510 26.272,23.019 26.038,22.649 L26.024,22.627 C25.822,22.306 25.422,22.189 25.089,22.362 C24.175,22.836 22.158,23.711 19.074,24.128 C18.622,24.190 18.230,23.798 18.258,23.334 C18.397,21.025 18.835,19.571 18.845,19.539 L19.155,18.543 L18.154,18.543 L14.061,18.543 C13.623,18.543 13.283,18.156 13.335,17.712 C13.623,15.240 14.665,10.507 18.000,5.000 L29.000,5.000 C29.403,5.000 30.000,5.589 30.000,6.000 L30.000,29.000 ZM8.000,12.000 L7.911,12.004 C8.343,12.004 9.000,11.418 9.000,11.000 L9.000,9.000 C9.000,8.582 8.343,8.008 7.911,8.008 L8.000,8.000 C7.567,8.000 6.988,8.346 6.988,8.764 L6.988,11.248 C6.988,11.665 7.567,12.000 8.000,12.000 ZM22.000,8.000 L22.067,8.008 C21.634,8.008 21.000,8.582 21.000,9.000 L21.000,11.000 C21.000,11.418 21.634,12.004 22.067,12.004 L22.000,12.000 C22.433,12.000 22.990,11.665 22.990,11.248 L22.990,8.764 C22.990,8.346 22.433,8.000 22.000,8.000 Z" class="cls-1"/>
</svg>
