<svg xmlns="http://www.w3.org/2000/svg" xmlns:xlink="http://www.w3.org/1999/xlink" preserveAspectRatio="xMidYMid" width="36" height="36" viewBox="0 0 36 36">
  <defs>
    <style>
      .cls-1 {
        fill: #000;
        fill-rule: evenodd;
      }
    </style>
  </defs>
  <path d="M18.007,0.005 C8.062,0.005 -0.000,8.061 -0.000,18.000 C-0.000,27.938 8.062,35.995 18.007,35.995 C27.952,35.995 36.014,27.938 36.014,18.000 C36.014,8.061 27.952,0.005 18.007,0.005 ZM18.908,18.548 C20.232,20.398 21.545,22.262 22.857,24.121 C23.671,25.275 25.336,27.656 26.627,29.531 L25.127,29.531 C23.966,27.864 22.325,25.509 21.637,24.519 C20.503,22.890 19.376,21.246 18.247,19.614 C18.024,19.292 18.001,19.301 17.787,19.612 C16.741,21.130 15.689,22.647 14.637,24.160 C13.564,25.702 12.487,27.247 11.414,28.788 C11.294,28.961 11.041,29.323 10.924,29.531 L9.407,29.531 C9.695,29.114 10.092,28.522 10.352,28.149 C11.470,26.549 12.586,24.936 13.710,23.340 C14.454,22.282 15.211,21.233 15.964,20.181 C16.360,19.628 16.773,19.085 17.150,18.519 C17.224,18.408 17.235,18.166 17.163,18.062 C16.798,17.533 16.385,17.039 16.012,16.516 C15.639,15.994 15.296,15.451 14.936,14.919 C14.821,14.748 14.692,14.586 14.573,14.417 C13.494,12.885 12.417,11.351 11.338,9.819 C10.879,9.167 9.669,7.511 8.941,6.469 L10.448,6.469 C11.804,8.414 13.841,11.252 15.000,12.907 C15.993,14.324 16.986,15.740 18.023,17.220 C18.262,16.883 18.468,16.594 18.672,16.303 C20.742,13.350 23.493,9.456 25.573,6.469 L27.085,6.469 C26.651,7.094 25.979,8.023 25.756,8.339 C24.903,9.547 24.050,10.755 23.199,11.963 C22.264,13.292 21.332,14.623 20.396,15.951 C19.905,16.647 19.412,17.344 18.910,18.032 C18.775,18.217 18.766,18.349 18.908,18.548 Z" class="cls-1"/>
</svg>
