<?xml version="1.0" encoding="utf-8"?>
<!-- Generator: Adobe Illustrator 18.0.0, SVG Export Plug-In . SVG Version: 6.00 Build 0)  -->
<!DOCTYPE svg PUBLIC "-//W3C//DTD SVG 1.1//EN" "http://www.w3.org/Graphics/SVG/1.1/DTD/svg11.dtd">
<svg version="1.1" id="图层_1" xmlns="http://www.w3.org/2000/svg" xmlns:xlink="http://www.w3.org/1999/xlink" x="0px" y="0px"
	 viewBox="0 0 595.3 841.9" enable-background="new 0 0 595.3 841.9" xml:space="preserve">
<path fill="none" d="M0,175.1l595.3-1.9v489.7L0,666.8V175.1z M583.9,651.5H11.3V184.6h572.6V651.5z"/>
<path fill="#5B5C5C" d="M0,173.2v489.7h595.3V173.2H0z M583.9,651.5H11.3V184.6h572.6V651.5z"/>
<path fill="#5B5C5C" d="M174.9,249.1h-30.5v72.7h30.5V249.1z M508,528.9l-15.4-23.4c-0.6,0.4-48.9,31.4-142.7,40.4
	c1.2-52.1,11.8-86,12-86.6l6-18.4l-19.2,0c0,0-72.1,0-94.1,0c3.6-44.5,24.3-188.6,144.3-330.4l-21.3-18.2
	C226.9,270.2,225.8,447.5,225.8,454.9l0.1,14h104.6c-3.7,16.8-8.4,44.3-9,78.9c-7.7,0.3-15.7,0.5-23.9,0.5
	c-127.6,0-194.5-42.3-195.1-42.8l-15.2,23.5c2.9,1.9,73.7,47.3,210.4,47.3c8.4,0,16.5-0.2,24.3-0.5c2.4,49.6,13.7,110,44.9,173.7
	l25-12.4c-29.1-59.5-39.6-116.4-41.7-163.1C452.8,564.8,505.5,530.6,508,528.9z M430.7,249.1h-30.5v72.7h30.5V249.1z"/>
</svg>
