<svg xmlns="http://www.w3.org/2000/svg" xmlns:xlink="http://www.w3.org/1999/xlink" preserveAspectRatio="xMidYMid" width="39" height="25" viewBox="0 0 39 25">
  <defs>
    <style>
      .cls-1 {
        fill: #000;
        fill-rule: evenodd;
      }
    </style>
  </defs>
  <path d="M39.015,7.226 L33.431,7.266 L36.134,12.125 L34.802,12.898 L32.020,8.198 L33.431,5.560 L39.015,5.659 L39.015,7.226 ZM24.905,7.226 L24.905,5.659 L30.489,5.560 L27.806,0.721 L29.118,-0.013 L31.960,4.727 L30.450,7.266 L24.905,7.226 ZM34.802,-0.013 L36.134,0.721 L33.431,5.560 L31.960,4.727 L34.802,-0.013 ZM29.377,10.816 C30.072,11.153 30.549,11.609 30.847,12.184 C31.145,12.779 31.020,13.266 31.000,14.000 L31.000,20.000 C31.020,20.753 31.000,21.425 31.000,22.000 C31.000,22.648 30.052,24.183 29.377,24.520 C28.701,24.858 27.806,25.015 26.694,25.015 C25.561,25.015 24.667,24.858 24.011,24.520 C23.315,24.183 22.818,23.727 22.520,23.151 C22.222,22.576 22.063,21.921 22.083,21.168 L22.083,14.167 C22.063,13.434 22.222,12.779 22.520,12.184 C22.818,11.609 23.315,11.153 24.011,10.816 C24.667,10.478 25.561,10.320 26.694,10.320 C27.826,10.320 28.721,10.478 29.377,10.816 ZM24.528,12.541 C24.130,12.918 23.931,13.512 23.951,14.326 L23.951,21.009 C23.931,21.803 24.110,22.397 24.528,22.794 C24.925,23.171 25.641,23.369 26.694,23.369 C27.727,23.369 28.443,23.171 28.840,22.794 C29.257,22.397 29.436,21.803 29.416,21.009 L29.416,14.326 C29.436,13.512 29.257,12.918 28.840,12.541 C28.443,12.164 27.727,11.966 26.694,11.966 C25.660,11.966 24.945,12.164 24.528,12.541 ZM18.506,24.520 C17.890,24.858 16.995,25.015 15.823,25.015 C14.770,25.015 13.915,24.877 13.279,24.599 C12.643,24.322 12.186,23.925 11.888,23.429 C11.609,22.913 11.470,22.299 11.490,21.605 L11.490,15.239 C11.470,14.029 11.669,13.037 12.067,12.303 C12.464,11.569 13.080,11.034 13.935,10.717 C14.789,10.379 15.922,10.201 17.313,10.220 C17.671,10.220 18.068,10.241 18.526,10.280 C18.983,10.340 19.380,10.400 19.758,10.498 L19.559,12.045 C19.281,11.986 18.963,11.946 18.585,11.906 C18.208,11.866 17.890,11.847 17.611,11.847 C16.479,11.827 15.584,11.926 14.968,12.144 C14.352,12.343 13.915,12.680 13.676,13.176 C13.438,13.671 13.319,14.366 13.338,15.258 L13.338,17.142 C13.716,17.003 14.193,16.904 14.730,16.805 C15.266,16.706 15.783,16.646 16.280,16.646 C17.671,16.646 18.665,16.944 19.241,17.539 C19.817,18.114 20.115,19.006 20.096,20.176 L20.096,20.810 C20.115,21.683 19.996,22.438 19.778,23.072 C19.559,23.687 19.122,24.183 18.506,24.520 ZM18.247,20.176 C18.267,19.502 18.108,19.006 17.790,18.709 C17.472,18.412 16.916,18.252 16.121,18.273 C15.624,18.273 15.127,18.332 14.630,18.451 C14.133,18.570 13.716,18.709 13.338,18.867 L13.338,21.346 C13.338,22.120 13.537,22.636 13.935,22.933 C14.352,23.230 14.968,23.389 15.823,23.369 C16.439,23.369 16.936,23.310 17.293,23.171 C17.651,23.032 17.890,22.814 18.029,22.516 C18.168,22.219 18.247,21.822 18.247,21.346 L18.247,20.176 ZM7.476,24.539 C6.780,24.858 5.747,25.015 4.415,25.015 C3.680,25.015 2.925,24.956 2.150,24.837 C1.375,24.698 0.659,24.500 0.003,24.242 L0.321,22.695 C0.997,22.913 1.693,23.072 2.388,23.171 C3.084,23.270 3.779,23.330 4.455,23.330 C5.250,23.350 5.846,23.270 6.263,23.112 C6.681,22.953 6.959,22.715 7.118,22.378 C7.257,22.041 7.337,21.584 7.337,21.029 C7.337,20.533 7.317,20.136 7.277,19.839 C7.237,19.542 7.118,19.284 6.939,19.106 C6.760,18.927 6.442,18.749 6.025,18.610 C5.608,18.471 5.012,18.332 4.256,18.153 C3.084,17.896 2.209,17.618 1.633,17.301 C1.057,16.983 0.659,16.547 0.480,15.972 C0.301,15.397 0.222,14.623 0.242,13.612 C0.242,12.759 0.381,12.045 0.659,11.470 C0.937,10.895 1.434,10.478 2.130,10.201 C2.825,9.923 3.779,9.784 4.991,9.784 C5.647,9.784 6.343,9.824 7.038,9.903 C7.734,10.003 8.390,10.121 9.006,10.260 L8.847,11.887 C8.251,11.748 7.615,11.649 6.959,11.569 C6.303,11.510 5.647,11.470 5.031,11.470 C4.236,11.450 3.640,11.510 3.223,11.649 C2.805,11.787 2.507,12.025 2.368,12.343 C2.229,12.660 2.150,13.096 2.169,13.671 C2.150,14.167 2.169,14.584 2.209,14.881 C2.229,15.179 2.348,15.417 2.527,15.595 C2.706,15.773 2.984,15.932 3.402,16.071 C3.819,16.209 4.376,16.349 5.111,16.528 C6.085,16.765 6.860,17.003 7.416,17.241 C7.972,17.460 8.390,17.737 8.648,18.035 C8.907,18.332 9.086,18.728 9.145,19.204 C9.225,19.661 9.264,20.256 9.244,20.990 C9.264,21.842 9.145,22.576 8.907,23.171 C8.648,23.766 8.171,24.222 7.476,24.539 Z" class="cls-1"/>
</svg>
