<?xml version="1.0" encoding="iso-8859-1"?>
<!-- Generator: Adobe Illustrator 18.0.0, SVG Export Plug-In . SVG Version: 6.00 Build 0)  -->
<!DOCTYPE svg PUBLIC "-//W3C//DTD SVG 1.1//EN" "http://www.w3.org/Graphics/SVG/1.1/DTD/svg11.dtd">
<svg version="1.1" id="&#x56FE;&#x5C42;_1" xmlns="http://www.w3.org/2000/svg" xmlns:xlink="http://www.w3.org/1999/xlink" x="0px"
	 y="0px" viewBox="0 0 122.602 122.389" style="enable-background:new 0 0 122.602 122.389;" xml:space="preserve">
<path style="fill:#5B5C5C;" d="M13.392,99.42C5.01,88.954,0,75.681,0,61.23c0-16.138,6.254-30.816,16.469-41.74
	c0,0,10.702,4.732,28.717,15.821C4.992,76.896,13.392,99.42,13.392,99.42z M61.306,23.52c-0.024-0.015-0.038-0.026-0.038-0.026
	c24.533-17.672,39.769-8.79,39.769-8.79C90.344,5.54,76.451,0,61.268,0C46.079,0,32.187,5.535,21.494,14.704
	c0,0,15.236-9.09,39.76,8.788 M17.012,103.434c11.137,11.68,26.84,18.955,44.256,18.955c17.443,0,33.179-7.308,44.316-19.027
	c0,0-6.476-26.712-44.525-54.78C26.958,73.738,17.012,103.434,17.012,103.434z M109.21,99.42
	c8.377-10.466,13.392-23.739,13.392-38.19c0-16.138-6.254-30.816-16.469-41.74c0,0-10.702,4.732-28.717,15.821
	C117.61,76.896,109.21,99.42,109.21,99.42z"/>
</svg>
