<svg xmlns="http://www.w3.org/2000/svg" xmlns:xlink="http://www.w3.org/1999/xlink" preserveAspectRatio="xMidYMid" width="36.594" height="36.625" viewBox="0 0 36.594 36.625">
  <defs>
    <style>
      .cls-1 {
        fill: #000;
        fill-rule: evenodd;
      }
    </style>
  </defs>
  <path d="M4.010,29.763 C1.509,26.632 0.014,22.660 0.014,18.336 C0.014,13.507 1.880,9.116 4.928,5.847 C4.928,5.847 8.121,7.263 13.497,10.581 C1.503,23.024 4.010,29.763 4.010,29.763 ZM18.307,7.053 C18.299,7.048 18.295,7.045 18.295,7.045 C25.616,1.757 30.162,4.415 30.162,4.415 C26.971,1.673 22.826,0.015 18.295,0.015 C13.763,0.015 9.618,1.672 6.427,4.415 C6.427,4.415 10.973,1.695 18.291,7.044 M5.090,30.964 C8.413,34.459 13.099,36.636 18.295,36.636 C23.500,36.636 28.196,34.449 31.519,30.943 C31.519,30.943 29.586,22.950 18.233,14.552 C8.058,22.079 5.090,30.964 5.090,30.964 ZM32.601,29.763 C35.100,26.632 36.597,22.660 36.597,18.336 C36.597,13.507 34.730,9.116 31.682,5.847 C31.682,5.847 28.489,7.263 23.113,10.581 C35.107,23.024 32.601,29.763 32.601,29.763 Z" class="cls-1"/>
</svg>
