<?xml version="1.0" encoding="iso-8859-1"?>
<!-- Generator: Adobe Illustrator 18.0.0, SVG Export Plug-In . SVG Version: 6.00 Build 0)  -->
<!DOCTYPE svg PUBLIC "-//W3C//DTD SVG 1.1//EN" "http://www.w3.org/Graphics/SVG/1.1/DTD/svg11.dtd">
<svg version="1.1" id="&#x56FE;&#x5C42;_1" xmlns="http://www.w3.org/2000/svg" xmlns:xlink="http://www.w3.org/1999/xlink" x="0px"
	 y="0px" viewBox="0 0 87.106 120.624" style="enable-background:new 0 0 87.106 120.624;" xml:space="preserve">
<path style="fill-rule:evenodd;clip-rule:evenodd;fill:#5B5C5C;" d="M45.029,33.664c-8.726,0-20.969,3.878-25.246,5.61V11.223
	c0-4.773-2.498-11.224-8.416-11.221C2.299-0.128,0.146,6.45,0.146,11.223v58.908c-0.084,1.078-0.282,9.449,0,11.221
	c-0.418,21.532,21.592,39.272,42.077,39.272c22.449,0,44.882-15.375,44.882-44.882C87.106,53.01,67.478,33.664,45.029,33.664z
	 M42.224,100.988c-12.931,0-22.249-11.682-22.249-24.774c0-13.092,10.482-23.705,23.412-23.705c12.93,0,24.084,10.141,24.084,23.233
	C67.47,92.615,55.154,100.988,42.224,100.988z"/>
</svg>
