<?xml version="1.0" encoding="iso-8859-1"?>
<!-- Generator: Adobe Illustrator 18.0.0, SVG Export Plug-In . SVG Version: 6.00 Build 0)  -->
<!DOCTYPE svg PUBLIC "-//W3C//DTD SVG 1.1//EN" "http://www.w3.org/Graphics/SVG/1.1/DTD/svg11.dtd">
<svg version="1.1" id="&#x56FE;&#x5C42;_1" xmlns="http://www.w3.org/2000/svg" xmlns:xlink="http://www.w3.org/1999/xlink" x="0px"
	 y="0px" viewBox="0 0 123 56" style="enable-background:new 0 0 123 56;" xml:space="preserve">
<path style="fill:#5B5C5C;" d="M26.37,11.771c-0.935,0-1.694,0.521-1.729,1.179l-1.263,28.113l1.263,13.707
	c0.035,0.653,0.794,1.169,1.729,1.169c0.928,0,1.687-0.516,1.725-1.174l1.425-13.702l-1.425-28.113
	C28.057,12.292,27.299,11.771,26.37,11.771z M2.95,32.335c-0.624,0-1.131,0.199-1.178,0.459L0,41.513l1.771,8.434
	c0.047,0.265,0.554,0.459,1.178,0.459c0.617,0,1.124-0.194,1.178-0.459l2.012-8.434L4.128,32.79
	C4.073,32.534,3.567,32.335,2.95,32.335z M14.524,19.145c-0.78,0-1.421,0.421-1.461,0.956l-1.513,21.024l1.513,13.868
	c0.04,0.53,0.681,0.951,1.461,0.951c0.775,0,1.411-0.416,1.463-0.951l1.706-13.868l-1.706-21.024
	C15.936,19.566,15.3,19.145,14.524,19.145z M38.122,11.776c-1.079,0-1.944,0.606-1.97,1.382L35.113,41.21l1.044,13.366
	c0.021,0.767,0.886,1.377,1.965,1.377c1.072,0,1.937-0.601,1.965-1.377l1.168-13.366l-1.168-28.052
	C40.058,12.381,39.194,11.776,38.122,11.776z M105.179,24.999c-2.167,0-4.236,0.521-6.123,1.288C97.798,12.434,84.826,0,70.234,0
	c-3.569,0-7.054,0.682-10.126,1.836C58.911,2.286,58.009,3.101,58,4v50c0.012,0.942,1.055,1.91,2,2c0.04,0,38.4,0,44,0
	c9.037,0,19-5.997,19-15.619C123,29.415,113.925,24.999,105.179,24.999z M49.687,7.365c-1.192,0-2.175,0.724-2.194,1.604
	l-0.829,32.207c0,0.019,0.829,13.229,0.829,13.229C47.513,55.28,48.495,56,49.687,56c1.192,0,2.177-0.71,2.196-1.595l0.924-13.219
	L51.883,8.969C51.864,8.084,50.879,7.365,49.687,7.365z"/>
</svg>
