<?xml version="1.0" encoding="iso-8859-1"?>
<!-- Generator: Adobe Illustrator 18.0.0, SVG Export Plug-In . SVG Version: 6.00 Build 0)  -->
<!DOCTYPE svg PUBLIC "-//W3C//DTD SVG 1.1//EN" "http://www.w3.org/Graphics/SVG/1.1/DTD/svg11.dtd">
<svg version="1.1" id="&#x56FE;&#x5C42;_1" xmlns="http://www.w3.org/2000/svg" xmlns:xlink="http://www.w3.org/1999/xlink" x="0px"
	 y="0px" viewBox="0 0 122.958 122.958" style="enable-background:new 0 0 122.958 122.958;" xml:space="preserve">
<path style="fill:#5B5C5C;" d="M0.007,0.643c-0.049-0.476,0.17-0.683,0.64-0.637c0.367,0.01,0.734,0.029,1.101,0.029
	C33.299,0.039,64.85,0.043,96.401,0.042c8.656,0,17.312-0.018,25.968-0.027c0.127,0.013,0.254,0.025,0.381,0.038
	c0.173,0.181-0.197,0.539,0.209,0.644c0,0-0.001,0.006-0.001,0.006c-0.131,0.071-0.176,0.177-0.136,0.321
	c-0.013,7.162-0.026,14.324-0.032,21.486c0,0.113,0.096,0.226,0.147,0.339c0,0-0.03-0.03-0.028-0.03
	c0.001,0-0.024,0.025-0.024,0.025c-0.088,0.108-0.073,0.199,0.044,0.273c-0.228,0.246-0.217,0.496-0.013,0.748
	c0,0-0.007-0.041-0.006-0.041c0.001,0-0.024,0.025-0.024,0.025c-0.088,0.11-0.072,0.202,0.049,0.275
	c-0.239,0.58-0.242,1.159,0,1.738c0,0-0.026-0.03-0.025-0.03c0.001,0-0.024,0.025-0.024,0.025c-0.089,0.11-0.072,0.202,0.049,0.275
	c-0.253,1.248-0.256,2.495,0.002,3.743c0,0-0.033-0.023-0.031-0.024c0.001,0-0.024,0.028-0.024,0.028s-0.03-0.022-0.029-0.022
	c-0.023,3.343-0.081,6.686-0.046,10.028c0.009,0.899-0.202,1.143-1.126,1.14c-12.934-0.035-25.868-0.016-38.803-0.044
	c-0.815-0.002-1.044,0.167-1.042,1.02c0.032,12.949,0.011,25.899,0.047,38.848c0.003,0.939-0.263,1.122-1.147,1.12
	c-12.901-0.03-25.802-0.012-38.702-0.043c-0.863-0.002-1.091,0.18-1.089,1.075c0.035,12.949,0.012,25.899,0.052,38.848
	c0.003,0.97-0.308,1.102-1.161,1.101c-12.901-0.026-25.802-0.03-38.703,0.007c-0.949,0.003-1.11-0.279-1.11-1.152
	C0.04,81.753,0.037,41.7,0.036,1.647C0.036,1.313,0.017,0.978,0.007,0.643z"/>
</svg>
