<?xml version="1.0" encoding="utf-8"?>
<!-- Generator: Adobe Illustrator 18.0.0, SVG Export Plug-In . SVG Version: 6.00 Build 0)  -->
<!DOCTYPE svg PUBLIC "-//W3C//DTD SVG 1.1//EN" "http://www.w3.org/Graphics/SVG/1.1/DTD/svg11.dtd">
<svg version="1.1" id="图层_1" xmlns="http://www.w3.org/2000/svg" xmlns:xlink="http://www.w3.org/1999/xlink" x="0px" y="0px"
	 viewBox="0 0 595.3 841.9" enable-background="new 0 0 595.3 841.9" xml:space="preserve">
<path fill="#5B5C5C" d="M283.5,294.2c40.2,57.7,82.7,119.2,122.9,176.9c1.4,2,3.1,3.7,6,7c31.4-44.3,62.1-87.7,92.8-131
	c11.2-15.9,23.9-31.1,33.1-48.1l37,0.2c-38.5,53.5-98.4,137-137.6,190c-8.4,11.4-8.9,19.1-0.3,31c48.3,65.9,110.3,152.7,157.9,219.1
	h-39.4c-42.5-63.7-99.8-143.7-145-207.5c-3,3.3-6.1,6-8.4,9.3c-41.3,59.2-98,137.9-137.6,198.3h-38.8
	c49.4-68.2,110.5-153,160.6-220.7c7.9-10.7,7.4-17.3,0-27.5c-46.8-64.6-94.4-131.9-140.6-196.8"/>
<path fill="#5B5C5C" d="M0,173.4c36.8-23.4,75.4-48.7,111.1-69.6l29.5-1.2c0,214,0,423.6,0,635.6c-9.5,0-18.1,0-29,0
	c0-200,0-399.6,0-604.1c-35.4,22.1-67,41.9-99.9,62.4C7.7,188.7,4.4,182.2,0,173.4z"/>
</svg>
