<?xml version="1.0" encoding="iso-8859-1"?>
<!-- Generator: Adobe Illustrator 18.0.0, SVG Export Plug-In . SVG Version: 6.00 Build 0)  -->
<!DOCTYPE svg PUBLIC "-//W3C//DTD SVG 1.1//EN" "http://www.w3.org/Graphics/SVG/1.1/DTD/svg11.dtd">
<svg version="1.1" id="&#x56FE;&#x5C42;_1" xmlns="http://www.w3.org/2000/svg" xmlns:xlink="http://www.w3.org/1999/xlink" x="0px"
	 y="0px" viewBox="0 0 123.315 88.521" style="enable-background:new 0 0 123.315 88.521;" xml:space="preserve">
<path style="fill-rule:evenodd;clip-rule:evenodd;fill:#5B5C5C;" d="M29.957,0.729c1.051,5.207-4.438,3.88-5.492,6.983
	c7.406,21.2,17.01,40.204,24.964,60.856c4.693-5.953,7.357-13.932,10.984-20.951C54.4,33.673,49.763,18.352,41.94,6.216
	c-2.162-1.166-5.964-0.693-6.99-2.993c-1.066-4.701,5.532-2.768,7.988-2.494c9.2,0.543,19.114-0.854,26.961,0
	c0,0.831,0,1.663,0,2.494c-0.64,2.686-5.905,0.751-6.99,2.993c1.708,8.27,5.613,14.344,7.988,21.948
	c3.632-6.348,6.896-13.063,9.487-20.452c-0.826-3.165-6.264-1.723-7.489-4.489c0-0.499,0-0.998,0-1.496
	c2.017-3.068,10.808-1.141,14.479-0.998c3.5,0.328,8.315-0.659,10.984,0.499c0.924,5.745-6.19,3.46-8.488,5.986
	C82.73,14.544,79.466,25.75,74.393,35.147c4.177,10.459,9.041,20.232,12.982,30.927c7.952-19.158,16.225-37.995,22.468-58.861
	c-2.014-2.311-7.969-0.685-6.491-6.485c5.884-0.63,13.793-0.149,19.472,0c2.176,4.443-3.458,5.112-5.492,6.983
	c-10.157,27.43-22.269,52.908-31.954,80.809c-2.33,0-4.66,0-6.99,0C73.894,77.049,69.164,65.812,63.908,55.1
	c-6.404,10.562-11.732,22.198-17.475,33.421c-2.33,0-4.66,0-6.99,0C28.194,60.687,16.819,32.976,3.994,6.714
	C3.466,4.915,0.365,5.685,0,3.721C0,2.558,0,1.394,0,0.23C9.924,1.074,20.895,0.181,29.957,0.729z"/>
</svg>
