<?xml version="1.0" encoding="iso-8859-1"?>
<!-- Generator: Adobe Illustrator 18.0.0, SVG Export Plug-In . SVG Version: 6.00 Build 0)  -->
<!DOCTYPE svg PUBLIC "-//W3C//DTD SVG 1.1//EN" "http://www.w3.org/Graphics/SVG/1.1/DTD/svg11.dtd">
<svg version="1.1" id="&#x56FE;&#x5C42;_1" xmlns="http://www.w3.org/2000/svg" xmlns:xlink="http://www.w3.org/1999/xlink" x="0px"
	 y="0px" viewBox="0 0 121 121" style="enable-background:new 0 0 121 121;" xml:space="preserve">
<path style="fill:#5B5C5C;" d="M60.5,0C27.087,0,0,27.088,0,60.5S27.087,121,60.5,121S121,93.912,121,60.5S93.913,0,60.5,0z
	 M60.5,11.467c26.918,0,48.749,21.675,49.01,48.508c-0.01,0.166-0.031,0.317-0.031,0.525c0,8.643-5.658,14.405-11.42,14.405
	c-11.628,0-8.409-13.281-23.056-27.925c-19.325-19.324-34.669-18.17-34.669-18.17c6.033,25.658-5.762,46.095-17.286,46.095
	c-8.643,0-11.524-8.554-11.524-14.405l-0.057-0.031c0-0.005,0-0.01,0-0.016C11.465,33.401,33.418,11.467,60.5,11.467z"/>
</svg>
