<?xml version="1.0" encoding="iso-8859-1"?>
<!-- Generator: Adobe Illustrator 18.0.0, SVG Export Plug-In . SVG Version: 6.00 Build 0)  -->
<!DOCTYPE svg PUBLIC "-//W3C//DTD SVG 1.1//EN" "http://www.w3.org/Graphics/SVG/1.1/DTD/svg11.dtd">
<svg version="1.1" id="&#x56FE;&#x5C42;_1" xmlns="http://www.w3.org/2000/svg" xmlns:xlink="http://www.w3.org/1999/xlink" x="0px"
	 y="0px" viewBox="0 0 88.577 124.364" style="enable-background:new 0 0 88.577 124.364;" xml:space="preserve">
<path style="fill:#5B5C5C;" d="M77.716,0c0,0-56.842,0-65.94,0C2.675,0,0,6.884,0,11.219c0,4.338,0,105.388,0,105.388
	c0,4.883,2.609,6.695,4.074,7.291c1.467,0.598,5.513,1.102,7.937-1.712c0,0,31.131-36.336,31.666-36.874
	c0.809-0.814,0.809-0.814,1.618-0.814c1.618,0,13.617,0,20.142,0c8.464,0,9.824-6.071,10.708-9.647
	c0.736-2.995,8.993-45.516,11.751-59.006C90,5.55,87.399,0,77.716,0z M76.144,74.851c0.736-2.995,8.993-45.516,11.751-59.006
	 M73.821,17.952l-2.768,14.51c-0.331,1.568-2.294,3.219-4.115,3.219c-1.82,0-25.688,0-25.688,0c-2.89,0-4.959,1.981-4.959,4.886
	v3.164c0,2.907,2.081,4.967,4.973,4.967c0,0,19.756,0,21.794,0c2.041,0,4.044,2.251,3.603,4.443
	c-0.443,2.195-2.515,13.07-2.764,14.27c-0.25,1.201-1.618,3.254-4.044,3.254c-2.045,0-17.79,0-17.79,0
	c-3.24,0-4.22,0.426-6.387,3.135c-2.169,2.712-21.662,26.258-21.662,26.258c-0.197,0.228-0.39,0.162-0.39-0.087V17.737
	c0-1.855,1.603-4.031,4.008-4.031c0,0,50.852,0,52.917,0C72.498,13.706,74.318,15.547,73.821,17.952z"/>
</svg>
