<?xml version="1.0" encoding="iso-8859-1"?>
<!-- Generator: Adobe Illustrator 18.0.0, SVG Export Plug-In . SVG Version: 6.00 Build 0)  -->
<!DOCTYPE svg PUBLIC "-//W3C//DTD SVG 1.1//EN" "http://www.w3.org/Graphics/SVG/1.1/DTD/svg11.dtd">
<svg version="1.1" id="&#x56FE;&#x5C42;_1" xmlns="http://www.w3.org/2000/svg" xmlns:xlink="http://www.w3.org/1999/xlink" x="0px"
	 y="0px" viewBox="0 0 123 73" style="enable-background:new 0 0 123 73;" xml:space="preserve">
<path style="fill:#5B5C5C;" d="M104.352,30.62c-9.452-3.087-16.215-4.225-16.215-11.749c0-5.308,4.111-9.294,9.868-9.294
	c4.139,0,7.397,1.628,10.349,5.744l7.84-3.991c-3.996-7.056-9.764-10.595-17.751-10.595c-12.262,0-19.807,7.367-19.807,18.413
	c0,11.325,7.402,16.05,21.742,20.754c7.976,2.64,12.7,4.268,12.7,11.025c0,6.92-6.194,12.392-15.226,12.081
	c-9.19-0.31-12.022-5.314-15.346-12.86c-5.363-12.19-11.513-26.515-11.989-27.631C64.253,8.123,51.919,0,36.645,0
	C16.406,0,0,16.344,0,36.505C0,56.672,16.406,73,36.645,73c11.42,0,21.627-5.194,28.34-13.35l-4.729-10.867
	c-4.45,8.466-13.361,14.237-23.611,14.237c-14.695,0-26.619-11.874-26.619-26.515c0-14.646,11.923-26.52,26.619-26.52
	c10.857,0,20.484,6.348,24.361,15.751l11.699,26.559l1.356,3c4.746,10.998,11.574,17.237,24.383,17.286
	C112.35,72.597,123,63.597,123,51.238C123,39.462,117.085,34.747,104.352,30.62z"/>
</svg>
