<?xml version="1.0" encoding="utf-8"?>
<!-- Generator: Adobe Illustrator 18.0.0, SVG Export Plug-In . SVG Version: 6.00 Build 0)  -->
<!DOCTYPE svg PUBLIC "-//W3C//DTD SVG 1.1//EN" "http://www.w3.org/Graphics/SVG/1.1/DTD/svg11.dtd">
<svg version="1.1" id="图层_1" xmlns="http://www.w3.org/2000/svg" xmlns:xlink="http://www.w3.org/1999/xlink" x="0px" y="0px"
	 viewBox="0 0 595.3 841.9" enable-background="new 0 0 595.3 841.9" xml:space="preserve">
<path fill="#5B5C5C" d="M193,594.8c-36-9-56.1-37.6-56.2-80.1c0-13.6,1-20.1,4.4-28.8c8.3-21.4,30.3-37.6,59.3-43.5
	c14.4-3,18.8-6.1,18.8-13.5c0-2.3,1.7-9.2,3.8-15.3c9.5-27.7,27.1-50.7,46-60.2c19.7-9.9,29.7-12.1,53.5-12
	c33.9,0.2,50.8,7.5,74.4,32.3l13,13.6l11.6-4c56.4-19.5,112.5,13.7,117.1,69.2l1.2,15.2l11.1,4c31.7,11.4,46.6,35.2,43.9,70.2
	c-1.8,22.9-12.5,41.2-29.5,50.3l-8,4.3l-177.4,0.3C243.8,597.2,200.5,596.7,193,594.8L193,594.8z"/>
<path fill="#5B5C5C" d="M60,570.3c-21-5-43.3-23.6-53.8-44.8c-5.9-12-6.2-13.8-6.2-35.1c0-20.3,0.5-23.5,5.2-33.6
	c9.9-21.2,29-36.6,52.9-42.6c5-1.3,9.8-3.3,10.5-4.5c0.8-1.2,1.6-7.8,1.9-14.6c1.7-42.5,29.5-79.9,68.4-91.9
	c21-6.5,47.4-4.9,70.3,4.3c7.2,2.9,6.4,3.5,21.8-16.6c9.1-11.9,27.4-26.7,42.4-34.2c16.2-8.1,33-11.9,53.1-11.8
	c56.3,0.1,104.7,35.3,122.7,89c5.7,17.2,5.4,22-1.3,22.1c-2.9,0.1-11.4,1.7-18.8,3.6l-13.4,3.5l-12.2-12.2
	c-34.5-34.5-90.8-42-138.7-18.4c-19.1,9.4-34.5,23-46.1,40.6c-8.3,12.6-18.8,36-18.8,41.9c0,4.1-3.3,6.2-17.6,10.9
	c-44.2,14.5-70.1,48-70,90.9c0,15.6,4,34.7,9.6,45.6c2.1,4.1,3.3,8,2.6,8.7C122.6,572.7,67.6,572.2,60,570.3L60,570.3z"/>
</svg>
