<?xml version="1.0" encoding="iso-8859-1"?>
<!-- Generator: Adobe Illustrator 18.0.0, SVG Export Plug-In . SVG Version: 6.00 Build 0)  -->
<!DOCTYPE svg PUBLIC "-//W3C//DTD SVG 1.1//EN" "http://www.w3.org/Graphics/SVG/1.1/DTD/svg11.dtd">
<svg version="1.1" id="&#x56FE;&#x5C42;_1" xmlns="http://www.w3.org/2000/svg" xmlns:xlink="http://www.w3.org/1999/xlink" x="0px"
	 y="0px" viewBox="0 0 125 121" style="enable-background:new 0 0 125 121;" xml:space="preserve">
<path style="fill:#5B5C5C;" d="M59.277,61.735C40.474,44.549,6.855,40.511,6.855,40.511C3.076,40.511,0,43.071,0,46.76v11.695
	c0,3.682,3.076,6.256,6.855,6.269c0,0,21.61,0.551,34.584,12.265c17.129,15.468,16.666,36.919,16.666,36.919
	c0,3.695,1.788,6.69,5.58,6.69h13.287c3.785,0,4.711-2.995,4.711-6.69C81.683,113.908,78.517,79.29,59.277,61.735z M17.788,87.886
	c-9.385,0-16.999,7.416-16.999,16.551c0,9.16,7.614,16.563,16.999,16.563c9.395,0,17.016-7.403,17.016-16.563
	C34.804,95.302,27.19,87.886,17.788,87.886z M92.936,38.501C63.352,3.76,6.855,0,6.855,0C3.076,0,0,2.58,0,6.275v11.682
	c0,3.695,3.076,6.256,6.855,6.256c0,0,40.374,1.271,63.139,27.461c31.208,31.259,28.841,62.506,28.841,62.506
	c0,3.689,3.063,6.677,6.865,6.677h13.287c3.795,0,6.013-2.989,6.013-6.677C125,114.18,122.19,65.028,92.936,38.501z"/>
</svg>
