<?xml version="1.0" encoding="utf-8"?>
<!-- Generator: Adobe Illustrator 18.0.0, SVG Export Plug-In . SVG Version: 6.00 Build 0)  -->
<!DOCTYPE svg PUBLIC "-//W3C//DTD SVG 1.1//EN" "http://www.w3.org/Graphics/SVG/1.1/DTD/svg11.dtd">
<svg version="1.1" id="图层_1" xmlns="http://www.w3.org/2000/svg" xmlns:xlink="http://www.w3.org/1999/xlink" x="0px" y="0px"
	 viewBox="0 0 595.3 841.9" enable-background="new 0 0 595.3 841.9" xml:space="preserve">
<path fill="#5B5C5C" d="M76.8,323.2l-11.2,65.1l0.8,0.8c7.7-7.7,15.9-13.2,24.6-16.5c8.7-3.3,18.7-5,29.8-5c13.8,0,26,2.5,36.5,7.5
	c10.6,5,19.5,11.8,26.8,20.3c7.3,8.5,12.8,18.5,16.7,30c3.8,11.5,5.8,23.8,5.8,36.7c0,14.3-2.8,27.6-8.3,39.9
	c-5.6,12.3-13,23-22.4,32c-9.4,9-20.3,16-32.8,20.9c-12.5,4.9-25.7,7.2-39.7,7c-13.5,0-26.4-1.8-38.7-5.4s-23.2-9.1-32.8-16.5
	c-9.5-7.4-17.1-16.6-22.8-27.6c-5.7-11-8.7-21.1-8.9-35.7h57.6c1.3,12.7,4.9,20.2,13.1,27.8c8.2,7.5,18.7,11.3,31.4,11.3
	c7.4,0,14.1-1.5,20.1-4.6c6-3,11-7,15.1-11.9c4.1-4.9,7.3-10.6,9.5-17.1c2.2-6.5,3.4-13.2,3.4-20.1c0-7.1-1.1-13.9-3.2-20.3
	c-2.1-6.4-5.3-11.9-9.5-16.7c-4.2-4.8-9.3-8.5-15.1-11.1c-5.8-2.6-12.6-4-20.3-4c-10.1,0-18.3,1.8-24.6,5.4s-14.3,10.4-19.9,18h-48
	L38.4,280h153.5v43.2H76.8z"/>
<path fill="#5B5C5C" d="M320.3,554.7c9.7-3.5,18.8-8.1,27-13.8c8.3-5.7,16.1-12.3,23.4-19.9c7.4-7.5,14.9-15.4,22.6-23.4
	c7,8.1,14.3,15.9,22.1,23.4c7.7,7.5,15.9,14.2,24.6,19.9c8.6,5.7,17.9,10.3,27.9,13.8c9.9,3.5,20.6,5.2,32,5.2c14.7,0,28-2.7,40-8
	c11.9-5.3,22-12.7,30.1-22.1c8.1-9.4,14.3-20.3,18.8-32.8c4.4-12.5,6.6-25.9,6.6-40.3s-2.2-27.6-6.6-39.7s-10.7-22.7-18.8-31.7
	c-8.1-9-18-16.1-29.8-21.2c-11.8-5.1-25-7.7-39.7-7.7c-11.8,0-22.7,1.8-32.8,5.5c-10.1,3.7-19.5,8.5-28.1,14.6
	c-8.6,6.1-16.7,13.2-24.3,21.2c-7.5,8.1-14.8,16.4-21.8,24.8c-7.4-8.8-14.8-17.2-22.3-25.1c-7.5-7.9-15.6-14.9-24.3-21
	c-8.6-6.1-18-10.9-28.1-14.6c-10.1-3.7-21.2-5.5-33.4-5.5c-14.7,0-28,2.7-39.7,8c-11.8,5.3-21.7,12.5-29.8,21.5
	c-8.1,9-14.3,19.7-18.5,32c-4.2,12.3-6.3,25.6-6.3,40s2.2,27.8,6.6,40.3c4.4,12.5,10.8,23.3,19.3,32.3c8.5,9,18.6,16.2,30.3,21.5
	c11.8,5.3,25.2,8,40.3,8C299.6,560,310.5,558.2,320.3,554.7z M254.9,491.6c-7.7-8.5-11.6-19.3-11.6-32.5c0-12.1,3.8-23.1,11.3-32.8
	c7.5-9.7,17.7-14.6,30.6-14.6c7,0,14,1.6,21,4.7c7,3.1,13.7,7.1,20.1,11.9c6.4,4.8,12.6,10,18.5,15.7c5.9,5.7,11,10.9,15.4,15.7
	c-4.4,5.2-9.4,10.4-14.9,15.7c-5.5,5.3-11.4,10.1-17.7,14.3c-6.3,4.2-12.9,7.7-19.9,10.5c-7,2.8-14,4.1-21,4.1
	C273.3,504.3,262.6,500.1,254.9,491.6z M479.1,500.4c-6.8-2.6-13.3-6-19.6-10.2c-6.3-4.2-12.1-9-17.7-14.3
	c-5.5-5.3-10.7-10.8-15.4-16.3c4.4-4.8,9.4-10,14.9-15.7c5.5-5.7,11.3-10.9,17.4-15.7c6.1-4.8,12.5-8.7,19.3-11.9
	c6.8-3.1,13.9-4.7,21.2-4.7c13.6,0,24.4,4.6,32.3,13.8c7.9,9.2,11.9,20.2,11.9,33.1c0,12.9-3.7,23.7-11,32.5
	c-7.4,8.8-17.8,13.2-31.4,13.2C493.2,504.3,485.9,503,479.1,500.4z"/>
</svg>
