<?xml version="1.0" encoding="utf-8"?>
<!-- Generator: Adobe Illustrator 18.0.0, SVG Export Plug-In . SVG Version: 6.00 Build 0)  -->
<!DOCTYPE svg PUBLIC "-//W3C//DTD SVG 1.1//EN" "http://www.w3.org/Graphics/SVG/1.1/DTD/svg11.dtd">
<svg version="1.1" id="图层_1" xmlns="http://www.w3.org/2000/svg" xmlns:xlink="http://www.w3.org/1999/xlink" x="0px" y="0px"
	 viewBox="0 0 595.3 841.9" enable-background="new 0 0 595.3 841.9" xml:space="preserve">
<path fill="#5B5C5C" d="M299.8,327.3c-0.7,0-1.4-0.1-2-0.3c-3.5-1.1-5.5-4.9-4.4-8.4l42-132.9c1.1-3.4,4.5-5.3,7.9-4.5l114.3,26.9
	c3.6,0.9,5.9,4.5,5,8.1c-0.8,3.6-4.5,5.9-8.1,5l-108.2-25.5l-40.1,126.9C305.3,325.5,302.6,327.3,299.8,327.3z"/>
<path fill="#5B5C5C" d="M502.7,275.7c-28.6,0-51.8-23.2-51.8-51.8s23.2-51.8,51.8-51.8s51.8,23.2,51.8,51.8S531.3,275.7,502.7,275.7
	z M502.7,185.5c-21.1,0-38.3,17.2-38.3,38.4s17.2,38.4,38.3,38.4s38.3-17.2,38.3-38.4C541.1,202.7,523.9,185.5,502.7,185.5z"/>
<path fill="#5B5C5C" d="M13.4,415.4c0-27.8,22.6-50.5,50.4-50.5c12.8,0,24.4,4.8,33.3,12.7c3.6-2.7,7.4-5.3,11.2-7.9
	c-11.5-11.3-27.3-18.2-44.6-18.2C28.7,351.5,0,380.1,0,415.4c0,24,13.3,45,33,55.9c0.9-4.6,2-9.1,3.4-13.6
	C22.6,448.7,13.4,433.1,13.4,415.4z"/>
<path fill="#5B5C5C" d="M595.3,415.4c0-35.2-28.7-63.9-63.9-63.9c-17.8,0-34,7.4-45.6,19.2c3.8,2.6,7.6,5.2,11.1,7.9
	c9-8.5,21.1-13.7,34.5-13.7c27.8,0,50.4,22.6,50.4,50.5c0,18.6-10.1,34.8-25.1,43.6c1.3,4.5,2.4,9,3.3,13.5
	C580.9,462,595.3,440.3,595.3,415.4z"/>
<path fill="#5B5C5C" d="M560,472.5c-0.8-4.6-1.9-9.1-3.3-13.5c-9-29.7-29.4-57.3-59.8-80.4c-3.6-2.7-7.3-5.3-11.1-7.9
	c-0.9-0.6-1.8-1.2-2.7-1.8c-50-32.6-116.3-50.6-186.7-50.6c-70.4,0-136.8,18-186.7,50.6c-0.4,0.3-0.8,0.5-1.2,0.8
	c-3.9,2.6-7.6,5.2-11.2,7.9c-30.7,23-51.5,50.4-60.8,80.1c-1.4,4.5-2.6,9-3.4,13.6c-1.4,7.5-2.2,15.1-2.2,22.7
	c0,47.5,28,92,78.9,125.2c50,32.6,116.3,50.6,186.7,50.6s136.8-18,186.7-50.6C534,586,562,541.5,562,494
	C562,486.8,561.3,479.6,560,472.5z M296.4,656.4c-139,0-252.1-72.8-252.1-162.3c0-5.9,0.5-11.7,1.4-17.4c0.7-4.4,1.8-8.8,3-13.1
	c8.5-28.6,28.7-54.6,57.3-75.8c3.6-2.6,7.2-5.2,11-7.7c45.7-29.8,109.2-48.3,179.3-48.3c71,0,135.2,19,181.1,49.5
	c3.8,2.5,7.4,5.1,11,7.8c27.9,21.1,47.6,46.9,55.8,75.2c1.3,4.3,2.3,8.7,3,13.1c0.9,5.5,1.3,11.1,1.3,16.7
	C548.5,583.5,435.4,656.4,296.4,656.4z"/>
<path fill="#5B5C5C" d="M206.7,418.9c-23,0-42.3,19.3-42.3,42.3c0,23,19.3,41.7,42.3,41.7s41.7-18.7,41.7-41.7
	C248.4,438.2,229.7,418.9,206.7,418.9z"/>
<path fill="#5B5C5C" d="M389.2,418.9c-23,0-42.3,19.3-42.3,42.3s19.3,41.7,42.3,41.7s41.7-18.7,41.7-41.7
	C430.8,438.2,412.2,418.9,389.2,418.9z"/>
<path fill="#5B5C5C" d="M297.3,605.5c-43.7,0-74.4-9.4-93.9-28.9c-2.6-2.6-2.6-6.9,0-9.5c2.6-2.6,6.9-2.6,9.5,0
	c16.8,16.8,44.4,24.9,84.3,24.9c3.7,0,6.7,3,6.7,6.7C304,602.5,301,605.5,297.3,605.5z"/>
<path fill="#5B5C5C" d="M298,605.5c-3.7,0-6.7-3-6.7-6.7c0-3.7,3-6.7,6.7-6.7c40,0,67.6-8.2,84.4-24.9c2.6-2.6,6.9-2.6,9.5,0
	c2.6,2.6,2.6,6.9,0,9.5C372.4,596,341.7,605.5,298,605.5z"/>
</svg>
