<?xml version="1.0" encoding="iso-8859-1"?>
<!-- Generator: Adobe Illustrator 18.0.0, SVG Export Plug-In . SVG Version: 6.00 Build 0)  -->
<!DOCTYPE svg PUBLIC "-//W3C//DTD SVG 1.1//EN" "http://www.w3.org/Graphics/SVG/1.1/DTD/svg11.dtd">
<svg version="1.1" id="&#x56FE;&#x5C42;_1" xmlns="http://www.w3.org/2000/svg" xmlns:xlink="http://www.w3.org/1999/xlink" x="0px"
	 y="0px" viewBox="0 0 97 121" style="enable-background:new 0 0 97 121;" xml:space="preserve">
<path style="fill-rule:evenodd;clip-rule:evenodd;fill:#5B5C5C;" d="M62.59,77.669c12.571,6.109,25.771,17.305,31.148,30.258
	c-6.896,5.578-7.794,6.275-15.898,13.073c-7.808-14.996-17.259-23.262-30.19-26.572c-7.587,9.76-19.938,21.158-39.261,26.424
	C4.083,111.754,2.911,109.186,0,102.32c15.456-3.574,21.087-8.446,28.65-22.909C28.108,61.863,32.625,44.604,43.906,37.7
	c5.863,1.917,15.89,6.704,18.649,7.575c-0.392,1.783-0.757,6.108,3.977,7.144c3.594,0.786,13.362,0.706,21.514-6.672
	C93.047,53.416,97,60.83,97,60.83S81.393,76.294,62.927,71.44C62.796,73.842,62.707,74.611,62.59,77.669z M64.78,34.419
	c-9.439,0-17.331-7.704-17.331-17.209C47.449,7.705,55.341,0,64.78,0C74.218,0,82.23,7.705,82.23,17.21
	C82.23,26.715,74.218,34.419,64.78,34.419z"/>
</svg>
