<?xml version="1.0" encoding="iso-8859-1"?>
<!-- Generator: Adobe Illustrator 18.0.0, SVG Export Plug-In . SVG Version: 6.00 Build 0)  -->
<!DOCTYPE svg PUBLIC "-//W3C//DTD SVG 1.1//EN" "http://www.w3.org/Graphics/SVG/1.1/DTD/svg11.dtd">
<svg version="1.1" id="&#x56FE;&#x5C42;_1" xmlns="http://www.w3.org/2000/svg" xmlns:xlink="http://www.w3.org/1999/xlink" x="0px"
	 y="0px" viewBox="0 0 123.708 107.162" style="enable-background:new 0 0 123.708 107.162;" xml:space="preserve">
<path style="fill:#5B5C5C;" d="M0,29.157L5.025,35.7c0,0,10.361-8.109,13.815-4.055c3.454,4.055,16.639,53.008,21.041,62.039
	c3.842,7.92,14.438,18.39,26.06,10.913c11.614-7.477,50.237-40.214,57.151-78.874C130-12.926,76.615-4.83,70.96,28.841
	c14.133-8.424,21.677,3.423,14.445,16.836c-7.219,13.4-13.815,22.14-17.269,22.14c-3.448,0-6.1-8.967-10.05-24.641
	C54.002,26.972,54.028-2.215,37.051,1.093C21.042,4.213,0,29.157,0,29.157z"/>
</svg>
