<?xml version="1.0" encoding="iso-8859-1"?>
<!-- Generator: Adobe Illustrator 18.0.0, SVG Export Plug-In . SVG Version: 6.00 Build 0)  -->
<!DOCTYPE svg PUBLIC "-//W3C//DTD SVG 1.1//EN" "http://www.w3.org/Graphics/SVG/1.1/DTD/svg11.dtd">
<svg version="1.1" id="&#x56FE;&#x5C42;_1" xmlns="http://www.w3.org/2000/svg" xmlns:xlink="http://www.w3.org/1999/xlink" x="0px"
	 y="0px" viewBox="0 0 59 124" style="enable-background:new 0 0 59 124;" xml:space="preserve">
<path style="fill:#5B5C5C;" d="M15,15c-0.07-3.413-1.614-5.162-4.871-6.158C8.547,8.358,6.89,8.092,5.25,7.837
	C3.511,7.565,1.751,7.422,0,7.223C0,4.815,0,2.408,0,0c19.667,0,39.333,0,59,0c0,2.408,0,4.815,0,7.223
	c-0.425,0.065-0.849,0.131-1.274,0.193c-2.764,0.405-5.556,0.677-8.284,1.25c-3.003,0.631-5,2.447-5.349,5.668
	C43.929,15.856,44.001,17.473,44,19c-0.02,27.469-0.013,54.531,0,82c0.001,2.435-0.105,5.566,0,8
	c0.147,3.41,1.589,4.969,4.843,6.032c0.694,0.227,1.406,0.435,2.126,0.533c2.673,0.364,5.353,0.678,8.031,1.011
	c0,2.475,0,4.949,0,7.424c-19.667,0-39.333,0-59,0c0-2.475,0-4.949,0-7.424c0.629-0.067,1.262-0.112,1.888-0.205
	c2.632-0.393,5.289-0.676,7.885-1.237c2.905-0.628,4.775-2.438,5.133-5.514c0.169-1.455,0.093-3.158,0.094-4.62
	C15.02,81.205,15.127,21.177,15,15z"/>
</svg>
