<?xml version="1.0" encoding="iso-8859-1"?>
<!-- Generator: Adobe Illustrator 18.0.0, SVG Export Plug-In . SVG Version: 6.00 Build 0)  -->
<!DOCTYPE svg PUBLIC "-//W3C//DTD SVG 1.1//EN" "http://www.w3.org/Graphics/SVG/1.1/DTD/svg11.dtd">
<svg version="1.1" id="&#x56FE;&#x5C42;_1" xmlns="http://www.w3.org/2000/svg" xmlns:xlink="http://www.w3.org/1999/xlink" x="0px"
	 y="0px" viewBox="0 0 118 124.564" style="enable-background:new 0 0 118 124.564;" xml:space="preserve">
<path style="fill:#5B5C5C;" d="M111.104,72.434c-4.598,6.543-10.701,11.633-18.304,15.272c-2.272,1.138-4.712,2.077-7.322,2.815
	c-2.612,0.741-5.222,1.109-7.832,1.109c-2.839,0-5.704-0.141-8.599-0.426c-2.895-0.283-5.648-1.05-8.258-2.304v11.603
	c0,7.507-1.732,13.395-5.193,17.661c-3.464,4.266-9.11,6.399-16.943,6.399c-1.136,0-2.442-0.086-3.916-0.256
	c-1.477-0.171-2.98-0.485-4.512-0.938c-1.532-0.453-2.924-1.024-4.171-1.707c-1.251-0.683-2.214-1.536-2.895-2.559v-18.43
	c1.248,1.366,2.724,2.475,4.427,3.328c1.703,0.854,3.517,1.28,5.448,1.28c4.313,0,6.47-2.159,6.47-6.484V34.98h21.284V72.52
	c3.405,1.138,7.037,1.706,10.897,1.706c3.406,0,6.611-0.538,9.62-1.621c3.007-1.08,5.675-2.645,8.003-4.693
	c2.325-2.048,4.142-4.522,5.449-7.423c1.303-2.901,1.958-6.17,1.958-9.811c0-5.573-1.11-10.324-3.328-14.248
	c-2.219-3.925-5.151-7.138-8.79-9.641c-3.64-2.501-7.822-4.322-12.542-5.46c-4.722-1.136-9.53-1.706-14.42-1.706
	c-4.664,0-9.213,0.656-13.651,1.962c-4.438,1.309-8.45,3.301-12.033,5.973c-3.584,2.674-6.457,5.945-8.618,9.811
	c-2.16,3.869-3.24,8.361-3.24,13.48c0,3.186,0.396,6.087,1.192,8.703c0.793,2.618,2.325,5.063,4.597,7.337L10.469,80.198
	c-2.139-2.389-3.884-4.663-5.236-6.825c-1.351-2.16-2.421-4.378-3.208-6.655c-0.787-2.274-1.322-4.719-1.604-7.337
	C0.139,56.765,0,53.92,0,50.849c0-8.076,1.559-15.272,4.683-21.585c3.121-6.313,7.293-11.63,12.515-15.954
	c5.22-4.322,11.294-7.62,18.22-9.897C42.34,1.138,49.55,0,57.042,0c7.604,0,15.069,0.997,22.39,2.986
	c7.322,1.992,13.819,5.034,19.497,9.129c5.675,4.095,10.272,9.273,13.792,15.527C116.239,33.9,118,41.294,118,49.825
	C118,58.357,115.701,65.894,111.104,72.434z"/>
</svg>
