<?xml version="1.0" encoding="utf-8"?>
<!-- Generator: Adobe Illustrator 18.0.0, SVG Export Plug-In . SVG Version: 6.00 Build 0)  -->
<!DOCTYPE svg PUBLIC "-//W3C//DTD SVG 1.1//EN" "http://www.w3.org/Graphics/SVG/1.1/DTD/svg11.dtd">
<svg version="1.1" id="图层_1" xmlns="http://www.w3.org/2000/svg" xmlns:xlink="http://www.w3.org/1999/xlink" x="0px" y="0px"
	 viewBox="0 0 595.3 841.9" enable-background="new 0 0 595.3 841.9" xml:space="preserve">
<path fill="#5B5C5C" d="M0,433.9c1.1-6.4,1.7-13,3.5-19.2c11.8-40.3,58.3-60.5,95.6-41.4c18.9,9.7,30,26.1,35.2,46.2
	c3.1,12.2,4.3,25,5.9,37.5c2.3,18.4,4.1,36.9,6.1,55.4c2.4,21.3,4.9,42.6,7,63.9c1.4,14.3,2.4,28.6,3.3,42.9
	c0.5,8-1.3,10.4-9.2,10.9c-9.8,0.6-19.6,0.3-29.4-0.2c-4.9-0.2-7.2-3.1-8-7.9c-0.3-2.3-0.8-4.7-0.6-6.9c0.9-9-1.9-17.1-5.4-25.2
	c-12.1-27.6-23.9-55.3-35.8-83.1c-1-2.4-2.1-3.9-5.2-4.1c-29.1-1.5-56.4-26-61.3-55c-0.7-4-1.1-8.1-1.7-12.1C0,435,0,434.5,0,433.9z
	"/>
<path fill="#5B5C5C" d="M439.6,490.5c-43.2-29.4-90.8-42.6-142.1-42.5c-50.9,0.1-98.8,12.2-142.4,40.7c-1.1-8.8-2.1-17.3-3.3-25.7
	c-2.6-17.4-4.6-34.9-8.5-52c-3.1-13.6-10.5-25.4-21.2-34.8c-0.9-0.8-1.4-2.6-1.3-3.9c4.5-48,25.3-87.5,61.7-119
	c25.8-22.3,55.6-36,89.3-40.5c52.2-7,99.2,5.9,139.8,39.8c32.5,27.2,52.5,62,60.5,103.5c1,5.3,1.5,10.8,1.9,16.3
	c0.1,1.3-0.5,3-1.4,3.9c-14.5,13.4-21.9,30.4-24.7,49.5c-2.9,20-5.1,40.1-7.6,60.1C440.3,487.3,440,488.6,439.6,490.5z"/>
<path fill="#5B5C5C" d="M297.4,579.4c-42.1,0-84.2,0-126.4,0c-5.6,0-5.4,0-6.1-5.6c-2.6-22.2-5.2-44.5-8-66.7
	c-0.4-3.5,0.2-5.6,3.4-7.7c30.2-19.9,63.1-32.9,98.9-38.2c49-7.3,96.5-1.6,141.2,20.5c12.3,6.1,23.5,14.2,35.3,21.4
	c2.1,1.3,2.5,2.8,2.3,5.1c-2.6,22.2-5.3,44.5-7.7,66.7c-0.4,3.8-1.9,4.6-5.3,4.6C382.5,579.4,340,579.4,297.4,579.4z"/>
<path fill="#5B5C5C" d="M438.7,608.2c2.2-20.1,4.3-40.2,6.5-60.2c2.3-21,4.6-42,7-63.1c2.3-20,3.5-40.3,7.7-60
	c5.1-24.2,19.3-43.1,42.4-53.5c24.7-11.2,54.8-4.4,73.6,15.8c18.6,20.1,24.1,43.7,15.4,69.4c-8.8,26-27.8,41.4-54.9,45.6
	c-6.2,1-8.6,3.3-10.8,8.5c-12.1,28.8-24.6,57.4-36.8,86.1c-1.5,3.6-1.9,7.8-2.5,11.8c-0.4,3.4-0.3,6.8-0.5,10.2
	c-0.5,8.2-3,11.3-11.2,11.7c-8.6,0.4-17.2,0.4-25.8,0c-8.1-0.4-10.5-3.5-10.1-11.6c0.2-3.5,0.3-7.1,0.5-10.6
	C439.1,608.2,438.9,608.2,438.7,608.2z"/>
</svg>
