<?xml version="1.0" encoding="iso-8859-1"?>
<!-- Generator: Adobe Illustrator 18.0.0, SVG Export Plug-In . SVG Version: 6.00 Build 0)  -->
<!DOCTYPE svg PUBLIC "-//W3C//DTD SVG 1.1//EN" "http://www.w3.org/Graphics/SVG/1.1/DTD/svg11.dtd">
<svg version="1.1" id="&#x56FE;&#x5C42;_1" xmlns="http://www.w3.org/2000/svg" xmlns:xlink="http://www.w3.org/1999/xlink" x="0px"
	 y="0px" viewBox="0 0 121 118" style="enable-background:new 0 0 121 118;" xml:space="preserve">
<path style="fill:#5B5C5C;" d="M60.5,0C27.088,0,0,26.804,0,59.867C0,87.998,19.614,111.585,46.042,118
	c-0.01-7.402-0.031-21.482-0.039-21.996c-0.11-0.066-11.468,6.517-17.263-4.997c-0.699-1.424-2.106-6.177-5.628-8.84
	c-0.126-0.107-2.728-1.418-2.967-2.709c-0.026-0.183,0.169-0.559,0.424-0.651c0.267-0.102,4.549-1.84,9.321,4.153
	c1.438,2.003,4.685,9.699,16.054,4.941c0.303-1.185,0.524-3.116,2.982-5.317c-16.93-1.998-23.117-7.737-25.516-22.057
	c-1.498-9.765,1.382-17.883,5.707-21.889c-0.655-0.854-2.815-7.986,0.542-15.535c3.637-0.722,10.31,1.866,16.174,6.044
	c8.271-2.958,23.8-2.191,29.356,0c2.641-2.161,12.072-7.208,16.118-6.034c1.189,2.999,2.905,10.258,0.534,15.55
	c5.271,5.368,6.755,12.297,5.805,20.811c-1.164,12.902-7.762,21.589-25.699,23.109c2.99,2.09,5.733,4.951,5.733,9.811
	c0,5.221-0.003,17.721-0.005,24.873C102.719,109.943,121,87.027,121,59.867C121,26.804,93.914,0,60.5,0z"/>
</svg>
