<?xml version="1.0" encoding="iso-8859-1"?>
<!-- Generator: Adobe Illustrator 18.0.0, SVG Export Plug-In . SVG Version: 6.00 Build 0)  -->
<!DOCTYPE svg PUBLIC "-//W3C//DTD SVG 1.1//EN" "http://www.w3.org/Graphics/SVG/1.1/DTD/svg11.dtd">
<svg version="1.1" id="&#x56FE;&#x5C42;_1" xmlns="http://www.w3.org/2000/svg" xmlns:xlink="http://www.w3.org/1999/xlink" x="0px"
	 y="0px" viewBox="0 0 124.24 90.354" style="enable-background:new 0 0 124.24 90.354;" xml:space="preserve">
<path style="fill:#5B5C5C;" d="M123.258,4.272c-0.111-0.205-0.234-0.403-0.361-0.597c-0.016-0.025-0.03-0.052-0.046-0.077
	c-0.019-0.029-0.042-0.054-0.061-0.082c-0.113-0.164-0.232-0.324-0.357-0.478c-0.023-0.028-0.043-0.057-0.066-0.085
	c-0.144-0.174-0.297-0.341-0.456-0.503c-0.019-0.019-0.035-0.04-0.054-0.059c-0.028-0.028-0.059-0.052-0.087-0.079
	c-0.13-0.127-0.265-0.25-0.404-0.368c-0.042-0.036-0.082-0.073-0.125-0.108c-0.173-0.141-0.352-0.275-0.536-0.402
	c-0.018-0.013-0.035-0.027-0.053-0.04c-0.035-0.024-0.073-0.043-0.108-0.066c-0.147-0.097-0.298-0.188-0.452-0.275
	c-0.057-0.032-0.114-0.066-0.172-0.097c-0.197-0.105-0.399-0.203-0.605-0.292c-0.015-0.007-0.03-0.015-0.045-0.022
	c-0.039-0.016-0.08-0.028-0.12-0.044c-0.167-0.068-0.336-0.13-0.508-0.186c-0.068-0.023-0.136-0.045-0.205-0.066
	c-0.218-0.066-0.44-0.124-0.665-0.172c-0.01-0.002-0.02-0.006-0.031-0.008c-0.036-0.007-0.074-0.01-0.11-0.017
	c-0.19-0.036-0.383-0.065-0.577-0.088c-0.076-0.009-0.152-0.017-0.228-0.024c-0.22-0.019-0.442-0.032-0.666-0.034
	c-0.02,0-0.039-0.003-0.059-0.003l0,0h-0.369l-0.001,0.001l-5.249,3.843l-0.39,0.286L62.543,38.943L14.15,3.509L9.358,0.001L9.356,0
	H8.141C4.652,0,1.687,2.203,0.528,5.293C0.192,6.186,0,7.151,0,8.162v74.032c0,0.01,0.001,0.019,0.001,0.029
	c0.001,0.239,0.015,0.475,0.036,0.709c0.007,0.074,0.015,0.148,0.024,0.221c0.021,0.182,0.049,0.361,0.082,0.539
	c0.013,0.068,0.023,0.137,0.037,0.205c0.043,0.202,0.093,0.402,0.151,0.598c0.002,0.008,0.006,0.017,0.008,0.025
	c0.038,0.129,0.084,0.254,0.128,0.38c0.037,0.106,0.074,0.213,0.116,0.317c0.046,0.117,0.097,0.231,0.148,0.345
	c0.05,0.111,0.103,0.22,0.158,0.328c0.053,0.104,0.106,0.208,0.164,0.31c0.068,0.12,0.14,0.237,0.214,0.353
	c0.054,0.085,0.105,0.172,0.162,0.255c0.13,0.19,0.267,0.375,0.413,0.554c0.043,0.053,0.091,0.102,0.136,0.155
	c0.113,0.131,0.227,0.26,0.348,0.384c0.064,0.066,0.131,0.128,0.197,0.191c0.11,0.105,0.221,0.207,0.336,0.306
	c0.072,0.061,0.144,0.121,0.218,0.18c0.12,0.096,0.244,0.188,0.37,0.277c0.072,0.051,0.143,0.103,0.217,0.152
	c0.153,0.101,0.31,0.195,0.47,0.286c0.051,0.029,0.099,0.061,0.151,0.089c0.21,0.113,0.426,0.217,0.646,0.312
	c0.07,0.03,0.142,0.055,0.213,0.083c0.156,0.062,0.313,0.121,0.473,0.174c0.092,0.03,0.185,0.056,0.279,0.083
	c0.145,0.042,0.292,0.08,0.441,0.114c0.099,0.022,0.198,0.044,0.298,0.063c0.153,0.029,0.309,0.051,0.465,0.071
	c0.095,0.012,0.19,0.027,0.286,0.036c0.213,0.02,0.429,0.03,0.647,0.033c0.036,0.001,0.072,0.005,0.109,0.005h6.009V22.947
	l35.121,25.716l11.545,8.452h0h0l0,0l0.117,0.085l2.011,1.474l0.001-0.001l0.001,0.001l8.177-5.987l5.096-3.73l25.991-19.031
	l7.88-5.769v66.197h6.009c0.037,0,0.073-0.004,0.11-0.005c0.217-0.003,0.433-0.013,0.646-0.033c0.061-0.006,0.121-0.014,0.181-0.023
	c0.023-0.003,0.047-0.006,0.071-0.009c0.012-0.001,0.024-0.003,0.036-0.004c0.156-0.02,0.311-0.042,0.464-0.071
	c0.005-0.001,0.01-0.002,0.016-0.003c0.046-0.009,0.092-0.019,0.138-0.029c0.049-0.01,0.097-0.02,0.146-0.031
	c0.148-0.034,0.294-0.072,0.439-0.113c0.094-0.027,0.188-0.053,0.28-0.084c0.16-0.052,0.316-0.111,0.471-0.173
	c0.01-0.004,0.02-0.008,0.03-0.012c0.059-0.024,0.119-0.044,0.178-0.069c0.002-0.001,0.005-0.002,0.007-0.003
	c0.22-0.095,0.436-0.198,0.645-0.312c0.053-0.028,0.102-0.061,0.154-0.091c0.158-0.09,0.315-0.184,0.466-0.284
	c0.075-0.049,0.146-0.102,0.22-0.154c0.125-0.089,0.247-0.18,0.367-0.275c0.001-0.001,0.003-0.002,0.004-0.003
	c0.072-0.058,0.143-0.116,0.213-0.176c0.001-0.001,0.002-0.002,0.003-0.003c0.114-0.098,0.224-0.199,0.332-0.303
	c0.032-0.03,0.063-0.062,0.095-0.092c0.035-0.033,0.07-0.066,0.104-0.1c0.001-0.001,0.001-0.001,0.002-0.002
	c0.118-0.121,0.23-0.247,0.34-0.375c0.009-0.01,0.018-0.02,0.026-0.03c0.038-0.044,0.079-0.086,0.116-0.131
	c0-0.001,0.001-0.001,0.001-0.002c0.145-0.177,0.281-0.362,0.411-0.551c0.001-0.001,0.001-0.002,0.002-0.002
	c0.056-0.081,0.106-0.166,0.158-0.25c0.002-0.003,0.004-0.007,0.006-0.01c0.072-0.113,0.143-0.227,0.209-0.344
	c0.001-0.001,0.001-0.003,0.002-0.004c0.009-0.016,0.017-0.032,0.025-0.048c0.048-0.087,0.094-0.175,0.139-0.264
	c0.054-0.106,0.105-0.213,0.154-0.321c0.053-0.116,0.104-0.233,0.151-0.352c0.04-0.101,0.076-0.203,0.112-0.306
	c0.014-0.039,0.026-0.078,0.039-0.117c0.031-0.088,0.063-0.176,0.09-0.266c0.001-0.002,0.002-0.005,0.002-0.007
	c0.002-0.008,0.005-0.015,0.007-0.022c0.058-0.196,0.108-0.395,0.151-0.596c0.001-0.003,0.001-0.006,0.002-0.009
	c0.013-0.061,0.022-0.123,0.034-0.185c0.001-0.007,0.003-0.014,0.004-0.021c0.032-0.174,0.06-0.35,0.08-0.528
	c0.009-0.076,0.018-0.152,0.025-0.229c0.02-0.228,0.034-0.459,0.035-0.692c0-0.014,0.002-0.028,0.002-0.042V13.796v-3.118V8.162
	C124.24,6.753,123.885,5.428,123.258,4.272z"/>
</svg>
