<svg xmlns="http://www.w3.org/2000/svg" xmlns:xlink="http://www.w3.org/1999/xlink" preserveAspectRatio="xMidYMid" width="23" height="36.25" viewBox="0 0 23 36.25">
  <defs>
    <style>
      .cls-1 {
        fill: #000;
        fill-rule: evenodd;
      }
    </style>
  </defs>
  <path d="M22.621,5.109 C18.760,8.972 14.899,12.834 11.038,16.697 C10.969,16.766 10.906,16.841 10.841,16.914 C10.763,16.986 10.682,17.055 10.607,17.130 C9.115,18.621 7.621,20.111 6.134,21.609 C5.879,21.865 5.593,21.985 5.235,21.982 C4.546,21.975 3.856,21.990 3.167,21.983 C2.933,21.981 2.748,21.839 2.590,21.682 C1.826,20.925 1.070,20.160 0.306,19.403 C0.061,19.161 -0.009,18.865 -0.014,18.539 C-0.001,18.528 0.001,18.514 -0.007,18.498 C0.041,18.258 0.162,18.062 0.336,17.891 C0.640,17.593 0.934,17.287 1.232,16.984 C1.292,16.929 1.355,16.876 1.413,16.818 C3.445,14.786 5.478,12.754 7.508,10.719 C7.965,10.261 8.398,9.779 8.862,9.328 C11.906,6.371 14.868,3.331 17.882,0.343 C18.346,-0.117 18.892,-0.121 19.357,0.342 C20.450,1.432 21.541,2.525 22.631,3.618 C23.101,4.089 23.096,4.634 22.621,5.109 ZM7.326,25.161 C7.971,24.531 8.586,23.870 9.230,23.241 C10.943,21.565 12.625,19.858 14.325,18.169 C14.669,17.828 15.004,17.479 15.344,17.134 C16.194,16.290 17.045,15.447 17.893,14.601 C18.172,14.323 18.494,14.212 18.879,14.309 C19.085,14.361 19.240,14.492 19.387,14.640 C20.448,15.704 21.511,16.766 22.573,17.828 C23.041,18.297 23.094,18.664 22.777,19.235 C22.694,19.314 22.610,19.391 22.529,19.472 C19.436,22.566 16.342,25.659 13.252,28.755 C13.072,28.935 12.873,29.065 12.622,29.110 C11.852,29.109 11.082,29.108 10.313,29.107 C10.035,29.071 9.823,28.927 9.628,28.730 C8.925,28.016 8.219,27.305 7.503,26.605 C7.210,26.318 7.067,25.989 7.117,25.586 C7.137,25.427 7.214,25.270 7.326,25.161 ZM14.547,32.237 C15.673,31.099 16.804,29.967 17.942,28.841 C18.334,28.452 18.899,28.454 19.290,28.841 C20.428,29.968 21.559,31.100 22.685,32.237 C23.080,32.635 23.072,33.205 22.680,33.601 C21.895,34.394 21.104,35.182 20.314,35.971 C20.132,36.153 19.911,36.249 19.652,36.250 C19.307,36.251 18.962,36.250 18.618,36.250 C18.281,36.250 17.945,36.248 17.608,36.251 C17.330,36.253 17.097,36.152 16.902,35.957 C16.118,35.173 15.331,34.393 14.553,33.604 C14.156,33.201 14.149,32.640 14.547,32.237 Z" class="cls-1"/>
</svg>
