<svg xmlns="http://www.w3.org/2000/svg" xmlns:xlink="http://www.w3.org/1999/xlink" preserveAspectRatio="xMidYMid" width="24.156" height="34.03" viewBox="0 0 24.156 34.03">
  <defs>
    <style>
      .cls-1 {
        fill: #000;
        fill-rule: evenodd;
      }
    </style>
  </defs>
  <path d="M21.049,0.008 C21.049,0.008 5.658,0.008 3.194,0.008 C0.730,0.008 0.006,1.872 0.006,3.046 C0.006,4.220 0.006,31.582 0.006,31.582 C0.006,32.904 0.603,33.838 1.000,34.000 C1.397,34.162 2.344,33.762 3.000,33.000 C3.000,33.000 11.688,23.254 11.832,23.108 C12.051,22.888 12.051,22.888 12.270,22.888 C12.708,22.888 15.233,23.000 17.000,23.000 C19.292,23.000 20.761,20.968 21.000,20.000 C21.199,19.189 23.253,8.653 24.000,5.000 C24.570,2.212 23.671,0.008 21.049,0.008 ZM21.000,20.000 C21.485,17.763 23.253,8.653 24.000,5.000 M20.000,5.000 L19.000,9.000 C18.910,9.425 18.493,10.000 18.000,10.000 C17.507,10.000 11.000,10.000 11.000,10.000 C10.217,10.000 10.000,10.213 10.000,11.000 L10.000,12.000 C10.000,12.787 10.217,13.000 11.000,13.000 C11.000,13.000 16.448,13.000 17.000,13.000 C18.292,12.852 18.120,14.406 18.000,15.000 C17.880,15.594 17.375,17.937 17.308,18.262 C17.240,18.587 16.657,19.000 16.000,19.000 C15.446,19.000 12.000,19.000 12.000,19.000 C11.123,19.000 10.253,19.258 9.666,19.992 C9.079,20.726 4.000,27.000 4.000,27.000 C3.947,27.062 4.000,27.067 4.000,27.000 L4.000,5.000 C4.000,4.498 4.349,4.000 5.000,4.000 C5.000,4.000 18.441,4.000 19.000,4.000 C19.527,4.000 20.135,4.349 20.000,5.000 Z" class="cls-1"/>
</svg>
