<svg xmlns="http://www.w3.org/2000/svg" xmlns:xlink="http://www.w3.org/1999/xlink" preserveAspectRatio="xMidYMid" width="18" height="34" viewBox="0 0 18 34">
  <defs>
    <style>
      .cls-1 {
        fill: #000;
        fill-rule: evenodd;
      }
    </style>
  </defs>
  <path d="M15.000,0.000 L3.000,0.000 C1.461,0.000 -0.000,1.471 -0.000,3.000 C-0.000,3.000 0.041,30.959 -0.000,31.000 C-0.028,32.557 1.455,34.005 3.000,34.000 L15.000,34.000 C16.541,34.000 18.000,32.529 18.000,31.000 L18.000,3.000 C18.000,1.471 16.541,0.000 15.000,0.000 ZM9.000,32.000 C7.974,32.000 7.000,31.019 7.000,30.000 C7.000,28.982 7.974,28.000 9.000,28.000 C10.027,28.000 11.000,28.982 11.000,30.000 C11.000,31.019 10.027,32.000 9.000,32.000 ZM16.000,27.000 L2.000,27.000 L2.000,6.000 L16.000,6.000 L16.000,27.000 Z" class="cls-1"/>
</svg>
