<svg xmlns="http://www.w3.org/2000/svg" xmlns:xlink="http://www.w3.org/1999/xlink" preserveAspectRatio="xMidYMid" width="39.687" height="19.97" viewBox="0 0 39.687 19.97">
  <defs>
    <style>
      .cls-1 {
        fill: #000;
        fill-rule: evenodd;
      }
    </style>
  </defs>
  <path d="M27.003,0.504 C26.048,0.846 25.163,1.297 24.351,1.857 C23.538,2.416 22.772,3.066 22.050,3.806 C21.328,4.546 20.588,5.313 19.830,6.107 C19.144,5.313 18.422,4.546 17.664,3.806 C16.906,3.066 16.103,2.416 15.255,1.857 C14.407,1.297 13.495,0.846 12.521,0.504 C11.546,0.160 10.500,-0.011 9.380,-0.011 C7.937,-0.011 6.629,0.251 5.455,0.774 C4.283,1.297 3.299,2.019 2.504,2.940 C1.711,3.860 1.097,4.934 0.664,6.161 C0.231,7.388 0.014,8.706 0.014,10.114 C0.014,11.521 0.231,12.821 0.664,14.012 C1.097,15.203 1.711,16.240 2.504,17.125 C3.299,18.009 4.273,18.703 5.428,19.209 C6.584,19.714 7.883,19.967 9.326,19.967 C10.482,19.967 11.555,19.786 12.548,19.426 C13.541,19.065 14.461,18.587 15.309,17.991 C16.157,17.396 16.952,16.700 17.691,15.907 C18.431,15.112 19.144,14.300 19.830,13.470 C20.552,14.337 21.283,15.157 22.022,15.934 C22.763,16.710 23.557,17.396 24.405,17.991 C25.253,18.587 26.174,19.065 27.166,19.426 C28.159,19.786 29.250,19.967 30.441,19.967 C31.885,19.967 33.185,19.705 34.340,19.182 C35.495,18.659 36.470,17.955 37.263,17.071 C38.058,16.186 38.662,15.139 39.077,13.931 C39.492,12.721 39.700,11.413 39.700,10.005 C39.700,8.598 39.483,7.280 39.050,6.053 C38.617,4.826 37.986,3.770 37.155,2.886 C36.325,2.001 35.333,1.297 34.177,0.774 C33.022,0.251 31.705,-0.011 30.225,-0.011 C29.034,-0.011 27.960,0.160 27.003,0.504 ZM33.419,6.703 C34.177,7.533 34.556,8.598 34.556,9.897 C34.556,11.088 34.186,12.162 33.446,13.118 C32.707,14.074 31.705,14.553 30.441,14.553 C29.756,14.553 29.070,14.399 28.384,14.093 C27.699,13.786 27.040,13.398 26.408,12.929 C25.777,12.459 25.172,11.945 24.594,11.386 C24.017,10.826 23.511,10.312 23.078,9.843 C23.511,9.337 23.999,8.823 24.540,8.300 C25.081,7.776 25.659,7.307 26.273,6.892 C26.887,6.477 27.536,6.134 28.222,5.864 C28.908,5.593 29.594,5.457 30.279,5.457 C31.615,5.457 32.661,5.872 33.419,6.703 ZM11.411,5.836 C12.079,6.089 12.719,6.423 13.333,6.838 C13.947,7.253 14.524,7.722 15.065,8.246 C15.607,8.769 16.113,9.302 16.581,9.843 C16.148,10.312 15.661,10.826 15.119,11.386 C14.578,11.945 14.010,12.459 13.414,12.929 C12.818,13.398 12.187,13.786 11.519,14.093 C10.852,14.399 10.157,14.553 9.435,14.553 C8.100,14.553 7.044,14.101 6.267,13.200 C5.492,12.297 5.103,11.214 5.103,9.951 C5.103,8.687 5.464,7.623 6.186,6.757 C6.909,5.891 7.937,5.457 9.272,5.457 C10.030,5.457 10.743,5.584 11.411,5.836 Z" class="cls-1"/>
</svg>
