<svg xmlns="http://www.w3.org/2000/svg" xmlns:xlink="http://www.w3.org/1999/xlink" preserveAspectRatio="xMidYMid" width="42.468" height="20.09" viewBox="0 0 42.468 20.09">
  <defs>
    <style>
      .cls-1 {
        fill: #000;
        fill-rule: evenodd;
      }
    </style>
  </defs>
  <path d="M41.981,15.477 C41.666,16.369 41.220,17.149 40.643,17.818 C40.066,18.487 39.351,19.012 38.499,19.391 C37.646,19.772 36.695,19.962 35.646,19.962 C34.833,19.962 34.072,19.838 33.364,19.588 C32.656,19.339 31.993,19.012 31.377,18.605 C30.761,18.198 30.177,17.726 29.626,17.189 C29.075,16.651 28.550,16.094 28.052,15.517 C27.501,16.094 26.964,16.651 26.439,17.189 C25.914,17.726 25.357,18.198 24.767,18.605 C24.177,19.012 23.534,19.339 22.839,19.588 C22.144,19.838 21.363,19.962 20.498,19.962 C19.422,19.962 18.465,19.772 17.625,19.391 C16.786,19.012 16.064,18.500 15.461,17.857 C14.901,17.261 14.479,16.546 14.168,15.735 C14.154,15.766 14.150,15.800 14.136,15.831 C13.739,16.709 13.206,17.470 12.535,18.111 C11.865,18.754 11.086,19.249 10.198,19.598 C9.310,19.948 8.366,20.113 7.365,20.094 C6.402,20.094 5.481,19.967 4.603,19.712 C3.725,19.457 2.946,19.065 2.266,18.536 C1.586,18.008 1.043,17.352 0.637,16.568 C0.231,15.784 0.018,15.061 -0.001,14.022 L4.105,14.022 C4.199,14.928 4.457,15.463 5.042,16.001 C5.627,16.539 6.374,16.809 7.280,16.809 C7.809,16.809 8.286,16.700 8.711,16.483 C9.136,16.266 9.494,15.983 9.787,15.633 C10.080,15.284 10.307,14.878 10.467,14.415 C10.628,13.953 10.708,13.476 10.708,12.985 C10.708,12.475 10.632,11.994 10.482,11.540 C10.330,11.087 10.104,10.691 9.802,10.351 C9.499,10.011 9.140,9.747 8.725,9.558 C8.309,9.369 7.828,9.275 7.280,9.275 C6.562,9.275 5.977,9.402 5.524,9.657 C5.071,9.912 4.501,10.396 4.105,10.943 L0.684,10.943 L2.736,-0.004 L13.684,-0.004 L13.684,3.075 L5.473,3.075 L4.674,7.717 L4.731,7.773 C5.278,7.226 5.864,6.834 6.487,6.598 C7.110,6.362 7.819,6.244 8.612,6.244 C9.594,6.244 10.463,6.424 11.218,6.782 C11.973,7.141 12.611,7.623 13.130,8.227 C13.524,8.684 13.824,9.225 14.076,9.807 C14.377,8.940 14.811,8.187 15.383,7.551 C15.959,6.908 16.668,6.397 17.507,6.017 C18.347,5.637 19.291,5.446 20.340,5.446 C21.206,5.446 21.999,5.578 22.721,5.840 C23.442,6.102 24.111,6.449 24.728,6.882 C25.344,7.315 25.921,7.813 26.459,8.377 C26.996,8.941 27.527,9.537 28.052,10.167 C28.550,9.564 29.069,8.974 29.607,8.397 C30.144,7.820 30.721,7.315 31.338,6.882 C31.954,6.449 32.623,6.102 33.345,5.840 C34.066,5.578 34.846,5.446 35.686,5.446 C36.734,5.446 37.679,5.630 38.519,5.997 C39.358,6.365 40.066,6.869 40.643,7.511 C41.220,8.154 41.666,8.908 41.981,9.773 C42.296,10.639 42.453,11.583 42.453,12.606 C42.453,13.628 42.296,14.586 41.981,15.477 ZM24.590,11.681 C24.170,11.275 23.730,10.901 23.272,10.560 C22.812,10.220 22.333,9.937 21.836,9.714 C21.337,9.492 20.838,9.380 20.340,9.380 C19.422,9.380 18.694,9.728 18.157,10.422 C17.619,11.118 17.350,11.898 17.350,12.763 C17.350,13.707 17.625,14.481 18.176,15.084 C18.727,15.688 19.488,15.989 20.458,15.989 C20.956,15.989 21.455,15.890 21.954,15.694 C22.452,15.497 22.924,15.248 23.370,14.946 C23.816,14.645 24.236,14.304 24.629,13.923 C25.023,13.544 25.377,13.170 25.692,12.802 C25.377,12.462 25.009,12.088 24.590,11.681 ZM37.909,10.363 C37.344,9.708 36.577,9.380 35.607,9.380 C35.082,9.380 34.577,9.492 34.092,9.714 C33.606,9.937 33.148,10.220 32.715,10.560 C32.282,10.901 31.869,11.275 31.476,11.681 C31.082,12.088 30.728,12.462 30.413,12.802 C30.754,13.196 31.121,13.583 31.515,13.963 C31.908,14.343 32.328,14.684 32.774,14.986 C33.220,15.287 33.685,15.530 34.171,15.713 C34.656,15.897 35.174,15.989 35.725,15.989 C36.695,15.989 37.443,15.674 37.968,15.045 C38.492,14.415 38.755,13.642 38.755,12.724 C38.755,11.806 38.473,11.019 37.909,10.363 Z" class="cls-1"/>
</svg>
