<svg xmlns="http://www.w3.org/2000/svg" xmlns:xlink="http://www.w3.org/1999/xlink" preserveAspectRatio="xMidYMid" width="31" height="31" viewBox="0 0 31 31">
  <defs>
    <style>
      .cls-1 {
        fill: #000;
        fill-rule: evenodd;
      }
    </style>
  </defs>
  <path d="M30.923,12.876 L30.662,12.338 L30.225,11.996 C29.653,11.552 26.763,12.026 25.984,11.320 C25.431,10.815 25.346,9.904 25.179,8.673 C24.869,6.280 24.671,6.155 24.297,5.347 C22.936,2.470 19.243,0.307 16.705,0.007 L9.833,0.007 C4.425,0.007 0.006,4.415 0.006,9.800 L0.006,21.219 C0.006,26.592 4.425,30.992 9.833,30.992 L21.124,30.992 C26.531,30.992 30.923,26.592 30.954,21.219 L31.015,13.310 L30.923,12.876 ZM9.958,8.007 L16.000,8.000 C17.040,8.000 17.925,8.975 18.000,10.000 C18.077,11.056 17.237,12.099 15.791,11.918 C15.407,11.748 10.000,12.000 10.000,12.000 C8.960,12.000 8.000,11.022 8.000,10.000 C8.000,8.972 8.918,8.007 9.958,8.007 ZM21.030,22.938 L9.958,22.938 C8.918,22.938 8.000,22.014 8.000,21.000 C8.000,19.974 8.960,19.000 10.000,19.000 L21.000,19.000 C22.033,19.000 22.902,20.048 22.902,21.074 C22.902,22.088 22.063,22.938 21.030,22.938 Z" class="cls-1"/>
</svg>
