<svg xmlns="http://www.w3.org/2000/svg" xmlns:xlink="http://www.w3.org/1999/xlink" preserveAspectRatio="xMidYMid" width="29.69" height="33.44" viewBox="0 0 29.69 33.44">
  <defs>
    <style>
      .cls-1 {
        fill: #000;
        fill-rule: evenodd;
      }
    </style>
  </defs>
  <path d="M22.638,27.881 C26.864,25.227 29.680,20.483 29.680,15.070 C29.680,6.755 23.037,0.013 14.842,0.013 C6.648,0.013 0.006,6.755 0.006,15.070 C0.006,23.387 6.648,30.127 14.842,30.127 C16.048,30.127 17.219,29.978 18.340,29.702 C19.748,32.268 21.894,34.083 26.449,33.215 L26.449,30.663 C26.449,30.663 23.528,29.928 22.638,27.881 ZM22.535,17.061 C22.535,19.575 21.736,21.857 20.437,23.542 C18.807,21.805 16.251,20.376 13.007,20.558 L13.007,20.863 L13.007,23.517 C13.007,23.517 15.207,23.604 16.714,26.195 C16.149,26.362 15.562,26.452 14.956,26.452 C10.770,26.452 7.379,22.248 7.379,17.061 C7.379,16.395 7.379,13.847 7.379,13.181 C7.379,7.995 10.770,3.790 14.956,3.790 C19.142,3.790 22.535,7.995 22.535,13.181 C22.535,13.848 22.535,16.396 22.535,17.061 Z" class="cls-1"/>
</svg>
