<svg xmlns="http://www.w3.org/2000/svg" xmlns:xlink="http://www.w3.org/1999/xlink" preserveAspectRatio="xMidYMid" width="32" height="25.81" viewBox="0 0 32 25.81">
  <defs>
    <style>
      .cls-1 {
        fill: #000;
        fill-rule: evenodd;
      }
    </style>
  </defs>
  <path d="M32.010,3.047 C30.832,3.567 29.566,3.916 28.237,4.075 C29.593,3.268 30.634,1.989 31.125,0.469 C29.857,1.215 28.450,1.756 26.955,2.051 C25.757,0.783 24.050,-0.009 22.162,-0.009 C18.535,-0.009 15.594,2.909 15.594,6.510 C15.594,7.017 15.652,7.518 15.764,7.995 C10.307,7.721 5.468,5.127 2.228,1.186 C1.664,2.148 1.339,3.266 1.339,4.460 C1.339,6.723 2.499,8.716 4.261,9.885 C3.185,9.852 2.172,9.557 1.287,9.069 C1.286,9.096 1.286,9.123 1.286,9.152 C1.286,12.310 3.550,14.943 6.554,15.542 C6.003,15.691 5.423,15.769 4.824,15.769 C4.401,15.769 3.989,15.730 3.588,15.653 C4.423,18.243 6.849,20.127 9.723,20.178 C7.475,21.926 4.643,22.969 1.567,22.969 C1.036,22.969 0.514,22.938 -0.000,22.876 C2.906,24.726 6.358,25.805 10.067,25.805 C22.146,25.805 28.751,15.875 28.751,7.264 C28.751,6.982 28.745,6.700 28.733,6.421 C30.017,5.501 31.129,4.354 32.010,3.047 Z" class="cls-1"/>
</svg>
