<svg xmlns="http://www.w3.org/2000/svg" xmlns:xlink="http://www.w3.org/1999/xlink" preserveAspectRatio="xMidYMid" width="38.282" height="20.22" viewBox="0 0 38.282 20.22">
  <defs>
    <style>
      .cls-1 {
        fill: #000;
        fill-rule: evenodd;
      }
    </style>
  </defs>
  <path d="M37.976,8.321 L34.091,13.079 L37.972,17.828 C38.464,18.458 38.322,19.332 37.644,19.799 C36.965,20.267 36.013,20.148 35.487,19.538 L32.149,15.456 L28.809,19.538 C28.289,20.148 27.330,20.267 26.653,19.799 C25.976,19.332 25.835,18.458 26.329,17.828 L26.327,17.828 L30.206,13.079 L26.327,8.321 L26.329,8.321 C25.835,7.694 25.976,6.818 26.653,6.351 C27.330,5.882 28.289,6.002 28.809,6.611 L28.809,6.610 L32.149,10.698 L35.491,6.610 L35.491,6.611 C36.017,6.002 36.969,5.882 37.648,6.351 C38.327,6.817 38.467,7.694 37.976,8.321 ZM19.754,20.213 C17.022,20.213 14.644,18.678 13.447,16.430 C12.249,18.678 9.873,20.213 7.139,20.213 C3.234,20.213 0.065,17.087 0.002,13.207 L0.000,13.207 L0.000,1.391 C0.018,0.615 0.646,-0.006 1.426,-0.006 C2.206,-0.006 2.840,0.615 2.854,1.391 L2.854,7.392 C4.050,6.497 5.533,5.967 7.139,5.967 C9.873,5.967 12.249,7.500 13.447,9.751 C14.644,7.500 17.022,5.967 19.754,5.967 C23.696,5.967 26.893,9.155 26.893,13.089 C26.893,17.024 23.696,20.213 19.754,20.213 ZM7.139,8.819 C4.773,8.819 2.854,10.730 2.854,13.090 C2.854,15.450 4.773,17.361 7.139,17.361 C9.504,17.361 11.420,15.449 11.420,13.089 C11.420,10.730 9.504,8.819 7.139,8.819 ZM19.754,8.819 C17.388,8.819 15.469,10.730 15.469,13.089 C15.469,15.449 17.388,17.361 19.754,17.361 C22.119,17.361 24.036,15.449 24.036,13.089 C24.036,10.730 22.119,8.819 19.754,8.819 Z" class="cls-1"/>
</svg>
