<svg xmlns="http://www.w3.org/2000/svg" xmlns:xlink="http://www.w3.org/1999/xlink" preserveAspectRatio="xMidYMid" width="36" height="36" viewBox="0 0 36 36">
  <defs>
    <style>
      .cls-1 {
        fill: #000;
        fill-rule: evenodd;
      }
    </style>
  </defs>
  <path d="M18.006,0.007 C8.061,0.007 -0.002,8.062 -0.002,17.997 C-0.002,27.931 8.061,35.986 18.006,35.986 C27.952,35.986 36.014,27.931 36.014,17.997 C36.014,8.062 27.952,0.007 18.006,0.007 ZM18.006,3.417 C26.019,3.417 32.517,9.862 32.594,17.840 C32.591,17.890 32.585,17.935 32.585,17.997 C32.585,20.566 30.901,22.280 29.186,22.280 C25.724,22.280 26.683,18.331 22.323,13.976 C16.571,8.230 12.003,8.574 12.003,8.574 C13.799,16.203 10.288,22.280 6.858,22.280 C4.285,22.280 3.428,19.736 3.428,17.997 L3.411,17.987 C3.411,17.986 3.411,17.984 3.411,17.983 C3.411,9.939 9.945,3.417 18.006,3.417 Z" class="cls-1"/>
</svg>
