<svg xmlns="http://www.w3.org/2000/svg" xmlns:xlink="http://www.w3.org/1999/xlink" preserveAspectRatio="xMidYMid" width="30" height="29.06" viewBox="0 0 30 29.06">
  <defs>
    <style>
      .cls-1 {
        fill: #000;
        fill-rule: evenodd;
      }
    </style>
  </defs>
  <path d="M14.230,14.823 C9.716,10.697 1.646,9.728 1.646,9.728 C0.739,9.728 -0.000,10.343 -0.000,11.228 L-0.000,14.036 C-0.000,14.920 0.739,15.537 1.646,15.540 C1.646,15.540 6.833,15.673 9.948,18.485 C14.060,22.198 13.949,27.348 13.949,27.348 C13.949,28.235 14.378,28.954 15.288,28.954 L18.478,28.954 C19.387,28.954 19.609,28.235 19.609,27.348 C19.609,27.348 18.849,19.037 14.230,14.823 ZM4.270,21.101 C2.017,21.101 0.189,22.881 0.189,25.074 C0.189,27.273 2.017,29.050 4.270,29.050 C6.526,29.050 8.355,27.273 8.355,25.074 C8.355,22.881 6.527,21.101 4.270,21.101 ZM22.310,9.245 C15.208,0.906 1.646,0.003 1.646,0.003 C0.739,0.003 -0.000,0.622 -0.000,1.509 L-0.000,4.314 C-0.000,5.201 0.739,5.816 1.646,5.816 C1.646,5.816 11.338,6.121 16.803,12.408 C24.295,19.912 23.726,27.413 23.726,27.413 C23.726,28.299 24.462,29.016 25.374,29.016 L28.564,29.016 C29.475,29.016 30.007,28.299 30.007,27.413 C30.007,27.413 29.333,15.614 22.310,9.245 Z" class="cls-1"/>
</svg>
