<svg xmlns="http://www.w3.org/2000/svg" xmlns:xlink="http://www.w3.org/1999/xlink" preserveAspectRatio="xMidYMid" width="38" height="23.03" viewBox="0 0 38 23.03">
  <defs>
    <style>
      .cls-1 {
        fill: #000;
        fill-rule: evenodd;
      }
    </style>
  </defs>
  <path d="M38.002,19.428 C37.889,20.927 37.205,22.124 36.120,22.718 L35.610,22.997 L24.277,23.020 C15.568,23.037 12.799,23.005 12.321,22.883 L12.321,22.883 C10.019,22.294 8.737,20.422 8.733,17.644 C8.732,16.755 8.794,16.330 9.011,15.758 C9.542,14.358 10.948,13.302 12.798,12.913 C13.718,12.719 14.002,12.511 14.002,12.031 C14.002,11.880 14.111,11.430 14.245,11.032 C14.854,9.222 15.980,7.714 17.183,7.097 C18.443,6.451 19.079,6.305 20.603,6.313 C22.767,6.325 23.846,6.806 25.356,8.429 L26.186,9.321 L26.930,9.058 C30.531,7.783 34.120,9.954 34.410,13.582 L34.489,14.574 L35.198,14.834 C37.223,15.577 38.175,17.136 38.002,19.428 ZM28.604,7.262 C28.416,7.266 27.876,7.372 27.405,7.498 L26.548,7.727 L25.766,6.926 C23.562,4.670 19.964,4.182 16.905,5.725 C15.683,6.342 14.701,7.227 13.959,8.380 C13.431,9.202 12.756,10.736 12.756,11.117 C12.756,11.387 12.543,11.522 11.630,11.828 C8.804,12.777 7.154,14.968 7.155,17.771 C7.156,18.791 7.413,20.040 7.769,20.755 C7.903,21.024 7.978,21.281 7.936,21.324 C7.826,21.436 4.311,21.398 3.825,21.280 L3.825,21.280 C2.481,20.953 1.057,19.739 0.390,18.350 C0.011,17.562 -0.009,17.446 -0.009,16.052 C-0.009,14.726 0.023,14.514 0.325,13.855 C0.960,12.468 2.178,11.465 3.706,11.071 C4.028,10.988 4.331,10.855 4.379,10.776 C4.427,10.697 4.480,10.267 4.497,9.820 C4.603,7.043 6.383,4.597 8.869,3.811 C10.211,3.387 11.898,3.491 13.359,4.089 C13.822,4.279 13.770,4.320 14.749,3.005 C15.328,2.228 16.499,1.261 17.457,0.769 C18.491,0.237 19.566,-0.008 20.852,-0.004 C24.446,0.005 27.543,2.305 28.688,5.817 C29.054,6.939 29.036,7.253 28.604,7.262 Z" class="cls-1"/>
</svg>
