<svg xmlns="http://www.w3.org/2000/svg" xmlns:xlink="http://www.w3.org/1999/xlink" preserveAspectRatio="xMidYMid" width="29" height="29" viewBox="0 0 29 29">
  <defs>
    <style>
      .cls-1 {
        fill: #000;
        fill-rule: evenodd;
      }
    </style>
  </defs>
  <path d="M0.011,0.138 C0.000,0.026 0.052,-0.023 0.162,-0.012 C0.249,-0.009 0.336,-0.005 0.422,-0.005 C7.864,-0.004 15.305,-0.003 22.746,-0.003 C24.788,-0.003 26.829,-0.007 28.871,-0.010 C28.901,-0.007 28.931,-0.004 28.961,-0.001 C29.002,0.042 28.914,0.126 29.010,0.151 C29.010,0.151 29.010,0.153 29.010,0.153 C28.979,0.169 28.968,0.194 28.978,0.228 C28.975,1.917 28.971,3.607 28.970,5.296 C28.970,5.322 28.993,5.349 29.005,5.376 C29.005,5.376 28.998,5.369 28.998,5.369 C28.998,5.369 28.992,5.375 28.992,5.375 C28.972,5.400 28.975,5.421 29.003,5.439 C28.949,5.497 28.952,5.556 29.000,5.615 C29.000,5.615 28.998,5.606 28.998,5.606 C28.998,5.606 28.993,5.612 28.993,5.612 C28.972,5.638 28.975,5.659 29.004,5.676 C28.948,5.813 28.947,5.950 29.004,6.087 C29.004,6.087 28.998,6.079 28.998,6.079 C28.999,6.079 28.993,6.085 28.993,6.085 C28.972,6.111 28.975,6.133 29.004,6.150 C28.944,6.445 28.944,6.739 29.005,7.033 C29.005,7.033 28.997,7.028 28.997,7.028 C28.997,7.027 28.991,7.034 28.991,7.034 C28.991,7.034 28.984,7.029 28.984,7.029 C28.979,7.817 28.992,8.212 29.000,9.000 C29.002,9.212 28.218,10.001 28.000,10.000 C24.949,9.992 23.051,10.007 20.000,10.000 C19.808,10.000 19.000,10.799 19.000,11.000 C19.007,14.054 18.992,14.946 19.000,18.000 C19.001,18.221 18.208,19.000 18.000,19.000 C14.957,18.993 14.043,19.007 11.000,19.000 C10.140,19.000 9.999,19.789 10.000,20.000 C10.008,23.054 9.991,24.946 10.000,28.000 C10.001,28.229 9.201,29.000 9.000,29.000 C5.957,28.994 3.319,28.978 0.276,28.987 C0.052,28.987 0.014,28.921 0.014,28.715 C0.019,19.269 0.019,9.822 0.018,0.375 C0.018,0.296 0.014,0.217 0.011,0.138 Z" class="cls-1"/>
</svg>
