<svg xmlns="http://www.w3.org/2000/svg" xmlns:xlink="http://www.w3.org/1999/xlink" preserveAspectRatio="xMidYMid" width="29" height="29" viewBox="0 0 29 29">
  <defs>
    <style>
      .cls-1 {
        fill: #000;
        fill-rule: evenodd;
      }
    </style>
  </defs>
  <path d="M27.000,22.000 L18.000,22.000 L18.000,14.000 L19.986,15.177 C20.244,15.364 20.555,15.177 20.555,15.177 C20.245,15.364 29.014,9.607 29.014,9.607 L29.014,20.032 C29.014,21.167 28.423,22.043 27.000,22.000 ZM20.161,13.066 L18.000,12.000 L18.000,6.000 L28.000,6.000 C28.363,6.000 29.013,6.634 29.013,7.315 L20.382,13.066 C20.329,13.083 20.214,13.081 20.161,13.066 ZM-0.004,3.266 L17.076,-0.001 L17.076,28.995 L-0.004,25.456 L-0.004,3.266 ZM5.835,18.157 C6.548,19.066 7.469,19.521 8.601,19.521 C9.762,19.521 10.703,19.051 11.425,18.112 C12.147,17.173 12.508,15.936 12.507,14.401 C12.507,12.908 12.159,11.706 11.463,10.794 C10.767,9.881 9.855,9.426 8.728,9.426 C7.534,9.426 6.575,9.902 5.851,10.856 C5.127,11.808 4.766,13.057 4.766,14.600 C4.766,16.061 5.123,17.246 5.835,18.157 ZM8.679,11.319 C9.285,11.319 9.762,11.600 10.111,12.162 C10.461,12.725 10.635,13.513 10.635,14.524 C10.635,15.495 10.454,16.254 10.095,16.801 C9.736,17.347 9.249,17.621 8.635,17.621 C8.040,17.621 7.558,17.341 7.191,16.778 C6.824,16.216 6.640,15.451 6.640,14.484 C6.640,13.531 6.824,12.766 7.191,12.187 C7.558,11.609 8.055,11.319 8.679,11.319 Z" class="cls-1"/>
</svg>
