<svg xmlns="http://www.w3.org/2000/svg" xmlns:xlink="http://www.w3.org/1999/xlink" preserveAspectRatio="xMidYMid" width="35" height="34.72" viewBox="0 0 35 34.72">
  <defs>
    <style>
      .cls-1 {
        fill: #000;
        fill-rule: evenodd;
      }
    </style>
  </defs>
  <path d="M33.582,23.236 L26.306,23.236 L26.000,3.000 C31.162,6.149 35.000,10.956 35.000,17.000 C35.000,18.947 34.225,21.381 33.582,23.236 ZM11.000,1.000 C12.957,0.265 15.281,0.008 17.349,0.008 C19.834,0.008 21.735,0.970 24.000,2.000 L24.000,14.000 C23.408,13.461 11.772,1.479 11.000,1.000 ZM0.560,22.116 C0.153,20.609 -0.000,18.888 -0.000,17.397 C-0.000,10.840 3.175,4.997 9.000,2.000 C9.198,2.181 14.997,9.048 16.000,10.000 C14.770,10.972 1.029,21.687 0.560,22.116 ZM8.000,32.000 C4.761,30.035 2.390,27.494 1.000,24.000 C1.320,24.303 7.420,18.528 8.000,18.000 L8.000,32.000 ZM18.932,34.709 L15.751,34.709 C13.853,34.532 11.838,33.824 10.074,33.030 C10.074,32.780 10.074,25.277 10.074,24.915 C10.447,24.915 32.396,24.915 33.022,24.915 C30.363,30.411 24.926,34.149 18.932,34.709 Z" class="cls-1"/>
</svg>
