<svg xmlns="http://www.w3.org/2000/svg" xmlns:xlink="http://www.w3.org/1999/xlink" preserveAspectRatio="xMidYMid" width="33" height="30.78" viewBox="0 0 33 30.78">
  <defs>
    <style>
      .cls-1 {
        fill: #000;
        fill-rule: evenodd;
      }
    </style>
  </defs>
  <path d="M16.488,5.698 L23.281,0.013 L32.989,6.368 L26.277,11.758 L16.488,5.698 ZM32.989,17.149 L23.281,23.505 L16.488,17.819 L26.277,11.758 L32.989,17.149 ZM9.695,23.505 L-0.013,17.149 L6.700,11.758 L16.488,17.819 L9.695,23.505 ZM-0.013,6.368 L9.695,0.013 L16.488,5.698 L6.700,11.758 L-0.013,6.368 ZM16.508,19.042 L23.321,24.711 L26.237,22.802 L26.237,24.942 L16.508,30.792 L6.780,24.942 L6.780,22.802 L9.695,24.711 L16.508,19.042 Z" class="cls-1"/>
</svg>
