<svg xmlns="http://www.w3.org/2000/svg" xmlns:xlink="http://www.w3.org/1999/xlink" preserveAspectRatio="xMidYMid" width="31" height="33" viewBox="0 0 31 33">
  <defs>
    <style>
      .cls-1 {
        fill: #000;
        fill-rule: evenodd;
      }
    </style>
  </defs>
  <path d="M31.000,33.000 L30.000,33.000 C27.527,29.826 23.645,25.296 21.000,22.000 C18.865,25.058 15.231,30.179 13.000,33.000 L12.000,33.000 C14.182,29.516 17.728,24.714 20.000,21.000 C20.345,21.356 19.476,20.216 20.000,21.000 C17.367,17.724 15.093,13.260 12.703,9.904 L14.000,10.000 C16.074,12.982 18.616,17.204 21.000,20.000 C22.622,17.710 24.499,14.876 26.083,12.636 C26.664,11.815 27.524,10.878 28.000,10.000 L29.000,10.000 C27.011,12.765 22.335,20.112 22.000,21.000 C24.493,24.401 28.541,29.574 31.000,33.000 ZM6.000,2.000 C3.834,3.106 2.292,3.798 0.592,4.860 C0.389,4.454 0.220,4.117 -0.006,3.664 C1.896,2.455 4.156,1.080 6.000,0.000 L7.000,0.000 C7.000,11.053 7.000,22.051 7.000,33.000 C6.509,33.000 6.567,33.000 6.000,33.000 C6.000,22.673 6.000,12.560 6.000,2.000 Z" class="cls-1"/>
</svg>
