<svg xmlns="http://www.w3.org/2000/svg" xmlns:xlink="http://www.w3.org/1999/xlink" preserveAspectRatio="xMidYMid" width="31" height="23" viewBox="0 0 31 23">
  <defs>
    <style>
      .cls-1 {
        fill: #000;
        fill-rule: evenodd;
      }
    </style>
  </defs>
  <path d="M-0.000,-0.013 L11.498,-0.013 L15.308,13.521 L19.390,-0.013 L31.009,-0.013 L31.009,3.172 L29.002,3.126 L28.000,4.000 L28.000,19.000 L29.009,19.825 L30.759,19.825 L31.009,23.008 L20.002,23.008 L20.006,19.825 L23.007,19.825 L23.132,3.570 L22.588,3.504 L16.439,23.008 L12.314,23.008 L7.552,3.902 L7.002,20.314 L9.253,20.314 L9.253,23.008 L-0.000,23.008 L-0.000,20.314 L2.751,20.314 L2.851,3.553 L-0.000,3.570 L-0.000,-0.013 Z" class="cls-1"/>
</svg>
