<svg xmlns="http://www.w3.org/2000/svg" xmlns:xlink="http://www.w3.org/1999/xlink" preserveAspectRatio="xMidYMid" width="39" height="23.16" viewBox="0 0 39 23.16">
  <defs>
    <style>
      .cls-1 {
        fill: #000;
        fill-rule: evenodd;
      }
    </style>
  </defs>
  <path d="M33.099,9.714 C30.101,8.735 27.956,8.374 27.956,5.987 C27.956,4.303 29.260,3.039 31.086,3.039 C32.398,3.039 33.432,3.556 34.368,4.861 L36.855,3.595 C35.587,1.357 33.758,0.235 31.224,0.235 C27.335,0.235 24.942,2.571 24.942,6.075 C24.942,9.667 27.290,11.166 31.838,12.658 C34.368,13.496 35.866,14.012 35.866,16.155 C35.866,18.350 33.902,20.086 31.037,19.987 C28.122,19.889 27.224,18.302 26.170,15.908 C24.469,12.042 22.518,7.498 22.367,7.144 C20.380,2.578 16.468,0.002 11.623,0.002 C5.204,0.002 -0.000,5.186 -0.000,11.581 C-0.000,17.977 5.204,23.156 11.623,23.156 C15.245,23.156 18.483,21.509 20.612,18.922 L19.112,15.475 C17.701,18.160 14.874,19.991 11.623,19.991 C6.962,19.991 3.180,16.224 3.180,11.581 C3.180,6.935 6.962,3.169 11.623,3.169 C15.067,3.169 18.120,5.182 19.350,8.165 L23.061,16.589 L23.491,17.540 C24.996,21.028 27.162,23.007 31.224,23.023 C35.636,23.028 39.014,20.174 39.014,16.254 C39.014,12.518 37.137,11.023 33.099,9.714 Z" class="cls-1"/>
</svg>
