<svg xmlns="http://www.w3.org/2000/svg" xmlns:xlink="http://www.w3.org/1999/xlink" preserveAspectRatio="xMidYMid" width="36" height="22" viewBox="0 0 36 22">
  <defs>
    <style>
      .cls-1 {
        fill: #000;
        fill-rule: evenodd;
      }
    </style>
  </defs>
  <path d="M5.000,5.000 L-0.000,5.000 L-0.000,17.000 L8.000,17.000 C8.000,17.000 8.000,14.053 8.000,11.000 C8.000,6.118 8.000,-0.000 8.000,-0.000 L5.000,-0.000 L5.000,5.000 ZM5.000,14.000 L3.000,14.000 L3.000,8.000 L5.000,8.000 L5.000,14.000 ZM11.000,17.000 L14.000,17.000 L14.000,5.000 L11.000,5.000 L11.000,17.000 ZM28.000,4.000 L28.000,16.000 L33.000,16.000 L33.000,19.000 L28.000,19.000 L28.000,22.000 L36.000,22.000 L36.000,4.000 L28.000,4.000 ZM33.000,13.000 L31.000,13.000 L31.000,8.000 L33.000,8.000 L33.000,13.000 ZM17.000,16.000 L22.000,16.000 L22.000,19.000 L17.000,19.000 L17.000,22.000 L25.000,22.000 L25.000,4.000 L17.000,4.000 L17.000,16.000 ZM20.000,8.000 L22.000,8.000 L22.000,13.000 L20.000,13.000 L20.000,8.000 ZM11.000,3.000 L14.000,3.000 L14.000,-0.000 L11.044,0.003 L11.000,3.000 Z" class="cls-1"/>
</svg>
