<svg xmlns="http://www.w3.org/2000/svg" xmlns:xlink="http://www.w3.org/1999/xlink" preserveAspectRatio="xMidYMid" width="29" height="37.34" viewBox="0 0 29 37.34">
  <defs>
    <style>
      .cls-1 {
        fill: #000;
        fill-rule: evenodd;
      }
    </style>
  </defs>
  <path d="M17.394,26.675 C15.072,26.675 12.888,25.758 12.140,24.335 C12.140,24.335 10.891,29.279 10.628,30.232 C9.695,33.607 6.956,36.982 6.746,37.255 C6.597,37.447 6.268,37.388 6.234,37.132 C6.174,36.703 5.475,32.449 6.298,28.978 C6.711,27.236 9.040,16.923 9.040,16.923 C9.040,16.923 8.377,15.916 8.377,13.891 C8.377,10.708 10.226,8.531 12.527,8.531 C14.483,8.531 15.424,9.801 15.424,11.556 C15.424,13.517 14.174,16.455 13.528,19.173 C12.988,21.448 14.670,23.110 16.921,23.110 C20.995,23.110 23.740,18.083 23.740,11.894 C23.740,7.192 20.566,3.560 14.791,3.560 C8.269,3.560 4.439,7.994 4.439,14.206 C4.439,16.076 4.977,17.139 5.843,18.155 C6.240,18.625 6.295,18.817 6.151,19.355 C6.046,19.747 5.594,20.701 5.493,21.074 C5.352,21.622 4.908,21.813 4.417,21.613 C1.412,20.390 0.014,17.106 0.014,13.412 C0.014,7.319 5.164,0.009 15.383,0.009 C23.593,0.009 28.998,5.938 28.998,12.304 C28.998,20.719 24.306,26.675 17.394,26.675 Z" class="cls-1"/>
</svg>
