<svg xmlns="http://www.w3.org/2000/svg" xmlns:xlink="http://www.w3.org/1999/xlink" preserveAspectRatio="xMidYMid" width="32.06" height="28.38" viewBox="0 0 32.06 28.38">
  <defs>
    <style>
      .cls-1 {
        fill: #000;
        fill-rule: evenodd;
      }
    </style>
  </defs>
  <path d="M2.340,-0.001 C11.483,-0.001 20.626,-0.001 29.769,-0.001 C29.966,0.071 30.169,0.132 30.361,0.216 C31.354,0.653 32.046,1.458 32.046,2.637 C32.047,5.828 32.053,9.020 32.042,12.212 C32.040,12.929 32.011,13.650 31.935,14.362 C31.774,15.853 31.395,17.290 30.801,18.667 C29.741,21.124 28.140,23.156 26.067,24.812 C23.565,26.810 20.714,27.957 17.548,28.277 C16.002,28.433 14.460,28.345 12.931,28.037 C9.068,27.259 5.900,25.303 3.411,22.240 C1.110,19.407 0.029,16.117 0.014,12.466 C-0.000,9.223 0.015,5.980 0.009,2.737 C0.006,1.596 0.635,0.683 1.678,0.244 C1.894,0.152 2.119,0.080 2.340,-0.001 ZM16.052,14.368 C15.995,14.320 15.961,14.294 15.931,14.265 C13.994,12.413 12.057,10.563 10.123,8.708 C9.554,8.162 8.897,7.926 8.110,8.050 C7.025,8.220 6.194,9.328 6.326,10.421 C6.398,11.010 6.660,11.492 7.065,11.894 C7.653,12.479 8.262,13.043 8.862,13.615 C9.469,14.194 10.075,14.772 10.681,15.351 C11.293,15.936 11.906,16.519 12.517,17.105 C13.226,17.785 13.924,18.478 14.644,19.146 C15.480,19.921 16.618,19.917 17.469,19.143 C18.007,18.653 18.529,18.146 19.056,17.645 C19.688,17.043 20.316,16.439 20.947,15.837 C21.534,15.276 22.125,14.718 22.711,14.155 C23.517,13.379 24.335,12.615 25.117,11.815 C25.654,11.265 25.895,10.571 25.744,9.798 C25.579,8.950 25.060,8.374 24.245,8.118 C23.432,7.862 22.685,8.043 22.063,8.633 C20.446,10.167 18.840,11.712 17.229,13.251 C16.842,13.621 16.453,13.987 16.052,14.368 Z" class="cls-1"/>
</svg>
