<svg xmlns="http://www.w3.org/2000/svg" xmlns:xlink="http://www.w3.org/1999/xlink" preserveAspectRatio="xMidYMid" width="21.031" height="34.47" viewBox="0 0 21.031 34.47">
  <defs>
    <style>
      .cls-1 {
        fill: #000;
        fill-rule: evenodd;
      }
    </style>
  </defs>
  <path d="M15.960,28.850 C15.006,28.850 14.161,28.621 13.419,28.165 C12.860,27.827 12.349,27.241 12.144,26.676 C11.938,26.109 11.963,24.959 11.963,22.959 L11.965,14.020 L19.850,14.020 L19.850,7.888 L11.965,7.888 L11.963,0.004 L7.201,0.004 C6.987,1.781 6.597,3.247 6.029,4.395 C5.461,5.548 4.710,6.531 3.769,7.354 C2.832,8.174 1.308,8.805 -0.007,9.244 L-0.007,14.020 L4.665,14.020 L4.665,26.285 C4.665,27.860 4.702,28.988 5.023,29.816 C5.345,30.645 5.919,31.429 6.751,32.167 C7.580,32.897 8.584,33.468 9.760,33.868 C10.936,34.264 11.839,34.462 13.370,34.462 C14.717,34.462 15.972,34.321 17.132,34.043 C18.291,33.763 19.589,33.276 21.018,32.583 L21.018,27.149 C19.341,28.283 17.655,28.850 15.960,28.850 Z" class="cls-1"/>
</svg>
