<svg xmlns="http://www.w3.org/2000/svg" xmlns:xlink="http://www.w3.org/1999/xlink" preserveAspectRatio="xMidYMid" width="34" height="24.75" viewBox="0 0 34 24.75">
  <defs>
    <style>
      .cls-1 {
        fill: #000;
        fill-rule: evenodd;
      }
    </style>
  </defs>
  <path d="M33.738,1.184 C33.708,1.128 33.674,1.073 33.639,1.020 C33.635,1.014 33.631,1.006 33.627,0.999 C33.621,0.992 33.615,0.985 33.610,0.977 C33.579,0.932 33.546,0.888 33.512,0.846 C33.506,0.838 33.500,0.830 33.494,0.823 C33.454,0.775 33.413,0.729 33.369,0.685 C33.364,0.680 33.360,0.674 33.355,0.669 C33.347,0.661 33.338,0.655 33.331,0.647 C33.295,0.612 33.258,0.579 33.220,0.546 C33.209,0.537 33.198,0.527 33.186,0.517 C33.139,0.478 33.090,0.442 33.039,0.407 C33.034,0.403 33.030,0.399 33.025,0.396 C33.015,0.390 33.005,0.384 32.995,0.378 C32.955,0.352 32.914,0.326 32.871,0.303 C32.856,0.294 32.840,0.285 32.824,0.276 C32.770,0.247 32.715,0.220 32.659,0.196 C32.654,0.194 32.651,0.192 32.646,0.190 C32.636,0.186 32.624,0.182 32.614,0.178 C32.568,0.159 32.522,0.142 32.475,0.127 C32.456,0.121 32.437,0.115 32.418,0.109 C32.359,0.091 32.298,0.075 32.236,0.062 C32.233,0.061 32.231,0.060 32.228,0.060 C32.218,0.058 32.208,0.057 32.198,0.055 C32.146,0.045 32.093,0.037 32.040,0.031 C32.019,0.029 31.998,0.026 31.977,0.024 C31.917,0.019 31.856,0.016 31.795,0.015 C31.789,0.015 31.784,0.014 31.779,0.014 L31.779,0.014 L31.678,0.014 L31.677,0.015 L30.240,1.067 L30.134,1.145 L17.119,10.674 L3.873,0.975 L2.561,0.015 L2.561,0.014 L2.228,0.014 C1.273,0.014 0.462,0.617 0.144,1.463 C0.053,1.708 -0.000,1.972 -0.000,2.249 L-0.000,22.513 C-0.000,22.515 0.000,22.518 0.000,22.520 C0.001,22.586 0.004,22.651 0.010,22.715 C0.012,22.735 0.014,22.755 0.017,22.775 C0.023,22.825 0.030,22.874 0.039,22.923 C0.043,22.941 0.045,22.960 0.049,22.979 C0.061,23.034 0.075,23.089 0.091,23.143 C0.092,23.145 0.092,23.147 0.093,23.149 C0.104,23.185 0.116,23.219 0.128,23.253 C0.138,23.282 0.148,23.312 0.160,23.340 C0.172,23.372 0.186,23.403 0.200,23.435 C0.214,23.465 0.228,23.495 0.244,23.524 C0.258,23.553 0.273,23.581 0.288,23.609 C0.307,23.642 0.327,23.674 0.347,23.706 C0.362,23.729 0.376,23.753 0.391,23.776 C0.427,23.828 0.464,23.878 0.504,23.927 C0.516,23.942 0.529,23.955 0.541,23.969 C0.572,24.005 0.604,24.041 0.637,24.074 C0.654,24.092 0.672,24.109 0.690,24.127 C0.720,24.155 0.751,24.183 0.782,24.210 C0.802,24.227 0.822,24.244 0.842,24.260 C0.875,24.286 0.909,24.311 0.943,24.336 C0.963,24.350 0.983,24.364 1.003,24.377 C1.045,24.405 1.088,24.431 1.131,24.456 C1.145,24.464 1.159,24.472 1.173,24.480 C1.230,24.511 1.289,24.539 1.349,24.565 C1.369,24.574 1.388,24.580 1.408,24.588 C1.450,24.605 1.493,24.621 1.537,24.636 C1.562,24.644 1.588,24.651 1.613,24.658 C1.653,24.670 1.693,24.680 1.734,24.689 C1.761,24.696 1.788,24.701 1.816,24.707 C1.858,24.715 1.900,24.721 1.943,24.726 C1.969,24.729 1.995,24.734 2.021,24.736 C2.080,24.741 2.139,24.744 2.199,24.745 C2.209,24.745 2.218,24.746 2.228,24.746 L3.873,24.746 L3.873,6.295 L13.487,13.334 L16.647,15.648 L16.647,15.648 L16.647,15.648 L16.647,15.648 L16.679,15.672 L17.229,16.075 L17.229,16.075 L17.230,16.075 L19.468,14.436 L20.863,13.415 L27.977,8.206 L30.134,6.627 L30.134,24.746 L31.779,24.746 C31.789,24.746 31.799,24.745 31.809,24.745 C31.868,24.744 31.927,24.741 31.986,24.736 C32.002,24.734 32.019,24.732 32.035,24.730 C32.042,24.729 32.048,24.728 32.054,24.727 C32.058,24.727 32.061,24.726 32.064,24.726 C32.107,24.721 32.149,24.715 32.191,24.707 C32.193,24.706 32.194,24.706 32.196,24.706 C32.208,24.703 32.221,24.700 32.233,24.698 C32.247,24.695 32.260,24.692 32.273,24.689 C32.314,24.680 32.354,24.670 32.393,24.658 C32.419,24.651 32.445,24.644 32.470,24.636 C32.514,24.621 32.557,24.605 32.599,24.588 C32.602,24.587 32.604,24.586 32.607,24.585 C32.623,24.578 32.640,24.573 32.656,24.566 C32.656,24.566 32.657,24.566 32.658,24.565 C32.718,24.539 32.777,24.511 32.834,24.480 C32.849,24.472 32.862,24.463 32.877,24.455 C32.920,24.430 32.963,24.405 33.004,24.377 C33.025,24.364 33.044,24.349 33.064,24.335 C33.098,24.311 33.132,24.286 33.165,24.260 C33.165,24.260 33.165,24.259 33.166,24.259 C33.185,24.243 33.205,24.227 33.224,24.211 C33.224,24.211 33.225,24.210 33.225,24.210 C33.256,24.183 33.286,24.156 33.316,24.127 C33.325,24.119 33.333,24.110 33.342,24.102 C33.352,24.093 33.361,24.084 33.370,24.075 C33.371,24.074 33.371,24.074 33.371,24.074 C33.403,24.041 33.434,24.006 33.464,23.971 C33.466,23.968 33.469,23.966 33.471,23.963 C33.482,23.951 33.493,23.940 33.503,23.927 C33.503,23.927 33.503,23.927 33.503,23.927 C33.543,23.878 33.580,23.828 33.616,23.776 C33.616,23.776 33.616,23.775 33.616,23.775 C33.632,23.753 33.645,23.730 33.660,23.707 C33.660,23.706 33.661,23.705 33.661,23.704 C33.681,23.673 33.700,23.642 33.718,23.610 C33.719,23.610 33.719,23.609 33.719,23.609 C33.722,23.604 33.724,23.600 33.726,23.596 C33.739,23.572 33.752,23.548 33.764,23.523 C33.779,23.494 33.793,23.465 33.806,23.436 C33.821,23.404 33.835,23.372 33.848,23.339 C33.859,23.312 33.868,23.284 33.878,23.255 C33.882,23.245 33.885,23.234 33.889,23.223 C33.898,23.199 33.906,23.175 33.914,23.151 C33.914,23.150 33.914,23.149 33.914,23.149 C33.915,23.147 33.916,23.145 33.916,23.143 C33.932,23.089 33.946,23.035 33.958,22.980 C33.958,22.979 33.958,22.978 33.958,22.977 C33.962,22.960 33.964,22.943 33.967,22.927 C33.968,22.925 33.968,22.923 33.968,22.921 C33.977,22.873 33.985,22.825 33.990,22.776 C33.993,22.755 33.995,22.735 33.997,22.714 C34.003,22.651 34.006,22.588 34.007,22.524 C34.007,22.520 34.007,22.516 34.007,22.513 L34.007,3.791 L34.007,2.937 L34.007,2.249 C34.007,1.863 33.910,1.500 33.738,1.184 Z" class="cls-1"/>
</svg>
