<svg xmlns="http://www.w3.org/2000/svg" xmlns:xlink="http://www.w3.org/1999/xlink" preserveAspectRatio="xMidYMid" width="32" height="23" viewBox="0 0 32 23">
  <defs>
    <style>
      .cls-1 {
        fill: #000;
        fill-rule: evenodd;
      }
    </style>
  </defs>
  <path d="M30.203,-0.014 L1.807,-0.014 C0.749,-0.014 -0.000,0.864 -0.000,1.867 L-0.000,21.126 C-0.000,22.129 1.008,23.007 2.065,23.007 L30.203,23.007 C31.260,23.007 32.010,22.129 32.010,21.126 L32.010,1.867 C32.010,0.864 31.260,-0.014 30.203,-0.014 ZM17.000,13.000 C16.762,13.227 16.457,13.334 16.054,13.334 C15.648,13.334 15.241,13.231 15.000,13.000 L4.000,2.000 L28.903,2.000 L17.000,13.000 ZM10.324,11.459 L2.000,19.000 L2.000,4.000 L10.324,11.459 ZM11.893,12.966 L14.000,15.000 C14.660,15.631 15.003,16.000 16.000,16.000 C16.995,16.000 17.346,15.625 18.000,15.000 L20.176,13.009 L28.000,21.000 L4.129,21.000 L11.893,12.966 ZM21.750,11.507 L30.000,4.000 L30.000,20.000 L21.750,11.507 Z" class="cls-1"/>
</svg>
