<svg xmlns="http://www.w3.org/2000/svg" xmlns:xlink="http://www.w3.org/1999/xlink" preserveAspectRatio="xMidYMid" width="37.938" height="22" viewBox="0 0 37.938 22">
  <defs>
    <style>
      .cls-1 {
        fill: #000;
        fill-rule: evenodd;
      }
    </style>
  </defs>
  <path d="M17.969,22.000 L19.969,22.000 C19.969,22.000 21.514,21.511 21.865,21.134 C22.187,20.787 22.177,20.137 22.177,20.137 C22.177,20.137 22.132,17.091 23.545,16.643 C24.938,16.201 26.727,19.586 28.623,20.888 C30.056,21.873 30.969,22.000 30.969,22.000 L35.969,22.000 C35.969,22.000 38.867,21.423 37.609,19.337 C37.506,19.167 36.877,17.794 33.840,14.974 C30.661,12.023 31.087,12.501 34.916,7.396 C37.248,4.286 38.180,2.389 37.889,1.576 C37.611,0.801 35.896,1.006 35.896,1.006 L29.969,1.000 C29.969,1.000 29.765,0.983 29.451,1.171 C29.144,1.355 28.948,1.784 28.948,1.784 C28.948,1.784 28.044,4.189 26.839,6.236 C24.298,10.553 23.384,11.268 22.969,11.000 C22.002,10.375 21.969,8.339 21.969,7.000 C21.969,2.816 22.775,0.735 20.906,0.284 C20.285,0.134 19.556,0.016 17.969,0.000 C15.932,-0.021 14.481,0.025 13.505,0.503 C12.856,0.821 12.355,1.530 12.660,1.571 C13.038,1.621 13.892,1.802 14.345,2.418 C14.930,3.214 14.909,5.002 14.909,5.002 C14.909,5.002 15.090,10.388 13.969,11.000 C13.200,11.420 12.300,10.101 10.034,6.185 C8.873,4.178 7.996,1.961 7.996,1.961 C7.996,1.961 7.827,1.546 7.526,1.324 C7.160,1.056 6.969,1.000 6.969,1.000 L1.225,1.006 C1.225,1.006 0.411,1.029 0.112,1.383 C-0.154,1.698 0.091,2.349 0.091,2.349 C0.091,2.349 4.337,12.287 9.145,17.295 C13.554,21.888 17.969,22.000 17.969,22.000 L17.969,22.000 Z" class="cls-1"/>
</svg>
