<svg xmlns="http://www.w3.org/2000/svg" xmlns:xlink="http://www.w3.org/1999/xlink" preserveAspectRatio="xMidYMid" width="33.88" height="39.16" viewBox="0 0 33.88 39.16">
  <defs>
    <style>
      .cls-1 {
        fill: #000;
        fill-rule: evenodd;
      }
    </style>
  </defs>
  <path d="M33.403,11.639 C33.898,10.765 34.363,9.716 32.792,8.813 C31.220,7.909 20.247,1.469 18.733,0.537 L18.675,0.566 C17.976,0.216 16.550,-0.454 15.211,0.420 C13.872,1.295 3.655,7.297 1.822,8.375 C-0.012,9.454 0.541,10.881 1.472,11.435 C2.404,11.988 4.995,13.562 5.810,14.116 C6.624,14.670 7.352,15.340 6.653,16.535 C5.955,17.730 1.414,25.655 0.483,27.170 C-0.449,28.686 0.018,29.910 1.153,30.609 C2.287,31.308 13.290,37.661 14.600,38.419 C15.910,39.176 17.190,39.467 18.442,38.797 C19.694,38.126 30.929,31.483 32.326,30.638 C33.723,29.793 33.054,28.394 32.442,28.015 C31.831,27.637 28.716,25.597 27.523,24.839 C26.330,24.081 26.446,23.586 27.086,22.450 C27.702,21.357 32.908,12.513 33.403,11.639 ZM6.889,12.885 C6.312,12.576 4.183,11.330 3.641,10.992 C2.622,10.358 2.945,9.379 3.646,9.021 C4.347,8.665 11.527,4.557 12.373,4.166 C13.088,3.836 13.778,4.418 13.282,5.327 C12.970,5.902 9.778,11.310 9.195,12.301 C8.614,13.292 7.836,13.391 6.889,12.885 ZM4.022,24.496 C4.328,23.917 7.452,18.469 8.022,17.471 C8.592,16.474 9.368,16.365 10.322,16.859 C10.903,17.161 13.047,18.381 13.593,18.713 C14.619,19.334 14.309,20.316 13.613,20.682 C12.916,21.047 5.787,25.243 4.947,25.645 C4.235,25.985 3.539,25.410 4.022,24.496 ZM16.021,35.495 C15.959,36.543 15.130,37.029 13.623,36.123 C12.116,35.216 4.555,30.933 3.608,30.408 C2.660,29.882 2.160,29.027 3.456,28.302 C4.752,27.577 12.922,22.860 14.089,22.144 C15.255,21.427 16.091,21.781 16.078,23.240 C16.062,25.175 16.083,34.446 16.021,35.495 ZM16.074,16.333 C16.104,17.120 15.406,17.878 14.358,17.297 C13.798,16.986 11.674,15.731 11.125,15.377 C10.222,14.795 9.929,14.067 10.511,13.076 C11.092,12.084 14.257,6.660 14.606,6.106 C15.158,5.232 16.003,5.551 16.062,6.337 C16.132,7.267 16.044,15.546 16.074,16.333 ZM17.714,3.946 C17.685,2.577 18.412,2.033 19.664,2.780 C21.323,3.772 29.327,8.434 30.201,9.016 C31.074,9.599 31.074,10.561 29.531,11.406 C27.988,12.251 20.479,16.622 19.548,17.176 C18.616,17.729 17.626,17.729 17.656,16.243 C17.685,14.756 17.743,5.315 17.714,3.946 ZM17.714,32.969 C17.645,32.039 17.743,23.761 17.714,22.974 C17.685,22.187 18.384,21.430 19.432,22.012 C19.990,22.323 22.113,23.580 22.662,23.936 C23.564,24.518 23.855,25.247 23.274,26.238 C22.691,27.229 19.520,32.649 19.170,33.202 C18.616,34.077 17.772,33.755 17.714,32.969 ZM26.895,26.433 C27.471,26.743 29.599,27.992 30.141,28.331 C31.159,28.966 30.835,29.945 30.133,30.301 C29.431,30.656 22.246,34.754 21.401,35.145 C20.685,35.475 19.996,34.891 20.492,33.983 C20.805,33.408 24.003,28.004 24.587,27.013 C25.170,26.024 25.948,25.926 26.895,26.433 ZM25.767,21.845 C25.196,22.842 24.420,22.950 23.467,22.454 C22.887,22.151 20.744,20.929 20.197,20.597 C19.173,19.975 19.484,18.992 20.181,18.628 C20.878,18.263 28.012,14.076 28.853,13.675 C29.564,13.336 30.261,13.911 29.776,14.825 C29.469,15.404 26.339,20.848 25.767,21.845 Z" class="cls-1"/>
</svg>
