<svg xmlns="http://www.w3.org/2000/svg" xmlns:xlink="http://www.w3.org/1999/xlink" preserveAspectRatio="xMidYMid" width="33.969" height="24.41" viewBox="0 0 33.969 24.41">
  <defs>
    <style>
      .cls-1 {
        fill: #000;
        fill-rule: evenodd;
      }
    </style>
  </defs>
  <path d="M8.258,0.208 C8.548,1.644 7.035,1.278 6.744,2.133 C8.786,7.978 11.434,13.217 13.626,18.910 C14.920,17.269 15.655,15.069 16.654,13.134 C14.997,9.290 13.718,5.067 11.562,1.721 C10.966,1.400 9.918,1.530 9.635,0.896 C9.341,-0.400 11.160,0.133 11.837,0.208 C14.373,0.358 17.106,-0.027 19.269,0.208 C19.269,0.437 19.269,0.667 19.269,0.896 C19.093,1.636 17.642,1.103 17.343,1.721 C17.813,4.001 18.890,5.675 19.545,7.771 C20.546,6.021 21.446,4.170 22.160,2.133 C21.932,1.261 20.433,1.658 20.095,0.896 C20.095,0.758 20.095,0.621 20.095,0.483 C20.651,-0.362 23.075,0.169 24.087,0.208 C25.052,0.299 26.379,0.027 27.115,0.346 C27.370,1.930 25.409,1.300 24.775,1.996 C22.806,4.017 21.907,7.106 20.508,9.697 C21.660,12.580 23.001,15.274 24.087,18.222 C26.279,12.941 28.560,7.748 30.281,1.996 C29.725,1.359 28.084,1.807 28.491,0.208 C30.113,0.035 32.294,0.167 33.859,0.208 C34.459,1.433 32.906,1.618 32.345,2.133 C29.545,9.695 26.206,16.719 23.536,24.410 C22.894,24.410 22.252,24.410 21.609,24.410 C20.371,21.248 19.067,18.150 17.618,15.197 C15.852,18.109 14.384,21.317 12.800,24.410 C12.158,24.410 11.516,24.410 10.874,24.410 C7.772,16.737 4.637,9.098 1.101,1.858 C0.955,1.362 0.101,1.575 -0.000,1.033 C-0.000,0.713 -0.000,0.392 -0.000,0.071 C2.736,0.304 5.760,0.057 8.258,0.208 Z" class="cls-1"/>
</svg>
