<svg xmlns="http://www.w3.org/2000/svg" xmlns:xlink="http://www.w3.org/1999/xlink" preserveAspectRatio="xMidYMid" width="40" height="33.47" viewBox="0 0 40 33.47">
  <defs>
    <style>
      .cls-1 {
        fill: #000;
        fill-rule: evenodd;
      }
    </style>
  </defs>
  <path d="M32.652,13.363 C33.432,12.567 34.517,12.072 35.716,12.072 C38.084,12.072 40.010,14.000 40.010,16.369 C40.010,18.046 39.044,19.500 37.641,20.208 C37.727,20.684 37.772,21.168 37.772,21.656 C37.772,24.849 35.889,27.837 32.470,30.070 C29.111,32.264 24.654,33.472 19.919,33.472 C15.185,33.472 10.727,32.264 7.368,30.070 C3.949,27.837 2.066,24.849 2.066,21.656 C2.066,21.140 2.116,20.630 2.213,20.128 C0.892,19.394 -0.004,17.984 -0.004,16.369 C-0.004,14.000 1.922,12.072 4.290,12.072 C5.455,12.072 6.513,12.540 7.287,13.296 C7.314,13.278 7.341,13.260 7.368,13.242 C10.680,11.079 15.061,9.880 19.721,9.846 L22.540,0.929 C22.611,0.703 22.844,0.571 23.074,0.625 L30.510,2.377 C30.979,1.007 32.264,0.014 33.790,0.014 C35.709,0.014 37.270,1.576 37.270,3.497 C37.270,5.417 35.709,6.980 33.790,6.980 C31.870,6.980 30.309,5.417 30.309,3.497 C30.309,3.417 30.327,3.342 30.333,3.264 L23.275,1.602 L20.663,9.864 C25.118,9.984 29.289,11.164 32.470,13.242 C32.532,13.282 32.591,13.323 32.652,13.363 ZM33.790,6.075 C35.210,6.075 36.366,4.919 36.366,3.497 C36.366,2.075 35.210,0.919 33.790,0.919 C32.369,0.919 31.213,2.075 31.213,3.497 C31.213,4.919 32.369,6.075 33.790,6.075 ZM39.106,16.369 C39.106,14.498 37.585,12.977 35.716,12.977 C34.821,12.977 34.006,13.326 33.400,13.896 C35.444,15.447 36.817,17.299 37.421,19.299 C38.428,18.710 39.106,17.617 39.106,16.369 ZM4.290,12.977 C2.421,12.977 0.900,14.498 0.900,16.369 C0.900,17.559 1.516,18.606 2.445,19.212 C3.071,17.216 4.466,15.370 6.531,13.827 C5.933,13.298 5.149,12.977 4.290,12.977 ZM19.919,10.744 C15.208,10.744 10.940,11.989 7.865,13.993 C7.610,14.160 7.362,14.332 7.123,14.509 C5.201,15.933 3.843,17.680 3.272,19.604 C3.186,19.895 3.117,20.189 3.068,20.487 C3.004,20.871 2.970,21.261 2.970,21.656 C2.970,27.673 10.573,32.567 19.919,32.567 C29.265,32.567 36.868,27.673 36.868,21.656 C36.868,21.276 36.838,20.902 36.779,20.532 C36.731,20.234 36.664,19.940 36.580,19.649 C36.028,17.745 34.705,16.014 32.829,14.594 C32.591,14.415 32.345,14.240 32.091,14.071 C29.008,12.021 24.691,10.744 19.919,10.744 ZM26.157,22.249 C24.611,22.249 23.311,20.995 23.311,19.447 C23.311,17.900 24.611,16.603 26.157,16.603 C27.703,16.603 28.957,17.900 28.957,19.447 C28.957,20.995 27.703,22.249 26.157,22.249 ZM25.695,26.568 C25.872,26.391 26.158,26.391 26.335,26.568 C26.511,26.745 26.511,27.031 26.334,27.207 C25.028,28.513 22.964,29.148 20.024,29.148 C20.017,29.148 20.010,29.144 20.002,29.144 C19.995,29.144 19.988,29.148 19.980,29.148 C17.041,29.148 14.977,28.513 13.672,27.207 C13.495,27.031 13.495,26.744 13.672,26.568 C13.848,26.391 14.135,26.391 14.311,26.568 C15.438,27.695 17.292,28.244 19.980,28.244 C19.988,28.244 19.995,28.248 20.002,28.248 C20.010,28.248 20.017,28.244 20.024,28.244 C22.712,28.244 24.567,27.695 25.695,26.568 ZM13.891,22.249 C12.346,22.249 11.049,20.994 11.049,19.447 C11.049,17.901 12.346,16.603 13.891,16.603 C15.437,16.603 16.691,17.901 16.691,19.447 C16.691,20.994 15.437,22.249 13.891,22.249 Z" class="cls-1"/>
</svg>
