<svg xmlns="http://www.w3.org/2000/svg" xmlns:xlink="http://www.w3.org/1999/xlink" preserveAspectRatio="xMidYMid" width="30" height="31" viewBox="0 0 30 31">
  <defs>
    <style>
      .cls-1 {
        fill: #000;
        fill-rule: evenodd;
      }
    </style>
  </defs>
  <path d="M25.581,30.987 L4.671,30.987 C2.146,30.987 -0.003,29.037 -0.003,26.453 L-0.003,4.541 C-0.003,1.957 2.014,0.008 4.539,0.008 L8.725,0.008 C1.739,1.075 -1.479,15.233 7.624,21.116 L6.831,26.957 L11.669,23.225 C19.003,25.439 25.550,23.942 30.009,18.364 L30.009,26.957 C30.009,29.540 28.106,30.987 25.581,30.987 ZM17.602,20.629 C11.119,20.629 5.863,16.191 5.863,10.715 C5.863,5.240 11.119,0.802 17.602,0.802 C24.085,0.802 29.340,5.240 29.340,10.715 C29.340,16.191 24.085,20.629 17.602,20.629 Z" class="cls-1"/>
</svg>
