<svg xmlns="http://www.w3.org/2000/svg" xmlns:xlink="http://www.w3.org/1999/xlink" preserveAspectRatio="xMidYMid" width="26" height="35.38" viewBox="0 0 26 35.38">
  <defs>
    <style>
      .cls-1 {
        fill: #000;
        fill-rule: evenodd;
      }
    </style>
  </defs>
  <path d="M13.432,9.862 C10.824,9.862 7.166,11.000 5.887,11.508 L5.887,3.281 C5.887,1.881 5.141,-0.011 3.373,-0.010 C0.663,-0.048 0.019,1.881 0.019,3.281 L0.019,20.557 C-0.006,20.873 -0.065,23.328 0.019,23.848 C-0.106,30.163 6.472,35.365 12.594,35.365 C19.303,35.365 26.007,30.856 26.007,22.202 C26.007,15.536 20.141,9.862 13.432,9.862 ZM12.594,29.607 C8.730,29.607 5.945,26.181 5.945,22.341 C5.945,18.501 9.077,15.389 12.941,15.389 C16.806,15.389 20.139,18.363 20.139,22.202 C20.139,27.151 16.458,29.607 12.594,29.607 Z" class="cls-1"/>
</svg>
