<svg xmlns="http://www.w3.org/2000/svg" xmlns:xlink="http://www.w3.org/1999/xlink" preserveAspectRatio="xMidYMid" width="31" height="32.38" viewBox="0 0 31 32.38">
  <defs>
    <style>
      .cls-1 {
        fill: #000;
        fill-rule: evenodd;
      }
    </style>
  </defs>
  <path d="M31.014,6.936 L30.918,3.988 C30.958,2.138 29.928,1.086 27.346,0.400 C24.978,0.054 21.724,-0.657 18.367,1.134 C16.478,0.455 14.483,-0.119 11.709,0.088 C5.438,0.672 3.043,3.842 2.676,8.363 C1.353,8.514 0.104,8.862 0.013,12.357 C-0.073,16.317 1.264,16.974 2.584,17.411 L2.581,29.005 C2.767,30.374 2.511,31.901 5.623,32.239 L10.283,32.334 C11.988,32.556 13.172,31.472 13.802,29.005 C14.023,31.011 14.904,32.110 16.560,32.143 L21.980,32.143 C23.205,31.817 24.715,31.863 24.903,29.634 L24.903,17.411 L26.261,17.495 C27.424,17.326 29.185,16.892 30.000,14.970 L30.000,11.970 C29.765,10.495 28.764,10.296 28.352,9.979 C29.459,9.736 30.604,9.619 31.014,6.936 ZM28.000,7.970 C27.142,7.284 25.842,6.581 24.630,6.426 C21.259,5.952 22.143,8.806 21.980,11.034 L27.000,10.970 L27.000,14.970 L22.000,14.970 L22.000,28.970 L17.000,28.970 L17.000,14.970 L11.000,14.970 L11.000,28.970 L6.000,28.970 L6.000,14.970 L2.850,14.754 L3.180,10.933 L5.802,11.067 L5.735,10.059 C5.852,7.648 5.641,3.492 10.805,2.845 C12.261,2.944 12.170,2.740 16.000,3.970 L16.000,7.970 C14.497,8.341 14.322,6.252 13.534,6.359 C11.097,6.244 10.977,7.352 10.821,8.643 L11.000,10.970 L17.000,10.970 C17.151,7.672 16.230,3.833 21.692,3.106 C24.076,2.789 26.266,3.092 27.925,3.802 L28.000,7.970 Z" class="cls-1"/>
</svg>
