<svg xmlns="http://www.w3.org/2000/svg" xmlns:xlink="http://www.w3.org/1999/xlink" preserveAspectRatio="xMidYMid" width="26.125" height="31.09" viewBox="0 0 26.125 31.09">
  <defs>
    <style>
      .cls-1 {
        fill: #000;
        fill-rule: evenodd;
      }
    </style>
  </defs>
  <path d="M2.712,6.107 C2.712,6.107 2.712,6.107 2.714,6.107 L5.125,6.090 C5.292,6.090 6.125,6.130 6.125,5.090 C6.125,5.089 6.125,3.782 6.125,3.090 L6.125,3.090 C6.125,2.521 6.016,1.549 6.225,1.134 L6.325,0.947 C6.314,0.949 6.303,0.954 6.291,0.965 L0.625,6.565 C0.614,6.574 0.607,6.585 0.604,6.598 C0.721,6.540 0.881,6.461 0.904,6.451 C1.397,6.229 1.995,6.107 2.712,6.107 ZM25.405,5.498 C25.174,4.262 24.437,3.653 23.769,3.413 C23.051,3.155 21.592,2.886 19.760,2.671 C18.286,2.498 16.553,2.512 15.507,2.544 C15.381,1.687 14.777,0.903 14.102,0.632 C12.304,-0.089 9.838,-0.109 9.125,0.090 C8.558,0.248 7.220,0.489 7.125,1.090 C7.047,1.580 7.126,1.494 7.125,2.090 C7.125,2.427 7.116,3.383 7.125,4.090 C7.133,4.798 7.125,6.086 7.125,6.090 C7.124,7.030 7.242,7.124 6.125,7.090 L3.125,7.090 C2.503,7.090 1.488,6.926 1.125,7.090 C0.761,7.255 0.235,7.782 0.125,8.090 C-0.139,8.830 0.123,9.433 0.125,10.090 C0.125,10.090 0.121,10.226 0.251,11.264 C0.358,12.067 1.233,17.678 2.063,19.384 C2.385,20.048 2.599,20.325 3.231,20.617 C4.641,21.219 7.859,21.888 9.368,22.079 C10.874,22.271 11.819,22.674 12.382,21.498 C12.384,21.494 12.495,21.205 12.647,20.779 C13.136,19.303 13.205,17.993 13.205,17.045 C13.205,16.949 13.346,16.944 13.346,17.045 C13.346,17.714 13.218,20.083 15.013,20.718 C15.723,20.969 17.193,21.192 18.687,21.367 C20.037,21.522 21.018,22.051 21.018,25.505 C21.018,27.606 20.575,27.894 18.260,27.894 C16.383,27.894 15.667,27.942 15.667,26.457 C15.667,25.256 16.860,25.382 17.743,25.382 C18.137,25.382 17.851,25.090 17.851,24.349 C17.851,23.611 18.314,23.185 17.876,23.174 C14.821,23.090 13.024,23.171 13.024,26.978 C13.024,30.434 14.351,31.075 18.687,31.075 C22.086,31.075 23.283,30.964 24.687,26.625 C24.965,25.768 25.637,23.154 26.044,18.764 C26.301,15.989 25.801,7.612 25.405,5.498 ZM19.125,15.090 C18.705,15.075 17.502,15.030 17.125,15.090 C17.231,14.237 18.739,12.929 19.990,12.973 C21.376,13.021 22.121,15.206 22.125,16.090 C21.541,15.831 19.913,15.117 19.125,15.090 Z" class="cls-1"/>
</svg>
