<svg xmlns="http://www.w3.org/2000/svg" xmlns:xlink="http://www.w3.org/1999/xlink" preserveAspectRatio="xMidYMid" width="41" height="19" viewBox="0 0 41 19">
  <defs>
    <style>
      .cls-1 {
        fill: #000;
        fill-rule: evenodd;
      }
    </style>
  </defs>
  <path d="M8.791,4.211 C8.479,4.211 8.226,4.384 8.215,4.604 L8.000,14.000 L8.215,18.549 C8.226,18.766 8.479,18.938 8.791,18.938 C9.101,18.938 9.354,18.766 9.366,18.547 L10.000,14.000 L9.366,4.604 C9.354,4.384 9.101,4.211 8.791,4.211 ZM0.982,11.068 C0.773,11.068 0.605,11.134 0.589,11.221 L-0.000,14.000 L0.589,16.940 C0.605,17.029 0.773,17.093 0.982,17.093 C1.187,17.093 1.356,17.029 1.374,16.940 L2.000,14.000 L1.374,11.219 C1.356,11.134 1.187,11.068 0.982,11.068 ZM4.841,6.670 C4.581,6.670 4.368,6.810 4.354,6.988 L4.000,14.000 L4.354,18.623 C4.368,18.799 4.581,18.940 4.841,18.940 C5.100,18.940 5.312,18.801 5.329,18.623 L6.000,14.000 L5.329,6.988 C5.312,6.810 5.100,6.670 4.841,6.670 ZM12.710,4.212 C12.350,4.212 12.062,4.414 12.053,4.673 L11.706,14.027 L12.055,18.484 C12.062,18.740 12.350,18.943 12.710,18.943 C13.067,18.943 13.355,18.743 13.365,18.484 L14.000,14.000 L13.365,4.673 C13.355,4.414 13.067,4.212 12.710,4.212 ZM35.070,8.622 C34.347,8.622 33.629,8.744 33.000,9.000 C32.580,4.381 27.866,-0.000 23.000,-0.000 C21.810,-0.000 21.181,0.209 20.000,1.000 C19.646,1.237 19.003,1.700 19.000,2.000 L19.000,18.000 C19.004,18.314 19.685,18.970 20.000,19.000 C20.013,19.000 33.133,19.000 35.000,19.000 C38.014,19.000 41.012,16.959 41.012,13.751 C41.012,10.094 37.986,8.622 35.070,8.622 ZM16.566,2.741 C16.169,2.741 15.841,2.983 15.835,3.276 L15.558,14.016 C15.558,14.022 15.835,18.427 15.835,18.427 C15.841,18.719 16.169,18.959 16.566,18.959 C16.964,18.959 17.292,18.722 17.298,18.427 L17.606,14.019 L17.298,3.276 C17.292,2.981 16.964,2.741 16.566,2.741 Z" class="cls-1"/>
</svg>
