<svg xmlns="http://www.w3.org/2000/svg" xmlns:xlink="http://www.w3.org/1999/xlink" preserveAspectRatio="xMidYMid" width="31" height="36.06" viewBox="0 0 31 36.06">
  <defs>
    <style>
      .cls-1 {
        fill: #000;
        fill-rule: evenodd;
      }
    </style>
  </defs>
  <path d="M25.000,36.060 L-0.000,30.060 L-0.000,12.060 L25.359,7.019 L31.000,9.060 L31.000,33.060 L25.000,36.060 ZM11.000,15.060 L6.000,16.060 L6.000,20.060 L11.000,20.060 L11.000,15.060 ZM11.000,21.060 L6.000,21.060 L6.000,26.060 L11.000,27.060 L11.000,21.060 ZM19.000,14.060 L12.000,15.060 L12.000,20.060 L19.000,20.060 L19.000,14.060 ZM19.000,21.060 L12.000,21.060 L12.000,27.060 L19.000,28.060 L19.000,21.060 ZM19.872,6.252 C19.872,4.195 19.918,3.210 17.526,3.553 C17.494,3.224 17.445,2.917 17.385,2.635 C20.278,2.202 21.000,2.866 21.000,6.060 L20.000,7.060 L19.872,6.252 ZM12.079,8.569 L12.000,7.060 C12.000,4.146 13.196,3.794 14.724,3.258 C14.782,3.519 14.994,3.687 15.000,4.060 C13.664,4.635 12.972,5.197 12.994,7.173 L12.994,8.384 L12.079,8.569 ZM15.742,4.275 C15.742,2.742 15.337,-0.200 11.760,1.209 C9.337,2.164 8.468,2.520 8.000,5.060 L8.000,9.060 L7.042,9.573 L7.000,6.060 C7.000,2.259 9.333,0.731 11.577,0.222 C15.743,-0.720 16.649,1.452 16.658,4.354 L16.658,7.651 L15.742,7.836 L15.742,4.275 Z" class="cls-1"/>
</svg>
