<svg xmlns="http://www.w3.org/2000/svg" xmlns:xlink="http://www.w3.org/1999/xlink" preserveAspectRatio="xMidYMid" width="32" height="31" viewBox="0 0 32 31">
  <defs>
    <style>
      .cls-1 {
        fill: #000;
        fill-rule: evenodd;
      }
    </style>
  </defs>
  <path d="M30.000,31.000 L2.000,31.000 C0.954,30.999 0.000,30.046 0.000,29.000 L0.000,2.000 C0.001,0.954 0.954,-0.000 2.000,-0.000 L30.000,-0.000 C31.045,0.001 31.999,0.955 32.000,2.000 L32.000,29.000 C31.998,30.045 31.045,31.000 30.000,31.000 ZM31.000,2.000 C31.000,1.701 30.299,1.000 30.000,1.000 L2.000,1.000 C1.701,1.000 1.000,1.701 1.000,2.000 L1.000,29.000 C1.000,29.299 1.701,30.000 2.000,30.000 L30.000,30.000 C30.299,30.000 31.000,29.299 31.000,29.000 L31.000,2.000 ZM18.895,25.988 L13.091,25.988 C8.030,25.988 6.001,23.152 6.001,19.726 L6.001,7.319 C6.001,6.575 6.532,5.984 7.382,5.984 L12.430,5.984 C13.318,5.984 14.000,6.400 14.000,7.000 L14.000,9.000 L9.000,9.000 L9.000,19.000 C9.000,22.663 11.349,23.000 13.000,23.000 L19.000,23.000 C20.651,23.000 23.000,22.663 23.000,19.000 L23.000,9.000 L20.000,9.000 C19.112,9.000 18.210,8.096 18.210,7.497 L18.210,5.984 L24.604,5.984 C25.453,5.984 25.984,6.575 25.984,7.319 L25.984,19.726 C25.984,23.152 23.955,25.988 18.895,25.988 Z" class="cls-1"/>
</svg>
