<svg xmlns="http://www.w3.org/2000/svg" xmlns:xlink="http://www.w3.org/1999/xlink" preserveAspectRatio="xMidYMid" width="25.91" height="32.31" viewBox="0 0 25.91 32.31">
  <defs>
    <style>
      .cls-1 {
        fill: #000;
        fill-rule: evenodd;
      }
    </style>
  </defs>
  <path d="M16.727,20.745 C20.084,22.376 23.609,25.366 25.045,28.825 C23.203,30.314 22.963,30.501 20.799,32.316 C18.715,28.311 16.191,26.104 12.738,25.220 C10.712,27.826 7.413,30.870 2.254,32.276 C1.104,29.847 0.791,29.161 0.013,27.328 C4.141,26.373 5.645,25.072 7.664,21.210 C7.519,16.524 8.726,11.916 11.738,10.072 C13.303,10.584 15.981,11.862 16.718,12.095 C16.613,12.571 16.516,13.726 17.780,14.003 C18.740,14.212 21.348,14.191 23.525,12.221 C24.860,14.269 25.916,16.249 25.916,16.249 C25.916,16.249 21.748,20.378 16.817,19.082 C16.782,19.723 16.758,19.928 16.727,20.745 ZM17.312,9.196 C14.791,9.196 12.684,7.139 12.684,4.601 C12.684,2.062 14.791,0.005 17.312,0.005 C19.832,0.005 21.972,2.062 21.972,4.601 C21.972,7.139 19.832,9.196 17.312,9.196 Z" class="cls-1"/>
</svg>
