<svg xmlns="http://www.w3.org/2000/svg" xmlns:xlink="http://www.w3.org/1999/xlink" preserveAspectRatio="xMidYMid" width="24" height="30" viewBox="0 0 24 30">
  <defs>
    <style>
      .cls-1 {
        fill: #000;
        fill-rule: evenodd;
      }
    </style>
  </defs>
  <path d="M21.459,12.096 L19.395,0.438 L21.934,0.006 L23.998,11.664 L21.459,12.096 ZM18.869,13.673 L12.071,3.897 L14.200,2.473 L20.997,12.250 L18.869,13.673 ZM17.140,16.196 L6.748,10.185 L8.058,8.008 L18.449,14.020 L17.140,16.196 ZM16.260,19.351 L4.609,16.279 L5.278,13.839 L16.929,16.911 L16.260,19.351 ZM15.900,22.724 L3.887,21.640 L4.123,19.123 L16.136,20.208 L15.900,22.724 ZM15.918,26.055 L3.797,26.055 L3.797,23.352 L15.918,23.352 L15.918,26.055 ZM17.938,17.700 L19.958,17.700 L19.955,29.387 C19.955,29.387 19.955,29.977 19.935,29.977 L19.935,29.987 L0.632,29.987 C0.632,29.987 0.030,29.987 0.030,29.977 L0.010,29.977 L0.010,17.700 L2.030,17.700 L2.030,28.021 L17.938,28.021 L17.938,17.700 Z" class="cls-1"/>
</svg>
