<svg xmlns="http://www.w3.org/2000/svg" xmlns:xlink="http://www.w3.org/1999/xlink" preserveAspectRatio="xMidYMid" width="35.031" height="35.04" viewBox="0 0 35.031 35.04">
  <defs>
    <style>
      .cls-1 {
        fill: #000;
        fill-rule: evenodd;
      }
    </style>
  </defs>
  <path d="M17.505,-0.000 C7.834,-0.000 -0.007,7.840 -0.007,17.511 C-0.007,27.183 7.834,35.022 17.505,35.022 C27.176,35.022 35.016,27.183 35.016,17.511 C35.016,7.840 27.177,0.000 17.504,0.000 L17.505,-0.000 ZM25.535,25.256 C25.221,25.771 24.549,25.933 24.035,25.619 C19.922,23.106 14.747,22.538 8.651,23.930 C8.064,24.065 7.478,23.697 7.344,23.109 C7.210,22.522 7.576,21.937 8.165,21.803 C14.836,20.278 20.558,20.934 25.173,23.755 C25.688,24.070 25.851,24.742 25.535,25.256 L25.535,25.256 ZM27.679,20.488 C27.283,21.131 26.442,21.332 25.801,20.938 C21.095,18.045 13.919,17.207 8.351,18.897 C7.629,19.115 6.866,18.708 6.647,17.987 C6.430,17.265 6.837,16.504 7.558,16.285 C13.917,14.355 21.823,15.290 27.229,18.611 C27.871,19.007 28.074,19.847 27.678,20.488 L27.679,20.488 ZM27.863,15.523 C22.218,12.171 12.907,11.863 7.519,13.498 C6.653,13.760 5.738,13.272 5.476,12.407 C5.214,11.541 5.702,10.627 6.568,10.364 C12.753,8.486 23.036,8.849 29.534,12.706 C30.313,13.168 30.568,14.173 30.107,14.950 C29.647,15.729 28.639,15.985 27.863,15.523 L27.863,15.523 Z" class="cls-1"/>
</svg>
