<svg xmlns="http://www.w3.org/2000/svg" xmlns:xlink="http://www.w3.org/1999/xlink" preserveAspectRatio="xMidYMid" width="34.156" height="29.59" viewBox="0 0 34.156 29.59">
  <defs>
    <style>
      .cls-1 {
        fill: #000;
        fill-rule: evenodd;
      }
    </style>
  </defs>
  <path d="M0.000,8.050 L1.387,9.855 C1.387,9.855 4.246,7.618 5.199,8.737 C6.152,9.855 9.791,23.365 11.006,25.857 C12.066,28.042 14.990,30.932 18.197,28.868 C21.402,26.805 32.060,17.771 33.968,7.102 C35.875,-3.563 21.143,-1.329 19.582,7.963 C23.482,5.638 25.564,8.907 23.568,12.609 C21.576,16.307 19.756,18.719 18.803,18.719 C17.851,18.719 17.119,16.244 16.029,11.919 C14.902,7.447 14.909,-0.608 10.225,0.305 C5.807,1.166 0.000,8.050 0.000,8.050 Z" class="cls-1"/>
</svg>
