<svg xmlns="http://www.w3.org/2000/svg" xmlns:xlink="http://www.w3.org/1999/xlink" preserveAspectRatio="xMidYMid" width="35.969" height="32.44" viewBox="0 0 35.969 32.44">
  <defs>
    <style>
      .cls-1 {
        fill: #000;
        fill-rule: evenodd;
      }
    </style>
  </defs>
  <path d="M27.301,18.812 C26.682,18.901 26.195,19.123 25.719,19.479 C23.335,21.261 20.951,23.046 18.546,24.800 C18.052,25.160 17.847,25.584 17.769,26.165 C17.305,29.620 14.803,31.997 11.236,32.405 C8.050,32.770 4.935,30.849 3.840,27.680 C3.502,26.701 2.950,26.246 2.047,25.870 C1.360,25.584 0.674,25.297 -0.013,25.010 L-0.013,16.254 C1.956,17.084 3.925,17.916 5.893,18.748 C6.482,18.997 7.105,19.218 7.679,18.876 C8.315,18.415 8.702,18.052 9.763,18.050 C11.263,18.086 11.376,17.422 12.087,16.220 C13.525,14.137 14.930,12.078 16.473,9.981 C16.807,9.527 17.039,9.060 17.102,8.489 C17.672,3.326 21.941,-0.282 27.120,0.007 C32.091,0.284 36.001,4.470 35.983,9.494 C35.966,14.321 32.496,18.071 27.301,18.812 ZM9.901,19.653 C9.385,19.756 8.828,19.879 8.880,20.568 C8.931,21.241 9.437,21.344 10.005,21.314 C10.262,21.300 10.521,21.302 10.778,21.308 C13.234,21.363 15.082,23.670 14.573,26.043 C13.905,29.154 10.271,30.314 7.863,28.195 C7.393,27.782 6.869,27.062 6.204,27.789 C5.553,28.501 6.296,28.984 6.750,29.414 C8.381,30.962 10.820,31.365 12.902,30.419 C15.132,29.406 16.192,27.609 16.312,25.487 C16.291,21.906 12.989,19.037 9.901,19.653 ZM26.538,2.906 C23.004,2.870 19.969,5.857 19.954,9.385 C19.940,12.946 22.869,15.884 26.470,15.920 C30.020,15.956 33.022,12.997 33.042,9.445 C33.062,5.882 30.138,2.942 26.538,2.906 ZM26.448,14.136 C23.744,14.094 21.719,12.052 21.730,9.377 C21.740,6.753 23.887,4.619 26.508,4.628 C29.149,4.636 31.325,6.850 31.296,9.499 C31.267,12.123 29.120,14.177 26.448,14.136 Z" class="cls-1"/>
</svg>
