<svg xmlns="http://www.w3.org/2000/svg" xmlns:xlink="http://www.w3.org/1999/xlink" preserveAspectRatio="xMidYMid" width="30" height="31" viewBox="0 0 30 31">
  <defs>
    <style>
      .cls-1 {
        fill: #000;
        fill-rule: evenodd;
      }
    </style>
  </defs>
  <path d="M28.237,18.025 C27.069,19.654 25.517,20.920 23.585,21.826 C23.007,22.109 22.387,22.343 21.723,22.527 C21.059,22.711 20.396,22.803 19.733,22.803 C19.011,22.803 18.283,22.767 17.547,22.697 C16.811,22.626 16.111,22.435 15.447,22.123 L15.000,25.000 C15.000,26.868 14.880,27.938 14.000,29.000 C13.119,30.062 11.812,30.998 9.821,30.998 C9.532,30.998 9.200,30.977 8.825,30.934 C8.450,30.892 8.068,30.814 7.678,30.701 C7.289,30.588 6.935,30.446 6.618,30.276 C6.300,30.106 5.685,29.934 5.512,29.679 L5.882,25.053 C6.199,25.393 6.575,25.669 7.007,25.881 C7.440,26.094 7.902,26.200 8.392,26.200 C9.489,26.200 10.037,25.662 10.037,24.586 L10.105,8.994 L15.000,9.000 L15.000,18.000 C15.866,18.283 17.236,18.471 18.218,18.471 C19.083,18.471 19.898,18.337 20.663,18.068 C21.427,17.799 22.106,17.410 22.697,16.900 C23.288,16.391 23.750,15.775 24.082,15.053 C24.414,14.331 24.580,13.518 24.580,12.612 C24.580,11.225 24.298,10.042 23.734,9.066 C23.170,8.089 22.425,7.290 21.500,6.667 C20.574,6.044 19.511,5.591 18.312,5.308 C17.111,5.025 15.889,4.883 14.646,4.883 C13.461,4.883 12.304,5.046 11.176,5.371 C10.048,5.697 9.028,6.193 8.117,6.858 C7.206,7.523 6.476,8.337 5.927,9.299 C5.378,10.262 5.103,11.380 5.103,12.654 C5.103,13.447 5.204,14.169 5.406,14.820 C5.607,15.471 5.997,16.080 6.575,16.645 L2.657,19.958 C2.113,19.363 1.669,18.797 1.326,18.259 C0.982,17.722 0.710,17.170 0.510,16.603 C0.310,16.037 0.174,15.429 0.103,14.777 C0.031,14.126 -0.004,13.418 -0.004,12.654 C-0.004,10.644 0.392,8.853 1.186,7.282 C1.979,5.711 3.040,4.388 4.367,3.312 C5.694,2.236 7.238,1.416 8.998,0.849 C10.758,0.283 12.591,-0.000 14.495,-0.000 C16.428,-0.000 18.326,0.248 20.187,0.743 C22.048,1.239 23.700,1.996 25.143,3.015 C26.585,4.034 27.754,5.322 28.649,6.879 C29.543,8.436 29.990,10.276 29.990,12.399 C29.990,14.522 29.406,16.398 28.237,18.025 Z" class="cls-1"/>
</svg>
