<svg xmlns="http://www.w3.org/2000/svg" xmlns:xlink="http://www.w3.org/1999/xlink" preserveAspectRatio="xMidYMid" width="35" height="27.53" viewBox="0 0 35 27.53">
  <defs>
    <style>
      .cls-1 {
        fill: #000;
        fill-rule: evenodd;
      }
    </style>
  </defs>
  <path d="M7.404,18.903 L9.000,19.000 L9.105,27.339 L10.748,27.339 L10.748,18.903 L12.449,18.903 L12.449,17.470 L7.404,17.470 L7.404,18.903 ZM15.797,25.587 C15.659,25.744 15.509,25.876 15.344,25.976 C15.180,26.079 15.042,26.131 14.937,26.131 C14.800,26.131 14.701,26.092 14.638,26.014 C14.579,25.938 14.548,25.814 14.548,25.641 L14.548,20.056 L13.090,20.056 L13.090,26.144 C13.090,26.579 13.176,26.901 13.346,27.120 C13.517,27.337 13.769,27.445 14.108,27.445 C14.382,27.445 14.664,27.369 14.953,27.212 C15.247,27.058 15.525,26.834 15.797,26.538 L15.797,27.339 L17.255,27.339 L17.255,20.056 L15.797,20.056 L15.797,25.587 ZM21.124,19.969 C20.898,19.969 20.672,20.026 20.450,20.140 C20.231,20.255 20.022,20.426 19.825,20.647 L19.825,17.470 L18.351,17.470 L18.351,27.339 L19.825,27.339 L19.825,26.780 C20.017,27.003 20.226,27.168 20.450,27.272 C20.671,27.380 20.925,27.431 21.212,27.431 C21.644,27.431 21.975,27.295 22.204,27.020 C22.433,26.744 22.547,26.349 22.547,25.833 L22.547,21.792 C22.547,21.197 22.425,20.743 22.180,20.432 C21.937,20.124 21.585,19.969 21.124,19.969 ZM21.043,25.633 C21.043,25.868 21.000,26.033 20.917,26.135 C20.832,26.238 20.702,26.289 20.523,26.289 C20.401,26.289 20.284,26.263 20.172,26.211 C20.059,26.160 19.943,26.071 19.825,25.954 L19.825,21.418 C19.926,21.316 20.024,21.241 20.127,21.195 C20.227,21.146 20.331,21.124 20.436,21.124 C20.631,21.124 20.783,21.186 20.890,21.313 C20.994,21.440 21.043,21.627 21.043,21.875 L21.043,25.633 ZM25.527,19.875 C24.875,19.875 24.344,20.074 23.930,20.470 C23.518,20.869 23.310,21.386 23.310,22.014 L23.310,25.286 C23.310,25.987 23.501,26.538 23.875,26.937 C24.250,27.337 24.764,27.537 25.418,27.537 C26.145,27.537 26.691,27.350 27.054,26.974 C27.422,26.595 27.603,26.032 27.603,25.286 L27.603,24.911 L26.104,24.911 L26.104,25.245 C26.104,25.671 26.053,25.947 25.958,26.073 C25.861,26.200 25.694,26.263 25.452,26.263 C25.219,26.263 25.054,26.190 24.957,26.041 C24.860,25.893 24.815,25.627 24.815,25.245 L24.815,23.871 L27.603,23.871 L27.603,22.014 C27.603,21.326 27.426,20.796 27.068,20.429 C26.709,20.059 26.194,19.875 25.527,19.875 ZM26.104,22.738 L24.815,22.738 L24.815,22.003 C24.815,21.698 24.863,21.478 24.965,21.349 C25.067,21.215 25.233,21.151 25.465,21.151 C25.686,21.151 25.852,21.215 25.950,21.349 C26.051,21.478 26.104,21.698 26.104,22.003 L26.104,22.738 ZM17.645,6.019 C17.444,6.019 17.282,6.073 17.156,6.181 C17.032,6.289 16.969,6.430 16.969,6.606 L16.969,10.974 C16.969,11.195 17.028,11.365 17.144,11.485 C17.260,11.606 17.428,11.666 17.645,11.666 C17.867,11.666 18.043,11.604 18.175,11.482 C18.307,11.358 18.371,11.189 18.371,10.974 L18.371,6.606 C18.371,6.430 18.305,6.289 18.171,6.181 C18.037,6.073 17.862,6.019 17.645,6.019 ZM31.351,-0.015 L3.657,-0.015 C1.643,-0.015 -0.003,1.629 -0.003,3.638 L-0.003,11.400 C-0.003,13.408 1.643,15.050 3.657,15.050 L31.351,15.050 C33.365,15.050 35.011,13.408 35.011,11.400 L35.011,3.638 C35.011,1.629 33.365,-0.015 31.351,-0.015 ZM12.993,8.342 L12.993,12.853 L11.145,12.853 L11.145,8.545 L8.944,1.981 L10.806,1.981 L12.006,6.326 L12.123,6.326 L13.265,1.981 L15.146,1.981 L12.993,8.342 ZM20.045,10.855 C20.045,11.541 19.832,12.077 19.408,12.469 C18.981,12.859 18.395,13.054 17.649,13.054 C16.932,13.054 16.356,12.853 15.924,12.450 C15.495,12.047 15.278,11.504 15.278,10.824 L15.278,6.667 C15.278,6.045 15.499,5.550 15.942,5.181 C16.383,4.815 16.978,4.629 17.723,4.629 C18.403,4.629 18.961,4.825 19.396,5.212 C19.828,5.600 20.045,6.100 20.045,6.711 L20.045,10.855 ZM26.063,12.853 L24.420,12.853 L24.420,11.966 C24.120,12.293 23.805,12.542 23.476,12.713 C23.149,12.883 22.831,12.969 22.524,12.969 C22.142,12.969 21.858,12.848 21.665,12.610 C21.474,12.371 21.377,12.014 21.377,11.534 L21.377,4.832 L23.017,4.832 L23.017,10.981 C23.017,11.171 23.055,11.308 23.123,11.392 C23.191,11.477 23.303,11.522 23.456,11.522 C23.576,11.522 23.730,11.465 23.916,11.352 C24.099,11.239 24.268,11.095 24.420,10.919 L24.420,4.832 L26.063,4.832 L26.063,12.853 Z" class="cls-1"/>
</svg>
