<svg xmlns="http://www.w3.org/2000/svg" xmlns:xlink="http://www.w3.org/1999/xlink" preserveAspectRatio="xMidYMid" width="37.094" height="37.09" viewBox="0 0 37.094 37.09">
  <defs>
    <style>
      .cls-1 {
        fill: #000;
        fill-rule: evenodd;
      }
    </style>
  </defs>
  <path d="M18.543,37.095 C8.318,37.095 -0.000,28.777 -0.000,18.552 C-0.000,8.328 8.318,0.009 18.543,0.009 C28.768,0.009 37.086,8.328 37.086,18.552 C37.086,28.777 28.768,37.095 18.543,37.095 ZM18.543,0.879 C8.792,0.879 0.859,8.807 0.859,18.552 C0.859,28.298 8.792,36.226 18.543,36.226 C28.294,36.226 36.227,28.298 36.227,18.552 C36.227,8.807 28.294,0.879 18.543,0.879 ZM34.682,18.304 C34.682,24.213 31.468,29.374 26.689,32.149 L31.600,18.003 C32.517,15.719 32.824,13.891 32.824,12.267 C32.824,11.676 32.784,11.129 32.712,10.618 C33.968,12.901 34.682,15.519 34.682,18.304 ZM26.554,9.319 C26.554,10.642 27.318,11.758 28.133,13.078 C28.743,14.144 29.460,15.515 29.460,17.496 C29.460,18.866 29.049,20.592 28.235,22.675 L26.631,28.011 L20.819,10.793 C21.789,10.742 22.659,10.642 22.659,10.642 C23.525,10.540 23.422,9.271 22.558,9.319 C22.558,9.319 19.952,9.526 18.271,9.526 C16.690,9.526 14.037,9.319 14.037,9.319 C13.169,9.271 13.068,10.589 13.933,10.642 C13.933,10.642 14.755,10.742 15.621,10.793 L18.125,17.633 L14.608,28.144 L8.750,10.793 C9.721,10.742 10.592,10.642 10.592,10.642 C11.458,10.540 11.354,9.271 10.490,9.319 C10.490,9.319 7.886,9.526 6.203,9.526 C5.902,9.526 5.547,9.517 5.170,9.507 C8.043,5.156 12.986,2.285 18.604,2.285 C22.791,2.285 26.602,3.880 29.462,6.491 C29.394,6.487 29.325,6.477 29.255,6.477 C27.672,6.477 26.554,7.848 26.554,9.319 ZM2.523,18.304 C2.523,15.982 3.024,13.777 3.916,11.785 L11.586,32.720 C6.222,30.126 2.523,24.643 2.523,18.304 ZM23.829,33.197 C23.861,33.275 23.900,33.348 23.943,33.415 C22.272,34.002 20.475,34.325 18.604,34.325 C17.025,34.325 15.500,34.096 14.060,33.671 L18.887,19.707 L23.829,33.197 Z" class="cls-1"/>
</svg>
