<svg xmlns="http://www.w3.org/2000/svg" xmlns:xlink="http://www.w3.org/1999/xlink" preserveAspectRatio="xMidYMid" width="33.125" height="25.09" viewBox="0 0 33.125 25.09">
  <defs>
    <style>
      .cls-1 {
        fill: #000;
        fill-rule: evenodd;
      }
    </style>
  </defs>
  <path d="M28.000,13.000 L28.000,18.000 C28.000,18.960 26.968,20.000 26.000,20.000 C25.033,20.000 24.000,18.960 24.000,18.000 L24.000,13.000 L21.000,15.000 L18.000,13.000 L18.000,18.000 C18.035,22.028 21.646,25.087 25.711,25.087 C29.799,25.087 33.114,21.797 33.114,17.739 C33.114,17.686 33.000,13.000 33.000,13.000 L28.000,13.000 ZM18.000,9.000 L21.000,11.000 L24.034,9.331 L24.034,7.195 C23.915,3.242 20.569,-0.015 16.557,-0.015 C12.559,-0.015 9.312,3.132 9.170,7.067 L9.170,17.680 C9.170,18.639 7.967,20.000 7.000,20.000 C6.032,20.000 5.000,18.960 5.000,18.000 L5.000,13.000 L0.000,13.070 C0.000,13.070 0.000,17.686 0.000,17.739 C0.000,21.797 3.314,25.087 7.403,25.087 C11.454,25.087 14.740,21.853 14.796,17.845 L15.000,7.000 C15.000,6.040 15.590,5.623 16.557,5.623 C18.108,5.623 18.000,7.040 18.000,8.000 L18.000,9.000 Z" class="cls-1"/>
</svg>
