<svg xmlns="http://www.w3.org/2000/svg" xmlns:xlink="http://www.w3.org/1999/xlink" preserveAspectRatio="xMidYMid" width="30" height="30.84" viewBox="0 0 30 30.84">
  <defs>
    <style>
      .cls-1 {
        fill: #000;
        fill-rule: evenodd;
      }
    </style>
  </defs>
  <path d="M26.000,5.590 L26.000,9.590 L25.000,9.590 L25.000,5.590 L21.000,5.590 L21.000,4.590 L25.000,4.590 L25.000,0.590 L26.000,0.590 L26.000,4.590 L30.000,4.590 L30.000,5.590 L26.000,5.590 ZM15.227,2.091 C16.920,3.056 17.818,5.041 17.818,7.235 C17.818,9.247 16.700,10.868 15.121,12.096 C13.578,13.299 13.287,13.799 13.287,14.821 C13.287,15.691 15.128,16.988 15.976,17.621 C18.924,19.825 19.480,21.212 19.522,23.967 C19.577,27.630 15.802,30.825 9.754,30.825 C4.447,30.825 -0.000,28.419 -0.000,24.978 C-0.000,19.784 3.683,18.107 8.990,18.107 C9.568,18.107 10.098,18.092 10.647,18.092 C9.920,17.391 9.334,16.784 9.334,15.722 C9.334,15.088 9.534,14.485 9.818,13.947 C9.531,13.965 9.236,13.984 8.933,13.984 C4.574,13.984 2.036,10.932 2.036,7.107 C2.036,3.361 5.899,0.004 10.533,0.004 C12.922,0.004 19.666,0.004 19.666,0.004 L17.625,2.091 L15.227,2.091 ZM10.000,20.590 C6.622,20.590 3.712,21.788 3.712,24.168 C3.712,26.594 6.553,28.590 10.000,28.590 C14.847,28.590 16.185,26.719 16.185,24.290 C16.185,23.997 16.177,23.702 16.075,23.434 C14.905,20.523 11.256,20.590 10.000,20.590 ZM13.975,7.606 C13.573,4.565 12.052,2.277 9.716,2.206 C7.381,2.138 5.333,4.259 5.739,7.300 C6.141,10.345 8.362,12.384 10.699,12.456 C13.034,12.523 14.377,10.651 13.975,7.606 Z" class="cls-1"/>
</svg>
