<svg xmlns="http://www.w3.org/2000/svg" xmlns:xlink="http://www.w3.org/1999/xlink" preserveAspectRatio="xMidYMid" width="15" height="31" viewBox="0 0 15 31">
  <defs>
    <style>
      .cls-1 {
        fill: #000;
        fill-rule: evenodd;
      }
    </style>
  </defs>
  <path d="M4.000,4.000 C3.982,3.147 3.413,2.465 2.587,2.216 C2.185,2.096 1.764,2.029 1.348,1.965 C0.907,1.897 0.460,1.862 0.015,1.812 C0.015,1.210 0.015,0.609 0.015,0.007 C5.008,0.007 10.000,0.007 14.993,0.007 C14.993,0.609 14.993,1.210 14.993,1.812 C14.885,1.828 14.777,1.845 14.669,1.860 C13.968,1.962 13.259,2.029 12.566,2.173 C11.804,2.330 11.089,3.195 11.000,4.000 C10.958,4.380 11.000,4.619 11.000,5.000 C10.995,11.862 10.997,18.138 11.000,25.000 C11.000,25.608 10.973,26.392 11.000,27.000 C11.037,27.852 11.588,28.479 12.414,28.745 C12.590,28.801 12.771,28.853 12.954,28.878 C13.633,28.969 14.313,29.047 14.993,29.131 C14.993,29.749 14.993,30.367 14.993,30.985 C10.000,30.985 5.008,30.985 0.015,30.985 C0.015,30.367 0.015,29.749 0.015,29.131 C0.175,29.114 0.336,29.103 0.495,29.079 C1.163,28.981 1.837,28.910 2.496,28.770 C3.234,28.613 3.909,27.768 4.000,27.000 C4.043,26.637 4.000,26.365 4.000,26.000 C4.005,20.056 4.032,5.543 4.000,4.000 Z" class="cls-1"/>
</svg>
