<svg xmlns="http://www.w3.org/2000/svg" xmlns:xlink="http://www.w3.org/1999/xlink" preserveAspectRatio="xMidYMid" width="31" height="31" viewBox="0 0 31 31">
  <defs>
    <style>
      .cls-1 {
        fill: #000;
        fill-rule: evenodd;
      }
    </style>
  </defs>
  <path d="M29.535,17.520 C29.619,16.881 29.668,16.233 29.668,15.571 C29.668,7.644 23.292,1.215 15.430,1.215 C14.648,1.215 13.881,1.281 13.137,1.405 C11.800,0.521 10.209,0.007 8.496,0.007 C3.800,0.007 -0.000,3.862 -0.000,8.619 C-0.000,10.350 0.502,11.959 1.368,13.309 C1.251,14.046 1.193,14.801 1.193,15.571 C1.193,23.500 7.564,29.927 15.430,29.927 C16.316,29.927 17.182,29.840 18.022,29.687 C19.326,30.507 20.863,30.985 22.513,30.985 C27.207,30.985 31.009,27.129 31.009,22.372 C31.009,20.574 30.465,18.901 29.535,17.520 ZM16.448,23.513 C13.045,23.692 11.452,22.928 9.993,21.542 C8.363,19.991 9.017,18.222 10.346,18.133 C11.673,18.043 12.470,19.658 13.177,20.106 C13.884,20.554 16.576,21.572 17.998,19.925 C19.546,18.133 16.967,17.205 15.079,16.924 C12.382,16.520 8.975,15.040 9.240,12.125 C9.505,9.213 11.681,7.720 13.972,7.509 C16.892,7.240 18.793,7.957 20.295,9.257 C22.034,10.760 21.093,12.439 19.986,12.574 C18.882,12.708 17.643,10.102 15.210,10.064 C12.704,10.025 11.010,12.708 14.105,13.471 C17.200,14.234 20.518,14.548 21.711,17.416 C22.907,20.285 19.854,23.332 16.448,23.513 Z" class="cls-1"/>
</svg>
