<svg xmlns="http://www.w3.org/2000/svg" xmlns:xlink="http://www.w3.org/1999/xlink" preserveAspectRatio="xMidYMid" width="31" height="31" viewBox="0 0 31 31">
  <defs>
    <style>
      .cls-1 {
        fill: #000;
        fill-rule: evenodd;
      }
    </style>
  </defs>
  <path d="M27.027,30.985 L3.985,30.985 C1.793,30.985 -0.000,29.200 -0.000,27.016 L-0.000,3.978 C-0.000,1.794 1.793,0.007 3.985,0.007 L27.027,0.007 C29.218,0.007 31.009,1.794 31.009,3.978 L31.009,27.016 C31.009,29.200 29.218,30.985 27.027,30.985 ZM15.505,8.858 C11.836,8.858 8.861,11.827 8.861,15.489 C8.861,19.151 11.836,22.120 15.505,22.120 C19.174,22.120 22.148,19.151 22.148,15.489 C22.148,11.827 19.174,8.858 15.505,8.858 ZM27.000,5.000 C27.000,4.354 26.647,4.000 26.000,4.000 L23.000,4.000 C22.351,4.000 22.000,4.354 22.000,5.000 L22.000,8.000 C22.000,8.646 22.351,9.000 23.000,9.000 L26.000,9.000 C26.647,9.000 27.000,8.646 27.000,8.000 L27.000,5.000 ZM28.000,13.000 L24.861,13.272 C25.029,13.983 25.137,14.716 25.137,15.477 C25.137,20.781 20.830,25.079 15.516,25.079 C10.203,25.079 5.895,20.781 5.895,15.477 C5.895,14.717 5.993,13.981 6.160,13.272 L3.000,13.000 L3.000,26.000 C3.000,26.677 4.322,28.000 5.000,28.000 L26.000,28.000 C26.679,28.000 28.000,26.677 28.000,26.000 L28.000,13.000 Z" class="cls-1"/>
</svg>
