<svg xmlns="http://www.w3.org/2000/svg" xmlns:xlink="http://www.w3.org/1999/xlink" preserveAspectRatio="xMidYMid" width="38.25" height="26.97" viewBox="0 0 38.25 26.97">
  <defs>
    <style>
      .cls-1 {
        fill: #000;
        fill-rule: evenodd;
      }
    </style>
  </defs>
  <path d="M38.002,15.776 C37.438,17.444 36.215,18.435 34.471,18.703 C34.074,18.765 33.919,18.916 33.777,19.253 C33.001,21.103 32.194,22.941 31.413,24.789 C31.314,25.023 31.289,25.292 31.255,25.548 C31.226,25.764 31.238,25.986 31.226,26.205 C31.195,26.731 31.030,26.929 30.508,26.956 C29.957,26.984 29.402,26.984 28.851,26.955 C28.328,26.928 28.177,26.729 28.200,26.207 C28.210,25.979 28.222,25.751 28.234,25.523 C28.222,25.522 28.211,25.521 28.200,25.520 C28.338,24.229 28.475,22.939 28.616,21.649 C28.764,20.298 28.909,18.946 29.067,17.597 C29.217,16.309 29.295,15.004 29.563,13.740 C29.893,12.182 30.800,10.972 32.285,10.299 C33.870,9.582 35.809,10.018 37.014,11.316 C38.213,12.607 38.561,14.123 38.002,15.776 ZM28.797,13.800 C28.614,15.084 28.472,16.374 28.311,17.662 C28.300,17.748 28.279,17.834 28.257,17.951 C25.483,16.061 22.420,15.212 19.124,15.222 C15.850,15.231 12.772,16.004 9.974,17.839 C9.901,17.276 9.842,16.730 9.759,16.188 C9.590,15.072 9.464,13.945 9.216,12.846 C9.018,11.974 8.538,11.216 7.853,10.608 C7.796,10.557 7.762,10.440 7.770,10.359 C8.056,7.275 9.396,4.733 11.732,2.713 C13.388,1.281 15.309,0.397 17.473,0.109 C20.828,-0.338 23.847,0.485 26.458,2.669 C28.549,4.418 29.830,6.652 30.349,9.323 C30.416,9.666 30.444,10.018 30.473,10.368 C30.479,10.449 30.441,10.562 30.383,10.615 C29.448,11.476 28.973,12.571 28.797,13.800 ZM9.013,15.801 C9.159,16.985 9.275,18.173 9.406,19.359 C9.557,20.728 9.721,22.096 9.859,23.466 C9.950,24.383 10.016,25.302 10.071,26.221 C10.102,26.734 9.989,26.890 9.478,26.922 C8.850,26.961 8.216,26.939 7.586,26.908 C7.272,26.892 7.120,26.706 7.074,26.399 C7.052,26.252 7.021,26.100 7.036,25.955 C7.095,25.374 6.916,24.858 6.686,24.336 C5.905,22.563 5.148,20.779 4.386,18.998 C4.319,18.841 4.251,18.747 4.051,18.737 C2.179,18.643 0.429,17.066 0.113,15.202 C0.070,14.943 0.040,14.683 0.003,14.423 C0.003,14.388 0.003,14.353 0.003,14.318 C0.076,13.905 0.110,13.482 0.227,13.082 C0.983,10.492 3.971,9.195 6.374,10.423 C7.590,11.045 8.303,12.102 8.634,13.389 C8.836,14.174 8.913,14.993 9.013,15.801 ZM16.665,16.077 C19.816,15.608 22.865,15.972 25.740,17.392 C26.530,17.782 27.254,18.307 28.011,18.765 C28.145,18.846 28.173,18.948 28.156,19.094 C27.986,20.522 27.813,21.951 27.661,23.382 C27.634,23.629 27.541,23.675 27.319,23.674 C24.586,23.668 21.853,23.670 19.120,23.670 C16.413,23.670 13.706,23.670 10.999,23.670 C10.643,23.670 10.650,23.668 10.608,23.313 C10.440,21.884 10.271,20.456 10.092,19.028 C10.064,18.803 10.108,18.666 10.312,18.531 C12.252,17.250 14.370,16.418 16.665,16.077 Z" class="cls-1"/>
</svg>
