<?xml version="1.0" encoding="utf-8"?>
<!-- Generator: Adobe Illustrator 18.0.0, SVG Export Plug-In . SVG Version: 6.00 Build 0)  -->
<!DOCTYPE svg PUBLIC "-//W3C//DTD SVG 1.1//EN" "http://www.w3.org/Graphics/SVG/1.1/DTD/svg11.dtd">
<svg version="1.1" id="图层_1" xmlns="http://www.w3.org/2000/svg" xmlns:xlink="http://www.w3.org/1999/xlink" x="0px" y="0px"
	 viewBox="0 0 595.3 841.9" enable-background="new 0 0 595.3 841.9" xml:space="preserve">
<path fill="#666666" d="M221,293.9c38.9,0,70.4-46,70.4-102.8c0-56.8-31.4-102.7-70.4-102.7c-38.9,0-70.5,45.9-70.5,102.7
	C150.5,247.9,182.1,293.9,221,293.9z"/>
<path fill="#666666" d="M388.7,300.7c52.1,7,85.5-50,92.1-93.2c6.8-43.1-26.8-93.3-63.6-101.9c-37-8.7-83.1,52-87.2,91.5
	C325,245.6,336.7,293.8,388.7,300.7z"/>
<path fill="#666666" d="M90.1,438.9c70.5-15.5,60.9-102,58.8-120.9c-3.5-29.1-36.9-80.1-82.2-76c-57.1,5.2-65.4,89.8-65.4,89.8
	C-6.4,370.9,19.7,454.5,90.1,438.9z"/>
<path fill="#666666" d="M516.2,554.5c0,0-80.5-63.9-127.5-133c-63.8-101.8-154.3-60.4-184.6-8.6c-30.2,51.8-77.1,84.6-83.8,93.3
	c-6.8,8.5-97.2,58.7-77.2,150.2c20.1,91.5,90.7,89.8,90.7,89.8s52,5.2,112.3-8.6c60.4-13.8,112.4,3.4,112.4,3.4s141,48.5,179.5-44.8
	C576.6,602.9,516.2,554.5,516.2,554.5z"/>
<path fill="#666666" d="M595,373.2c0-20.7-16.7-82.9-78.8-82.9c-62.2,0-70.4,58.8-70.4,100.3c0,39.6,3.2,94.9,80.5,93.2
	C603.5,482,595,394,595,373.2z"/>
</svg>
