<?xml version="1.0" encoding="iso-8859-1"?>
<!-- Generator: Adobe Illustrator 18.0.0, SVG Export Plug-In . SVG Version: 6.00 Build 0)  -->
<!DOCTYPE svg PUBLIC "-//W3C//DTD SVG 1.1//EN" "http://www.w3.org/Graphics/SVG/1.1/DTD/svg11.dtd">
<svg version="1.1" id="&#x56FE;&#x5C42;_1" xmlns="http://www.w3.org/2000/svg" xmlns:xlink="http://www.w3.org/1999/xlink" x="0px"
	 y="0px" viewBox="0 0 65.032 122.712" style="enable-background:new 0 0 65.032 122.712;" xml:space="preserve">
<path style="fill:#5B5C5C;" d="M52.467,49.35c2.96,7.867,6.003,15.705,8.852,23.611c2.081,5.776,3.98,11.628,3.682,17.906
	c-0.611,6.04-2.189,11.79-5.198,17.109l-0.012,0.02c-0.46,0.302-0.712,0.74-0.842,1.26l-0.019,0.031
	c-1.977,2.437-4.141,4.699-6.462,6.813l-0.019,0.011c-0.962,0.401-1.776,1.017-2.524,1.727l-0.041,0.023
	c-4.676,2.629-9.723,4.09-15.035,4.719c-2.776-0.027-5.664,0.42-8.301-0.194c-3.827-0.891-7.692-2.001-11.054-4.237
	C7.227,112.792,2.392,105.23,0.557,95.617c-1.258-6.59-0.265-12.884,1.794-19.145c4.615-14.031,10.39-27.621,15.843-41.332
	c4.48-11.264,9.05-22.493,13.582-33.737C31.934,1.01,32.115,0.627,32.391,0c0.579,1.131,1.064,2.076,1.547,3.02
	c0,0,0.009,0.015,0.009,0.015c0.066,0.795,0.31,1.52,0.849,2.129l0.006,0.019c0.052,0.799,0.328,1.509,0.854,2.12l0.008,0.026
	c0.04,0.805,0.332,1.51,0.853,2.124l0.004,0.017c1.602,4.807,3.503,9.497,5.614,14.105c0,0,0.012,0.033,0.012,0.033
	c0.055,0.792,0.338,1.493,0.852,2.101c0,0,0.016,0.042,0.016,0.042c0.039,0.798,0.331,1.497,0.843,2.108
	c0,0,0.012,0.035,0.012,0.035c0.904,2.947,2.063,5.793,3.433,8.555l0.003,0.013c0.652,2.222,1.472,4.377,2.582,6.417l0.003,0.01
	c0.05,0.804,0.329,1.518,0.852,2.135l0.004,0.012c0.066,0.8,0.33,1.522,0.86,2.138l-0.001,0.003
	C51.65,47.996,51.971,48.707,52.467,49.35z"/>
</svg>
