<?xml version="1.0" encoding="utf-8"?>
<!-- Generator: Adobe Illustrator 18.0.0, SVG Export Plug-In . SVG Version: 6.00 Build 0)  -->
<!DOCTYPE svg PUBLIC "-//W3C//DTD SVG 1.1//EN" "http://www.w3.org/Graphics/SVG/1.1/DTD/svg11.dtd">
<svg version="1.1" id="图层_1" xmlns="http://www.w3.org/2000/svg" xmlns:xlink="http://www.w3.org/1999/xlink" x="0px" y="0px"
	 viewBox="0 0 595.3 841.9" enable-background="new 0 0 595.3 841.9" xml:space="preserve">
<path fill="#5B5C5C" d="M554,652.3c-1.9-0.5-3.7-1-5.6-1.5c-16.9-4.6-28.4-20.5-27.2-37.5c1.3-18,14.6-32.3,32.2-34.6
	c20-2.6,38.5,11.6,41.4,31.7c2.8,19.3-10.7,37.6-30.3,41.1c-0.8,0.1-1.6,0.5-2.4,0.8C559.4,652.3,556.7,652.3,554,652.3z"/>
<path fill="#5B5C5C" d="M593.1,479c-6.8-38.3-25.9-69.4-56.7-93.1c-22.2-17-47.3-26.9-75.2-29.7c-5.1-0.5-10.2-0.7-15.5-1.1
	c3.5-33.9-3.4-65.3-21.2-94.2c-17.7-28.7-42.3-49.9-74-61.2c-57.9-20.6-110.6-9.9-155.2,32c-35.1,32.9-49.3,74.8-45.1,122.9
	c34.4,0.6,64.6,11.4,91.6,32.4c-32.2-39.3-15.6-86.8,9.2-106.7c27.1-21.8,70.1-24,99.5,4.4c24.3,23.5,29.9,61.1,11.8,91.3
	c-9.2,15.4-22.4,26.4-39.5,32.2c-23.5,7.9-45.7,4.6-66.6-8.5c0.5,0.9,1,1.5,1.6,2.1c13.9,14.9,24.4,31.9,31.4,51.1
	c0.8,2.2,0.8,3.7-0.9,5.6c-1.1,1.2-2.2,2.4-3.3,3.7c0.1-1.1-0.2-2.3-0.7-3.7c-10.5-27.9-28.1-50.4-51.9-68.1
	c-22.9-17-48.8-26.5-77.2-28.2c-18.9-1.1-27.3-3.4-47.4,1.3c-7.2,2.1-7.7,2.4-14.7,5.1c0.2,0.4,0.3,0.7,0.5,1.1
	c16.1-2.5,27.7,4.6,36.8,18.5c11.1,16.8,4.3,35.2-8.8,50.4c33.3-12.2,55.1-4.3,78.4,23c22.5,26.5,23.4,56.1,8.5,86.8
	c-0.5,0.6-1.1,1.2-1.6,1.8c-18.6,21.8-41.8,30.7-69.9,26.7c-30.5-4.3-55-28.4-61.2-59.4c-6-30.1,8.1-62,34.5-77.3
	c15.4-8.9,22.9-29.1,15-46.8c-9.2-20.7-32.7-27.1-48.7-19c-17.9,9.1-32.9,22.3-45.1,38.3C3.6,449-5.6,489.9,3.2,534.6
	c11.1,56.7,58.7,103.7,115.5,114.6c6.2,1.2,12.5,2.1,18.8,3.1c7.6,0,15.2,0,22.8,0c3.1-0.5,6.2-1.1,9.3-1.5
	c34.9-5.1,64.8-20.3,88.3-46.5c44.4-49.3,88.2-99.1,132.1-148.8c10-11.3,22-19.2,36.5-23.4c40-11.7,83.2,13.2,92.4,53.9
	c1.8,7.9,1.7,16.2,2.9,24.3c2.4,17.4,17.5,30.6,35.1,31.1c18.1,0.5,34-11.4,37.3-28.9C596.3,501.4,595.1,490.1,593.1,479z"/>
</svg>
