<?xml version="1.0" encoding="iso-8859-1"?>
<!-- Generator: Adobe Illustrator 18.0.0, SVG Export Plug-In . SVG Version: 6.00 Build 0)  -->
<!DOCTYPE svg PUBLIC "-//W3C//DTD SVG 1.1//EN" "http://www.w3.org/Graphics/SVG/1.1/DTD/svg11.dtd">
<svg version="1.1" id="&#x56FE;&#x5C42;_1" xmlns="http://www.w3.org/2000/svg" xmlns:xlink="http://www.w3.org/1999/xlink" x="0px"
	 y="0px" viewBox="0 0 123.698 80" style="enable-background:new 0 0 123.698 80;" xml:space="preserve">
<path style="fill:#5B5C5C;" d="M49.5,35.778c0,0,11.769-1.693,11.769-15.715c0-14.024-9.662-20.062-21.674-20.062L0,0v79.934
	l39.959,0.037c0,0,24.219-0.822,24.219-24.737C64.178,55.234,64.775,35.778,49.5,35.778z M17.491,14.285h22.104
	c0,0,5.555,0.357,5.555,8.51c0,8.153-3.34,8.621-6.925,8.621H17.491V14.285z M38.479,65.596H17.491V42.782h22.104
	c0,0,8.555,0.604,8.555,11.474C48.15,63.42,41.622,65.525,38.479,65.596z M97.258,19.938c-29.208,0-29.199,29.931-29.199,29.931
	S66.072,80,97.258,80c0,0,26.169-0.066,26.169-20.035h-13.544c0,0,0.443,7.624-12.18,7.624c0,0-13.913,1.191-13.913-13.366
	l39.672,0.018C123.463,54.241,128,19.938,97.258,19.938z M108.883,42.822H84.098c0,0,1.358-11.406,13.091-11.406
	C108.918,31.416,108.883,42.822,108.883,42.822z M111.796,5.684H79.734v8.584h32.061V5.684z"/>
</svg>
