<?xml version="1.0" encoding="iso-8859-1"?>
<!-- Generator: Adobe Illustrator 18.0.0, SVG Export Plug-In . SVG Version: 6.00 Build 0)  -->
<!DOCTYPE svg PUBLIC "-//W3C//DTD SVG 1.1//EN" "http://www.w3.org/Graphics/SVG/1.1/DTD/svg11.dtd">
<svg version="1.1" id="&#x56FE;&#x5C42;_1" xmlns="http://www.w3.org/2000/svg" xmlns:xlink="http://www.w3.org/1999/xlink" x="0px"
	 y="0px" viewBox="0 0 120.537 60.68" style="enable-background:new 0 0 120.537 60.68;" xml:space="preserve">
<path style="fill:#5B5C5C;" d="M81.975,1.562c-2.903,1.041-5.591,2.41-8.058,4.111c-2.467,1.698-4.795,3.672-6.989,5.92
	c-2.192,2.246-4.44,4.576-6.742,6.989c-2.081-2.413-4.276-4.743-6.578-6.989c-2.302-2.248-4.741-4.222-7.318-5.92
	c-2.575-1.701-5.344-3.07-8.304-4.111C35.027,0.519,31.848,0,28.449,0c-4.383,0-8.358,0.794-11.922,2.385
	c-3.561,1.588-6.549,3.782-8.962,6.578c-2.41,2.796-4.276,6.056-5.591,9.784C0.658,22.472,0,26.476,0,30.751
	c0,4.276,0.658,8.222,1.973,11.84c1.316,3.618,3.181,6.768,5.591,9.456c2.413,2.685,5.373,4.794,8.88,6.331
	c3.51,1.534,7.456,2.302,11.84,2.302c3.51,0,6.77-0.55,9.784-1.644c3.017-1.097,5.812-2.549,8.387-4.358
	c2.577-1.809,4.99-3.921,7.236-6.331c2.248-2.413,4.414-4.879,6.496-7.4c2.194,2.631,4.414,5.124,6.66,7.482
	c2.248,2.356,4.661,4.44,7.236,6.249c2.577,1.809,5.373,3.261,8.387,4.358c3.017,1.095,6.331,1.644,9.949,1.644
	c4.386,0,8.333-0.796,11.84-2.384c3.51-1.59,6.47-3.728,8.88-6.413c2.413-2.688,4.25-5.866,5.509-9.538
	c1.262-3.674,1.891-7.647,1.891-11.922c0-4.275-0.658-8.279-1.973-12.004c-1.316-3.728-3.232-6.935-5.756-9.62
	c-2.521-2.688-5.535-4.825-9.044-6.413C100.257,0.794,96.256,0,91.76,0C88.142,0,84.881,0.519,81.975,1.562z M101.462,20.391
	c2.302,2.521,3.453,5.756,3.453,9.702c0,3.618-1.123,6.878-3.371,9.784c-2.246,2.903-5.288,4.358-9.127,4.358
	c-2.081,0-4.165-0.468-6.249-1.398c-2.081-0.933-4.083-2.112-6.002-3.535c-1.917-1.426-3.754-2.988-5.509-4.687
	c-1.752-1.701-3.289-3.263-4.604-4.687c1.316-1.537,2.796-3.099,4.44-4.687c1.645-1.591,3.399-3.017,5.262-4.276
	c1.865-1.262,3.839-2.302,5.92-3.124c2.084-0.822,4.168-1.233,6.249-1.233C95.981,16.609,99.16,17.868,101.462,20.391z
	 M34.615,17.76c2.03,0.766,3.975,1.781,5.838,3.042c1.865,1.259,3.618,2.685,5.262,4.275c1.644,1.588,3.181,3.207,4.604,4.851
	c-1.316,1.424-2.796,2.986-4.44,4.687c-1.644,1.698-3.371,3.261-5.18,4.687c-1.809,1.424-3.726,2.603-5.755,3.535
	c-2.027,0.93-4.137,1.398-6.331,1.398c-4.055,0-7.261-1.372-9.62-4.111c-2.356-2.742-3.536-6.03-3.536-9.867
	c0-3.839,1.097-7.071,3.289-9.702c2.194-2.631,5.319-3.947,9.373-3.947C30.422,16.609,32.588,16.992,34.615,17.76z"/>
</svg>
