<?xml version="1.0" encoding="utf-8"?>
<!-- Generator: Adobe Illustrator 18.0.0, SVG Export Plug-In . SVG Version: 6.00 Build 0)  -->
<!DOCTYPE svg PUBLIC "-//W3C//DTD SVG 1.1//EN" "http://www.w3.org/Graphics/SVG/1.1/DTD/svg11.dtd">
<svg version="1.1" id="图层_1" xmlns="http://www.w3.org/2000/svg" xmlns:xlink="http://www.w3.org/1999/xlink" x="0px" y="0px"
	 viewBox="0 0 595.3 841.9" enable-background="new 0 0 595.3 841.9" xml:space="preserve">
<path fill="#5B5C5C" d="M573.7,292.7c-28.4-35.3-66.7-70.5-125.5-70.5c-41.2,0-75.5,40.1-132.4,40.1c-45.1,0-63.8-38.2-112.8-38.2
	c-102,0-203,91.1-203,209.5c0,62.6,20.6,159.6,66.7,243.8c33.3,61.7,74.5,101.8,120.6,101.8c33.3,0,72.5-30.4,119.6-30.4
	c41.2,0,79.4,27.4,116.7,27.4c89.2,0,171.6-115.5,171.6-192.9c0-3.9-1-6.9-1-9.8v-4.9c-57.8-31.4-89.2-77.4-89.2-143.9
	c0-53.9,23.5-100.9,66.7-131.2L573.7,292.7L573.7,292.7z"/>
<path fill="#5B5C5C" d="M313.7,249.6c66.7-20.6,128.5-70.5,128.5-157.6c0-6.8-1-15.7-2-25.5l-1-3.9
	c-67.7,18.6-128.5,71.5-128.5,154.7c0,7.8,1,17.6,2.9,28.4L313.7,249.6L313.7,249.6z"/>
</svg>
