<?xml version="1.0" encoding="iso-8859-1"?>
<!-- Generator: Adobe Illustrator 18.0.0, SVG Export Plug-In . SVG Version: 6.00 Build 0)  -->
<!DOCTYPE svg PUBLIC "-//W3C//DTD SVG 1.1//EN" "http://www.w3.org/Graphics/SVG/1.1/DTD/svg11.dtd">
<svg version="1.1" id="&#x56FE;&#x5C42;_1" xmlns="http://www.w3.org/2000/svg" xmlns:xlink="http://www.w3.org/1999/xlink" x="0px"
	 y="0px" viewBox="0 0 123.999 124.027" style="enable-background:new 0 0 123.999 124.027;" xml:space="preserve">
<path style="fill:#5B5C5C;" d="M123.633,51.512l-1.045-2.154l-1.748-1.369c-2.286-1.78-13.845,0.117-16.958-2.706
	c-2.212-2.022-2.551-5.669-3.218-10.598c-1.24-9.579-2.033-10.077-3.527-13.311C91.691,9.859,76.925,1.197,66.775,0H39.296
	C17.672,0,0,17.642,0,39.196v45.712c0,21.507,17.672,39.118,39.296,39.118h45.151c21.623,0,39.186-17.611,39.307-39.118
	l0.246-31.662L123.633,51.512z M39.795,32.019h21.792c4.158,0,7.525,3.367,7.525,7.48c0,4.09-3.367,7.495-7.525,7.495H39.795
	c-4.159,0-7.525-3.405-7.525-7.495C32.27,35.386,35.636,32.019,39.795,32.019z M84.072,91.79H39.795
	c-4.159,0-7.525-3.406-7.525-7.465c0-4.106,3.367-7.449,7.525-7.449h44.277c4.131,0,7.486,3.343,7.486,7.449
	C91.558,88.384,88.203,91.79,84.072,91.79z"/>
</svg>
