<?xml version="1.0" encoding="iso-8859-1"?>
<!-- Generator: Adobe Illustrator 18.0.0, SVG Export Plug-In . SVG Version: 6.00 Build 0)  -->
<!DOCTYPE svg PUBLIC "-//W3C//DTD SVG 1.1//EN" "http://www.w3.org/Graphics/SVG/1.1/DTD/svg11.dtd">
<svg version="1.1" id="&#x56FE;&#x5C42;_1" xmlns="http://www.w3.org/2000/svg" xmlns:xlink="http://www.w3.org/1999/xlink" x="0px"
	 y="0px" viewBox="0 0 124.346 111.561" style="enable-background:new 0 0 124.346 111.561;" xml:space="preserve">
<path style="fill:#5B5C5C;" d="M124.346,4.255c-1.049,7.928-1.979,14.95-3.15,23.802c-13.743-2.171-27.411-4.181-41.155-3.015
	c-12.579,1.068-24.775,3.506-33.678,13.399c-16.344,18.161-7.451,43.193,17.241,47.66c15.374,2.781,30.932,1.284,46.351-0.885
	c-0.594,12.25-0.628,10.383-1.163,22.359c-0.117,2.621,0.466,1.592-17.611,3.477c-19.175,0.981-38.336,1.219-56.712-5.762
	C17.055,98.675,3.342,88.155,0.564,68.725c-2.86-20.002,5.317-36.148,20.974-48.604C45.035,1.427,86.155-5.15,124.346,4.255z"/>
</svg>
