<?xml version="1.0" encoding="utf-8"?>
<!-- Generator: Adobe Illustrator 18.0.0, SVG Export Plug-In . SVG Version: 6.00 Build 0)  -->
<!DOCTYPE svg PUBLIC "-//W3C//DTD SVG 1.1//EN" "http://www.w3.org/Graphics/SVG/1.1/DTD/svg11.dtd">
<svg version="1.1" id="图层_1" xmlns="http://www.w3.org/2000/svg" xmlns:xlink="http://www.w3.org/1999/xlink" x="0px" y="0px"
	 viewBox="0 0 595.3 841.9" enable-background="new 0 0 595.3 841.9" xml:space="preserve">
<path fill="#5B5C5C" d="M191.9,256c0-19.8-12.2-44.9-63-44.9c-20.9,0-78.4,0-78.4,0l-22.1,103c0,0,42.3,0,81.5,0
	C173.7,314.2,191.9,284,191.9,256L191.9,256z"/>
<path fill="#5B5C5C" d="M402.8,256c0-19.8-12.1-44.9-63-44.9c-20.8,0-78.3,0-78.3,0l-22.2,103c0,0,42.2,0,81.6,0
	C384.7,314.2,402.8,284,402.8,256L402.8,256z"/>
<path fill="#5B5C5C" d="M163.6,411.1c0-19.9-12.1-44.8-63-44.8c-20.8,0-78.3,0-78.3,0L0,469.2c0,0,42.3,0,81.7,0
	C145.4,469.2,163.6,439,163.6,411.1L163.6,411.1z"/>
<path fill="#5B5C5C" d="M374.5,411.1c0-19.9-12.1-44.8-62.9-44.8c-21,0-78.4,0-78.4,0L211,469.2c0,0,42.3,0,81.5,0
	C356.4,469.2,374.5,439,374.5,411.1L374.5,411.1z"/>
<path fill="#5B5C5C" d="M595.3,348.2c0-19.8-12.1-44.9-62.9-44.9c-21,0-78.4,0-78.4,0l-22.3,103.1c0,0,42.3,0,81.6,0
	C577.1,406.4,595.3,376.2,595.3,348.2L595.3,348.2z"/>
<path fill="#5B5C5C" d="M564.9,509.7c0-19.8-12.1-44.9-63-44.9c-20.8,0-78.3,0-78.3,0l-22.2,103c0,0,42.3,0,81.6,0
	C546.7,567.8,564.9,537.7,564.9,509.7L564.9,509.7z"/>
<path fill="#5B5C5C" d="M344.2,572.5c0-19.8-12-44.9-62.9-44.9c-20.9,0-78.4,0-78.4,0l-22.2,103.1c0,0,42.4,0,81.7,0
	C326.1,630.8,344.2,600.6,344.2,572.5L344.2,572.5z"/>
</svg>
