<?xml version="1.0" encoding="utf-8"?>
<!-- Generator: Adobe Illustrator 18.0.0, SVG Export Plug-In . SVG Version: 6.00 Build 0)  -->
<!DOCTYPE svg PUBLIC "-//W3C//DTD SVG 1.1//EN" "http://www.w3.org/Graphics/SVG/1.1/DTD/svg11.dtd">
<svg version="1.1" id="图层_1" xmlns="http://www.w3.org/2000/svg" xmlns:xlink="http://www.w3.org/1999/xlink" x="0px" y="0px"
	 viewBox="0 0 595.3 841.9" enable-background="new 0 0 595.3 841.9" xml:space="preserve">
<path fill="#5B5C5C" d="M181,447.2c5.4,0,9.7,5.2,9.7,11.7c0,6.5-4.3,11.7-9.7,11.7c-5.4,0-9.7-5.2-9.7-11.7
	C171.3,452.4,175.6,447.2,181,447.2z"/>
<path fill="#5B5C5C" d="M411.4,447.2c5.4,0,9.7,5.2,9.7,11.7c0,6.5-4.3,11.7-9.7,11.7c-5.4,0-9.7-5.2-9.7-11.7
	C401.7,452.4,406,447.2,411.4,447.2z"/>
<path fill="#5B5C5C" d="M551,383.7c-15.9,0-29.9,10.1-37.7,25.3c-26.5-57.8-81.7-111.3-149.9-133.4c-36.8-14.7-62.6-43.1-65.8-76.1
	c-3.2,33.1-29,61.4-65.8,76.1c-68.2,22-123.4,75.6-149.9,133.4c-7.8-15.2-21.7-25.3-37.7-25.3C19.8,383.7,0,407.6,0,437.1
	c0,29.5,19.8,53.4,44.2,53.4c7.4,0,14.4-2.2,20.6-6.1c2.1,95.7,105.5,157.8,232.8,158c127.3-0.2,230.7-62.3,232.8-158
	c6.1,3.9,13.2,6.1,20.6,6.1c24.4,0,44.2-23.9,44.2-53.4C595.3,407.6,575.5,383.7,551,383.7z M64.4,453.8c-2.1,7.7-11.3,11-20.6,7.3
	c-9.3-3.6-15.2-12.8-13.1-20.5c2.1-7.7,11.3-11,20.6-7.3C60.6,436.9,66.4,446.1,64.4,453.8z M297.6,615.7
	c-102.1-0.2-184.8-48.5-184.8-117.7c0-1.5,0.1-2.9,0.1-4.3c0-0.5,0-0.9,0.1-1.4c0.1-1,0.2-2,0.2-2.9c0.1-1.3,0.3-2.6,0.5-3.9
	c0-0.1,0-0.3,0.1-0.4c2.1-13.6,7.3-34.4,15.3-46.3c19.1-27.8,53.2-46.2,92-46.2c29.9,0,57,11,76.6,28.7
	c19.6-17.7,46.6-28.7,76.6-28.7c38.9,0,72.9,18.5,92,46.2c8,12,13.2,32.7,15.3,46.3c0,0.1,0,0.3,0.1,0.4c0.2,1.3,0.3,2.6,0.5,3.9
	c0.1,1,0.2,1.9,0.2,2.9c0,0.5,0.1,0.9,0.1,1.4c0.1,1.4,0.1,2.9,0.1,4.3C482.5,567.2,399.8,615.5,297.6,615.7z M551.5,461.1
	c-9.3,3.6-18.5,0.4-20.6-7.3c-2.1-7.7,3.8-16.9,13.1-20.5c9.3-3.6,18.5-0.4,20.6,7.3C566.6,448.2,560.8,457.4,551.5,461.1z"/>
</svg>
