<?xml version="1.0" encoding="utf-8"?>
<!-- Generator: Adobe Illustrator 18.0.0, SVG Export Plug-In . SVG Version: 6.00 Build 0)  -->
<!DOCTYPE svg PUBLIC "-//W3C//DTD SVG 1.1//EN" "http://www.w3.org/Graphics/SVG/1.1/DTD/svg11.dtd">
<svg version="1.1" id="图层_1" xmlns="http://www.w3.org/2000/svg" xmlns:xlink="http://www.w3.org/1999/xlink" x="0px" y="0px"
	 viewBox="0 0 595.3 841.9" enable-background="new 0 0 595.3 841.9" xml:space="preserve">
<path fill="#5B5C5C" d="M307.3,356.6c-42.5,0-79.5,23.8-98.1,58.9c-18.6-35-55.6-58.9-98.1-58.9c-25,0-48,8.2-66.7,22.2v-93.3
	c-0.2-12.1-10.1-21.7-22.2-21.7S0.3,273.3,0,285.4v183.8h0c1,60.3,50.3,109,111,109c42.5,0,79.5-23.9,98.1-58.9
	c18.6,35,55.6,58.9,98.1,58.9c61.3,0,111.1-49.6,111.1-110.8C418.3,406.2,368.6,356.6,307.3,356.6 M111,533.8
	c-36.8,0-66.7-29.7-66.7-66.4c0-36.7,29.9-66.4,66.7-66.4c36.8,0,66.6,29.7,66.6,66.4C177.6,504.1,147.8,533.8,111,533.8
	 M307.3,533.8c-36.8,0-66.6-29.7-66.6-66.5c0-36.7,29.8-66.4,66.6-66.4c36.8,0,66.6,29.7,66.6,66.4
	C373.9,504.1,344.1,533.8,307.3,533.8"/>
<path fill="#5B5C5C" d="M590.7,541.1l-60.4-73.9l60.4-74c7.6-9.8,5.4-23.4-5.1-30.6c-10.6-7.3-25.4-5.4-33.6,4v0l-52,63.6l-52-63.6
	v0c-8.1-9.5-23-11.3-33.5-4c-10.5,7.3-12.7,20.9-5.1,30.6h0l60.3,74l-60.3,73.9h0c-7.7,9.8-5.5,23.4,5.1,30.7
	c10.5,7.3,25.4,5.4,33.5-4.1l52-63.5l51.9,63.5c8.2,9.5,23,11.3,33.6,4.1C596.1,564.5,598.3,550.9,590.7,541.1"/>
</svg>
