<?xml version="1.0" encoding="utf-8"?>
<!-- Generator: Adobe Illustrator 18.0.0, SVG Export Plug-In . SVG Version: 6.00 Build 0)  -->
<!DOCTYPE svg PUBLIC "-//W3C//DTD SVG 1.1//EN" "http://www.w3.org/Graphics/SVG/1.1/DTD/svg11.dtd">
<svg version="1.1" id="图层_1" xmlns="http://www.w3.org/2000/svg" xmlns:xlink="http://www.w3.org/1999/xlink" x="0px" y="0px"
	 viewBox="0 0 595.3 841.9" enable-background="new 0 0 595.3 841.9" xml:space="preserve">
<path fill="#5B5C5C" d="M221.6,254.3c-14.4-7.8-28.8-15.6-43.2-23.5c-23.9-13-47.8-26-71.7-39c-9.7-5.3-13.7-13.4-8.2-23.4
	c5.5-10.1,14.7-10.8,24.2-5.6c56,30.5,112.1,60.9,168,91.8c14.3,7.9,40.1,3.2,49.2-10.2c28.6-41.5,57.1-83,85.6-124.6
	c1-1.5,2-3,3-4.4c8.1-11.3,17.4-14.3,25.8-7.7c9.7,7.7,8.1,16.8,1.8,26c-11.6,16.9-23.2,33.9-34.7,50.8c-16,23.5-32,47-49.9,73.1
	c7.3,0,12,0,16.6,0c61.6,0,123.3,0,184.9,0c18.8,0,21.7,3,21.8,21.8c0.2,128.9,0.3,257.7,0.5,386.6c0,18.4-3.3,21.6-22.1,21.7
	c-4.9,0-9.9,0.5-14.7-0.1c-17.8-2-30.8-0.3-37,21.7c-5.6,19.8-26.7,29.9-45.7,27.9c-22-2.3-36.5-15.3-42.1-35.8
	c-3.4-12.4-9.2-14.1-20.4-14c-77.3,0.5-154.5,0.3-231.8,0.1c-8.9,0-14.1,0.8-16.7,11.6c-5.6,23.2-24.7,37.9-45.8,38.3
	c-21.9,0.4-40.9-13.9-47.3-38c-2.7-10.1-7.2-12.4-16.5-11.9c-12,0.7-24.1,0.3-36.2,0.1c-13.2-0.3-19-5.7-19-18.6
	C0.1,538,0.3,406.9,0.6,275.8c0-13.6,5.5-18.1,20.6-18.1c62.1-0.1,124.2,0,186.2,0c4.3,0,8.7,0,13,0
	C220.8,256.6,221.2,255.5,221.6,254.3z M564.9,657.4c0-124.2,0-247,0-370.4c-178.4,0-355.8,0-533.1,0c0,124,0,247.1,0,370.4
	C210,657.4,386.7,657.4,564.9,657.4z M136.6,688.6c-12.9,0-24.2,0-36.7,0c2.5,10.5,7.6,17.9,17.4,18.5
	C128.2,707.9,133.4,699.8,136.6,688.6z M460.9,688.5c3.7,11.2,8.7,19.4,19.7,18.6c9.9-0.7,14.5-8.4,17.5-18.6
	C485.3,688.5,474,688.5,460.9,688.5z"/>
<path fill="#5B5C5C" d="M298.8,631.9c-71.4,0-142.9,0-214.3,0c-20.8,0-24.1-3.3-24.1-24.1c0.1-89.6,0.2-179.2,0.4-268.9
	c0-18.9,3.9-22.8,22.7-22.8c143.3,0,286.7,0,430,0c19.1,0,23,3.8,23.1,22.5c0.3,90.1,0.5,180.1,0.6,270.2c0,19.3-4,23-23.9,23.1
	C441.7,631.9,370.2,631.9,298.8,631.9z M504.9,600.2c0-85.2,0-168.7,0-252.1c-138.3,0-275.5,0-412.6,0c0,84.7,0,168.2,0,252.1
	C230.3,600.2,367.2,600.2,504.9,600.2z"/>
<path fill="#5B5C5C" d="M300.7,555.5c-5.5,3.9-10.6,8.3-16.4,11.4c-19.1,10.1-38.1,9.2-55.7-3.1c-19.4-13.6-28-33.5-26.3-56.7
	c0.4-5,9.6-12.9,14.9-13.1c5.2-0.2,11.8,7,15.6,12.5c3,4.4,1.7,11.4,3.8,16.7c4,10.1,11.4,19.7,22.5,17.3c8.2-1.7,15.6-10,21.7-16.8
	c3-3.4,2.5-10.1,3.3-15.3c1.4-9.9,7.1-15.9,16.8-15.7c8.8,0.2,14.5,5.6,15.7,15.2c0.7,6.1,0.9,13.7,4.5,17.7
	c5.8,6.5,14,14.3,21.5,14.6c6.7,0.2,14.9-8,20.2-14.4c3.5-4.2,3.3-11.7,4.4-17.8c1.8-9.7,7.3-15.6,17.3-14.9
	c9.9,0.8,15.1,7.2,14.7,17.3c-1,25.5-11,46.2-34.6,57.6c-22,10.6-42.6,6.1-60.6-10.3C303,557,301.9,556.4,300.7,555.5z"/>
<path fill="#5B5C5C" d="M476.7,460.1c0.3,15.1-12,23.4-23.4,16.9c-30.5-17.4-60.5-35.7-90.4-54.1c-7.9-4.9-9.6-12.9-5-21
	c4.7-8.3,13-10.5,20.7-6.1c30.8,17.8,61.3,36.1,91.6,54.8C473.7,452.9,475.4,458.2,476.7,460.1z"/>
<path fill="#5B5C5C" d="M216.4,402c2.8,2.8,10,6.7,10.8,11.5c0.9,5.7-2.1,15.6-6.5,17.8c-26.5,13.6-53.7,25.8-81,37.9
	c-8.3,3.7-17.4,0.9-19.5-8.1c-1.4-5.9,1.1-17,5.3-19.2c27.3-14,55.5-26.1,83.4-38.8C210.1,402.6,211.5,402.7,216.4,402z"/>
</svg>
