<?xml version="1.0" encoding="iso-8859-1"?>
<!-- Generator: Adobe Illustrator 18.0.0, SVG Export Plug-In . SVG Version: 6.00 Build 0)  -->
<!DOCTYPE svg PUBLIC "-//W3C//DTD SVG 1.1//EN" "http://www.w3.org/Graphics/SVG/1.1/DTD/svg11.dtd">
<svg version="1.1" id="&#x56FE;&#x5C42;_1" xmlns="http://www.w3.org/2000/svg" xmlns:xlink="http://www.w3.org/1999/xlink" x="0px"
	 y="0px" viewBox="0 0 122.215 122.215" style="enable-background:new 0 0 122.215 122.215;" xml:space="preserve">
<path style="fill:none;" d="M61.108,0C27.358,0,0,27.358,0,61.108s27.358,61.107,61.108,61.107
	c33.749,0,61.107-27.357,61.107-61.107S94.857,0,61.108,0z M61.108,112.18c-28.161,0-51.072-22.911-51.072-51.072
	s22.91-51.072,51.072-51.072c28.16,0,51.071,22.911,51.071,51.072S89.269,112.18,61.108,112.18z"/>
<path style="fill:#5B5C5C;" d="M98.863,49.173c-0.007-0.048-0.019-0.093-0.027-0.141c-0.016-0.091-0.033-0.183-0.057-0.272
	c-0.014-0.054-0.034-0.105-0.051-0.157c-0.026-0.079-0.052-0.159-0.083-0.236c-0.022-0.054-0.048-0.107-0.073-0.159
	c-0.034-0.074-0.07-0.145-0.11-0.215c-0.03-0.052-0.062-0.102-0.092-0.151c-0.044-0.068-0.088-0.133-0.137-0.197
	c-0.036-0.048-0.073-0.095-0.111-0.141c-0.052-0.059-0.105-0.119-0.162-0.175c-0.042-0.044-0.084-0.087-0.129-0.127
	c-0.06-0.054-0.121-0.105-0.184-0.155c-0.049-0.038-0.096-0.076-0.147-0.111c-0.019-0.012-0.036-0.028-0.054-0.04L62.909,23.87
	c-1.091-0.727-2.511-0.727-3.602,0L24.77,46.895c-0.018,0.012-0.035,0.028-0.054,0.04c-0.051,0.036-0.098,0.073-0.146,0.111
	c-0.064,0.05-0.125,0.101-0.184,0.155c-0.046,0.04-0.088,0.083-0.13,0.127c-0.056,0.056-0.11,0.115-0.161,0.175
	c-0.039,0.046-0.076,0.094-0.112,0.141c-0.048,0.064-0.094,0.129-0.136,0.197c-0.033,0.05-0.064,0.099-0.093,0.151
	c-0.04,0.069-0.076,0.141-0.11,0.215c-0.025,0.052-0.051,0.105-0.072,0.159c-0.032,0.077-0.058,0.157-0.083,0.236
	c-0.017,0.052-0.036,0.103-0.051,0.157c-0.024,0.089-0.04,0.181-0.057,0.272c-0.008,0.048-0.02,0.093-0.026,0.141
	c-0.019,0.139-0.03,0.28-0.03,0.423V72.62c0,0.143,0.011,0.284,0.03,0.425c0.006,0.046,0.018,0.093,0.026,0.139
	c0.017,0.092,0.033,0.183,0.057,0.272c0.015,0.054,0.034,0.105,0.051,0.157c0.026,0.079,0.052,0.159,0.083,0.238
	c0.022,0.054,0.048,0.106,0.072,0.157c0.035,0.073,0.071,0.145,0.11,0.216c0.03,0.05,0.061,0.099,0.093,0.149
	c0.043,0.068,0.088,0.133,0.136,0.197c0.036,0.05,0.074,0.095,0.112,0.141c0.051,0.06,0.104,0.119,0.161,0.175
	c0.043,0.044,0.085,0.087,0.13,0.127c0.058,0.054,0.12,0.106,0.184,0.155c0.048,0.038,0.095,0.076,0.146,0.111
	c0.019,0.012,0.036,0.028,0.054,0.04l34.537,23.025c0.546,0.364,1.174,0.547,1.802,0.547c0.627,0,1.255-0.183,1.801-0.547
	l34.537-23.025c0.018-0.012,0.035-0.028,0.054-0.04c0.051-0.036,0.098-0.073,0.147-0.111c0.063-0.05,0.124-0.101,0.184-0.155
	c0.045-0.04,0.087-0.083,0.129-0.127c0.057-0.056,0.11-0.116,0.162-0.175c0.038-0.046,0.076-0.091,0.111-0.141
	c0.049-0.064,0.094-0.129,0.137-0.197c0.031-0.05,0.063-0.099,0.092-0.149c0.041-0.072,0.076-0.143,0.11-0.216
	c0.025-0.052,0.05-0.103,0.073-0.157c0.032-0.079,0.057-0.159,0.083-0.238c0.017-0.052,0.037-0.103,0.051-0.157
	c0.024-0.09,0.041-0.181,0.057-0.272c0.008-0.046,0.02-0.093,0.027-0.139c0.018-0.141,0.029-0.282,0.029-0.425V49.596
	C98.892,49.453,98.881,49.312,98.863,49.173z M64.355,32.64L89.797,49.6l-11.364,7.603l-14.078-9.417V32.64z M57.86,32.64v15.146
	l-14.077,9.417L32.418,49.6L57.86,32.64z M29.818,55.674l8.124,5.434l-8.124,5.434V55.674z M57.86,89.577l-25.442-16.96l11.365-7.6
	l14.077,9.415V89.577z M61.108,68.79l-11.485-7.682l11.485-7.682l11.484,7.682L61.108,68.79z M64.355,89.577V74.431l14.078-9.415
	l11.364,7.6L64.355,89.577z M92.397,66.542l-8.123-5.434l8.123-5.434V66.542z"/>
</svg>
