<?xml version="1.0" encoding="utf-8"?>
<!-- Generator: Adobe Illustrator 18.0.0, SVG Export Plug-In . SVG Version: 6.00 Build 0)  -->
<!DOCTYPE svg PUBLIC "-//W3C//DTD SVG 1.1//EN" "http://www.w3.org/Graphics/SVG/1.1/DTD/svg11.dtd">
<svg version="1.1" id="图层_1" xmlns="http://www.w3.org/2000/svg" xmlns:xlink="http://www.w3.org/1999/xlink" x="0px" y="0px"
	 viewBox="0 0 595.3 841.9" enable-background="new 0 0 595.3 841.9" xml:space="preserve">
<path fill="#5B5C5C" d="M111,491.4c11.3-0.5,21.8-1.2,32.2-1.4c45.1-0.8,89.4,4.6,131.5,21.6c20.6,8.3,40.5,17.9,58.4,31.4
	c14.7,11.1,17.9,24.9,11.2,45.3c-4.2,12.6-12.6,22.1-23.2,30.4c-25,19.5-51.2,37.1-81.3,47c-21.1,7-43,12.3-65,15.7
	c-28.9,4.5-58.2,6.5-87.4,9.2c-6,0.6-12.1-0.2-18.1-0.2c-3.1,0-3.9-1.6-4-4.3c-0.8-13.3-1.4-26.7-2.6-40
	c-1.5-17.2-3.2-34.4-5.2-51.5c-2.7-23.9-5.7-47.7-8.7-71.5c-3.1-25.1-6.3-50.1-9.3-75.2c-3-24.5-5.7-49.1-8.9-73.6
	c-3.6-28-7.6-56-11.4-84c-4.5-33.1-10.7-65.9-19.2-98.2c-0.4-1.4,0.8-4.5,2-4.9c28.3-11.4,56.7-22.5,85-33.8
	c9.4-3.8,10.2-4.9,10.3,7c0.1,50.7,0.3,101.4,1.1,152.1c0.4,26.4,1.4,52.8,3.2,79.1c2.2,32.1,5.6,64.2,8.5,96.3
	C110.1,489.3,110.7,490.6,111,491.4z M167.5,638.6c26.2-19.8,51.8-39.2,77.5-58.7c-3.2-4.6-73.8-32.3-90.4-36
	C158.8,575.2,163.1,606.4,167.5,638.6z"/>
<path fill="#5B5C5C" d="M460.4,628.6c-13.5-136.5-24.9-274.5-51-411.7c8.5-1,17-2.2,25.6-2.9c9.9-0.9,19.9-1.3,29.8-2.1
	c8.3-0.7,11.4,1.5,11.9,9.6c1.5,21.7,2.8,43.4,4.3,65.1c2,29.3,4.1,58.7,6.2,88c1.5,21.1,2.8,42.3,4.5,63.4
	c1.9,23.1,4,46.1,6.1,69.2c1.5,17,2.9,34.1,4.6,51.1c1.8,18.4,3.8,36.8,5.7,55.2c0.5,5.3,1.1,10.6,1.5,15.9c0.2,2.9-1.4,3.3-4.1,3
	C490.8,630.9,476.1,629.8,460.4,628.6z"/>
<path fill="#5B5C5C" d="M338,430.9c11.9-1.7,23.4-3.6,34.9-4.9c8.3-1,16.7-1.1,25-1.9c4.5-0.4,7.4,1.2,8.1,5.6
	c1.9,11.7,3.9,23.5,5.3,35.3c2.3,19.6,4.1,39.3,6.2,58.9c1.8,17.2,3.6,34.3,5.6,51.5c2.2,18.4,4.6,36.7,6.9,55
	c0.7,5.4,1.2,10.9,1.9,16.8c-16.8,2.1-33.2,4.2-50.5,6.5C367,579.5,352.6,505.9,338,430.9z"/>
<path fill="#5B5C5C" d="M595.3,659.5c-16.2,0-31.8,0.1-47.4-0.2c-1.3,0-3.6-2.3-3.7-3.7c-2.4-25-4.5-49.9-6.7-74.9
	c-2.1-23.2-4.2-46.4-6.3-69.6c-2.2-23.9-4.3-47.8-6.5-71.7c-0.1-1.4-0.4-2.7-0.7-4.8c5.8-0.7,11.3-1.8,16.9-1.8
	c15.1,0,30.2,0.4,45.4,0.8c3.9,0.1,5.6,2.7,5.8,6.3c0.5,7.5,1.2,14.9,1.2,22.4c0.1,35.2-0.1,70.5,0.2,105.7
	c0.3,28.1,1.2,56.3,1.8,84.4C595.3,654.1,595.3,655.8,595.3,659.5z"/>
<path fill="#5B5C5C" d="M371.3,399.1c-3.6-28.8-7.2-56.9-10.9-86.2c9.4-0.1,18.8-0.4,28.1-0.4c3.1,0,4.5,1.7,4.8,5.1
	c2.5,26.2,5.1,52.4,7.8,79.6C391.4,397.7,381.4,398.4,371.3,399.1z"/>
<path fill="#5B5C5C" d="M559.7,321.1c8,0,16.5-0.1,25.1,0c4.3,0.1,6.4,1.8,6.4,6.9c-0.3,24.4-0.1,48.8-0.1,73.1c0,1.6,0,3.1,0,5.5
	c-10.3-0.5-20.2-1-31.3-1.5C559.7,377.4,559.7,349.6,559.7,321.1z"/>
<path fill="#5B5C5C" d="M335.7,404.9c-5-27.9-10.1-55.6-15.2-84c9.1-1.4,18.2-2.9,27.2-4c4-0.5,3.3,3,3.5,5.2
	c1.1,9.4,1.9,18.7,2.9,28.1c1.6,14.7,3.2,29.4,4.7,44c0.2,1.9,0,3.9,0,6C351.2,401.8,343.6,403.3,335.7,404.9z"/>
<path fill="#5B5C5C" d="M518.3,321.4c8.5,0,17,0.1,25.4-0.1c3.8-0.1,5.2,0.7,5.1,5.1c-0.3,11.7,0.1,23.4,0.2,35.2
	c0.1,14.5,0,29.1,0,43.5c-8.6,0.9-16.1,1.6-24.2,2.5C522.7,379.3,520.5,351.1,518.3,321.4z"/>
</svg>
