<?xml version="1.0" encoding="iso-8859-1"?>
<!-- Generator: Adobe Illustrator 18.0.0, SVG Export Plug-In . SVG Version: 6.00 Build 0)  -->
<!DOCTYPE svg PUBLIC "-//W3C//DTD SVG 1.1//EN" "http://www.w3.org/Graphics/SVG/1.1/DTD/svg11.dtd">
<svg version="1.1" id="&#x56FE;&#x5C42;_1" xmlns="http://www.w3.org/2000/svg" xmlns:xlink="http://www.w3.org/1999/xlink" x="0px"
	 y="0px" viewBox="0 0 125.014 70" style="enable-background:new 0 0 125.014 70;" xml:space="preserve">
<path style="fill:#5B5C5C;" d="M72.139,24.184c-5.28-0.988-11.291-1.289-17.687-0.208l13.261,27.324l57.301-16.732
	c0,0-20.782-33.081-82.764-22.387c-0.366,0.053-0.684,0.141-1.044,0.208L35.19,0L17.352,2.055l7.273,15.08
	C-12.986,32.878,3.678,70,3.678,70l57.385-16.751l-15.77-32.446c28.299-8.243,51.933,8.611,51.933,8.611l-19.48,5.335L72.139,24.184
	z M19.204,50.768c0,0-5.528-12.376,10.56-22.978l8.557,17.75L19.204,50.768z"/>
</svg>
