<?xml version="1.0" encoding="utf-8"?>
<!-- Generator: Adobe Illustrator 18.0.0, SVG Export Plug-In . SVG Version: 6.00 Build 0)  -->
<!DOCTYPE svg PUBLIC "-//W3C//DTD SVG 1.1//EN" "http://www.w3.org/Graphics/SVG/1.1/DTD/svg11.dtd">
<svg version="1.1" id="图层_1" xmlns="http://www.w3.org/2000/svg" xmlns:xlink="http://www.w3.org/1999/xlink" x="0px" y="0px"
	 viewBox="0 0 595.3 841.9" enable-background="new 0 0 595.3 841.9" xml:space="preserve">
<path fill="#5B5C5C" d="M223.9,146.1c4.3,1.6,8.6,3,12.8,4.7c18.2,7.7,29.5,24,29.5,43.7c-0.1,149.7,0,300.4,0,450.1
	c0,27.4-22.1,51-49.3,51c-26.6,0-47.2-17.5-51.4-43.8c-0.3-1.9-0.9-5.3-0.9-7.2c0-150.4,0-299.7,0-450.1c0-21.9,18-42.2,40.6-47
	c1-0.2,1.9-0.9,2.8-1.4C213.3,146.1,218.6,146.1,223.9,146.1z"/>
<path fill="#5B5C5C" d="M595.2,515.4c0,43.8,0,87.6,0,131.4c0,25.8-23.1,48.3-48.8,49c-25.9,0.8-48.5-18.1-52.3-42.9
	c-0.3-1.7-0.4-3.5-0.4-5.3c0-88.3-0.1-176.6-0.1-264.9c0-21.5,18-42.5,40.1-46.9c30-5.9,57,13.2,61.4,43.4c0.2,1.3,0.2,2.7,0.2,4
	C595.3,427.2,595.3,471.3,595.2,515.4C595.3,515.4,595.2,515.4,595.2,515.4z"/>
<path fill="#5B5C5C" d="M101.5,552.2c0,31.1,0,62.1,0,93.2c0,25.6-20.3,48-45.3,50.2C29.4,697.9,5.7,680.5,1,654.9
	c-0.6-3-0.9-6.1-0.9-9.2C0,583.2,0,520.8,0,458.3c0-23.8,16-44.2,39-49.6c27.2-6.3,54.3,10.1,61.1,37.1c0.8,3.3,1.4,6.7,1.4,10
	C101.6,488,101.6,520.1,101.5,552.2C101.6,552.2,101.5,552.2,101.5,552.2z"/>
<path fill="#5B5C5C" d="M328.5,531.7c0-23.2,17.9-44.6,40.7-48.6c30-5.2,55.6,12.9,60.6,42.9c0.2,1.4,0.9,5.8,0.9,7.3
	c0,19.5,0,92.4,0,111.3c0,27.1-23.4,51-50.4,51c-26.6,0-46.9-17.1-51.4-43.3C328.6,650.3,328.6,569.9,328.5,531.7z"/>
</svg>
