<?xml version="1.0" encoding="utf-8"?>
<!-- Generator: Adobe Illustrator 18.0.0, SVG Export Plug-In . SVG Version: 6.00 Build 0)  -->
<!DOCTYPE svg PUBLIC "-//W3C//DTD SVG 1.1//EN" "http://www.w3.org/Graphics/SVG/1.1/DTD/svg11.dtd">
<svg version="1.1" id="图层_1" xmlns="http://www.w3.org/2000/svg" xmlns:xlink="http://www.w3.org/1999/xlink" x="0px" y="0px"
	 viewBox="0 0 595.3 841.9" enable-background="new 0 0 595.3 841.9" xml:space="preserve">
<path fill="#5B5C5C" d="M30.8,429.6c1.1-5.6,3.9-10.1,8-14.1c7-6.9,13.9-14,20.8-21.1c1.4-1.3,2.9-2.5,4.2-3.8
	c47.2-47.2,94.4-94.4,141.5-141.6c10.6-10.6,20.7-21.8,31.5-32.3C307.5,148,376.2,77.4,446.2,8C457-2.6,469.7-2.7,480.5,8
	c25.4,25.3,50.7,50.7,76,76.1c10.9,10.9,10.8,23.6-0.2,34.6c-89.7,89.7-179.3,179.4-269,269.1c-1.6,1.6-3.1,3.4-4.6,5
	c-1.8,1.7-3.7,3.3-5.4,5c-34.6,34.6-69.4,69.2-103.9,104c-5.9,6-12.6,8.7-20.9,8.7c-16-0.2-32,0.2-48,0c-5.4-0.1-9.7-3.3-13.4-7
	c-17.7-17.6-35.3-35.4-53-52.9c-5.7-5.6-7.3-12.5-7.4-20.1C31,430.3,31,430,30.8,429.6z"/>
<path fill="#5B5C5C" d="M270.5,676c-6.4-0.8-11.4-4.2-15.9-8.8c-16.3-16.6-32.7-33.1-49.4-49.3c-6.8-6.7-10.1-14.3-8.9-23.7
	c0.5-3.7,2.2-7.3,4.8-9.9c15-14.6,29.3-30,44.2-44.6c39.8-38.9,78.9-78.6,118.3-117.8c8-7.9,15.8-16,23.6-24
	c19.7-19.6,39.5-39.2,59.2-58.8c6.5-6.5,14-9,22.9-6.8c4.8,1.2,8.4,4.3,11.8,7.7c24.6,24.7,49.3,49.4,74,74
	c10.9,10.9,12.1,19.4,4.7,32.7c-1.9,1.8-3.9,3.6-5.8,5.5c-71.8,71.8-143.7,143.7-215.4,215.6c-4.2,4.2-8.8,7.2-14.6,8.3
	C306.2,676,288.3,676,270.5,676z"/>
<path fill="#5B5C5C" d="M463.3,841.9c-7.8,0-15.6,0-23.4,0c-6.5,0-11.9-2.3-16.4-6.8c-18.2-18.2-36.5-36.3-54.5-54.6
	c-9.2-9.4-9.4-22.4-0.1-31.7c26.1-26.4,52.4-52.7,78.8-78.9c9.1-9,22.2-9,31.3,0c26.4,26.2,52.7,52.5,78.8,78.9
	c9.2,9.2,9,22.5-0.1,31.7c-18.2,18.4-36.6,36.7-54.9,55c-4.2,4.2-9.4,6.4-15.4,6.5C479.3,841.9,471.3,841.9,463.3,841.9z"/>
</svg>
