<?xml version="1.0" encoding="iso-8859-1"?>
<!-- Generator: Adobe Illustrator 18.0.0, SVG Export Plug-In . SVG Version: 6.00 Build 0)  -->
<!DOCTYPE svg PUBLIC "-//W3C//DTD SVG 1.1//EN" "http://www.w3.org/Graphics/SVG/1.1/DTD/svg11.dtd">
<svg version="1.1" id="&#x56FE;&#x5C42;_1" xmlns="http://www.w3.org/2000/svg" xmlns:xlink="http://www.w3.org/1999/xlink" x="0px"
	 y="0px" viewBox="0 0 595.28 841.89" style="enable-background:new 0 0 595.28 841.89;" xml:space="preserve">
<path style="fill:#5B5C5C;" d="M202.399,369.074c-0.071,0.03-0.144,0.056-0.219,0.076c-1.074,0.296-2.156,0.552-3.225,0.865
	c1.064-0.313,2.15-0.569,3.225-0.865C202.255,369.13,202.328,369.104,202.399,369.074c4.565-1.924,9.147-3.812,13.707-5.751
	C211.547,365.262,206.964,367.15,202.399,369.074z"/>
<path style="fill:#5B5C5C;" d="M204.6,462.427c-0.622,5.665-1.308,11.326-1.95,16.991c-0.016,0.138-0.046,0.273-0.094,0.403
	c-0.172,0.466-0.37,0.923-0.516,1.391c0.167-0.534,0.405-1.058,0.586-1.587l0,0C203.274,473.891,203.97,468.161,204.6,462.427z"/>
<path style="fill:#5B5C5C;" d="M383.044,483.977c3.952-1.659,7.908-3.313,11.836-5.034c0.191-0.024,0.386-0.029,0.582-0.048
	c-0.195,0.014-0.391,0.024-0.582,0.048C390.957,480.664,387.001,482.318,383.044,483.977z"/>
<path style="fill:#5B5C5C;" d="M298.58,534.321c0.385,0.1,0.715,0.34,0.95,0.661c1.706,2.333,3.982,4.07,6.209,5.847
	c-2.227-1.777-4.507-3.513-6.209-5.847C299.294,534.661,298.965,534.421,298.58,534.321c-0.785-0.205-1.366-0.741-1.941-1.281
	C297.21,533.58,297.791,534.117,298.58,534.321z"/>
<path style="fill:#5B5C5C;" d="M298.41,313.672c-0.281-0.116-0.532-0.295-0.719-0.535c-2.745-3.537-6.199-6.345-9.599-9.192
	c3.4,2.847,6.849,5.654,9.598,9.192C297.877,313.377,298.128,313.556,298.41,313.672c2.272,0.935,3.876,2.807,5.751,4.282
	C302.286,316.483,300.677,314.607,298.41,313.672z"/>
<path style="fill:#5B5C5C;" d="M197.859,370.364c0.362-0.124,0.729-0.238,1.096-0.348c1.068-0.313,2.15-0.573,3.223-0.865
	c0.076-0.021,0.15-0.046,0.222-0.077c4.564-1.924,9.146-3.812,13.705-5.751c1.53-0.653,3.06-1.311,4.586-1.978
	c26.965-11.812,51.914-26.96,74.827-45.445c0.496-0.402,0.951-0.856,1.4-1.318c0.617-0.636,0.637-1.632,0.069-2.312
	c-2.62-3.138-5.783-5.718-8.9-8.325c-1.173-0.982-2.34-1.969-3.47-2.989c-8.58-7.755-16.469-16.135-24.038-24.834
	c-4.922-5.66-9.69-11.452-14.513-17.199c-0.585-0.698-1.614-0.813-2.342-0.265c-9.553,7.184-19.311,14.068-29.753,19.919
	c-10.866,6.09-21.842,11.97-33.742,15.87c-0.045,0.015-0.09,0.032-0.134,0.052c-10.796,4.874-22.166,7.956-33.625,10.786
	c-13.981,3.451-28.209,5.21-42.523,6.421c-0.234,0.019-0.474-0.058-0.717-0.161c-0.435-0.185-0.924-0.125-1.362,0.055
	c-0.855,0.351-1.8,0.233-2.712,0.264c-20.678,0.744-41.208-0.577-61.48-4.8c-2.831-0.591-3.794,0.205-4.814,2.574
	c-9.209,21.374-15.811,43.496-19.81,66.433c-0.605,3.48,0.076,4.605,3.484,5.324c21.993,4.647,44.216,7.15,66.676,7.631
	c14.557,0.314,29.043-0.907,43.533-2.078c0.039-0.003,0.077-0.008,0.116-0.013c11.64-1.723,23.256-3.566,34.749-6.16
	C173.893,377.99,185.952,374.458,197.859,370.364z"/>
<path style="fill:#5B5C5C;" d="M580.489,466.607c-21.97-4.614-44.158-7.126-66.595-7.589c-14.562-0.3-29.043,0.906-43.534,2.059l0,0
	c-1.587,0.21-3.17,0.429-4.752,0.653c-4.748,0.682-9.476,1.444-14.181,2.293c-4.709,0.848-9.395,1.788-14.057,2.817
	c-1.554,0.343-3.108,0.696-4.657,1.063c-3.098,0.729-6.187,1.502-9.266,2.317c-9.238,2.445-18.38,5.286-27.418,8.57
	c-0.176,0.062-0.367,0.091-0.562,0.11c-0.195,0.014-0.391,0.024-0.582,0.048c-3.928,1.721-7.884,3.375-11.836,5.034
	c-1.32,0.553-2.636,1.106-3.952,1.664c-2.631,1.115-5.258,2.245-7.865,3.418c-2.607,1.168-5.2,2.379-7.77,3.646
	c-22.151,10.935-42.843,24.124-62.067,39.621c-0.405,0.327-0.789,0.679-1.168,1.038c-0.649,0.615-0.715,1.635-0.149,2.327
	c1.63,1.988,3.666,3.549,5.663,5.143c0.801,0.639,1.602,1.282,2.36,1.964c15.663,13.985,29.811,29.348,42.633,45.955
	c0.159,0.206,0.344,0.393,0.541,0.571c0.625,0.562,1.553,0.613,2.217,0.098c19.369-15.036,40.426-27.129,63.283-36.094
	c20.816-8.008,42.247-13.428,64.46-15.83c4.541-0.491,9.138-0.239,13.625-1.206c0.088-0.019,0.177-0.031,0.266-0.034
	c21.891-0.89,43.634,0.32,65.107,4.872c2.503,0.529,3.07-0.52,3.861-2.331c9.362-21.412,15.944-43.634,20.001-66.647
	C584.722,468.59,584.035,467.351,580.489,466.607z"/>
<path style="fill:#5B5C5C;" d="M201.902,481.751c0.033-0.181,0.081-0.362,0.138-0.539c0.146-0.468,0.344-0.928,0.515-1.391
	c0.048-0.13,0.079-0.266,0.095-0.405c0.642-5.665,1.328-11.325,1.95-16.99c0.21-1.911,0.41-3.823,0.601-5.739
	c2.769-27.885,2.126-55.684-2.288-83.378c-0.122-0.763-0.235-1.527-0.346-2.29c-0.147-1.01-1.141-1.668-2.128-1.41
	c-0.497,0.13-0.993,0.262-1.487,0.407c-0.367,0.11-0.734,0.224-1.096,0.348c-11.907,4.095-23.967,7.627-36.255,10.401
	c-10.963,2.479-22.038,4.265-33.139,5.92c-0.925,0.138-1.562,0.992-1.438,1.919c3.246,24.153,3.231,48.307-0.258,72.455
	c-3.818,24.839-11.063,48.625-21.993,71.266c-0.576,1.189-0.968,2.523-1.985,3.443c-0.29,0.262-0.476,0.625-0.519,1.013
	c-0.15,1.363-1.024,2.453-1.638,3.619c-9.481,17.956-20.988,34.52-34.568,49.611c-1.73,1.926-1.745,3.127-0.219,5.148
	c14.186,18.795,30.345,35.678,48.444,50.741c2.355,1.959,3.589,2.054,5.777-0.324c24.334-26.479,43.911-56.07,58.659-88.865
	c0.511-1.141,0.778-2.448,1.792-3.296c0.226-0.189,0.42-0.413,0.519-0.691c2.66-7.456,5.295-14.921,7.989-22.363
	C194.761,514.541,198.689,498.244,201.902,481.751z"/>
<path style="fill:#5B5C5C;" d="M350.731,588.743c-12.822-16.607-26.97-31.97-42.633-45.955c-0.763-0.682-1.559-1.325-2.36-1.964
	c-2.226-1.777-4.506-3.508-6.208-5.844c-0.235-0.323-0.566-0.563-0.953-0.664c-0.784-0.203-1.364-0.742-1.938-1.281
	c-0.234-0.219-0.467-0.439-0.71-0.634c-26.984-21.717-56.58-38.896-88.922-51.327c-0.715-0.276-1.444-0.52-2.178-0.753
	c-0.213-0.068-0.426-0.135-0.639-0.203c-0.887-0.281-1.867,0.183-2.14,1.073c-0.002,0.005-0.003,0.011-0.005,0.016
	c-0.057,0.176-0.105,0.357-0.138,0.539c-3.213,16.493-7.14,32.79-12.875,48.615c-2.578,7.122-5.102,14.265-7.646,21.401
	c-0.283,0.795,0.054,1.679,0.796,2.081c0.573,0.311,1.151,0.613,1.75,0.861c20.435,8.408,39.454,19.286,57.033,32.666
	c1.285,0.979,2.854,1.701,3.679,3.195c0.149,0.27,0.355,0.503,0.627,0.648c5.467,2.919,9.693,7.458,14.165,11.548
	c14.133,12.927,26.593,27.375,37.352,43.243c0.488,0.717,0.758,1.58,1.057,2.422c0.144,0.405,0.437,0.742,0.82,0.938
	c1.268,0.648,1.682,2.058,2.39,3.166c10.954,17.093,19.696,35.254,26.093,54.526c0.696,2.088,1.416,3.146,3.98,2.841
	c23.352-2.812,46.084-8.118,68.211-16.116c3.341-1.206,4.209-2.445,3.036-6.068c-10.906-33.724-26.736-64.903-47.605-93.536
	c-0.797-1.093-1.827-2.066-2.24-3.403c-0.105-0.341-0.278-0.656-0.556-0.88C351.528,589.536,351.072,589.184,350.731,588.743z"/>
<path style="fill:#5B5C5C;" d="M284.617,300.184c1.13,1.02,2.298,2.007,3.47,2.989c3.4,2.847,6.853,5.654,9.598,9.191
	c0.187,0.241,0.438,0.42,0.72,0.536c2.271,0.935,3.876,2.807,5.75,4.282c26.927,21.193,56.39,37.89,88.469,49.95
	c0.053,0.02,0.106,0.039,0.16,0.058c0.905,0.317,1.907-0.2,2.182-1.118c2.115-7.048,2.999-14.379,4.837-21.496
	c4.114-15.916,9.171-31.498,15.563-46.637c0.399-0.943,0.678-1.878,0.775-2.85c0.073-0.729-0.368-1.414-1.041-1.702
	c-10.25-4.372-20.402-8.95-30.064-14.534c-11.52-6.657-22.835-13.622-32.861-22.461c-0.035-0.031-0.072-0.06-0.111-0.088
	c-11.049-7.862-20.669-17.332-29.753-27.291c-7.355-8.065-14.243-16.574-20.439-25.592c-1.151-1.674-2.171-3.437-3.245-5.159
	c-0.023-0.037-0.047-0.073-0.072-0.108c-0.88-1.23-1.814-2.425-2.627-3.703c-10.825-16.998-19.496-35.04-25.883-54.154
	c-0.667-1.997-1.168-3.289-3.856-2.965c-23.595,2.85-46.575,8.184-68.902,16.369c-2.827,1.034-3.708,2.026-2.669,5.205
	c5.153,15.797,11.316,31.155,18.614,46.084c8.951,18.298,19.891,35.364,31.749,51.873c0.026,0.037,0.054,0.072,0.083,0.107
	c5.166,6.137,10.248,12.339,15.515,18.39C268.149,284.049,276.037,292.429,284.617,300.184z"/>
<path style="fill:#5B5C5C;" d="M399.809,345.343c-1.963,7.589-2.833,15.416-5.27,22.879c-0.049,0.149-0.075,0.304-0.077,0.461
	c-0.124,7.773-1.92,15.357-2.618,23.073c-2.479,27.384-1.945,54.664,2.188,81.863c0.272,1.778,0.567,3.551,0.848,5.324
	c0.191-0.024,0.386-0.029,0.582-0.048s0.381-0.043,0.562-0.11c9.038-3.284,18.18-6.125,27.418-8.57
	c3.079-0.815,6.168-1.587,9.266-2.317c1.549-0.362,3.103-0.72,4.657-1.063c4.667-1.03,9.352-1.969,14.057-2.817
	c4.705-0.848,9.433-1.611,14.181-2.293c1.583-0.229,3.165-0.443,4.752-0.653l0,0c-3.494-24.725-3.465-49.445-0.01-74.169
	c3.341-20.573,8.59-40.617,16.931-59.755c2.197-5.046,3.768-10.45,7.299-14.843c0.229-0.285,0.397-0.626,0.407-0.991
	c0.046-1.725,1.19-3.033,1.946-4.462c9.295-17.47,20.511-33.619,33.719-48.348c2.016-2.25,2.202-3.632,0.353-6.073
	c-14.071-18.561-30.073-35.24-47.943-50.164c-2.474-2.069-3.809-2.174-6.13,0.357c-24.148,26.312-43.577,55.703-58.292,88.231
	c-0.516,1.144-0.755,2.487-1.763,3.319c-0.386,0.318-0.675,0.747-0.696,1.247c-0.048,1.129-0.347,2.203-0.806,3.285
	C408.98,313.85,403.922,329.432,399.809,345.343z"/>
<path style="fill:#5B5C5C;" d="M465.608,461.731c1.583-0.229,3.165-0.443,4.752-0.653l0,0l0,0
	C468.773,461.283,467.185,461.502,465.608,461.731z"/>
<path style="fill:#5B5C5C;" d="M481.411,385.08c-0.166,0.985,0.548,1.909,1.543,1.999c18.519,1.683,37.054,2.57,55.66,1.407
	c18.285-1.144,36.389-3.484,54.264-7.546c1.759-0.4,2.693-0.72,2.321-2.927c-4.014-23.976-10.811-47.114-20.587-69.379
	c-0.772-1.754-1.606-2.126-3.513-1.726c-21.276,4.493-42.811,5.708-64.488,4.927c-0.537-0.019-1.063,0.207-1.397,0.629
	c-3.447,4.366-5.007,9.704-7.179,14.693C489.95,345.725,484.765,365.148,481.411,385.08z"/>
<path style="fill:#5B5C5C;" d="M92.02,532.335c10.635-22.036,17.782-45.146,21.677-69.26c0.162-1.001-0.583-1.938-1.596-1.981
	c-0.135-0.006-0.27-0.015-0.404-0.029c-18.352-2.031-36.737-2.612-55.179-1.501c-18.161,1.092-36.117,3.518-53.892,7.417
	c-2.55,0.558-2.889,1.44-2.483,3.875c3.604,21.545,9.524,42.419,17.918,62.582c3.284,7.884,3.332,8.07,11.802,6.516
	c19.545-3.585,39.253-4.299,59.046-3.801c0.451,0.011,0.897-0.148,1.221-0.462C91.079,534.771,91.467,533.485,92.02,532.335z"/>
<path style="fill:#5B5C5C;" d="M253.191,606.566c-4.201-3.843-8.183-8.083-13.187-11.002c-0.774-0.452-1.762-0.251-2.281,0.48
	c-3.874,5.458-7.862,10.843-11.526,16.437c-16.292,24.882-28.891,51.528-37.809,79.908c-0.558,1.773-1.64,3.37,1.297,4.462
	c22.885,8.523,46.465,14.071,70.709,16.898c1.692,0.195,2.555-0.248,3.094-1.916c6.639-20.67,16.362-39.863,27.936-58.152
	c0.28-0.442,0.342-0.987,0.167-1.48c-0.293-0.83-0.562-1.677-1.042-2.382C279.784,633.936,267.324,619.493,253.191,606.566z"/>
<path style="fill:#5B5C5C;" d="M329.457,219.589c9.104,9.977,18.738,19.462,29.811,27.332c0.191-0.167,0.415-0.31,0.567-0.51
	c22.251-29.73,38.848-62.353,50.126-97.717c0.791-2.479,0.048-3.27-2.188-4.099c-21.674-8.041-43.977-13.366-66.914-16.35
	c-4.647-0.605-6.02,0.648-7.422,4.767c-6.607,19.456-15.459,37.854-27.075,54.85c-0.381,0.557-0.398,1.282-0.044,1.857
	c0.882,1.436,1.745,2.885,2.695,4.272C315.215,203.016,322.103,211.524,329.457,219.589z"/>
<path style="fill:#5B5C5C;" d="M146.47,292.138c10.925-2.698,21.767-5.621,32.109-10.114c0.874-0.38,1.269-1.414,0.881-2.283
	c-14.869-33.329-34.582-63.488-59.345-90.376c-2.107-2.288-3.318-2.483-5.763-0.443c-18.085,15.058-34.229,31.922-48.439,50.684
	c-1.687,2.226-1.482,3.442,0.315,5.448c14.414,16.073,26.507,33.762,36.274,53.024c0.481,0.167,0.982,0.52,1.444,0.477
	C118.261,297.343,132.494,295.589,146.47,292.138z"/>
<path style="fill:#5B5C5C;" d="M424.349,559.632c-0.951,0.359-1.381,1.468-0.925,2.377c0.291,0.581,0.577,1.164,0.843,1.757
	c14.719,32.671,34.191,62.191,58.439,88.593c2.278,2.479,3.604,2.526,6.13,0.415c17.98-15.01,34.048-31.803,48.191-50.469
	c1.678-2.216,1.516-3.461-0.296-5.482c-13.309-14.815-24.62-31.055-33.986-48.639c-0.601-1.13-1.428-2.192-1.788-3.435
	c-0.235-0.812-1.047-1.318-1.882-1.187c-3.982,0.626-8.036,0.48-12.046,0.913C465.453,546.814,444.607,551.992,424.349,559.632z"/>
</svg>
