<?xml version="1.0" encoding="iso-8859-1"?>
<!-- Generator: Adobe Illustrator 18.0.0, SVG Export Plug-In . SVG Version: 6.00 Build 0)  -->
<!DOCTYPE svg PUBLIC "-//W3C//DTD SVG 1.1//EN" "http://www.w3.org/Graphics/SVG/1.1/DTD/svg11.dtd">
<svg version="1.1" id="&#x56FE;&#x5C42;_1" xmlns="http://www.w3.org/2000/svg" xmlns:xlink="http://www.w3.org/1999/xlink" x="0px"
	 y="0px" viewBox="0 0 124 124" style="enable-background:new 0 0 124 124;" xml:space="preserve">
<path style="fill-rule:evenodd;clip-rule:evenodd;fill:#5B5C5C;" d="M62.26,124C27.929,124,0,95.271,0,61.226
	C0,27.181,27.929,0,62.26,0C96.59,0,124,27.181,124,61.226C124,95.271,96.59,124,62.26,124z M114.767,69.679
	c-1.819-0.57-16.46-4.901-33.125-2.256c6.956,18.955,9.786,34.392,10.332,37.603C103.903,97.025,112.396,84.353,114.767,69.679z
	 M83.033,109.853c-0.791-4.627-3.878-20.752-11.345-39.993c-0.117,0.04-0.234,0.077-0.35,0.119
	c-29.995,10.364-40.763,30.993-41.72,32.933c9.017,6.973,20.349,12.68,32.643,12.68C69.626,115.591,76.648,112.55,83.033,109.853z
	 M22.752,96.568c1.204-2.043,15.799-26.009,43.226-34.801c0.693-0.222,1.392-0.431,2.095-0.626c-1.335-2.997-2.788-5.997-4.311-8.95
	c-26.557,7.881-52.328,7.551-54.655,7.505c-0.016,0.535-0.027,1.072-0.027,1.61C9.08,74.853,14.259,87.219,22.752,96.568z
	 M10.204,50.505c2.378,0.032,24.288,0.127,49.164-6.424c-8.812-15.535-18.834-29.109-20.237-31.016
	C24.253,20.023,13.652,34.14,10.204,50.505z M49.798,10.036c1.47,1.951,11.129,14.995,19.843,30.873
	c18.91-7.029,27.435-18.215,28.391-19.566C88.641,13.08,75.772,8.054,62.26,8.054C57.969,8.054,53.797,9.079,49.798,10.036z
	 M103.944,27.441c-1.121,1.504-10.552,13.348-30.215,21.31c1.238,2.511,2.424,5.067,3.528,7.638
	c0.392,0.911,0.773,1.819,1.146,2.722c17.695-2.207,35.796,1.329,37.55,1.697C115.836,48.362,111.351,36.416,103.944,27.441z"/>
</svg>
