<?xml version="1.0" encoding="iso-8859-1"?>
<!-- Generator: Adobe Illustrator 18.0.0, SVG Export Plug-In . SVG Version: 6.00 Build 0)  -->
<!DOCTYPE svg PUBLIC "-//W3C//DTD SVG 1.1//EN" "http://www.w3.org/Graphics/SVG/1.1/DTD/svg11.dtd">
<svg version="1.1" id="&#x56FE;&#x5C42;_1" xmlns="http://www.w3.org/2000/svg" xmlns:xlink="http://www.w3.org/1999/xlink" x="0px"
	 y="0px" viewBox="0 0 595.28 841.89" style="enable-background:new 0 0 595.28 841.89;" xml:space="preserve">
<path style="fill:#5B5C5C;" d="M594.617,274.829c-0.206-4.241-0.331-8.486-0.615-12.722c-0.658-9.903-1.422-19.797-3.419-29.546
	c-0.639-5.672-2.123-11.181-3.717-16.622c-9.356-31.942-28.754-56.129-57.349-72.89c-15.469-9.067-32.461-13.731-50.164-16.175
	c-20.584-2.843-41.293-2.858-61.993-3.266c-1.153-0.024-2.305-0.197-3.458-0.303c-77.505,0-155.015,0-232.53,0
	c-4.135,0.62-8.309,0.403-12.463,0.461c-17.722,0.235-35.424,0.629-53.007,3.146c-17.045,2.44-33.595,6.517-48.68,15.181
	c-28.11,16.142-47.738,39.391-57.843,70.287c-4.495,13.745-6.412,28.048-7.564,42.451c-0.826,10.335-1.201,20.685-1.321,31.049
	c-0.014,0.869,0.038,1.753-0.495,2.521c0,87.975,0,175.95,0,263.925c0.725,1.561,0.485,3.232,0.509,4.86
	c0.24,17.712,1.34,35.333,4.164,52.858c4.596,28.504,17.477,52.488,38.45,72.198c12.223,11.488,26.251,20.08,41.994,25.867
	c0.802,0.298,1.671,0.427,2.507,0.634c1.076-0.672,2.267-0.663,3.453-0.634c-1.186-0.024-2.373-0.034-3.448,0.634
	c7.42,2.67,15.128,4.303,22.856,5.586c13.178,2.195,26.511,3.131,39.867,3.592c0.528,0.019,1.21-0.163,1.378,0.658
	c4.068,0,8.141,0,12.208,0c5.811,0,11.627,0,17.438,0c77.51,0,155.02,0,232.53,0c5.619,0,11.238,0,16.857,0
	c4.068,0,8.141,0,12.208,0c0.168-0.826,0.845-0.629,1.374-0.648c8.77-0.355,17.534-0.812,26.266-1.748
	c13.198-1.417,26.213-3.751,38.825-8.025c4.683-1.398,9-3.616,13.399-5.706c8.03-3.818,15.407-8.626,22.304-14.163
	c13.784-11.075,25.003-24.34,33.081-40.093c6.003-11.714,9.97-24.172,12.304-37.129c0.202-1.124,0.053-2.31,0.067-3.463
	c-0.985-0.615-1.167-1.465-1.167-2.358c0-0.269,0.019-0.538,0.034-0.807c-0.019,0.269-0.034,0.538-0.034,0.807
	c0,0.893,0.183,1.743,1.167,2.358c1.316-4.793,1.566-9.759,2.272-14.643c1.153-8.001,1.244-16.103,1.753-24.167
	c0.053-0.845-0.562-1.959,0.672-2.517c0-1.935,0-3.876,0-5.811c0-8.141,0-16.276,0-24.417c0-76.737,0-153.469,0-230.206
	c0-8.141,0-16.276,0-24.417c0-1.743,0-3.487,0-5.23C594.459,276.034,594.641,275.362,594.617,274.829z M567.055,429.225
	c0.082,38.167,0.37,76.333-0.312,114.5c-0.317,17.924-1.393,35.761-4.788,53.43c-3.496,18.188-11.027,34.522-22.717,48.694
	c-16.853,20.43-38.186,33.96-64.389,39.358c-14.47,2.982-29.109,4.313-43.834,4.659c-54.721,1.297-109.453,0.389-164.184,0.591
	c-28.576,0.106-57.156,0.11-85.732-0.134c-19.268-0.163-38.527-0.879-57.555-4.457c-25.248-4.75-46.495-16.627-63.717-35.655
	c-15.037-16.617-23.85-36.169-27.534-58.218c-3.328-19.936-3.866-40.035-3.909-60.153c-0.154-71.488-0.158-142.975-0.13-214.468
	c0.005-11.426,0.49-22.851,0.744-34.277c0.019-0.85,0.264-1.758-0.442-2.483c-1.071-1.321-1.537-2.858-1.657-4.433
	c0.12,1.575,0.586,3.112,1.657,4.433c0.552-5.768,1.052-11.541,1.657-17.299c1.306-12.458,3.155-24.911,7.939-36.5
	c15.95-38.642,44.3-62.651,85.555-70.854c18.898-3.756,38.09-4.428,57.267-4.471c74.1-0.159,148.2-0.168,222.306-0.106
	c20.723,0.019,41.428,0.471,62.022,3.439c30.977,4.466,56.268,18.639,75.704,43.224c15.138,19.148,21.727,41.423,24.071,65.278
	c0.548,5.566,1.109,11.133,1.667,16.699c-0.687,0.605-0.519,1.412-0.495,2.171C567.828,331.193,566.949,380.214,567.055,429.225z"/>
<path style="fill:#5B5C5C;" d="M367.187,233.733c6.503,0.106,11.824-5.148,11.829-11.685c0.005-6.407-5.144-11.603-11.546-11.651
	c-6.45-0.048-11.699,5.028-11.776,11.387C355.623,228.339,360.709,233.627,367.187,233.733z"/>
<path style="fill:#5B5C5C;" d="M227.771,280.251c6.402-0.01,11.646-5.12,11.723-11.536c0.082-6.536-5.144-11.819-11.69-11.81
	c-6.436,0.005-11.618,5.153-11.632,11.56C216.105,274.085,220.432,280.266,227.771,280.251z"/>
<path style="fill:#5B5C5C;" d="M367.572,326.779c6.402-0.283,11.517-5.422,11.445-11.872c-0.072-6.421-5.288-11.526-11.752-11.502
	c-6.546,0.029-11.642,5.293-11.565,11.944C355.229,320.44,360.574,327.091,367.572,326.779z"/>
<path style="fill:#5B5C5C;" d="M367.418,349.918c-6.464-0.029-11.685,5.1-11.719,11.512c-0.034,6.57,5.177,11.834,11.709,11.819
	c6.421-0.014,11.608-5.235,11.608-11.68C379.021,355.144,373.844,349.947,367.418,349.918z"/>
<path style="fill:#5B5C5C;" d="M134.931,326.76c6.503-0.13,11.685-5.427,11.555-11.978c-0.13-6.378-5.374-11.435-11.819-11.378
	c-6.517,0.058-11.579,5.321-11.498,11.954C122.65,321.78,129.307,326.871,134.931,326.76z"/>
<path style="fill:#5B5C5C;" d="M460.301,326.774c6.517-0.082,11.795-5.307,11.723-11.863c-0.067-6.421-5.273-11.522-11.728-11.502
	c-6.44,0.019-11.31,5.187-11.666,11.608C448.261,321.741,455.095,326.842,460.301,326.774z"/>
<path style="fill:#5B5C5C;" d="M227.699,233.742c6.527,0.048,11.834-5.211,11.8-11.771c-0.034-6.412-5.225-11.565-11.656-11.57
	c-6.455-0.005-11.488,5.115-11.704,11.541C215.923,228.488,221.681,233.694,227.699,233.742z"/>
<path style="fill:#5B5C5C;" d="M413.802,256.901c-6.436,0.01-11.603,5.187-11.598,11.613c0.005,6.445,5.139,11.656,11.56,11.719
	c6.527,0.067,11.815-5.245,11.762-11.81C425.472,262.011,420.262,256.891,413.802,256.901z"/>
<path style="fill:#5B5C5C;" d="M88.186,442.927c-6.541,0.043-11.502,5.302-11.555,11.968c-0.053,6.248,5.638,11.397,11.68,11.373
	c6.517-0.024,11.762-5.341,11.666-11.901C99.886,447.965,94.651,442.884,88.186,442.927z"/>
<path style="fill:#5B5C5C;" d="M506.94,419.788c6.512-0.154,11.728-5.422,11.598-11.987c-0.125-6.402-5.374-11.435-11.853-11.382
	c-6.503,0.058-11.555,5.36-11.459,12.031C494.621,414.567,501.508,419.917,506.94,419.788z"/>
<path style="fill:#5B5C5C;" d="M320.568,303.41c-6.503,0.096-11.488,5.398-11.373,12.088c-0.533,5.221,5.379,11.459,11.858,11.262
	c6.392-0.192,11.498-5.36,11.459-11.8C332.469,308.443,327.172,303.313,320.568,303.41z"/>
<path style="fill:#5B5C5C;" d="M367.576,280.256c6.388-0.192,11.488-5.374,11.44-11.81c-0.048-6.517-5.345-11.632-11.954-11.541
	c-6.474,0.086-11.483,5.417-11.358,12.093C355.315,274.382,361.107,280.453,367.576,280.256z"/>
<path style="fill:#5B5C5C;" d="M460.345,256.905c-6.546,0-11.68,5.225-11.627,11.829c-0.466,5.859,5.638,11.733,11.906,11.526
	c6.378-0.211,11.469-5.408,11.411-11.843C471.967,262.011,466.785,256.901,460.345,256.905z"/>
<path style="fill:#5B5C5C;" d="M460.316,396.423c-6.436,0.01-11.608,5.182-11.608,11.608c0,6.445,5.139,11.661,11.555,11.728
	c6.527,0.067,11.819-5.24,11.766-11.8C471.981,401.542,466.77,396.413,460.316,396.423z"/>
<path style="fill:#5B5C5C;" d="M413.836,373.269c6.508-0.067,11.752-5.302,11.69-11.853c-0.062-6.392-5.269-11.512-11.704-11.502
	c-6.536,0.01-11.661,5.235-11.613,11.843C401.742,367.525,407.736,373.336,413.836,373.269z"/>
<path style="fill:#5B5C5C;" d="M227.776,396.423c-6.436,0.019-11.411,5.163-11.642,11.594c-0.245,6.829,6.104,11.786,11.656,11.757
	c6.512-0.034,11.781-5.302,11.709-11.853C239.427,401.513,234.221,396.403,227.776,396.423z"/>
<path style="fill:#5B5C5C;" d="M180.955,442.932c-6.344,0.12-11.358,5.403-11.281,11.887c-0.423,5.797,5.59,11.56,11.68,11.469
	c6.508-0.096,11.728-5.35,11.642-11.906C192.904,447.883,187.568,442.807,180.955,442.932z"/>
<path style="fill:#5B5C5C;" d="M181.2,396.423c-6.522,0.038-11.603,5.302-11.522,11.935c-0.432,5.653,5.509,11.526,11.723,11.416
	c6.503-0.115,11.718-5.408,11.594-11.949C192.875,401.432,187.654,396.384,181.2,396.423z"/>
<path style="fill:#5B5C5C;" d="M413.999,233.761c6.512-0.192,11.69-5.494,11.522-12.059c-0.163-6.397-5.432-11.387-11.925-11.305
	c-6.503,0.082-11.507,5.403-11.387,12.103C401.637,228.512,408.457,233.925,413.999,233.761z"/>
<path style="fill:#5B5C5C;" d="M320.779,256.901c-6.536,0.014-11.651,5.273-11.584,11.901c-0.447,6.445,6.176,11.642,11.901,11.454
	c6.392-0.207,11.488-5.417,11.421-11.858C332.445,261.991,327.234,256.886,320.779,256.901z"/>
<path style="fill:#5B5C5C;" d="M274.338,442.927c-6.45,0-11.656,5.168-11.656,11.565c0,6.58,5.273,11.834,11.805,11.771
	c6.407-0.062,11.55-5.317,11.517-11.762C285.974,448.09,280.768,442.927,274.338,442.927z"/>
<path style="fill:#5B5C5C;" d="M134.854,280.261c6.503-0.096,11.728-5.365,11.632-11.911c-0.096-6.503-5.427-11.57-12.04-11.44
	c-6.34,0.125-11.353,5.413-11.277,11.896C122.766,274.627,128.769,280.347,134.854,280.261z"/>
<path style="fill:#5B5C5C;" d="M274.054,396.423c-6.474,0.082-11.483,5.413-11.363,12.098c-0.514,5.317,5.48,11.459,11.867,11.257
	c6.392-0.202,11.502-5.379,11.454-11.81C285.955,401.441,280.672,396.341,274.054,396.423z"/>
<path style="fill:#5B5C5C;" d="M320.861,419.783c6.402-0.106,11.603-5.192,11.651-11.613c0.048-6.536-5.187-11.767-11.752-11.747
	c-6.416,0.019-11.334,5.192-11.637,11.608C308.83,414.313,315.045,419.879,320.861,419.783z"/>
<path style="fill:#5B5C5C;" d="M414.018,419.773c6.503-0.158,11.666-5.48,11.502-12.035c-0.158-6.388-5.408-11.387-11.887-11.32
	c-6.498,0.067-11.541,5.374-11.435,12.031C401.853,414.048,407.703,419.927,414.018,419.773z"/>
<path style="fill:#5B5C5C;" d="M134.955,373.283c6.517-0.192,11.694-5.485,11.531-12.055c-0.158-6.397-5.432-11.402-11.92-11.31
	c-6.517,0.091-11.507,5.389-11.397,12.093C122.597,368.058,129.456,373.442,134.955,373.283z"/>
<path style="fill:#5B5C5C;" d="M507.007,233.761c6.512-0.192,11.694-5.489,11.526-12.055c-0.163-6.402-5.422-11.392-11.911-11.31
	c-6.503,0.086-11.517,5.403-11.397,12.093C494.655,228.555,501.513,233.925,507.007,233.761z"/>
<path style="fill:#5B5C5C;" d="M460.671,233.761c6.392-0.283,11.459-5.485,11.358-11.939c-0.101-6.402-5.331-11.469-11.795-11.43
	c-6.536,0.043-11.613,5.321-11.522,11.973C448.098,228.594,455.086,234.006,460.671,233.761z"/>
<path style="fill:#5B5C5C;" d="M134.763,442.932c-6.421,0.01-11.579,5.163-11.594,11.584c0.043,6.608,4.923,11.642,11.651,11.733
	c6.392,0.086,11.618-5.144,11.67-11.555C146.544,448.152,141.328,442.922,134.763,442.932z"/>
<path style="fill:#5B5C5C;" d="M88.191,349.914c-6.416,0.029-11.555,5.24-11.531,11.685c0.029,6.421,5.216,11.618,11.632,11.651
	c6.402,0.034,11.642-5.163,11.69-11.589C100.025,355.105,94.785,349.885,88.191,349.914z"/>
<path style="fill:#5B5C5C;" d="M274.506,280.261c6.512-0.173,11.67-5.489,11.498-12.05c-0.168-6.392-5.417-11.377-11.901-11.305
	c-6.493,0.072-11.522,5.379-11.416,12.05C262.163,274.301,268.123,280.429,274.506,280.261z"/>
<path style="fill:#5B5C5C;" d="M506.757,256.901c-6.426,0.029-11.57,5.235-11.536,11.68c0.029,6.44,5.206,11.632,11.622,11.656
	c6.527,0.024,11.781-5.307,11.694-11.877C518.452,261.948,513.236,256.872,506.757,256.901z"/>
<path style="fill:#5B5C5C;" d="M460.085,442.927c-6.479,0.082-11.488,5.422-11.368,12.122c-0.572,5.951,6.239,11.421,11.815,11.238
	c6.512-0.207,11.685-5.523,11.498-12.088C471.842,447.806,466.593,442.85,460.085,442.927z"/>
<path style="fill:#5B5C5C;" d="M134.676,396.418c-6.412,0.043-11.555,5.273-11.507,11.709c0.048,6.431,5.24,11.613,11.656,11.627
	c6.517,0.014,11.771-5.341,11.666-11.901C146.385,401.451,141.145,396.375,134.676,396.418z"/>
<path style="fill:#5B5C5C;" d="M181.142,326.746c6.527,0.115,11.863-5.163,11.853-11.719c-0.01-6.426-5.196-11.608-11.627-11.622
	c-6.46-0.01-11.651,5.105-11.694,11.526C169.63,321.381,174.73,326.63,181.142,326.746z"/>
<path style="fill:#5B5C5C;" d="M88.014,303.414c-6.479,0.096-11.469,5.417-11.349,12.103c-0.36,5.384,5.384,11.44,11.891,11.248
	c6.383-0.192,11.483-5.393,11.426-11.824C99.924,308.423,94.622,303.313,88.014,303.414z"/>
<path style="fill:#5B5C5C;" d="M274.477,326.765c6.517-0.163,11.68-5.461,11.522-12.021c-0.154-6.397-5.384-11.392-11.872-11.334
	c-6.488,0.058-11.536,5.365-11.445,12.026C262.168,320.838,268.147,326.923,274.477,326.765z"/>
<path style="fill:#5B5C5C;" d="M181.272,256.905c-6.436,0.01-11.618,5.201-11.603,11.618c0.014,6.45,5.148,11.656,11.57,11.719
	c6.527,0.062,11.819-5.259,11.757-11.815C192.932,262.006,187.731,256.891,181.272,256.905z"/>
<path style="fill:#5B5C5C;" d="M181.565,373.279c6.397-0.25,11.498-5.422,11.426-11.867c-0.067-6.412-5.283-11.522-11.733-11.498
	c-6.541,0.019-11.651,5.273-11.584,11.911C169.03,368.121,176.046,373.495,181.565,373.279z"/>
<path style="fill:#5B5C5C;" d="M227.853,303.41c-6.44-0.014-11.637,5.11-11.67,11.502c-0.034,6.532,5.086,11.771,11.57,11.829
	c6.402,0.062,11.651-5.076,11.747-11.488C239.6,308.716,234.394,303.424,227.853,303.41z"/>
<path style="fill:#5B5C5C;" d="M320.808,349.914c-6.445,0.01-11.627,5.192-11.613,11.613c0.01,6.556,5.288,11.795,11.81,11.718
	c6.421-0.072,11.546-5.321,11.507-11.781C332.469,355.043,327.268,349.904,320.808,349.914z"/>
<path style="fill:#5B5C5C;" d="M460.325,349.914c-6.416,0.005-11.474,5.182-11.646,11.57c-0.197,7.161,6.291,11.805,11.651,11.781
	c6.517-0.029,11.776-5.297,11.709-11.843C471.962,355.014,466.77,349.909,460.325,349.914z"/>
<path style="fill:#5B5C5C;" d="M506.93,349.918c-6.44-0.034-11.454,5.072-11.771,11.45c-0.312,6.335,5.686,11.915,11.594,11.901
	c6.508-0.014,11.805-5.22,11.781-11.767C518.514,355.115,513.342,349.947,506.93,349.918z"/>
<path style="fill:#5B5C5C;" d="M367.264,442.927c-6.426,0.024-11.589,5.22-11.57,11.646c0.019,6.436,5.177,11.637,11.594,11.69
	c6.522,0.048,11.8-5.273,11.728-11.839C378.949,448.008,373.729,442.903,367.264,442.927z"/>
<path style="fill:#5B5C5C;" d="M425.525,454.626c0.024-6.541-5.235-11.742-11.834-11.699c-6.402,0.043-11.536,5.283-11.488,11.728
	c0.048,6.421,5.254,11.598,11.675,11.603C420.281,466.268,425.506,461.052,425.525,454.626z"/>
<path style="fill:#5B5C5C;" d="M88.388,210.396c-6.44-0.034-11.454,5.062-11.781,11.44c-0.322,6.383,5.73,11.925,11.574,11.915
	c6.508-0.01,11.819-5.216,11.8-11.747C99.967,215.593,94.804,210.43,88.388,210.396z"/>
<path style="fill:#5B5C5C;" d="M506.911,442.927c-6.46-0.014-11.661,5.11-11.694,11.526c-0.034,6.46,5.052,11.699,11.469,11.815
	c6.527,0.115,11.867-5.168,11.848-11.723C518.519,448.128,513.327,442.936,506.911,442.927z"/>
<path style="fill:#5B5C5C;" d="M181.353,233.752c6.503-0.086,11.738-5.36,11.642-11.901c-0.096-6.397-5.297-11.469-11.752-11.45
	c-6.512,0.014-11.632,5.273-11.57,11.891C169.231,227.95,175.139,233.838,181.353,233.752z"/>
<path style="fill:#5B5C5C;" d="M366.962,396.423c-6.349,0.134-11.339,5.417-11.257,11.93c-0.423,5.715,5.566,11.546,11.738,11.426
	c6.503-0.13,11.959-5.465,11.517-11.983C378.502,401.172,373.959,396.274,366.962,396.423z"/>
<path style="fill:#5B5C5C;" d="M227.627,442.927c-6.512,0.062-11.55,5.369-11.445,12.05c-0.591,6.104,6.306,11.464,11.738,11.315
	c6.517-0.173,11.718-5.446,11.574-12.011C239.355,447.888,234.106,442.869,227.627,442.927z"/>
<path style="fill:#5B5C5C;" d="M88.306,256.905c-6.546-0.005-11.685,5.211-11.642,11.815c-0.466,5.83,5.542,11.594,11.603,11.541
	c6.508-0.058,11.776-5.293,11.714-11.834C99.919,262.025,94.737,256.91,88.306,256.905z"/>
<path style="fill:#5B5C5C;" d="M320.712,233.752c6.512-0.014,11.81-5.206,11.8-11.747c-0.01-6.407-5.172-11.574-11.594-11.603
	c-6.45-0.029-11.474,5.067-11.781,11.44C308.83,228.33,314.958,233.766,320.712,233.752z"/>
<path style="fill:#5B5C5C;" d="M506.878,303.41c-6.44-0.005-11.651,5.115-11.656,11.517c-0.01,6.637,4.865,11.67,11.579,11.8
	c6.512,0.13,11.786-5.225,11.738-11.776C518.49,308.553,513.303,303.414,506.878,303.41z"/>
<path style="fill:#5B5C5C;" d="M216.182,361.469c-0.014,6.56,5.23,11.824,11.757,11.781c6.426-0.043,11.57-5.259,11.56-11.728
	c-0.01-6.412-5.211-11.598-11.642-11.608C221.388,349.909,216.197,355.043,216.182,361.469z"/>
<path style="fill:#5B5C5C;" d="M274.491,373.269c6.503-0.163,11.68-5.48,11.512-12.035c-0.163-6.388-5.403-11.382-11.882-11.32
	c-6.493,0.062-11.536,5.374-11.435,12.035C262.177,367.376,268.171,373.428,274.491,373.269z"/>
<path style="fill:#5B5C5C;" d="M402.204,315.099c0.029,6.426,5.211,11.613,11.642,11.642c6.402,0.029,11.642-5.172,11.68-11.598
	c0.043-6.546-5.201-11.767-11.795-11.738C407.318,303.438,402.175,308.654,402.204,315.099z"/>
<path style="fill:#5B5C5C;" d="M88.282,396.423c-6.44,0.005-11.627,5.177-11.622,11.589c0,6.46,5.124,11.67,11.541,11.742
	c6.527,0.077,11.829-5.23,11.781-11.791C99.934,401.552,94.732,396.418,88.282,396.423z"/>
<path style="fill:#5B5C5C;" d="M320.813,442.932c-6.44,0-11.618,5.172-11.618,11.594c0,6.455,5.124,11.666,11.546,11.738
	c6.532,0.072,11.824-5.23,11.776-11.795C332.464,448.056,327.263,442.927,320.813,442.932z"/>
<path style="fill:#5B5C5C;" d="M274.453,233.733c6.412-0.053,11.574-5.288,11.55-11.728c-0.019-6.416-5.201-11.589-11.637-11.603
	c-6.455-0.019-11.661,5.12-11.685,11.531C262.657,228.502,267.926,233.781,274.453,233.733z"/>
<path style="fill:#5B5C5C;" d="M134.907,233.733c6.412-0.034,11.584-5.254,11.579-11.694c0-6.421-5.168-11.603-11.603-11.637
	c-6.455-0.034-11.675,5.091-11.718,11.502C123.126,228.469,128.375,233.766,134.907,233.733z"/>
<path style="fill:#5B5C5C;" d="M443.617,608.407c11.085,6.296,22.414,6.195,33.431,0.312c11.853-6.335,18.183-16.531,18.783-30.089
	c0.567-3.232-0.379-6.258-0.893-9.418c-2.478-15.268-19.633-27.947-35.007-27.212c-13.294,0.639-23.687,6.575-30.324,18.173
	c-6.825,11.925-6.301,24.244,0.389,35.934C433.046,601.424,437.306,606.275,443.617,608.407z"/>
<path style="fill:#5B5C5C;" d="M269.031,585.623c2.473,10.772,8.568,18.846,18.802,23.509c22.428,11.743,49.957-4.241,51.182-29.719
	c1.662-15.128-8.808-31.064-25.353-35.909C287.665,535.892,262.974,559.242,269.031,585.623z"/>
</svg>
