<?xml version="1.0" encoding="iso-8859-1"?>
<!-- Generator: Adobe Illustrator 18.0.0, SVG Export Plug-In . SVG Version: 6.00 Build 0)  -->
<!DOCTYPE svg PUBLIC "-//W3C//DTD SVG 1.1//EN" "http://www.w3.org/Graphics/SVG/1.1/DTD/svg11.dtd">
<svg version="1.1" id="&#x56FE;&#x5C42;_1" xmlns="http://www.w3.org/2000/svg" xmlns:xlink="http://www.w3.org/1999/xlink" x="0px"
	 y="0px" viewBox="0 0 106.231 124.201" style="enable-background:new 0 0 106.231 124.201;" xml:space="preserve">
<path style="fill:#5B5C5C;" d="M10.61,24.056c0,0,0,0,0.007,0h11.918c0.682-0.001,1.233-0.543,1.234-1.206
	c0-0.005-0.146-9.996-0.146-12.773v-0.034c0-2.281,0.489-4.27,1.343-5.938l0.406-0.748c-0.045,0.007-0.09,0.028-0.137,0.072
	L2.082,25.891c-0.045,0.035-0.072,0.082-0.086,0.131c0.479-0.231,1.134-0.549,1.226-0.589C5.237,24.543,7.682,24.056,10.61,24.056z
	 M103.336,21.61c-0.946-4.956-3.959-7.399-6.687-8.36c-2.935-1.038-8.896-2.115-16.381-2.977c-6.021-0.694-13.102-0.638-17.378-0.51
	c-0.515-3.439-2.981-6.58-5.741-7.668C49.801-0.799,38.441-0.099,35.526,0.7c-2.318,0.635-4.883,1.932-6.31,3.932
	c-0.956,1.338-1.576,3.049-1.581,5.441c0,1.352,0.038,4.542,0.074,7.376c0.034,2.84,0.074,5.384,0.074,5.401
	c-0.002,2.53-2.1,4.589-4.697,4.592H11.168c-2.542,0-4.484,0.418-5.969,1.077c-1.486,0.66-2.538,1.55-3.337,2.602
	C0.27,33.212-0.007,35.791,0,38.426c0,0,0.023,2.149,0.552,6.313c0.441,3.222,4.012,25.727,7.405,32.571
	c1.316,2.662,2.192,3.773,4.775,4.946c5.758,2.412,18.908,5.094,25.074,5.862c6.152,0.771,10.014,2.388,12.315-2.331
	c0.007-0.014,0.462-1.173,1.084-2.882c1.999-5.921,2.278-11.174,2.278-14.977c0-0.386,0.579-0.404,0.579,0
	c0,2.684-0.524,12.185,6.812,14.732c2.898,1.004,8.905,1.9,15.01,2.601c5.518,0.622,9.525,2.745,9.525,16.599
	c0,8.427-1.809,9.582-11.27,9.582c-7.667,0-10.593,0.193-10.593-5.764c0-4.818,4.873-4.313,8.48-4.313
	c1.612,0,0.443-1.173,0.443-4.144c0-2.958,1.89-4.667,0.101-4.71c-12.482-0.337-19.825-0.013-19.825,15.256
	c0,13.861,5.423,16.435,23.138,16.435c13.89,0,18.781-0.445,24.517-17.85c1.137-3.437,3.881-13.922,5.543-31.529
	C106.993,63.691,104.952,30.09,103.336,21.61z M79.124,58.748c-1.718-0.058-3.366,0.047-4.907,0.29
	c0.434-3.421,1.878-7.621,6.992-7.446c5.662,0.192,6.457,5.426,6.475,8.971C85.299,59.523,82.343,58.858,79.124,58.748z"/>
</svg>
