<?xml version="1.0" encoding="iso-8859-1"?>
<!-- Generator: Adobe Illustrator 18.0.0, SVG Export Plug-In . SVG Version: 6.00 Build 0)  -->
<!DOCTYPE svg PUBLIC "-//W3C//DTD SVG 1.1//EN" "http://www.w3.org/Graphics/SVG/1.1/DTD/svg11.dtd">
<svg version="1.1" id="&#x56FE;&#x5C42;_1" xmlns="http://www.w3.org/2000/svg" xmlns:xlink="http://www.w3.org/1999/xlink" x="0px"
	 y="0px" viewBox="0 0 124 73" style="enable-background:new 0 0 124 73;" xml:space="preserve">
<path style="fill:#5B5C5C;" d="M19,16L0,15.969v39.922h31c0,0,0-8.051,0-18.278C31,21.255,31,0,31,0H19V16z M19,43h-7V27h7V43z
	 M37,56h11V17H37V56z M93,14v40h19v7H93v12h31V14H93z M112,42h-7V27h7V42z M56,54h19v7H56v12h31V14H56V54z M67,27h8v15h-8V27z M37,9
	h11l0.222-9H37V9z"/>
</svg>
