<?xml version="1.0" encoding="iso-8859-1"?>
<!-- Generator: Adobe Illustrator 18.0.0, SVG Export Plug-In . SVG Version: 6.00 Build 0)  -->
<!DOCTYPE svg PUBLIC "-//W3C//DTD SVG 1.1//EN" "http://www.w3.org/Graphics/SVG/1.1/DTD/svg11.dtd">
<svg version="1.1" id="&#x56FE;&#x5C42;_1" xmlns="http://www.w3.org/2000/svg" xmlns:xlink="http://www.w3.org/1999/xlink" x="0px"
	 y="0px" viewBox="0 0 595.28 841.89" style="enable-background:new 0 0 595.28 841.89;" xml:space="preserve">
<path style="fill:#5B5C5C;" d="M67.285,256.127v83.639h-44.28c-12.866,1.806-14.076,18.287-14.986,24.6h59.266v211.558L0,622.097
	v28.216L170.594,541.09c6.101-14.046,2.598-27.621-4.182-29.795c-0.576-0.207-0.979,0.005-2.927,0.669l-45.411,29.52V364.366h47.851
	c0-19.68-8.851-23.827-14.996-24.6h-32.851V206.927C94.97,201.918,75.728,228.821,67.285,256.127z"/>
<path style="fill:#5B5C5C;" d="M155.844,428.325l124.524-255.198c13.077-6.13,27.739-14.096,43.497-7.04l-69.622,144.16h34.44
	v354.237l-44.28,49.2l-14.76,4.92V359.446l-39.36,68.879H155.844z"/>
<path style="fill:#5B5C5C;" d="M411.682,123.288v118.079h-88.559c-7.739,7.956-14.14,18.735-15.547,30.307l104.106-0.787v108.239
	h-83.639c-14.981,10.681-18.445,20.747-14.76,29.52h98.399v118.079l-90.099-0.197c-8.379,10.401-13.235,20.885-13.22,29.717h103.319
	v108.239h-83.639c-16.442,8.192-21.087,20.659-20.467,29.52h284.432c1.732-10.735-6.091-24.516-17.968-29.52h-93.479V556.244H593.72
	c0-9.84-3.321-19.129-18.765-29.717l-94.394,0.197V408.645H593.72c4.92-9.84-7.646-19.227-24.6-29.52h-88.559V270.886H593.72
	c4.792-9.008-1.855-19.227-14.76-29.52h-98.399v-49.2C470.21,160.31,463.366,132.439,411.682,123.288z"/>
</svg>
