<?xml version="1.0" encoding="utf-8"?>
<!-- Generator: Adobe Illustrator 18.0.0, SVG Export Plug-In . SVG Version: 6.00 Build 0)  -->
<!DOCTYPE svg PUBLIC "-//W3C//DTD SVG 1.1//EN" "http://www.w3.org/Graphics/SVG/1.1/DTD/svg11.dtd">
<svg version="1.1" id="图层_1" xmlns="http://www.w3.org/2000/svg" xmlns:xlink="http://www.w3.org/1999/xlink" x="0px" y="0px"
	 viewBox="0 0 595.3 841.9" enable-background="new 0 0 595.3 841.9" xml:space="preserve">
<path fill="#5B5C5C" d="M18.9,175.2c73.4,1.1,140.7,0.6,214,6c33.6,2.5,65.6,10.5,92.3,32.3c61.9,50.4,46.4,151.6-27.5,180.9
	c-5.1,2-10.2,3.9-15.3,6.8c20.7,3.9,40,10.5,57.4,22c60.4,44.6,55.6,147.3,13.6,191.6c-22.5,23.8-51,35.2-82.2,41.5
	c-28.6,5.7-57.7,6.8-86.7,7.1c-57.4,0.5-108.3,2.6-165.7,3.3L18.9,175.2L18.9,175.2z M0.7,434.3c0-4.4-0.5-8.8-0.7-13.2
	c0.2-4.4,0.7-8.8,0.7-13.3 M132.3,529.6c0,15.2-0.1,22.6,0,37.8c0,3.5,1.1,8.8,7.1,8.7c25.8-0.3,57.7,4.7,92.1-4
	c25.7-6.5,36.4-23.1,35.9-48.3c-0.5-29.1-12.1-43.8-39.4-49.5c-29.1-6.1-56.9-5.5-86.3-6.1c-5.7-0.1-9.5,5.5-9.5,9.5
	C132.4,492.8,132.3,514.5,132.3,529.6z M132.3,335.9c0,14.1,0.1,23.7,0,37.8c0,4.3,3.1,9.5,9.5,9.5c23.1-0.3,45,0.6,67.8-4.2
	c25.4-5.3,37.1-19.1,37.1-43.7c0-26.1-13.2-41.5-38.7-46.6c-22.8-4.5-43-4.6-66.2-4.7c-6.1,0-9.5,4.9-9.5,9.5
	C132.5,306.7,132.3,322.6,132.3,335.9z"/>
<path fill="#5B5C5C" d="M472.6,420.9c0.2-4.4,0-9.8,0-14.2c0-73.5,0-141.8,0-217.4c0-9.2,0.1-14.2,9.5-14.2c33.1,0,61.4,0,94.5,0
	c8.7-0.2,9.5,1.5,9.5,9.5c-0.3,73.9,0,148.2,0,222.1c0,4.4-0.2,9.8,0,14.2c-0.2,24.4-0.2,46.5,0,70.9c0.1,7-1.9,9.6-9.5,9.5
	c-33.1,0-61.4,0-94.5,0c-7.4,0.1-9.5-2.2-9.5-9.5C472.7,467.5,472.6,444.6,472.6,420.9z"/>
<path fill="#5B5C5C" d="M463.3,600.4c0.1-36.3,29.9-65.8,66.2-65.6c36.2,0.2,65.9,30.1,65.8,66.2c-0.1,36.1-30.2,65.6-66.5,65.3
	C492,666.1,463.2,637.1,463.3,600.4z"/>
</svg>
