<?xml version="1.0" encoding="utf-8"?>
<!-- Generator: Adobe Illustrator 18.0.0, SVG Export Plug-In . SVG Version: 6.00 Build 0)  -->
<!DOCTYPE svg PUBLIC "-//W3C//DTD SVG 1.1//EN" "http://www.w3.org/Graphics/SVG/1.1/DTD/svg11.dtd">
<svg version="1.1" id="图层_1" xmlns="http://www.w3.org/2000/svg" xmlns:xlink="http://www.w3.org/1999/xlink" x="0px" y="0px"
	 viewBox="0 0 595.3 841.9" enable-background="new 0 0 595.3 841.9" xml:space="preserve">
<path fill="#5B5C5C" d="M48,320.1c67.1,0,134.7,0,201.6,0c0,18.2,0,33.8,0,52.8c-50.5,0-102.7,0-153.6,0c0,48.9,0,95.4,0,144
	c31.9,0,63.5,0,96,0c0-15.7,0-31.6,0-48c-15.8,0-31.8,0-48,0c0-16.4,0-31.7,0-48c34.3,0,70.9,0,105.6,0c0,48.3,0,100.2,0,148.8
	c-66.8,0-134.6,0-201.6,0C48,486.6,48,403.4,48,320.1z"/>
<path fill="#5B5C5C" d="M48,171.3c0,16.1,0,32.3,0,48.3c-16.2,0-31.7,0-47.9,0c0-31.8,0-63.8,0-96.3c198.1,0,396.4,0,595.2,0
	c0,31.9,0,63.9,0,96.3c-15.7,0-31.5-0.3-48-0.3c0-15.5,0-31.7,0-48C380.5,171.3,215.1,171.3,48,171.3z"/>
<path fill="#5B5C5C" d="M0,622.2c16.2,0,31.7,0,47.9,0c0,15.9,0,31.5,0,47.6c166.5,0,332.3,0,499,0c0-15.6,0-31.3,0-47.6
	c16.5,0,32,0,48.2,0c0,31.7,0,63.7,0,96.3c-198,0-396.3,0-595.2,0C0,686.8,0,654.8,0,622.2z"/>
<path fill="#5B5C5C" d="M446.5,420.9c0-15.9,0-31.2,0-48c17.9,0,34.7,0,52.8,0c0-18.8,0-34.3,0-52.8c16.4,0,31.7,0,48,0
	c0,82.9,0,166.2,0,249.6c-15.7,0-31.5,0-48,0c0-48,0-99.3,0-148.8c-18.8,0-39.8,0-57.6,0H446.5z"/>
<path fill="#5B5C5C" d="M396.3,421.3c-15.9,0-33.8-0.4-50.6-0.4c0,49,0,100,0,148.8c-16.7,0-31.8,0-48,0c0-82.9,0-166.2,0-249.6
	c15.5,0,31.3,0,48,0c0,17.8,0,34.1,0,52.8c16.5,0,30.9,0,48,0c0,16.7,0,31.9,0,48C393.6,421,396.3,421.3,396.3,421.3z"/>
<path fill="#5B5C5C" d="M446.5,420.9c0,15.8,0,31.5,0,48c-15.9,0-36.2,0-52.8,0c0-15.9,0-31.7,0-48c0,0,0,0,0,0
	C409.9,421,430.2,420.8,446.5,420.9L446.5,420.9z"/>
</svg>
