<?xml version="1.0" encoding="utf-8"?>
<!-- Generator: Adobe Illustrator 18.0.0, SVG Export Plug-In . SVG Version: 6.00 Build 0)  -->
<!DOCTYPE svg PUBLIC "-//W3C//DTD SVG 1.1//EN" "http://www.w3.org/Graphics/SVG/1.1/DTD/svg11.dtd">
<svg version="1.1" id="图层_1" xmlns="http://www.w3.org/2000/svg" xmlns:xlink="http://www.w3.org/1999/xlink" x="0px" y="0px"
	 viewBox="0 0 595.3 841.9" enable-background="new 0 0 595.3 841.9" xml:space="preserve">
<path fill="#5B5C5C" d="M297.6,718.6C133.5,718.6,0,585.1,0,420.9c0-164.1,133.5-297.6,297.6-297.6c164.1,0,297.6,133.5,297.6,297.6
	C595.3,585.1,461.8,718.6,297.6,718.6z M297.6,161.2c-143.2,0-259.8,116.5-259.8,259.8c0,143.3,116.5,259.8,259.8,259.8
	c143.3,0,259.8-116.5,259.8-259.8S440.9,161.2,297.6,161.2z"/>
<path fill="#5B5C5C" d="M332.3,274c-14.5-29.4-23.4-58.1-27.9-74.8V410c7.4,2.8,12.6,9.8,12.6,18.1c0,10.7-8.7,19.4-19.4,19.4
	c-10.7,0-19.4-8.7-19.4-19.4c0-8.7,5.8-16,13.7-18.4V199c-4.5,16.6-13.4,45.4-28,75c-22.8,46.1-51.2,86.7-51.2,86.7L231,609.3
	c0,0,17.3,19.3,67.1,19.3c0,0,0,0,0,0c0,0,0,0,0,0c49.9,0,67.1-19.3,67.1-19.3l18.2-248.6C383.5,360.7,355.1,320.1,332.3,274z"/>
</svg>
