<?xml version="1.0" encoding="iso-8859-1"?>
<!-- Generator: Adobe Illustrator 18.0.0, SVG Export Plug-In . SVG Version: 6.00 Build 0)  -->
<!DOCTYPE svg PUBLIC "-//W3C//DTD SVG 1.1//EN" "http://www.w3.org/Graphics/SVG/1.1/DTD/svg11.dtd">
<svg version="1.1" id="&#x56FE;&#x5C42;_1" xmlns="http://www.w3.org/2000/svg" xmlns:xlink="http://www.w3.org/1999/xlink" x="0px"
	 y="0px" viewBox="0 0 116.692 121.927" style="enable-background:new 0 0 116.692 121.927;" xml:space="preserve">
<path style="fill:#5B5C5C;" d="M116.692,26.232l-0.362-11.096c0.152-6.961-3.726-10.92-13.445-13.502
	c-8.911-1.302-21.158-3.977-33.791,2.764C61.983,1.839,54.475-0.318,44.033,0.46C20.435,2.657,11.421,14.588,10.036,31.603
	c-4.979,0.568-9.679,1.879-10.022,15.034c-0.322,14.902,4.708,17.376,9.678,19.02l-0.013,43.634c0.7,5.152-0.264,10.9,11.45,12.172
	l17.539,0.357c6.417,0.837,10.872-3.243,13.244-12.529c0.832,7.549,4.148,11.688,10.379,11.81h20.4
	c4.611-1.228,10.292-1.054,11.001-9.444v-46l5.109,0.314c4.378-0.636,8.74-1.36,11.807-8.595v-13.6
	c-0.886-5.553-2.387-4.897-3.938-6.091C110.838,36.77,115.147,36.33,116.692,26.232z M104.812,28.365
	c-3.228-2.583-7.586-3.468-12.149-4.05c-12.687-1.786-9.36,8.957-9.971,17.342h17v13h-17v56h-19v-56h-24v56h-19v-56l-10,1
	l1.242-14.382l9.87,0.504l-0.254-3.792c0.44-9.075-0.352-24.715,19.084-27.152c5.478,0.372,6.486-1.78,20.899,2.847l0.254,13.165
	c-4.216-1.482-7.918-3.19-10.882-2.788c-9.175-0.431-9.625,3.739-10.213,8.597v10h23c0.567-12.411-2.643-28.103,17.913-30.837
	c8.974-1.194,17.216-0.054,23.461,2.618L104.812,28.365z"/>
</svg>
