<?xml version="1.0" encoding="utf-8"?>
<!-- Generator: Adobe Illustrator 18.0.0, SVG Export Plug-In . SVG Version: 6.00 Build 0)  -->
<!DOCTYPE svg PUBLIC "-//W3C//DTD SVG 1.1//EN" "http://www.w3.org/Graphics/SVG/1.1/DTD/svg11.dtd">
<svg version="1.1" id="图层_1" xmlns="http://www.w3.org/2000/svg" xmlns:xlink="http://www.w3.org/1999/xlink" x="0px" y="0px"
	 viewBox="0 0 595.3 841.9" enable-background="new 0 0 595.3 841.9" xml:space="preserve">
<path fill="#5B5C5C" d="M308.6,463.6c-16.4-12.2-51.9-37.3-51.9-54.1c0-19.7,5.6-29.4,35.4-52.6c30.5-23.7,52.1-55,52.1-93.9
	c0-42.4-17.3-80.7-50-99.4h46.3l39.4-40.3c0,0-130.3,0-176.4,0c-89.5,0-164.1,64.8-164.1,137.2c0,73.9,49,132.8,133.2,132.8
	c5.8,0,11.5-0.4,17.1-0.7c-5.5,10.4-9.4,22-9.4,34.3c0,20.5,11.3,32.2,25.4,45.8c-10.6,0-20.8,0.3-32,0.3
	C71.1,472.9,0,505.3,0,605.6c0,66.5,85.9,112.9,188.4,112.9c116.8,0,189.7-61.7,188.7-132.5C376.2,532.9,365.5,506.1,308.6,463.6z
	 M110.8,264.2c-7.8-58.7,31.7-99.7,76.8-98.4c45.1,1.4,74.5,45.6,82.2,104.3c7.8,58.8-18.2,95-63.3,93.7
	C161.5,362.4,118.6,323,110.8,264.2z M186.4,675c-66.6,0-114.7-38.2-114.7-85.1c0-46,53.9-70.4,119.2-70.4c24.3,0,97,0,119.6,56.2
	c2,5.2,2.1,10.9,2.1,16.5C312.6,639.3,280,675,186.4,675z"/>
<path fill="#5B5C5C" d="M595.3,236.4h-84.9v85.3h-28.2v-85.3h-84.7v-27.9h84.8v-85.1h28.2v85.1h84.9V236.4z"/>
</svg>
