<?xml version="1.0" encoding="utf-8"?>
<!-- Generator: Adobe Illustrator 18.0.0, SVG Export Plug-In . SVG Version: 6.00 Build 0)  -->
<!DOCTYPE svg PUBLIC "-//W3C//DTD SVG 1.1//EN" "http://www.w3.org/Graphics/SVG/1.1/DTD/svg11.dtd">
<svg version="1.1" id="图层_1" xmlns="http://www.w3.org/2000/svg" xmlns:xlink="http://www.w3.org/1999/xlink" x="0px" y="0px"
	 viewBox="0 0 595.3 841.9" enable-background="new 0 0 595.3 841.9" xml:space="preserve">
<path fill="#5B5C5C" d="M518.8,718.6H76.5C34.4,718.6,0,684.3,0,642.3V199.6c0-42,34.4-76.3,76.5-76.3h442.3
	c42.1,0,76.5,34.3,76.5,76.3v442.7C595.3,684.3,560.9,718.6,518.8,718.6z M524.5,216.7c0-12.4-10.2-22.6-22.6-22.6h-54
	c-12.5,0-22.6,10.2-22.6,22.6v53.9c0,12.4,10.2,22.6,22.6,22.6h54c12.4,0,22.6-10.1,22.6-22.6V216.7z M539,378.2h-61.8
	c3.2,13.6,5.3,27.7,5.3,42.4c0,101.9-82.7,184.5-184.7,184.5s-184.7-82.6-184.7-184.5c0-14.6,1.9-28.7,5.1-42.4H56.9v260
	c0,13,10.6,23.6,23.7,23.6h434.8c13,0,23.7-10.6,23.7-23.6V378.2z"/>
<path fill="#5B5C5C" d="M297.6,293.4c70.4,0,127.5,57,127.5,127.4c0,70.4-57.1,127.4-127.5,127.4s-127.5-57-127.5-127.4
	C170.1,350.4,227.2,293.4,297.6,293.4z"/>
</svg>
