<?xml version="1.0" encoding="iso-8859-1"?>
<!-- Generator: Adobe Illustrator 18.0.0, SVG Export Plug-In . SVG Version: 6.00 Build 0)  -->
<!DOCTYPE svg PUBLIC "-//W3C//DTD SVG 1.1//EN" "http://www.w3.org/Graphics/SVG/1.1/DTD/svg11.dtd">
<svg version="1.1" id="&#x56FE;&#x5C42;_1" xmlns="http://www.w3.org/2000/svg" xmlns:xlink="http://www.w3.org/1999/xlink" x="0px"
	 y="0px" viewBox="0 0 113 124" style="enable-background:new 0 0 113 124;" xml:space="preserve">
<path style="fill:#5B5C5C;" d="M3,124h24V38H3V124z M96.322,44.14c-9.092-5.053-22.516-5.481-32.188-1.109L64,38H40v86h24.133V69.84
	l10.07-4.799c2.471-1.176,7.884-1.069,10.172,0.207C86.103,66.204,89,70.574,89,73v51h24V72C113,60.878,105.987,49.501,96.322,44.14
	z M15.274,0C6.83,0,0,6.771,0,15.126c0,8.348,6.83,15.119,15.274,15.119c8.443,0,15.267-6.771,15.267-15.119
	C30.541,6.771,23.717,0,15.274,0z"/>
</svg>
