<?xml version="1.0" encoding="utf-8"?>
<!-- Generator: Adobe Illustrator 18.0.0, SVG Export Plug-In . SVG Version: 6.00 Build 0)  -->
<!DOCTYPE svg PUBLIC "-//W3C//DTD SVG 1.1//EN" "http://www.w3.org/Graphics/SVG/1.1/DTD/svg11.dtd">
<svg version="1.1" id="图层_1" xmlns="http://www.w3.org/2000/svg" xmlns:xlink="http://www.w3.org/1999/xlink" x="0px" y="0px"
	 viewBox="0 0 595.3 841.9" enable-background="new 0 0 595.3 841.9" xml:space="preserve">
<path fill="#5B5C5C" d="M595.3,378.9c0-133.1-133.5-241.4-297.7-241.4C133.5,137.5,0,245.8,0,378.9c0,119.3,105.9,219.3,248.9,238.2
	c9.7,2.1,22.9,6.4,26.2,14.7c3,7.5,2,19.3,1,26.9c0,0-3.5,21-4.2,25.5c-1.3,7.5-6,29.4,25.8,16c31.8-13.4,171.4-100.9,233.8-172.7h0
	C574.6,480.2,595.3,432.2,595.3,378.9z M181.1,458.1H122c-8.6,0-15.6-7-15.6-15.6V324.3c0-8.6,7-15.6,15.6-15.6
	c8.6,0,15.6,7,15.6,15.6v102.6h43.5c8.6,0,15.6,7,15.6,15.6C196.7,451.1,189.7,458.1,181.1,458.1z M242.3,442.5
	c0,8.6-7,15.6-15.6,15.6c-8.6,0-15.6-7-15.6-15.6V324.3c0-8.6,7-15.6,15.6-15.6c8.6,0,15.6,7,15.6,15.6V442.5z M374,457.3
	c-1.6,0.5-3.3,0.8-5,0.8c-4.9,0-9.5-2.3-12.5-6.2l-60.6-82.5v73.1c0,8.6-7,15.6-15.6,15.6c-8.6,0-15.6-7-15.6-15.6V324.3
	c0-6.7,4.3-12.7,10.6-14.8c1.6-0.5,3.3-0.8,5-0.8c4.9,0,9.5,2.3,12.5,6.3l60.6,82.5v-73.2c0-8.6,7-15.6,15.6-15.6
	c8.6,0,15.6,7,15.6,15.6v118.2h0C384.6,449.2,380.4,455.2,374,457.3z M480.3,367.8L480.3,367.8c8.6,0,15.6,7,15.6,15.6
	c0,8.6-7,15.6-15.6,15.6h-43.5v27.9h43.5c8.6,0,15.6,7,15.6,15.6c0,8.6-7,15.6-15.6,15.6h-59.1c-8.6,0-15.6-7-15.6-15.6v-59
	c0,0,0,0,0,0c0,0,0,0,0,0v-59c0,0,0,0,0-0.1c0-8.6,7-15.6,15.6-15.6h59.1c8.6,0,15.6,7,15.6,15.6c0,8.6-7,15.6-15.6,15.6h-43.5v27.9
	H480.3z"/>
</svg>
