<?xml version="1.0" encoding="iso-8859-1"?>
<!-- Generator: Adobe Illustrator 18.0.0, SVG Export Plug-In . SVG Version: 6.00 Build 0)  -->
<!DOCTYPE svg PUBLIC "-//W3C//DTD SVG 1.1//EN" "http://www.w3.org/Graphics/SVG/1.1/DTD/svg11.dtd">
<svg version="1.1" id="&#x56FE;&#x5C42;_1" xmlns="http://www.w3.org/2000/svg" xmlns:xlink="http://www.w3.org/1999/xlink" x="0px"
	 y="0px" viewBox="0 0 120.661 62" style="enable-background:new 0 0 120.661 62;" xml:space="preserve">
<path style="fill:#5B5C5C;" d="M63.588,0C39.269,0,22.414,15.905,15.815,22.662C10.76,27.838,0,42.545,0,55.124
	c10.407,2.029,23.522,2.535,49.157,6.385C51.387,61.844,53.602,62,55.783,62c26.78,0,49.228-23.385,50.747-25.136
	c1.178-1.358,0.667-5.704,0.283-8.057c-0.218-1.339,0.386-2.692,1.573-3.375c3.275-1.885,9.816-3.69,10.878-4.799
	c2.735-2.857,1.164-6.722-2.225-9.849l-9.825,1.328c-1.974-0.808-4.554-1.082-7.201-1.082c-3.367,0-6.841,0.443-9.316,0.793
	C75.902,13.92,48.132,31.185,50.477,31.185c0.015,0,0.032-0.001,0.05-0.002c0.105-0.009,0.208-0.012,0.311-0.012
	c0.304,0,0.605,0.032,0.927,0.064c0.322,0.032,0.666,0.064,1.054,0.064c0.944,0,2.154-0.19,3.972-1.029
	c8.19-4.221,26.182-7.33,32.898-7.33c0.956,0,1.683,0.063,2.121,0.195c1.82,0.238,3.179,0.606,3.902,1.149
	c2.386,8.146-6.299,15.072-16.158,21.801c-5.905,3.68-12.582,6.129-23.276,6.129c-9.205,0-21.387-1.815-38.616-6.222
	c0-15.014,16.769-26.926,19.889-29.225C51.61,6.411,78.394,5.59,86.532,5.59c1.533,0,2.403,0.029,2.403,0.029
	C79.793,1.605,71.314,0,63.588,0"/>
</svg>
