<?xml version="1.0" encoding="utf-8"?>
<!-- Generator: Adobe Illustrator 18.0.0, SVG Export Plug-In . SVG Version: 6.00 Build 0)  -->
<!DOCTYPE svg PUBLIC "-//W3C//DTD SVG 1.1//EN" "http://www.w3.org/Graphics/SVG/1.1/DTD/svg11.dtd">
<svg version="1.1" id="图层_1" xmlns="http://www.w3.org/2000/svg" xmlns:xlink="http://www.w3.org/1999/xlink" x="0px" y="0px"
	 viewBox="0 0 595.3 841.9" enable-background="new 0 0 595.3 841.9" xml:space="preserve">
<path fill="#5B5C5C" d="M357.5,279.6c27,0,62.1,19,69.4,51.7c4.1,18.3,3.1,30.3-11.9,44.7c-37.9,36.6-74.6,69.5-111.6,109.1
	c-9.1,9.7-14.9,11.2-24.8,0.7c-17.8-18.7-37.3-35.8-56.1-53.5c-6.6-6.2-8.3-11.1-1.2-19.1c37.3-42.6,77.5-84,117.5-126.7
	C345.8,280.1,350.7,279.5,357.5,279.6z"/>
<path fill="#5B5C5C" d="M204.6,435.6c26.5,25.5,50.7,48.8,77.5,74.6c-31.5,5.6-59.5,9.8-87.2,15.6c-8.8,1.9-10.1-0.3-8.4-7.1
	C193.5,490.6,197.6,463.7,204.6,435.6z"/>
<path fill="#5B5C5C" d="M595.3,206.7c0-45.9-37.3-83.1-83.2-83.1H83.2C37.3,123.6,0,160.8,0,206.7v428.5c0,45.9,37.3,83.1,83.2,83.1
	h428.9c45.9,0,83.2-37.2,83.2-83.1L595.3,206.7L595.3,206.7z M522.5,563.1c0,45.9-36.1,82.1-82.1,82.1H150.8
	c-45.9,0-77.2-36.2-77.2-82.1V278.3c0-45.9,36.1-86.9,82.1-86.9h289.6c45.9,0,77.2,41,77.2,86.9V563.1z"/>
</svg>
