<?xml version="1.0" encoding="utf-8"?>
<!-- Generator: Adobe Illustrator 18.0.0, SVG Export Plug-In . SVG Version: 6.00 Build 0)  -->
<!DOCTYPE svg PUBLIC "-//W3C//DTD SVG 1.1//EN" "http://www.w3.org/Graphics/SVG/1.1/DTD/svg11.dtd">
<svg version="1.1" id="图层_1" xmlns="http://www.w3.org/2000/svg" xmlns:xlink="http://www.w3.org/1999/xlink" x="0px" y="0px"
	 viewBox="0 0 595.3 841.9" enable-background="new 0 0 595.3 841.9" xml:space="preserve">
<path fill="#5B5C5C" d="M298.1,748.5c-10-11.5-17.2-23-27.3-30.6c-18.9-14.3-37.7-31.5-59.5-38.7C79.2,635.9-8.9,509.7,0.7,373.3
	c9.9-141.4,114-254.9,253.6-276.5c149-23.1,299,75.5,332.2,218.6c37.3,160.5-46.7,313.1-197.3,362.2c-21.9,7.1-41,24.1-60.1,38.4
	C318.1,724.2,309.7,736.1,298.1,748.5z M58.1,392.9C54.4,521.5,159.8,634,288.1,638.6c131.8,4.7,245.9-99.3,250.1-228
	c4.6-140.5-97.2-250.3-235.6-254.3C171.4,152.4,61.9,258.4,58.1,392.9z"/>
<path fill="#5B5C5C" d="M118.9,394.7c0.4-98.5,82.7-180.5,179.6-178.9c101.5,1.7,180.3,81.6,179.6,182.2
	c-0.6,101-80.7,180.4-181.3,179.9C197.2,577.5,118.6,496.5,118.9,394.7z M418,396.2c-0.5-66.8-56.1-122-121.4-120.6
	C230.4,277,177.2,332.6,178,399.6c0.8,65.2,55.3,118.6,120.6,118.3C366.3,517.6,418.5,464.4,418,396.2z"/>
<path fill="#5B5C5C" d="M298.9,457.4c-34.6,0.2-60.4-26.1-60-61.4c0.4-31.8,28.1-60.4,58.9-60.7c31.8-0.3,60.6,29.6,60.3,62.8
	C357.8,431.7,332.4,457.1,298.9,457.4z"/>
</svg>
