<?xml version="1.0" encoding="utf-8"?>
<!-- Generator: Adobe Illustrator 18.0.0, SVG Export Plug-In . SVG Version: 6.00 Build 0)  -->
<!DOCTYPE svg PUBLIC "-//W3C//DTD SVG 1.1//EN" "http://www.w3.org/Graphics/SVG/1.1/DTD/svg11.dtd">
<svg version="1.1" id="图层_1" xmlns="http://www.w3.org/2000/svg" xmlns:xlink="http://www.w3.org/1999/xlink" x="0px" y="0px"
	 viewBox="0 0 595.3 841.9" enable-background="new 0 0 595.3 841.9" xml:space="preserve">
<path fill="#5B5C5C" d="M73.7,477.8c0,2.3,0,4,0,5.6c0,61.1,0,122.3,0,183.4c0,17.7-10.1,31.9-25.8,36.8
	c-23.4,7.3-46.5-9.5-47.7-34.6c-0.1-1.2-0.1-2.5-0.1-3.7c0-105.7-0.3-211.5,0-317.2c0.2-57.4,24-103.1,72.1-134.5
	c92.1-60,217-6.6,238,101.2c16.5,84.7-38,166.9-122.6,183.8c-39,7.8-75.9,1.4-110.3-18.7C76.4,479.3,75.4,478.8,73.7,477.8z
	 M193.6,346.3c-0.4,0.1-0.7,0.1-1.1,0.2c2,12.8,3.2,25.7,6,38.2c3.5,15.4,9.8,29.8,21.8,40.9c13.1,12.1,28.8,11.8,41.7-0.4
	c6.9-6.5,11.8-14.3,15.4-23c13.3-32.7,14.1-66,4.4-99.7c-3.9-13.4-9.9-25.8-20.4-35.3c-12.8-11.7-28-11.6-40.8-0.1
	c-6.5,5.8-11.2,13-14.9,20.8C196.9,306.4,193.9,326.1,193.6,346.3z"/>
<path fill="#5B5C5C" d="M506.7,661.5c-8.1,3.7-15.6,7.7-23.4,10.7c-79.1,30.3-168.4-20.3-183-103.5
	c-13.1-74.4,32.5-142.9,106.1-159.7c73.9-16.8,150.6,33.5,164.3,107.8c1.3,7.1,2,14.3,2,21.5c0.2,42.4,0,84.9,0.1,127.3
	c0,12.6-4.2,23.1-14.4,30.5c-10.1,7.4-21.3,9.8-33.1,4.1c-11.8-5.6-17.4-15.7-18.6-28.3C506.4,668.6,506.7,665.2,506.7,661.5z
	 M402.6,541c-0.7-5-1.5-14.6-3.5-23.8c-3.1-13.7-8.5-26.5-19.3-36.2c-12-10.9-26.7-10.6-38.5,0.5c-6.2,5.8-10.6,12.8-13.7,20.6
	c-11.1,28.2-11.2,56.6-0.6,84.9c3.2,8.5,7.9,16.1,14.7,22.3c11.8,10.7,26.3,11.1,37.8,0.2c4.9-4.7,9.1-10.6,12.3-16.6
	C399.8,578.1,402.1,562,402.6,541z"/>
<path fill="#5B5C5C" d="M595.3,297c-0.3,3.3-0.2,7.9-1.4,12.1c-2.7,10.3-13.2,17.2-23.3,15.9c-11.8-1.4-20.1-10.4-20.3-22.8
	c-0.2-17.3-3.4-33.9-10.9-49.5c-19.6-40.7-51.9-64.2-96.6-70.6c-4.7-0.7-9.5-0.7-14.3-0.9c-12.9-0.5-22.2-10.2-21.9-23.1
	c0.2-12.1,10.1-21.6,22.7-21.5c31,0.1,59.9,8.1,86.1,24.5c42.1,26.4,67.8,64.2,77,113.1C593.9,281.3,594.3,288.6,595.3,297z"/>
<path fill="#5B5C5C" d="M504.4,300.8c0.1,12.2-7.8,22.2-18.8,23.7c-11.9,1.6-22.4-5.1-25.2-16.5c-0.7-3-0.8-6.2-1.1-9.3
	c-1.7-17.4-15.9-30.8-33.5-31.7c-11.8-0.6-19.8-5.8-23-15.1c-5.2-14.8,5.8-29.8,21.8-29.9c40-0.1,75.4,32.1,79.1,71.9
	C503.9,296.2,504.2,298.5,504.4,300.8z"/>
</svg>
