<?xml version="1.0" encoding="utf-8"?>
<!-- Generator: Adobe Illustrator 18.0.0, SVG Export Plug-In . SVG Version: 6.00 Build 0)  -->
<!DOCTYPE svg PUBLIC "-//W3C//DTD SVG 1.1//EN" "http://www.w3.org/Graphics/SVG/1.1/DTD/svg11.dtd">
<svg version="1.1" id="图层_1" xmlns="http://www.w3.org/2000/svg" xmlns:xlink="http://www.w3.org/1999/xlink" x="0px" y="0px"
	 viewBox="0 0 595.3 841.9" enable-background="new 0 0 595.3 841.9" xml:space="preserve">
<path fill="#5B5C5C" d="M595.3,622C576.2,634,555,638,533,638.6c-20.2,0.5-40.2,0.3-59.8-6.2c-14.4-4.8-25.1-13.1-28.9-28
	c-7-27.2-13.8-54.5-19.7-82c-20.7-96-41-192.1-61.7-288.1c-1.3-6.1-3.8-12.2-7-17.5c-5.5-9.1-15.8-11.7-24.2-5.3
	c-6.1,4.7-11.9,11-15.3,17.9c-20.7,41.5-40.7,83.3-60.9,124.9c-3,6.2-6.4,12.2-9.7,18.2c-9.4,17.2-35.1,18.8-45.6,4.2
	c-8-11.2-16.2-22.4-22.5-34.6c-19.3-37.5-37.5-75.6-56.5-113.3c-2.9-5.8-6.9-11.5-11.8-15.7c-11.5-10.1-27.3-6.2-31.9,8.3
	c-5.2,16.2-9.2,32.9-12.6,49.6c-20.2,97.8-40,195.6-60.2,293.4c-0.7,3.3-3,6.3-4.6,9.5c0-40.4,0-80.8,0-121.2
	c0.3-4.1,0.9-8.2,0.9-12.3C1,364.9,0.7,278.1,0.8,202.5l0,0c137.3,0,290.1,0,427.4,0c3.2,0,0.6-0.2,4.7,0c0,48.2,1.7,96.6,1.7,145.2
	c30.6-4.5,62.4-12.4,93.2-17c0,23.9,0,48,0,71.2c31.9,0,43,0,57,0c0,18.3,0,38.8,0,57c-20.5,0-36.1,0-57,0c0,23.3-3.4,44.8-2.6,67.4
	c0.5,13.4,2.2,27,5.3,40.1c4.4,18.6,13.6,24.4,32.7,22.7c6.8-0.6,13.4-2.2,20.5-3.4c3.9,11.8,7.7,23.2,11.4,34.7
	C595.3,620.9,595.3,621.5,595.3,622z"/>
<path fill="#5B5C5C" d="M5.6,639.5c9.9-50.2,21-101.1,31.1-150.6c1.7-8.5,4.9-17,8.7-24.9c6.3-13.1,19.8-15.6,28.6-4.1
	c9.6,12.6,16.8,27.1,24.7,40.9c9.6,16.8,17.9,34.2,28.3,50.4c7.4,11.5,18.4,20.1,33.4,16.1c6.2-1.7,13.3-5.7,16.7-10.9
	c8.9-13.8,16.4-28.6,23.8-43.4c7.8-15.5,14.4-31.6,22.3-47.1c2.9-5.8,7.3-11.2,12.1-15.6c10.5-9.6,24.2-6.8,28.3,6.6
	c6.4,21.1,11.5,42.6,16,64.1c7.7,37.3,17.9,80.8,25.1,118.2c0,0-0.1-2,0,0C206.6,639.5,104,639.5,5.6,639.5z"/>
</svg>
