<?xml version="1.0" encoding="utf-8"?>
<!-- Generator: Adobe Illustrator 18.0.0, SVG Export Plug-In . SVG Version: 6.00 Build 0)  -->
<!DOCTYPE svg PUBLIC "-//W3C//DTD SVG 1.1//EN" "http://www.w3.org/Graphics/SVG/1.1/DTD/svg11.dtd">
<svg version="1.1" id="图层_1" xmlns="http://www.w3.org/2000/svg" xmlns:xlink="http://www.w3.org/1999/xlink" x="0px" y="0px"
	 viewBox="0 0 595.3 841.9" enable-background="new 0 0 595.3 841.9" xml:space="preserve">
<path fill="#5B5C5C" d="M219.4,518.8c0.5,0,1.1,0,1.6-0.1c5.8-1,11.6-3,18.8-6.7c11.6-5.9,23.1-11.6,34.9-16.6
	c20.5-8.7,39.7-12.9,58.5-12.9c0.6,0,1.2,0,1.8,0c2.1,0,4.2,0.1,6.3,0.1c8.5,0.1,17.2,0.3,25.8,0.2c3.7,0,8.5-0.3,13.1-2.5l2.5-1.2
	l-1.4-2.5c-1.2-2.2-3.1-2.7-4.2-3c-0.1,0-0.3-0.1-0.4-0.1c-9.4-2.7-19-3.5-28.8-4.1c-8-0.5-15.8-0.7-25.2-1
	c-4.2-0.1-8.9-0.2-13.5-0.2c-7.8,0-14.2,0.4-20.1,1.2c-9.5,1.3-18.6,4.6-27.4,7.7l-4.2,1.5c-13.9,4.9-28.3,10.1-41.9,16.8
	c-6.1,3.1-8.8,9.3-6.8,15.8C210.3,515.6,214.7,518.8,219.4,518.8z"/>
<path fill="#5B5C5C" d="M581.6,290.6c-19.4-7.6-39.8-10.4-60.5-11.2c-9.5-0.4-19.1-0.2-28.6,0.2c-34.2,1.7-67.9,7-101.5,13.6
	c-14.2,2.8-28.3,5.9-42.5,8.6c-5.2,1-10.6,0.7-15.7-0.9c-7.4-2.3-9.7-7.6-6.4-14.6c2.8-5.9,7.1-10.7,11.8-15.1
	c14.1-13.2,30.4-23.6,46.4-34.3c5.4-3.6,11-7.2,16.4-10.8c0.6-0.4,1.5-0.5,1.7-1.7c-3.3-0.2-6.5-0.5-9.7-0.8c-0.7-0.1-1.6,0.4-2-0.7
	c-14.9,0-29.7,0-44.6,0c-0.5,1.2-1.7,0.7-2.5,0.8c-13.3,0.9-26.6,2.5-39.8,4.7c-37.4,6.3-73.3,17.7-107.8,33.4
	c-12.3,5.6-24.5,11.2-36.1,18.3c-6.6,4-12.2,9.2-17.8,14.4c-0.5,0.2-1,0.3-1.5,0.5c-0.3,0.1-0.6,0.2-0.9,0.4
	c-0.3,0.1-0.6,0.3-0.8,0.3l-1-0.3l-1,0.5c-1.8,0.9-3.6,1.7-5.3,2.6c-5.5,2.6-11.2,5.4-16.5,8.9c-17.3,11.4-33,26.1-48,44.8
	c-13,16.2-23.3,33.7-30.6,51.8c-1.8,4.4-3,8.9-4.2,13.4c-0.6,2.1-1.2,4.3-1.8,6.4c-2.2,7.4-7,13.4-12,19.7c-0.7,0.8-1.3,1.7-2,2.5
	l-1.4,1.8c-4.4,5.6-9,11.4-12.4,17.9c-0.5,0.9-0.8,1.9-1.1,2.8c-0.4,1.1-0.7,2.1-1.3,2.8L0,471.9V482l0.2,0.4
	c0.4,1.1,0.8,2.3,1.2,3.4c0.9,2.5,1.7,5,2.8,7.5c6.3,15,17.2,28.1,33.4,40c15.3,11.3,33,20.5,57.2,29.9c4.6,1.8,9.4,3.5,14,5.1
	c2.1,0.8,4.3,1.5,6.4,2.3l5.7,1.7c4,1.2,8.1,2.4,12.1,3.6c20.9,6.2,42.6,11.6,64.4,16c3.9,0.8,7.8,1.7,11.6,2.5
	c3.3,0.7,6.7,1.5,10,2.2c2.8,0.6,5.6,1,8.3,1.5c1.9,0.3,3.9,0.6,5.9,1c13.1,2.5,26.5,4.3,39,5.9c7.1,0.9,14.7,1.8,24.5,2.7
	c0.3,0,0.6,0.1,0.9,0.1c7.1,2.1,22.2,6.7,57.6,10.5c12.7,1.6,40.4,0,80.5-18.2c24.9-14.4,41.6-35.1,48.1-63.4
	c4.6-19.8,3.4-39.6-0.6-59.4c-4.3-21-11.5-41-20.9-60.1c-5.7-11.6-4.6-22.5,1.4-33.3C470,372.6,479.2,364,489,356
	c14.9-12,31.3-21.8,48.1-30.9c19-10.2,38.4-19.6,58.2-28.1c0-0.2,0-0.4,0-0.6C590.7,294.5,586.2,292.4,581.6,290.6z M110.5,563.5
	c-4.6-1.6-9.3-3.3-13.9-5.1c-23.8-9.2-41.1-18.2-56-29.3C25,517.6,15,505.6,8.9,491.3c-1-2.3-1.8-4.8-2.7-7.2c-0.3-1-0.7-2-1.1-3
	v-7.4c0.8-1.2,1.2-2.4,1.6-3.6c0.3-0.7,0.5-1.4,0.8-2c3.2-6.1,7.4-11.5,11.9-17.1l1.4-1.8c0.6-0.8,1.3-1.7,2-2.5
	c5.1-6.4,10.4-13.1,12.9-21.4c0.7-2.2,1.3-4.4,1.8-6.6c1.1-4.3,2.3-8.7,4-12.7c3.3-8.2,7.2-16.2,11.8-24.1c0.1,0.7,0.3,1.2,0.4,1.7
	c1.1,3.9,3.2,6.9,5.7,8c8.4,3.9,15.1,8.8,20.6,15.1c7.9,9,13,20.2,16.5,36.3c1.6,7.4,2.5,14.7,2.5,21.5c0,5.5,3.3,8.6,6.5,11
	c1.9,1.4,3.9,2.1,5.9,2.1l0,0c2.5,0,5-1.1,7.1-3.2c2.6-2.6,5.4-6.2,3.9-11.4c-0.2-0.6-0.3-1.3-0.3-2.1c0-0.3-0.1-0.6-0.1-1
	c-2.1-15.6-5.8-36-15.6-54.6c-7.6-14.4-18.2-24.9-31.4-31.1l-0.9-0.4c-3.3-1.6-6.8-3.2-10.6-3.5l-0.2,0l-0.2,0
	c-0.8,0.1-1.8,0.1-2.7,0.2c3.4-5.1,7-10.1,10.9-14.9c14.7-18.3,30-32.7,46.8-43.7c5-3.3,10.5-6,15.9-8.5c1.5-0.7,3.1-1.5,4.6-2.2
	c0.1,0,0.2,0,0.3,0c1.2,0,2.1-0.4,2.8-0.7c0.2-0.1,0.4-0.2,0.6-0.2c5.9-2,12.1-3.2,18.5-3.7c2.5-0.2,5.1-0.3,7.6-0.3
	c9.9,0,20.2,1.2,32.4,3.9c9.5,2.1,19.1,4.8,28.3,7.4c1.8,0.5,3.5,1,5.3,1.5l0.8,0.2c15.2,4.2,30.9,8.6,45.9,14.1
	c11.8,4.3,23.7,9.5,36.3,16.2c30.6,16,57.3,36.4,79.3,60.4c18.3,20,31.6,40.1,40.8,61.6c11.4,26.8,15.1,51.2,11.2,74.5
	c-4.2,24.7-17.5,42.9-39.7,53.9c-16.9,8.4-36.2,12.7-62.5,14c-5.6,0.3-11.3,0.4-17,0.4c-10.9,0-22-0.5-32.9-1.5
	c-9.8-0.9-17.3-1.7-24.3-2.6c-12.5-1.7-25.8-3.5-38.8-5.9c-1.9-0.4-3.8-0.7-5.7-1l-56-12c-12.8-3.1-25.5-6.5-37.9-10.1
	c-4-1.2-8.1-2.4-12.1-3.6l-5.5-1.6C114.7,565,112.6,564.2,110.5,563.5z"/>
</svg>
