<?xml version="1.0" encoding="iso-8859-1"?>
<!-- Generator: Adobe Illustrator 18.0.0, SVG Export Plug-In . SVG Version: 6.00 Build 0)  -->
<!DOCTYPE svg PUBLIC "-//W3C//DTD SVG 1.1//EN" "http://www.w3.org/Graphics/SVG/1.1/DTD/svg11.dtd">
<svg version="1.1" id="&#x56FE;&#x5C42;_1" xmlns="http://www.w3.org/2000/svg" xmlns:xlink="http://www.w3.org/1999/xlink" x="0px"
	 y="0px" viewBox="0 0 124 120.733" style="enable-background:new 0 0 124 120.733;" xml:space="preserve">
<path style="fill:#5B5C5C;" d="M121.872,31.191c-0.75-18.686-12.441-30.666-31.085-30.926C70.094-0.022,49.38-0.196,28.699,0.393
	C14.861,0.787,5.609,8.504,0.897,21.529C0.675,22.141,0.302,22.698,0,23.281c0,24.275,0,48.55,0,72.825
	c4.056,10.937,10.71,19.353,22.615,22.199c3.776,0.903,7.773,1.175,11.674,1.209c26.005,0.23,52.011,0.289,78.017,0.484
	c3.884,0.029,7.765,0.478,11.694,0.735C120.317,90.744,123.066,60.922,121.872,31.191z M46.039,58.922c-0.05,0-0.1,0-0.15,0
	c0,3.247,0.141,6.501-0.033,9.739c-0.268,4.988-3.122,7.953-7.876,8.503c-3.903,0.452-8.464-2.336-8.856-6.777
	c-0.67-7.594-0.761-15.317-0.181-22.916c0.361-4.732,4.343-6.821,9.453-6.415c4.39,0.348,7.343,3.376,7.608,8.126
	C46.185,52.42,46.039,55.675,46.039,58.922z M93.484,58.922c-0.05,0-0.1,0-0.15,0c0,3.247,0.141,6.501-0.033,9.739
	c-0.268,4.988-3.122,7.953-7.876,8.503c-3.903,0.452-8.464-2.336-8.856-6.777c-0.67-7.594-0.761-15.317-0.181-22.916
	c0.361-4.732,4.343-6.821,9.453-6.415c4.39,0.348,7.343,3.376,7.608,8.126C93.63,52.42,93.484,55.675,93.484,58.922z"/>
</svg>
