<?xml version="1.0" encoding="iso-8859-1"?>
<!-- Generator: Adobe Illustrator 18.0.0, SVG Export Plug-In . SVG Version: 6.00 Build 0)  -->
<!DOCTYPE svg PUBLIC "-//W3C//DTD SVG 1.1//EN" "http://www.w3.org/Graphics/SVG/1.1/DTD/svg11.dtd">
<svg version="1.1" id="&#x56FE;&#x5C42;_1" xmlns="http://www.w3.org/2000/svg" xmlns:xlink="http://www.w3.org/1999/xlink" x="0px"
	 y="0px" viewBox="0 0 117.952 120.457" style="enable-background:new 0 0 117.952 120.457;" xml:space="preserve">
<path style="fill:#5B5C5C;" d="M49.285,27.521c-7.472-7.283-14.944-14.567-22.327-21.765c1.809-1.91,3.576-3.773,5.421-5.721
	c8.885,8.648,17.672,17.2,26.518,25.81C67.755,17.218,76.547,8.655,85.434,0c1.779,1.928,3.519,3.812,5.327,5.771
	c-7.263,7.08-14.801,14.427-22.338,21.774c0.022,0.087,0.044,0.173,0.066,0.26c0.377,0,0.754,0,1.131,0c12.579,0,25.158,0,37.737,0
	c6.204,0,10.585,4.332,10.588,10.511c0.007,17.143,0,34.286-0.006,51.429c-0.001,3.141,0.056,6.284-0.056,9.422
	c-0.176,4.914-4.217,9.145-9.167,9.386c-4.517,0.22-9.05,0.143-13.576,0.128c-0.896-0.003-1.379,0.293-1.835,1.033
	c-1.91,3.103-3.877,6.171-5.837,9.243c-1.281,2.008-3.387,2.003-4.678-0.02c-1.997-3.127-3.983-6.261-5.942-9.412
	c-0.378-0.608-0.805-0.836-1.533-0.835c-11.338,0.023-22.676,0.024-34.014-0.001c-0.738-0.002-1.142,0.256-1.516,0.859
	c-1.939,3.124-3.91,6.228-5.886,9.33c-1.352,2.123-3.432,2.102-4.786-0.034c-1.952-3.077-3.922-6.142-5.831-9.245
	c-0.427-0.694-0.908-0.913-1.699-0.91c-3.956,0.012-7.927,0.169-11.866-0.109c-5.974-0.421-9.704-4.666-9.711-10.67
	C-0.005,87.65,0.003,77.391,0.003,67.132c0-9.557-0.008-19.115,0.003-28.672c0.006-5.525,3.297-9.518,8.679-10.544
	c0.554-0.106,1.134-0.106,1.702-0.107c12.545-0.006,25.091-0.004,37.636-0.004c0.389,0,0.777,0,1.165,0
	C49.221,27.71,49.253,27.616,49.285,27.521z"/>
</svg>
