<?xml version="1.0" encoding="iso-8859-1"?>
<!-- Generator: Adobe Illustrator 18.0.0, SVG Export Plug-In . SVG Version: 6.00 Build 0)  -->
<!DOCTYPE svg PUBLIC "-//W3C//DTD SVG 1.1//EN" "http://www.w3.org/Graphics/SVG/1.1/DTD/svg11.dtd">
<svg version="1.1" id="&#x56FE;&#x5C42;_1" xmlns="http://www.w3.org/2000/svg" xmlns:xlink="http://www.w3.org/1999/xlink" x="0px"
	 y="0px" viewBox="0 0 123.953 109.689" style="enable-background:new 0 0 123.953 109.689;" xml:space="preserve">
<path style="fill:#5B5C5C;" d="M9.021,0c35.371,0,70.742,0,106.113,0c0.764,0.278,1.546,0.514,2.289,0.84
	c3.843,1.69,6.52,4.806,6.522,9.364c0.004,12.347,0.026,24.695-0.016,37.042c-0.009,2.775-0.12,5.563-0.416,8.32
	c-0.62,5.766-2.088,11.326-4.386,16.654c-4.101,9.504-10.295,17.364-18.315,23.769c-9.679,7.73-20.705,12.168-32.956,13.406
	c-5.979,0.604-11.944,0.263-17.858-0.927C35.05,105.459,22.794,97.893,13.164,86.04C4.263,75.083,0.081,62.354,0.022,48.229
	C-0.03,35.684,0.03,23.138,0.003,10.592C-0.006,6.18,2.426,2.646,6.461,0.947C7.299,0.595,8.167,0.314,9.021,0z M62.068,55.587
	c-0.22-0.185-0.351-0.283-0.469-0.396c-7.491-7.164-14.985-14.324-22.467-21.497c-2.203-2.112-4.743-3.026-7.787-2.547
	c-4.2,0.66-7.415,4.944-6.902,9.174c0.276,2.276,1.291,4.142,2.858,5.699c2.277,2.262,4.632,4.442,6.954,6.658
	c2.345,2.238,4.691,4.476,7.035,6.715c2.369,2.261,4.74,4.52,7.104,6.786c2.743,2.631,5.441,5.312,8.228,7.895
	c3.236,2.999,7.635,2.984,10.93-0.012c2.081-1.893,4.1-3.855,6.138-5.795c2.443-2.326,4.874-4.665,7.314-6.994
	c2.273-2.171,4.56-4.327,6.825-6.507c3.118-3.001,6.284-5.955,9.308-9.051c2.079-2.129,3.01-4.812,2.426-7.803
	c-0.64-3.279-2.646-5.51-5.799-6.5c-3.147-0.988-6.035-0.291-8.442,1.993c-6.254,5.933-12.468,11.909-18.701,17.865
	C65.125,52.697,63.619,54.116,62.068,55.587z"/>
</svg>
