<?xml version="1.0" encoding="iso-8859-1"?>
<!-- Generator: Adobe Illustrator 18.0.0, SVG Export Plug-In . SVG Version: 6.00 Build 0)  -->
<!DOCTYPE svg PUBLIC "-//W3C//DTD SVG 1.1//EN" "http://www.w3.org/Graphics/SVG/1.1/DTD/svg11.dtd">
<svg version="1.1" id="&#x56FE;&#x5C42;_1" xmlns="http://www.w3.org/2000/svg" xmlns:xlink="http://www.w3.org/1999/xlink" x="0px"
	 y="0px" viewBox="0 0 107.155 118.938" style="enable-background:new 0 0 107.155 118.938;" xml:space="preserve">
<path style="fill-rule:evenodd;clip-rule:evenodd;fill:#5B5C5C;" d="M107.118,79.438c-2.48-14.488-12.894-23.98-12.894-23.98
	c1.488-13.154-3.967-15.487-3.967-15.487C89.109-0.729,54.309-0.016,53.578,0.003c-0.731-0.019-35.537-0.732-36.68,39.967
	c0,0-5.455,2.333-3.967,15.487c0,0-10.414,9.492-12.894,23.98c0,0-1.324,24.48,11.902,2.998c0,0,2.975,8.158,8.43,15.487
	c0,0-9.754,3.332-8.926,11.99c0,0-0.332,9.657,20.828,8.993c0,0,14.877-1.164,19.34-7.494h1.949h0.035h1.949
	c4.463,6.33,19.34,7.494,19.34,7.494c21.155,0.665,20.828-8.993,20.828-8.993c0.823-8.658-8.926-11.99-8.926-11.99
	c5.455-7.329,8.43-15.487,8.43-15.487C108.437,103.918,107.118,79.438,107.118,79.438z"/>
</svg>
