<?xml version="1.0" encoding="utf-8"?>
<!-- Generator: Adobe Illustrator 18.0.0, SVG Export Plug-In . SVG Version: 6.00 Build 0)  -->
<!DOCTYPE svg PUBLIC "-//W3C//DTD SVG 1.1//EN" "http://www.w3.org/Graphics/SVG/1.1/DTD/svg11.dtd">
<svg version="1.1" id="图层_1" xmlns="http://www.w3.org/2000/svg" xmlns:xlink="http://www.w3.org/1999/xlink" x="0px" y="0px"
	 viewBox="0 0 595.3 841.9" enable-background="new 0 0 595.3 841.9" xml:space="preserve">
<path fill="#5B5C5C" d="M356.7,305.6l-61.4-92.7L238.6,304l56.8,79L356.7,305.6z"/>
<path fill="#5B5C5C" d="M546.8,459.1v66.9l-18.2,9.6l-13.8-14.1v-70.5l-89-96.7L318.4,466.7v51.7l-20.7,17.2l-20.7-17.2v-51.7
	L169.5,354.2l-89,96.7v70.5l-13.8,14.1l-18.2-9.6v-66.9L0,366.3l17.6,100.4v162.4h30.9l121-162.4L297.6,605l128.1-138.3l121,162.4
	h30.9V466.7l17.6-100.4L546.8,459.1z"/>
<path fill="#5B5C5C" d="M106.6,629.1h139.6l-69-84.9L106.6,629.1z"/>
<path fill="#5B5C5C" d="M336.8,629.1h150.4l-69.1-84.9L336.8,629.1z"/>
</svg>
