<?xml version="1.0" encoding="iso-8859-1"?>
<!-- Generator: Adobe Illustrator 18.0.0, SVG Export Plug-In . SVG Version: 6.00 Build 0)  -->
<!DOCTYPE svg PUBLIC "-//W3C//DTD SVG 1.1//EN" "http://www.w3.org/Graphics/SVG/1.1/DTD/svg11.dtd">
<svg version="1.1" id="&#x56FE;&#x5C42;_1" xmlns="http://www.w3.org/2000/svg" xmlns:xlink="http://www.w3.org/1999/xlink" x="0px"
	 y="0px" viewBox="0 0 120.294 110.945" style="enable-background:new 0 0 120.294 110.945;" xml:space="preserve">
<path style="fill-rule:evenodd;clip-rule:evenodd;fill:none;" d="M103.264,80.266c0,0-4.734-0.322-11.913-0.996
	c0.152,0.475,0.307,0.958,0.464,1.454C98.763,80.515,103.264,80.266,103.264,80.266z"/>
<path style="fill:#5B5C5C;" d="M120.15,39.972c-2.639-3.495-41.569-7.879-41.569-7.879S66.114-1.314,60.235,0.04
	C54.36,1.395,42.813,34.194,42.813,34.194S1.631,36.158,0.063,41.817c-1.557,5.661,26.496,28.154,26.496,28.154
	s-10.445,36.55-2.842,40.311c4.676,2.311,34.949-20.196,34.949-20.196s31.381,24.046,38.835,20.501
	c2.798-1.329-2.017-18.285-5.686-29.864c-15.348,0.461-42.645,0.719-59.786-2.364c0.515-2.467,38.963-28.425,38.963-28.425
	l-40.718-5.692c0,0,24.862-5.815,58.491,0c0.766,1.527-37.199,27.729-36.712,29.858c13.654,2.51,28.996,4.202,39.299,5.169
	c-1.729-5.389-3.099-9.299-3.099-9.299S122.795,43.462,120.15,39.972z"/>
</svg>
