<?xml version="1.0" encoding="utf-8"?>
<!-- Generator: Adobe Illustrator 18.0.0, SVG Export Plug-In . SVG Version: 6.00 Build 0)  -->
<!DOCTYPE svg PUBLIC "-//W3C//DTD SVG 1.1//EN" "http://www.w3.org/Graphics/SVG/1.1/DTD/svg11.dtd">
<svg version="1.1" id="图层_1" xmlns="http://www.w3.org/2000/svg" xmlns:xlink="http://www.w3.org/1999/xlink" x="0px" y="0px"
	 viewBox="0 0 595.3 841.9" enable-background="new 0 0 595.3 841.9" xml:space="preserve">
<path fill="#5B5C5C" d="M294.8,502.3c-26,93.5-98.2,155.9-134.2,182.3c41,21.4,87.5,33.7,137,33.7c51.4,0,99.6-13.5,141.7-36.7
	C343,611.8,294.8,502.3,294.8,502.3z"/>
<path fill="#5B5C5C" d="M519.6,617.8c0.6-0.7,1.3-1.2,1.9-1.9c45.8-52.6,73.8-121.4,73.8-196.8c0-75.5-28-144.2-73.8-196.8
	c-45-51.7-107.4-87.4-178-98.5v224.9C364.1,506.5,470.6,586.4,519.6,617.8z"/>
<path fill="#5B5C5C" d="M252.8,352.1V123.6C109.8,145.3,0,269.2,0,419.1C0,496,29.1,566,76.6,619
	C257.8,491.7,252.8,352.1,252.8,352.1z"/>
</svg>
