<?xml version="1.0" encoding="iso-8859-1"?>
<!-- Generator: Adobe Illustrator 18.0.0, SVG Export Plug-In . SVG Version: 6.00 Build 0)  -->
<!DOCTYPE svg PUBLIC "-//W3C//DTD SVG 1.1//EN" "http://www.w3.org/Graphics/SVG/1.1/DTD/svg11.dtd">
<svg version="1.1" id="&#x56FE;&#x5C42;_1" xmlns="http://www.w3.org/2000/svg" xmlns:xlink="http://www.w3.org/1999/xlink" x="0px"
	 y="0px" viewBox="0 0 50.374 108.77" style="enable-background:new 0 0 50.374 108.77;" xml:space="preserve">
<path style="fill:#5B5C5C;" d="M0,87.57c0.144-0.867,0.273-1.737,0.433-2.601c0.731-3.948,2.519-7.398,5.131-10.427
	c4.322-5.012,9.862-7.986,16.328-9.25c4.354-0.851,8.709-0.703,12.992,0.566c0.221,0.065,0.449,0.104,0.811,0.186
	c-1.03-1.45-1.977-2.785-2.927-4.119C23.794,49.322,14.821,36.718,5.841,24.119c-0.64-0.898-0.87-1.805-0.58-2.919
	c0.729-2.796,2.488-4.831,4.731-6.506c3.564-2.662,7.647-4.242,11.923-5.326c2.401-0.608,4.882-0.899,7.289-1.488
	c2.048-0.501,4.089-1.103,6.047-1.874C38.468,4.74,41.402,3.017,43.503,0c0.339,1.707,0.766,3.402,0.99,5.123
	c0.181,1.387,0.222,2.811,0.144,4.209c-0.317,5.648-2.6,10.324-7.117,13.875c-3.022,2.376-6.53,3.506-10.282,3.955
	c-2.24,0.268-4.501,0.354-6.81,0.525c0.033,0.083,0.08,0.261,0.168,0.416c4.326,7.588,8.656,15.175,12.986,22.761
	c4.255,7.454,8.514,14.905,12.763,22.361c0.899,1.577,1.933,3.106,2.615,4.774c2.04,4.995,1.821,10.023-0.328,14.932
	c-2.952,6.744-8.171,11.144-14.953,13.833c-3.942,1.564-8.065,2.234-12.29,1.934c-6.48-0.46-12.167-2.743-16.567-7.658
	C1.467,97.293,0,92.473,0,87.57C0.144,86.702,0,88.22,0,87.57z"/>
</svg>
