<?xml version="1.0" encoding="iso-8859-1"?>
<!-- Generator: Adobe Illustrator 18.0.0, SVG Export Plug-In . SVG Version: 6.00 Build 0)  -->
<!DOCTYPE svg PUBLIC "-//W3C//DTD SVG 1.1//EN" "http://www.w3.org/Graphics/SVG/1.1/DTD/svg11.dtd">
<svg version="1.1" id="&#x56FE;&#x5C42;_1" xmlns="http://www.w3.org/2000/svg" xmlns:xlink="http://www.w3.org/1999/xlink" x="0px"
	 y="0px" viewBox="0 0 96 123.74" style="enable-background:new 0 0 96 123.74;" xml:space="preserve">
<path style="fill:#5B5C5C;" d="M57.567,88.323c-7.69,0-14.925-3.039-17.401-7.75c0,0-4.14,16.374-5.011,19.531
	c-3.088,11.177-12.163,22.357-12.858,23.262c-0.493,0.634-1.582,0.438-1.696-0.408c-0.197-1.421-2.513-15.512,0.212-27.008
	c1.37-5.77,9.084-39.926,9.084-39.926s-2.197-3.336-2.197-10.042c0-10.543,6.124-17.755,13.745-17.755
	c6.478,0,9.597,4.205,9.597,10.02c0,6.496-4.14,16.224-6.282,25.227C42.974,71.01,48.545,76.515,56,76.515
	c13.495,0,22.585-16.652,22.585-37.15c0-15.574-10.514-27.603-29.639-27.603c-21.601,0-34.286,14.687-34.286,35.26
	c0,6.195,1.779,9.715,4.647,13.082c1.317,1.556,1.499,2.191,1.021,3.973c-0.348,1.299-1.845,4.457-2.179,5.695
	c-0.469,1.813-1.938,2.448-3.564,1.783C4.632,67.505,0,56.629,0,44.394C0,24.213,17.06,0,50.907,0C78.101,0,96,19.637,96,40.723
	C96,68.593,80.462,88.323,57.567,88.323z"/>
</svg>
