<?xml version="1.0" encoding="iso-8859-1"?>
<!-- Generator: Adobe Illustrator 18.0.0, SVG Export Plug-In . SVG Version: 6.00 Build 0)  -->
<!DOCTYPE svg PUBLIC "-//W3C//DTD SVG 1.1//EN" "http://www.w3.org/Graphics/SVG/1.1/DTD/svg11.dtd">
<svg version="1.1" id="&#x56FE;&#x5C42;_1" xmlns="http://www.w3.org/2000/svg" xmlns:xlink="http://www.w3.org/1999/xlink" x="0px"
	 y="0px" viewBox="0 0 121.962 108" style="enable-background:new 0 0 121.962 108;" xml:space="preserve">
<path style="fill:#5B5C5C;" d="M106.837,12.939C97.26,4.734,83.848,0,68.26,0C27.634,0,0,30.736,0,30.736l7.787,12.116
	c0,0,4.308,0.354,2.027-6.783c1.969-3.646,5.824-8.557,13.351-14.225c0,0,0,76.55,0,80.703c-3.245,0.898-7.534,2.586-4.61,5.452
	c4.992,0,18.658,0,22.369,0c2.953-2.896-1.699-4.639-4.533-5.452c0-3.115,0-19.038,0-19.038s15.337,5.902,31.869,5.902
	c14.527,0,27.743-4.237,37.574-11.89c9.83-7.609,16.166-18.971,16.127-31.957C121.99,32.814,116.423,21.113,106.837,12.939z
	 M94.982,71.151c-6.798,6.58-16.683,10.741-28.087,10.733c-12.722,0.006-23.432-2.409-30.503-5.822c0,0,0-2.089,0-17.343
	c0-16.501,0-43.205,0-43.205c7.758-5.404,20.342-8.734,30.503-8.714c12.346,0.009,22.041,4.582,28.595,11.523
	c6.544,6.982,10.117,16.256,10.149,27.036C105.6,55.864,101.78,64.516,94.982,71.151z"/>
</svg>
