<?xml version="1.0" encoding="utf-8"?>
<!-- Generator: Adobe Illustrator 18.0.0, SVG Export Plug-In . SVG Version: 6.00 Build 0)  -->
<!DOCTYPE svg PUBLIC "-//W3C//DTD SVG 1.1//EN" "http://www.w3.org/Graphics/SVG/1.1/DTD/svg11.dtd">
<svg version="1.1" id="图层_1" xmlns="http://www.w3.org/2000/svg" xmlns:xlink="http://www.w3.org/1999/xlink" x="0px" y="0px"
	 viewBox="0 0 595.3 841.9" enable-background="new 0 0 595.3 841.9" xml:space="preserve">
<path fill="#5B5C5C" d="M19.2,531.4c23.8,59.9,69.7,111.3,125.2,145V419.8C134.5,428.9,22.6,528.2,19.2,531.4z"/>
<path fill="#5B5C5C" d="M172.8,550.6c0,6.2,0,134.9,0,139.2c30.2,13.6,64.8,25.8,97.4,28.8h54.6c102.8-9.6,196.1-73.7,241.7-168
	C555.7,550.6,179.2,550.6,172.8,550.6z"/>
<path fill="#5B5C5C" d="M451.3,166.5v355.2h124.8c11-31.8,19.2-66.8,19.2-100.2C595.3,317.9,539.8,220.5,451.3,166.5z"/>
<path fill="#5B5C5C" d="M297.6,123.3c-35.5,0-72,6.6-105.6,19.2c7.9,7.2,220.3,197.2,230.4,206.4V152.1
	C383.6,134.4,340.2,123.3,297.6,123.3z"/>
<path fill="#5B5C5C" d="M162,156.4C62.1,207.8,0,309.1,0,421.6c0,25.6,2.6,55.1,9.6,81c8.1-7.4,258.9-240.1,264-244.8
	C268.6,253.1,165.4,159.5,162,156.4z"/>
</svg>
