<?xml version="1.0" encoding="iso-8859-1"?>
<!-- Generator: Adobe Illustrator 18.0.0, SVG Export Plug-In . SVG Version: 6.00 Build 0)  -->
<!DOCTYPE svg PUBLIC "-//W3C//DTD SVG 1.1//EN" "http://www.w3.org/Graphics/SVG/1.1/DTD/svg11.dtd">
<svg version="1.1" id="&#x56FE;&#x5C42;_1" xmlns="http://www.w3.org/2000/svg" xmlns:xlink="http://www.w3.org/1999/xlink" x="0px"
	 y="0px" viewBox="0 0 595.28 841.89" style="enable-background:new 0 0 595.28 841.89;" xml:space="preserve">
<path style="fill:#727171;" d="M378.354,683.585c-14.513,1.651-29.084,2.462-43.65,3.423c-4.535,0.068-9.104-0.534-13.59,0.626
	c-12.702,0-25.399,0-38.096,0c-0.646-1.311-1.981-0.986-2.996-1.078c-13.984-1.267-27.987-2.306-41.956-3.724
	c-8.594-0.874-17.135-2.292-25.7-3.467c7.06-0.286,14.052-0.005,21.043,0.33c31.206,1.5,62.305,0.223,93.2-4.37
	c13.857-2.059,27.822-3.782,41.378-7.453c24.573-6.657,49.02-13.678,72.084-24.802c3.71-1.792,4.695-4.006,4.919-7.749
	c0.806-13.561,1.821-27.118,3.01-40.65c0.262-2.981-0.194-3.404-3.015-2.549c-14.056,4.273-28.127,8.502-42.456,11.804
	c-16.227,3.739-32.721,5.836-49.166,8.22c-10.522,1.525-21.073,3.544-31.653,3.87c-17.892,0.554-35.77,1.976-53.686,1.588
	c-0.68-0.015-1.602-0.456-2.059,0.602c0.194,0.286,0.364,0.573,0.568,0.84c12.231,16.037,24.52,32.022,38.615,46.51
	c-0.17,0.136-0.325,0.277-0.476,0.437c-1.704-0.418-2.976-1.593-4.404-2.491c-20.169-12.653-38.018-28.191-55.08-44.665
	c-2.19-2.117-4.545-2.942-7.492-3.321c-16.601-2.132-33.235-4.147-49.472-8.41c-1.044-0.272-2.369-0.291-3.132-1.597
	c14.44-1.685,28.647-3.341,43.335-5.055c-0.825-1.015-1.233-1.534-1.656-2.039c-11.279-13.338-21.922-27.152-31.23-41.951
	c-1.282-2.034-2.719-2.952-5.118-3.054c-3.841-0.16-7.662-0.893-11.503-1.015c-18.252-0.583-36.357-2.641-54.347-5.608
	c-23-3.792-45.646-9.167-67.903-16.154c-1.83-0.573-3.782-0.879-6.026-2.491c1.733-0.107,2.704-0.233,3.68-0.219
	c33.566,0.456,67.087-1.058,100.614-2.326c6.793-0.257,13.581-0.665,20.373-0.971c2.034-0.092,2.554-0.777,1.573-2.724
	c-8.245-16.353-12.886-34.007-18.378-51.346c-2.515-7.943-2.433-7.808-10.862-8.808c-16.169-1.918-32.342-4.006-48.326-7.074
	c-24.457-4.695-48.394-11.405-71.676-20.325c-3.185-1.219-6.283-2.67-9.42-4.011c1.321-0.544,2.447-0.549,3.574-0.544
	c19.383,0.102,38.756,0.825,58.134,1.194c21.985,0.422,43.946-1.088,65.912-1.869c4.88-0.175,4.982-0.223,4.307-5.045
	c-1.369-9.774-2.068-19.606-1.869-29.472c0.189-9.517,0.432-19.038,0.952-28.54c0.175-3.234-0.524-4.346-3.957-4.268
	c-8.269,0.18-16.552,0.286-24.811-0.422c-14.09-1.214-28.123-2.942-42.111-5.021c-17.212-2.559-34.454-4.88-51.205-9.92
	C18.203,343.729,9.06,341.661,0,339.306c0-0.228,0-0.452,0-0.68c1.248-0.005,2.491-0.01,3.739-0.01
	c33.192,0.019,66.393,1.724,99.565-0.675c5.419-0.393,10.862-0.481,16.271-0.976c10.128-0.932,20.233-2.17,30.366-3.02
	c2.535-0.214,3.452-0.991,3.884-3.486c1.34-7.778,2.67-15.581,4.579-23.233c5.661-22.68,12.736-44.932,21.301-66.694
	c1.408-3.578,2.981-7.094,4.482-10.638c-1.952,14.926-4.37,29.594-5.467,44.481c-1.316,17.844-2.195,35.702-3.103,53.56
	c-0.117,2.263,0.762,2.763,2.758,2.457c10.939-1.665,22.01-2.714,32.803-5.04c41.66-8.978,82.717-19.922,121.726-37.625
	c15.984-7.254,31.701-14.935,46.758-23.957c1.194-0.719,2.933-1.025,1.52-3.389c-9.352-15.63-20.427-29.9-33.235-42.839
	c-0.325-0.248-0.651-0.49-0.976-0.738l0.044,0.034c-0.238-0.238-0.481-0.476-0.719-0.719l0.039,0.039
	c-0.238-0.238-0.481-0.476-0.719-0.714l0.039,0.034c-0.238-0.238-0.481-0.476-0.719-0.719l0.039,0.039
	c-0.238-0.238-0.481-0.476-0.719-0.719l0.039,0.034c-0.238-0.238-0.481-0.481-0.719-0.719l0.039,0.039
	c-0.238-0.238-0.481-0.481-0.719-0.719l0.039,0.039c-0.243-0.238-0.481-0.476-0.723-0.714l0.039,0.039
	c-0.238-0.238-0.481-0.476-0.719-0.714l0.034,0.034c-0.238-0.238-0.481-0.476-0.719-0.714l0.034,0.034
	c-0.243-0.238-0.481-0.471-0.723-0.709l0.034,0.029c-0.243-0.233-0.486-0.461-0.723-0.694l0.029,0.024
	c-0.238-0.228-0.481-0.456-0.719-0.68l0.015,0.01c-0.238-0.218-0.471-0.437-0.704-0.66l0,0c-0.67-0.578-1.345-1.156-2.015-1.729
	c-8.045-7.506-16.455-14.547-25.816-20.393c-1.097-0.685-2.18-1.092-3.472-1.141c-6.793-0.257-13.581-0.733-20.378-0.816
	c-22.68-0.272-45.262,0.942-67.738,4.248c-22.495,3.311-44.816,7.395-66.767,13.372c-4.477,1.219-8.978,2.35-13.775,3.608
	c0.286-0.699,0.316-0.971,0.456-1.068c0.466-0.311,0.966-0.578,1.476-0.825c32.857-15.858,66.772-28.759,102.372-37.057
	c23.923-5.579,48.049-9.759,72.579-11.391c7.929,0,15.858,0,23.792,0c4.409,0.248,8.817,0.52,13.231,0.738
	c12.556,0.622,25.127,1.602,37.362,4.365c30.531,6.89,59.498,17.645,85.47,35.707c12.241,8.516,23.495,18.12,34.158,28.448
	c11.838,11.469,21.388,24.845,31.05,38.12c8.696,11.954,15.154,25.209,22.267,38.071c6.467,11.697,11.59,24.127,15.732,36.756
	c8.143,24.84,14.503,50.176,16.013,76.468c0.063,1.146-0.078,2.544,1.209,3.331c0,10.429,0,20.864,0,31.293
	c-0.796,0.354-0.631,1.107-0.714,1.748c-1.238,9.405-1.486,18.917-3.341,28.254c-3.307,16.615-6.608,33.294-13.178,48.952
	c-13.59,32.386-31.619,61.979-56.891,86.762C481.037,649.233,433.963,673.32,378.354,683.585z M427.132,369.249
	c0.01,0.034-0.243-0.835-0.471-1.704c-6.152-23.573-14.042-46.515-24.598-68.51c-1.996-4.156-1.976-4.321-6.021-1.792
	c-22.442,14.037-46.423,24.947-70.967,34.609c-26.137,10.289-53.031,17.936-80.853,22.384c-11.838,1.894-23.617,3.962-35.571,4.914
	c-9.813,0.782-19.611,1.767-29.419,2.598c-1.442,0.121-2.369,0.311-2.156,2.136c0.398,3.37,0.573,6.764,0.927,10.138
	c0.971,9.327,2.005,18.65,2.967,27.982c0.791,7.647,2.233,15.183,3.816,22.699c0.272,1.282,0.466,2.199,2.331,2.025
	c13.959-1.326,27.962-2.243,41.893-3.782c22.233-2.457,44.311-6.06,66.238-10.42c27.467-5.458,54.687-11.935,81.285-20.844
	c16.406-5.496,32.624-11.449,48.273-18.858C425.967,372.289,427.622,372.138,427.132,369.249z M208.031,464.28
	c-3.287,0-6.574,0-9.861,0c-4.462,0.005-4.399-0.01-3.423,4.418c3.894,17.63,10.92,34.187,17.276,50.977
	c0.694,1.835,1.748,2.03,3.379,1.831c7.191-0.869,14.382-1.733,21.582-2.496c29.133-3.098,58.124-7.181,86.825-13.09
	c38.97-8.021,77.527-17.586,114.821-31.706c5.962-2.258,6.026-2.18,5.603-8.419c-1.18-17.402-3.981-34.59-6.798-51.778
	c-0.335-2.039-1.224-1.733-2.52-1.16c-3.098,1.379-6.205,2.734-9.308,4.113c-37.664,16.703-76.915,28.443-117.064,37.324
	c-14.697,3.248-29.638,4.938-44.626,6.346C245.32,462.386,226.729,464.134,208.031,464.28z M448.797,511.003
	c-72.084,25.986-145.138,41.834-221.189,42.485c0.175,0.83,0.18,1.18,0.316,1.461c6.919,14.285,14.994,27.924,23.219,41.485
	c0.806,1.33,1.806,1.491,3.132,1.306c19.956-2.734,39.989-4.977,59.848-8.283c42.043-6.997,83.839-15.28,125.037-26.36
	c9.619-2.588,9.638-2.53,9.638-12.41C448.797,537.781,448.797,524.875,448.797,511.003z M463.984,351.765
	c0.51-0.301,0.893-0.534,1.287-0.762c18.737-10.847,34.396-25.345,48.889-41.232c1.175-1.287,1.306-2.253,0.262-3.773
	c-14.086-20.466-28.526-40.611-47.68-56.838c-1.981-1.68-3.122-1.763-5.059-0.117c-10.274,8.73-20.815,17.125-31.575,25.253
	c-4.059,3.064-4.108,3.175-1.427,7.696c6.861,11.585,13.624,23.224,19.543,35.328c5.171,10.57,9.725,21.408,14.188,32.284
	C462.756,350.439,462.79,351.585,463.984,351.765z M536.593,354.445c-1.219,0.801-2.258,1.461-3.273,2.156
	c-17.378,11.881-34.789,23.719-53.623,33.24c-2.583,1.306-3.205,2.607-2.433,5.477c3.311,12.313,6.613,24.641,8.915,37.202
	c1.151,6.278,2.467,12.522,3.744,18.946c20.752-10.711,39.722-23.35,57.445-37.897c1.146-0.942,1.321-1.84,1.044-3.214
	c-2.025-10.192-3.253-20.534-5.676-30.652C540.734,371.371,538.685,363.044,536.593,354.445z M551.567,464.134
	c-0.461,0.073-0.816,0.053-1.092,0.189c-17.834,8.881-35.658,17.785-53.507,26.642c-1.301,0.646-1.835,1.432-1.724,2.894
	c0.301,3.952,0.393,7.919,0.733,11.862c0.986,11.527,0.709,23.102,1.214,34.643c0.097,2.166,0.646,2.408,2.569,1.67
	c15.042-5.773,29.574-12.537,42.849-21.791c1.389-0.966,2.122-2.034,2.583-3.695c2.646-9.517,3.826-19.286,5.079-29.035
	C551.266,479.798,552.096,472.043,551.567,464.134z M432.094,223.067c-29.74-17.766-61.324-29.264-95.982-34.697
	c1.204,0.806,1.733,1.214,2.311,1.544c16.62,9.507,31.148,21.66,44.651,35.144c6.657,6.647,13.022,13.542,19.101,20.708
	c1.277,1.5,2.19,1.913,3.763,0.325c1.583-1.597,3.515-2.84,5.249-4.292C418.203,235.924,425.282,230.112,432.094,223.067z
	 M497.123,602.737c11.833-12.678,22.728-25.777,31.225-41.873c-2.2,0.845-3.544,1.321-4.855,1.874
	c-6.458,2.724-12.765,5.924-19.412,8.055c-5.355,1.719-7.487,4.346-7.079,10.06C497.511,588.006,497.123,595.221,497.123,602.737z"
	/>
<path style="fill:#727171;" d="M338.797,154.261c-0.015,0.199-0.015,0.398-0.01,0.597c-7.929,0-15.858,0-23.792,0
	c0.015-0.199,0.01-0.398-0.01-0.597C322.925,154.261,330.863,154.261,338.797,154.261z"/>
<path style="fill:#727171;" d="M334.704,687.003c-0.019,0.209-0.015,0.418,0.015,0.626c-4.535,0-9.07,0-13.605,0
	C325.595,686.474,330.164,687.076,334.704,687.003z"/>
<path style="fill:#727171;" d="M338.078,208.049c-1.078-0.102-1.685-0.757-2.015-1.729
	C336.738,206.898,337.408,207.476,338.078,208.049z"/>
<path style="fill:#727171;" d="M508.208,627.077c-0.053,1.058-0.787,1.306-1.661,1.389
	C507.101,628.005,507.654,627.543,508.208,627.077z"/>
<path style="fill:#727171;" d="M343.604,213.444c-0.238-0.238-0.481-0.481-0.719-0.719
	C343.123,212.968,343.361,213.206,343.604,213.444z"/>
<path style="fill:#727171;" d="M344.284,214.123c-0.238-0.238-0.481-0.481-0.719-0.719
	C343.803,213.647,344.041,213.885,344.284,214.123z"/>
<path style="fill:#727171;" d="M344.963,214.803c-0.238-0.238-0.481-0.476-0.719-0.719
	C344.488,214.327,344.726,214.565,344.963,214.803z"/>
<path style="fill:#727171;" d="M345.643,215.483c-0.238-0.238-0.481-0.476-0.719-0.719
	C345.167,215.007,345.405,215.245,345.643,215.483z"/>
<path style="fill:#727171;" d="M346.328,216.163c-0.238-0.238-0.481-0.476-0.719-0.714
	C345.847,215.687,346.085,215.925,346.328,216.163z"/>
<path style="fill:#727171;" d="M347.94,217.546c-0.325-0.248-0.651-0.49-0.976-0.738
	C347.289,217.056,347.615,217.299,347.94,217.546z"/>
<path style="fill:#727171;" d="M347.008,216.842c-0.238-0.238-0.481-0.476-0.719-0.719
	C346.527,216.367,346.77,216.604,347.008,216.842z"/>
<path style="fill:#727171;" d="M338.787,208.709c-0.238-0.218-0.471-0.437-0.704-0.66
	C338.316,208.272,338.554,208.491,338.787,208.709z"/>
<path style="fill:#727171;" d="M339.491,209.38c-0.238-0.228-0.481-0.456-0.719-0.68
	C339.016,208.928,339.253,209.156,339.491,209.38z"/>
<path style="fill:#727171;" d="M340.186,210.05c-0.243-0.233-0.486-0.461-0.723-0.694
	C339.705,209.588,339.948,209.821,340.186,210.05z"/>
<path style="fill:#727171;" d="M340.875,210.729c-0.243-0.238-0.481-0.471-0.723-0.709
	C340.395,210.254,340.632,210.491,340.875,210.729z"/>
<path style="fill:#727171;" d="M341.555,211.409c-0.238-0.238-0.476-0.476-0.719-0.714
	C341.079,210.928,341.317,211.171,341.555,211.409z"/>
<path style="fill:#727171;" d="M342.24,212.089c-0.238-0.238-0.481-0.476-0.719-0.714
	C341.759,211.608,341.997,211.846,342.24,212.089z"/>
<path style="fill:#727171;" d="M508.193,627.092"/>
<path style="fill:#727171;" d="M342.919,212.764c-0.243-0.238-0.481-0.476-0.719-0.714
	C342.439,212.288,342.681,212.526,342.919,212.764z"/>
<path style="fill:#727171;" d="M305.149,665.542c-0.01,0.272-0.019,0.544-0.029,0.816c-0.151-0.126-0.296-0.253-0.447-0.379
	C304.819,665.824,304.979,665.678,305.149,665.542z"/>
</svg>
