<?xml version="1.0" encoding="utf-8"?>
<!-- Generator: Adobe Illustrator 18.0.0, SVG Export Plug-In . SVG Version: 6.00 Build 0)  -->
<!DOCTYPE svg PUBLIC "-//W3C//DTD SVG 1.1//EN" "http://www.w3.org/Graphics/SVG/1.1/DTD/svg11.dtd">
<svg version="1.1" id="图层_1" xmlns="http://www.w3.org/2000/svg" xmlns:xlink="http://www.w3.org/1999/xlink" x="0px" y="0px"
	 viewBox="0 0 595.3 841.9" enable-background="new 0 0 595.3 841.9" xml:space="preserve">
<path fill="#5B5C5C" d="M444.3,229.1l-20,11.3l40.9,74.2L380,316v24l84.6,0.6l23-38.9L444.3,229.1L444.3,229.1z"/>
<path fill="#5B5C5C" d="M595.3,340.1v-24l-85.2-1.5L488.5,355L531,427l20.3-11.9l-41.2-74.5L595.3,340.1L595.3,340.1z"/>
<path fill="#5B5C5C" d="M551.3,240.3L531,229.1l-43.4,72.7l22.4,12.8L551.3,240.3L551.3,240.3z"/>
<path fill="#5B5C5C" d="M470.7,416.1c-4.6-8.8-11.8-15.8-22.4-21c-10-5.2-23.7-7.6-40.9-7.6c-17.3,0-30.9,2.4-40.9,7.6
	c-10.6,5.2-18.2,12.2-22.7,21c-4.5,9.1-7,19.2-6.7,30.4v107.3c-0.3,11.5,2.1,21.6,6.7,30.4c4.6,8.8,12.1,15.8,22.7,21
	c10,5.2,23.6,7.6,40.9,7.6c17,0,30.6-2.4,40.9-7.6c10.3-5.2,17.9-12.2,22.4-21c4.5-8.8,7-18.9,6.7-30.4V446.5
	C477.6,435.2,475.2,425.2,470.7,416.1L470.7,416.1z M407.3,412.7c15.8,0,26.7,3,32.8,8.8c6.4,5.8,9.1,14.9,8.8,27.4v102.5
	c0.3,12.2-2.4,21.3-8.8,27.4c-6.1,5.8-17,8.8-32.8,8.8c-16.1,0-27-3-33.1-8.8c-6.4-6.1-9.1-15.2-8.8-27.4V448.9
	c-0.3-12.5,2.7-21.6,8.8-27.4C380.6,415.8,391.5,412.7,407.3,412.7L407.3,412.7z"/>
<path fill="#5B5C5C" d="M283.5,411.8c5.8,0.6,10.6,1.2,14.9,2.1l3-23.7c-5.8-1.5-11.8-2.4-18.8-3.3c-7-0.6-13-0.9-18.5-0.9
	c-21.2-0.3-38.5,2.4-51.6,7.6c-13,4.9-22.4,13.1-28.5,24.3c-6.1,11.3-9.1,26.5-8.8,45v97.6c-0.3,10.6,1.8,20.1,6.1,28
	c4.6,7.6,11.5,13.7,21.2,17.9c9.7,4.3,22.7,6.4,38.8,6.4c17.9,0,31.5-2.4,40.9-7.6c9.4-5.2,16.1-12.8,19.4-22.2
	c3.3-9.7,5.2-21.3,4.9-34.7v-9.7c0.3-17.9-4.2-31.6-13-40.4c-8.8-9.1-24-13.7-45.2-13.7c-7.6,0-15.5,0.9-23.7,2.4
	c-8.2,1.5-15.5,3-21.2,5.2v-28.9c-0.3-13.7,1.5-24.3,5.2-31.9c3.6-7.6,10.3-12.8,19.7-15.8c9.4-3.3,23-4.9,40.3-4.6
	C272.9,410.9,277.8,411.2,283.5,411.8L283.5,411.8z M271.4,516.1c4.9,4.6,7.3,12.2,7,22.5v17.9c0,7.3-1.2,13.4-3.3,17.9
	c-2.1,4.6-5.8,7.9-11.2,10c-5.5,2.1-13,3-22.4,3c-13,0.3-22.4-2.1-28.8-6.7c-6.1-4.5-9.1-12.5-9.1-24.3v-38
	c5.8-2.4,12.1-4.6,19.7-6.4c7.6-1.8,15.2-2.7,22.7-2.7C258.1,509.1,266.6,511.6,271.4,516.1L271.4,516.1z"/>
<path fill="#5B5C5C" d="M10,405.1c-4.2,8.8-6.4,19.8-6.4,32.8c-0.3,15.5,0.9,27.4,3.6,36.2c2.7,8.8,8.8,15.5,17.6,20.4
	c8.8,4.9,22.1,9.1,40,13.1c11.5,2.8,20.6,4.9,27,7c6.4,2.1,11.2,4.9,13.9,7.6c2.7,2.7,4.6,6.7,5.2,11.2c0.6,4.6,0.9,10.6,0.9,18.3
	c0,8.5-1.2,15.5-3.3,20.7c-2.4,5.2-6.7,8.8-13,11.3c-6.4,2.4-15.5,3.6-27.6,3.3c-10.3,0-20.9-0.9-31.5-2.4
	c-10.6-1.5-21.2-4-31.5-7.3L0,601c10,4,20.9,7,32.8,9.1c11.8,1.8,23.4,2.7,34.6,2.7c20.3,0,36.1-2.4,46.7-7.3
	c10.6-4.9,17.9-11.9,21.8-21c3.6-9.1,5.5-20.4,5.2-33.4c0.3-11.3-0.3-20.4-1.5-27.4c-0.9-7.3-3.6-13.4-7.6-17.9
	c-3.9-4.6-10.3-8.8-18.8-12.2c-8.5-3.7-20.3-7.3-35.2-10.9c-11.2-2.7-19.7-4.9-26.1-7c-6.4-2.1-10.6-4.6-13.3-7.3
	c-2.7-2.7-4.6-6.4-4.9-10.9c-0.6-4.6-0.9-10.9-0.6-18.6c-0.3-8.8,0.9-15.5,3-20.4c2.1-4.9,6.7-8.5,13-10.6c6.4-2.1,15.5-3,27.6-2.7
	c9.4,0,19.4,0.6,29.4,1.5c10,1.2,19.7,2.7,28.8,4.9l2.4-24.9c-9.4-2.1-19.4-4-30-5.5c-10.6-1.2-21.2-1.8-31.2-1.8
	c-18.5,0-33.1,2.1-43.7,6.4C21.8,389.9,14.3,396.3,10,405.1L10,405.1z"/>
</svg>
