<?xml version="1.0" encoding="iso-8859-1"?>
<!-- Generator: Adobe Illustrator 18.0.0, SVG Export Plug-In . SVG Version: 6.00 Build 0)  -->
<!DOCTYPE svg PUBLIC "-//W3C//DTD SVG 1.1//EN" "http://www.w3.org/Graphics/SVG/1.1/DTD/svg11.dtd">
<svg version="1.1" id="&#x56FE;&#x5C42;_1" xmlns="http://www.w3.org/2000/svg" xmlns:xlink="http://www.w3.org/1999/xlink" x="0px"
	 y="0px" viewBox="0 0 595.28 841.89" style="enable-background:new 0 0 595.28 841.89;" xml:space="preserve">
<path style="fill:#5B5C5C;" d="M171.965,158.152C77.116,158.152,0,236.197,0,332.095c0,34.321,9.893,66.288,26.91,93.307
	c13.225,10.971,20.567,3.327,24.141-3.604h-0.015c1.577-7.164-0.662-12.755-2.037-15.386c-0.331-0.539-0.628-1.063-0.959-1.617
	c-0.015,0-0.015-0.01-0.015-0.01v-0.035c-12.296-21.358-19.37-46.176-19.37-72.656c0-79.924,64.291-144.927,143.315-144.927
	s143.295,65.008,143.295,144.927c0,79.929-64.276,144.956-143.295,144.956c-10.209,0-20.132-1.187-29.708-3.253v0.035
	c0,0-7.836-1.414-12.839,0c-0.662,0.227-1.29,0.47-2.007,0.796c-0.035,0.01-0.035,0.035-0.084,0.049l-0.015,0.02
	c-6.244,2.848-12.741,8.78-6.645,20.606c0,0,6.496,4.642,8.222,5.102c13.754,3.639,28.2,5.641,43.081,5.641
	c94.83,0,171.945-78.02,171.945-173.948C343.91,236.197,266.795,158.152,171.965,158.152L171.965,158.152z"/>
<path style="fill:#5B5C5C;" d="M227.441,297.478c16.366,24.495,11.844,59.506-11.386,78.089
	c-8.056,7.575-19.591,11.343-30.296,12.82c-12.733,1.171-24.654-1.681-35.774-7.955c-2.815-1.665-5.616-3.65-8.019-5.873
	c-0.8-0.158-0.406-0.198-1.191,0.549c-0.533,0.507-0.993,1.136-1.476,1.693c-1.796,2.072-3.528,4.21-5.248,6.346
	c-3.193,3.965-6.267,8.02-9.28,12.123c-6.306,8.588-11.948,17.56-17.641,26.555c-12.25,19.356-21.857,40.889-29.814,62.32
	c-8.147,21.943-14.334,44.587-18.786,67.561c-5.141,26.524-7.754,53.259-8.987,80.226c-0.783,17.128-0.107,34.225,0.273,51.348
	c0.561,6.329,0.917,13.246-5.236,17.007c-5.36,3.276-13.208,2.207-17.563-2.277c-4.137-4.26-3.885-10.261-4.091-15.785
	c-0.23-6.161-0.467-12.316-0.575-18.481c-0.451-25.806,0.905-51.46,3.522-77.123c2.481-24.328,7.063-48.597,13.341-72.221
	c6.097-22.943,14.02-45.191,23.684-66.869c9.295-20.85,20.843-41.276,34.3-59.736c6.051-8.301,11.981-16.637,18.495-24.595
	c1.736-2.12,3.475-4.253,5.276-6.318c0.969-1.111,1.915-2.243,2.899-3.34c0.553-0.616,1.103-1.233,1.652-1.852
	c0.59-0.665-1.082-4.11-1.362-5.082c-4.105-14.259-2.79-30.197,4.209-43.361c8.677-16.318,24.514-28.218,42.976-30.81
	C193.527,269.322,214.572,279.425,227.441,297.478z"/>
<path style="fill:#5B5C5C;" d="M374.499,189.082c-23.612,45.188-6.447,101.351,38.227,125.23
	c15.939,8.513,33.322,11.747,50.127,10.382c8.4-3.579,6.679-8.949,4.341-12.409v0.025c-2.981-2.541-6.145-2.872-7.703-2.872
	c-0.297,0.025-0.682,0.059-0.979,0.059v0.01l0,0c-13.057,0.519-26.346-2.254-38.662-8.86
	c-37.248-19.885-51.501-66.709-31.864-104.342c19.702-37.658,65.952-52.094,103.2-32.2c37.233,19.885,51.501,66.684,31.814,104.322
	c-2.536,4.87-5.582,9.295-8.929,13.363c0,0.01,0.049,0.01,0.049,0.01s-2.6,3.367-3.214,6.106c-0.069,0.371-0.099,0.756-0.133,1.157
	c0.035,0.01,0.035,0.01,0.035,0.01c0,0.04-0.035,0.04-0.035,0.04c-0.232,3.698,0.964,8.271,7.989,8.276c0,0,3.762-1.918,4.39-2.615
	c5.137-5.666,9.646-12.043,13.373-19.113c23.612-45.188,6.412-101.375-38.212-125.23
	C453.607,126.595,398.061,143.909,374.499,189.082L374.499,189.082z"/>
<path style="fill:#5B5C5C;" d="M453.176,197.363c17.479-2.03,40.859,17.288,33.599,36.936c-1.319,6.064-4.119,11.806-8.607,16.182
	c-8.107,7.783-11.68,5.094-6.659,16.379c12.412,27.898,32.07,53.064,55.748,72.317c10.421,8.474,21.229,16.341,32.731,23.298
	c8.109,4.904,16.442,9.312,24.885,13.606c3.924,1.946,10.427,3.455,10.427,8.894c0,6.725-5.966,7.518-11.267,6.669
	c-27.069-10.68-53.481-29.406-74.866-48.999c-24.582-22.522-37.275-47.795-53.31-75.969c-3.627-6.373-0.351-6.064-8.647-8.731
	c-5.734-1.911-10.809-5.315-14.585-10.056c-4.834-5.559-5.371-11.709-6.842-18.475C425.782,213.745,436.656,198.825,453.176,197.363
	z"/>
</svg>
