<?xml version="1.0" encoding="utf-8"?>
<!-- Generator: Adobe Illustrator 18.0.0, SVG Export Plug-In . SVG Version: 6.00 Build 0)  -->
<!DOCTYPE svg PUBLIC "-//W3C//DTD SVG 1.1//EN" "http://www.w3.org/Graphics/SVG/1.1/DTD/svg11.dtd">
<svg version="1.1" id="图层_1" xmlns="http://www.w3.org/2000/svg" xmlns:xlink="http://www.w3.org/1999/xlink" x="0px" y="0px"
	 viewBox="0 0 595.3 841.9" enable-background="new 0 0 595.3 841.9" xml:space="preserve">
<path fill="#5B5C5C" d="M231.5,570.7l-96,72.3l15.7-113.2c-180.5-114-116.7-388.3,21.8-408.9h-83C40,120.9,0,158.6,0,208.7v424.5
	C0,683.2,42.6,721,92.7,721h414.7c50.1,0,87.8-28,87.8-78.1V476.5C506.8,584.5,377,613.5,231.5,570.7z"/>
<path fill="#5B5C5C" d="M582,328.3c0,106.1-104.2,192.1-232.8,192.1s-232.8-86-232.8-192.1c0-106.1,104.2-192,232.8-192
	C477.8,136.3,582,222.2,582,328.3z"/>
</svg>
