<?xml version="1.0" encoding="iso-8859-1"?>
<!-- Generator: Adobe Illustrator 18.0.0, SVG Export Plug-In . SVG Version: 6.00 Build 0)  -->
<!DOCTYPE svg PUBLIC "-//W3C//DTD SVG 1.1//EN" "http://www.w3.org/Graphics/SVG/1.1/DTD/svg11.dtd">
<svg version="1.1" id="&#x56FE;&#x5C42;_1" xmlns="http://www.w3.org/2000/svg" xmlns:xlink="http://www.w3.org/1999/xlink" x="0px"
	 y="0px" viewBox="0 0 124.204 111.167" style="enable-background:new 0 0 124.204 111.167;" xml:space="preserve">
<path style="fill-rule:evenodd;clip-rule:evenodd;fill:#5B5C5C;" d="M123.841,64.325c-11.878-5.012-24.6-8.427-37.891-9.996
	c1.849-2.694,3.401-5.564,4.788-8.615c0.018-0.04,0.033-0.079,0.049-0.118c-2.619,1.25-4.907,2.975-5.122,2.991
	c0.119-0.297,3.108-2.872,5.504-5.194c0.008-0.02,0.015-0.04,0.024-0.061c1.588-3.729,3.282-7.647,5.036-11.89
	c-2.329,0.648-4.441,1.543-4.652,1.559c0.135-0.336,3.826-3.521,6.277-6.009c1.353-3.067,2.885-6.319,4.713-9.566
	c0.157-0.278,0.345-0.592-0.092-0.476c-1.78,0.544-2.136,0.826-2.498,0.955c0.106-0.264,2.459-2.16,4.582-4.028
	c2.325-3.977,5.038-8.11,8.347-12.362c1.816-2.147,0.087-1.499-0.793-1.124C89.83,9.876,69.874,23.636,53.327,40.765
	c-0.054,0.057-0.107,0.117-0.16,0.174c-2.493-2.461-5.558-4.545-8.199-6.056c-3.193-1.828-6.896-2.873-10.844-2.873
	c-1.308,0-2.583,0.133-3.828,0.353c-0.459,0.007-1.064,0.152-1.861,0.491C21.202,35.931,3.162,35.5,0.552,35.651
	c-0.803,0.047-0.988,1.485,1.242,1.485c11.469,0,23.462,2.644,24.937,3.819c0.758,1.44,1.178,3.062,1.127,4.754
	c-0.174,5.71-0.583,6.362-0.583,11.648c0,11.18,8.034,18.481,10.346,20.028c9.092,6.285,18.863,11.535,29.295,15.573
	c5.51,2.01,11.454,12.351,18.23,18.005c0.449,0.375,1.006,0.24,0.888-0.483c-1.881-8.317-4.633-16.391-7.205-24.204
	c-1.021-3.103-2.16-6.148-3.4-9.14c6.066,0.323,11.181-0.853,15.566-2.34c0.225-0.076,0.325-0.157,0.325-0.238
	c0-0.081-0.053-0.161-0.249-0.239c-1.919-0.763-3.603-1.183-3.702-1.319c0.384-0.066,3.979,0.469,6.745,0.486
	c0.33,0.016,0.494-0.02,0.718-0.114c2.087-0.825,3.991-1.635,5.742-2.254c0.117-0.041,0.199-0.084,0.193-0.165
	c-0.006-0.081-0.064-0.103-0.175-0.169c-1.142-0.684-2.211-0.873-2.326-1.031c0.377-0.065,3.1,0.517,5.583,0.576
	c1.47-0.536,2.982-1.061,4.544-1.568c0.135-0.044,0.194-0.094,0.206-0.169c0.012-0.075-0.043-0.103-0.16-0.169
	c-1.05-0.593-1.823-0.972-1.893-1.069c0.305-0.053,1.817,0.364,3.711,0.627c0.264,0.048,0.507,0.03,0.71-0.026
	c3.958-1.188,8.229-2.246,12.898-3.075c0.304-0.054,0.345-0.146,0.339-0.227S124.155,64.457,123.841,64.325z"/>
</svg>
