<?xml version="1.0" encoding="iso-8859-1"?>
<!-- Generator: Adobe Illustrator 18.0.0, SVG Export Plug-In . SVG Version: 6.00 Build 0)  -->
<!DOCTYPE svg PUBLIC "-//W3C//DTD SVG 1.1//EN" "http://www.w3.org/Graphics/SVG/1.1/DTD/svg11.dtd">
<svg version="1.1" id="&#x56FE;&#x5C42;_1" xmlns="http://www.w3.org/2000/svg" xmlns:xlink="http://www.w3.org/1999/xlink" x="0px"
	 y="0px" viewBox="0 0 595.28 841.89" style="enable-background:new 0 0 595.28 841.89;" xml:space="preserve">
<path style="fill:#848484;" d="M447.584,403.58c-4.924-10.849-13.102-19.076-21.89-26.755c-9.774-8.537-20.495-15.783-31.596-22.482
	c-14.467-9.277-29.432-17.72-44.471-26.016c-12.204-6.733-24.488-13.333-36.909-19.652c-35.288-17.962-71.28-34.321-108.465-48.074
	c-22.009-8.138-44.855-14.851-67.347-21.392c-2.021-0.572-18.213-5.397-18.632-4.421l-1.632,5.895l-1.74,9.119
	c-2.538,10.119-3.726,20.476-5.358,30.748c-1.129,7.128-1.843,14.309-2.962,21.447c-1.109,7.078-1.528,14.265-2.228,21.407
	c-0.833,8.522-1.691,17.04-2.45,25.567c-0.542,6.102-1.139,12.214-1.346,18.336c-0.33,9.666-0.562,19.322-1.868,28.934
	c-0.414,3.031,0.064,6.176-0.049,9.262c-0.799,21.422-0.754,42.849-0.68,64.281c0.005,1.173,0.069,2.341,0.104,3.514l0,0
	c-0.054,4.757-0.242,9.518,0.291,14.27c0.069,0.606,0.133,1.217,0.202,1.829c-0.143,12.352,0.409,24.68,1.188,37.008
	c0.562,8.897,0.739,17.824,1.474,26.701c0.941,11.421,2.223,22.812,3.455,34.203c0.641,5.915,1.494,11.805,2.248,17.701
	c0.212,2.997,1.843,3.539,4.412,2.607c0.577-0.212,1.242-0.173,1.868-0.246c15.68-4.052,31.399-7.941,47.024-12.19
	c37.028-10.065,72.557-24.158,107.199-40.527c53.658-25.35,104.921-54.743,152.433-90.43c9.326-7.004,18.331-14.378,24.72-24.35
	c3.958-6.176,6.94-12.727,6.472-20.338C451.493,413.872,449.881,408.647,447.584,403.58z M331.779,425.105
	c-5.171,5.664-11.914,9.188-18.139,13.368c-36.648,24.591-73.4,49.025-110.087,73.562c-4.254,2.844-8.296,6.018-13.205,7.739
	c-9.429,3.307-16.187-0.71-17.449-10.647c-1.129-8.917-0.444-17.908-0.513-26.859c-0.212-26.676-0.276-53.358-0.394-80.039
	c0.38-13.639-0.094-27.273-0.153-40.907c-0.044-10.874-0.074-21.742-0.104-32.616c0-0.853-0.01-1.71,0.084-2.553
	c1.286-11.401,9.883-15.901,20.032-10.016c11.15,6.467,21.999,13.452,32.956,20.254c17.996,11.164,35.968,22.363,53.959,33.538
	c0.345,0.212,0.784,0.281,1.178,0.414l0,0c13.028,8.113,25.952,16.394,39.127,24.256c4.914,2.933,9.656,5.856,13.333,10.302
	C338.019,411.678,337.778,418.535,331.779,425.105z"/>
<path style="fill:#848484;" d="M100.382,216.884c-12.126-2.519-24.335-4.145-36.707-2.184c-15.497,2.46-27.687,9.839-35.14,24.108
	c-5.097,9.755-8.227,20.209-10.913,30.792c-5.93,23.339-9.839,47.048-12.692,70.95c-2.159,18.07-3.924,36.18-4.594,54.363
	c-0.922,24.917,0.207,49.794,1.686,74.666c1.932,32.488,5.294,64.808,10.78,96.897c2.351,13.752,6.245,26.952,13.486,38.984
	c6.96,11.569,17.025,18.484,30.58,20.234c11.593,1.494,22.98-0.059,34.366-1.927c-0.833-6.502-1.774-12.993-2.479-19.509
	c-1.36-12.554-2.77-25.114-3.81-37.698c-0.808-9.784-1.001-19.623-1.622-29.427c-0.858-13.585-1.469-27.174-1.311-40.788
	c-0.552-0.621-0.606-1.291-0.222-2.016c-0.587-5.23-0.38-10.479-0.32-15.724c-0.039-1.291-0.113-2.583-0.113-3.874
	c-0.079-23.62-0.128-47.236,0.749-70.841c0.128-3.401-0.399-6.866,0.054-10.208c1.439-10.593,1.696-21.235,2.06-31.886
	c0.232-6.743,0.887-13.481,1.484-20.204c0.833-9.4,1.779-18.79,2.696-28.18c0.769-7.872,1.232-15.793,2.455-23.591
	c1.232-7.862,2.016-15.783,3.263-23.635c1.799-11.327,3.105-22.738,5.9-33.888l2.322-12.175
	C102.743,217.959,102.077,217.239,100.382,216.884z"/>
<path style="fill:#848484;" d="M594.659,403.422c-1.74-13.713-9.548-24.458-17.833-34.75c-9.839-12.219-21.89-22.245-34.164-31.926
	c-8.646-6.817-17.301-13.649-26.657-19.509l0,0c-0.276-0.872-1.065-1.198-1.735-1.661c-5.708-3.899-11.376-7.842-17.208-11.569
	c-9.277-5.93-18.243-12.352-27.337-18.568c-15.532-10.617-31.886-19.928-47.941-29.693c-32.493-19.761-66.159-37.402-100.515-53.703
	c-30.605-14.521-61.831-27.495-94.058-38.003c-16.168-5.269-32.488-9.656-49.74-8.744c-22.112,1.168-39.334,10.903-51.066,29.728
	c-5.511,8.843-7.788,18.997-10.514,28.934c-0.606,2.208,0.754,2.282,2.031,2.652c4.845,1.4,9.705,2.75,14.556,4.126
	c24.789,7.211,49.528,14.487,73.789,23.458c40.986,15.157,80.65,33.183,119.541,52.983c13.688,6.97,27.224,14.245,40.675,21.663
	c16.577,9.144,33.065,18.445,49.01,28.673c12.229,7.389,24.044,15.369,34.819,24.779c9.686,8.463,18.701,17.528,24.128,29.486
	c2.534,5.58,4.303,11.342,3.82,17.582c0.513,8.389-2.775,15.611-7.137,22.413c-7.039,10.987-16.966,19.12-27.243,26.839
	c-52.357,39.329-108.86,71.719-167.979,99.662c-38.176,18.041-77.333,33.577-118.141,44.668
	c-17.222,4.683-34.548,8.966-51.825,13.432c5.19,27.248,18.785,47.699,46.201,56.951c8.399,2.243,16.991,3.386,25.641,3.396
	c13.042,0.02,25.917-1.824,38.57-4.974c25.922-6.457,50.859-15.734,75.248-26.543c12.135-5.378,24.118-11.056,35.928-17.148
	c24.34-12.559,47.906-26.42,70.945-41.207c23.413-15.029,46.107-31.083,68.234-47.921c15.295-11.638,30.442-23.477,44.954-36.101
	c6.98-6.068,13.959-12.14,20.924-18.213c13.89-12.116,27.426-24.591,40.015-38.008c8.739-9.316,16.005-19.85,20.382-32.069
	C595.837,417.677,595.561,410.554,594.659,403.422z"/>
<path style="fill:#848484;" d="M89.789,496.341c-0.552-0.621-0.606-1.291-0.222-2.016C89.641,495,89.715,495.671,89.789,496.341z"/>
</svg>
