<?xml version="1.0" encoding="iso-8859-1"?>
<!-- Generator: Adobe Illustrator 18.0.0, SVG Export Plug-In . SVG Version: 6.00 Build 0)  -->
<!DOCTYPE svg PUBLIC "-//W3C//DTD SVG 1.1//EN" "http://www.w3.org/Graphics/SVG/1.1/DTD/svg11.dtd">
<svg version="1.1" id="&#x56FE;&#x5C42;_1" xmlns="http://www.w3.org/2000/svg" xmlns:xlink="http://www.w3.org/1999/xlink" x="0px"
	 y="0px" viewBox="0 0 124 124" style="enable-background:new 0 0 124 124;" xml:space="preserve">
<path style="fill:#5B5C5C;" d="M118.103,70.101c0.338-2.559,0.534-5.154,0.534-7.804c0-31.73-25.495-57.461-56.935-57.461
	c-3.125,0-6.193,0.263-9.17,0.759C47.186,2.056,40.825,0,33.974,0C15.197,0,0,15.43,0,34.472c0,6.929,2.009,13.368,5.469,18.772
	c-0.468,2.95-0.7,5.974-0.7,9.053c0,31.742,25.477,57.468,56.933,57.468c3.544,0,7.007-0.349,10.364-0.961
	c5.215,3.281,11.363,5.197,17.96,5.197C108.794,124,124,108.564,124,89.522C124,82.324,121.825,75.628,118.103,70.101z
	 M65.773,94.088c-13.607,0.716-19.981-2.338-25.812-7.89c-6.522-6.206-3.903-13.288,1.409-13.643
	c5.306-0.361,8.494,6.103,11.321,7.896c2.826,1.793,13.595,5.87,19.278-0.722c6.193-7.174-4.12-10.889-11.671-12.015
	c-10.786-1.616-24.409-7.541-23.35-19.207c1.062-11.66,9.761-17.634,18.922-18.479c11.676-1.077,19.278,1.793,25.287,6.996
	c6.953,6.017,3.191,12.737-1.237,13.276c-4.416,0.538-9.369-9.891-19.097-10.044c-10.021-0.159-16.799,10.583-4.419,13.637
	c12.376,3.054,25.643,4.309,30.415,15.791C91.6,81.167,79.393,93.366,65.773,94.088z"/>
</svg>
