<?xml version="1.0" encoding="utf-8"?>
<!-- Generator: Adobe Illustrator 18.0.0, SVG Export Plug-In . SVG Version: 6.00 Build 0)  -->
<!DOCTYPE svg PUBLIC "-//W3C//DTD SVG 1.1//EN" "http://www.w3.org/Graphics/SVG/1.1/DTD/svg11.dtd">
<svg version="1.1" id="图层_1" xmlns="http://www.w3.org/2000/svg" xmlns:xlink="http://www.w3.org/1999/xlink" x="0px" y="0px"
	 viewBox="0 0 595.3 841.9" enable-background="new 0 0 595.3 841.9" xml:space="preserve">
<path fill="#5B5C5C" d="M394.8,702.9H94V634h300.8V702.9z"/>
<path fill="#5B5C5C" d="M532.3,347L481.1,49.7l63-11L595.3,336L532.3,347z"/>
<path fill="#5B5C5C" d="M394.3,618L96.2,590.3l5.9-64.2l298.1,27.7L394.3,618z"/>
<path fill="#5B5C5C" d="M403.3,532l-289.1-78.3l16.6-62.2l289.1,78.3L403.3,532z"/>
<path fill="#5B5C5C" d="M425.1,451.5L167.2,298.3l32.5-55.5L457.6,396L425.1,451.5z"/>
<path fill="#5B5C5C" d="M468,387.2L299.3,137.9l52.8-36.3l168.7,249.3L468,387.2z"/>
<path fill="#5B5C5C" d="M444.9,489.9V753H50.1V489.9H0v313.1h0.5c0,0.2,14.9,0.2,14.9,0.2h479v-0.2c0.5,0,0.5-15.1,0.5-15.1l0.1-298
	H444.9z"/>
</svg>
