<?xml version="1.0" encoding="utf-8"?>
<!-- Generator: Adobe Illustrator 18.0.0, SVG Export Plug-In . SVG Version: 6.00 Build 0)  -->
<!DOCTYPE svg PUBLIC "-//W3C//DTD SVG 1.1//EN" "http://www.w3.org/Graphics/SVG/1.1/DTD/svg11.dtd">
<svg version="1.1" id="图层_1" xmlns="http://www.w3.org/2000/svg" xmlns:xlink="http://www.w3.org/1999/xlink" x="0px" y="0px"
	 viewBox="0 0 595.3 841.9" enable-background="new 0 0 595.3 841.9" xml:space="preserve">
<path fill="#5B5C5C" d="M547.6,372.1c-8.1,89.8,10.6,175.1,47.6,261.7c-196.8-41.1-385.7-10.9-578.9,32.5
	c5.9-40,22.3-73.5,27.1-109.9C59.1,440.1,39.7,320.1,8.3,209c-10-35.4-16.6-38.4,15-28.4c114.4,36.4,250.7,47,370.2,41.5
	c-3.6,14.5-7.3,29-10.9,43.6c-96.7,0.4-193.4,0.3-288.2-22.3c-21.1-5-27.2,0.9-21.1,20.4c34.8,112,33.2,225.2,7.2,343.9
	c138.1-33.4,273.5-40.2,409.6-37.4c23.2,0.5,31.1-3.3,22.9-28.9c-18.2-57.4-25.1-116.8-19.4-177.1
	C510.1,376.6,529,373.4,547.6,372.1z"/>
<path fill="#5B5C5C" d="M393.8,267.2c3.6-14.5,7.3-29,10.9-43.6c10.9,1,21-7.8,15.1,23.1c-11,57.5,5.1,61,68.1,61.9
	c6.9,0.1,12-1.5,13.3,6.7c4.1,26.9,16.2,21.5,38.5,22.7c16,0.9,4.5,13.6,3.2,21.3c-18.6,1.3-37.5,4.5-54.2-7.9
	c-5.8-11.4-4.8-12.6-21.1-13C416.9,337.6,401.6,314.2,393.8,267.2z"/>
</svg>
