<?xml version="1.0" encoding="utf-8"?>
<!-- Generator: Adobe Illustrator 18.0.0, SVG Export Plug-In . SVG Version: 6.00 Build 0)  -->
<!DOCTYPE svg PUBLIC "-//W3C//DTD SVG 1.1//EN" "http://www.w3.org/Graphics/SVG/1.1/DTD/svg11.dtd">
<svg version="1.1" id="图层_1" xmlns="http://www.w3.org/2000/svg" xmlns:xlink="http://www.w3.org/1999/xlink" x="0px" y="0px"
	 viewBox="0 0 595.3 841.9" enable-background="new 0 0 595.3 841.9" xml:space="preserve">
<path fill="#5B5C5C" d="M150.9,476.4c0-4.7,3.8-8.6,8.6-8.6c4.7,0,8.6,3.8,8.6,8.6c0,4.7-3.8,8.5-8.6,8.5
	C154.7,485,150.9,481.1,150.9,476.4L150.9,476.4z M180.5,377.6h-0.1c-24.7,0-48.1,5.4-69,15.3c3.6-38.6,36.2-68.5,75.8-68.5
	c42,0,76,34,76,75.8l0.3,0.3c-20.5-12.4-44.2-20.3-69.4-22.4c-15.4,18.6-26.7,40.8-31.1,65.6c3.8-5.5,10.3-9.5,17.5-9.5
	c11.6,0,21,9.4,21,20.9c0,11.6-9.4,20.9-21,20.9h-0.1l0.1,0.3c11.6,0,21,9.4,21,20.9c0,11.6-9.4,20.9-21,20.9s-21-9.4-21-21
	c0,11.6-9.4,21-21,21c-11.6,0-21-9.4-21-20.9c0-11.5,9.3-20.9,20.9-20.9c-11.7,0-20.9-9.7-20.9-21.3s9.4-20.9,21-20.9
	c8.3,0,15.4,4.7,18.8,11.7C158.9,420.8,167.9,397.7,180.5,377.6L180.5,377.6z"/>
<path fill="#5B5C5C" d="M332.6,400.6c24.2-14.6,52.7-23,83.1-23c24.7,0,48,5.5,69,15.4c-3.6-38.6-36.1-68.6-75.7-68.6
	c-42,0-76,34-76,75.8L332.6,400.6L332.6,400.6z"/>
<path fill="#5B5C5C" d="M297.6,123.6C133.3,123.6,0,256.7,0,420.9c0,164.2,133.3,297.4,297.6,297.4s297.6-133.1,297.6-297.4
	C595.3,256.7,462,123.6,297.6,123.6z M297.6,662.7c-133.9,0-242.5-108.3-242.5-241.9s108.5-241.9,242.5-241.9
	c133.9,0,242.5,108.3,242.5,241.9C540,554.4,431.5,662.7,297.6,662.7z"/>
</svg>
