<?xml version="1.0" encoding="iso-8859-1"?>
<!-- Generator: Adobe Illustrator 18.0.0, SVG Export Plug-In . SVG Version: 6.00 Build 0)  -->
<!DOCTYPE svg PUBLIC "-//W3C//DTD SVG 1.1//EN" "http://www.w3.org/Graphics/SVG/1.1/DTD/svg11.dtd">
<svg version="1.1" id="&#x56FE;&#x5C42;_1" xmlns="http://www.w3.org/2000/svg" xmlns:xlink="http://www.w3.org/1999/xlink" x="0px"
	 y="0px" viewBox="0 0 110 121.801" style="enable-background:new 0 0 110 121.801;" xml:space="preserve">
<path style="fill:#5B5C5C;" d="M102.444,24.81L62.556,1.798c-4.156-2.398-10.957-2.398-15.113,0L7.556,24.81
	C3.4,27.208,0,33.093,0,37.889v46.024c0,4.796,3.4,10.681,7.556,13.079l39.887,23.012c4.156,2.398,10.957,2.398,15.113,0
	l39.887-23.012C106.6,94.593,110,88.708,110,83.912V37.889C110,33.093,106.6,27.208,102.444,24.81z M68.059,60.901
	c0,14.672-11.903,26.566-26.586,26.566c-14.683,0-26.586-11.894-26.586-26.566h0V40.625c0-3.474,2.818-6.291,6.296-6.291
	c3.477,0,6.295,2.816,6.295,6.291v20.275c0,7.723,6.266,13.984,13.995,13.984s13.995-6.261,13.995-13.984V40.625
	c0-3.474,2.819-6.291,6.295-6.291c3.477,0,6.295,2.816,6.295,6.291V60.901z M95.113,81.176c0,3.474-2.818,6.291-6.295,6.291
	c-3.477,0-6.296-2.817-6.296-6.291V40.625c0-3.474,2.819-6.291,6.296-6.291c3.477,0,6.295,2.816,6.295,6.291V81.176z"/>
</svg>
