<?xml version="1.0" encoding="iso-8859-1"?>
<!-- Generator: Adobe Illustrator 18.0.0, SVG Export Plug-In . SVG Version: 6.00 Build 0)  -->
<!DOCTYPE svg PUBLIC "-//W3C//DTD SVG 1.1//EN" "http://www.w3.org/Graphics/SVG/1.1/DTD/svg11.dtd">
<svg version="1.1" id="&#x56FE;&#x5C42;_1" xmlns="http://www.w3.org/2000/svg" xmlns:xlink="http://www.w3.org/1999/xlink" x="0px"
	 y="0px" viewBox="0 0 119.655 68.286" style="enable-background:new 0 0 119.655 68.286;" xml:space="preserve">
<path style="fill-rule:evenodd;clip-rule:evenodd;fill:#5B5C5C;" d="M58.544,68h7.152c0,0,2.16-0.238,3.264-1.427
	c1.015-1.092,0.983-3.143,0.983-3.143s-0.14-9.6,4.313-11.013c4.392-1.393,10.03,9.278,16.005,13.381
	c4.519,3.104,7.953,2.425,7.953,2.425L114.194,68c0,0,8.359-0.516,4.395-7.09c-0.324-0.537-2.309-4.863-11.882-13.751
	c-10.02-9.303-8.677-7.798,3.393-23.89c7.35-9.8,10.288-15.783,9.37-18.345c-0.875-2.441-6.281-1.796-6.281-1.796L95.197,3.238
	c0,0-1.335-0.182-2.324,0.41c-0.967,0.579-1.587,1.931-1.587,1.931s-2.849,7.583-6.645,14.033
	C76.629,33.22,73.425,33.94,72.116,33.094c-3.047-1.97-2.285-7.911-2.285-12.133c0-13.188,2-18.687-3.894-20.11
	c-1.955-0.472-3.396-0.785-8.398-0.835c-6.42-0.066-11.853,0.02-14.929,1.527c-2.047,1.003-3.626,3.237-2.664,3.366
	c1.189,0.158,3.882,0.727,5.31,2.67c1.844,2.51,1.779,8.144,1.779,8.144s1.06,15.524-2.474,17.453
	c-2.425,1.322-5.752-1.378-12.895-13.724c-3.659-6.324-6.422-13.315-6.422-13.315S24.711,4.83,23.761,4.13
	c-1.153-0.847-2.764-1.116-2.764-1.116L3.9,3.126c0,0-2.566,0.072-3.509,1.188c-0.839,0.994-0.067,3.047-0.067,3.047
	s13.385,31.326,28.541,47.112C42.764,68.95,58.544,68,58.544,68L58.544,68z"/>
</svg>
