<?xml version="1.0" encoding="iso-8859-1"?>
<!-- Generator: Adobe Illustrator 18.0.0, SVG Export Plug-In . SVG Version: 6.00 Build 0)  -->
<!DOCTYPE svg PUBLIC "-//W3C//DTD SVG 1.1//EN" "http://www.w3.org/Graphics/SVG/1.1/DTD/svg11.dtd">
<svg version="1.1" id="&#x56FE;&#x5C42;_1" xmlns="http://www.w3.org/2000/svg" xmlns:xlink="http://www.w3.org/1999/xlink" x="0px"
	 y="0px" viewBox="0 0 120.735 122.683" style="enable-background:new 0 0 120.735 122.683;" xml:space="preserve">
<path style="fill:#5D5E5E;" d="M79.368,3.339c0,0-18.606-8-40.916,0.766l40.916,42.234V3.339z M33.149,6.612
	c0,0-18.119,8.55-27.781,30.727h58L33.149,6.612z M84.368,5.339v59l30.031-29.335C114.399,35.004,106.263,15.119,84.368,5.339z
	 M3.368,42.339c0,0-8,19.013,0.66,41.61l41.34-41.61H3.368z M36.399,117.712V58.459L6.336,88.908
	C6.336,88.908,14.504,107.932,36.399,117.712z M86.774,116.066c0,0,18.932-7.55,28.594-29.727h-58L86.774,116.066z M116.707,39.141
	l-41.34,42.198h42C117.368,81.339,125.368,61.738,116.707,39.141z M41.274,119.358c0,0,19.107,7.981,41.416-0.785L41.324,76.675
	L41.274,119.358z"/>
</svg>
