<?xml version="1.0" encoding="utf-8"?>
<!-- Generator: Adobe Illustrator 18.0.0, SVG Export Plug-In . SVG Version: 6.00 Build 0)  -->
<!DOCTYPE svg PUBLIC "-//W3C//DTD SVG 1.1//EN" "http://www.w3.org/Graphics/SVG/1.1/DTD/svg11.dtd">
<svg version="1.1" id="图层_1" xmlns="http://www.w3.org/2000/svg" xmlns:xlink="http://www.w3.org/1999/xlink" x="0px" y="0px"
	 viewBox="0 0 595.3 841.9" enable-background="new 0 0 595.3 841.9" xml:space="preserve">
<path fill="#5B5C5C" d="M63.9,355.6c35.2,0,63.9,28.6,63.9,63.7c0,35.1-28.7,63.7-63.9,63.7C28.7,482.9,0,454.3,0,419.2
	C0,384.2,28.7,355.6,63.9,355.6L63.9,355.6z M348.4,167c15.8,0,31.2,1.5,46.1,4.3c-0.3,2.7-0.4,5.4-0.4,8.2c0,48.9,40,88.8,89,88.8
	c19.3,0,37.1-6.1,51.7-16.6c33.9,38.7,55.9,88,60.3,142.1l-100.8,3.1c-8.4-72.8-70.7-129.6-145.9-129.6c-21.2,0-41.5,4.5-59.7,12.7
	l-50.4-87.1C271.4,176.3,308.9,167,348.4,167L348.4,167z"/>
<path fill="#5B5C5C" d="M486.5,598.7c35.2,0,63.8,28.6,63.8,63.7c0,35.1-28.7,63.7-63.8,63.7c-35.2,0-63.9-28.6-63.9-63.7
	C422.7,627.3,451.4,598.7,486.5,598.7L486.5,598.7z M207.2,616.2c-43-30-76.2-73.2-93.3-123.6c23.5-16,39-42.9,39-73.4
	c0-31.6-16.8-59.5-41.9-75.2c15.8-53.4,49.4-99.4,93.8-131.1l53.1,85.6c-34.3,26.8-56.4,68.6-56.4,115.3
	c0,46.3,21.7,87.7,55.5,114.5L207.2,616.2L207.2,616.2z"/>
<path fill="#5B5C5C" d="M595.3,431.2c-4.1,58.9-29.1,112.1-67.6,152.5c-12.3-6.4-26.3-10.1-41.1-10.1c-46.8,0-85.3,36.3-88.8,82
	c-16,3.2-32.5,5-49.4,5c-38.8,0-75.5-9-108.2-24.9l50.2-87.3c17.8,7.7,37.4,11.9,58,11.9c75.5,0,138.1-57.4,146-130.6L595.3,431.2
	L595.3,431.2z M483.1,115.9c35.2,0,63.9,28.6,63.9,63.7c0,35.1-28.7,63.7-63.9,63.7c-35.2,0-63.9-28.6-63.9-63.7
	C419.3,144.5,448,115.9,483.1,115.9L483.1,115.9z"/>
</svg>
