<?xml version="1.0" encoding="utf-8"?>
<!-- Generator: Adobe Illustrator 18.0.0, SVG Export Plug-In . SVG Version: 6.00 Build 0)  -->
<!DOCTYPE svg PUBLIC "-//W3C//DTD SVG 1.1//EN" "http://www.w3.org/Graphics/SVG/1.1/DTD/svg11.dtd">
<svg version="1.1" id="图层_1" xmlns="http://www.w3.org/2000/svg" xmlns:xlink="http://www.w3.org/1999/xlink" x="0px" y="0px"
	 viewBox="0 0 595.3 841.9" enable-background="new 0 0 595.3 841.9" xml:space="preserve">
<path fill="#5B5C5C" d="M264.1,610.2c43.7-0.3,80.5-15.1,110.8-44.8c42.6-41.7,84.3-84.3,126.5-126.4c19.3-19.2,47.6-22.1,69.4-7.5
	c27.2,18.2,33.2,57.2,10.3,80.7c-47.3,48.4-93.3,98.3-144.1,143c-54.5,48-119.8,68-192.1,62C158.1,709.9,90.2,668.8,42.5,596
	c-67.3-102.8-53.3-239.6,32.4-327.7c41.8-42.9,84.3-85,126.6-127.4c17.7-17.7,40.9-22,62.5-12.1c20.7,9.5,33.2,30.8,31.4,54.8
	c-1,13.8-7.9,24.9-17.6,34.6c-41.2,41.1-82.3,82.3-123.3,123.6c-23.3,23.5-38.7,51.4-43.7,84.3c-9.8,63.9,11.7,115.6,62.7,154.5
	C200.4,601.3,231.6,610,264.1,610.2z"/>
<path fill="#5B5C5C" d="M477.6,192.4c16.9,1.9,35,10.3,44.3,31.7c9.2,21.4,6.3,41.8-9.7,58.4c-30.5,31.8-62,62.6-93.2,93.8
	c-37.4,37.5-75,74.9-112.3,112.5c-16.3,16.4-35.5,22.1-57.5,14.9c-21.6-7.1-34-23-37.1-45.5c-2.4-18.1,4.1-33.3,16.9-46
	c37.7-37.7,75.3-75.4,113-113.1c30.1-30.2,60.3-60.3,90.4-90.4C443.8,197.5,456.6,192.3,477.6,192.4z"/>
</svg>
