<?xml version="1.0" encoding="iso-8859-1"?>
<!-- Generator: Adobe Illustrator 18.0.0, SVG Export Plug-In . SVG Version: 6.00 Build 0)  -->
<!DOCTYPE svg PUBLIC "-//W3C//DTD SVG 1.1//EN" "http://www.w3.org/Graphics/SVG/1.1/DTD/svg11.dtd">
<svg version="1.1" id="&#x56FE;&#x5C42;_1" xmlns="http://www.w3.org/2000/svg" xmlns:xlink="http://www.w3.org/1999/xlink" x="0px"
	 y="0px" viewBox="0 0 123.112 105" style="enable-background:new 0 0 123.112 105;" xml:space="preserve">
<path style="fill:#5B5C5C;" d="M71.367,0H4.459C1.996,0,0,1.977,0,4.415v30.548h62.745c1.305,0,2.552,0.532,3.449,1.47
	l14.562,15.241c0.324,0.34,0.326,0.87,0.003,1.211L66.196,68.273C65.299,69.221,64.313,70,63,70H0v30.585
	C0,103.023,1.996,105,4.459,105h66.895c1.474,0,2.887-0.58,3.929-1.612l45.196-44.785c3.521-3.489,3.509-9.148-0.027-12.623
	L75.28,1.596C74.239,0.574,72.833,0,71.367,0z"/>
</svg>
