<?xml version="1.0" encoding="iso-8859-1"?>
<!-- Generator: Adobe Illustrator 18.0.0, SVG Export Plug-In . SVG Version: 6.00 Build 0)  -->
<!DOCTYPE svg PUBLIC "-//W3C//DTD SVG 1.1//EN" "http://www.w3.org/Graphics/SVG/1.1/DTD/svg11.dtd">
<svg version="1.1" id="&#x56FE;&#x5C42;_1" xmlns="http://www.w3.org/2000/svg" xmlns:xlink="http://www.w3.org/1999/xlink" x="0px"
	 y="0px" viewBox="0 0 124 100" style="enable-background:new 0 0 124 100;" xml:space="preserve">
<path style="fill:#5B5C5C;" d="M124,11.837c-4.563,2.014-9.468,3.365-14.614,3.981c5.253-3.125,9.287-8.081,11.186-13.969
	c-4.912,2.89-10.361,4.987-16.151,6.128C99.778,3.065,93.167,0,85.852,0C71.801,0,60.41,11.304,60.41,25.251
	c0,1.967,0.224,3.906,0.659,5.754C39.927,29.944,21.18,19.897,8.632,4.629c-2.188,3.724-3.444,8.057-3.444,12.684
	c0,8.765,4.492,16.485,11.319,21.014c-4.17-0.129-8.094-1.269-11.522-3.162C4.98,35.27,4.98,35.373,4.98,35.487
	c0,12.235,8.772,22.435,20.408,24.753c-2.134,0.579-4.382,0.881-6.702,0.881c-1.638,0-3.235-0.15-4.787-0.45
	c3.236,10.032,12.632,17.333,23.764,17.528C28.956,84.974,17.986,89.013,6.07,89.013c-2.055,0-4.08-0.12-6.07-0.361
	C11.258,95.817,24.631,100,38.996,100c46.795,0,72.38-38.467,72.38-71.826c0-1.091-0.023-2.187-0.068-3.268
	C116.281,21.345,120.588,16.899,124,11.837z"/>
</svg>
