<?xml version="1.0" encoding="iso-8859-1"?>
<!-- Generator: Adobe Illustrator 18.0.0, SVG Export Plug-In . SVG Version: 6.00 Build 0)  -->
<!DOCTYPE svg PUBLIC "-//W3C//DTD SVG 1.1//EN" "http://www.w3.org/Graphics/SVG/1.1/DTD/svg11.dtd">
<svg version="1.1" id="&#x56FE;&#x5C42;_1" xmlns="http://www.w3.org/2000/svg" xmlns:xlink="http://www.w3.org/1999/xlink" x="0px"
	 y="0px" viewBox="0 0 72 118" style="enable-background:new 0 0 72 118;" xml:space="preserve">
<path style="fill:#5B5C5C;" d="M54.678,98.782c-3.266,0-6.161-0.784-8.699-2.344c-1.914-1.158-3.667-3.163-4.367-5.098
	c-0.706-1.942-0.621-5.881-0.621-12.73L41,48h27V27H41L40.991,0H24.684c-0.731,6.086-2.069,11.106-4.014,15.038
	c-1.945,3.947-4.517,7.315-7.738,10.132C9.724,27.98,4.504,30.141,0,31.645V48h16v42c0,5.394,0.125,9.255,1.226,12.093
	c1.101,2.838,3.066,5.521,5.917,8.049c2.84,2.499,6.277,4.455,10.304,5.825C37.475,117.322,40.566,118,45.81,118
	c4.614,0,8.909-0.48,12.884-1.433c3.969-0.96,8.411-2.627,13.306-4.999V92.957C66.258,96.84,60.485,98.782,54.678,98.782z"/>
</svg>
