<?xml version="1.0" encoding="utf-8"?>
<!-- Generator: Adobe Illustrator 18.0.0, SVG Export Plug-In . SVG Version: 6.00 Build 0)  -->
<!DOCTYPE svg PUBLIC "-//W3C//DTD SVG 1.1//EN" "http://www.w3.org/Graphics/SVG/1.1/DTD/svg11.dtd">
<svg version="1.1" id="图层_1" xmlns="http://www.w3.org/2000/svg" xmlns:xlink="http://www.w3.org/1999/xlink" x="0px" y="0px"
	 viewBox="0 0 595.3 841.9" enable-background="new 0 0 595.3 841.9" xml:space="preserve">
<path fill="#5B5C5C" d="M595.3,608.8c-198.4,0-396.9,0-595.3,0v102.5h595.3V608.8z M502.6,686.9c-15.3,0-33.2,0-48.8,0
	c0-15.3,0-33.1,0-48.8c15.5,0,33.3,0,48.8,0C502.6,653.5,502.6,671.3,502.6,686.9z"/>
<path fill="#5B5C5C" d="M64.8,130.8c41.6,0,82.6,0,124,0c28.8,102.7,57.6,205.4,86.5,308.1c0.3,0,0.6,0,1,0
	c2.1-6.9,4.1-13.8,6.2-20.7c6.5-22.2,13.1-44.5,19.5-66.7c6.1-20.7,12-41.5,18.1-62.2c4.6-15.6,9.3-31.1,13.8-46.6
	c4.6-15.6,9-31.2,13.5-46.7c4.4-15.1,9-30.2,13.4-45.3c1.7-5.8,3.6-11.6,5.1-17.5c0.5-2,1.3-2.5,3.2-2.5c37.8,0,75.6,0,113.4,0
	c0.7,0,1.4,0.2,2.5,0.3c-2.6,7.1-5,14.1-7.5,21c-9.4,26.1-18.7,52.1-28.1,78.2c-8.4,23.4-17,46.7-25.4,70
	c-10.8,29.9-21.4,59.8-32.1,89.7c-8.8,24.6-17.8,49.2-26.7,73.8c-9.3,25.9-18.6,51.7-28,77.6c-0.3,0.9-0.7,1.8-1,2.7
	c-1,2.7-1.3,6.6-3.2,7.7c-2.3,1.4-6,0.6-9.1,0.6c-34.7,0-69.4,0-104,0.1c-2.9,0-4.3-0.6-5.3-3.7c-5.2-15.3-10.8-30.4-16.3-45.5
	c-6.5-18.2-13-36.4-19.5-54.6c-5.6-15.5-11.2-31-16.7-46.5c-6.5-18.1-12.9-36.2-19.3-54.2c-5.4-15-10.8-30.1-16.2-45.1
	c-6-16.7-12-33.4-18-50.1c-6-16.8-12-33.6-18-50.4c-8-22.3-16-44.6-24-66.9C66,133.8,65.5,132.5,64.8,130.8z"/>
</svg>
