<?xml version="1.0" encoding="utf-8"?>
<!-- Generator: Adobe Illustrator 18.0.0, SVG Export Plug-In . SVG Version: 6.00 Build 0)  -->
<!DOCTYPE svg PUBLIC "-//W3C//DTD SVG 1.1//EN" "http://www.w3.org/Graphics/SVG/1.1/DTD/svg11.dtd">
<svg version="1.1" id="图层_1" xmlns="http://www.w3.org/2000/svg" xmlns:xlink="http://www.w3.org/1999/xlink" x="0px" y="0px"
	 viewBox="0 0 595.3 841.9" enable-background="new 0 0 595.3 841.9" xml:space="preserve">
<path fill="#5B5C5C" d="M297.6,718.6C133.5,718.6,0,585.1,0,420.9s133.5-297.6,297.6-297.6c164.1,0,297.6,133.5,297.6,297.6
	S461.8,718.6,297.6,718.6z M297.6,137.3c-156.5,0-283.8,127.3-283.8,283.7c0,156.4,127.3,283.7,283.8,283.7s283.9-127.3,283.9-283.7
	C581.5,264.5,454.2,137.3,297.6,137.3z"/>
<path fill="#5B5C5C" d="M40.5,417c0,101.7,59.4,189.8,145.5,231.4l-123.1-336C48.5,344.3,40.5,379.7,40.5,417z M303.2,439.5
	l-77.5,224.1c23.1,6.8,47.6,10.5,72.9,10.5c30,0,58.9-5.2,85.7-14.6c-0.7-1.1-1.3-2.2-1.8-3.5L303.2,439.5z M525.1,293.6
	c1.2,8.2,1.8,17,1.8,26.5c0,26.1-4.9,55.4-19.6,92.1l-78.8,227.1c76.7-44.5,128.3-127.4,128.3-222.2
	C556.7,372.3,545.2,330.2,525.1,293.6z M472.9,404c0-31.8-11.5-53.8-21.3-70.9c-13.1-21.2-25.3-39.1-25.3-60.3
	c0-23.6,17.9-45.6,43.4-45.6c1.1,0,2.2,0.2,3.3,0.2c-45.9-41.9-107.1-67.5-174.3-67.5c-90.2,0-169.5,46.1-215.6,115.9
	c6.1,0.2,11.8,0.3,16.6,0.3c27,0,68.8-3.3,68.8-3.3c13.9-0.8,15.5,19.6,1.6,21.2c0,0-14,1.6-29.6,2.4l94,278.5l56.5-168.7
	l-40.2-109.8c-13.9-0.8-27.1-2.4-27.1-2.4c-13.9-0.8-12.3-22,1.7-21.2c0,0,42.6,3.3,68,3.3c27,0,68.8-3.3,68.8-3.3
	c13.9-0.8,15.5,19.6,1.6,21.2c0,0-14,1.6-29.5,2.4l93.3,276.4l25.8-85.7C466.3,453.7,472.9,426,472.9,404z"/>
</svg>
