<?xml version="1.0" encoding="utf-8"?>
<!-- Generator: Adobe Illustrator 18.0.0, SVG Export Plug-In . SVG Version: 6.00 Build 0)  -->
<!DOCTYPE svg PUBLIC "-//W3C//DTD SVG 1.1//EN" "http://www.w3.org/Graphics/SVG/1.1/DTD/svg11.dtd">
<svg version="1.1" id="图层_1" xmlns="http://www.w3.org/2000/svg" xmlns:xlink="http://www.w3.org/1999/xlink" x="0px" y="0px"
	 viewBox="0 0 595.3 841.9" enable-background="new 0 0 595.3 841.9" xml:space="preserve">
<path fill="#5B5C5C" d="M595.3,103.8c-8.8,15.3-22.7,19.3-34.5,25.8c-53.2,29.3-106.6,58-160.1,86.9c-30,16.2-60.3,32.2-90.2,48.5
	c-18.2,9.9-36.4,20-54.1,30.9c-7,4.4-13.8,10.4-18.3,17.3c-3.5,5.5-4.7,13.3-4.6,20.1c0.2,14.8,3,29.6,2.9,44.4
	c-0.5,48.6-28.3,77.2-75.2,84c-21.5,3.1-42.9,3-64.4,0.2c-3.7-0.5-8.8,1.3-11.5,3.9c-15.7,15.4-30.9,31.2-46.1,47
	c-7.7,8-15,16.5-22.7,24.5c-5,5.2-8.9,3.7-12.6-2.3c-6.1-9.8-3.4-19.9-1.8-29.9c4.3-25.6,7.6-51.5,14.1-76.6
	c9.5-36.8,26.1-70.2,50.4-100.1c22.5-27.6,51.3-46.6,82.2-62.5c44.6-23,89.6-45.2,135.2-66.2c64.9-29.9,131.5-55.8,199.8-76.8
	c32.7-10.1,65.7-19.6,100.3-20.6C587.3,102.3,590.7,103.2,595.3,103.8z"/>
<path fill="#5B5C5C" d="M560.8,620.5c-11.8-3.2-22.2-5.6-32.4-8.7c-68.6-21.4-137-43.2-205.7-64.4c-7.5-2.3-15.8-2.9-23.7-2.5
	c-4.9,0.3-10.4,3-14.2,6.3c-11.6,9.7-21.7,21.4-34,30.1c-24.9,17.7-50.2,14.8-71.6-6.8c-7.8-7.9-14.5-16.9-21.7-25.3
	c-1.4-1.6-3.1-4.1-4.7-4.2c-9.3-0.6-18.7-0.7-28-0.7c-14.5,0-29,0.4-43.5,0.4c-1.5,0-3.1-1.1-4.9-1.8c1-11.4,10.6-15.2,17.7-20.5
	c27.2-20.5,56.8-36.7,89.5-46.8c33-10.1,65.7-7.1,98.1,3.5c49.4,16.2,98.2,34.2,145,56.9c29.4,14.3,58.8,28.7,87.1,45
	c16.3,9.4,30.5,22.5,45.6,34.1C559.8,615.5,559.8,616.7,560.8,620.5z"/>
<path fill="#5B5C5C" d="M267.5,739.6c-28.3-28.6-56.7-57.2-85-85.7c-10.3-10.4-13.6-11.3-26.2-5.1c-18.9,9.3-30,1.1-37.2-13
	c-1.9-3.8-4.2-7.6-5.1-11.7c-2.4-11.1-9.4-17.5-19.4-21.8c-5.7-2.5-11.1-5.6-17.7-9c2.1-1.6,3.3-3.3,4.9-3.7
	c30.5-9.2,58.2-6,82,17.5c35.9,35.7,69,73.8,96.9,116.1c2.8,4.3,5.3,8.7,7.8,13.1c0.4,0.6,0.3,1.5,0.5,2.3
	C268.5,738.9,268,739.2,267.5,739.6z"/>
</svg>
