<?xml version="1.0" encoding="iso-8859-1"?>
<!-- Generator: Adobe Illustrator 18.0.0, SVG Export Plug-In . SVG Version: 6.00 Build 0)  -->
<!DOCTYPE svg PUBLIC "-//W3C//DTD SVG 1.1//EN" "http://www.w3.org/Graphics/SVG/1.1/DTD/svg11.dtd">
<svg version="1.1" id="&#x56FE;&#x5C42;_1" xmlns="http://www.w3.org/2000/svg" xmlns:xlink="http://www.w3.org/1999/xlink" x="0px"
	 y="0px" viewBox="0 0 124 110.005" style="enable-background:new 0 0 124 110.005;" xml:space="preserve">
<path style="fill:#5B5C5C;" d="M113,110.002c-0.004-9.409-0.056-18.983-0.056-28.392c-0.002-20.876,0-41.752,0-62.627
	c0-0.318,0-0.636,0-1.233c-1.038,1.282-1.917,2.35-2.777,3.433c-3.795,4.78-7.581,9.566-11.375,14.346
	c-4.779,6.021-9.561,12.04-14.345,18.057c-4.583,5.765-9.17,11.526-13.754,17.29c-0.475,0.597-0.881,1.254-1.399,1.81
	C69,73.002,68.57,73.004,68,73.002c-3.999-0.011-8.001-0.012-12,0c-0.573,0.002-1.008,0.153-1.385-0.322
	c-6.486-8.188-13.003-16.351-19.499-24.531c-5.747-7.238-11.476-14.491-17.215-21.735c-2.077-2.622-4.161-5.238-6.249-7.851
	c-0.158-0.198-0.3-0.433-0.593-0.52c-0.175,0.367-0.083,0.75-0.083,1.117C10.971,49.092,11,79.071,11,109.002
	c0,0.294,0.004,0.706,0,1c-3.412,0-6.589-0.037-10,0c-0.605,0.007-1,0-1,0C0.02,88.477,0.018,66.08,0.018,44.555
	c0-14.586,0.005-29.171-0.017-43.757C0,0.194,0,0.002,0,0.002c3.411,0.037,7.588,0,11,0c2.228,2.836,4.405,5.771,6.645,8.598
	c3.533,4.459,7.082,8.905,10.621,13.359c3.74,4.706,7.476,9.416,11.216,14.122c3.795,4.775,7.596,9.545,11.391,14.32
	c3.485,4.385,6.974,8.767,10.438,13.168c0.494,0.628,0.798,0.628,1.292,0c3.08-3.919,6.191-7.815,9.289-11.72
	c3.426-4.319,6.846-8.644,10.275-12.961c3.776-4.752,7.562-9.497,11.341-14.247c3.323-4.177,6.646-8.352,9.96-12.535
	c3.168-4,6.369-8.099,9.53-12.103c3.412,0,11-0.005,11,0c0,0.056,0,0.396,0,1c-0.02,21.702-0.103,43.2-0.103,64.901
	c0,14.409,0.081,28.69,0.103,43.099c0.001,0.604,0,1.038,0,1C120.589,109.965,116.412,110.002,113,110.002z"/>
</svg>
