<?xml version="1.0" encoding="iso-8859-1"?>
<!-- Generator: Adobe Illustrator 18.0.0, SVG Export Plug-In . SVG Version: 6.00 Build 0)  -->
<!DOCTYPE svg PUBLIC "-//W3C//DTD SVG 1.1//EN" "http://www.w3.org/Graphics/SVG/1.1/DTD/svg11.dtd">
<svg version="1.1" id="&#x56FE;&#x5C42;_1" xmlns="http://www.w3.org/2000/svg" xmlns:xlink="http://www.w3.org/1999/xlink" x="0px"
	 y="0px" viewBox="0 0 122 96" style="enable-background:new 0 0 122 96;" xml:space="preserve">
<path style="fill:#5B5C5C;" d="M25.809,65.915h5.926v29.394h5.727V65.915h5.926v-4.992H25.809V65.915z M55.053,89.206
	c-0.479,0.547-1.003,1.006-1.579,1.354c-0.571,0.359-1.05,0.542-1.416,0.542c-0.479,0-0.823-0.138-1.042-0.409
	c-0.208-0.265-0.316-0.697-0.316-1.299v-19.46H45.62v21.212c0,1.515,0.302,2.637,0.892,3.4c0.595,0.757,1.477,1.133,2.657,1.133
	c0.953,0,1.937-0.266,2.945-0.813c1.025-0.536,1.992-1.316,2.939-2.35v2.792h5.081V69.934h-5.081V89.206z M73.615,69.63
	c-0.789,0-1.574,0.199-2.349,0.597c-0.762,0.398-1.491,0.995-2.178,1.764V60.922h-5.136v34.386h5.136v-1.946
	c0.668,0.774,1.396,1.349,2.178,1.714c0.77,0.376,1.654,0.553,2.657,0.553c1.504,0,2.657-0.475,3.455-1.432
	c0.798-0.962,1.194-2.339,1.194-4.135V75.982c0-2.073-0.424-3.654-1.277-4.738C76.449,70.171,75.222,69.63,73.615,69.63z
	 M73.332,89.366c0,0.818-0.149,1.393-0.441,1.747c-0.294,0.359-0.748,0.536-1.371,0.536c-0.427,0-0.831-0.089-1.222-0.271
	c-0.393-0.177-0.798-0.486-1.211-0.896V74.677c0.352-0.354,0.695-0.614,1.053-0.774c0.349-0.171,0.712-0.249,1.078-0.249
	c0.679,0,1.208,0.216,1.579,0.658c0.363,0.442,0.535,1.095,0.535,1.957V89.366z M88.954,69.303c-2.272,0-4.119,0.691-5.563,2.073
	c-1.435,1.388-2.161,3.19-2.161,5.379v11.399c0,2.444,0.665,4.362,1.97,5.755c1.305,1.393,3.097,2.09,5.377,2.09
	c2.532,0,4.436-0.652,5.699-1.963c1.283-1.321,1.914-3.284,1.914-5.882v-1.305h-5.225v1.161c0,1.487-0.177,2.449-0.507,2.886
	c-0.338,0.442-0.92,0.664-1.765,0.664c-0.812,0-1.388-0.254-1.723-0.774c-0.338-0.514-0.496-1.443-0.496-2.775v-4.787h9.716v-6.468
	c0-2.399-0.618-4.246-1.867-5.523C93.074,69.945,91.282,69.303,88.954,69.303z M90.966,79.277h-4.491v-2.56
	c0-1.062,0.166-1.83,0.524-2.278c0.355-0.47,0.934-0.691,1.742-0.691c0.77,0,1.346,0.221,1.69,0.691
	c0.349,0.448,0.535,1.216,0.535,2.278V79.277z M61.492,21.024c-0.701,0-1.264,0.188-1.704,0.564
	c-0.432,0.376-0.651,0.868-0.651,1.482v15.219c0,0.768,0.205,1.36,0.609,1.78c0.405,0.42,0.989,0.63,1.746,0.63
	c0.776,0,1.388-0.216,1.848-0.641c0.46-0.431,0.684-1.023,0.684-1.769V23.07c0-0.614-0.233-1.106-0.698-1.482
	C62.857,21.212,62.248,21.024,61.492,21.024z M109.248,0H12.752C5.735,0,0,5.727,0,12.726v27.045
	c0,6.999,5.735,12.721,12.752,12.721h96.495c7.018,0,12.752-5.722,12.752-12.721V12.726C122,5.727,116.265,0,109.248,0z
	 M45.285,29.118v15.717h-6.441V29.825L31.175,6.955h6.488l4.181,15.137h0.407l3.981-15.137h6.552L45.285,29.118z M69.855,37.875
	c0,2.388-0.742,4.257-2.219,5.623c-1.49,1.36-3.53,2.04-6.131,2.04c-2.499,0-4.504-0.702-6.009-2.106
	c-1.496-1.404-2.253-3.295-2.253-5.666V23.28c0-2.167,0.77-3.892,2.313-5.175c1.538-1.277,3.613-1.924,6.208-1.924
	c2.369,0,4.311,0.68,5.829,2.029c1.504,1.354,2.261,3.096,2.261,5.224V37.875z M90.825,44.835h-5.727v-3.09
	c-1.044,1.139-2.141,2.007-3.288,2.604c-1.139,0.592-2.247,0.89-3.316,0.89c-1.332,0-2.321-0.42-2.995-1.249
	c-0.665-0.835-1.003-2.079-1.003-3.748V16.889h5.716v21.422c0,0.663,0.13,1.139,0.368,1.432c0.235,0.298,0.626,0.453,1.161,0.453
	c0.418,0,0.956-0.199,1.601-0.591c0.637-0.393,1.227-0.896,1.756-1.51V16.889h5.727V44.835z"/>
</svg>
