<?xml version="1.0" encoding="utf-8"?>
<!-- Generator: Adobe Illustrator 18.0.0, SVG Export Plug-In . SVG Version: 6.00 Build 0)  -->
<!DOCTYPE svg PUBLIC "-//W3C//DTD SVG 1.1//EN" "http://www.w3.org/Graphics/SVG/1.1/DTD/svg11.dtd">
<svg version="1.1" id="图层_1" xmlns="http://www.w3.org/2000/svg" xmlns:xlink="http://www.w3.org/1999/xlink" x="0px" y="0px"
	 viewBox="0 0 595.3 841.9" enable-background="new 0 0 595.3 841.9" xml:space="preserve">
<path fill="#5B5C5C" d="M254.9,223.3h-88.7l-17.2,78l-92.4,1.1l-15.1,77.1h49.1l-36.8,203L0,594.3v97.6l285-89.2l2-12v-70.6
	l-156.7,46.9l30.2-191.3l54.8-3.9l-34.9,156.8l78.2-24.2L283.8,373l38.5-8.3l25.2-77L238,296.9L254.9,223.3"/>
<path fill="#5B5C5C" d="M364.4,598.2L388,473.2h94.8L451,625.3h-90.2 M495.4,213.9l-83.7,3.5l-26.4,193.3h-68L287,590.7v11.4l-2,0.6
	l-15,89.2h258l43.4-285l-114,7.5l3.3-55.8l112.8,2.9l21.7-86.9L479.6,276L495.4,213.9"/>
<path fill="#5B5C5C" d="M287,590.7l-2,12l2-0.6V590.7"/>
<path fill="#5B5C5C" d="M420.5,214.8c0,0,18.3-7.3,25.4-16.7c4-5.4,9.4-15.7,18.3-28.5c7.7-11,46.2-20.2,50.9-19.6
	c3.3,0.4-16.4,21.2-17.6,22.2c-0.8,0.7-20.4,6.3-26.2,27.6c-4.1,15.1-6.5,17.2-3.3,20.9c3.1,3.6,29.5-15.1,34-15.7
	c4.4-0.5-2.6,16.3-4.9,17.5c-1.3,0.7-27.3,10-25.2,22.3L420.5,214.8z"/>
<path fill="#5B5C5C" d="M174.4,236.3c0,0,18.1-7.7,27.2-17.3c5-5.3,12.4-15,23-26.6c8.7-9.5,44.4-20.8,48.8-20.8
	c3.2,0-17.8,19.3-19,20.3c-0.9,0.7-20.2,7.2-30.2,27.9c-7.9,16.3-10.8,18.7-8.7,23c2.1,4.3,34.1-17.7,39-18.5
	c4.9-0.7-5.5,19.4-8.4,21c-1.7,0.9-32.3,12.2-34.1,29.1L174.4,236.3z"/>
</svg>
